<?xml version="1.0" encoding="utf-8"?>
<!-- Generator: Adobe Illustrator 23.1.1, SVG Export Plug-In . SVG Version: 6.00 Build 0)  -->
<svg version="1.1" id="Ebene_1" xmlns="http://www.w3.org/2000/svg" xmlns:xlink="http://www.w3.org/1999/xlink" x="0px" y="0px"
	 viewBox="0 0 1366 768" style="enable-background:new 0 0 1366 768;" xml:space="preserve">
<style type="text/css">
	.st0{fill:#5C6A7D;}
	.st1{fill:#36485E;}
	.st2{fill-rule:evenodd;clip-rule:evenodd;fill:#253854;}
	.st3{fill-rule:evenodd;clip-rule:evenodd;fill:#1C2A40;}
	.st4{opacity:0.1;fill:#5C6A7D;}
	.st5{stroke:#FFFFFF;stroke-width:1.1226;stroke-miterlimit:10;}
	.st6{stroke:#FFFFFF;stroke-width:2;}
	.st7{fill:none;stroke:#000000;stroke-width:2.2451;}
	.st8{stroke:#FFFFFF;stroke-width:2.2451;}
	.st9{stroke:#FFFFFF;stroke-width:0.3996;}
	.st10{stroke:#000000;stroke-width:2;stroke-miterlimit:10;}
	.st11{fill:none;stroke:#000000;stroke-width:1.5576;stroke-miterlimit:10;}
	.st12{fill:none;stroke:#000000;stroke-width:2.4921;stroke-miterlimit:10;}
	.st13{fill:#FFFFFF;}
	.st14{fill:none;stroke:#000000;stroke-width:2;stroke-miterlimit:10;}
	.st15{stroke:#FFFFFF;stroke-width:0.8419;stroke-miterlimit:10;}
	.st16{stroke:#FFFFFF;stroke-width:0.9022;stroke-miterlimit:10;}
	.st17{fill:#1C2A40;}
	.st18{fill:#1C2A40;stroke:#FFFFFF;stroke-width:0.75;stroke-miterlimit:10;}
	.st19{stroke:#FFFFFF;stroke-width:1.8698;}
	.st20{fill:none;stroke:#1C2A40;stroke-width:2.2451;stroke-miterlimit:10;}
	.st21{fill:#37485E;}
	.st22{fill:#253854;}
	.st23{opacity:0.7;}
	.st24{fill:none;stroke:#1C2A40;stroke-width:0.293;stroke-linecap:round;stroke-linejoin:round;}
	.st25{fill:none;stroke:#1C2A40;stroke-width:0.2791;}
	.st26{opacity:0.8;}
	.st27{fill:none;stroke:#1C2A40;stroke-width:0.2707;stroke-linecap:round;stroke-linejoin:round;}
	.st28{fill:none;stroke:#1C2A40;stroke-width:0.2579;}
	.st29{opacity:0.9;}
	.st30{fill:none;stroke:#1C2A40;stroke-width:0.2637;stroke-linecap:round;stroke-linejoin:round;}
	.st31{fill:none;stroke:#1C2A40;stroke-width:0.2512;}
	.st32{fill:none;stroke:#1C2A40;stroke-width:0.2822;stroke-miterlimit:10;}
	.st33{fill-rule:evenodd;clip-rule:evenodd;fill:#5C6A7D;}
	.st34{fill-rule:evenodd;clip-rule:evenodd;fill:#36485E;}
	.st35{fill:#38485E;}
	.st36{fill:#FFFFFF;stroke:#FFFFFF;stroke-miterlimit:10;}
	.st37{fill:#FFFFFF;stroke:#FFFFFF;stroke-width:3.3656;stroke-miterlimit:10;}
	.st38{fill:#FFFFFF;stroke:#FFFFFF;stroke-width:2.9414;stroke-miterlimit:10;}
	.st39{fill:none;stroke:#FFFFFF;stroke-width:6.6037;stroke-miterlimit:10;}
</style>
<g>
	<path class="st13" d="M67.7,472.7c10.1,0,19.3,4.1,25.9,10.7c6.6,6.6,10.7,15.8,10.7,25.9c0,10.1-4.1,19.3-10.7,25.9
		c-6.6,6.6-15.8,10.7-25.9,10.7c-10.1,0-19.3-4.1-25.9-10.7c-6.6-6.6-10.7-15.8-10.7-25.9s4.1-19.3,10.7-25.9
		C48.5,476.8,57.6,472.7,67.7,472.7z M87.6,489.4c-5.1-5.1-12.1-8.2-19.9-8.2s-14.8,3.1-19.9,8.2c-5.1,5.1-8.2,12.1-8.2,19.9
		c0,7.8,3.1,14.8,8.2,19.9c5.1,5.1,12.1,8.2,19.9,8.2s14.8-3.1,19.9-8.2c5.1-5.1,8.2-12.1,8.2-19.9
		C95.9,501.5,92.7,494.5,87.6,489.4z"/>
	<path class="st13" d="M67.7,300.1L67.7,300.1c9.2,0,17.5,3.8,23.6,9.8c6,6,9.8,14.4,9.8,23.6v128.8c7.2,5.1,13.2,11.8,17.4,19.6
		c4.5,8.2,7,17.6,7,27.5c0,15.9-6.5,30.4-16.9,40.8s-24.9,16.9-40.8,16.9s-30.4-6.5-40.8-16.9S10,525.3,10,509.3
		c0-9.9,2.5-19.3,7-27.5c4.2-7.8,10.2-14.5,17.4-19.6V333.4c0-9.2,3.8-17.5,9.8-23.6C50.2,303.8,58.6,300.1,67.7,300.1z M67.7,308.6
		L67.7,308.6c-6.8,0-13,2.8-17.5,7.3c-4.5,4.5-7.3,10.7-7.3,17.5v131c0,1.4-0.7,2.8-1.9,3.6l0,0c-6.9,4.5-12.6,10.6-16.5,17.9
		c-3.8,7-5.9,15-5.9,23.5c0,13.6,5.5,25.9,14.4,34.8c8.9,8.9,21.2,14.4,34.8,14.4c13.6,0,25.9-5.5,34.8-14.4
		c8.9-8.9,14.4-21.2,14.4-34.8c0-8.5-2.1-16.5-5.9-23.5c-3.9-7.1-9.5-13.2-16.3-17.7c-1.3-0.7-2.2-2.1-2.2-3.7v-131
		c0-6.8-2.8-13-7.3-17.5C80.8,311.4,74.6,308.6,67.7,308.6z"/>
	<path class="st13" d="M58.7,347.3c-2.3,0-4.2,1.9-4.2,4.2c0,2.3,1.9,4.2,4.2,4.2h16.4c2.3,0,4.2-1.9,4.2-4.2c0-2.3-1.9-4.2-4.2-4.2
		H58.7z"/>
	<path class="st13" d="M58.7,363.3c-2.3,0-4.2,1.9-4.2,4.2c0,2.3,1.9,4.2,4.2,4.2h8.2c2.3,0,4.2-1.9,4.2-4.2c0-2.3-1.9-4.2-4.2-4.2
		H58.7z"/>
	<path class="st13" d="M58.7,379.3c-2.3,0-4.2,1.9-4.2,4.2s1.9,4.2,4.2,4.2h16.4c2.3,0,4.2-1.9,4.2-4.2s-1.9-4.2-4.2-4.2H58.7z"/>
	<path class="st13" d="M58.7,395.3c-2.3,0-4.2,1.9-4.2,4.2c0,2.3,1.9,4.2,4.2,4.2h8.2c2.3,0,4.2-1.9,4.2-4.2c0-2.3-1.9-4.2-4.2-4.2
		H58.7z"/>
	<path class="st13" d="M58.7,411.4c-2.3,0-4.2,1.9-4.2,4.2c0,2.3,1.9,4.2,4.2,4.2h16.4c2.3,0,4.2-1.9,4.2-4.2c0-2.3-1.9-4.2-4.2-4.2
		H58.7z"/>
	<path class="st13" d="M58.7,427.4c-2.3,0-4.2,1.9-4.2,4.2s1.9,4.2,4.2,4.2h8.2c2.3,0,4.2-1.9,4.2-4.2s-1.9-4.2-4.2-4.2H58.7z"/>
	<path class="st13" d="M58.7,443.4c-2.3,0-4.2,1.9-4.2,4.2c0,2.3,1.9,4.2,4.2,4.2h16.4c2.3,0,4.2-1.9,4.2-4.2c0-2.3-1.9-4.2-4.2-4.2
		H58.7z"/>
</g>
<path class="st36" d="M1279.2,489.5c-1.7,0-3.4-0.4-4.8-1.1c-3.7-1.8-5.4-5.4-4.3-9c2.2-7.2,5.8-17.9,7-21.4
	c1.1-3.1,3.5-5.5,6.4-6.2c3.1-0.8,6.3,0.2,9.2,2.8c6.3,5.7,10.6,11.6,0.6,26.1l0,0C1288.9,487,1283.6,489.5,1279.2,489.5z
	 M1285.5,455.7c-0.3,0-0.7,0-1,0.1c-1.6,0.4-2.9,1.7-3.5,3.5c-1.2,3.5-4.8,14.1-6.9,21.3c-0.6,2,0.7,3.4,2.1,4.1
	c3.4,1.7,9,0.3,13.6-6.3l0,0c8.8-12.7,4.9-16.2,0.1-20.7C1288.4,456.4,1286.9,455.7,1285.5,455.7z M1310.1,496.7c-1,0-2-0.2-2.9-0.6
	c-4.2-1.8-5.9-7.3-5-16.2c0.7-6.7,2.5-10.7,5.8-12.6c3-1.7,6.8-1.5,11.8,0.7c3.6,1.6,5.8,4,6.5,7.2c1.5,6.7-4,13.9-5.7,15.9l0,0
	C1318.3,493.9,1314.1,496.7,1310.1,496.7z M1312.4,470.4c-0.9,0-1.7,0.2-2.4,0.6c-2,1.1-3.2,4.3-3.7,9.4c-0.7,6.6,0.2,10.9,2.5,11.9
	c2.3,1,6.4-1.2,8.5-3.7c2.8-3.3,5.7-8.5,4.9-12.3c-0.4-1.9-1.8-3.3-4.1-4.4C1315.8,470.9,1313.9,470.4,1312.4,470.4z M1331.6,515
	c-0.4,0-0.8,0-1.2-0.1c-1.8-0.2-5.9-1.5-5.9-8l0.1-0.6c1.6-5.2,5.9-17.6,9.9-19.3c0.9-0.4,1.9-0.4,2.7,0.1c0.5,0.3,1.2,0.6,2,0.9
	c5.1,2.2,14.7,6.4,12.7,13.4l0,0C1350.4,506.3,1339.2,515,1331.6,515z M1328.7,507.2c0.1,3.3,1.6,3.5,2.3,3.6
	c5.2,0.7,15.9-7.1,16.9-10.6l0,0c1-3.5-6.7-6.8-10.4-8.4c-0.6-0.3-1.2-0.5-1.7-0.7C1334.2,492.5,1331.1,499.5,1328.7,507.2z
	 M1197.9,555.5c-1.7,0-3.2-0.6-4.5-1.6c-1.5-1.2-2.4-3-2.6-5c-0.3-3.8,2.4-7.1,6.2-7.6c30.8-3.5,57.9-19.5,72.4-42.7l1.1-1.8
	l12.1,7.5l-1.1,1.8c-16.8,26.8-47.7,45.2-82.8,49.2C1198.4,555.5,1198.1,555.5,1197.9,555.5z M1271.8,502.6
	c-15.4,23.3-43,39.2-74.4,42.8c-1.5,0.2-2.6,1.5-2.5,3.1c0.1,0.8,0.4,1.5,1.1,2c0.6,0.5,1.4,0.8,2.2,0.7c33-3.8,62.2-20.8,78.6-45.5
	L1271.8,502.6z M1344.1,529.6c-0.3,0-0.5,0-0.8-0.1c-2.7-0.4-4.2-2.5-4.2-5.6l0.1-0.6c1.5-4.9,3.9-11,6.4-12
	c0.8-0.3,1.6-0.3,2.3,0.1c0.3,0.1,0.7,0.3,1.2,0.5c3.3,1.4,9.4,4.1,8,9C1356,524.5,1348.8,529.6,1344.1,529.6z M1343.2,524.3
	c0.1,1.1,0.4,1.2,0.6,1.2c2.8,0.4,8.7-4.2,9.1-5.7c0.2-0.6-0.7-1.8-5.7-4c-0.1-0.1-0.3-0.1-0.4-0.2
	C1345.9,516.9,1344.4,520.6,1343.2,524.3z M1345.9,515.1L1345.9,515.1C1346,515.1,1346,515.1,1345.9,515.1L1345.9,515.1z
	 M1317.7,563.5c9.7-9.5,15.7-19.2,19-25.6c0.5-1,0.1-2.3-0.9-2.8c-1-0.5-2.3-0.1-2.8,0.9c-3.2,6.1-8.9,15.4-18.2,24.5
	c-0.8,0.8-0.8,2.1,0,3c0.4,0.4,1,0.6,1.6,0.6C1316.8,564.1,1317.3,563.9,1317.7,563.5z M1289.3,570.9c-0.7,0-1.4,0-2.1-0.2
	c-1.9-0.5-3.5-1.7-4.4-3.5l0,0c-1.8-3.3-0.7-7.5,2.5-9.5c24.8-15.5,32.4-38,32.5-38.2l0.6-2l13.5,4.3l-0.6,2
	c-0.4,1.1-9.1,27.6-38.5,46C1291.7,570.5,1290.5,570.9,1289.3,570.9z M1286.4,565.2c0.4,0.7,1.1,1.2,1.8,1.4
	c0.8,0.2,1.6,0.1,2.3-0.3c24-14.9,33.5-35.3,36-41.7l-5.6-1.8c-2.5,6-11.6,24.9-33.5,38.5C1286.1,562.2,1285.6,563.9,1286.4,565.2
	L1286.4,565.2z M1233,499.2h-48.5c-6.5,0-11.8-5.3-11.8-11.8v-3.4l10-10l9.6,9.6l9.5-9.5l7.4,7.4h2.5c8.8,0,17.2-4.2,22.5-11.2
	l4.3-5.9l0.8-0.9c4.5-4.9,9.5-7.1,16.4-7.1l11.6,0.2l-8,23.9C1255.5,491.6,1244.9,499.2,1233,499.2z M1176.9,485.7v1.7
	c0,4.2,3.4,7.6,7.6,7.6h48.5c10.1,0,19.1-6.4,22.3-16l0,0l6.2-18.4l-5.8-0.1c-5.7,0-9.6,1.7-13.3,5.8l-0.7,0.8l-4,5.4
	c-6.1,8.3-15.8,13.2-26,13.2h-4.2l-5.7-5.7l-9.5,9.5l-9.6-9.6L1176.9,485.7z M1245.1,567.4c-1.1,0-2.3-0.3-3.3-0.8
	c-1.7-0.9-3-2.5-3.5-4.4l0-0.1c-0.9-3.6,1.1-7.3,4.6-8.5c35.9-12.1,48.4-41.9,48.5-42.2l0.8-1.9l13.2,5.2l-0.8,1.9
	c-0.6,1.5-14.9,36.3-57.2,50.4C1246.6,567.3,1245.9,567.4,1245.1,567.4z M1242.3,561.1c0.2,0.8,0.7,1.4,1.4,1.7
	c0.7,0.4,1.5,0.4,2.3,0.2c35.4-11.9,50.2-38.7,53.8-46.1l-5.5-2.2c-3.4,7.1-17.4,31.7-50.2,42.7
	C1242.7,558,1241.9,559.6,1242.3,561.1L1242.3,561.1z M1169.4,484.1v-19.9c0-7.2,4.6-13.7,11.4-16.1l21.9-7.8l16.3-13
	c5.7-4.6,12.6-7.7,19.8-9l26.7-4.8c0.5-0.1,1.1-0.1,1.6-0.1c2.8,0,5.3,1.3,7,3.5c1.7,2.2,2.2,5,1.5,7.7l-8.1,29.1l-11.7-0.2
	c-7.3,0-12.3,2.1-17.1,7.4l-1.7,1.8c-3.9,4.3-9.5,6.8-15.3,6.8l-18.7,0.1l-10.8,10.8l-9.6-9.6L1169.4,484.1z M1182.7,464.8l9.6,9.6
	l9.1-9l20.4-0.1c4.6,0,9.1-2,12.2-5.4l1.7-1.8c5.6-6.1,11.6-8.8,20.2-8.8l8.5,0.1l7.3-26c0.4-1.4,0.1-2.9-0.8-4.1
	c-1.1-1.4-2.7-2.1-4.5-1.8l-26.7,4.8c-6.5,1.2-12.7,4-17.9,8.1l-16.9,13.4l-0.3,0.1l-22.2,7.9c-5.1,1.8-8.6,6.7-8.6,12.2v9.9
	L1182.7,464.8z M1229,451.5c-2.1,0-4.2-0.8-5.7-2.4c-1.6-1.6-2.5-3.9-2.4-6.3c0.2-2.3,1.3-4.5,3.1-5.9l4.1-3.1
	c5.1-4,12.4-3.4,16.9,1.2c2,2.1,2.8,5,2,7.8c-0.8,2.8-2.9,4.9-5.7,5.7l0,0l-10.2,2.7C1230.4,451.4,1229.7,451.5,1229,451.5z
	 M1235.9,435.4c-1.8,0-3.7,0.6-5.2,1.8l-4.1,3.1c-0.9,0.7-1.5,1.7-1.5,2.9c-0.1,1.1,0.3,2.2,1.1,3c1,1,2.4,1.4,3.8,1l10.2-2.7
	c1.4-0.4,2.4-1.4,2.8-2.7c0.4-1.4,0-2.8-1-3.8C1240.4,436.3,1238.1,435.4,1235.9,435.4z M1182.8,462.1c-1.3,2.3-3.7,3.5-5.3,2.6
	c-1.6-0.9-1.7-3.5-0.4-5.9c1.4-2.4,3.7-3.5,5.3-2.6C1184,457.2,1184.2,459.8,1182.8,462.1z M1188.6,534.1c1,0,24-0.7,43.8-11.9
	c1-0.6,1.4-1.8,0.8-2.8c-0.6-1-1.8-1.4-2.8-0.8c-18.9,10.7-41.7,11.4-41.9,11.4c-1.2,0-2.1,1-2,2.1
	C1186.5,533.2,1187.4,534.1,1188.6,534.1C1188.6,534.1,1188.6,534.1,1188.6,534.1z"/>
<g>
	<path class="st13" d="M984.4,252.1c0,1.9,0.3,3.7,0.8,5.5c0.4,1.5,1.8,2.6,3.4,2.6h44.6c-0.1,0.8-0.1,1.5-0.1,2.3
		c0,1.9,0.3,3.7,0.8,5.5c0.4,1.5,1.8,2.6,3.4,2.6h109.7c1.6,0,2.9-1,3.3-2.6c0.5-1.8,0.8-3.7,0.8-5.5c-0.2-12.4-10.4-22.2-22.8-22
		c-1.3,0-2.7,0.1-4,0.4c-5.3-11.6-17-19-29.8-18.9c-7.1,0-14.1,2.3-19.8,6.5c-5.8-10.5-16.8-17-28.8-17
		c-13.3-0.2-25.3,7.8-30.3,20.1c-2.7-1-5.5-1.5-8.3-1.5C994.9,230,984.7,239.8,984.4,252.1z M1118.8,246.1c0.6,1.8,2.5,2.8,4.4,2.2
		c0,0,0,0,0,0c1.6-0.6,3.3-0.9,5.1-0.9c8.5-0.2,15.6,6.5,15.8,15c0,0.4,0,0.8-0.1,1.2h-104c0-0.4-0.1-0.8-0.1-1.2
		c0.2-8.5,7.3-15.3,15.8-15c3,0,6,0.8,8.6,2.5c1.6,1,3.8,0.5,4.8-1.1c0.2-0.3,0.3-0.7,0.4-1c3.9-13.7,18.2-21.7,31.9-17.9
		C1109.6,232.3,1116,238.3,1118.8,246.1L1118.8,246.1z M1007.2,237.1c3,0,6,0.8,8.6,2.5c1.6,1,3.8,0.5,4.8-1.1
		c0.2-0.3,0.3-0.7,0.4-1c2.9-11.3,13.2-19.1,24.8-18.8c10.1-0.1,19.3,5.8,23.5,15c-2.2,2.6-3.9,5.5-5.2,8.6c-2.7-1-5.5-1.5-8.3-1.5
		c-8.8-0.1-16.8,4.9-20.7,12.7h-43.7c0-0.4-0.1-0.8-0.1-1.2C991.6,243.6,998.7,236.9,1007.2,237.1z"/>
	<path class="st13" d="M1067.7,371.3c-1.9,0-3.5,1.6-3.5,3.5c0,13.4,10.9,24.3,24.3,24.3c1.9,0,3.5-1.6,3.5-3.5
		C1092,382.2,1081.2,371.3,1067.7,371.3z M1071.7,378.7c6.4,1.5,11.5,6.5,13,13C1078.2,390.2,1073.2,385.2,1071.7,378.7z"/>
	<path class="st13" d="M1103.5,299.4c-1.4,1.4-1.4,3.6,0,4.9c0,0,1.3,1.4,0.8,2.7c-0.3,0.8-2,3.2-10.2,5.3c2-10.7,1.8-21.7-0.7-32.3
		c-0.5-1.8-2.4-2.8-4.2-2.4l-9,2.2c-20.9,5.2-42.8,5.2-63.7,0l-9-2.2c-1.9-0.5-3.7,0.7-4.2,2.5c-0.3,1.2,0.1,2.4,0.9,3.3
		c8.5,7.8,13.8,18.4,14.9,29.9c-11.1-2.1-12.9-4.8-13.2-5.7c-0.4-1.2,1.2-2.9,1.6-3.3c1.5-1.2,1.7-3.4,0.4-4.9s-3.4-1.7-4.9-0.4
		c-3.3,2.6-4.8,6.9-3.7,11c1.3,3.5,5,7.7,19.6,10.3c-0.9,7.5-3.6,14.6-7.9,20.8c-1.1,1.2-2.1,2.4-3,3.6c-5-1.3-5.7-2.8-5.7-2.9
		c-0.2-0.5,0.7-1.8,1.7-2.6c1.5-1.2,1.7-3.4,0.5-4.9c-1.2-1.5-3.4-1.7-4.9-0.5c-0.6,0.5-5.8,4.9-3.9,10.3c1.5,3.3,4.5,5.7,8.1,6.6
		c-4.6,7.2-7.2,15.6-7.4,24.1c-1.1-0.6-2.1-1.5-2.9-2.4c-1.7-2.1-2.5-4.8-2.2-7.5c0.4-1.9-0.9-3.7-2.7-4.1c-1.9-0.4-3.7,0.9-4.1,2.7
		c-0.7,4.7,0.6,9.4,3.6,13.1c2.4,2.8,5.4,4.9,8.9,6c3.5,21.1,20.6,35.6,21.4,36.3c1.5,1.2,3.7,1.1,4.9-0.4c0.8-0.9,1-2.1,0.7-3.3
		c-3.6-11.5-4-21.3-1.5-29.2c13.7,3.1,14.2,12.4,14.2,12.8c0,1.9,1.6,3.5,3.5,3.5s3.5-1.6,3.5-3.5c0-0.2-0.3-14.5-18.2-19.2
		c3.9-5.9,9.9-10.2,16.8-12.1c0.2,0,0.3-0.1,0.5-0.1c7.5-2.7,14.6-6.3,21.2-10.6c9.1,2.5,10.6,5.7,10.8,6.3c0.6,1.8,2.6,2.8,4.4,2.2
		s2.8-2.6,2.2-4.4c-1-3.1-3.9-6.5-10.7-9.1c4.9-4,9.1-8.6,12.7-13.8c13.2-2.1,17.3-5.2,18.1-6.1c1.3-1.3,1.3-3.4,0.1-4.7
		c-1.3-1.4-3.4-1.5-4.8-0.3c-2.6,1.6-5.6,2.6-8.6,3.1c1.6-3.3,3-6.7,4.1-10.3c13.3-2.7,17.1-6.8,18.5-10.2c1.3-3.6,0.4-7.6-2.3-10.2
		C1107,298.1,1104.8,298.1,1103.5,299.4z M1016.3,287.1c21.6,5.1,44,5,65.5-0.4l5.6-1.4c1.8,9.4,1.7,19.1-0.5,28.5
		c-11,1.5-22,2.2-33.1,2c-9.3,0.1-18.6-0.3-27.9-1.3C1025.6,304.6,1022.2,295,1016.3,287.1z M1014.3,404.6c-4.6-5.9-8-12.7-9.9-19.9
		c2.6,0.3,5.2,0.5,7.8,0.5c1.1,0,2.1,0.1,3.1,0.1C1013.7,391.6,1013.3,398.2,1014.3,404.6z M1040.4,361c-8.9,2.3-16.7,7.9-21.5,15.8
		c-0.3,0.6-0.6,1.1-0.9,1.7c-1.8-0.2-3.7-0.3-5.8-0.3c-3,0-5.9-0.2-8.9-0.8c-0.3-8.9,2.3-17.7,7.6-24.9c7.3,1.1,14.7,1.5,22.1,1.4
		c6.9-0.1,13.7,0.3,20.6,1.1C1049.3,357.4,1044.9,359.4,1040.4,361L1040.4,361z M1079.5,331.7c-8.5,1-17.1,1.5-25.6,1.4h-19
		c-1.9,0-3.5,1.6-3.5,3.5c0,1.9,1.6,3.5,3.5,3.5h19c7.9,0,14.4-0.3,19.9-0.8c-3.4,3.8-7.2,7.3-11.4,10.3c-9.7-1.9-19.5-2.7-29.4-2.5
		c-5.7,0-11.4-0.2-17.1-0.8c0.2-0.2,0.3-0.3,0.5-0.5c5.3-7.1,8.5-15.5,9.4-24.3c9.3,1,18.7,1.4,28.1,1.3c10.3,0.1,20.6-0.4,30.8-1.6
		C1083.3,324.8,1081.6,328.4,1079.5,331.7L1079.5,331.7z"/>
</g>
<g>
	<path class="st37" d="M246.5,311.7c18.3,0,33.1-14.8,33.2-33.1c0-18.3-14.8-33.1-33.1-33.2s-33.1,14.8-33.2,33.1c0,0,0,0,0,0.1
		C213.4,296.9,228.2,311.7,246.5,311.7z M246.5,251.1c15.2,0,27.6,12.3,27.6,27.5c0,15.2-12.3,27.6-27.5,27.6
		c-15.2,0-27.6-12.3-27.6-27.5c0,0,0-0.1,0-0.1C219,263.4,231.3,251.1,246.5,251.1z"/>
	<path class="st37" d="M246.5,224.8c1.5,0,2.7-1.2,2.7-2.7c0,0,0,0,0-0.1v-21.5c0.4-1.5-0.4-3-1.9-3.5c-1.5-0.4-3,0.4-3.5,1.9
		c-0.1,0.5-0.1,1,0,1.5V222C243.9,223.5,245,224.8,246.5,224.8z"/>
	<path class="st37" d="M215.8,231.3c0.5,0.9,1.4,1.4,2.4,1.4c0.5,0,0.9-0.1,1.3-0.4c1.3-0.7,1.8-2.4,1-3.7c0,0,0,0,0,0l-10.8-18.8
		c-0.8-1.3-2.4-1.8-3.8-1c-1.3,0.8-1.8,2.4-1,3.8L215.8,231.3z"/>
	<path class="st37" d="M177.2,242l18.9,10.8c0.4,0.2,0.9,0.4,1.3,0.4c1,0,2-0.5,2.5-1.5c0.8-1.3,0.3-3-1-3.8c0,0,0,0,0,0l-18.8-10.8
		c-1.3-0.8-3-0.3-3.8,1C175.6,239.5,176,241.2,177.2,242z"/>
	<path class="st37" d="M168.1,281.4H190c1.5-0.4,2.3-2,1.9-3.5c-0.3-0.9-1-1.7-1.9-1.9h-21.8c-1.5,0.4-2.3,2-1.9,3.5
		C166.5,280.4,167.2,281.1,168.1,281.4z"/>
	<path class="st37" d="M196.1,304.5l-18.9,10.8c-1.5,0.4-2.4,1.9-2,3.4c0.4,1.5,1.9,2.4,3.4,2c0.5,0,1-0.1,1.4-0.4l18.8-10.8
		c1.3-0.8,1.8-2.4,1-3.8c-0.8-1.3-2.4-1.8-3.8-1l0,0V304.5z"/>
	<path class="st37" d="M205.9,348.9c0.4,0.2,0.9,0.4,1.3,0.4c1,0,1.9-0.5,2.4-1.4l10.8-18.8c0.8-1.3,0.3-3-1-3.8
		c-1.3-0.8-3-0.3-3.8,1c0,0,0,0,0,0L204.9,345C204.2,346.4,204.6,348.1,205.9,348.9z"/>
	<path class="st37" d="M243.7,335.2v21.5c-0.4,1.5,0.4,3,1.9,3.5c1.5,0.4,3-0.4,3.5-1.9c0.1-0.5,0.1-1,0-1.5v-21.5
		c0.4-1.5-0.4-3-1.9-3.5c-1.5-0.4-3,0.4-3.5,1.9C243.5,334.1,243.5,334.7,243.7,335.2z"/>
	<path class="st37" d="M277.2,326.2c-0.8-1.3-2.5-1.8-3.8-1c-1.3,0.8-1.8,2.5-1,3.8l10.8,18.8c0.5,0.9,1.4,1.4,2.4,1.4
		c0.5,0,1-0.1,1.4-0.4c1.3-0.8,1.8-2.5,1-3.8L277.2,326.2z"/>
	<path class="st37" d="M294.1,309.3l18.8,10.8c0.4,0.3,0.9,0.4,1.4,0.4c1,0,1.9-0.5,2.4-1.4c0.8-1.3,0.3-3-1-3.8c0,0,0,0,0,0
		l-18.8-10.8c-1.3-0.8-3-0.3-3.8,1C292.3,306.8,292.8,308.5,294.1,309.3z"/>
	<path class="st37" d="M300.3,278.6c0,1.5,1.2,2.8,2.7,2.8c0,0,0,0,0.1,0h21.5c1.5-0.4,2.3-2,1.9-3.5c-0.3-0.9-1-1.7-1.9-1.9H303
		C301.6,276,300.4,277.1,300.3,278.6z"/>
	<path class="st37" d="M295.4,253.1c0.5,0,1-0.1,1.5-0.3l18.8-10.8c1.3-0.8,1.8-2.5,1-3.8c-0.7-1.3-2.4-1.8-3.7-1c0,0,0,0,0,0
		l-18.8,10.8c-1.3,0.7-1.8,2.4-1,3.7c0,0,0,0,0,0C293.6,252.5,294.5,253.1,295.4,253.1z"/>
	<path class="st37" d="M273.4,232c0.4,0.3,0.9,0.4,1.4,0.4c1,0,1.9-0.5,2.4-1.4l10.8-18.8c0.8-1.3,0.3-3-1-3.8c-1.3-0.8-3-0.3-3.8,1
		l-10.8,18.8C271.6,229.6,272.1,231.2,273.4,232z"/>
	<path class="st38" d="M520,453.6H412.3v-28.8l0,0v-37l27.6-27.6c0.9-0.9,0.9-2.5,0-3.4c-0.9-0.9-2.4-1-3.3-0.1c0,0-0.1,0.1-0.1,0.1
		l-24.2,24.2v-34.4c-0.7-18.4,13.7-33.9,32-34.5c18.4-0.7,33.9,13.7,34.5,32c0,0.8,0,1.7,0,2.5v14.1c0,0.6,0.3,1.2,0.7,1.7
		c-9,7.3-14.8,17.8-16.2,29.3c-1.3,13.1,4.1,26.5,16.1,39.8c0.9,1,2.5,1.1,3.5,0.2c0.1-0.1,0.1-0.1,0.2-0.2
		c12-13.3,17.4-26.7,16.1-39.8c-1.4-11.5-7.2-22-16.2-29.3c0.4-0.5,0.7-1.1,0.7-1.7v-14.1c0.7-21.1-15.7-38.7-36.8-39.5
		c-21.1-0.7-38.7,15.7-39.5,36.8c0,0.9,0,1.8,0,2.7v40.3l0,0v32.1l-24.2-24.2c-0.9-0.9-2.5-0.9-3.4,0c-0.9,0.9-1,2.4-0.1,3.3
		c0,0,0.1,0.1,0.1,0.1l27.6,27.6v27.9H235c-1.3,0.4-2.1,1.7-1.7,3c0.2,0.8,0.9,1.4,1.7,1.7h25.1l25.2,18.5l-5,28.2l-44.6,8.5
		c-1.3,0.3-2,1.7-1.7,2.9c0.3,1,1.1,1.7,2.1,1.8h0.4l42.9-7.8l-6.6,37.6c-0.2,1.1,0.4,2.2,1.5,2.7l14.4,6l-18.4,21.7
		c-0.8,1-0.7,2.5,0.3,3.4c0.4,0.4,1,0.6,1.6,0.6c0.7,0,1.4-0.3,1.8-0.9l19.3-22.9l15.3,6.4c0.2,0,0.4,0,0.6,0l51.3,7.8h0.8l17.6-2.9
		l2.5,16c0.2,1.2,1.2,2.1,2.4,2.1h0.4c1.3-0.2,2.2-1.5,2-2.8l-2.8-17.1l4-5.8l40.5,8.5l18.8,15.8c0.4,0.4,1,0.6,1.6,0.6
		c0.7,0,1.4-0.3,1.9-0.9c0.8-1,0.7-2.5-0.3-3.4c0,0,0,0,0,0l-17.2-14.8l14.4-14.1c0.5-0.5,0.7-1.1,0.8-1.8v-26.9l12.5-2.4l24.2,32.9
		l-17.7,22.8c-0.8,1.1-0.6,2.6,0.4,3.4c0.4,0.3,1,0.5,1.5,0.5c0.7,0,1.4-0.4,1.9-0.9l18.4-23.5l14.1-3.4c1.3-0.3,2.1-1.6,1.8-2.9
		c-0.3-1.3-1.6-2.1-2.9-1.8l-13.5,3.2l-25.2-34.4c-0.5-0.8-1.5-1.1-2.4-0.9l-15.3,3.1l-12.8-6.1l13.6-18.5l39.9-12.6l14.1,28.9
		c0.6,1.2,2,1.7,3.2,1.1c1.2-0.6,1.7-2,1.2-3.2c0,0,0,0,0-0.1l-14.6-29.9l6-22.3h24c1.3-0.4,2.1-1.7,1.7-3c-0.2-0.8-0.9-1.4-1.7-1.7
		V453.6z M481.3,367.3c7.2,6.4,11.9,15.3,13.1,24.8c1.1,11.1-3.3,22.5-13.1,34c-9.6-11.5-14.3-22.8-13.1-34
		C469.3,382.6,474,373.7,481.3,367.3z M363.4,458.4h61.2l-17.9,22.9l-22.4,3.7l-20.9-6.9V458.4z M381.2,489.1l-2.5,9.4
		c-0.2,0.8-0.1,1.6,0.5,2.2l13.6,16.1v16.3l-49.3-5.8l-21.2-12.8v-18.8l39-13L381.2,489.1z M358.7,458.4v19.7l-20.8,7l-15.2-11.8
		l7-14.9H358.7z M268.5,458.4h55.7l-6.2,13.3l-29.2,1.7L268.5,458.4z M290.2,478.2l28.7-1.7l13.5,10.4l-13.5,4.7
		c-1,0.3-1.6,1.3-1.6,2.3l0.2,20.9l-11.5,7.7l-22.3-8.2L290.2,478.2z M310.4,560.6l-32.3-13.5l4.7-28l22.6,8.3
		c0.7,0.3,1.6,0.2,2.2-0.3l12.1-8.4l19.4,11.7l-9.4,14.1c-0.3,0.5-0.5,1.1-0.4,1.7l2.8,17.7L310.4,560.6z M379.7,565.3l-18.8,3.1
		l-23.5-3.5l-2.9-18.3l9.4-14.1l48.9,5.7v8.3L379.7,565.3z M442.9,524.9v26.4l-14.6,14.4l-37.6-7.9l6.5-9.4c0.3-0.4,0.4-0.9,0.4-1.4
		v-9.4l20.5-4.7c0.6-0.1,1.1-0.4,1.4-0.8l10.4-13.5L442.9,524.9z M427.2,514.4L427.2,514.4l-11,14.1l-18.8,4v-16.7
		c0-0.6-0.2-1.2-0.6-1.6l-13.3-15.8l2.4-8.8l21.3-3.5l25.6,20.5L427.2,514.4z M444.2,492c-0.5,0.2-0.9,0.5-1.3,0.9l-7.1,9.8
		l-24.4-19.3l19.2-24.8h6.6l24.3,28.2L444.2,492z M485.8,479l-18.8,6l-23-26.5h47.1L485.8,479z"/>
</g>
<g>
	<path class="st13" d="M683.2,469.4c7.6,0,15.1-2,21.8-5.7l4.7-2.6c11-6.2,24.3-6.2,35.3,0c13,7.2,28.6,7.5,41.9,0.9l3.2-1.6
		c11.4-5.7,25-5,35.7,1.8c10.4,6.4,22.9,8.4,34.7,5.5l20.9-9c2.4-0.6,0.6-0.6,0-2.9s0-2.9-2.9-2.9l-20,6.3
		c-3.7,0.9-7.6,1.2-11.5,0.9v-39.4h17.1c1.9,0.1,3.6-1.1,4.3-2.9c0.6-1.7,0-3.7-1.4-4.8l-98.3-77c-1.6-1.2-3.7-1.2-5.3,0l-98.3,77
		c-1.4,1.1-2,3.1-1.4,4.8c0.6,1.7,2.1,2.8,3.8,2.9h17.1v40.1c-3.3,0.1-6.6-0.2-9.8-1l-16.9-6.9c-2.1-1.2-7.7,0.9-8.8,2.9
		c-1.2,2.1,1.2,1.7,3.2,2.9c0.2,0.1,0.4,0.2,0.6,0.3l18.6,8.8l0.8,0.3C675.8,468.9,679.5,469.4,683.2,469.4z M765.8,344.9l85.9,67.2
		H679.9L765.8,344.9z M838.5,420.7v37.9c-3-0.9-5.9-2.2-8.5-3.8c-13.3-8.3-29.9-9-43.9-2.1l-3.2,1.6c-10.7,5.4-23.4,5.1-33.9-0.7
		c-13.6-7.6-30.1-7.6-43.6,0l-4.7,2.6c-2.4,1.3-4.9,2.3-7.5,3v-38.5H838.5z"/>
	<path class="st13" d="M878.7,519.4l-24.1-10.9c-15.5-7.1-33.7-5.1-47.4,5.1c-8.1,6.1-18.3,8.7-28.3,7.3l-42.5-6.1
		c-2.4-0.3-4.5,1.3-4.9,3.7c-0.3,2.4,1.3,4.5,3.7,4.9l42.5,6.1c2.2,0.3,4.4,0.5,6.7,0.5c10.1,0,19.9-3.3,28-9.4
		c11.1-8.3,25.8-9.9,38.5-4.3l24.2,10.9c2.1,1.1,4.7,0.3,5.8-1.8c1.1-2.1,0.3-4.7-1.8-5.8c-0.2-0.1-0.3-0.2-0.5-0.2L878.7,519.4z"/>
	<path class="st13" d="M749.6,494.4l21.4-5.4c2.3-0.5,3.8-2.8,3.3-5.2c-0.5-2.3-2.8-3.8-5.2-3.3l0,0l-21.4,5.4
		c-6.7,1.6-13.8,0-19.2-4.3c-8.1-6.5-19-8.4-28.8-5.1l-24.9,8.3c-2.2,0.8-3.4,3.2-2.7,5.4c0.8,2.2,3.2,3.4,5.4,2.7l24.7-8.1
		c7.1-2.4,14.9-1,20.7,3.7c5.4,4.4,12.2,6.7,19.2,6.7C744.7,495.2,747.2,494.9,749.6,494.4z"/>
</g>
<line class="st39" x1="878.5" y1="455.8" x2="1172.6" y2="455.8"/>
<line class="st39" x1="99" y1="455.8" x2="243.1" y2="455.8"/>
<line class="st39" x1="510.8" y1="455.8" x2="654.9" y2="455.8"/>
</svg>
