<?xml version="1.0" encoding="UTF-8"?>
<svg width="3946px" height="3585px" viewBox="0 0 3946 3585" version="1.1" xmlns="http://www.w3.org/2000/svg" xmlns:xlink="http://www.w3.org/1999/xlink">
    <title>Artboard</title>
    <defs>
        <rect id="path-1" x="0" y="0" width="300" height="300"></rect>
    </defs>
    <g id="Artboard" stroke="none" stroke-width="1" fill="none" fill-rule="evenodd">
        <text id="Did-you-know-that-on" font-family="Roboto-Regular, Roboto" font-size="50" font-weight="normal" fill="#1C2A40">
            <tspan x="635" y="256">Did you know that one kilogram of beef consumes almost 15,500 liters of water? That is as much as 250 five-minute </tspan>
            <tspan x="635" y="314">showers</tspan>
        </text>
        <text id="The-production-of-on" font-family="Roboto-Regular, Roboto" font-size="50" font-weight="normal" fill="#1C2A40">
            <tspan x="635" y="771">The production of one kilogram of beef produces 60kg of methane. To compare: 60 kg is the weight of 274 Mc </tspan>
            <tspan x="635" y="829">Donald’s Big Macs.</tspan>
        </text>
        <text id="Did-you-know-that-th" font-family="Roboto-Regular, Roboto" font-size="50" font-weight="normal" fill="#1C2A40">
            <tspan x="635" y="1228">Did you know that the edible proportion of beef in Germany is only 37% of 100%? This is about the same as if you bake </tspan>
            <tspan x="635" y="1286">a cake, cut it into 8 equal pieces and throw 5 of them away.</tspan>
        </text>
        <text id="Did-you-know-that-1" font-family="Roboto-Regular, Roboto" font-size="50" font-weight="normal" fill="#1C2A40">
            <tspan x="635" y="1743">Did you know that 1 kg of beef, when produced outside the EU, requires the equivalent of 49 square meters of space? </tspan>
            <tspan x="635" y="1801">That is as much as a typical 1 room apartment in Germany. Only for 1 kilogram of beef instead of one person.</tspan>
        </text>
        <text id="In-addition-to-meat," font-family="Roboto-Regular, Roboto" font-size="50" font-weight="normal" fill="#1C2A40">
            <tspan x="635" y="2258">In addition to meat, one must of course not forget that dairy products such as butter, cheese, curd cheese and milk </tspan>
            <tspan x="635" y="2316">also come from animals and therefore have a large CO2 impact. They are no less problematic compared meat.</tspan>
        </text>
        <text id="90-percent-of-the-fr" font-family="Roboto-Regular, Roboto" font-size="50" font-weight="normal" fill="#1C2A40">
            <tspan x="635" y="2773">90 percent of the fresh meat in Germany comes from livestock farms. A cow with over 220 kilograms has only 1.8 </tspan>
            <tspan x="635" y="2831">square meters to live. This is only the space of when you walk two steps forward and one to the side.</tspan>
        </text>
        <text id="Did-you-know-that-no" font-family="Roboto-Regular, Roboto" font-size="50" font-weight="normal" fill="#1C2A40">
            <tspan x="635" y="3236">Did you know that not all regions are climate-friendly? Because feed that is often produced overseas and then </tspan>
            <tspan x="635" y="3294">transported to various farms around the world. So, it is possible that meat from Argentinean cattle, which live </tspan>
            <tspan x="635" y="3352">exclusively on pastureland, has a better ecological balance sheet than regional beef from cattle that are only in the </tspan>
            <tspan x="635" y="3410">barn and that are fattened with concentrated feed from overseas.</tspan>
        </text>
        <g id="noun_Shower_1541311" transform="translate(170.000000, 106.000000)" fill="#1C2A40" fill-rule="nonzero">
            <g id="Group">
                <path d="M15,90 C12.2385763,90 10,92.2385763 10,95 L10,110 C10,112.761424 12.2385763,115 15,115 C17.7614237,115 20,112.761424 20,110 L20,95 C20,92.2385763 17.7614237,90 15,90 Z" id="Path"></path>
                <path d="M35,90 C32.2385763,90 30,92.2385763 30,95 L30,110 C30,112.761424 32.2385763,115 35,115 C37.7614237,115 40,112.761424 40,110 L40,95 C40,92.2385763 37.7614237,90 35,90 Z" id="Path"></path>
                <path d="M55,90 C52.2385763,90 50,92.2385763 50,95 L50,110 C50,112.761424 52.2385763,115 55,115 C57.7614237,115 60,112.761424 60,110 L60,95 C60,92.2385763 57.7614237,90 55,90 Z" id="Path"></path>
                <path d="M75,90 C72.2385763,90 70,92.2385763 70,95 L70,110 C70,112.761424 72.2385763,115 75,115 C77.7614237,115 80,112.761424 80,110 L80,95 C80,92.2385763 77.7614237,90 75,90 Z" id="Path"></path>
                <path d="M95,90 C92.2385763,90 90,92.2385763 90,95 L90,110 C90,112.761424 92.2385763,115 95,115 C97.7614237,115 100,112.761424 100,110 L100,95 C100,92.2385763 97.7614237,90 95,90 Z" id="Path"></path>
                <path d="M115,90 C112.238576,90 110,92.2385763 110,95 L110,110 C110,112.761424 112.238576,115 115,115 C117.761424,115 120,112.761424 120,110 L120,95 C120,92.2385763 117.761424,90 115,90 Z" id="Path"></path>
                <path d="M135,90 C132.238576,90 130,92.2385763 130,95 L130,110 C130,112.761424 132.238576,115 135,115 C137.761424,115 140,112.761424 140,110 L140,95 C140,92.2385763 137.761424,90 135,90 Z" id="Path"></path>
                <path d="M155,90 C152.238576,90 150,92.2385763 150,95 L150,110 C150,112.761424 152.238576,115 155,115 C157.761424,115 160,112.761424 160,110 L160,95 C160,92.2385763 157.761424,90 155,90 Z" id="Path"></path>
                <path d="M15,135 C12.2385763,135 10,137.238576 10,140 L10,155 C10,157.761424 12.2385763,160 15,160 C17.7614237,160 20,157.761424 20,155 L20,140 C20,137.238576 17.7614237,135 15,135 Z" id="Path"></path>
                <path d="M35,135 C32.2385763,135 30,137.238576 30,140 L30,155 C30,157.761424 32.2385763,160 35,160 C37.7614237,160 40,157.761424 40,155 L40,140 C40,137.238576 37.7614237,135 35,135 Z" id="Path"></path>
                <path d="M55,135 C52.2385763,135 50,137.238576 50,140 L50,155 C50,157.761424 52.2385763,160 55,160 C57.7614237,160 60,157.761424 60,155 L60,140 C60,137.238576 57.7614237,135 55,135 Z" id="Path"></path>
                <path d="M75,135 C72.2385763,135 70,137.238576 70,140 L70,155 C70,157.761424 72.2385763,160 75,160 C77.7614237,160 80,157.761424 80,155 L80,140 C80,137.238576 77.7614237,135 75,135 Z" id="Path"></path>
                <path d="M95,135 C92.2385763,135 90,137.238576 90,140 L90,155 C90,157.761424 92.2385763,160 95,160 C97.7614237,160 100,157.761424 100,155 L100,140 C100,137.238576 97.7614237,135 95,135 Z" id="Path"></path>
                <path d="M115,135 C112.238576,135 110,137.238576 110,140 L110,155 C110,157.761424 112.238576,160 115,160 C117.761424,160 120,157.761424 120,155 L120,140 C120,137.238576 117.761424,135 115,135 Z" id="Path"></path>
                <path d="M135,135 C132.238576,135 130,137.238576 130,140 L130,155 C130,157.761424 132.238576,160 135,160 C137.761424,160 140,157.761424 140,155 L140,140 C140,137.238576 137.761424,135 135,135 Z" id="Path"></path>
                <path d="M155,135 C152.238576,135 150,137.238576 150,140 L150,155 C150,157.761424 152.238576,160 155,160 C157.761424,160 160,157.761424 160,155 L160,140 C160,137.238576 157.761424,135 155,135 Z" id="Path"></path>
                <path d="M15,180 C12.2385763,180 10,182.238576 10,185 L10,200 C10,202.761424 12.2385763,205 15,205 C17.7614237,205 20,202.761424 20,200 L20,185 C20,182.238576 17.7614237,180 15,180 Z" id="Path"></path>
                <path d="M35,180 C32.2385763,180 30,182.238576 30,185 L30,200 C30,202.761424 32.2385763,205 35,205 C37.7614237,205 40,202.761424 40,200 L40,185 C40,182.238576 37.7614237,180 35,180 Z" id="Path"></path>
                <path d="M55,180 C52.2385763,180 50,182.238576 50,185 L50,200 C50,202.761424 52.2385763,205 55,205 C57.7614237,205 60,202.761424 60,200 L60,185 C60,182.238576 57.7614237,180 55,180 Z" id="Path"></path>
                <path d="M75,180 C72.2385763,180 70,182.238576 70,185 L70,200 C70,202.761424 72.2385763,205 75,205 C77.7614237,205 80,202.761424 80,200 L80,185 C80,182.238576 77.7614237,180 75,180 Z" id="Path"></path>
                <path d="M95,180 C92.2385763,180 90,182.238576 90,185 L90,200 C90,202.761424 92.2385763,205 95,205 C97.7614237,205 100,202.761424 100,200 L100,185 C100,182.238576 97.7614237,180 95,180 Z" id="Path"></path>
                <path d="M115,180 C112.238576,180 110,182.238576 110,185 L110,200 C110,202.761424 112.238576,205 115,205 C117.761424,205 120,202.761424 120,200 L120,185 C120,182.238576 117.761424,180 115,180 Z" id="Path"></path>
                <path d="M135,180 C132.238576,180 130,182.238576 130,185 L130,200 C130,202.761424 132.238576,205 135,205 C137.761424,205 140,202.761424 140,200 L140,185 C140,182.238576 137.761424,180 135,180 Z" id="Path"></path>
                <path d="M155,180 C152.238576,180 150,182.238576 150,185 L150,200 C150,202.761424 152.238576,205 155,205 C157.761424,205 160,202.761424 160,200 L160,185 C160,182.238576 157.761424,180 155,180 Z" id="Path"></path>
                <path d="M15,225 C12.2385763,225 10,227.238576 10,230 L10,245 C10,247.761424 12.2385763,250 15,250 C17.7614237,250 20,247.761424 20,245 L20,230 C20,227.238576 17.7614237,225 15,225 Z" id="Path"></path>
                <path d="M35,225 C32.2385763,225 30,227.238576 30,230 L30,245 C30,247.761424 32.2385763,250 35,250 C37.7614237,250 40,247.761424 40,245 L40,230 C40,227.238576 37.7614237,225 35,225 Z" id="Path"></path>
                <path d="M55,225 C52.2385763,225 50,227.238576 50,230 L50,245 C50,247.761424 52.2385763,250 55,250 C57.7614237,250 60,247.761424 60,245 L60,230 C60,227.238576 57.7614237,225 55,225 Z" id="Path"></path>
                <path d="M75,225 C72.2385763,225 70,227.238576 70,230 L70,245 C70,247.761424 72.2385763,250 75,250 C77.7614237,250 80,247.761424 80,245 L80,230 C80,227.238576 77.7614237,225 75,225 Z" id="Path"></path>
                <path d="M95,225 C92.2385763,225 90,227.238576 90,230 L90,245 C90,247.761424 92.2385763,250 95,250 C97.7614237,250 100,247.761424 100,245 L100,230 C100,227.238576 97.7614237,225 95,225 Z" id="Path"></path>
                <path d="M115,225 C112.238576,225 110,227.238576 110,230 L110,245 C110,247.761424 112.238576,250 115,250 C117.761424,250 120,247.761424 120,245 L120,230 C120,227.238576 117.761424,225 115,225 Z" id="Path"></path>
                <path d="M135,225 C132.238576,225 130,227.238576 130,230 L130,245 C130,247.761424 132.238576,250 135,250 C137.761424,250 140,247.761424 140,245 L140,230 C140,227.238576 137.761424,225 135,225 Z" id="Path"></path>
                <path d="M155,225 C152.238576,225 150,227.238576 150,230 L150,245 C150,247.761424 152.238576,250 155,250 C157.761424,250 160,247.761424 160,245 L160,230 C160,227.238576 157.761424,225 155,225 Z" id="Path"></path>
                <path d="M15,270 C12.2385763,270 10,272.238576 10,275 L10,290 C10,292.761424 12.2385763,295 15,295 C17.7614237,295 20,292.761424 20,290 L20,275 C20,272.238576 17.7614237,270 15,270 Z" id="Path"></path>
                <path d="M35,270 C32.2385763,270 30,272.238576 30,275 L30,290 C30,292.761424 32.2385763,295 35,295 C37.7614237,295 40,292.761424 40,290 L40,275 C40,272.238576 37.7614237,270 35,270 Z" id="Path"></path>
                <path d="M55,270 C52.2385763,270 50,272.238576 50,275 L50,290 C50,292.761424 52.2385763,295 55,295 C57.7614237,295 60,292.761424 60,290 L60,275 C60,272.238576 57.7614237,270 55,270 Z" id="Path"></path>
                <path d="M75,270 C72.2385763,270 70,272.238576 70,275 L70,290 C70,292.761424 72.2385763,295 75,295 C77.7614237,295 80,292.761424 80,290 L80,275 C80,272.238576 77.7614237,270 75,270 Z" id="Path"></path>
                <path d="M95,270 C92.2385763,270 90,272.238576 90,275 L90,290 C90,292.761424 92.2385763,295 95,295 C97.7614237,295 100,292.761424 100,290 L100,275 C100,272.238576 97.7614237,270 95,270 Z" id="Path"></path>
                <path d="M115,270 C112.238576,270 110,272.238576 110,275 L110,290 C110,292.761424 112.238576,295 115,295 C117.761424,295 120,292.761424 120,290 L120,275 C120,272.238576 117.761424,270 115,270 Z" id="Path"></path>
                <path d="M135,270 C132.238576,270 130,272.238576 130,275 L130,290 C130,292.761424 132.238576,295 135,295 C137.761424,295 140,292.761424 140,290 L140,275 C140,272.238576 137.761424,270 135,270 Z" id="Path"></path>
                <path d="M155,270 C152.238576,270 150,272.238576 150,275 L150,290 C150,292.761424 152.238576,295 155,295 C157.761424,295 160,292.761424 160,290 L160,275 C160,272.238576 157.761424,270 155,270 Z" id="Path"></path>
                <path d="M265,-2.22044605e-15 C262.238576,-2.22044605e-15 260,2.23857625 260,5 L260,110 L245,110 L245,30 C245,13.4314575 231.568542,-2.22044605e-15 215,-2.22044605e-15 L105,-2.22044605e-15 C88.4314575,-2.22044605e-15 75,13.4314575 75,30 L75,45 L15,45 C6.71572875,45 0,51.7157288 0,60 L0,70 C0,71.3260824 0.526784202,72.597852 1.46446609,73.5355339 C2.40214799,74.4732158 3.67391755,75 5,75 L165,75 C167.761424,75 170,72.7614237 170,70 L170,60 C170,51.7157288 163.284271,45 155,45 L85,45 L85,30 C85,18.954305 93.954305,10 105,10 L215,10 C226.045695,10 235,18.954305 235,30 L235,260 L235,270 L235,295 C235,297.761424 237.238576,300 240,300 C242.761424,300 245,297.761424 245,295 L245,270 L260,270 L260,295 C260,297.761424 262.238576,300 265,300 C267.761424,300 270,297.761424 270,295 L270,5 C270,2.23857625 267.761424,-2.22044605e-15 265,-2.22044605e-15 Z M160,60 L160,65 L10,65 L10,60 C10,57.2385763 12.2385763,55 15,55 L155,55 C157.761424,55 160,57.2385763 160,60 Z M245,260 L245,120 L260,120 L260,260 L245,260 Z" id="Shape"></path>
            </g>
        </g>
        <g id="Group-2" transform="translate(3412.000000, 525.000000)">
            <g id="noun_Burger_1530809" transform="translate(54.113346, 248.628885)" fill="#1C2A40" fill-rule="nonzero">
                <path d="M214.037511,123.11734 L203.891936,123.11734 C205.541337,121.129393 206.695105,118.691855 207.147403,115.975354 L208.108877,110.203805 C208.582842,107.370844 207.78658,104.489133 205.931343,102.295348 C204.931952,101.114497 203.672557,100.231566 202.283161,99.6438486 L202.283161,90.8307942 C203.147133,90.5707902 204.15194,90.410996 205.53592,90.410996 C206.879274,90.410996 208.0195,89.4251473 208.214503,88.0980432 C208.255129,87.8272056 208.907848,82.7923353 205.227165,78.3235155 C208.945765,76.6361974 211.553931,72.9067642 211.553931,68.565238 L211.553931,66.0626989 C211.553931,60.7109486 207.599702,56.2990047 202.46733,55.5000339 L202.46733,48.0357506 C204.341526,47.4507414 206.045094,46.3863498 207.331573,44.8344505 C209.292437,42.4700386 210.088699,39.3824904 209.517232,36.3653599 C205.571129,15.5162841 187.308552,0.384589342 166.091137,0.384589342 L133.512086,0.384589342 C112.925723,0.384589342 95.2400298,14.376058 90.5030808,34.4072043 L90.1482836,35.9076444 C89.4197305,38.9870675 90.1266166,42.1721173 92.0901889,44.6529894 C93.3170831,46.2048886 94.9502336,47.2828221 96.7567202,47.916582 L96.7567202,55.4973255 C91.6135148,56.2854628 87.6484528,60.7001151 87.6484528,66.0599905 L87.6484528,68.5625296 C87.6484528,73.0178076 90.3812039,76.8447424 94.2568894,78.4616426 C90.9689214,82.9575462 90.9553795,87.4913671 90.9553795,87.7297041 C90.9716298,89.213894 92.1795653,90.4082876 93.6637552,90.4082876 C94.8798158,90.4082876 95.7789965,90.5491232 96.5725506,90.7522513 L96.5725506,99.7657255 C95.3185727,100.353443 94.1864717,101.206581 93.2683323,102.29264 C91.4103866,104.486424 90.6168326,107.368136 91.0907983,110.203805 L92.0522717,115.972645 C92.5045704,118.689146 93.6583384,121.123976 95.3104476,123.114632 C40.3576116,122.602703 9.51643522,122.603606 2.78691855,123.11734 C0.289635843,123.307984 0.0785428939,125.630394 0.0785428939,125.828424 L0.0785428939,147.939603 C0.0785428939,149.437335 1.29189519,150.647979 2.78691855,150.647979 L214.040219,150.647979 C215.535243,150.647979 216.748595,149.437335 216.748595,147.939603 L216.748595,125.828424 C216.745887,124.327984 215.535243,123.11734 214.037511,123.11734 Z M156.251608,98.9369626 C149.914009,98.9369626 143.955583,101.404293 139.473221,105.883946 L134.351683,111.005484 L129.232853,105.883946 C124.750491,101.404293 118.792064,98.9369626 112.454465,98.9369626 L101.986594,98.9369626 L101.986594,93.0922879 C103.416616,93.6231295 105.179768,94.0212607 107.652515,94.0212607 C111.807164,94.0212607 113.976573,92.9027016 115.891394,91.9141445 C117.519128,91.074548 118.805606,90.410996 121.646692,90.410996 C124.48507,90.410996 125.76884,91.074548 127.396574,91.9141445 C129.311395,92.9027016 131.478096,94.0212607 135.632744,94.0212607 C139.787393,94.0212607 141.954093,92.9027016 143.868915,91.9141445 C145.496648,91.074548 146.783127,90.410996 149.621505,90.410996 C152.459882,90.410996 153.743652,91.074548 155.371386,91.9141445 C157.283499,92.9027016 159.452908,94.0212607 163.604848,94.0212607 C167.756788,94.0212607 169.923488,92.9027016 171.83831,91.9141445 C173.463335,91.074548 174.749814,90.410996 177.585483,90.410996 C180.421152,90.410996 181.704922,91.074548 183.332656,91.9141445 C185.244769,92.9027016 187.41147,94.0212607 191.566118,94.0212607 C193.841154,94.0212607 195.509513,93.6800054 196.874534,93.2141648 L196.874534,98.9369626 L156.251608,98.9369626 Z M98.3736204,60.7542826 C98.6200826,60.7542826 98.8421694,60.6757397 99.069673,60.6134471 C99.2050917,60.6324057 99.3242603,60.69199 99.4650958,60.69199 L143.308281,60.69199 C147.863769,60.69199 152.145711,62.465976 155.368678,65.6889431 L162.770668,73.0909337 C163.269009,73.5892748 163.943395,73.8655291 164.644864,73.8763627 L98.370912,73.8763627 C95.443158,73.8763627 93.0624958,71.4929921 93.0624958,68.565238 L93.0624958,66.0626989 C93.0624958,63.1376532 95.4458663,60.7542826 98.3736204,60.7542826 Z M186.065407,55.2752387 C180.063647,55.2752387 174.419392,57.6125669 170.172659,61.8592999 L164.68549,67.346469 L159.198321,61.8592999 C154.951588,57.6152752 149.310041,55.2752387 143.308281,55.2752387 L102.173471,55.2752387 L102.173471,48.5611754 L197.053287,48.5611754 L197.053287,55.2752387 L186.065407,55.2752387 Z M203.160674,41.3812716 C202.23441,42.4998307 200.869389,43.1417158 199.417699,43.1417158 L100.150315,43.1417158 C98.6552915,43.1417158 97.2658948,42.4700386 96.3369219,41.2946036 C95.4106575,40.1191685 95.0748189,38.6133117 95.4187826,37.1589139 L95.7735798,35.6584738 C99.9309364,18.0811159 115.449929,5.80404902 133.512086,5.80404902 L166.091137,5.80404902 C184.708511,5.80404902 200.73397,19.0805065 204.195274,37.3728756 C204.466111,38.802898 204.086939,40.2627124 203.160674,41.3812716 Z M200.828763,73.879071 L164.726116,73.879071 C165.430293,73.8682375 166.10197,73.5919832 166.600311,73.0936421 L174.002302,65.6916514 C177.225269,62.4713928 181.509919,60.6946984 186.065407,60.6946984 L199.219988,60.6946984 C199.322906,60.7055319 199.414991,60.7542826 199.520618,60.7542826 L200.826055,60.7542826 C203.753809,60.7542826 206.134473,63.1376532 206.134473,66.0654073 L206.134473,68.5679464 C206.137179,71.4957005 203.756517,73.879071 200.828763,73.879071 Z M202.702959,85.1973729 C200.289796,85.5630036 198.727063,86.3700995 197.305166,87.1040693 C195.680141,87.9436658 194.396371,88.6072178 191.557993,88.6072178 C188.719615,88.6072178 187.438554,87.9436658 185.81082,87.1040693 C183.898707,86.1155122 181.732006,84.9969531 177.577358,84.9969531 C173.42271,84.9969531 171.256009,86.1155122 169.343896,87.1040693 C167.718871,87.9436658 166.435101,88.6072178 163.596723,88.6072178 C160.758345,88.6072178 159.474575,87.9436658 157.84955,87.1040693 C155.934728,86.1155122 153.768028,84.9969531 149.613379,84.9969531 C145.458731,84.9969531 143.289322,86.1155122 141.377209,87.1040693 C139.749475,87.9436658 138.462997,88.6072178 135.624619,88.6072178 C132.786241,88.6072178 131.502471,87.9436658 129.874738,87.1040693 C127.959916,86.1155122 125.793216,84.9969531 121.638567,84.9969531 C117.483919,84.9969531 115.31451,86.1155122 113.399689,87.1040693 C111.771955,87.9436658 110.485476,88.6072178 107.64439,88.6072178 C104.803304,88.6072178 103.516826,87.9436658 101.889092,87.101361 C100.529487,86.3998917 99.0398808,85.630713 96.7973458,85.2461236 C97.3119372,83.5533889 98.4440382,81.2593947 100.889701,79.293114 L198.031011,79.293114 C198.106845,79.3472815 198.152888,79.423116 198.236847,79.4691584 C201.264811,81.1727267 202.337328,83.5100548 202.702959,85.1973729 Z M192.327172,123.11734 L106.872503,123.11734 C102.154513,123.11734 98.1704922,119.739996 97.3931884,115.087007 L96.4317151,109.315458 C96.2204618,108.053355 96.575259,106.775002 97.3986052,105.797278 C98.0431986,105.036225 98.9234207,104.537883 99.884894,104.353714 L112.454465,104.353714 C117.345792,104.353714 121.944614,106.257702 125.403209,109.713589 L132.436861,116.749949 C132.946036,117.259124 133.633963,117.543503 134.351683,117.543503 C135.069402,117.543503 135.760038,117.259124 136.266504,116.749949 L143.302864,109.713589 C146.76146,106.257702 151.360282,104.353714 156.251608,104.353714 L199.314781,104.353714 C200.276254,104.540592 201.153768,105.036225 201.80107,105.797278 C202.627124,106.772293 202.979213,108.053355 202.76796,109.31275 L201.806487,115.087007 C201.031891,119.739996 197.045162,123.11734 192.327172,123.11734 Z M211.329135,145.228519 L5.49258582,145.228519 L5.49258582,128.534092 L106.872503,128.534092 L192.327172,128.534092 L211.329135,128.534092 L211.329135,145.228519 Z" id="Shape"></path>
            </g>
            <g id="noun_Burger_1530809" transform="translate(190.127971, 248.628885)" fill="#1C2A40" fill-rule="nonzero">
                <path d="M214.037511,123.11734 L203.891936,123.11734 C205.541337,121.129393 206.695105,118.691855 207.147403,115.975354 L208.108877,110.203805 C208.582842,107.370844 207.78658,104.489133 205.931343,102.295348 C204.931952,101.114497 203.672557,100.231566 202.283161,99.6438486 L202.283161,90.8307942 C203.147133,90.5707902 204.15194,90.410996 205.53592,90.410996 C206.879274,90.410996 208.0195,89.4251473 208.214503,88.0980432 C208.255129,87.8272056 208.907848,82.7923353 205.227165,78.3235155 C208.945765,76.6361974 211.553931,72.9067642 211.553931,68.565238 L211.553931,66.0626989 C211.553931,60.7109486 207.599702,56.2990047 202.46733,55.5000339 L202.46733,48.0357506 C204.341526,47.4507414 206.045094,46.3863498 207.331573,44.8344505 C209.292437,42.4700386 210.088699,39.3824904 209.517232,36.3653599 C205.571129,15.5162841 187.308552,0.384589342 166.091137,0.384589342 L133.512086,0.384589342 C112.925723,0.384589342 95.2400298,14.376058 90.5030808,34.4072043 L90.1482836,35.9076444 C89.4197305,38.9870675 90.1266166,42.1721173 92.0901889,44.6529894 C93.3170831,46.2048886 94.9502336,47.2828221 96.7567202,47.916582 L96.7567202,55.4973255 C91.6135148,56.2854628 87.6484528,60.7001151 87.6484528,66.0599905 L87.6484528,68.5625296 C87.6484528,73.0178076 90.3812039,76.8447424 94.2568894,78.4616426 C90.9689214,82.9575462 90.9553795,87.4913671 90.9553795,87.7297041 C90.9716298,89.213894 92.1795653,90.4082876 93.6637552,90.4082876 C94.8798158,90.4082876 95.7789965,90.5491232 96.5725506,90.7522513 L96.5725506,99.7657255 C95.3185727,100.353443 94.1864717,101.206581 93.2683323,102.29264 C91.4103866,104.486424 90.6168326,107.368136 91.0907983,110.203805 L92.0522717,115.972645 C92.5045704,118.689146 93.6583384,121.123976 95.3104476,123.114632 C40.3576116,122.602703 9.51643522,122.603606 2.78691855,123.11734 C0.289635843,123.307984 0.0785428939,125.630394 0.0785428939,125.828424 L0.0785428939,147.939603 C0.0785428939,149.437335 1.29189519,150.647979 2.78691855,150.647979 L214.040219,150.647979 C215.535243,150.647979 216.748595,149.437335 216.748595,147.939603 L216.748595,125.828424 C216.745887,124.327984 215.535243,123.11734 214.037511,123.11734 Z M156.251608,98.9369626 C149.914009,98.9369626 143.955583,101.404293 139.473221,105.883946 L134.351683,111.005484 L129.232853,105.883946 C124.750491,101.404293 118.792064,98.9369626 112.454465,98.9369626 L101.986594,98.9369626 L101.986594,93.0922879 C103.416616,93.6231295 105.179768,94.0212607 107.652515,94.0212607 C111.807164,94.0212607 113.976573,92.9027016 115.891394,91.9141445 C117.519128,91.074548 118.805606,90.410996 121.646692,90.410996 C124.48507,90.410996 125.76884,91.074548 127.396574,91.9141445 C129.311395,92.9027016 131.478096,94.0212607 135.632744,94.0212607 C139.787393,94.0212607 141.954093,92.9027016 143.868915,91.9141445 C145.496648,91.074548 146.783127,90.410996 149.621505,90.410996 C152.459882,90.410996 153.743652,91.074548 155.371386,91.9141445 C157.283499,92.9027016 159.452908,94.0212607 163.604848,94.0212607 C167.756788,94.0212607 169.923488,92.9027016 171.83831,91.9141445 C173.463335,91.074548 174.749814,90.410996 177.585483,90.410996 C180.421152,90.410996 181.704922,91.074548 183.332656,91.9141445 C185.244769,92.9027016 187.41147,94.0212607 191.566118,94.0212607 C193.841154,94.0212607 195.509513,93.6800054 196.874534,93.2141648 L196.874534,98.9369626 L156.251608,98.9369626 Z M98.3736204,60.7542826 C98.6200826,60.7542826 98.8421694,60.6757397 99.069673,60.6134471 C99.2050917,60.6324057 99.3242603,60.69199 99.4650958,60.69199 L143.308281,60.69199 C147.863769,60.69199 152.145711,62.465976 155.368678,65.6889431 L162.770668,73.0909337 C163.269009,73.5892748 163.943395,73.8655291 164.644864,73.8763627 L98.370912,73.8763627 C95.443158,73.8763627 93.0624958,71.4929921 93.0624958,68.565238 L93.0624958,66.0626989 C93.0624958,63.1376532 95.4458663,60.7542826 98.3736204,60.7542826 Z M186.065407,55.2752387 C180.063647,55.2752387 174.419392,57.6125669 170.172659,61.8592999 L164.68549,67.346469 L159.198321,61.8592999 C154.951588,57.6152752 149.310041,55.2752387 143.308281,55.2752387 L102.173471,55.2752387 L102.173471,48.5611754 L197.053287,48.5611754 L197.053287,55.2752387 L186.065407,55.2752387 Z M203.160674,41.3812716 C202.23441,42.4998307 200.869389,43.1417158 199.417699,43.1417158 L100.150315,43.1417158 C98.6552915,43.1417158 97.2658948,42.4700386 96.3369219,41.2946036 C95.4106575,40.1191685 95.0748189,38.6133117 95.4187826,37.1589139 L95.7735798,35.6584738 C99.9309364,18.0811159 115.449929,5.80404902 133.512086,5.80404902 L166.091137,5.80404902 C184.708511,5.80404902 200.73397,19.0805065 204.195274,37.3728756 C204.466111,38.802898 204.086939,40.2627124 203.160674,41.3812716 Z M200.828763,73.879071 L164.726116,73.879071 C165.430293,73.8682375 166.10197,73.5919832 166.600311,73.0936421 L174.002302,65.6916514 C177.225269,62.4713928 181.509919,60.6946984 186.065407,60.6946984 L199.219988,60.6946984 C199.322906,60.7055319 199.414991,60.7542826 199.520618,60.7542826 L200.826055,60.7542826 C203.753809,60.7542826 206.134473,63.1376532 206.134473,66.0654073 L206.134473,68.5679464 C206.137179,71.4957005 203.756517,73.879071 200.828763,73.879071 Z M202.702959,85.1973729 C200.289796,85.5630036 198.727063,86.3700995 197.305166,87.1040693 C195.680141,87.9436658 194.396371,88.6072178 191.557993,88.6072178 C188.719615,88.6072178 187.438554,87.9436658 185.81082,87.1040693 C183.898707,86.1155122 181.732006,84.9969531 177.577358,84.9969531 C173.42271,84.9969531 171.256009,86.1155122 169.343896,87.1040693 C167.718871,87.9436658 166.435101,88.6072178 163.596723,88.6072178 C160.758345,88.6072178 159.474575,87.9436658 157.84955,87.1040693 C155.934728,86.1155122 153.768028,84.9969531 149.613379,84.9969531 C145.458731,84.9969531 143.289322,86.1155122 141.377209,87.1040693 C139.749475,87.9436658 138.462997,88.6072178 135.624619,88.6072178 C132.786241,88.6072178 131.502471,87.9436658 129.874738,87.1040693 C127.959916,86.1155122 125.793216,84.9969531 121.638567,84.9969531 C117.483919,84.9969531 115.31451,86.1155122 113.399689,87.1040693 C111.771955,87.9436658 110.485476,88.6072178 107.64439,88.6072178 C104.803304,88.6072178 103.516826,87.9436658 101.889092,87.101361 C100.529487,86.3998917 99.0398808,85.630713 96.7973458,85.2461236 C97.3119372,83.5533889 98.4440382,81.2593947 100.889701,79.293114 L198.031011,79.293114 C198.106845,79.3472815 198.152888,79.423116 198.236847,79.4691584 C201.264811,81.1727267 202.337328,83.5100548 202.702959,85.1973729 Z M192.327172,123.11734 L106.872503,123.11734 C102.154513,123.11734 98.1704922,119.739996 97.3931884,115.087007 L96.4317151,109.315458 C96.2204618,108.053355 96.575259,106.775002 97.3986052,105.797278 C98.0431986,105.036225 98.9234207,104.537883 99.884894,104.353714 L112.454465,104.353714 C117.345792,104.353714 121.944614,106.257702 125.403209,109.713589 L132.436861,116.749949 C132.946036,117.259124 133.633963,117.543503 134.351683,117.543503 C135.069402,117.543503 135.760038,117.259124 136.266504,116.749949 L143.302864,109.713589 C146.76146,106.257702 151.360282,104.353714 156.251608,104.353714 L199.314781,104.353714 C200.276254,104.540592 201.153768,105.036225 201.80107,105.797278 C202.627124,106.772293 202.979213,108.053355 202.76796,109.31275 L201.806487,115.087007 C201.031891,119.739996 197.045162,123.11734 192.327172,123.11734 Z M211.329135,145.228519 L5.49258582,145.228519 L5.49258582,128.534092 L106.872503,128.534092 L192.327172,128.534092 L211.329135,128.534092 L211.329135,145.228519 Z" id="Shape"></path>
            </g>
            <g id="noun_Burger_1530809" transform="translate(108.684644, 324.128885) scale(-1, 1) translate(-108.684644, -324.128885) translate(0.184644, 248.628885)" fill="#1C2A40" fill-rule="nonzero">
                <path d="M214.037511,123.11734 L203.891936,123.11734 C205.541337,121.129393 206.695105,118.691855 207.147403,115.975354 L208.108877,110.203805 C208.582842,107.370844 207.78658,104.489133 205.931343,102.295348 C204.931952,101.114497 203.672557,100.231566 202.283161,99.6438486 L202.283161,90.8307942 C203.147133,90.5707902 204.15194,90.410996 205.53592,90.410996 C206.879274,90.410996 208.0195,89.4251473 208.214503,88.0980432 C208.255129,87.8272056 208.907848,82.7923353 205.227165,78.3235155 C208.945765,76.6361974 211.553931,72.9067642 211.553931,68.565238 L211.553931,66.0626989 C211.553931,60.7109486 207.599702,56.2990047 202.46733,55.5000339 L202.46733,48.0357506 C204.341526,47.4507414 206.045094,46.3863498 207.331573,44.8344505 C209.292437,42.4700386 210.088699,39.3824904 209.517232,36.3653599 C205.571129,15.5162841 187.308552,0.384589342 166.091137,0.384589342 L133.512086,0.384589342 C112.925723,0.384589342 95.2400298,14.376058 90.5030808,34.4072043 L90.1482836,35.9076444 C89.4197305,38.9870675 90.1266166,42.1721173 92.0901889,44.6529894 C93.3170831,46.2048886 94.9502336,47.2828221 96.7567202,47.916582 L96.7567202,55.4973255 C91.6135148,56.2854628 87.6484528,60.7001151 87.6484528,66.0599905 L87.6484528,68.5625296 C87.6484528,73.0178076 90.3812039,76.8447424 94.2568894,78.4616426 C90.9689214,82.9575462 90.9553795,87.4913671 90.9553795,87.7297041 C90.9716298,89.213894 92.1795653,90.4082876 93.6637552,90.4082876 C94.8798158,90.4082876 95.7789965,90.5491232 96.5725506,90.7522513 L96.5725506,99.7657255 C95.3185727,100.353443 94.1864717,101.206581 93.2683323,102.29264 C91.4103866,104.486424 90.6168326,107.368136 91.0907983,110.203805 L92.0522717,115.972645 C92.5045704,118.689146 93.6583384,121.123976 95.3104476,123.114632 C40.3576116,122.602703 9.51643522,122.603606 2.78691855,123.11734 C0.289635843,123.307984 0.0785428939,125.630394 0.0785428939,125.828424 L0.0785428939,147.939603 C0.0785428939,149.437335 1.29189519,150.647979 2.78691855,150.647979 L214.040219,150.647979 C215.535243,150.647979 216.748595,149.437335 216.748595,147.939603 L216.748595,125.828424 C216.745887,124.327984 215.535243,123.11734 214.037511,123.11734 Z M156.251608,98.9369626 C149.914009,98.9369626 143.955583,101.404293 139.473221,105.883946 L134.351683,111.005484 L129.232853,105.883946 C124.750491,101.404293 118.792064,98.9369626 112.454465,98.9369626 L101.986594,98.9369626 L101.986594,93.0922879 C103.416616,93.6231295 105.179768,94.0212607 107.652515,94.0212607 C111.807164,94.0212607 113.976573,92.9027016 115.891394,91.9141445 C117.519128,91.074548 118.805606,90.410996 121.646692,90.410996 C124.48507,90.410996 125.76884,91.074548 127.396574,91.9141445 C129.311395,92.9027016 131.478096,94.0212607 135.632744,94.0212607 C139.787393,94.0212607 141.954093,92.9027016 143.868915,91.9141445 C145.496648,91.074548 146.783127,90.410996 149.621505,90.410996 C152.459882,90.410996 153.743652,91.074548 155.371386,91.9141445 C157.283499,92.9027016 159.452908,94.0212607 163.604848,94.0212607 C167.756788,94.0212607 169.923488,92.9027016 171.83831,91.9141445 C173.463335,91.074548 174.749814,90.410996 177.585483,90.410996 C180.421152,90.410996 181.704922,91.074548 183.332656,91.9141445 C185.244769,92.9027016 187.41147,94.0212607 191.566118,94.0212607 C193.841154,94.0212607 195.509513,93.6800054 196.874534,93.2141648 L196.874534,98.9369626 L156.251608,98.9369626 Z M98.3736204,60.7542826 C98.6200826,60.7542826 98.8421694,60.6757397 99.069673,60.6134471 C99.2050917,60.6324057 99.3242603,60.69199 99.4650958,60.69199 L143.308281,60.69199 C147.863769,60.69199 152.145711,62.465976 155.368678,65.6889431 L162.770668,73.0909337 C163.269009,73.5892748 163.943395,73.8655291 164.644864,73.8763627 L98.370912,73.8763627 C95.443158,73.8763627 93.0624958,71.4929921 93.0624958,68.565238 L93.0624958,66.0626989 C93.0624958,63.1376532 95.4458663,60.7542826 98.3736204,60.7542826 Z M186.065407,55.2752387 C180.063647,55.2752387 174.419392,57.6125669 170.172659,61.8592999 L164.68549,67.346469 L159.198321,61.8592999 C154.951588,57.6152752 149.310041,55.2752387 143.308281,55.2752387 L102.173471,55.2752387 L102.173471,48.5611754 L197.053287,48.5611754 L197.053287,55.2752387 L186.065407,55.2752387 Z M203.160674,41.3812716 C202.23441,42.4998307 200.869389,43.1417158 199.417699,43.1417158 L100.150315,43.1417158 C98.6552915,43.1417158 97.2658948,42.4700386 96.3369219,41.2946036 C95.4106575,40.1191685 95.0748189,38.6133117 95.4187826,37.1589139 L95.7735798,35.6584738 C99.9309364,18.0811159 115.449929,5.80404902 133.512086,5.80404902 L166.091137,5.80404902 C184.708511,5.80404902 200.73397,19.0805065 204.195274,37.3728756 C204.466111,38.802898 204.086939,40.2627124 203.160674,41.3812716 Z M200.828763,73.879071 L164.726116,73.879071 C165.430293,73.8682375 166.10197,73.5919832 166.600311,73.0936421 L174.002302,65.6916514 C177.225269,62.4713928 181.509919,60.6946984 186.065407,60.6946984 L199.219988,60.6946984 C199.322906,60.7055319 199.414991,60.7542826 199.520618,60.7542826 L200.826055,60.7542826 C203.753809,60.7542826 206.134473,63.1376532 206.134473,66.0654073 L206.134473,68.5679464 C206.137179,71.4957005 203.756517,73.879071 200.828763,73.879071 Z M202.702959,85.1973729 C200.289796,85.5630036 198.727063,86.3700995 197.305166,87.1040693 C195.680141,87.9436658 194.396371,88.6072178 191.557993,88.6072178 C188.719615,88.6072178 187.438554,87.9436658 185.81082,87.1040693 C183.898707,86.1155122 181.732006,84.9969531 177.577358,84.9969531 C173.42271,84.9969531 171.256009,86.1155122 169.343896,87.1040693 C167.718871,87.9436658 166.435101,88.6072178 163.596723,88.6072178 C160.758345,88.6072178 159.474575,87.9436658 157.84955,87.1040693 C155.934728,86.1155122 153.768028,84.9969531 149.613379,84.9969531 C145.458731,84.9969531 143.289322,86.1155122 141.377209,87.1040693 C139.749475,87.9436658 138.462997,88.6072178 135.624619,88.6072178 C132.786241,88.6072178 131.502471,87.9436658 129.874738,87.1040693 C127.959916,86.1155122 125.793216,84.9969531 121.638567,84.9969531 C117.483919,84.9969531 115.31451,86.1155122 113.399689,87.1040693 C111.771955,87.9436658 110.485476,88.6072178 107.64439,88.6072178 C104.803304,88.6072178 103.516826,87.9436658 101.889092,87.101361 C100.529487,86.3998917 99.0398808,85.630713 96.7973458,85.2461236 C97.3119372,83.5533889 98.4440382,81.2593947 100.889701,79.293114 L198.031011,79.293114 C198.106845,79.3472815 198.152888,79.423116 198.236847,79.4691584 C201.264811,81.1727267 202.337328,83.5100548 202.702959,85.1973729 Z M192.327172,123.11734 L106.872503,123.11734 C102.154513,123.11734 98.1704922,119.739996 97.3931884,115.087007 L96.4317151,109.315458 C96.2204618,108.053355 96.575259,106.775002 97.3986052,105.797278 C98.0431986,105.036225 98.9234207,104.537883 99.884894,104.353714 L112.454465,104.353714 C117.345792,104.353714 121.944614,106.257702 125.403209,109.713589 L132.436861,116.749949 C132.946036,117.259124 133.633963,117.543503 134.351683,117.543503 C135.069402,117.543503 135.760038,117.259124 136.266504,116.749949 L143.302864,109.713589 C146.76146,106.257702 151.360282,104.353714 156.251608,104.353714 L199.314781,104.353714 C200.276254,104.540592 201.153768,105.036225 201.80107,105.797278 C202.627124,106.772293 202.979213,108.053355 202.76796,109.31275 L201.806487,115.087007 C201.031891,119.739996 197.045162,123.11734 192.327172,123.11734 Z M211.329135,145.228519 L5.49258582,145.228519 L5.49258582,128.534092 L106.872503,128.534092 L192.327172,128.534092 L211.329135,128.534092 L211.329135,145.228519 Z" id="Shape"></path>
            </g>
            <g id="noun_Burger_1530809" transform="translate(134.209324, 188.083181) scale(-1, 1) translate(-134.209324, -188.083181) translate(71.709324, 123.583181)" fill="#1C2A40" fill-rule="nonzero">
                <path d="M116.871826,123.11734 C118.521227,121.129393 119.674995,118.691855 120.127294,115.975354 L121.088767,110.203805 C121.562733,107.370844 120.76647,104.489133 118.911233,102.295348 C117.911842,101.114497 116.652448,100.231566 115.263051,99.6438486 L115.263051,90.8307942 C116.127023,90.5707902 117.13183,90.410996 118.51581,90.410996 C119.859164,90.410996 120.999391,89.4251473 121.194394,88.0980432 C121.235019,87.8272056 121.887738,82.7923353 118.207055,78.3235155 C121.925655,76.6361974 124.533821,72.9067642 124.533821,68.565238 L124.533821,66.0626989 C124.533821,60.7109486 120.579592,56.2990047 115.447221,55.5000339 L115.447221,48.0357506 C117.321416,47.4507414 119.024985,46.3863498 120.311463,44.8344505 C122.272327,42.4700386 123.06859,39.3824904 122.497122,36.3653599 C118.551019,15.5162841 100.288442,0.384589342 79.0710272,0.384589342 L46.4919764,0.384589342 C25.9056131,0.384589342 8.2199201,14.376058 3.48297109,34.4072043 L3.12817388,35.9076444 C2.39962083,38.9870675 3.10650687,42.1721173 5.07007922,44.6529894 C6.29697339,46.2048886 7.93012391,47.2828221 9.73661047,47.916582 L9.73661047,55.4973255 C4.59340511,56.2854628 0.628343151,60.7001151 0.628343151,66.0599905 L0.628343151,68.5625296 C0.628343151,73.0178076 3.36109418,76.8447424 7.23677974,78.4616426 C3.9488117,82.9575462 3.93526982,87.4913671 3.93526982,87.7297041 C3.95152008,89.213894 5.15945562,90.4082876 6.64364547,90.4082876 C7.85970614,90.4082876 8.75888686,90.5491232 9.55244092,90.7522513 L9.55244092,99.7657255 C8.298463,100.353443 7.16636197,101.206581 6.24822263,102.29264 C4.39027693,104.486424 3.59672287,107.368136 4.0706886,110.203805 L5.03216196,115.972645 C5.48446069,118.689146 6.63822872,121.123976 8.29033787,123.114632 C9.54818192,124.78691 10.3514983,125.79033 10.7002871,126.124894 C11.2234703,126.62674 12.9889055,128.572848 15.2909551,128.572848 C56.2129726,128.572848 87.1843696,128.572848 108.205146,128.572848 C110.131075,128.572848 112.025527,127.756863 113.888501,126.124894 L116.871826,123.11734 Z M69.2314984,98.9369626 C62.8938994,98.9369626 56.935473,101.404293 52.4531112,105.883946 L47.3315729,111.005484 L42.2127429,105.883946 C37.7303812,101.404293 31.7719548,98.9369626 25.4343557,98.9369626 L14.9664839,98.9369626 L14.9664839,93.0922879 C16.3965062,93.6231295 18.1596587,94.0212607 20.6324057,94.0212607 C24.787054,94.0212607 26.9564629,92.9027016 28.8712844,91.9141445 C30.4990182,91.074548 31.7854966,90.410996 34.6265827,90.410996 C37.4649604,90.410996 38.7487304,91.074548 40.3764642,91.9141445 C42.2912858,92.9027016 44.4579863,94.0212607 48.6126346,94.0212607 C52.7672828,94.0212607 54.9339833,92.9027016 56.8488049,91.9141445 C58.4765387,91.074548 59.7630171,90.410996 62.6013948,90.410996 C65.4397725,90.410996 66.7235426,91.074548 68.3512763,91.9141445 C70.2633895,92.9027016 72.4327984,94.0212607 76.5847383,94.0212607 C80.7366782,94.0212607 82.9033787,92.9027016 84.8182003,91.9141445 C86.4432257,91.074548 87.7297041,90.410996 90.5653734,90.410996 C93.4010427,90.410996 94.6848128,91.074548 96.3125466,91.9141445 C98.2246598,92.9027016 100.39136,94.0212607 104.546009,94.0212607 C106.821044,94.0212607 108.489403,93.6800054 109.854425,93.2141648 L109.854425,98.9369626 L69.2314984,98.9369626 Z M11.3535107,60.7542826 C11.5999729,60.7542826 11.8220597,60.6757397 12.0495633,60.6134471 C12.1849821,60.6324057 12.3041506,60.69199 12.4449861,60.69199 L56.2881712,60.69199 C60.843659,60.69199 65.1256009,62.465976 68.3485679,65.6889431 L75.7505586,73.0909337 C76.2488997,73.5892748 76.9232853,73.8655291 77.6247546,73.8763627 L11.3508024,73.8763627 C8.42304828,73.8763627 6.04238608,71.4929921 6.04238608,68.565238 L6.04238608,66.0626989 C6.04238608,63.1376532 8.42575665,60.7542826 11.3535107,60.7542826 Z M99.0452976,55.2752387 C93.0435371,55.2752387 87.3992823,57.6125669 83.1525493,61.8592999 L77.6653802,67.346469 L72.1782111,61.8592999 C67.9314781,57.6152752 62.2899316,55.2752387 56.2881712,55.2752387 L15.1533618,55.2752387 L15.1533618,48.5611754 L110.033178,48.5611754 L110.033178,55.2752387 L99.0452976,55.2752387 Z M116.140565,41.3812716 C115.2143,42.4998307 113.849279,43.1417158 112.39759,43.1417158 L13.1302052,43.1417158 C11.6351818,43.1417158 10.2457851,42.4700386 9.31681224,41.2946036 C8.39054777,40.1191685 8.05470919,38.6133117 8.3986729,37.1589139 L8.75347011,35.6584738 C12.9108267,18.0811159 28.4298192,5.80404902 46.4919764,5.80404902 L79.0710272,5.80404902 C97.6884014,5.80404902 113.71386,19.0805065 117.175164,37.3728756 C117.446002,38.802898 117.066829,40.2627124 116.140565,41.3812716 Z M113.808653,73.879071 L77.7060058,73.879071 C78.4101835,73.8682375 79.0818607,73.5919832 79.5802018,73.0936421 L86.9821924,65.6916514 C90.2051595,62.4713928 94.4898097,60.6946984 99.0452976,60.6946984 L112.199878,60.6946984 C112.302796,60.7055319 112.394881,60.7542826 112.500508,60.7542826 L113.805945,60.7542826 C116.733699,60.7542826 119.114363,63.1376532 119.114363,66.0654073 L119.114363,68.5679464 C119.11707,71.4957005 116.736407,73.879071 113.808653,73.879071 Z M115.682849,85.1973729 C113.269687,85.5630036 111.706954,86.3700995 110.285057,87.1040693 C108.660031,87.9436658 107.376261,88.6072178 104.537883,88.6072178 C101.699506,88.6072178 100.418444,87.9436658 98.7907103,87.1040693 C96.8785971,86.1155122 94.7118965,84.9969531 90.5572483,84.9969531 C86.4026,84.9969531 84.2358995,86.1155122 82.3237863,87.1040693 C80.6987609,87.9436658 79.4149909,88.6072178 76.5766132,88.6072178 C73.7382355,88.6072178 72.4544654,87.9436658 70.82944,87.1040693 C68.9146185,86.1155122 66.7479179,84.9969531 62.5932697,84.9969531 C58.4386214,84.9969531 56.2692125,86.1155122 54.3570993,87.1040693 C52.7293656,87.9436658 51.4428871,88.6072178 48.6045094,88.6072178 C45.7661318,88.6072178 44.4823617,87.9436658 42.8546279,87.1040693 C40.9398064,86.1155122 38.7731058,84.9969531 34.6184576,84.9969531 C30.4638093,84.9969531 28.2944004,86.1155122 26.3795788,87.1040693 C24.7518451,87.9436658 23.4653666,88.6072178 20.6242806,88.6072178 C17.7831945,88.6072178 16.4967161,87.9436658 14.8689823,87.101361 C13.5093778,86.3998917 12.0197711,85.630713 9.7772361,85.2461236 C10.2918275,83.5533889 11.4239285,81.2593947 13.8695917,79.293114 L111.010901,79.293114 C111.086736,79.3472815 111.132778,79.423116 111.216738,79.4691584 C114.244702,81.1727267 115.317218,83.5100548 115.682849,85.1973729 Z M105.307062,123.11734 L19.8523935,123.11734 C15.1344031,123.11734 11.1503826,119.739996 10.3730787,115.087007 L9.41160539,109.315458 C9.20035209,108.053355 9.5551493,106.775002 10.3784955,105.797278 C11.0230889,105.036225 11.903311,104.537883 12.8647843,104.353714 L25.4343557,104.353714 C30.3256822,104.353714 34.924504,106.257702 38.3830997,109.713589 L45.4167513,116.749949 C45.9259259,117.259124 46.6138533,117.543503 47.3315729,117.543503 C48.0492924,117.543503 48.7399282,117.259124 49.2463945,116.749949 L56.2827544,109.713589 C59.7413501,106.257702 64.340172,104.353714 69.2314984,104.353714 L112.294671,104.353714 C113.256145,104.540592 114.133658,105.036225 114.78096,105.797278 C115.607015,106.772293 115.959104,108.053355 115.74785,109.31275 L114.786377,115.087007 C114.011781,119.739996 110.025052,123.11734 105.307062,123.11734 Z" id="Shape"></path>
            </g>
            <g id="noun_Burger_1530809" transform="translate(276.074040, 188.083181) scale(-1, 1) translate(-276.074040, -188.083181) translate(213.574040, 123.583181)" fill="#1C2A40" fill-rule="nonzero">
                <path d="M116.871826,123.11734 C118.521227,121.129393 119.674995,118.691855 120.127294,115.975354 L121.088767,110.203805 C121.562733,107.370844 120.76647,104.489133 118.911233,102.295348 C117.911842,101.114497 116.652448,100.231566 115.263051,99.6438486 L115.263051,90.8307942 C116.127023,90.5707902 117.13183,90.410996 118.51581,90.410996 C119.859164,90.410996 120.999391,89.4251473 121.194394,88.0980432 C121.235019,87.8272056 121.887738,82.7923353 118.207055,78.3235155 C121.925655,76.6361974 124.533821,72.9067642 124.533821,68.565238 L124.533821,66.0626989 C124.533821,60.7109486 120.579592,56.2990047 115.447221,55.5000339 L115.447221,48.0357506 C117.321416,47.4507414 119.024985,46.3863498 120.311463,44.8344505 C122.272327,42.4700386 123.06859,39.3824904 122.497122,36.3653599 C118.551019,15.5162841 100.288442,0.384589342 79.0710272,0.384589342 L46.4919764,0.384589342 C25.9056131,0.384589342 8.2199201,14.376058 3.48297109,34.4072043 L3.12817388,35.9076444 C2.39962083,38.9870675 3.10650687,42.1721173 5.07007922,44.6529894 C6.29697339,46.2048886 7.93012391,47.2828221 9.73661047,47.916582 L9.73661047,55.4973255 C4.59340511,56.2854628 0.628343151,60.7001151 0.628343151,66.0599905 L0.628343151,68.5625296 C0.628343151,73.0178076 3.36109418,76.8447424 7.23677974,78.4616426 C3.9488117,82.9575462 3.93526982,87.4913671 3.93526982,87.7297041 C3.95152008,89.213894 5.15945562,90.4082876 6.64364547,90.4082876 C7.85970614,90.4082876 8.75888686,90.5491232 9.55244092,90.7522513 L9.55244092,99.7657255 C8.298463,100.353443 7.16636197,101.206581 6.24822263,102.29264 C4.39027693,104.486424 3.59672287,107.368136 4.0706886,110.203805 L5.03216196,115.972645 C5.48446069,118.689146 6.63822872,121.123976 8.29033787,123.114632 C9.54818192,124.78691 10.3514983,125.79033 10.7002871,126.124894 C11.2234703,126.62674 12.9889055,128.572848 15.2909551,128.572848 C56.2129726,128.572848 87.1843696,128.572848 108.205146,128.572848 C110.131075,128.572848 112.025527,127.756863 113.888501,126.124894 L116.871826,123.11734 Z M69.2314984,98.9369626 C62.8938994,98.9369626 56.935473,101.404293 52.4531112,105.883946 L47.3315729,111.005484 L42.2127429,105.883946 C37.7303812,101.404293 31.7719548,98.9369626 25.4343557,98.9369626 L14.9664839,98.9369626 L14.9664839,93.0922879 C16.3965062,93.6231295 18.1596587,94.0212607 20.6324057,94.0212607 C24.787054,94.0212607 26.9564629,92.9027016 28.8712844,91.9141445 C30.4990182,91.074548 31.7854966,90.410996 34.6265827,90.410996 C37.4649604,90.410996 38.7487304,91.074548 40.3764642,91.9141445 C42.2912858,92.9027016 44.4579863,94.0212607 48.6126346,94.0212607 C52.7672828,94.0212607 54.9339833,92.9027016 56.8488049,91.9141445 C58.4765387,91.074548 59.7630171,90.410996 62.6013948,90.410996 C65.4397725,90.410996 66.7235426,91.074548 68.3512763,91.9141445 C70.2633895,92.9027016 72.4327984,94.0212607 76.5847383,94.0212607 C80.7366782,94.0212607 82.9033787,92.9027016 84.8182003,91.9141445 C86.4432257,91.074548 87.7297041,90.410996 90.5653734,90.410996 C93.4010427,90.410996 94.6848128,91.074548 96.3125466,91.9141445 C98.2246598,92.9027016 100.39136,94.0212607 104.546009,94.0212607 C106.821044,94.0212607 108.489403,93.6800054 109.854425,93.2141648 L109.854425,98.9369626 L69.2314984,98.9369626 Z M11.3535107,60.7542826 C11.5999729,60.7542826 11.8220597,60.6757397 12.0495633,60.6134471 C12.1849821,60.6324057 12.3041506,60.69199 12.4449861,60.69199 L56.2881712,60.69199 C60.843659,60.69199 65.1256009,62.465976 68.3485679,65.6889431 L75.7505586,73.0909337 C76.2488997,73.5892748 76.9232853,73.8655291 77.6247546,73.8763627 L11.3508024,73.8763627 C8.42304828,73.8763627 6.04238608,71.4929921 6.04238608,68.565238 L6.04238608,66.0626989 C6.04238608,63.1376532 8.42575665,60.7542826 11.3535107,60.7542826 Z M99.0452976,55.2752387 C93.0435371,55.2752387 87.3992823,57.6125669 83.1525493,61.8592999 L77.6653802,67.346469 L72.1782111,61.8592999 C67.9314781,57.6152752 62.2899316,55.2752387 56.2881712,55.2752387 L15.1533618,55.2752387 L15.1533618,48.5611754 L110.033178,48.5611754 L110.033178,55.2752387 L99.0452976,55.2752387 Z M116.140565,41.3812716 C115.2143,42.4998307 113.849279,43.1417158 112.39759,43.1417158 L13.1302052,43.1417158 C11.6351818,43.1417158 10.2457851,42.4700386 9.31681224,41.2946036 C8.39054777,40.1191685 8.05470919,38.6133117 8.3986729,37.1589139 L8.75347011,35.6584738 C12.9108267,18.0811159 28.4298192,5.80404902 46.4919764,5.80404902 L79.0710272,5.80404902 C97.6884014,5.80404902 113.71386,19.0805065 117.175164,37.3728756 C117.446002,38.802898 117.066829,40.2627124 116.140565,41.3812716 Z M113.808653,73.879071 L77.7060058,73.879071 C78.4101835,73.8682375 79.0818607,73.5919832 79.5802018,73.0936421 L86.9821924,65.6916514 C90.2051595,62.4713928 94.4898097,60.6946984 99.0452976,60.6946984 L112.199878,60.6946984 C112.302796,60.7055319 112.394881,60.7542826 112.500508,60.7542826 L113.805945,60.7542826 C116.733699,60.7542826 119.114363,63.1376532 119.114363,66.0654073 L119.114363,68.5679464 C119.11707,71.4957005 116.736407,73.879071 113.808653,73.879071 Z M115.682849,85.1973729 C113.269687,85.5630036 111.706954,86.3700995 110.285057,87.1040693 C108.660031,87.9436658 107.376261,88.6072178 104.537883,88.6072178 C101.699506,88.6072178 100.418444,87.9436658 98.7907103,87.1040693 C96.8785971,86.1155122 94.7118965,84.9969531 90.5572483,84.9969531 C86.4026,84.9969531 84.2358995,86.1155122 82.3237863,87.1040693 C80.6987609,87.9436658 79.4149909,88.6072178 76.5766132,88.6072178 C73.7382355,88.6072178 72.4544654,87.9436658 70.82944,87.1040693 C68.9146185,86.1155122 66.7479179,84.9969531 62.5932697,84.9969531 C58.4386214,84.9969531 56.2692125,86.1155122 54.3570993,87.1040693 C52.7293656,87.9436658 51.4428871,88.6072178 48.6045094,88.6072178 C45.7661318,88.6072178 44.4823617,87.9436658 42.8546279,87.1040693 C40.9398064,86.1155122 38.7731058,84.9969531 34.6184576,84.9969531 C30.4638093,84.9969531 28.2944004,86.1155122 26.3795788,87.1040693 C24.7518451,87.9436658 23.4653666,88.6072178 20.6242806,88.6072178 C17.7831945,88.6072178 16.4967161,87.9436658 14.8689823,87.101361 C13.5093778,86.3998917 12.0197711,85.630713 9.7772361,85.2461236 C10.2918275,83.5533889 11.4239285,81.2593947 13.8695917,79.293114 L111.010901,79.293114 C111.086736,79.3472815 111.132778,79.423116 111.216738,79.4691584 C114.244702,81.1727267 115.317218,83.5100548 115.682849,85.1973729 Z M105.307062,123.11734 L19.8523935,123.11734 C15.1344031,123.11734 11.1503826,119.739996 10.3730787,115.087007 L9.41160539,109.315458 C9.20035209,108.053355 9.5551493,106.775002 10.3784955,105.797278 C11.0230889,105.036225 11.903311,104.537883 12.8647843,104.353714 L25.4343557,104.353714 C30.3256822,104.353714 34.924504,106.257702 38.3830997,109.713589 L45.4167513,116.749949 C45.9259259,117.259124 46.6138533,117.543503 47.3315729,117.543503 C48.0492924,117.543503 48.7399282,117.259124 49.2463945,116.749949 L56.2827544,109.713589 C59.7413501,106.257702 64.340172,104.353714 69.2314984,104.353714 L112.294671,104.353714 C113.256145,104.540592 114.133658,105.036225 114.78096,105.797278 C115.607015,106.772293 115.959104,108.053355 115.74785,109.31275 L114.786377,115.087007 C114.011781,119.739996 110.025052,123.11734 105.307062,123.11734 Z" id="Shape"></path>
            </g>
            <g id="noun_Burger_1530809" transform="translate(208.797989, 64.500000) scale(-1, 1) translate(-208.797989, -64.500000) translate(146.297989, 0.000000)" fill="#1C2A40" fill-rule="nonzero">
                <path d="M116.871826,123.11734 C118.521227,121.129393 119.674995,118.691855 120.127294,115.975354 L121.088767,110.203805 C121.562733,107.370844 120.76647,104.489133 118.911233,102.295348 C117.911842,101.114497 116.652448,100.231566 115.263051,99.6438486 L115.263051,90.8307942 C116.127023,90.5707902 117.13183,90.410996 118.51581,90.410996 C119.859164,90.410996 120.999391,89.4251473 121.194394,88.0980432 C121.235019,87.8272056 121.887738,82.7923353 118.207055,78.3235155 C121.925655,76.6361974 124.533821,72.9067642 124.533821,68.565238 L124.533821,66.0626989 C124.533821,60.7109486 120.579592,56.2990047 115.447221,55.5000339 L115.447221,48.0357506 C117.321416,47.4507414 119.024985,46.3863498 120.311463,44.8344505 C122.272327,42.4700386 123.06859,39.3824904 122.497122,36.3653599 C118.551019,15.5162841 100.288442,0.384589342 79.0710272,0.384589342 L46.4919764,0.384589342 C25.9056131,0.384589342 8.2199201,14.376058 3.48297109,34.4072043 L3.12817388,35.9076444 C2.39962083,38.9870675 3.10650687,42.1721173 5.07007922,44.6529894 C6.29697339,46.2048886 7.93012391,47.2828221 9.73661047,47.916582 L9.73661047,55.4973255 C4.59340511,56.2854628 0.628343151,60.7001151 0.628343151,66.0599905 L0.628343151,68.5625296 C0.628343151,73.0178076 3.36109418,76.8447424 7.23677974,78.4616426 C3.9488117,82.9575462 3.93526982,87.4913671 3.93526982,87.7297041 C3.95152008,89.213894 5.15945562,90.4082876 6.64364547,90.4082876 C7.85970614,90.4082876 8.75888686,90.5491232 9.55244092,90.7522513 L9.55244092,99.7657255 C8.298463,100.353443 7.16636197,101.206581 6.24822263,102.29264 C4.39027693,104.486424 3.59672287,107.368136 4.0706886,110.203805 L5.03216196,115.972645 C5.48446069,118.689146 6.63822872,121.123976 8.29033787,123.114632 C9.54818192,124.78691 10.3514983,125.79033 10.7002871,126.124894 C11.2234703,126.62674 12.9889055,128.572848 15.2909551,128.572848 C56.2129726,128.572848 87.1843696,128.572848 108.205146,128.572848 C110.131075,128.572848 112.025527,127.756863 113.888501,126.124894 L116.871826,123.11734 Z M69.2314984,98.9369626 C62.8938994,98.9369626 56.935473,101.404293 52.4531112,105.883946 L47.3315729,111.005484 L42.2127429,105.883946 C37.7303812,101.404293 31.7719548,98.9369626 25.4343557,98.9369626 L14.9664839,98.9369626 L14.9664839,93.0922879 C16.3965062,93.6231295 18.1596587,94.0212607 20.6324057,94.0212607 C24.787054,94.0212607 26.9564629,92.9027016 28.8712844,91.9141445 C30.4990182,91.074548 31.7854966,90.410996 34.6265827,90.410996 C37.4649604,90.410996 38.7487304,91.074548 40.3764642,91.9141445 C42.2912858,92.9027016 44.4579863,94.0212607 48.6126346,94.0212607 C52.7672828,94.0212607 54.9339833,92.9027016 56.8488049,91.9141445 C58.4765387,91.074548 59.7630171,90.410996 62.6013948,90.410996 C65.4397725,90.410996 66.7235426,91.074548 68.3512763,91.9141445 C70.2633895,92.9027016 72.4327984,94.0212607 76.5847383,94.0212607 C80.7366782,94.0212607 82.9033787,92.9027016 84.8182003,91.9141445 C86.4432257,91.074548 87.7297041,90.410996 90.5653734,90.410996 C93.4010427,90.410996 94.6848128,91.074548 96.3125466,91.9141445 C98.2246598,92.9027016 100.39136,94.0212607 104.546009,94.0212607 C106.821044,94.0212607 108.489403,93.6800054 109.854425,93.2141648 L109.854425,98.9369626 L69.2314984,98.9369626 Z M11.3535107,60.7542826 C11.5999729,60.7542826 11.8220597,60.6757397 12.0495633,60.6134471 C12.1849821,60.6324057 12.3041506,60.69199 12.4449861,60.69199 L56.2881712,60.69199 C60.843659,60.69199 65.1256009,62.465976 68.3485679,65.6889431 L75.7505586,73.0909337 C76.2488997,73.5892748 76.9232853,73.8655291 77.6247546,73.8763627 L11.3508024,73.8763627 C8.42304828,73.8763627 6.04238608,71.4929921 6.04238608,68.565238 L6.04238608,66.0626989 C6.04238608,63.1376532 8.42575665,60.7542826 11.3535107,60.7542826 Z M99.0452976,55.2752387 C93.0435371,55.2752387 87.3992823,57.6125669 83.1525493,61.8592999 L77.6653802,67.346469 L72.1782111,61.8592999 C67.9314781,57.6152752 62.2899316,55.2752387 56.2881712,55.2752387 L15.1533618,55.2752387 L15.1533618,48.5611754 L110.033178,48.5611754 L110.033178,55.2752387 L99.0452976,55.2752387 Z M116.140565,41.3812716 C115.2143,42.4998307 113.849279,43.1417158 112.39759,43.1417158 L13.1302052,43.1417158 C11.6351818,43.1417158 10.2457851,42.4700386 9.31681224,41.2946036 C8.39054777,40.1191685 8.05470919,38.6133117 8.3986729,37.1589139 L8.75347011,35.6584738 C12.9108267,18.0811159 28.4298192,5.80404902 46.4919764,5.80404902 L79.0710272,5.80404902 C97.6884014,5.80404902 113.71386,19.0805065 117.175164,37.3728756 C117.446002,38.802898 117.066829,40.2627124 116.140565,41.3812716 Z M113.808653,73.879071 L77.7060058,73.879071 C78.4101835,73.8682375 79.0818607,73.5919832 79.5802018,73.0936421 L86.9821924,65.6916514 C90.2051595,62.4713928 94.4898097,60.6946984 99.0452976,60.6946984 L112.199878,60.6946984 C112.302796,60.7055319 112.394881,60.7542826 112.500508,60.7542826 L113.805945,60.7542826 C116.733699,60.7542826 119.114363,63.1376532 119.114363,66.0654073 L119.114363,68.5679464 C119.11707,71.4957005 116.736407,73.879071 113.808653,73.879071 Z M115.682849,85.1973729 C113.269687,85.5630036 111.706954,86.3700995 110.285057,87.1040693 C108.660031,87.9436658 107.376261,88.6072178 104.537883,88.6072178 C101.699506,88.6072178 100.418444,87.9436658 98.7907103,87.1040693 C96.8785971,86.1155122 94.7118965,84.9969531 90.5572483,84.9969531 C86.4026,84.9969531 84.2358995,86.1155122 82.3237863,87.1040693 C80.6987609,87.9436658 79.4149909,88.6072178 76.5766132,88.6072178 C73.7382355,88.6072178 72.4544654,87.9436658 70.82944,87.1040693 C68.9146185,86.1155122 66.7479179,84.9969531 62.5932697,84.9969531 C58.4386214,84.9969531 56.2692125,86.1155122 54.3570993,87.1040693 C52.7293656,87.9436658 51.4428871,88.6072178 48.6045094,88.6072178 C45.7661318,88.6072178 44.4823617,87.9436658 42.8546279,87.1040693 C40.9398064,86.1155122 38.7731058,84.9969531 34.6184576,84.9969531 C30.4638093,84.9969531 28.2944004,86.1155122 26.3795788,87.1040693 C24.7518451,87.9436658 23.4653666,88.6072178 20.6242806,88.6072178 C17.7831945,88.6072178 16.4967161,87.9436658 14.8689823,87.101361 C13.5093778,86.3998917 12.0197711,85.630713 9.7772361,85.2461236 C10.2918275,83.5533889 11.4239285,81.2593947 13.8695917,79.293114 L111.010901,79.293114 C111.086736,79.3472815 111.132778,79.423116 111.216738,79.4691584 C114.244702,81.1727267 115.317218,83.5100548 115.682849,85.1973729 Z M105.307062,123.11734 L19.8523935,123.11734 C15.1344031,123.11734 11.1503826,119.739996 10.3730787,115.087007 L9.41160539,109.315458 C9.20035209,108.053355 9.5551493,106.775002 10.3784955,105.797278 C11.0230889,105.036225 11.903311,104.537883 12.8647843,104.353714 L25.4343557,104.353714 C30.3256822,104.353714 34.924504,106.257702 38.3830997,109.713589 L45.4167513,116.749949 C45.9259259,117.259124 46.6138533,117.543503 47.3315729,117.543503 C48.0492924,117.543503 48.7399282,117.259124 49.2463945,116.749949 L56.2827544,109.713589 C59.7413501,106.257702 64.340172,104.353714 69.2314984,104.353714 L112.294671,104.353714 C113.256145,104.540592 114.133658,105.036225 114.78096,105.797278 C115.607015,106.772293 115.959104,108.053355 115.74785,109.31275 L114.786377,115.087007 C114.011781,119.739996 110.025052,123.11734 105.307062,123.11734 Z" id="Shape"></path>
            </g>
            <rect id="Rectangle" fill="#FFFFFF" x="5.85009141" y="376.599634" width="396.343693" height="17.5502742"></rect>
        </g>
        <g id="noun_House_2562746" transform="translate(3483.000000, 1571.000000)" fill="#1C2A40" fill-rule="nonzero">
            <path d="M48.6913999,299.996339 L106.795892,299.996339 L159.436517,299.996339 L217.541009,299.996339 C220.854486,299.996339 223.541009,297.309816 223.541009,293.996339 L223.541009,127.191651 L260.229486,127.191651 C262.710931,127.191651 264.934564,125.665284 265.828119,123.350831 C266.718744,121.036378 266.09765,118.411378 264.257806,116.744386 L137.144525,1.54907313 C134.862298,-0.513426871 131.37597,-0.519286471 129.087885,1.54907313 L1.97167331,116.744386 C0.13182971,118.411378 -0.48926389,121.036378 0.40136051,123.350831 C1.29491531,125.665284 3.51854771,127.191651 6,127.191651 L42.6913999,127.191651 L42.6913999,293.996339 C42.6913999,297.309816 45.3779233,299.996339 48.6913999,299.996339 Z M112.795892,287.996339 L112.795892,213.585206 L153.436517,213.585206 L153.436517,287.996339 L112.795892,287.996339 Z M21.5566339,115.191651 L133.116204,14.0939949 L244.672845,115.191651 L217.541008,115.191651 C214.227532,115.191651 211.541008,117.878175 211.541008,121.191651 L211.541008,287.996339 L165.436516,287.996339 L165.436516,207.585206 C165.436516,204.27173 162.749993,201.585206 159.436516,201.585206 L106.795891,201.585206 C103.482415,201.585206 100.795891,204.27173 100.795891,207.585206 L100.795891,287.996339 L54.6913993,287.996339 L54.6913993,121.191651 C54.6913993,117.878175 52.0048759,115.191651 48.6913993,115.191651 L21.5566339,115.191651 Z" id="Shape"></path>
        </g>
        <g id="noun_Trash_1734102" transform="translate(155.000000, 1090.000000)">
            <rect id="Rectangle" x="0" y="0" width="300" height="300"></rect>
            <g id="Clipped">
                <mask id="mask-2" fill="white">
                    <use xlink:href="#path-1"></use>
                </mask>
                <g id="Rectangle"></g>
                <path d="M115.291992,51.2583984 C115.126172,45.9615234 115.088672,40.7173828 117.366797,36.3316406 C120.260156,30.7634766 126.307617,27.0410156 132.649805,26.9806641 C144.216211,26.94375 155.783203,26.94375 167.350195,26.9806641 C176.273438,27.065625 184.558594,34.8890625 184.580273,44.3162109 L184.580273,51.2583984 C206.308008,51.3058594 228.035742,51.3984375 249.762891,51.5355469 C256.741406,51.6679688 263.008594,57.6398437 263.152734,64.9224609 C263.202539,72.4494141 263.153906,79.9769531 263.153906,87.5039062 C263.108203,94.4759766 257.189648,100.910156 249.762891,101.051367 C247.679297,101.064258 245.595117,101.076563 243.510938,101.088281 C243.520898,151.794727 243.669727,202.501172 243.510352,253.207031 C243.413086,263.466211 234.519727,272.831836 223.785938,272.930859 C174.595313,273.085547 125.404688,273.085547 76.2140625,272.930859 C65.9355469,272.835938 56.5236328,263.971875 56.4896484,253.091602 L56.4896484,101.053125 C54.4576172,101.052539 52.4261719,101.051953 50.3947266,101.051953 C43.3558594,101.007422 36.9826172,94.9792969 36.8472656,87.6609375 C36.7974609,80.1345703 36.8460938,72.6082031 36.8460938,65.0824219 C36.8923828,58.0787109 42.8431641,51.6761719 50.2371094,51.5355469 C71.9214844,51.3984375 93.6064453,51.3058594 115.291992,51.2583984 Z M66.7201172,101.060156 C66.7201172,151.773633 66.2425781,202.490039 66.7212891,253.201758 C66.7986328,258.125391 71.0466797,262.651758 76.2773438,262.700391 C125.445703,262.855078 174.61582,263.153906 223.782422,262.699805 C228.729492,262.622461 233.230078,258.331641 233.279297,253.142578 L233.279297,101.139258 C177.760547,101.381836 122.240039,101.110547 66.7201172,101.060156 Z M150.445898,127.67168 C152.995313,128.007422 155.001562,130.160742 155.115234,132.768164 L155.115234,230.984766 C155.051953,232.439648 154.839258,232.833984 154.430273,233.542383 C152.886914,236.21543 148.683398,236.902734 146.383008,234.601758 C145.644141,233.863477 145.14375,232.901367 144.962109,231.873047 C144.892969,231.481641 144.901758,231.380273 144.884766,230.984766 L144.884766,132.768164 C145.010742,129.877734 147.473437,127.542188 150.445898,127.67168 Z M194.643164,127.67168 C197.217773,128.010938 199.198828,130.160742 199.313086,132.768164 L199.313086,230.984766 C199.295508,231.380273 199.304297,231.481641 199.235156,231.873047 C198.533203,235.854492 192.130078,237.635156 189.767578,233.542383 C189.358594,232.833984 189.145312,232.439648 189.082031,230.984766 L189.082031,132.768164 C189.208008,129.877734 191.671289,127.542188 194.643164,127.67168 Z M106.248047,127.67168 C108.798047,128.007422 110.804297,130.160742 110.917969,132.768164 L110.917969,230.984766 C110.900391,231.380273 110.90918,231.481641 110.840039,231.873047 C110.132812,235.883789 103.662305,237.50918 101.372461,233.542383 C100.963477,232.833984 100.750781,232.439648 100.686914,230.984766 L100.686914,132.768164 C100.813477,129.877734 103.276172,127.542188 106.248047,127.67168 Z M239.541797,91.0025391 C242.920313,90.9451172 246.298828,90.8841797 249.677344,90.8197266 C251.383594,90.7658203 252.887109,89.3097656 252.922852,87.5291016 C252.97207,80.0226562 253.070508,72.5144531 252.92168,65.0097656 C252.869531,63.3011719 251.358984,61.7988281 249.633398,61.7660156 C226.696289,61.6207031 203.758594,61.5761719 180.820898,61.5789675 C180.595898,61.6429688 180.366211,61.6910156 180.132422,61.7214844 C179.837695,61.7607422 179.762109,61.7554688 179.465039,61.7654297 L120.534961,61.7654297 C119.994141,61.7478516 119.690625,61.715625 119.459766,61.6669922 C96.4488281,61.7150391 73.4378906,61.7654297 50.4269531,61.7654297 C48.6603516,61.7765625 47.1099609,63.2976562 47.0777344,65.0542969 C47.0279297,72.5613281 46.9394531,80.0707031 47.0783203,87.5765625 C47.1322266,89.2757813 48.6123047,90.7658203 50.3220703,90.8197266 C53.7738281,90.8853516 57.225,90.9474609 60.6767578,91.0060547 C60.9808594,90.9316406 61.2919922,90.8707031 61.6048828,90.8208984 L238.395117,90.8208984 L239.541797,91.0025391 L239.541797,91.0025391 Z M174.350391,51.2390625 C174.379688,46.8011719 175.016602,42.0451172 172.266211,39.2935547 C170.961914,37.9886719 169.142578,37.2292969 167.285742,37.2111328 C155.780273,37.1748047 144.274805,37.2111328 132.769336,37.2111328 C129.057422,37.2228516 125.686523,40.4501953 125.650781,44.2757813 L125.650195,51.2390625 C141.883594,51.2138672 158.116992,51.2138672 174.350391,51.2390625 L174.350391,51.2390625 Z" id="Shape" fill="#1C2A40" mask="url(#mask-2)"></path>
            </g>
        </g>
        <g id="noun_dairy-product_3093061" transform="translate(127.000000, 2086.000000)" fill="#1C2A40" fill-rule="nonzero">
            <path d="M356.889908,118.548624 C356.889908,118.177982 356.833945,117.822018 356.751376,117.477064 L356.751376,77.8908257 C356.752294,77.6100917 356.719266,77.3302752 356.66789,77.053211 C356.656881,76.9908257 356.644954,76.9293578 356.631193,76.8688073 C356.572477,76.6110092 356.498165,76.3559633 356.395413,76.1082569 C356.385321,76.0834862 356.370642,76.0605505 356.359633,76.0366972 C356.291743,75.8825688 356.221101,75.7293578 356.134862,75.5816514 L325.462385,22.5678899 L325.462385,12.8715596 C325.462385,5.93944954 319.822936,0.3 312.890826,0.3 L215.158716,0.3 C208.226606,0.3 202.588073,5.93944954 202.588073,12.8715596 L202.588073,22.5788991 L171.922018,75.5816514 C171.840367,75.7238532 171.772477,75.8706422 171.706422,76.0192661 C171.691743,76.0513761 171.673394,76.0816514 171.659633,76.1137615 C171.558716,76.3568807 171.485321,76.6073394 171.427523,76.8605505 C171.411927,76.9275229 171.4,76.9944954 171.387156,77.0623853 C171.338532,77.3321101 171.305505,77.6045872 171.304587,77.8779817 L171.304587,77.8788991 L171.304587,118.549541 L171.304587,189.858716 L152.458716,189.858716 L152.458716,150.640367 C152.458716,140.188073 148.455046,130.297248 141.183486,122.789908 C135.60367,117.026606 133.113761,112.401835 132.598165,106.529358 L132.621101,106.529358 C135.155046,106.529358 137.208257,104.475229 137.208257,101.942202 L137.208257,84.446789 C137.208257,78.3431193 132.242202,73.3770642 126.138532,73.3770642 L93.5825688,73.3770642 C87.4788991,73.3770642 82.512844,78.3431193 82.512844,84.446789 L82.512844,101.942202 C82.512844,104.475229 84.566055,106.529358 87.1,106.529358 L87.5495413,106.529358 C87.0348624,112.401835 84.5449541,117.026606 78.9633028,122.788991 C71.6917431,130.297248 67.6880734,140.188073 67.6880734,150.640367 L67.6880734,189.858716 L50.0688073,189.858716 C32.006422,189.858716 17.312844,204.553211 17.312844,222.614679 L17.312844,270.409174 L16.9926606,270.409174 C7.62385321,270.408257 0,278.03211 0,287.401835 L0,295.027523 C0,297.56055 2.05321101,299.614679 4.58715596,299.614679 L236.152294,299.614679 L236.152294,299.708257 L352.163303,299.708257 C354.697248,299.708257 356.750459,297.654128 356.750459,295.121101 L356.750459,255.321101 C356.833945,254.976147 356.889908,254.620183 356.889908,254.249541 L356.889908,118.548624 L356.889908,118.548624 Z M180.480734,82.466055 L285,82.466055 L285,113.962385 L180.480734,113.962385 L180.480734,82.466055 Z M320.876147,32.959633 L344.211009,73.2917431 L297.541284,73.2917431 L320.876147,32.959633 Z M294.174312,123.13578 L347.576147,123.13578 L347.576147,249.662385 L294.174312,249.662385 L294.174312,123.13578 Z M294.174312,113.961468 L294.174312,82.4651376 L347.576147,82.4651376 L347.576147,113.961468 L294.174312,113.961468 Z M211.762385,12.8715596 C211.762385,10.9981651 213.286239,9.47431193 215.158716,9.47431193 L312.890826,9.47431193 C314.76422,9.47431193 316.288073,10.9981651 316.288073,12.8715596 L316.288073,19.2229358 L211.762385,19.2229358 L211.762385,12.8715596 Z M209.821101,28.3981651 L312.915596,28.3981651 L286.941284,73.2917431 L183.847706,73.2917431 L209.821101,28.3981651 Z M180.479817,123.13578 L285,123.13578 L285,249.662385 L226.145872,249.662385 L226.145872,223.580734 C228.312844,223.962385 230.515596,224.16055 232.740367,224.16055 C253.561468,224.16055 270.501835,207.221101 270.501835,186.399083 C270.501835,165.577064 253.561468,148.637615 232.740367,148.637615 C211.919266,148.637615 194.978899,165.577064 194.978899,186.399083 C194.978899,187.574312 195.053211,188.743119 195.16055,189.907339 C194.573394,189.876147 193.983486,189.857798 193.388991,189.857798 L180.479817,189.857798 L180.479817,123.13578 L180.479817,123.13578 Z M193.389908,199.03211 C206.392661,199.03211 216.97156,209.611009 216.97156,222.613761 L216.97156,270.408257 L158.129358,270.408257 L158.129358,222.613761 C158.129358,213.358716 154.265138,204.995413 148.073394,199.03211 L193.389908,199.03211 Z M204.153211,186.399083 C204.153211,170.63578 216.977982,157.811927 232.740367,157.811927 C248.502752,157.811927 261.327523,170.636697 261.327523,186.399083 C261.327523,202.161468 248.502752,214.986239 232.740367,214.986239 C230.085321,214.986239 227.477982,214.605505 224.957798,213.893578 C222.13945,203.704587 214.517431,195.490826 204.687156,191.86789 C204.340367,190.073394 204.153211,188.244037 204.153211,186.399083 Z M91.6862385,84.4458716 C91.6862385,83.4 92.5366972,82.5504587 93.5816514,82.5504587 L126.137615,82.5504587 C127.183486,82.5504587 128.033028,83.4009174 128.033028,84.4458716 L128.033028,97.3541284 L91.6862385,97.3541284 L91.6862385,84.4458716 Z M85.553211,129.170642 C90.9908257,123.555046 96.0458716,116.916514 96.740367,106.52844 L123.406422,106.52844 C124.100917,116.916514 129.155963,123.555046 134.593578,129.170642 C140.197248,134.958716 143.284404,142.583486 143.284404,150.63945 L143.284404,189.857798 L125.374312,189.857798 L76.8614679,189.857798 L76.8614679,150.63945 C76.8614679,142.582569 79.9486239,134.957798 85.553211,129.170642 Z M26.487156,222.613761 C26.487156,209.611009 37.066055,199.03211 50.0688073,199.03211 L70.3155963,199.03211 L125.373394,199.03211 C138.376147,199.03211 148.955046,209.611009 148.955046,222.613761 L148.955046,270.408257 L26.487156,270.408257 L26.487156,222.613761 Z M231.565138,290.441284 L9.17431193,290.441284 L9.17431193,287.402752 C9.17431193,283.090826 12.6816514,279.583486 16.9926606,279.583486 L223.745872,279.583486 C228.056881,279.583486 231.565138,283.090826 231.565138,287.402752 L231.565138,290.441284 L231.565138,290.441284 Z M226.145872,270.598165 L226.145872,258.836697 L285,258.836697 L285,290.533945 L240.73945,290.533945 L240.73945,287.401835 C240.73945,278.848624 234.380734,271.769725 226.145872,270.598165 Z M294.174312,290.533945 L294.174312,258.836697 L347.576147,258.836697 L347.576147,290.533945 L294.174312,290.533945 Z" id="Shape"></path>
        </g>
        <g id="noun_narrowing_983628" transform="translate(3471.000000, 2627.000000)" fill="#1C2A40">
            <g id="Group" transform="translate(0.000000, 0.813912)">
                <path d="M145.603006,0.623 C138.399697,0.623 131.19705,3.35282353 125.739035,8.81097059 L125.737712,8.81097059 L8.18901618,126.326397 C-2.73208676,137.248382 -2.68108676,155.136765 8.18195735,166.052794 C8.18431029,166.052796 8.18666324,166.052796 8.18901618,166.052794 L125.737712,283.568529 L125.739035,283.568529 C136.655241,294.485 154.552447,294.485441 165.468388,283.568529 L282.972962,166.052794 C293.889079,155.135882 293.889079,137.236471 282.972962,126.319779 L165.468388,8.80391176 C160.010285,3.34527941 152.806668,0.615941176 145.603006,0.615941176 L145.603006,0.623 Z M145.603006,9.40929412 C150.536109,9.40929412 155.468771,11.2893676 159.228476,15.0494706 L276.733094,132.565074 C284.252506,140.085147 284.252506,152.301324 276.733094,159.821176 L159.228476,277.336912 C151.709021,284.856765 139.496991,284.856765 131.977579,277.336912 C131.977138,277.336912 131.976697,277.336912 131.976256,277.336912 L14.4358103,159.828235 L14.4274279,159.828235 C6.95160441,152.306618 6.91714853,140.086912 14.4274279,132.574779 L14.4287515,132.573456 L131.976124,15.0578971 C131.976565,15.0578971 131.977006,15.0578971 131.977447,15.0578971 C135.737153,11.2978382 140.669815,9.41772059 145.602874,9.41772059 L145.603006,9.40929412 Z" id="Shape"></path>
                <path d="M131.670124,66.3439883 C129.235133,66.3810116 127.290171,68.3834342 127.324535,70.8184559 L127.324535,117.479485 L102.035462,144.665441 C101.275913,145.482028 100.853504,146.555951 100.853947,147.671176 L100.853947,221.567794 C100.831446,223.158835 101.667367,224.638741 103.041621,225.440828 C104.415875,226.242915 106.115548,226.242915 107.489802,225.440828 C108.864056,224.638741 109.699978,223.158835 109.677476,221.567794 L109.677476,149.406765 L134.96655,122.220809 C135.725995,121.404333 136.148132,120.330588 136.148065,119.215515 L136.148065,70.8184559 C136.164892,69.626115 135.698385,68.4777329 134.854815,67.6349107 C134.011244,66.7920885 132.862449,66.3266007 131.670124,66.3439883 L131.670124,66.3439883 Z" id="Path"></path>
                <path d="M159.376006,66.3439883 C156.941016,66.3810116 154.996053,68.3834342 155.030418,70.8184559 L155.030418,119.215515 C155.03035,120.330588 155.452487,121.404333 156.211932,122.220809 L181.501006,149.406765 L181.501006,221.567794 C181.478505,223.158835 182.314426,224.638741 183.68868,225.440828 C185.062934,226.242915 186.762607,226.242915 188.136861,225.440828 C189.511115,224.638741 190.347037,223.158835 190.324535,221.567794 L190.324535,147.671176 C190.324978,146.555951 189.902569,145.482028 189.143021,144.665441 L163.853947,117.479485 L163.853947,70.8184559 C163.870774,69.626115 163.404267,68.4777329 162.560697,67.6349107 C161.717127,66.7920885 160.568331,66.3266007 159.376006,66.3439883 L159.376006,66.3439883 Z" id="Path"></path>
            </g>
        </g>
        <g id="noun_Travel_2603395" transform="translate(226.000000, 3146.000000)" fill="#1C2A40" fill-rule="nonzero">
            <g id="Group">
                <path d="M281.25,0.75 C260.416667,0.75 243.75,17.4166667 243.75,38.25 C243.75,61.5833333 266.25,94.9166667 276.25,109.083333 C278.75,112.416667 283.75,112.416667 286.25,109.083333 C296.666667,94.9166667 318.75,61.5833333 318.75,38.25 C318.75,17.4166667 302.083333,0.75 281.25,0.75 Z M281.25,56.5833333 C271.25,56.5833333 262.916667,48.25 262.916667,38.25 C262.916667,28.25 271.25,19.9166667 281.25,19.9166667 C291.25,19.9166667 299.583333,28.25 299.583333,38.25 C299.583333,48.25 291.25,56.5833333 281.25,56.5833333 Z" id="Shape"></path>
                <path d="M37.5,184.5 C16.6666667,184.5 0,201.166667 0,222 C0,245.333333 22.5,278.666667 32.5,292.833333 C35,296.166667 40,296.166667 42.5,292.833333 C52.9166667,278.666667 75,245.333333 75,222 C75,201.166667 58.3333333,184.5 37.5,184.5 Z M37.5,240.333333 C27.5,240.333333 19.1666667,232 19.1666667,222 C19.1666667,212 27.5,203.666667 37.5,203.666667 C47.5,203.666667 55.8333333,212 55.8333333,222 C55.8333333,232 47.5,240.333333 37.5,240.333333 Z" id="Shape"></path>
                <path d="M80.4166667,281.583333 L70.4166667,281.583333 C66.6666667,281.583333 63.3333333,284.916667 63.3333333,288.666667 C63.3333333,292.416667 66.6666667,295.75 70.4166667,295.75 L80.4166667,295.75 C84.1666667,295.75 87.5,292.416667 87.5,288.666667 C87.5,284.916667 84.1666667,281.583333 80.4166667,281.583333 Z" id="Path"></path>
                <path d="M91.6666667,149.5 C95,149.5 97.9166667,147.416667 98.3333333,144.083333 C98.75,141.166667 100,138.666667 101.25,136.166667 C102.916667,132.833333 101.25,128.25 97.9166667,127 C94.5833333,125.333333 90.4166667,127 88.75,130.333333 C87.0833333,133.666667 85.8333333,137.416667 85,141.166667 C84.1666667,144.916667 86.6666667,148.666667 90.4166667,149.5 C90.4166667,149.5 91.25,149.5 91.6666667,149.5 Z" id="Path"></path>
                <path d="M245,99.5 L235,99.5 C231.25,99.5 227.916667,102.833333 227.916667,106.583333 C227.916667,110.333333 231.25,113.666667 235,113.666667 L245,113.666667 C248.75,113.666667 252.083333,110.333333 252.083333,106.583333 C252.083333,102.833333 249.166667,99.5 245,99.5 Z" id="Path"></path>
                <path d="M115.416667,118.666667 C116.666667,118.666667 117.5,118.25 118.75,117.833333 C121.25,116.583333 123.75,115.333333 126.666667,114.916667 C130.416667,114.083333 132.5,109.916667 131.666667,106.166667 C130.833333,102.416667 126.666667,99.9166667 122.916667,101.166667 C119.166667,102 115.416667,103.666667 112.083333,105.333333 C108.75,107 107.083333,111.166667 109.166667,114.916667 C110.416667,117 112.916667,118.666667 115.416667,118.666667 Z" id="Path"></path>
                <path d="M195,113.666667 L205,113.666667 C208.75,113.666667 212.083333,110.333333 212.083333,106.583333 C212.083333,102.833333 208.75,99.5 205,99.5 L195,99.5 C191.25,99.5 187.916667,102.833333 187.916667,106.583333 C187.916667,110.333333 191.25,113.666667 195,113.666667 Z" id="Path"></path>
                <path d="M154.583333,113.666667 L164.583333,113.666667 C168.333333,113.666667 171.666667,110.333333 171.666667,106.583333 C171.666667,102.833333 168.333333,99.5 164.583333,99.5 L154.583333,99.5 C150.833333,99.5 147.5,102.833333 147.5,106.583333 C147.5,110.333333 150.833333,113.666667 154.583333,113.666667 Z" id="Path"></path>
                <path d="M160.833333,281.583333 L150.833333,281.583333 C147.083333,281.583333 143.75,284.916667 143.75,288.666667 C143.75,292.416667 147.083333,295.75 150.833333,295.75 L160.833333,295.75 C164.583333,295.75 167.916667,292.416667 167.916667,288.666667 C167.916667,284.916667 164.583333,281.583333 160.833333,281.583333 Z" id="Path"></path>
                <path d="M199.583333,280.75 C197.083333,281.166667 194.583333,281.583333 192.083333,281.583333 L190.833333,281.583333 C187.083333,281.583333 183.75,284.916667 183.75,288.666667 C183.75,292.416667 187.083333,295.75 190.833333,295.75 L192.083333,295.75 C195.416667,295.75 198.75,295.333333 202.083333,294.916667 C205.833333,294.083333 208.333333,290.333333 207.5,286.583333 C207.083333,282.416667 203.333333,279.916667 199.583333,280.75 Z" id="Path"></path>
                <path d="M217.916667,197.416667 C214.583333,195.333333 210.833333,194.083333 207.083333,192.833333 C203.333333,191.583333 199.583333,193.666667 198.333333,197.416667 C197.083333,201.166667 199.166667,204.916667 202.916667,206.166667 C205.416667,207 208.333333,208.25 210.833333,209.5 C212.083333,209.916667 213.333333,210.333333 214.166667,210.333333 C216.666667,210.333333 219.166667,209.083333 220.416667,206.583333 C222.5,203.666667 221.25,199.083333 217.916667,197.416667 Z" id="Path"></path>
                <path d="M235.416667,258.25 C232.083333,256.583333 227.916667,257.833333 225.833333,261.166667 C224.583333,263.666667 222.916667,266.166667 220.833333,268.25 C218.333333,271.166667 218.75,275.75 221.666667,278.25 C222.916667,279.5 224.583333,279.916667 226.25,279.916667 C228.333333,279.916667 230,279.083333 231.666667,277.416667 C234.166667,274.5 236.25,271.166667 238.333333,267.833333 C240.416667,264.5 239.166667,259.916667 235.416667,258.25 Z" id="Path"></path>
                <path d="M175.416667,190.333333 L165.416667,190.333333 C161.666667,190.333333 158.333333,193.666667 158.333333,197.416667 C158.333333,201.166667 161.666667,204.5 165.416667,204.5 L175.416667,204.5 C179.166667,204.5 182.5,201.166667 182.5,197.416667 C182.5,193.666667 179.166667,190.333333 175.416667,190.333333 Z" id="Path"></path>
                <path d="M231.25,219.083333 C227.5,220.75 225.833333,224.5 227.5,228.25 C228.75,230.75 229.583333,233.666667 230,236.166667 C230.416667,239.5 233.75,242 237.083333,242 C237.5,242 237.916667,242 238.333333,242 C242.083333,241.166667 244.583333,237.833333 244.166667,233.666667 C243.333333,229.916667 242.5,226.166667 240.833333,222.416667 C239.166667,219.5 235,217.833333 231.25,219.083333 Z" id="Path"></path>
                <path d="M120.833333,281.583333 L110.833333,281.583333 C107.083333,281.583333 103.75,284.916667 103.75,288.666667 C103.75,292.416667 107.083333,295.75 110.833333,295.75 L120.833333,295.75 C124.583333,295.75 127.916667,292.416667 127.916667,288.666667 C127.916667,284.916667 124.583333,281.583333 120.833333,281.583333 Z" id="Path"></path>
                <path d="M135.416667,190.333333 C132.5,190.333333 129.583333,189.916667 127.083333,189.083333 C123.333333,188.25 119.583333,190.333333 118.75,194.083333 C117.916667,197.833333 120,201.583333 123.75,202.416667 C127.5,203.25 131.25,203.666667 135.416667,204.083333 C135.416667,204.083333 135.416667,204.083333 135.416667,204.083333 C139.166667,204.083333 142.5,201.166667 142.5,197 C142.083333,193.666667 139.166667,190.75 135.416667,190.333333 Z" id="Path"></path>
                <path d="M105.833333,175.75 C104.166667,173.666667 102.5,171.166667 101.25,168.666667 C99.5833333,165.333333 95.4166667,163.666667 91.6666667,165.333333 C88.3333333,167 86.6666667,171.166667 88.3333333,174.916667 C90,178.25 92.0833333,181.583333 94.5833333,184.916667 C95.8333333,186.583333 97.9166667,187.416667 100,187.416667 C101.666667,187.416667 102.916667,187 104.166667,185.75 C107.916667,183.25 108.333333,179.083333 105.833333,175.75 Z" id="Path"></path>
            </g>
        </g>
    </g>
</svg>