<?xml version="1.0" encoding="utf-8"?>
<!-- Generator: Adobe Illustrator 24.2.1, SVG Export Plug-In . SVG Version: 6.00 Build 0)  -->
<svg version="1.1" id="Layer_1" xmlns="http://www.w3.org/2000/svg" xmlns:xlink="http://www.w3.org/1999/xlink" x="0px" y="0px"
	 viewBox="0 0 3946 3824.8" style="enable-background:new 0 0 3946 3824.8;" xml:space="preserve">
<style type="text/css">
	.st0{fill:#37485E;stroke:#FFFFFF;stroke-miterlimit:10;}
	.st1{fill:#37485E;stroke:#37485E;stroke-width:1.5;stroke-miterlimit:10;}
	.st2{fill-rule:evenodd;clip-rule:evenodd;fill:#FFFFFF;}
	.st3{fill:#37485E;stroke:#FFFFFF;stroke-width:2;stroke-miterlimit:10;}
	.st4{fill:none;}
	.st5{filter:url(#Adobe_OpacityMaskFilter);}
	.st6{mask:url(#mask-2_1_);fill-rule:evenodd;clip-rule:evenodd;fill:#37485E;stroke:#FFFFFF;stroke-width:2;stroke-miterlimit:10;}
	.st7{fill:#37485E;stroke:#FFFFFF;stroke-width:0.5;stroke-miterlimit:10;}
	.st8{fill-rule:evenodd;clip-rule:evenodd;fill:#37485E;stroke:#37485E;stroke-width:0.25;stroke-miterlimit:10;}
	.st9{fill:#1C2A40;}
	.st10{font-family:'IBMPlexSerif-Text';}
	.st11{font-size:68px;}
	.st12{stroke:#000000;stroke-width:0.25;stroke-miterlimit:10;}
</style>
<g id="noun_Shower_1541311" transform="translate(170.000000, 106.000000)">
	<g id="Group">
		<path id="Path" class="st0" d="M15,91c-2.8,0-5,2.2-5,5v15c0,2.8,2.2,5,5,5s5-2.2,5-5V96C20,93.2,17.8,91,15,91z"/>
		<path id="Path_1_" class="st0" d="M35,91c-2.8,0-5,2.2-5,5v15c0,2.8,2.2,5,5,5s5-2.2,5-5V96C40,93.2,37.8,91,35,91z"/>
		<path id="Path_2_" class="st0" d="M55,91c-2.8,0-5,2.2-5,5v15c0,2.8,2.2,5,5,5s5-2.2,5-5V96C60,93.2,57.8,91,55,91z"/>
		<path id="Path_3_" class="st0" d="M75,91c-2.8,0-5,2.2-5,5v15c0,2.8,2.2,5,5,5s5-2.2,5-5V96C80,93.2,77.8,91,75,91z"/>
		<path id="Path_4_" class="st0" d="M95,91c-2.8,0-5,2.2-5,5v15c0,2.8,2.2,5,5,5s5-2.2,5-5V96C100,93.2,97.8,91,95,91z"/>
		<path id="Path_5_" class="st0" d="M115,91c-2.8,0-5,2.2-5,5v15c0,2.8,2.2,5,5,5s5-2.2,5-5V96C120,93.2,117.8,91,115,91z"/>
		<path id="Path_6_" class="st0" d="M135,91c-2.8,0-5,2.2-5,5v15c0,2.8,2.2,5,5,5s5-2.2,5-5V96C140,93.2,137.8,91,135,91z"/>
		<path id="Path_7_" class="st0" d="M155,91c-2.8,0-5,2.2-5,5v15c0,2.8,2.2,5,5,5s5-2.2,5-5V96C160,93.2,157.8,91,155,91z"/>
		<path id="Path_8_" class="st0" d="M15,136c-2.8,0-5,2.2-5,5v15c0,2.8,2.2,5,5,5s5-2.2,5-5v-15C20,138.2,17.8,136,15,136z"/>
		<path id="Path_9_" class="st0" d="M35,136c-2.8,0-5,2.2-5,5v15c0,2.8,2.2,5,5,5s5-2.2,5-5v-15C40,138.2,37.8,136,35,136z"/>
		<path id="Path_10_" class="st0" d="M55,136c-2.8,0-5,2.2-5,5v15c0,2.8,2.2,5,5,5s5-2.2,5-5v-15C60,138.2,57.8,136,55,136z"/>
		<path id="Path_11_" class="st0" d="M75,136c-2.8,0-5,2.2-5,5v15c0,2.8,2.2,5,5,5s5-2.2,5-5v-15C80,138.2,77.8,136,75,136z"/>
		<path id="Path_12_" class="st0" d="M95,136c-2.8,0-5,2.2-5,5v15c0,2.8,2.2,5,5,5s5-2.2,5-5v-15C100,138.2,97.8,136,95,136z"/>
		<path id="Path_13_" class="st0" d="M115,136c-2.8,0-5,2.2-5,5v15c0,2.8,2.2,5,5,5s5-2.2,5-5v-15C120,138.2,117.8,136,115,136z"/>
		<path id="Path_14_" class="st0" d="M135,136c-2.8,0-5,2.2-5,5v15c0,2.8,2.2,5,5,5s5-2.2,5-5v-15C140,138.2,137.8,136,135,136z"/>
		<path id="Path_15_" class="st0" d="M155,136c-2.8,0-5,2.2-5,5v15c0,2.8,2.2,5,5,5s5-2.2,5-5v-15C160,138.2,157.8,136,155,136z"/>
		<path id="Path_16_" class="st0" d="M15,181c-2.8,0-5,2.2-5,5v15c0,2.8,2.2,5,5,5s5-2.2,5-5v-15C20,183.2,17.8,181,15,181z"/>
		<path id="Path_17_" class="st0" d="M35,181c-2.8,0-5,2.2-5,5v15c0,2.8,2.2,5,5,5s5-2.2,5-5v-15C40,183.2,37.8,181,35,181z"/>
		<path id="Path_18_" class="st0" d="M55,181c-2.8,0-5,2.2-5,5v15c0,2.8,2.2,5,5,5s5-2.2,5-5v-15C60,183.2,57.8,181,55,181z"/>
		<path id="Path_19_" class="st0" d="M75,181c-2.8,0-5,2.2-5,5v15c0,2.8,2.2,5,5,5s5-2.2,5-5v-15C80,183.2,77.8,181,75,181z"/>
		<path id="Path_20_" class="st0" d="M95,181c-2.8,0-5,2.2-5,5v15c0,2.8,2.2,5,5,5s5-2.2,5-5v-15C100,183.2,97.8,181,95,181z"/>
		<path id="Path_21_" class="st0" d="M115,181c-2.8,0-5,2.2-5,5v15c0,2.8,2.2,5,5,5s5-2.2,5-5v-15C120,183.2,117.8,181,115,181z"/>
		<path id="Path_22_" class="st0" d="M135,181c-2.8,0-5,2.2-5,5v15c0,2.8,2.2,5,5,5s5-2.2,5-5v-15C140,183.2,137.8,181,135,181z"/>
		<path id="Path_23_" class="st0" d="M155,181c-2.8,0-5,2.2-5,5v15c0,2.8,2.2,5,5,5s5-2.2,5-5v-15C160,183.2,157.8,181,155,181z"/>
		<path id="Path_24_" class="st0" d="M15,226c-2.8,0-5,2.2-5,5v15c0,2.8,2.2,5,5,5s5-2.2,5-5v-15C20,228.2,17.8,226,15,226z"/>
		<path id="Path_25_" class="st0" d="M35,226c-2.8,0-5,2.2-5,5v15c0,2.8,2.2,5,5,5s5-2.2,5-5v-15C40,228.2,37.8,226,35,226z"/>
		<path id="Path_26_" class="st0" d="M55,226c-2.8,0-5,2.2-5,5v15c0,2.8,2.2,5,5,5s5-2.2,5-5v-15C60,228.2,57.8,226,55,226z"/>
		<path id="Path_27_" class="st0" d="M75,226c-2.8,0-5,2.2-5,5v15c0,2.8,2.2,5,5,5s5-2.2,5-5v-15C80,228.2,77.8,226,75,226z"/>
		<path id="Path_28_" class="st0" d="M95,226c-2.8,0-5,2.2-5,5v15c0,2.8,2.2,5,5,5s5-2.2,5-5v-15C100,228.2,97.8,226,95,226z"/>
		<path id="Path_29_" class="st0" d="M115,226c-2.8,0-5,2.2-5,5v15c0,2.8,2.2,5,5,5s5-2.2,5-5v-15C120,228.2,117.8,226,115,226z"/>
		<path id="Path_30_" class="st0" d="M135,226c-2.8,0-5,2.2-5,5v15c0,2.8,2.2,5,5,5s5-2.2,5-5v-15C140,228.2,137.8,226,135,226z"/>
		<path id="Path_31_" class="st0" d="M155,226c-2.8,0-5,2.2-5,5v15c0,2.8,2.2,5,5,5s5-2.2,5-5v-15C160,228.2,157.8,226,155,226z"/>
		<path id="Path_32_" class="st0" d="M15,271c-2.8,0-5,2.2-5,5v15c0,2.8,2.2,5,5,5s5-2.2,5-5v-15C20,273.2,17.8,271,15,271z"/>
		<path id="Path_33_" class="st0" d="M35,271c-2.8,0-5,2.2-5,5v15c0,2.8,2.2,5,5,5s5-2.2,5-5v-15C40,273.2,37.8,271,35,271z"/>
		<path id="Path_34_" class="st0" d="M55,271c-2.8,0-5,2.2-5,5v15c0,2.8,2.2,5,5,5s5-2.2,5-5v-15C60,273.2,57.8,271,55,271z"/>
		<path id="Path_35_" class="st0" d="M75,271c-2.8,0-5,2.2-5,5v15c0,2.8,2.2,5,5,5s5-2.2,5-5v-15C80,273.2,77.8,271,75,271z"/>
		<path id="Path_36_" class="st0" d="M95,271c-2.8,0-5,2.2-5,5v15c0,2.8,2.2,5,5,5s5-2.2,5-5v-15C100,273.2,97.8,271,95,271z"/>
		<path id="Path_37_" class="st0" d="M115,271c-2.8,0-5,2.2-5,5v15c0,2.8,2.2,5,5,5s5-2.2,5-5v-15C120,273.2,117.8,271,115,271z"/>
		<path id="Path_38_" class="st0" d="M135,271c-2.8,0-5,2.2-5,5v15c0,2.8,2.2,5,5,5s5-2.2,5-5v-15C140,273.2,137.8,271,135,271z"/>
		<path id="Path_39_" class="st0" d="M155,271c-2.8,0-5,2.2-5,5v15c0,2.8,2.2,5,5,5s5-2.2,5-5v-15C160,273.2,157.8,271,155,271z"/>
		<path id="Shape" class="st0" d="M265,1c-2.8,0-5,2.2-5,5v105h-15V31c0-16.6-13.4-30-30-30H105C88.4,1,75,14.4,75,31v15H15
			C6.7,46,0,52.7,0,61v10c0,1.3,0.5,2.6,1.5,3.5C2.4,75.5,3.7,76,5,76h160c2.8,0,5-2.2,5-5V61c0-8.3-6.7-15-15-15H85V31
			c0-11,9-20,20-20h110c11,0,20,9,20,20v230v10v25c0,2.8,2.2,5,5,5s5-2.2,5-5v-25h15v25c0,2.8,2.2,5,5,5s5-2.2,5-5V6
			C270,3.2,267.8,1,265,1z M160,61v5H10v-5c0-2.8,2.2-5,5-5h140C157.8,56,160,58.2,160,61z M245,261V121h15v140H245z"/>
	</g>
</g>
<g id="noun_Burger_1530809" transform="translate(54.113346, 248.628885)">
	<path id="Shape_1_" class="st1" d="M3589.7,652.4h-10.1c1.6-1.9,2.8-4.2,3.3-6.7l1-5.4c0.5-2.7-0.3-5.4-2.2-7.4
		c-1-1.1-2.3-1.9-3.6-2.5v-8.3c0.9-0.2,1.9-0.4,3.3-0.4c1.3,0,2.5-0.9,2.7-2.2c0-0.3,0.7-5-3-9.2c3.7-1.6,6.3-5.1,6.3-9.2v-2.4
		c0-5-4-9.2-9.1-9.9v-7c1.9-0.5,3.6-1.5,4.9-3c2-2.2,2.8-5.1,2.2-8c-3.9-19.6-22.2-33.8-43.4-33.8h-32.6c-20.6,0-38.3,13.1-43,32
		l-0.4,1.4c-0.7,2.9,0,5.9,1.9,8.2c1.2,1.5,2.9,2.5,4.7,3.1v7.1c-5.1,0.7-9.1,4.9-9.1,9.9v2.4c0,4.2,2.7,7.8,6.6,9.3
		c-3.3,4.2-3.3,8.5-3.3,8.7c0,1.4,1.2,2.5,2.7,2.5c1.2,0,2.1,0.1,2.9,0.3v8.5c-1.3,0.6-2.4,1.4-3.3,2.4c-1.9,2.1-2.7,4.8-2.2,7.4
		l1,5.4c0.5,2.6,1.6,4.8,3.3,6.7c-55-0.5-85.8-0.5-92.5,0c-2.5,0.2-2.7,2.4-2.7,2.5v20.8c0,1.4,1.2,2.5,2.7,2.5h211.3
		c1.5,0,2.7-1.1,2.7-2.5v-20.8C3592.4,653.5,3591.2,652.4,3589.7,652.4z M3531.9,629.7c-6.3,0-12.3,2.3-16.8,6.5l-5.1,4.8l-5.1-4.8
		c-4.5-4.2-10.4-6.5-16.8-6.5h-10.5v-5.5c1.4,0.5,3.2,0.9,5.7,0.9c4.2,0,6.3-1.1,8.2-2c1.6-0.8,2.9-1.4,5.8-1.4
		c2.8,0,4.1,0.6,5.7,1.4c1.9,0.9,4.1,2,8.2,2c4.2,0,6.3-1.1,8.2-2c1.6-0.8,2.9-1.4,5.8-1.4s4.1,0.6,5.7,1.4c1.9,0.9,4.1,2,8.2,2
		c4.2,0,6.3-1.1,8.2-2c1.6-0.8,2.9-1.4,5.7-1.4s4.1,0.6,5.7,1.4c1.9,0.9,4.1,2,8.2,2c2.3,0,3.9-0.3,5.3-0.8v5.4H3531.9z M3474,593.8
		c0.2,0,0.5-0.1,0.7-0.1c0.1,0,0.3,0.1,0.4,0.1h43.8c4.6,0,8.8,1.7,12.1,4.7l7.4,7c0.5,0.5,1.2,0.7,1.9,0.7H3474
		c-2.9,0-5.3-2.2-5.3-5v-2.4C3468.7,596,3471.1,593.8,3474,593.8z M3561.7,588.6c-6,0-11.6,2.2-15.9,6.2l-5.5,5.2l-5.5-5.2
		c-4.2-4-9.9-6.2-15.9-6.2h-41.1v-6.3h94.9v6.3H3561.7z M3578.8,575.6c-0.9,1.1-2.3,1.7-3.7,1.7h-99.3c-1.5,0-2.9-0.6-3.8-1.7
		c-0.9-1.1-1.3-2.5-0.9-3.9l0.4-1.4c4.2-16.5,19.7-28.1,37.7-28.1h32.6c18.6,0,34.6,12.5,38.1,29.7
		C3580.1,573.2,3579.7,574.5,3578.8,575.6z M3576.5,606.1h-36.1c0.7,0,1.4-0.3,1.9-0.7l7.4-7c3.2-3,7.5-4.7,12.1-4.7h13.2
		c0.1,0,0.2,0.1,0.3,0.1h1.3c2.9,0,5.3,2.2,5.3,5v2.4C3581.8,603.9,3579.4,606.1,3576.5,606.1z M3578.3,616.8
		c-2.4,0.3-4,1.1-5.4,1.8c-1.6,0.8-2.9,1.4-5.7,1.4s-4.1-0.6-5.7-1.4c-1.9-0.9-4.1-2-8.2-2c-4.2,0-6.3,1.1-8.2,2
		c-1.6,0.8-2.9,1.4-5.7,1.4s-4.1-0.6-5.7-1.4c-1.9-0.9-4.1-2-8.2-2c-4.2,0-6.3,1.1-8.2,2c-1.6,0.8-2.9,1.4-5.8,1.4s-4.1-0.6-5.7-1.4
		c-1.9-0.9-4.1-2-8.2-2c-4.2,0-6.3,1.1-8.2,2c-1.6,0.8-2.9,1.4-5.8,1.4s-4.1-0.6-5.8-1.4c-1.4-0.7-2.8-1.4-5.1-1.7
		c0.5-1.6,1.6-3.7,4.1-5.6h97.1c0.1,0.1,0.1,0.1,0.2,0.2C3576.9,613,3578,615.2,3578.3,616.8z M3568,652.4h-85.5
		c-4.7,0-8.7-3.2-9.5-7.5l-1-5.4c-0.2-1.2,0.1-2.4,1-3.3c0.6-0.7,1.5-1.2,2.5-1.4h12.6c4.9,0,9.5,1.8,12.9,5l7,6.6
		c0.5,0.5,1.2,0.7,1.9,0.7c0.7,0,1.4-0.3,1.9-0.7l7-6.6c3.5-3.2,8.1-5,12.9-5h43.1c1,0.2,1.8,0.6,2.5,1.4c0.8,0.9,1.2,2.1,1,3.3
		l-1,5.4C3576.7,649.2,3572.7,652.4,3568,652.4z M3587,673.2h-205.8v-15.7h101.4h85.5h19V673.2z"/>
</g>
<g id="noun_Burger_1530809_1_" transform="translate(190.127971, 248.628885)">
	<path id="Shape_2_" class="st1" d="M3589.7,652.4h-10.1c1.6-1.9,2.8-4.2,3.3-6.7l1-5.4c0.5-2.7-0.3-5.4-2.2-7.4
		c-1-1.1-2.3-1.9-3.6-2.5v-8.3c0.9-0.2,1.9-0.4,3.3-0.4c1.3,0,2.5-0.9,2.7-2.2c0-0.3,0.7-5-3-9.2c3.7-1.6,6.3-5.1,6.3-9.2v-2.4
		c0-5-4-9.2-9.1-9.9v-7c1.9-0.5,3.6-1.5,4.9-3c2-2.2,2.8-5.1,2.2-8c-3.9-19.6-22.2-33.8-43.4-33.8h-32.6c-20.6,0-38.3,13.1-43,32
		l-0.4,1.4c-0.7,2.9,0,5.9,1.9,8.2c1.2,1.5,2.9,2.5,4.7,3.1v7.1c-5.1,0.7-9.1,4.9-9.1,9.9v2.4c0,4.2,2.7,7.8,6.6,9.3
		c-3.3,4.2-3.3,8.5-3.3,8.7c0,1.4,1.2,2.5,2.7,2.5c1.2,0,2.1,0.1,2.9,0.3v8.5c-1.3,0.6-2.4,1.4-3.3,2.4c-1.9,2.1-2.7,4.8-2.2,7.4
		l1,5.4c0.5,2.6,1.6,4.8,3.3,6.7c-55-0.5-85.8-0.5-92.5,0c-2.5,0.2-2.7,2.4-2.7,2.5v20.8c0,1.4,1.2,2.5,2.7,2.5h211.3
		c1.5,0,2.7-1.1,2.7-2.5v-20.8C3592.4,653.5,3591.2,652.4,3589.7,652.4z M3531.9,629.7c-6.3,0-12.3,2.3-16.8,6.5l-5.1,4.8l-5.1-4.8
		c-4.5-4.2-10.4-6.5-16.8-6.5h-10.5v-5.5c1.4,0.5,3.2,0.9,5.7,0.9c4.2,0,6.3-1.1,8.2-2c1.6-0.8,2.9-1.4,5.8-1.4
		c2.8,0,4.1,0.6,5.7,1.4c1.9,0.9,4.1,2,8.2,2c4.2,0,6.3-1.1,8.2-2c1.6-0.8,2.9-1.4,5.8-1.4s4.1,0.6,5.7,1.4c1.9,0.9,4.1,2,8.2,2
		c4.2,0,6.3-1.1,8.2-2c1.6-0.8,2.9-1.4,5.7-1.4s4.1,0.6,5.7,1.4c1.9,0.9,4.1,2,8.2,2c2.3,0,3.9-0.3,5.3-0.8v5.4H3531.9z M3474,593.8
		c0.2,0,0.5-0.1,0.7-0.1c0.1,0,0.3,0.1,0.4,0.1h43.8c4.6,0,8.8,1.7,12.1,4.7l7.4,7c0.5,0.5,1.2,0.7,1.9,0.7H3474
		c-2.9,0-5.3-2.2-5.3-5v-2.4C3468.7,596,3471.1,593.8,3474,593.8z M3561.7,588.6c-6,0-11.6,2.2-15.9,6.2l-5.5,5.2l-5.5-5.2
		c-4.2-4-9.9-6.2-15.9-6.2h-41.1v-6.3h94.9v6.3H3561.7z M3578.8,575.6c-0.9,1.1-2.3,1.7-3.7,1.7h-99.3c-1.5,0-2.9-0.6-3.8-1.7
		c-0.9-1.1-1.3-2.5-0.9-3.9l0.4-1.4c4.2-16.5,19.7-28.1,37.7-28.1h32.6c18.6,0,34.6,12.5,38.1,29.7
		C3580.1,573.2,3579.7,574.5,3578.8,575.6z M3576.5,606.1h-36.1c0.7,0,1.4-0.3,1.9-0.7l7.4-7c3.2-3,7.5-4.7,12.1-4.7h13.2
		c0.1,0,0.2,0.1,0.3,0.1h1.3c2.9,0,5.3,2.2,5.3,5v2.4C3581.8,603.9,3579.4,606.1,3576.5,606.1z M3578.3,616.8
		c-2.4,0.3-4,1.1-5.4,1.8c-1.6,0.8-2.9,1.4-5.7,1.4s-4.1-0.6-5.7-1.4c-1.9-0.9-4.1-2-8.2-2c-4.2,0-6.3,1.1-8.2,2
		c-1.6,0.8-2.9,1.4-5.7,1.4s-4.1-0.6-5.7-1.4c-1.9-0.9-4.1-2-8.2-2c-4.2,0-6.3,1.1-8.2,2c-1.6,0.8-2.9,1.4-5.8,1.4s-4.1-0.6-5.7-1.4
		c-1.9-0.9-4.1-2-8.2-2c-4.2,0-6.3,1.1-8.2,2c-1.6,0.8-2.9,1.4-5.8,1.4s-4.1-0.6-5.8-1.4c-1.4-0.7-2.8-1.4-5.1-1.7
		c0.5-1.6,1.6-3.7,4.1-5.6h97.1c0.1,0.1,0.1,0.1,0.2,0.2C3576.9,613,3578,615.2,3578.3,616.8z M3568,652.4h-85.5
		c-4.7,0-8.7-3.2-9.5-7.5l-1-5.4c-0.2-1.2,0.1-2.4,1-3.3c0.6-0.7,1.5-1.2,2.5-1.4h12.6c4.9,0,9.5,1.8,12.9,5l7,6.6
		c0.5,0.5,1.2,0.7,1.9,0.7c0.7,0,1.4-0.3,1.9-0.7l7-6.6c3.5-3.2,8.1-5,12.9-5h43.1c1,0.2,1.8,0.6,2.5,1.4c0.8,0.9,1.2,2.1,1,3.3
		l-1,5.4C3576.7,649.2,3572.7,652.4,3568,652.4z M3587,673.2h-205.8v-15.7h101.4h85.5h19V673.2z"/>
</g>
<g id="noun_Burger_1530809_2_" transform="translate(108.684644, 324.128885) scale(-1, 1) translate(-108.684644, -324.128885) translate(0.184644, 248.628885)">
	<path id="Shape_3_" class="st1" d="M-3161.6,652.4h-10.1c1.6-1.9,2.8-4.2,3.3-6.7l1-5.4c0.5-2.7-0.3-5.4-2.2-7.4
		c-1-1.1-2.3-1.9-3.6-2.5v-8.3c0.9-0.2,1.9-0.4,3.3-0.4c1.3,0,2.5-0.9,2.7-2.2c0-0.3,0.7-5-3-9.2c3.7-1.6,6.3-5.1,6.3-9.2v-2.4
		c0-5-4-9.2-9.1-9.9v-7c1.9-0.5,3.6-1.5,4.9-3c2-2.2,2.8-5.1,2.2-8c-3.9-19.6-22.2-33.8-43.4-33.8h-32.6c-20.6,0-38.3,13.1-43,32
		l-0.4,1.4c-0.7,2.9,0,5.9,1.9,8.2c1.2,1.5,2.9,2.5,4.7,3.1v7.1c-5.1,0.7-9.1,4.9-9.1,9.9v2.4c0,4.2,2.7,7.8,6.6,9.3
		c-3.3,4.2-3.3,8.5-3.3,8.7c0,1.4,1.2,2.5,2.7,2.5c1.2,0,2.1,0.1,2.9,0.3v8.5c-1.3,0.6-2.4,1.4-3.3,2.4c-1.9,2.1-2.7,4.8-2.2,7.4
		l1,5.4c0.5,2.6,1.6,4.8,3.3,6.7c-55-0.5-85.8-0.5-92.5,0c-2.5,0.2-2.7,2.4-2.7,2.5v20.8c0,1.4,1.2,2.5,2.7,2.5h211.3
		c1.5,0,2.7-1.1,2.7-2.5v-20.8C-3158.9,653.5-3160.1,652.4-3161.6,652.4z M-3219.4,629.7c-6.3,0-12.3,2.3-16.8,6.5l-5.1,4.8
		l-5.1-4.8c-4.5-4.2-10.4-6.5-16.8-6.5h-10.5v-5.5c1.4,0.5,3.2,0.9,5.7,0.9c4.2,0,6.3-1.1,8.2-2c1.6-0.8,2.9-1.4,5.8-1.4
		c2.8,0,4.1,0.6,5.8,1.4c1.9,0.9,4.1,2,8.2,2c4.2,0,6.3-1.1,8.2-2c1.6-0.8,2.9-1.4,5.8-1.4s4.1,0.6,5.7,1.4c1.9,0.9,4.1,2,8.2,2
		c4.2,0,6.3-1.1,8.2-2c1.6-0.8,2.9-1.4,5.7-1.4s4.1,0.6,5.7,1.4c1.9,0.9,4.1,2,8.2,2c2.3,0,3.9-0.3,5.3-0.8v5.4H-3219.4z
		 M-3277.3,593.8c0.2,0,0.5-0.1,0.7-0.1c0.1,0,0.3,0.1,0.4,0.1h43.8c4.6,0,8.8,1.7,12.1,4.7l7.4,7c0.5,0.5,1.2,0.7,1.9,0.7h-66.3
		c-2.9,0-5.3-2.2-5.3-5v-2.4C-3282.6,596-3280.2,593.8-3277.3,593.8z M-3189.6,588.6c-6,0-11.6,2.2-15.9,6.2l-5.5,5.2l-5.5-5.2
		c-4.2-4-9.9-6.2-15.9-6.2h-41.1v-6.3h94.9v6.3H-3189.6z M-3172.5,575.6c-0.9,1.1-2.3,1.7-3.7,1.7h-99.3c-1.5,0-2.9-0.6-3.8-1.7
		c-0.9-1.1-1.3-2.5-0.9-3.9l0.4-1.4c4.2-16.5,19.7-28.1,37.7-28.1h32.6c18.6,0,34.6,12.5,38.1,29.7
		C-3171.2,573.2-3171.6,574.5-3172.5,575.6z M-3174.8,606.1h-36.1c0.7,0,1.4-0.3,1.9-0.7l7.4-7c3.2-3,7.5-4.7,12.1-4.7h13.2
		c0.1,0,0.2,0.1,0.3,0.1h1.3c2.9,0,5.3,2.2,5.3,5v2.4C-3169.5,603.9-3171.9,606.1-3174.8,606.1z M-3172.9,616.8
		c-2.4,0.3-4,1.1-5.4,1.8c-1.6,0.8-2.9,1.4-5.7,1.4s-4.1-0.6-5.7-1.4c-1.9-0.9-4.1-2-8.2-2s-6.3,1.1-8.2,2c-1.6,0.8-2.9,1.4-5.7,1.4
		s-4.1-0.6-5.7-1.4c-1.9-0.9-4.1-2-8.2-2c-4.2,0-6.3,1.1-8.2,2c-1.6,0.8-2.9,1.4-5.8,1.4s-4.1-0.6-5.8-1.4c-1.9-0.9-4.1-2-8.2-2
		c-4.2,0-6.3,1.1-8.2,2c-1.6,0.8-2.9,1.4-5.8,1.4c-2.8,0-4.1-0.6-5.8-1.4c-1.4-0.7-2.8-1.4-5.1-1.7c0.5-1.6,1.6-3.7,4.1-5.6h97.1
		c0.1,0.1,0.1,0.1,0.2,0.2C-3174.4,613-3173.3,615.2-3172.9,616.8z M-3183.3,652.4h-85.5c-4.7,0-8.7-3.2-9.5-7.5l-1-5.4
		c-0.2-1.2,0.1-2.4,1-3.3c0.6-0.7,1.5-1.2,2.5-1.4h12.6c4.9,0,9.5,1.8,12.9,5l7,6.6c0.5,0.5,1.2,0.7,1.9,0.7c0.7,0,1.4-0.3,1.9-0.7
		l7-6.6c3.5-3.2,8.1-5,12.9-5h43.1c1,0.2,1.8,0.6,2.5,1.4c0.8,0.9,1.2,2.1,1,3.3l-1,5.4C-3174.6,649.2-3178.6,652.4-3183.3,652.4z
		 M-3164.3,673.2h-205.8v-15.7h101.4h85.5h19V673.2z"/>
</g>
<g id="noun_Burger_1530809_3_" transform="translate(134.209324, 188.083181) scale(-1, 1) translate(-134.209324, -188.083181) translate(71.709324, 123.583181)">
	<path id="Shape_4_" class="st1" d="M-3258.8,659.9c1.6-1.9,2.8-4.2,3.3-6.7l1-5.4c0.5-2.7-0.3-5.4-2.2-7.4c-1-1.1-2.3-1.9-3.6-2.5
		v-8.3c0.9-0.2,1.9-0.4,3.3-0.4c1.3,0,2.5-0.9,2.7-2.2c0-0.3,0.7-5-3-9.2c3.7-1.6,6.3-5.1,6.3-9.2v-2.4c0-5-4-9.2-9.1-9.9v-7
		c1.9-0.5,3.6-1.5,4.9-3c2-2.2,2.8-5.1,2.2-8c-3.9-19.6-22.2-33.8-43.4-33.8h-32.6c-20.6,0-38.3,13.1-43,32l-0.4,1.4
		c-0.7,2.9,0,5.9,1.9,8.2c1.2,1.5,2.9,2.5,4.7,3.1v7.1c-5.1,0.7-9.1,4.9-9.1,9.9v2.4c0,4.2,2.7,7.8,6.6,9.3
		c-3.3,4.2-3.3,8.5-3.3,8.7c0,1.4,1.2,2.5,2.7,2.5c1.2,0,2.1,0.1,2.9,0.3v8.5c-1.3,0.6-2.4,1.4-3.3,2.4c-1.9,2.1-2.7,4.8-2.2,7.4
		l1,5.4c0.5,2.6,1.6,4.8,3.3,6.7c1.3,1.6,2.1,2.5,2.4,2.8c0.5,0.5,2.3,2.3,4.6,2.3c40.9,0,71.9,0,92.9,0c1.9,0,3.8-0.8,5.7-2.3
		L-3258.8,659.9z M-3306.4,637.2c-6.3,0-12.3,2.3-16.8,6.5l-5.1,4.8l-5.1-4.8c-4.5-4.2-10.4-6.5-16.8-6.5h-10.5v-5.5
		c1.4,0.5,3.2,0.9,5.7,0.9c4.2,0,6.3-1.1,8.2-2c1.6-0.8,2.9-1.4,5.8-1.4c2.8,0,4.1,0.6,5.7,1.4c1.9,0.9,4.1,2,8.2,2
		c4.2,0,6.3-1.1,8.2-2c1.6-0.8,2.9-1.4,5.8-1.4s4.1,0.6,5.8,1.4c1.9,0.9,4.1,2,8.2,2c4.2,0,6.3-1.1,8.2-2c1.6-0.8,2.9-1.4,5.7-1.4
		s4.1,0.6,5.7,1.4c1.9,0.9,4.1,2,8.2,2c2.3,0,3.9-0.3,5.3-0.8v5.4H-3306.4z M-3364.3,601.3c0.2,0,0.5-0.1,0.7-0.1
		c0.1,0,0.3,0.1,0.4,0.1h43.8c4.6,0,8.8,1.7,12.1,4.7l7.4,7c0.5,0.5,1.2,0.7,1.9,0.7h-66.3c-2.9,0-5.3-2.2-5.3-5v-2.4
		C-3369.6,603.6-3367.2,601.3-3364.3,601.3z M-3276.6,596.2c-6,0-11.6,2.2-15.9,6.2l-5.5,5.2l-5.5-5.2c-4.2-4-9.9-6.2-15.9-6.2
		h-41.1v-6.3h94.9v6.3H-3276.6z M-3259.5,583.1c-0.9,1.1-2.3,1.7-3.7,1.7h-99.3c-1.5,0-2.9-0.6-3.8-1.7c-0.9-1.1-1.3-2.5-0.9-3.9
		l0.4-1.4c4.2-16.5,19.7-28.1,37.7-28.1h32.6c18.6,0,34.6,12.5,38.1,29.7C-3258.2,580.7-3258.6,582.1-3259.5,583.1z M-3261.8,613.7
		h-36.1c0.7,0,1.4-0.3,1.9-0.7l7.4-7c3.2-3,7.5-4.7,12.1-4.7h13.2c0.1,0,0.2,0.1,0.3,0.1h1.3c2.9,0,5.3,2.2,5.3,5v2.4
		C-3256.5,611.4-3258.9,613.7-3261.8,613.7z M-3260,624.3c-2.4,0.3-4,1.1-5.4,1.8c-1.6,0.8-2.9,1.4-5.7,1.4s-4.1-0.6-5.7-1.4
		c-1.9-0.9-4.1-2-8.2-2c-4.2,0-6.3,1.1-8.2,2c-1.6,0.8-2.9,1.4-5.7,1.4s-4.1-0.6-5.7-1.4c-1.9-0.9-4.1-2-8.2-2c-4.2,0-6.3,1.1-8.2,2
		c-1.6,0.8-2.9,1.4-5.8,1.4s-4.1-0.6-5.7-1.4c-1.9-0.9-4.1-2-8.2-2c-4.2,0-6.3,1.1-8.2,2c-1.6,0.8-2.9,1.4-5.8,1.4s-4.1-0.6-5.8-1.4
		c-1.4-0.7-2.8-1.4-5.1-1.7c0.5-1.6,1.6-3.7,4.1-5.6h97.1c0.1,0.1,0.1,0.1,0.2,0.2C-3261.4,620.5-3260.3,622.7-3260,624.3z
		 M-3270.3,659.9h-85.5c-4.7,0-8.7-3.2-9.5-7.5l-1-5.4c-0.2-1.2,0.1-2.4,1-3.3c0.6-0.7,1.5-1.2,2.5-1.4h12.6c4.9,0,9.5,1.8,12.9,5
		l7,6.6c0.5,0.5,1.2,0.7,1.9,0.7s1.4-0.3,1.9-0.7l7-6.6c3.5-3.2,8.1-5,12.9-5h43.1c1,0.2,1.8,0.6,2.5,1.4c0.8,0.9,1.2,2.1,1,3.3
		l-1,5.4C-3261.6,656.8-3265.6,659.9-3270.3,659.9z"/>
</g>
<g id="noun_Burger_1530809_4_" transform="translate(276.074040, 188.083181) scale(-1, 1) translate(-276.074040, -188.083181) translate(213.574040, 123.583181)">
	<path id="Shape_5_" class="st1" d="M-3258.8,659.9c1.6-1.9,2.8-4.2,3.3-6.7l1-5.4c0.5-2.7-0.3-5.4-2.2-7.4c-1-1.1-2.3-1.9-3.6-2.5
		v-8.3c0.9-0.2,1.9-0.4,3.3-0.4c1.3,0,2.5-0.9,2.7-2.2c0-0.3,0.7-5-3-9.2c3.7-1.6,6.3-5.1,6.3-9.2v-2.4c0-5-4-9.2-9.1-9.9v-7
		c1.9-0.5,3.6-1.5,4.9-3c2-2.2,2.8-5.1,2.2-8c-3.9-19.6-22.2-33.8-43.4-33.8h-32.6c-20.6,0-38.3,13.1-43,32l-0.4,1.4
		c-0.7,2.9,0,5.9,1.9,8.2c1.2,1.5,2.9,2.5,4.7,3.1v7.1c-5.1,0.7-9.1,4.9-9.1,9.9v2.4c0,4.2,2.7,7.8,6.6,9.3
		c-3.3,4.2-3.3,8.5-3.3,8.7c0,1.4,1.2,2.5,2.7,2.5c1.2,0,2.1,0.1,2.9,0.3v8.5c-1.3,0.6-2.4,1.4-3.3,2.4c-1.9,2.1-2.7,4.8-2.2,7.4
		l1,5.4c0.5,2.6,1.6,4.8,3.3,6.7c1.3,1.6,2.1,2.5,2.4,2.8c0.5,0.5,2.3,2.3,4.6,2.3c40.9,0,71.9,0,92.9,0c1.9,0,3.8-0.8,5.7-2.3
		L-3258.8,659.9z M-3306.4,637.2c-6.3,0-12.3,2.3-16.8,6.5l-5.1,4.8l-5.1-4.8c-4.5-4.2-10.4-6.5-16.8-6.5h-10.5v-5.5
		c1.4,0.5,3.2,0.9,5.7,0.9c4.2,0,6.3-1.1,8.2-2c1.6-0.8,2.9-1.4,5.8-1.4c2.8,0,4.1,0.6,5.7,1.4c1.9,0.9,4.1,2,8.2,2
		c4.2,0,6.3-1.1,8.2-2c1.6-0.8,2.9-1.4,5.8-1.4s4.1,0.6,5.8,1.4c1.9,0.9,4.1,2,8.2,2c4.2,0,6.3-1.1,8.2-2c1.6-0.8,2.9-1.4,5.7-1.4
		s4.1,0.6,5.7,1.4c1.9,0.9,4.1,2,8.2,2c2.3,0,3.9-0.3,5.3-0.8v5.4H-3306.4z M-3364.3,601.3c0.2,0,0.5-0.1,0.7-0.1
		c0.1,0,0.3,0.1,0.4,0.1h43.8c4.6,0,8.8,1.7,12.1,4.7l7.4,7c0.5,0.5,1.2,0.7,1.9,0.7h-66.3c-2.9,0-5.3-2.2-5.3-5v-2.4
		C-3369.6,603.6-3367.2,601.3-3364.3,601.3z M-3276.6,596.2c-6,0-11.6,2.2-15.9,6.2l-5.5,5.2l-5.5-5.2c-4.2-4-9.9-6.2-15.9-6.2
		h-41.1v-6.3h94.9v6.3H-3276.6z M-3259.5,583.1c-0.9,1.1-2.3,1.7-3.7,1.7h-99.3c-1.5,0-2.9-0.6-3.8-1.7c-0.9-1.1-1.3-2.5-0.9-3.9
		l0.4-1.4c4.2-16.5,19.7-28.1,37.7-28.1h32.6c18.6,0,34.6,12.5,38.1,29.7C-3258.2,580.7-3258.6,582.1-3259.5,583.1z M-3261.8,613.7
		h-36.1c0.7,0,1.4-0.3,1.9-0.7l7.4-7c3.2-3,7.5-4.7,12.1-4.7h13.2c0.1,0,0.2,0.1,0.3,0.1h1.3c2.9,0,5.3,2.2,5.3,5v2.4
		C-3256.5,611.4-3258.9,613.7-3261.8,613.7z M-3260,624.3c-2.4,0.3-4,1.1-5.4,1.8c-1.6,0.8-2.9,1.4-5.7,1.4s-4.1-0.6-5.7-1.4
		c-1.9-0.9-4.1-2-8.2-2c-4.2,0-6.3,1.1-8.2,2c-1.6,0.8-2.9,1.4-5.7,1.4s-4.1-0.6-5.7-1.4c-1.9-0.9-4.1-2-8.2-2c-4.2,0-6.3,1.1-8.2,2
		c-1.6,0.8-2.9,1.4-5.8,1.4s-4.1-0.6-5.7-1.4c-1.9-0.9-4.1-2-8.2-2c-4.2,0-6.3,1.1-8.2,2c-1.6,0.8-2.9,1.4-5.8,1.4s-4.1-0.6-5.8-1.4
		c-1.4-0.7-2.8-1.4-5.1-1.7c0.5-1.6,1.6-3.7,4.1-5.6h97.1c0.1,0.1,0.1,0.1,0.2,0.2C-3261.4,620.5-3260.3,622.7-3260,624.3z
		 M-3270.3,659.9h-85.5c-4.7,0-8.7-3.2-9.5-7.5l-1-5.4c-0.2-1.2,0.1-2.4,1-3.3c0.6-0.7,1.5-1.2,2.5-1.4h12.6c4.9,0,9.5,1.8,12.9,5
		l7,6.6c0.5,0.5,1.2,0.7,1.9,0.7s1.4-0.3,1.9-0.7l7-6.6c3.5-3.2,8.1-5,12.9-5h43.1c1,0.2,1.8,0.6,2.5,1.4c0.8,0.9,1.2,2.1,1,3.3
		l-1,5.4C-3261.6,656.8-3265.6,659.9-3270.3,659.9z"/>
</g>
<g id="noun_Burger_1530809_5_" transform="translate(208.797989, 64.500000) scale(-1, 1) translate(-208.797989, -64.500000) translate(146.297989, 0.000000)">
	<path id="Shape_6_" class="st1" d="M-3258.8,667.4c1.6-1.9,2.8-4.2,3.3-6.7l1-5.4c0.5-2.7-0.3-5.4-2.2-7.4c-1-1.1-2.3-1.9-3.6-2.5
		v-8.3c0.9-0.2,1.9-0.4,3.3-0.4c1.3,0,2.5-0.9,2.7-2.2c0-0.3,0.7-5-3-9.2c3.7-1.6,6.3-5.1,6.3-9.2v-2.4c0-5-4-9.2-9.1-9.9v-7
		c1.9-0.5,3.6-1.5,4.9-3c2-2.2,2.8-5.1,2.2-8c-3.9-19.6-22.2-33.8-43.4-33.8h-32.6c-20.6,0-38.3,13.1-43,32l-0.4,1.4
		c-0.7,2.9,0,5.9,1.9,8.2c1.2,1.5,2.9,2.5,4.7,3.1v7.1c-5.1,0.7-9.1,4.9-9.1,9.9v2.4c0,4.2,2.7,7.8,6.6,9.3
		c-3.3,4.2-3.3,8.5-3.3,8.7c0,1.4,1.2,2.5,2.7,2.5c1.2,0,2.1,0.1,2.9,0.3v8.5c-1.3,0.6-2.4,1.4-3.3,2.4c-1.9,2.1-2.7,4.8-2.2,7.4
		l1,5.4c0.5,2.6,1.6,4.8,3.3,6.7c1.3,1.6,2.1,2.5,2.4,2.8c0.5,0.5,2.3,2.3,4.6,2.3c40.9,0,71.9,0,92.9,0c1.9,0,3.8-0.8,5.7-2.3
		L-3258.8,667.4z M-3306.4,644.7c-6.3,0-12.3,2.3-16.8,6.5l-5.1,4.8l-5.1-4.8c-4.5-4.2-10.4-6.5-16.8-6.5h-10.5v-5.5
		c1.4,0.5,3.2,0.9,5.7,0.9c4.2,0,6.3-1.1,8.2-2c1.6-0.8,2.9-1.4,5.8-1.4c2.8,0,4.1,0.6,5.7,1.4c1.9,0.9,4.1,2,8.2,2
		c4.2,0,6.3-1.1,8.2-2c1.6-0.8,2.9-1.4,5.8-1.4s4.1,0.6,5.8,1.4c1.9,0.9,4.1,2,8.2,2c4.2,0,6.3-1.1,8.2-2c1.6-0.8,2.9-1.4,5.7-1.4
		s4.1,0.6,5.7,1.4c1.9,0.9,4.1,2,8.2,2c2.3,0,3.9-0.3,5.3-0.8v5.4H-3306.4z M-3364.3,608.8c0.2,0,0.5-0.1,0.7-0.1
		c0.1,0,0.3,0.1,0.4,0.1h43.8c4.6,0,8.8,1.7,12.1,4.7l7.4,7c0.5,0.5,1.2,0.7,1.9,0.7h-66.3c-2.9,0-5.3-2.2-5.3-5v-2.4
		C-3369.6,611-3367.2,608.8-3364.3,608.8z M-3276.6,603.7c-6,0-11.6,2.2-15.9,6.2l-5.5,5.2l-5.5-5.2c-4.2-4-9.9-6.2-15.9-6.2h-41.1
		v-6.3h94.9v6.3H-3276.6z M-3259.5,590.6c-0.9,1.1-2.3,1.7-3.7,1.7h-99.3c-1.5,0-2.9-0.6-3.8-1.7c-0.9-1.1-1.3-2.5-0.9-3.9l0.4-1.4
		c4.2-16.5,19.7-28.1,37.7-28.1h32.6c18.6,0,34.6,12.5,38.1,29.7C-3258.2,588.2-3258.6,589.6-3259.5,590.6z M-3261.8,621.1h-36.1
		c0.7,0,1.4-0.3,1.9-0.7l7.4-7c3.2-3,7.5-4.7,12.1-4.7h13.2c0.1,0,0.2,0.1,0.3,0.1h1.3c2.9,0,5.3,2.2,5.3,5v2.4
		C-3256.5,618.9-3258.9,621.1-3261.8,621.1z M-3260,631.8c-2.4,0.3-4,1.1-5.4,1.8c-1.6,0.8-2.9,1.4-5.7,1.4s-4.1-0.6-5.7-1.4
		c-1.9-0.9-4.1-2-8.2-2c-4.2,0-6.3,1.1-8.2,2c-1.6,0.8-2.9,1.4-5.7,1.4s-4.1-0.6-5.7-1.4c-1.9-0.9-4.1-2-8.2-2c-4.2,0-6.3,1.1-8.2,2
		c-1.6,0.8-2.9,1.4-5.8,1.4s-4.1-0.6-5.7-1.4c-1.9-0.9-4.1-2-8.2-2c-4.2,0-6.3,1.1-8.2,2c-1.6,0.8-2.9,1.4-5.8,1.4s-4.1-0.6-5.8-1.4
		c-1.4-0.7-2.8-1.4-5.1-1.7c0.5-1.6,1.6-3.7,4.1-5.6h97.1c0.1,0.1,0.1,0.1,0.2,0.2C-3261.4,628-3260.3,630.2-3260,631.8z
		 M-3270.3,667.4h-85.5c-4.7,0-8.7-3.2-9.5-7.5l-1-5.4c-0.2-1.2,0.1-2.4,1-3.3c0.6-0.7,1.5-1.2,2.5-1.4h12.6c4.9,0,9.5,1.8,12.9,5
		l7,6.6c0.5,0.5,1.2,0.7,1.9,0.7s1.4-0.3,1.9-0.7l7-6.6c3.5-3.2,8.1-5,12.9-5h43.1c1,0.2,1.8,0.6,2.5,1.4c0.8,0.9,1.2,2.1,1,3.3
		l-1,5.4C-3261.6,664.2-3265.6,667.4-3270.3,667.4z"/>
</g>
<rect id="Rectangle" x="3359.9" y="906.6" class="st2" width="448.7" height="36.5"/>
<g id="noun_House_2562746" transform="translate(3483.000000, 1571.000000)">
	<path id="Shape_7_" class="st3" d="M16.4,411.5h66.2h60h66.2c3.8,0,6.8-3.1,6.8-6.8v-190h41.8c2.8,0,5.4-1.7,6.4-4.4
		c1-2.6,0.3-5.6-1.8-7.5L117.2,71.5c-2.6-2.3-6.6-2.4-9.2,0L-36.8,202.7c-2.1,1.9-2.8,4.9-1.8,7.5c1,2.6,3.6,4.4,6.4,4.4H9.6v190
		C9.6,408.4,12.6,411.5,16.4,411.5z M89.5,397.8v-84.8h46.3v84.8H89.5z M-14.5,201L112.6,85.8L239.7,201h-30.9
		c-3.8,0-6.8,3.1-6.8,6.8v190h-52.5v-91.6c0-3.8-3.1-6.8-6.8-6.8h-60c-3.8,0-6.8,3.1-6.8,6.8v91.6H23.3v-190c0-3.8-3.1-6.8-6.8-6.8
		H-14.5z"/>
</g>
<g id="noun_Trash_1734102" transform="translate(155.000000, 1090.000000)">
	<rect id="Rectangle_1_" x="-22.9" y="-20.9" class="st4" width="357.8" height="357.8"/>
	<g id="Clipped">
		<defs>
			<filter id="Adobe_OpacityMaskFilter" filterUnits="userSpaceOnUse" x="20" y="10.3" width="271.9" height="295.5">
				<feColorMatrix  type="matrix" values="1 0 0 0 0  0 1 0 0 0  0 0 1 0 0  0 0 0 1 0"/>
			</filter>
		</defs>
		<mask maskUnits="userSpaceOnUse" x="20" y="10.3" width="271.9" height="295.5" id="mask-2_1_">
			<g class="st5">
				<rect id="path-1_1_" x="-22.9" y="-20.9" class="st2" width="357.8" height="357.8"/>
			</g>
		</mask>
		<path id="Shape_8_" class="st6" d="M114.6,40.2c-0.2-6.3-0.2-12.6,2.5-17.8c3.5-6.6,10.7-11.1,18.2-11.2c13.8,0,27.6,0,41.4,0
			c10.6,0.1,20.5,9.4,20.5,20.7v8.3c25.9,0.1,51.8,0.2,77.7,0.3c8.3,0.2,15.8,7.3,16,16c0.1,9,0,18,0,26.9c-0.1,8.3-7.1,16-16,16.2
			c-2.5,0-5,0-7.5,0c0,60.5,0.2,120.9,0,181.4c-0.1,12.2-10.7,23.4-23.5,23.5c-58.7,0.2-117.3,0.2-176,0
			c-12.3-0.1-23.5-10.7-23.5-23.7V99.6c-2.4,0-4.8,0-7.3,0c-8.4-0.1-16-7.2-16.2-16c-0.1-9,0-18,0-26.9c0.1-8.4,7.2-16,16-16.2
			C62.9,40.4,88.7,40.3,114.6,40.2z M56.7,99.6c0,60.5-0.6,121,0,181.4c0.1,5.9,5.2,11.3,11.4,11.3c58.6,0.2,117.3,0.5,175.9,0
			c5.9-0.1,11.3-5.2,11.3-11.4V99.7C189.1,100,122.9,99.7,56.7,99.6z M156.5,131.4c3,0.4,5.4,3,5.6,6.1v117.1
			c-0.1,1.7-0.3,2.2-0.8,3.1c-1.8,3.2-6.9,4-9.6,1.3c-0.9-0.9-1.5-2-1.7-3.3c-0.1-0.5-0.1-0.6-0.1-1.1V137.4
			C150,134,153,131.2,156.5,131.4z M209.2,131.4c3.1,0.4,5.4,3,5.6,6.1v117.1c0,0.5,0,0.6-0.1,1.1c-0.8,4.7-8.5,6.9-11.3,2
			c-0.5-0.8-0.7-1.3-0.8-3.1V137.4C202.8,134,205.7,131.2,209.2,131.4z M103.8,131.4c3,0.4,5.4,3,5.6,6.1v117.1c0,0.5,0,0.6-0.1,1.1
			c-0.8,4.8-8.6,6.7-11.3,2c-0.5-0.8-0.7-1.3-0.8-3.1V137.4C97.3,134,100.3,131.2,103.8,131.4z M262.8,87.6c4-0.1,8.1-0.1,12.1-0.2
			c2-0.1,3.8-1.8,3.9-3.9c0.1-9,0.2-17.9,0-26.9c-0.1-2-1.9-3.8-3.9-3.9c-27.4-0.2-54.7-0.2-82.1-0.2c-0.3,0.1-0.5,0.1-0.8,0.2
			c-0.4,0-0.4,0-0.8,0.1h-70.3c-0.6,0-1-0.1-1.3-0.1c-27.4,0.1-54.9,0.1-82.3,0.1c-2.1,0-4,1.8-4,3.9c-0.1,9-0.2,17.9,0,26.9
			c0.1,2,1.8,3.8,3.9,3.9c4.1,0.1,8.2,0.2,12.3,0.2c0.4-0.1,0.7-0.2,1.1-0.2h210.8L262.8,87.6L262.8,87.6z M185,40.2
			c0-5.3,0.8-11-2.5-14.2c-1.6-1.6-3.7-2.5-5.9-2.5c-13.7,0-27.4,0-41.2,0c-4.4,0-8.4,3.9-8.5,8.4l0,8.3
			C146.3,40.2,165.7,40.2,185,40.2L185,40.2z"/>
	</g>
</g>
<g id="noun_dairy-product_3093061" transform="translate(127.000000, 2086.000000)">
	<path id="Shape_9_" class="st7" d="M350,254.3c0-0.4-0.1-0.7-0.1-1.1v-39.6c0-0.3,0-0.6-0.1-0.8c0-0.1,0-0.1,0-0.2
		c-0.1-0.3-0.1-0.5-0.2-0.8c0,0,0,0,0-0.1c-0.1-0.2-0.1-0.3-0.2-0.5l-30.7-53v-9.7c0-6.9-5.6-12.6-12.6-12.6h-97.7
		c-6.9,0-12.6,5.6-12.6,12.6v9.7l-30.7,53c-0.1,0.1-0.1,0.3-0.2,0.4c0,0,0,0.1,0,0.1c-0.1,0.2-0.2,0.5-0.2,0.7c0,0.1,0,0.1,0,0.2
		c0,0.3-0.1,0.5-0.1,0.8v0v40.7v71.3h-18.8v-39.2c0-10.5-4-20.3-11.3-27.9c-5.6-5.8-8.1-10.4-8.6-16.3h0c2.5,0,4.6-2.1,4.6-4.6
		v-17.5c0-6.1-5-11.1-11.1-11.1H86.7c-6.1,0-11.1,5-11.1,11.1v17.5c0,2.5,2.1,4.6,4.6,4.6h0.4c-0.5,5.9-3,10.5-8.6,16.3
		c-7.3,7.5-11.3,17.4-11.3,27.9v39.2H43.2c-18.1,0-32.8,14.7-32.8,32.8v47.8h-0.3c-9.4,0-17,7.6-17,17v7.6c0,2.5,2.1,4.6,4.6,4.6
		h231.6v0.1h116c2.5,0,4.6-2.1,4.6-4.6V391c0.1-0.3,0.1-0.7,0.1-1.1V254.3L350,254.3z M173.6,218.2h104.5v31.5H173.6V218.2z
		 M314,168.7l23.3,40.3h-46.7L314,168.7z M287.3,258.8h53.4v126.5h-53.4V258.8z M287.3,249.7v-31.5h53.4v31.5H287.3z M204.9,148.6
		c0-1.9,1.5-3.4,3.4-3.4H306c1.9,0,3.4,1.5,3.4,3.4v6.4H204.9V148.6z M202.9,164.1H306L280,209H176.9L202.9,164.1z M173.6,258.8
		h104.5v126.5h-58.9v-26.1c2.2,0.4,4.4,0.6,6.6,0.6c20.8,0,37.8-16.9,37.8-37.8s-16.9-37.8-37.8-37.8s-37.8,16.9-37.8,37.8
		c0,1.2,0.1,2.3,0.2,3.5c-0.6,0-1.2,0-1.8,0h-12.9V258.8L173.6,258.8z M186.5,334.7c13,0,23.6,10.6,23.6,23.6v47.8h-58.8v-47.8
		c0-9.3-3.9-17.6-10.1-23.6H186.5z M197.2,322.1c0-15.8,12.8-28.6,28.6-28.6s28.6,12.8,28.6,28.6s-12.8,28.6-28.6,28.6
		c-2.7,0-5.3-0.4-7.8-1.1c-2.8-10.2-10.4-18.4-20.3-22C197.4,325.8,197.2,323.9,197.2,322.1z M84.8,220.1c0-1,0.9-1.9,1.9-1.9h32.6
		c1,0,1.9,0.9,1.9,1.9v12.9H84.8V220.1z M78.6,264.9c5.4-5.6,10.5-12.3,11.2-22.6h26.7c0.7,10.4,5.7,17,11.2,22.6
		c5.6,5.8,8.7,13.4,8.7,21.5v39.2h-17.9H70v-39.2C70,278.3,73,270.7,78.6,264.9z M19.6,358.3c0-13,10.6-23.6,23.6-23.6h20.2h55.1
		c13,0,23.6,10.6,23.6,23.6v47.8H19.6V358.3z M224.7,426.1H2.3v-3c0-4.3,3.5-7.8,7.8-7.8h206.8c4.3,0,7.8,3.5,7.8,7.8V426.1
		L224.7,426.1z M219.2,406.3v-11.8h58.9v31.7h-44.3v-3.1C233.8,414.6,227.5,407.5,219.2,406.3z M287.3,426.2v-31.7h53.4v31.7H287.3z
		"/>
</g>
<g id="noun_narrowing_983628" transform="translate(3471.000000, 2627.000000)">
	<g id="Group_1_" transform="translate(0.000000, 0.813912)">
		<path id="Shape_10_" class="st8" d="M131.5,155.6c-8.6,0-17.2,3.3-23.7,9.8h0L-32.7,305.7c-13,13-13,34.4,0,47.5c0,0,0,0,0,0
			l140.4,140.4h0c13,13,34.4,13,47.5,0l140.4-140.4c13-13,13-34.4,0-47.5L155.2,165.3C148.7,158.8,140.1,155.6,131.5,155.6
			L131.5,155.6z M131.5,166.1c5.9,0,11.8,2.2,16.3,6.7l140.4,140.4c9,9,9,23.6,0,32.6L147.7,486.1c-9,9-23.6,9-32.6,0c0,0,0,0,0,0
			L-25.2,345.7h0c-8.9-9-9-23.6,0-32.6l0,0l140.4-140.4c0,0,0,0,0,0C119.7,168.3,125.6,166.1,131.5,166.1L131.5,166.1z"/>
		<path id="Path_40_" class="st8" d="M114.8,234.1c-2.9,0-5.2,2.4-5.2,5.3v55.7l-30.2,32.5c-0.9,1-1.4,2.3-1.4,3.6v88.3
			c0,1.9,1,3.7,2.6,4.6c1.6,1,3.7,1,5.3,0c1.6-1,2.6-2.7,2.6-4.6v-86.2l30.2-32.5c0.9-1,1.4-2.3,1.4-3.6v-57.8
			c0-1.4-0.5-2.8-1.5-3.8C117.6,234.6,116.2,234.1,114.8,234.1L114.8,234.1z"/>
		<path id="Path_41_" class="st8" d="M147.9,234.1c-2.9,0-5.2,2.4-5.2,5.3v57.8c0,1.3,0.5,2.6,1.4,3.6l30.2,32.5v86.2
			c0,1.9,1,3.7,2.6,4.6c1.6,1,3.7,1,5.3,0c1.6-1,2.6-2.7,2.6-4.6v-88.3c0-1.3-0.5-2.6-1.4-3.6l-30.2-32.5v-55.7
			c0-1.4-0.5-2.8-1.5-3.8C150.7,234.6,149.3,234.1,147.9,234.1L147.9,234.1z"/>
	</g>
</g>
<g id="noun_Travel_2603395" transform="translate(226.000000, 3146.000000)">
	<g id="Group_2_">
		<path id="Shape_11_" class="st3" d="M225.9,291.5c-20.8,0-37.5,16.7-37.5,37.5c0,23.3,22.5,56.7,32.5,70.8c2.5,3.3,7.5,3.3,10,0
			c10.4-14.2,32.5-47.5,32.5-70.8C263.4,308.2,246.7,291.5,225.9,291.5z M225.9,347.3c-10,0-18.3-8.3-18.3-18.3s8.3-18.3,18.3-18.3
			s18.3,8.3,18.3,18.3S235.9,347.3,225.9,347.3z"/>
		<path id="Shape_12_" class="st3" d="M-17.9,475.3c-20.8,0-37.5,16.7-37.5,37.5c0,23.3,22.5,56.7,32.5,70.8c2.5,3.3,7.5,3.3,10,0
			c10.4-14.2,32.5-47.5,32.5-70.8C19.6,491.9,3,475.3-17.9,475.3z M-17.9,531.1c-10,0-18.3-8.3-18.3-18.3c0-10,8.3-18.3,18.3-18.3
			s18.3,8.3,18.3,18.3C0.5,522.8-7.9,531.1-17.9,531.1z"/>
		<path id="Path_42_" class="st3" d="M25,572.3H15c-3.8,0-7.1,3.3-7.1,7.1s3.3,7.1,7.1,7.1h10c3.8,0,7.1-3.3,7.1-7.1
			S28.8,572.3,25,572.3z"/>
		<path id="Path_43_" class="st3" d="M36.3,440.3c3.3,0,6.2-2.1,6.7-5.4c0.4-2.9,1.7-5.4,2.9-7.9c1.7-3.3,0-7.9-3.3-9.2
			c-3.3-1.7-7.5,0-9.2,3.3c-1.7,3.3-2.9,7.1-3.8,10.8s1.7,7.5,5.4,8.3C35,440.3,35.9,440.3,36.3,440.3z"/>
		<path id="Path_44_" class="st3" d="M189.6,390.3h-10c-3.8,0-7.1,3.3-7.1,7.1s3.3,7.1,7.1,7.1h10c3.8,0,7.1-3.3,7.1-7.1
			S193.8,390.3,189.6,390.3z"/>
		<path id="Path_45_" class="st3" d="M60,409.4c1.2,0,2.1-0.4,3.3-0.8c2.5-1.2,5-2.5,7.9-2.9c3.8-0.8,5.8-5,5-8.8
			c-0.8-3.8-5-6.2-8.8-5c-3.8,0.8-7.5,2.5-10.8,4.2c-3.3,1.7-5,5.8-2.9,9.6C55,407.8,57.5,409.4,60,409.4z"/>
		<path id="Path_46_" class="st3" d="M139.6,404.4h10c3.8,0,7.1-3.3,7.1-7.1s-3.3-7.1-7.1-7.1h-10c-3.8,0-7.1,3.3-7.1,7.1
			S135.9,404.4,139.6,404.4z"/>
		<path id="Path_47_" class="st3" d="M99.2,404.4h10c3.8,0,7.1-3.3,7.1-7.1s-3.3-7.1-7.1-7.1h-10c-3.8,0-7.1,3.3-7.1,7.1
			S95.5,404.4,99.2,404.4z"/>
		<path id="Path_48_" class="st3" d="M105.5,572.3h-10c-3.8,0-7.1,3.3-7.1,7.1s3.3,7.1,7.1,7.1h10c3.8,0,7.1-3.3,7.1-7.1
			S109.2,572.3,105.5,572.3z"/>
		<path id="Path_49_" class="st3" d="M144.2,571.5c-2.5,0.4-5,0.8-7.5,0.8h-1.2c-3.8,0-7.1,3.3-7.1,7.1s3.3,7.1,7.1,7.1h1.2
			c3.3,0,6.7-0.4,10-0.8c3.8-0.8,6.2-4.6,5.4-8.3C151.7,573.2,148,570.7,144.2,571.5z"/>
		<path id="Path_50_" class="st3" d="M162.5,488.2c-3.3-2.1-7.1-3.3-10.8-4.6s-7.5,0.8-8.8,4.6s0.8,7.5,4.6,8.8
			c2.5,0.8,5.4,2.1,7.9,3.3c1.2,0.4,2.5,0.8,3.3,0.8c2.5,0,5-1.2,6.2-3.8C167.1,494.4,165.9,489.8,162.5,488.2z"/>
		<path id="Path_51_" class="st3" d="M180,549c-3.3-1.7-7.5-0.4-9.6,2.9c-1.2,2.5-2.9,5-5,7.1c-2.5,2.9-2.1,7.5,0.8,10
			c1.2,1.2,2.9,1.7,4.6,1.7c2.1,0,3.8-0.8,5.4-2.5c2.5-2.9,4.6-6.2,6.7-9.6C185,555.3,183.8,550.7,180,549z"/>
		<path id="Path_52_" class="st3" d="M120,481.1h-10c-3.8,0-7.1,3.3-7.1,7.1s3.3,7.1,7.1,7.1h10c3.8,0,7.1-3.3,7.1-7.1
			S123.8,481.1,120,481.1z"/>
		<path id="Path_53_" class="st3" d="M175.9,509.8c-3.8,1.7-5.4,5.4-3.8,9.2c1.2,2.5,2.1,5.4,2.5,7.9c0.4,3.3,3.8,5.8,7.1,5.8
			c0.4,0,0.8,0,1.2,0c3.8-0.8,6.2-4.2,5.8-8.3c-0.8-3.8-1.7-7.5-3.3-11.2C183.8,510.3,179.6,508.6,175.9,509.8z"/>
		<path id="Path_54_" class="st3" d="M65.5,572.3h-10c-3.8,0-7.1,3.3-7.1,7.1s3.3,7.1,7.1,7.1h10c3.8,0,7.1-3.3,7.1-7.1
			S69.2,572.3,65.5,572.3z"/>
		<path id="Path_55_" class="st3" d="M80,481.1c-2.9,0-5.8-0.4-8.3-1.2c-3.8-0.8-7.5,1.2-8.3,5s1.2,7.5,5,8.3s7.5,1.2,11.7,1.7l0,0
			c3.8,0,7.1-2.9,7.1-7.1C86.7,484.4,83.8,481.5,80,481.1z"/>
		<path id="Path_56_" class="st3" d="M50.5,466.5c-1.7-2.1-3.3-4.6-4.6-7.1c-1.7-3.3-5.8-5-9.6-3.3c-3.3,1.7-5,5.8-3.3,9.6
			c1.7,3.3,3.8,6.7,6.2,10c1.2,1.7,3.3,2.5,5.4,2.5c1.7,0,2.9-0.4,4.2-1.7C52.5,474,53,469.8,50.5,466.5z"/>
	</g>
</g>
<text transform="matrix(1 0 0 1 625.7765 236.5659)"><tspan x="0" y="0" class="st9 st10 st11">Did you know that one kilogram of beef consumes almost 15,500 liters of </tspan><tspan x="0" y="81.6" class="st9 st10 st11">water? That is as much as 250 five-minute showers</tspan><tspan x="0" y="483.2" class="st9 st10 st11">The production of one kilogram of beef produces 60kg of methane. To compare: </tspan><tspan x="0" y="564.8" class="st9 st10 st11">60 kg is the weight of 274 Mc Donald’s Big Macs.</tspan><tspan x="0" y="966.4" class="st9 st10 st11">Did you know that the edible proportion of beef in Germany is only 37% of </tspan><tspan x="0" y="1048" class="st9 st10 st11">100%? This is about the same as if you bake a cake, cut it into 8 equal pieces </tspan><tspan x="0" y="1129.6" class="st9 st10 st11">and throw 5 of them away.</tspan><tspan x="0" y="1531.2" class="st9 st10 st11">Did you know that 1 kg of beef, when produced outside the EU, requires the </tspan><tspan x="0" y="1612.8" class="st9 st10 st11">equivalent of 49 square meters of space? That is as much as a typical 1 room </tspan><tspan x="0" y="1694.4" class="st9 st10 st11">apartment in Germany. Only for 1 kilogram of beef instead of one person.</tspan><tspan x="0" y="2096" class="st9 st10 st11">In addition to meat, one must of course not forget that dairy products such as </tspan><tspan x="0" y="2177.6" class="st9 st10 st11">butter, cheese, curd cheese and milk also come from animals and therefore </tspan><tspan x="0" y="2259.2" class="st9 st10 st11">have a large CO2 impact. They are no less problematic compared meat.</tspan><tspan x="0" y="2660.8" class="st9 st10 st11">90 percent of the fresh meat in Germany comes from livestock farms. A cow </tspan><tspan x="0" y="2742.4" class="st9 st10 st11">with over 220 kilograms has only 1.8 square meters to live. This is only the space </tspan><tspan x="0" y="2824" class="st9 st10 st11">of when you walk two steps forward and one to the side.</tspan><tspan x="0" y="3225.6" class="st9 st10 st11">Did you know that not all regions are climate-friendly? Because feed that is often </tspan><tspan x="0" y="3307.2" class="st9 st10 st11">produced overseas and then transported to various farms around the world. So, it </tspan><tspan x="0" y="3388.8" class="st9 st10 st11">is possible that meat from Argentinean cattle, which live exclusively on pastureland, </tspan><tspan x="0" y="3470.4" class="st9 st10 st11">has a better ecological balance sheet than regional beef from cattle that are only in </tspan><tspan x="0" y="3552" class="st9 st10 st11">the barn and that are fattened with concentrated feed from overseas.</tspan></text>
<rect x="2129.1" y="304.8" class="st4" width="4.4" height="0"/>
</svg>
