<?xml version="1.0" encoding="utf-8"?>
<!-- Generator: Adobe Illustrator 23.1.1, SVG Export Plug-In . SVG Version: 6.00 Build 0)  -->
<svg version="1.1" id="Ebene_1" xmlns="http://www.w3.org/2000/svg" xmlns:xlink="http://www.w3.org/1999/xlink" x="0px" y="0px"
	 viewBox="0 0 1366 768" style="enable-background:new 0 0 1366 768;" xml:space="preserve">
<style type="text/css">
	.st0{fill:#5C6A7D;}
	.st1{fill:#36485E;}
	.st2{fill-rule:evenodd;clip-rule:evenodd;fill:#253854;}
	.st3{fill-rule:evenodd;clip-rule:evenodd;fill:#1C2A40;}
	.st4{opacity:0.1;fill:#5C6A7D;}
	.st5{stroke:#FFFFFF;stroke-width:1.1226;stroke-miterlimit:10;}
	.st6{stroke:#FFFFFF;stroke-width:2;}
	.st7{fill:none;stroke:#000000;stroke-width:2.2451;}
	.st8{stroke:#FFFFFF;stroke-width:2.2451;}
	.st9{stroke:#FFFFFF;stroke-width:0.3996;}
	.st10{stroke:#000000;stroke-width:2;stroke-miterlimit:10;}
	.st11{fill:none;stroke:#000000;stroke-width:1.5576;stroke-miterlimit:10;}
	.st12{fill:none;stroke:#000000;stroke-width:2.4921;stroke-miterlimit:10;}
	.st13{fill:#FFFFFF;}
	.st14{fill:none;stroke:#000000;stroke-width:2;stroke-miterlimit:10;}
	.st15{stroke:#FFFFFF;stroke-width:0.8419;stroke-miterlimit:10;}
	.st16{stroke:#FFFFFF;stroke-width:0.9022;stroke-miterlimit:10;}
	.st17{fill:none;stroke:#1C2A40;stroke-width:2.2451;stroke-miterlimit:10;}
</style>
<g>
	<path class="st5" d="M1048,509.4l-1.4-0.4c-2.7-0.7-5.5-1.2-8.5-1.4c-3-0.2-5.9-0.2-8.6,0.2l-1.5,0.2l-0.6-1.4
		c-1.9-4.5-2.6-10.2-2.2-16c1-13.1,7.5-23.1,15.2-23.1c0.2,0,0.4,0,0.6,0c7.9,0.6,13.3,11.6,12.3,25.1c-0.4,5.8-2,11.3-4.5,15.5
		L1048,509.4z M1034.5,503.6c1.3,0,2.6,0,3.9,0.1c2.7,0.2,5.3,0.6,7.7,1.1c1.8-3.5,2.9-7.9,3.3-12.5c0.8-10.9-3.2-20.4-8.6-20.8
		c-0.1,0-0.2,0-0.4,0c-4.7,0-10.4,7.8-11.2,19.4c-0.3,4.6,0.2,9.1,1.4,12.9C1031.8,503.6,1033.1,503.6,1034.5,503.6z"/>
</g>
<g>
	<path class="st5" d="M1038.9,535.6c-5.8,0-10.5-7.4-10.8-16.8c0-0.9,0-1.8,0-2.7l0.1-1.8l20.4-0.7l0.2,1.8c0.1,0.9,0.2,1.8,0.2,2.7
		c0.3,9.6-4,17.3-9.9,17.5L1038.9,535.6z M1032,518.2c0,0.2,0,0.3,0,0.5c0.3,7.7,3.8,13,6.9,13l0.1,0c3.1-0.1,6.3-5.6,6.1-13.4
		c0-0.2,0-0.3,0-0.5L1032,518.2z"/>
</g>
<g>
	<path class="st5" d="M1063.1,463.4l-0.8-1.3c-2.5-4.2-4.1-9.7-4.5-15.5c-1-13.5,4.4-24.5,12.3-25.1c0.2,0,0.4,0,0.6,0
		c7.7,0,14.2,9.9,15.2,23.1c0.4,5.8-0.4,11.5-2.2,16l-0.6,1.4l-1.5-0.2c-2.7-0.3-5.7-0.4-8.6-0.2c-3,0.2-5.8,0.7-8.5,1.4
		L1063.1,463.4z M1070.7,425.5c-0.1,0-0.2,0-0.3,0c-5.5,0.4-9.4,9.9-8.6,20.8c0.3,4.6,1.5,9,3.3,12.5c2.5-0.6,5-1,7.7-1.1
		c2.6-0.2,5.3-0.2,7.8,0c1.3-3.7,1.8-8.2,1.4-12.9C1081.1,433.2,1075.4,425.5,1070.7,425.5z"/>
</g>
<g>
	<path class="st5" d="M1072.2,489.6l-0.2,0c-5.9-0.2-10.2-7.9-9.9-17.5c0-0.9,0.1-1.8,0.2-2.7l0.2-1.8l20.4,0.7l0.1,1.8
		c0.1,0.9,0.1,1.8,0,2.7C1082.7,482.2,1077.9,489.6,1072.2,489.6z M1066,471.7c0,0.2,0,0.3,0,0.5c-0.3,7.8,3,13.3,6.1,13.4l0.1,0
		c3,0,6.6-5.3,6.9-13c0-0.2,0-0.3,0-0.5L1066,471.7z"/>
</g>
<g>
	<path class="st6" d="M719.5,418.3h-16.4c-0.7-0.8-1.3-1.6-2.1-2.4c-3.4-3.4-7.5-5.7-11.6-6.6c-0.4-0.1-0.7-0.1-1.1-0.2
		c-0.4-0.8-0.9-1.5-1.6-2.2c-4.5-4.5-13-3.1-19.3,3.2c-2.6,2.6-4.4,5.7-5.3,8.6c-3,0.9-6,2.6-8.6,5.3c-0.3,0.3-0.6,0.6-0.9,0.9
		c-2.2-1.4-4.7-2.1-7.3-2.1c-3.6,0-7,1.4-9.5,4l-44.7,44.7l33.4,33.4l44.7-44.7c2.5-2.5,4-6,4-9.5s-1.4-7-4-9.5l-0.3-0.3
		c0.2-0.2,0.5-0.4,0.7-0.7c2.6-2.6,4.4-5.7,5.3-8.6c1.3-0.4,2.5-0.9,3.8-1.6c1,1.6,2.2,3.1,3.6,4.6c0.8,0.8,1.6,1.5,2.4,2.1v5.9
		c0,7.2,4.8,13.6,11.8,15.6l4.5,1.3v50.5l9.3,6.2l9.3-6.2v-4.5l-3.7-3.7l4.6-4.6l-4.6-4.6l3.7-3.7v-29.3l4.5-1.3
		c6.9-2,11.8-8.4,11.8-15.6v-8C735.7,425.5,728.5,418.3,719.5,418.3z M680.6,422.7c-0.1-0.2-0.2-0.5-0.2-0.7
		c-0.6-2.9-0.1-5.3,1.4-6.7c0.8-0.8,1.8-1.3,3-1.5C684.8,416.5,683.3,419.9,680.6,422.7z M597.7,471.5l3.7-3.7l26.8,26.8l-3.7,3.7
		L597.7,471.5z M666,457l-34.5,34.5l-26.8-26.8l34.5-34.5c2.8-2.8,7.4-3.2,10.8-1.3c-3,5.4-3.1,11.1,0.4,14.6l3.3-3.3
		c-1.7-1.7-1.6-4.9-0.1-8.2l12.4,12.4c1.6,1.7,2.6,3.9,2.6,6.3S667.6,455.3,666,457z M666.4,436.9c-0.2,0.2-0.5,0.4-0.7,0.6
		l-9.5-9.5c0.2-0.2,0.4-0.5,0.6-0.7c1.5-1.5,3.2-2.6,4.9-3.4c0.2,2.1,1.1,4.1,2.6,5.6c1.5,1.5,3.4,2.3,5.6,2.5
		C669,433.7,667.9,435.4,666.4,436.9z M666.3,422.9c1.3,0,2.5,0.4,3.3,1.2c0.8,0.8,1.2,2,1.2,3.3c-1.3,0-2.5-0.4-3.3-1.2
		S666.3,424.3,666.3,422.9z M675.4,426.4c-0.2-2.1-1.1-4.1-2.6-5.6c-1.5-1.5-3.4-2.3-5.6-2.6c0.8-1.7,1.9-3.3,3.4-4.9
		c3.9-3.9,8.9-5.4,11.8-3.9c-1.5,0.5-2.9,1.3-4,2.4c-2.6,2.6-3.6,6.5-2.7,10.9c0.2,1,0.5,1.9,0.8,2.9
		C676.3,426.1,675.9,426.3,675.4,426.4z M683.6,426.3c3.7-3.7,5.7-8.2,5.8-12.2c2.6,0.7,5.4,2.3,7.9,4.6c-6,1.4-10.7,6.1-12.1,12.1
		c-1-1.1-1.9-2.3-2.7-3.5C682.9,427,683.2,426.7,683.6,426.3z M731.1,442.5c0,5.1-3.5,9.7-8.4,11.1l-7.8,2.2v30.9l-5.6,5.6l4.6,4.6
		l-4.6,4.6l5.6,5.6l-4.6,3.2l-4.6-3.1v-51.5l-7.8-2.2c-4.9-1.4-8.4-6-8.4-11.1v-2.9c1.5,0.7,3.1,1.2,4.6,1.5v2.6
		c0,3.8,3.1,6.9,6.9,6.9h18.5c3.8,0,6.9-3.1,6.9-6.9v-9.3c0-3.8-3.1-6.9-6.9-6.9H701c-3.8,0-6.9,3.1-6.9,6.9v1.9
		c-1.5-0.4-3.1-1.1-4.6-2.1c0.1-6.3,5.2-11.4,11.6-11.4h18.5c6.4,0,11.6,5.2,11.6,11.6V442.5z M698.7,441.3c2.4-0.3,4.6-1.2,6.3-2.9
		l-1.6-1.6l1.6,1.6c1.6-1.6,2.6-3.8,2.9-6.3h11.7c1.3,0,2.3,1,2.3,2.3v9.3c0,1.3-1,2.3-2.3,2.3H701c-1.3,0-2.3-1-2.3-2.3V441.3z
		 M701.6,435.1L701.6,435.1c-0.8,0.8-1.8,1.3-3,1.5v-2.2c0-1.3,1-2.3,2.3-2.3h2.1C702.9,433.2,702.5,434.3,701.6,435.1z"/>
	<path class="st6" d="M612,462.3l21.8,21.8l21.8-21.8l-21.8-21.8L612,462.3z M633.8,477.5l-15.3-15.3l15.3-15.3l15.3,15.3
		L633.8,477.5z"/>
</g>
<g>
	<g>
		<path d="M262.6,423.6c0.8,0.8,1.2,1.9,1.2,3.1c0,2.4-2,4.4-4.4,4.4h-14.2v-1.9h14.2c1.3,0,2.5-1.1,2.5-2.5c0-0.7-0.3-1.2-0.8-1.7
			s-1.1-0.8-1.7-0.8H207c-1.3,0-2.5,1.1-2.5,2.5c0,0.7,0.3,1.1,0.8,1.6c0.5,0.5,1.1,0.8,1.7,0.8h31.3v1.9h-31.4
			c-1.1,0-2.3-0.5-3.1-1.2s-1.2-1.9-1.2-3.1c0-2.4,2-4.4,4.4-4.4h52.4C260.6,422.3,261.7,422.7,262.6,423.6z"/>
	</g>
	<g>
		<path d="M261.7,419.3v5h-56.9v-5c0-2.1,1.7-3.8,3.8-3.8h49.2C259.9,415.5,261.6,417.1,261.7,419.3z M259.8,422.3v-3.1
			c0-1.1-0.9-1.9-1.9-1.9h-49.3c-1.1,0-1.9,0.9-1.9,1.9v3.1H259.8z"/>
	</g>
	<g>
		<path d="M261.6,433.6c0,5.9-3.7,11.1-9.4,12.9c-10.8,3.4-27.2,3.4-38.1,0c-5.6-1.7-9.4-7-9.4-12.9v-4.5h33.7v1.9h-31.7v2.6
			c0,5.1,3.3,9.6,8,11.1c10.5,3.3,26.4,3.3,36.9,0c4.8-1.5,8-5.9,8-11.1v-2.6h-14.5v-1.9h16.4V433.6z"/>
	</g>
	<g>
		<path d="M242.5,426l3.4,3.4c0.4,0.4,0.4,1,0,1.3c-0.4,0.4-1,0.4-1.3,0l-2.8-2.8l-2.8,2.8c-0.4,0.4-1,0.4-1.3,0
			c-0.4-0.4-0.4-1,0-1.3l3.4-3.4c0.2-0.2,0.4-0.3,0.7-0.3S242.3,425.8,242.5,426z"/>
	</g>
	<g>
		<g>
			<path d="M241.9,441.4c0.1,0.1,0.2,0.2,0.2,0.3c0.1,0.1,0.1,0.3,0.1,0.4c0,0.3-0.1,0.5-0.3,0.7c-0.2,0.3-0.6,0.4-0.9,0.3
				c-0.1,0-0.1-0.1-0.2-0.1c-0.1,0-0.1-0.1-0.2-0.1c-0.1,0-0.2-0.1-0.2-0.1c-0.2-0.2-0.3-0.4-0.3-0.7c0-0.1,0.1-0.3,0.1-0.4
				c0-0.1,0.1-0.2,0.2-0.3c0.2-0.2,0.4-0.3,0.7-0.3S241.6,441.2,241.9,441.4z"/>
		</g>
		<g>
			<g>
				<path d="M218.6,439.3c0.1,0,0.2,0.1,0.3,0.2c0,0.1,0,0.2,0.1,0.3c0.1,0.1,0.1,0.3,0.1,0.4c0,0.1,0,0.1,0,0.2c0,0.1,0,0.1,0,0.2
					s-0.1,0.2-0.1,0.2c0,0.1-0.1,0.2-0.1,0.2c-0.4,0.4-1,0.4-1.3,0c0-0.1-0.1-0.1-0.1-0.2c0-0.1-0.1-0.1-0.1-0.2
					c-0.1-0.1-0.1-0.1-0.1-0.2c0-0.1,0-0.1,0-0.2c0-0.1,0.1-0.3,0.1-0.4c0-0.1,0.1-0.2,0.2-0.3s0.2-0.1,0.3-0.2
					c0.1-0.1,0.3-0.1,0.4-0.1S218.5,439.3,218.6,439.3z"/>
			</g>
			<g>
				<path d="M211.7,436.6c0.1,0.1,0.2,0.2,0.2,0.3c0.1,0.1,0.1,0.3,0.1,0.4c0,0.1-0.1,0.3-0.1,0.4s-0.1,0.2-0.2,0.3
					c-0.4,0.4-1,0.4-1.3,0c-0.1-0.1-0.2-0.2-0.2-0.3c-0.1-0.1-0.1-0.3-0.1-0.4c0-0.1,0.1-0.3,0.1-0.4s0.1-0.2,0.2-0.3
					c0.2-0.2,0.4-0.3,0.7-0.3C211.2,436.3,211.5,436.4,211.7,436.6z"/>
			</g>
			<g>
				<path d="M256.2,436.6c0,0.1,0.2,0.2,0.3,0.3s0.1,0.3,0.1,0.4c0,0.1-0.1,0.3-0.1,0.4s-0.1,0.2-0.2,0.3c-0.1,0-0.2,0.1-0.2,0.1
					c-0.1,0.1-0.1,0.1-0.2,0.1c-0.1,0.1-0.1,0.1-0.2,0.1c-0.2,0-0.4,0-0.6-0.1c-0.1,0-0.2-0.1-0.3-0.2c-0.1-0.1-0.2-0.2-0.2-0.3
					c-0.1-0.1-0.1-0.3-0.1-0.4c0-0.1,0.1-0.3,0.1-0.4c0-0.1,0.1-0.2,0.2-0.3c0.1-0.1,0.2-0.1,0.3-0.2c0.1-0.1,0.3-0.1,0.4-0.1
					C255.7,436.3,256,436.4,256.2,436.6z"/>
			</g>
			<g>
				<path d="M222.7,436.6c0,0.1,0.2,0.2,0.3,0.3c0.1,0.1,0.1,0.3,0.1,0.4c0,0.3-0.1,0.5-0.3,0.7c-0.1,0-0.2,0.1-0.2,0.1
					c-0.1,0.1-0.1,0.1-0.2,0.1c-0.1,0.1-0.1,0.1-0.2,0.1c-0.3,0-0.7-0.1-0.9-0.3c-0.1-0.1-0.2-0.2-0.2-0.3c-0.1-0.1-0.1-0.3-0.1-0.4
					c0-0.3,0.1-0.5,0.3-0.7c0.1-0.1,0.2-0.1,0.3-0.2s0.3-0.1,0.4-0.1C222.2,436.3,222.5,436.4,222.7,436.6z"/>
			</g>
			<g>
				<path d="M227,439.8c0.1,0.1,0.1,0.2,0.2,0.3c0.1,0.1,0.1,0.3,0.1,0.4c0,0.2-0.1,0.5-0.3,0.7c-0.4,0.4-1,0.4-1.3,0
					c-0.1-0.1-0.2-0.2-0.2-0.3c-0.1-0.1-0.1-0.3-0.1-0.4c0-0.1,0.1-0.3,0.1-0.4c0-0.1,0.1-0.2,0.2-0.3c0.1-0.1,0.2-0.1,0.3-0.2
					c0.1-0.1,0.3-0.1,0.4-0.1C226.5,439.5,226.8,439.6,227,439.8z"/>
			</g>
			<g>
				<path d="M244.2,437.6c0.2,0.2,0.3,0.4,0.3,0.7c0,0.1-0.1,0.3-0.1,0.4c0,0.1-0.1,0.2-0.2,0.3c-0.4,0.4-1,0.4-1.3,0
					c-0.1-0.1-0.2-0.2-0.2-0.3c-0.1-0.1-0.1-0.3-0.1-0.4c0-0.3,0.1-0.5,0.3-0.7c0.1-0.1,0.2-0.1,0.3-0.2c0.1-0.1,0.3-0.1,0.4-0.1
					C243.7,437.3,244,437.4,244.2,437.6z"/>
			</g>
			<g>
				<path d="M250.4,438.5c0,0.1,0.2,0.2,0.3,0.3c0.1,0.1,0.1,0.3,0.1,0.4c0,0.3-0.1,0.5-0.3,0.7c-0.1,0-0.2,0.1-0.2,0.1
					c-0.1,0.1-0.1,0.1-0.2,0.1c-0.1,0.1-0.1,0.1-0.2,0.1c-0.3,0-0.7-0.1-0.9-0.3c-0.2-0.2-0.3-0.4-0.3-0.7c0-0.1,0.1-0.3,0.1-0.4
					c0-0.1,0.1-0.2,0.2-0.3c0.1-0.1,0.2-0.1,0.3-0.2c0.1-0.1,0.3-0.1,0.4-0.1C250,438.2,250.2,438.3,250.4,438.5z"/>
			</g>
			<g>
				<path d="M238,435.5c0.1,0,0.2,0.1,0.3,0.2c0.1,0.1,0.1,0.2,0.2,0.3c0.1,0.1,0.1,0.3,0.1,0.4c0,0.3-0.1,0.5-0.3,0.7
					c-0.1,0.1-0.2,0.2-0.3,0.2c-0.4,0.2-0.8,0.1-1.1-0.2c-0.2-0.2-0.3-0.4-0.3-0.7c0-0.1,0.1-0.3,0.1-0.4c0-0.1,0.1-0.2,0.2-0.3
					s0.2-0.2,0.3-0.2c0.1-0.1,0.3-0.1,0.4-0.1S237.8,435.4,238,435.5z"/>
			</g>
			<g>
				<path d="M234,438.4c0.1,0,0.2,0.1,0.3,0.2c0.2,0.2,0.3,0.4,0.3,0.7s-0.1,0.5-0.3,0.7c-0.1,0-0.2,0.1-0.2,0.1
					c-0.1,0-0.1,0.1-0.2,0.1s-0.1,0-0.2,0c-0.2,0.1-0.4,0.1-0.6,0c-0.1,0-0.2-0.1-0.3-0.2c-0.2-0.2-0.3-0.4-0.3-0.7s0.1-0.5,0.3-0.7
					c0.1-0.1,0.2-0.1,0.3-0.2s0.3-0.1,0.4-0.1S233.9,438.4,234,438.4z"/>
			</g>
		</g>
	</g>
</g>
<g>
	<g>
		<g transform="translate(-1719.000000, -1852.000000)">
			<g transform="translate(1710.002768, 1855.000000)">
				<g>
					<path class="st7" d="M63.6,420c0,0-16.7,36.2,0,36.2S63.6,420,63.6,420z"/>
				</g>
				<g>
					<path class="st7" d="M93.3,438c0,0-16.7,36.2,0,36.2S93.3,438,93.3,438z"/>
				</g>
				<g>
					<path class="st7" d="M69.9,465.8c0,0-16.7,36.2,0,36.2S69.9,465.8,69.9,465.8z"/>
				</g>
			</g>
		</g>
	</g>
</g>
<path class="st8" d="M152.1,313.8c-3.3,0-6.6,1.4-9,3.7l-0.7,0.7l-0.8-0.8c-0.8-0.8-1.9-1-2.9-0.7l-8.4,2.8c-0.9,0.3-1.6,1.1-1.8,2
	c-0.2,0.9,0.1,1.9,0.7,2.6l11.2,11.2c0.5,0.5,1.2,0.8,2,0.8c0.2,0,0.4,0,0.6-0.1c0.9-0.2,1.7-0.9,2-1.8l2.8-8.4
	c0.3-1,0.1-2.1-0.7-2.9l-0.8-0.8l0.7-0.7c1.3-1.3,3.2-2.1,5-2.1c3.9,0,7.1,3.2,7.1,7.1v35H66.6c-1.6,0-2.8,1.3-2.8,2.8v7.3
	c0,7.3,1,14.6,2.9,21.7c1.4,5,5.5,8.8,10.4,9.9l-2,8.1c-0.4,1.5,0.5,3,2,3.4c0.2,0.1,0.5,0.1,0.7,0.1c1.3,0,2.4-0.9,2.7-2.1l2.3-9.1
	h63l2.3,9.1c0.3,1.3,1.5,2.1,2.7,2.1c0.2,0,0.5,0,0.7-0.1c1.5-0.4,2.4-1.9,2-3.4l-2-8.1c4.9-1.1,9-4.9,10.4-9.9
	c2-7.1,2.9-14.3,2.9-21.7v-45.1C164.9,319.5,159.2,313.8,152.1,313.8z M141.2,328.2l-4.8-4.8l2.5-0.8l3.2,3.2L141.2,328.2z
	 M159.3,371.6c0,6.8-0.9,13.6-2.7,20.2c-1,3.6-4.3,6.2-8.1,6.2H80.3c-3.8,0-7.1-2.5-8.1-6.2c-1.8-6.6-2.7-13.4-2.7-20.2v-4.5h89.8
	V371.6z"/>
<path class="st8" d="M1271,277.5c-1.5-1.7-3.9-2.1-5.8-0.9c-0.3,0.2-0.8,0.6-1.5,1c-2.3,1.7-7.2,5.2-10.2,5c-0.1,0-0.1,0-0.2,0
	c1.3-1.7,2.5-3.3,2.2-5.4c-0.3-2-1.9-3.2-3-4c-3.6-2.5-6.9-4.2-10.7-4.8c-1.7-0.2-2-0.8-2.8-2.3c-0.7-1.3-1.7-2.9-3.7-4.2
	c-2.2-1.4-3.9-2-5.6-2c-1.3,0-2.3,0.3-3.3,0.7c-0.3,0.1-0.7,0.2-1,0.3c-1.7,0.5-3.3-0.4-4.7-1.3c-1-0.6-2-1.2-3.2-1.3
	c0,0-0.1,0-0.2,0c-4.3,0-6.1,5.3-6.5,8.1c-0.4,3-1.4,4.3-2.5,5.7c-1.3,1.6-2.8,3.5-2.6,7.2c0.3,5.7-0.9,7.9-2.1,10.2
	c-1.2,2.2-2.5,4.7-2.5,9.5c0,0.9-0.3,1.8-0.6,2.7c-0.4,1.4-0.9,2.9-0.8,4.9c0.2,2.8,1.3,5.1,2.2,7.1c0.7,1.4,1.3,2.7,1.4,3.7
	c0.3,2.9-0.4,5.5-1.1,8.2c-0.9,3.4-2,7.3-1.1,12.3c0.4,2.1,0.1,3.5-0.3,5.5c-0.4,1.9-0.9,4.4-0.8,8.1c0.1,6.9,1.5,10.3,2.6,12.9
	c0.5,1.1,0.8,1.9,1,2.8c1.4,8.7-0.1,15.4-1,19.4c-0.2,1.1-0.4,2-0.5,2.7c-0.5,4.1,0.6,7.9,3,10.7c1.9,2.2,4.5,3.4,7.1,3.5
	c1.5,0,2.8,0,3.9,0c0.4,0,0.8,0,1.1,0v10c0,1.4,1.1,2.5,2.5,2.5h12.9c0.7,0,1.4-0.3,1.9-0.8c0.5-0.5,0.7-1.2,0.7-1.9
	c0-0.4-0.4-3.8-5.1-5.7c-2.7-1.1-3.4-2-4.9-4.2c-1.5-2.3-3.1-3.7-3.7-4.3c-0.4-0.6-1.1-1.6-1.2-2.4c-0.1-0.8,0.4-1.4,2.2-3.2
	c2.3-2.2,5.5-5.3,6-11.2c0.3-3.5-1.3-6.3-4.7-8c-1.4-0.7-1.9-1.5-1.9-1.9c0-0.6,0.6-1.4,1.6-2.2l0.8-0.6c3.4-2.5,8.1-5.9,8.4-11
	c0.1-1.6-1-2.8-2.2-4c-0.6-0.6-2.1-2.1-2-2.7c0,0,0.1-0.2,0.4-0.4c0.3-0.2,1.3-0.2,2-0.3c2.2-0.1,5.4-0.3,7-3.4
	c1.2-2.4,1.2-4.5,0.9-6.2c0.1,0,0.1,0,0.2,0c3.7,0.2,8.8-1,11.9-2.3c3.5-1.4,6.4-4.6,7.2-7.9c0.6-2.3,0.1-4.5-1.3-6.2
	c-0.9-1.1-1.1-1.9-1.4-2.8c-0.4-1.4-1-3.2-3.5-4.8c-0.2-0.1-0.4-0.3-0.5-0.3c0.1-0.2,0.2-0.4,0.3-0.6c0.3-0.8,0.8-1.9,1.2-3.4
	c1.3-4.3,1.4-7.2,1.5-9.3c0-0.6,0.1-1.1,0.1-1.6c0.1-0.7,0.4-1.2,1.6-2.6c0.6-0.7,1.3-1.5,2.1-2.5c0.9-1.1,2.9-2.6,4.8-4
	c4.1-3,8.4-6.2,9-10.3C1272.7,280.9,1272.2,278.9,1271,277.5z M1222.4,407.9c0.9,1.2,1.9,2.2,3.4,3.1h-3.4V407.9z M1267.3,282.3
	c-0.3,2.1-4.2,5-7.1,7.1c-2.3,1.7-4.5,3.3-5.8,5c-0.7,0.9-1.3,1.6-1.9,2.2c-1.4,1.5-2.7,3-2.9,5.5c-0.1,0.6-0.1,1.1-0.1,1.8
	c-0.1,2.1-0.2,4.4-1.3,8.1c-0.4,1.3-0.8,2.2-1.1,3c-1.3,3.1-1.2,5,2.3,7.2c1,0.6,1,0.9,1.4,1.9c0.3,1.1,0.8,2.7,2.4,4.5
	c0.1,0.2,0.5,0.6,0.3,1.7c-0.4,1.8-2.2,3.7-4.3,4.5c-2.6,1-6.8,2.1-9.7,1.9c-0.2,0-0.6-0.1-0.9-0.2c-0.6-0.1-1.4-0.3-2.1-0.3
	c-1.6,0-2.4,0.8-2.7,1.3c-0.3,0.5-0.9,1.5-0.4,3l0.2,0.5c0.5,1.6,0.9,2.8,0,4.6c-0.2,0.5-1.3,0.6-2.8,0.6c-1.6,0.1-3.5,0.2-4.9,1.4
	c-1.7,1.5-2.2,3-2.2,4.1c-0.1,2.8,1.9,4.9,3.5,6.5c0.2,0.2,0.5,0.5,0.7,0.7c-0.6,2.5-3.8,4.8-6.3,6.7l-0.8,0.6
	c-3.3,2.4-3.8,4.9-3.6,6.6c0.2,2.4,1.8,4.5,4.6,6c1.8,1,2.1,1.9,2,3.1c-0.3,3.9-2.5,6-4.5,7.9c-2,1.9-4.3,4.1-3.7,7.7
	c0,0.3,0.1,0.5,0.2,0.8c-1,0-2.1,0-3.3,0c-1.2,0-2.4-0.7-3.4-1.7c-1.4-1.7-2.1-4.1-1.8-6.7c0.1-0.5,0.2-1.3,0.4-2.2
	c0.9-4.1,2.5-11.6,1-21.2c-0.2-1.5-0.8-2.7-1.3-4c-1-2.3-2.2-5.1-2.2-10.9c0-3.2,0.4-5.3,0.7-7.1c0.4-2.2,0.8-4.3,0.3-7.3
	c-0.7-3.9,0.1-6.9,1-10.1c0.8-3,1.6-6.1,1.3-9.9c-0.2-1.9-1-3.7-1.8-5.4c-0.8-1.8-1.6-3.5-1.8-5.3c-0.1-1.1,0.2-2,0.6-3.1
	c0.4-1.2,0.8-2.5,0.8-4.2c0-3.5,0.8-5.1,1.9-7.1c1.4-2.7,3.1-5.8,2.7-12.8c-0.1-1.8,0.4-2.5,1.5-3.8c1.3-1.6,3-3.8,3.5-8.2
	c0.2-1.7,1-3.3,1.4-3.6c0.2,0.1,0.5,0.3,0.7,0.5c1.4,0.9,3.5,2.2,6.3,2.2c0.8,0,1.6-0.1,2.5-0.4c0.5-0.1,0.9-0.3,1.3-0.4
	c0.8-0.3,1.3-0.4,1.7-0.4c0.7,0,1.6,0.4,2.9,1.2c1,0.6,1.4,1.4,2,2.5c1,1.8,2.4,4.2,6.5,4.8c2.9,0.4,5.4,1.8,8.6,4
	c0.4,0.3,0.7,0.5,0.8,0.6c-0.2,0.4-0.8,1.2-1.2,1.7l-0.4,0.5c-1.3,1.7-1.7,3.4-1.1,4.8c1,2.3,3.9,2.6,5.3,2.7
	c4.8,0.4,10.5-3.7,13.5-5.9c0.2-0.2,0.4-0.3,0.6-0.5C1267.4,281.5,1267.4,281.9,1267.3,282.3z"/>
<g>
	<g>
		<path d="M325.7,424.1c0.8,0.8,1.2,1.9,1.2,3.1c0,2.4-2,4.4-4.4,4.4h-14.2v-1.9h14.2c1.3,0,2.5-1.1,2.5-2.5c0-0.7-0.3-1.2-0.8-1.7
			c-0.5-0.5-1.1-0.8-1.7-0.8h-52.4c-1.3,0-2.5,1.1-2.5,2.5c0,0.7,0.3,1.1,0.8,1.6c0.5,0.5,1.1,0.8,1.7,0.8h31.3v1.9H270
			c-1.1,0-2.3-0.5-3.1-1.2s-1.2-1.9-1.2-3.1c0-2.4,2-4.4,4.4-4.4h52.4C323.7,422.7,324.8,423.2,325.7,424.1z"/>
	</g>
	<g>
		<path d="M324.8,419.8v5h-56.9v-5c0-2.1,1.7-3.8,3.8-3.8h49.2C323,415.9,324.8,417.6,324.8,419.8z M322.9,422.7v-3.1
			c0-1.1-0.9-1.9-1.9-1.9h-49.3c-1.1,0-1.9,0.9-1.9,1.9v3.1H322.9z"/>
	</g>
	<g>
		<path d="M324.8,434.1c0,5.9-3.7,11.1-9.4,12.9c-10.8,3.4-27.2,3.4-38.1,0c-5.6-1.7-9.4-7-9.4-12.9v-4.5h33.7v1.9h-31.7v2.6
			c0,5.1,3.3,9.6,8,11.1c10.5,3.3,26.4,3.3,36.9,0c4.8-1.5,8-5.9,8-11.1v-2.6h-14.5v-1.9h16.4V434.1z"/>
	</g>
	<g>
		<path d="M305.6,426.5l3.4,3.4c0.4,0.4,0.4,1,0,1.3c-0.4,0.4-1,0.4-1.3,0l-2.8-2.8l-2.8,2.8c-0.4,0.4-1,0.4-1.3,0
			c-0.4-0.4-0.4-1,0-1.3l3.4-3.4c0.2-0.2,0.4-0.3,0.7-0.3C305.2,426.2,305.4,426.3,305.6,426.5z"/>
	</g>
	<g>
		<g>
			<path d="M305,441.9c0.1,0.1,0.2,0.2,0.2,0.3c0.1,0.1,0.1,0.3,0.1,0.4c0,0.3-0.1,0.5-0.3,0.7c-0.2,0.3-0.6,0.4-0.9,0.3
				c-0.1,0-0.1-0.1-0.2-0.1c-0.1,0-0.1-0.1-0.2-0.1s-0.2-0.1-0.2-0.1c-0.2-0.2-0.3-0.4-0.3-0.7c0-0.1,0.1-0.3,0.1-0.4
				s0.1-0.2,0.2-0.3c0.2-0.2,0.4-0.3,0.7-0.3S304.8,441.7,305,441.9z"/>
		</g>
		<g>
			<g>
				<path d="M281.7,439.8c0.1,0,0.2,0.1,0.3,0.2c0,0.1,0,0.2,0.1,0.3c0.1,0.1,0.1,0.3,0.1,0.4s0,0.1,0,0.2c0,0.1,0,0.1,0,0.2
					c0,0.1-0.1,0.2-0.1,0.2c0,0.1-0.1,0.2-0.1,0.2c-0.4,0.4-1,0.4-1.3,0c0-0.1-0.1-0.1-0.1-0.2c0-0.1-0.1-0.1-0.1-0.2
					c-0.1-0.1-0.1-0.1-0.1-0.2c0-0.1,0-0.1,0-0.2s0.1-0.3,0.1-0.4c0-0.1,0.1-0.2,0.2-0.3c0.1-0.1,0.2-0.1,0.3-0.2
					c0.1-0.1,0.3-0.1,0.4-0.1S281.6,439.8,281.7,439.8z"/>
			</g>
			<g>
				<path d="M274.8,437.1c0.1,0.1,0.2,0.2,0.2,0.3c0.1,0.1,0.1,0.3,0.1,0.4c0,0.1-0.1,0.3-0.1,0.4c0,0.1-0.1,0.2-0.2,0.3
					c-0.4,0.4-1,0.4-1.3,0c-0.1-0.1-0.2-0.2-0.2-0.3c-0.1-0.1-0.1-0.3-0.1-0.4c0-0.1,0.1-0.3,0.1-0.4c0-0.1,0.1-0.2,0.2-0.3
					c0.2-0.2,0.4-0.3,0.7-0.3C274.3,436.8,274.6,436.9,274.8,437.1z"/>
			</g>
			<g>
				<path d="M319.3,437.1c0,0.1,0.2,0.2,0.3,0.3c0.1,0.1,0.1,0.3,0.1,0.4c0,0.1-0.1,0.3-0.1,0.4c0,0.1-0.1,0.2-0.2,0.3
					c-0.1,0-0.2,0.1-0.2,0.1c-0.1,0.1-0.1,0.1-0.2,0.1c-0.1,0.1-0.1,0.1-0.2,0.1c-0.2,0-0.4,0-0.6-0.1c-0.1,0-0.2-0.1-0.3-0.2
					c-0.1-0.1-0.2-0.2-0.2-0.3c-0.1-0.1-0.1-0.3-0.1-0.4c0-0.1,0.1-0.3,0.1-0.4c0-0.1,0.1-0.2,0.2-0.3c0.1-0.1,0.2-0.1,0.3-0.2
					c0.1-0.1,0.3-0.1,0.4-0.1C318.8,436.8,319.1,436.9,319.3,437.1z"/>
			</g>
			<g>
				<path d="M285.8,437.1c0,0.1,0.2,0.2,0.3,0.3c0.1,0.1,0.1,0.3,0.1,0.4c0,0.3-0.1,0.5-0.3,0.7c-0.1,0-0.2,0.1-0.2,0.1
					c-0.1,0.1-0.1,0.1-0.2,0.1c-0.1,0.1-0.1,0.1-0.2,0.1c-0.3,0-0.7-0.1-0.9-0.3c-0.1-0.1-0.2-0.2-0.2-0.3c-0.1-0.1-0.1-0.3-0.1-0.4
					c0-0.3,0.1-0.5,0.3-0.7c0.1-0.1,0.2-0.1,0.3-0.2c0.1-0.1,0.3-0.1,0.4-0.1C285.3,436.8,285.6,436.9,285.8,437.1z"/>
			</g>
			<g>
				<path d="M290.1,440.2c0.1,0.1,0.1,0.2,0.2,0.3c0.1,0.1,0.1,0.3,0.1,0.4c0,0.2-0.1,0.5-0.3,0.7c-0.4,0.4-1,0.4-1.3,0
					c-0.1-0.1-0.2-0.2-0.2-0.3c-0.1-0.1-0.1-0.3-0.1-0.4s0.1-0.3,0.1-0.4c0-0.1,0.1-0.2,0.2-0.3c0.1-0.1,0.2-0.1,0.3-0.2
					c0.1-0.1,0.3-0.1,0.4-0.1C289.6,440,289.9,440,290.1,440.2z"/>
			</g>
			<g>
				<path d="M307.3,438c0.2,0.2,0.3,0.4,0.3,0.7c0,0.1-0.1,0.3-0.1,0.4s-0.1,0.2-0.2,0.3c-0.4,0.4-1,0.4-1.3,0
					c-0.1-0.1-0.2-0.2-0.2-0.3c-0.1-0.1-0.1-0.3-0.1-0.4c0-0.3,0.1-0.5,0.3-0.7c0.1-0.1,0.2-0.1,0.3-0.2c0.1-0.1,0.3-0.1,0.4-0.1
					C306.9,437.8,307.1,437.8,307.3,438z"/>
			</g>
			<g>
				<path d="M313.6,439c0,0.1,0.2,0.2,0.3,0.3c0.1,0.1,0.1,0.3,0.1,0.4c0,0.3-0.1,0.5-0.3,0.7c-0.1,0-0.2,0.1-0.2,0.1
					c-0.1,0.1-0.1,0.1-0.2,0.1c-0.1,0.1-0.1,0.1-0.2,0.1c-0.3,0-0.7-0.1-0.9-0.3s-0.3-0.4-0.3-0.7c0-0.1,0.1-0.3,0.1-0.4
					c0-0.1,0.1-0.2,0.2-0.3c0.1-0.1,0.2-0.1,0.3-0.2c0.1-0.1,0.3-0.1,0.4-0.1C313.1,438.7,313.4,438.8,313.6,439z"/>
			</g>
			<g>
				<path d="M301.1,435.9c0.1,0,0.2,0.1,0.3,0.2c0.1,0.1,0.1,0.2,0.2,0.3c0.1,0.1,0.1,0.3,0.1,0.4c0,0.3-0.1,0.5-0.3,0.7
					c-0.1,0.1-0.2,0.2-0.3,0.2c-0.4,0.2-0.8,0.1-1.1-0.2c-0.2-0.2-0.3-0.4-0.3-0.7c0-0.1,0.1-0.3,0.1-0.4c0-0.1,0.1-0.2,0.2-0.3
					c0.1-0.1,0.2-0.2,0.3-0.2c0.1-0.1,0.3-0.1,0.4-0.1S300.9,435.8,301.1,435.9z"/>
			</g>
			<g>
				<path d="M297.1,438.9c0.1,0,0.2,0.1,0.3,0.2c0.2,0.2,0.3,0.4,0.3,0.7c0,0.3-0.1,0.5-0.3,0.7c-0.1,0-0.2,0.1-0.2,0.1
					c-0.1,0-0.1,0.1-0.2,0.1c-0.1,0-0.1,0-0.2,0c-0.2,0.1-0.4,0.1-0.6,0c-0.1,0-0.2-0.1-0.3-0.2c-0.2-0.2-0.3-0.4-0.3-0.7
					c0-0.3,0.1-0.5,0.3-0.7c0.1-0.1,0.2-0.1,0.3-0.2c0.1-0.1,0.3-0.1,0.4-0.1C296.7,438.8,297,438.9,297.1,438.9z"/>
			</g>
		</g>
	</g>
</g>
<g>
	<g>
		<path d="M387.8,424c0.8,0.8,1.2,1.9,1.2,3.1c0,2.4-2,4.4-4.4,4.4h-14.2v-1.9h14.2c1.3,0,2.5-1.1,2.5-2.5c0-0.7-0.3-1.2-0.8-1.7
			c-0.5-0.5-1.1-0.8-1.7-0.8h-52.4c-1.3,0-2.5,1.1-2.5,2.5c0,0.7,0.3,1.1,0.8,1.6c0.5,0.5,1.1,0.8,1.7,0.8h31.3v1.9h-31.4
			c-1.1,0-2.3-0.5-3.1-1.2s-1.2-1.9-1.2-3.1c0-2.4,2-4.4,4.4-4.4h52.4C385.7,422.7,386.9,423.2,387.8,424z"/>
	</g>
	<g>
		<path d="M386.9,419.7v5H330v-5c0-2.1,1.7-3.8,3.8-3.8H383C385.1,415.9,386.8,417.5,386.9,419.7z M385,422.7v-3.1
			c0-1.1-0.9-1.9-1.9-1.9h-49.3c-1.1,0-1.9,0.9-1.9,1.9v3.1H385z"/>
	</g>
	<g>
		<path d="M386.8,434.1c0,5.9-3.7,11.1-9.4,12.9c-10.8,3.4-27.2,3.4-38.1,0c-5.6-1.7-9.4-7-9.4-12.9v-4.5h33.7v1.9H332v2.6
			c0,5.1,3.3,9.6,8,11.1c10.5,3.3,26.4,3.3,36.9,0c4.8-1.5,8-5.9,8-11.1v-2.6h-14.5v-1.9h16.4V434.1z"/>
	</g>
	<g>
		<path d="M367.7,426.4l3.4,3.4c0.4,0.4,0.4,1,0,1.3c-0.4,0.4-1,0.4-1.3,0l-2.8-2.8l-2.8,2.8c-0.4,0.4-1,0.4-1.3,0
			c-0.4-0.4-0.4-1,0-1.3l3.4-3.4c0.2-0.2,0.4-0.3,0.7-0.3S367.5,426.2,367.7,426.4z"/>
	</g>
	<g>
		<g>
			<path d="M367.1,441.8c0.1,0.1,0.2,0.2,0.2,0.3c0.1,0.1,0.1,0.3,0.1,0.4c0,0.3-0.1,0.5-0.3,0.7c-0.2,0.3-0.6,0.4-0.9,0.3
				c-0.1,0-0.1-0.1-0.2-0.1s-0.1-0.1-0.2-0.1c-0.1,0-0.2-0.1-0.2-0.1c-0.2-0.2-0.3-0.4-0.3-0.7c0-0.1,0.1-0.3,0.1-0.4
				c0-0.1,0.1-0.2,0.2-0.3c0.2-0.2,0.4-0.3,0.7-0.3S366.8,441.6,367.1,441.8z"/>
		</g>
		<g>
			<g>
				<path d="M343.7,439.7c0.1,0,0.2,0.1,0.3,0.2c0,0.1,0,0.2,0.1,0.3c0.1,0.1,0.1,0.3,0.1,0.4c0,0.1,0,0.1,0,0.2c0,0.1,0,0.1,0,0.2
					s-0.1,0.2-0.1,0.2c0,0.1-0.1,0.2-0.1,0.2c-0.4,0.4-1,0.4-1.3,0c0-0.1-0.1-0.1-0.1-0.2c0-0.1-0.1-0.1-0.1-0.2
					c-0.1-0.1-0.1-0.1-0.1-0.2c0-0.1,0-0.1,0-0.2c0-0.1,0.1-0.3,0.1-0.4c0-0.1,0.1-0.2,0.2-0.3c0.1-0.1,0.2-0.1,0.3-0.2
					c0.1-0.1,0.3-0.1,0.4-0.1C343.5,439.6,343.6,439.7,343.7,439.7z"/>
			</g>
			<g>
				<path d="M336.8,437c0.1,0.1,0.2,0.2,0.2,0.3c0.1,0.1,0.1,0.3,0.1,0.4c0,0.1-0.1,0.3-0.1,0.4c0,0.1-0.1,0.2-0.2,0.3
					c-0.4,0.4-1,0.4-1.3,0c-0.1-0.1-0.2-0.2-0.2-0.3c-0.1-0.1-0.1-0.3-0.1-0.4c0-0.1,0.1-0.3,0.1-0.4c0-0.1,0.1-0.2,0.2-0.3
					c0.2-0.2,0.4-0.3,0.7-0.3C336.4,436.7,336.7,436.8,336.8,437z"/>
			</g>
			<g>
				<path d="M381.3,437c0,0.1,0.2,0.2,0.3,0.3c0.1,0.1,0.1,0.3,0.1,0.4c0,0.1-0.1,0.3-0.1,0.4c0,0.1-0.1,0.2-0.2,0.3
					c-0.1,0-0.2,0.1-0.2,0.1c-0.1,0.1-0.1,0.1-0.2,0.1c-0.1,0.1-0.1,0.1-0.2,0.1c-0.2,0-0.4,0-0.6-0.1c-0.1,0-0.2-0.1-0.3-0.2
					c-0.1-0.1-0.2-0.2-0.2-0.3c-0.1-0.1-0.1-0.3-0.1-0.4c0-0.1,0.1-0.3,0.1-0.4c0-0.1,0.1-0.2,0.2-0.3c0.1-0.1,0.2-0.1,0.3-0.2
					c0.1-0.1,0.3-0.1,0.4-0.1C380.9,436.7,381.2,436.8,381.3,437z"/>
			</g>
			<g>
				<path d="M347.9,437c0,0.1,0.2,0.2,0.3,0.3c0.1,0.1,0.1,0.3,0.1,0.4c0,0.3-0.1,0.5-0.3,0.7c-0.1,0-0.2,0.1-0.2,0.1
					c-0.1,0.1-0.1,0.1-0.2,0.1c-0.1,0.1-0.1,0.1-0.2,0.1c-0.3,0-0.7-0.1-0.9-0.3c-0.1-0.1-0.2-0.2-0.2-0.3c-0.1-0.1-0.1-0.3-0.1-0.4
					c0-0.3,0.1-0.5,0.3-0.7c0.1-0.1,0.2-0.1,0.3-0.2c0.1-0.1,0.3-0.1,0.4-0.1C347.4,436.7,347.7,436.8,347.9,437z"/>
			</g>
			<g>
				<path d="M352.2,440.2c0.1,0.1,0.1,0.2,0.2,0.3c0.1,0.1,0.1,0.3,0.1,0.4c0,0.2-0.1,0.5-0.3,0.7c-0.4,0.4-1,0.4-1.3,0
					c-0.1-0.1-0.2-0.2-0.2-0.3c-0.1-0.1-0.1-0.3-0.1-0.4c0-0.1,0.1-0.3,0.1-0.4s0.1-0.2,0.2-0.3c0.1-0.1,0.2-0.1,0.3-0.2
					c0.1-0.1,0.3-0.1,0.4-0.1C351.7,439.9,352,440,352.2,440.2z"/>
			</g>
			<g>
				<path d="M369.4,438c0.2,0.2,0.3,0.4,0.3,0.7c0,0.1-0.1,0.3-0.1,0.4c0,0.1-0.1,0.2-0.2,0.3c-0.4,0.4-1,0.4-1.3,0
					c-0.1-0.1-0.2-0.2-0.2-0.3c-0.1-0.1-0.1-0.3-0.1-0.4c0-0.3,0.1-0.5,0.3-0.7c0.1-0.1,0.2-0.1,0.3-0.2c0.1-0.1,0.3-0.1,0.4-0.1
					C368.9,437.7,369.2,437.8,369.4,438z"/>
			</g>
			<g>
				<path d="M375.6,438.9c0,0.1,0.2,0.2,0.3,0.3c0.1,0.1,0.1,0.3,0.1,0.4c0,0.3-0.1,0.5-0.3,0.7c-0.1,0-0.2,0.1-0.2,0.1
					c-0.1,0.1-0.1,0.1-0.2,0.1c-0.1,0.1-0.1,0.1-0.2,0.1c-0.3,0-0.7-0.1-0.9-0.3c-0.2-0.2-0.3-0.4-0.3-0.7c0-0.1,0.1-0.3,0.1-0.4
					c0-0.1,0.1-0.2,0.2-0.3c0.1-0.1,0.2-0.1,0.3-0.2c0.1-0.1,0.3-0.1,0.4-0.1C375.1,438.7,375.4,438.8,375.6,438.9z"/>
			</g>
			<g>
				<path d="M363.2,435.9c0.1,0,0.2,0.1,0.3,0.2c0.1,0.1,0.1,0.2,0.2,0.3c0.1,0.1,0.1,0.3,0.1,0.4c0,0.3-0.1,0.5-0.3,0.7
					c-0.1,0.1-0.2,0.2-0.3,0.2c-0.4,0.2-0.8,0.1-1.1-0.2c-0.2-0.2-0.3-0.4-0.3-0.7c0-0.1,0.1-0.3,0.1-0.4c0-0.1,0.1-0.2,0.2-0.3
					c0.1-0.1,0.2-0.2,0.3-0.2c0.1-0.1,0.3-0.1,0.4-0.1C362.9,435.8,363,435.8,363.2,435.9z"/>
			</g>
			<g>
				<path d="M359.1,438.9c0.1,0,0.2,0.1,0.3,0.2c0.2,0.2,0.3,0.4,0.3,0.7s-0.1,0.5-0.3,0.7c-0.1,0-0.2,0.1-0.2,0.1
					c-0.1,0-0.1,0.1-0.2,0.1c-0.1,0-0.1,0-0.2,0c-0.2,0.1-0.4,0.1-0.6,0c-0.1,0-0.2-0.1-0.3-0.2c-0.2-0.2-0.3-0.4-0.3-0.7
					s0.1-0.5,0.3-0.7c0.1-0.1,0.2-0.1,0.3-0.2c0.1-0.1,0.3-0.1,0.4-0.1C358.8,438.8,359,438.9,359.1,438.9z"/>
			</g>
		</g>
	</g>
</g>
<g>
	<g>
		<path d="M295,456.4c0.8,0.8,1.2,1.9,1.2,3.1c0,2.4-2,4.4-4.4,4.4h-14.2v-1.9h14.2c1.3,0,2.5-1.1,2.5-2.5c0-0.7-0.3-1.2-0.8-1.7
			c-0.5-0.5-1.1-0.8-1.7-0.8h-52.4c-1.3,0-2.5,1.1-2.5,2.5c0,0.7,0.3,1.1,0.8,1.6c0.5,0.5,1.1,0.8,1.7,0.8h31.3v1.9h-31.4
			c-1.1,0-2.3-0.5-3.1-1.2s-1.2-1.9-1.2-3.1c0-2.4,2-4.4,4.4-4.4h52.4C293,455,294.2,455.5,295,456.4z"/>
	</g>
	<g>
		<path d="M294.2,452.1v5h-56.9v-5c0-2.1,1.7-3.8,3.8-3.8h49.2C292.3,448.2,294.1,449.9,294.2,452.1z M292.2,455V452
			c0-1.1-0.9-1.9-1.9-1.9H241c-1.1,0-1.9,0.9-1.9,1.9v3.1H292.2z"/>
	</g>
	<g>
		<path d="M294.1,466.4c0,5.9-3.7,11.1-9.4,12.9c-10.8,3.4-27.2,3.4-38.1,0c-5.6-1.7-9.4-7-9.4-12.9v-4.5h33.7v1.9h-31.7v2.6
			c0,5.1,3.3,9.6,8,11.1c10.5,3.3,26.4,3.3,36.9,0c4.8-1.5,8-5.9,8-11.1v-2.6h-14.5v-1.9h16.4V466.4z"/>
	</g>
	<g>
		<path d="M274.9,458.8l3.4,3.4c0.4,0.4,0.4,1,0,1.3c-0.4,0.4-1,0.4-1.3,0l-2.8-2.8l-2.8,2.8c-0.4,0.4-1,0.4-1.3,0
			c-0.4-0.4-0.4-1,0-1.3l3.4-3.4c0.2-0.2,0.4-0.3,0.7-0.3C274.5,458.5,274.7,458.6,274.9,458.8z"/>
	</g>
	<g>
		<g>
			<path d="M274.3,474.2c0.1,0.1,0.2,0.2,0.2,0.3c0.1,0.1,0.1,0.3,0.1,0.4c0,0.3-0.1,0.5-0.3,0.7c-0.2,0.3-0.6,0.4-0.9,0.3
				c-0.1,0-0.1-0.1-0.2-0.1s-0.1-0.1-0.2-0.1c-0.1,0-0.2-0.1-0.2-0.1c-0.2-0.2-0.3-0.4-0.3-0.7c0-0.1,0.1-0.3,0.1-0.4
				c0-0.1,0.1-0.2,0.2-0.3c0.2-0.2,0.4-0.3,0.7-0.3S274.1,474,274.3,474.2z"/>
		</g>
		<g>
			<g>
				<path d="M251,472.1c0.1,0,0.2,0.1,0.3,0.2c0,0.1,0,0.2,0.1,0.3c0.1,0.1,0.1,0.3,0.1,0.4s0,0.1,0,0.2c0,0.1,0,0.1,0,0.2
					c0,0.1-0.1,0.2-0.1,0.2c0,0.1-0.1,0.2-0.1,0.2c-0.4,0.4-1,0.4-1.3,0c0-0.1-0.1-0.1-0.1-0.2s-0.1-0.1-0.1-0.2
					c-0.1-0.1-0.1-0.1-0.1-0.2c0-0.1,0-0.1,0-0.2s0.1-0.3,0.1-0.4c0-0.1,0.1-0.2,0.2-0.3c0.1-0.1,0.2-0.1,0.3-0.2
					c0.1-0.1,0.3-0.1,0.4-0.1S250.9,472.1,251,472.1z"/>
			</g>
			<g>
				<path d="M244.1,469.4c0.1,0.1,0.2,0.2,0.2,0.3c0.1,0.1,0.1,0.3,0.1,0.4c0,0.1-0.1,0.3-0.1,0.4c0,0.1-0.1,0.2-0.2,0.3
					c-0.4,0.4-1,0.4-1.3,0c-0.1-0.1-0.2-0.2-0.2-0.3c-0.1-0.1-0.1-0.3-0.1-0.4c0-0.1,0.1-0.3,0.1-0.4c0-0.1,0.1-0.2,0.2-0.3
					c0.2-0.2,0.4-0.3,0.7-0.3C243.6,469.1,243.9,469.2,244.1,469.4z"/>
			</g>
			<g>
				<path d="M288.6,469.4c0,0.1,0.2,0.2,0.3,0.3s0.1,0.3,0.1,0.4c0,0.1-0.1,0.3-0.1,0.4c0,0.1-0.1,0.2-0.2,0.3
					c-0.1,0-0.2,0.1-0.2,0.1c-0.1,0.1-0.1,0.1-0.2,0.1c-0.1,0.1-0.1,0.1-0.2,0.1c-0.2,0-0.4,0-0.6-0.1c-0.1,0-0.2-0.1-0.3-0.2
					c-0.1-0.1-0.2-0.2-0.2-0.3c-0.1-0.1-0.1-0.3-0.1-0.4c0-0.1,0.1-0.3,0.1-0.4c0-0.1,0.1-0.2,0.2-0.3c0.1-0.1,0.2-0.1,0.3-0.2
					c0.1-0.1,0.3-0.1,0.4-0.1C288.1,469.1,288.4,469.2,288.6,469.4z"/>
			</g>
			<g>
				<path d="M255.1,469.4c0,0.1,0.2,0.2,0.3,0.3c0.1,0.1,0.1,0.3,0.1,0.4c0,0.3-0.1,0.5-0.3,0.7c-0.1,0-0.2,0.1-0.2,0.1
					c-0.1,0.1-0.1,0.1-0.2,0.1c-0.1,0.1-0.1,0.1-0.2,0.1c-0.3,0-0.7-0.1-0.9-0.3c-0.1-0.1-0.2-0.2-0.2-0.3c-0.1-0.1-0.1-0.3-0.1-0.4
					c0-0.3,0.1-0.5,0.3-0.7c0.1-0.1,0.2-0.1,0.3-0.2c0.1-0.1,0.3-0.1,0.4-0.1C254.6,469.1,254.9,469.2,255.1,469.4z"/>
			</g>
			<g>
				<path d="M259.4,472.5c0.1,0.1,0.1,0.2,0.2,0.3c0.1,0.1,0.1,0.3,0.1,0.4c0,0.2-0.1,0.5-0.3,0.7c-0.4,0.4-1,0.4-1.3,0
					c-0.1-0.1-0.2-0.2-0.2-0.3c-0.1-0.1-0.1-0.3-0.1-0.4s0.1-0.3,0.1-0.4c0-0.1,0.1-0.2,0.2-0.3c0.1-0.1,0.2-0.1,0.3-0.2
					c0.1-0.1,0.3-0.1,0.4-0.1C258.9,472.3,259.2,472.4,259.4,472.5z"/>
			</g>
			<g>
				<path d="M276.6,470.3c0.2,0.2,0.3,0.4,0.3,0.7c0,0.1-0.1,0.3-0.1,0.4c0,0.1-0.1,0.2-0.2,0.3c-0.4,0.4-1,0.4-1.3,0
					c-0.1-0.1-0.2-0.2-0.2-0.3c-0.1-0.1-0.1-0.3-0.1-0.4c0-0.3,0.1-0.5,0.3-0.7c0.1-0.1,0.2-0.1,0.3-0.2s0.3-0.1,0.4-0.1
					C276.2,470.1,276.5,470.1,276.6,470.3z"/>
			</g>
			<g>
				<path d="M282.9,471.3c0,0.1,0.2,0.2,0.3,0.3c0.1,0.1,0.1,0.3,0.1,0.4c0,0.3-0.1,0.5-0.3,0.7c-0.1,0-0.2,0.1-0.2,0.1
					c-0.1,0.1-0.1,0.1-0.2,0.1c-0.1,0.1-0.1,0.1-0.2,0.1c-0.3,0-0.7-0.1-0.9-0.3c-0.2-0.2-0.3-0.4-0.3-0.7c0-0.1,0.1-0.3,0.1-0.4
					c0-0.1,0.1-0.2,0.2-0.3c0.1-0.1,0.2-0.1,0.3-0.2c0.1-0.1,0.3-0.1,0.4-0.1C282.4,471,282.7,471.1,282.9,471.3z"/>
			</g>
			<g>
				<path d="M270.4,468.2c0.1,0,0.2,0.1,0.3,0.2c0.1,0.1,0.1,0.2,0.2,0.3c0.1,0.1,0.1,0.3,0.1,0.4c0,0.3-0.1,0.5-0.3,0.7
					c-0.1,0.1-0.2,0.2-0.3,0.2c-0.4,0.2-0.8,0.1-1.1-0.2c-0.2-0.2-0.3-0.4-0.3-0.7c0-0.1,0.1-0.3,0.1-0.4c0-0.1,0.1-0.2,0.2-0.3
					c0.1-0.1,0.2-0.2,0.3-0.2c0.1-0.1,0.3-0.1,0.4-0.1C270.1,468.1,270.2,468.1,270.4,468.2z"/>
			</g>
			<g>
				<path d="M266.4,471.2c0.1,0,0.2,0.1,0.3,0.2c0.2,0.2,0.3,0.4,0.3,0.7c0,0.3-0.1,0.5-0.3,0.7c-0.1,0-0.2,0.1-0.2,0.1
					c-0.1,0-0.1,0.1-0.2,0.1c-0.1,0-0.1,0-0.2,0c-0.2,0.1-0.4,0.1-0.6,0c-0.1,0-0.2-0.1-0.3-0.2c-0.2-0.2-0.3-0.4-0.3-0.7
					c0-0.3,0.1-0.5,0.3-0.7c0.1-0.1,0.2-0.1,0.3-0.2c0.1-0.1,0.3-0.1,0.4-0.1S266.3,471.2,266.4,471.2z"/>
			</g>
		</g>
	</g>
</g>
<g>
	<g>
		<path d="M358.6,456.4c0.8,0.8,1.2,1.9,1.2,3.1c0,2.4-2,4.4-4.4,4.4h-14.2v-1.9h14.2c1.3,0,2.5-1.1,2.5-2.5c0-0.7-0.3-1.2-0.8-1.7
			s-1.1-0.8-1.7-0.8H303c-1.3,0-2.5,1.1-2.5,2.5c0,0.7,0.3,1.1,0.8,1.6c0.5,0.5,1.1,0.8,1.7,0.8h31.3v1.9h-31.4
			c-1.1,0-2.3-0.5-3.1-1.2s-1.2-1.9-1.2-3.1c0-2.4,2-4.4,4.4-4.4h52.4C356.6,455,357.8,455.5,358.6,456.4z"/>
	</g>
	<g>
		<path d="M357.8,452.1v5h-56.9v-5c0-2.1,1.7-3.8,3.8-3.8h49.2C356,448.2,357.7,449.9,357.8,452.1z M355.9,455V452
			c0-1.1-0.9-1.9-1.9-1.9h-49.3c-1.1,0-1.9,0.9-1.9,1.9v3.1H355.9z"/>
	</g>
	<g>
		<path d="M357.7,466.4c0,5.9-3.7,11.1-9.4,12.9c-10.8,3.4-27.2,3.4-38.1,0c-5.6-1.7-9.4-7-9.4-12.9v-4.5h33.7v1.9h-31.7v2.6
			c0,5.1,3.3,9.6,8,11.1c10.5,3.3,26.4,3.3,36.9,0c4.8-1.5,8-5.9,8-11.1v-2.6h-14.5v-1.9h16.4V466.4z"/>
	</g>
	<g>
		<path d="M338.5,458.8l3.4,3.4c0.4,0.4,0.4,1,0,1.3c-0.4,0.4-1,0.4-1.3,0l-2.8-2.8l-2.8,2.8c-0.4,0.4-1,0.4-1.3,0
			c-0.4-0.4-0.4-1,0-1.3l3.4-3.4c0.2-0.2,0.4-0.3,0.7-0.3S338.4,458.6,338.5,458.8z"/>
	</g>
	<g>
		<g>
			<path d="M338,474.2c0.1,0.1,0.2,0.2,0.2,0.3c0.1,0.1,0.1,0.3,0.1,0.4c0,0.3-0.1,0.5-0.3,0.7c-0.2,0.3-0.6,0.4-0.9,0.3
				c-0.1,0-0.1-0.1-0.2-0.1c-0.1,0-0.1-0.1-0.2-0.1c-0.1,0-0.2-0.1-0.2-0.1c-0.2-0.2-0.3-0.4-0.3-0.7c0-0.1,0.1-0.3,0.1-0.4
				c0-0.1,0.1-0.2,0.2-0.3c0.2-0.2,0.4-0.3,0.7-0.3C337.5,473.9,337.7,474,338,474.2z"/>
		</g>
		<g>
			<g>
				<path d="M314.6,472.1c0.1,0,0.2,0.1,0.3,0.2c0,0.1,0,0.2,0.1,0.3c0.1,0.1,0.1,0.3,0.1,0.4s0,0.1,0,0.2c0,0.1,0,0.1,0,0.2
					c0,0.1-0.1,0.2-0.1,0.2c0,0.1-0.1,0.2-0.1,0.2c-0.4,0.4-1,0.4-1.3,0c0-0.1-0.1-0.1-0.1-0.2s-0.1-0.1-0.1-0.2
					c-0.1-0.1-0.1-0.1-0.1-0.2c0-0.1,0-0.1,0-0.2s0.1-0.3,0.1-0.4c0-0.1,0.1-0.2,0.2-0.3c0.1-0.1,0.2-0.1,0.3-0.2
					c0.1-0.1,0.3-0.1,0.4-0.1C314.3,472,314.5,472.1,314.6,472.1z"/>
			</g>
			<g>
				<path d="M307.7,469.4c0.1,0.1,0.2,0.2,0.2,0.3c0.1,0.1,0.1,0.3,0.1,0.4c0,0.1-0.1,0.3-0.1,0.4c0,0.1-0.1,0.2-0.2,0.3
					c-0.4,0.4-1,0.4-1.3,0c-0.1-0.1-0.2-0.2-0.2-0.3c-0.1-0.1-0.1-0.3-0.1-0.4c0-0.1,0.1-0.3,0.1-0.4c0-0.1,0.1-0.2,0.2-0.3
					c0.2-0.2,0.4-0.3,0.7-0.3C307.3,469.1,307.5,469.2,307.7,469.4z"/>
			</g>
			<g>
				<path d="M352.2,469.4c0,0.1,0.2,0.2,0.3,0.3c0.1,0.1,0.1,0.3,0.1,0.4c0,0.1-0.1,0.3-0.1,0.4c0,0.1-0.1,0.2-0.2,0.3
					c-0.1,0-0.2,0.1-0.2,0.1c-0.1,0.1-0.1,0.1-0.2,0.1c-0.1,0.1-0.1,0.1-0.2,0.1c-0.2,0-0.4,0-0.6-0.1c-0.1,0-0.2-0.1-0.3-0.2
					c-0.1-0.1-0.2-0.2-0.2-0.3c-0.1-0.1-0.1-0.3-0.1-0.4c0-0.1,0.1-0.3,0.1-0.4c0-0.1,0.1-0.2,0.2-0.3s0.2-0.1,0.3-0.2
					c0.1-0.1,0.3-0.1,0.4-0.1C351.8,469.1,352,469.2,352.2,469.4z"/>
			</g>
			<g>
				<path d="M318.7,469.4c0,0.1,0.2,0.2,0.3,0.3c0.1,0.1,0.1,0.3,0.1,0.4c0,0.3-0.1,0.5-0.3,0.7c-0.1,0-0.2,0.1-0.2,0.1
					c-0.1,0.1-0.1,0.1-0.2,0.1c-0.1,0.1-0.1,0.1-0.2,0.1c-0.3,0-0.7-0.1-0.9-0.3c-0.1-0.1-0.2-0.2-0.2-0.3c-0.1-0.1-0.1-0.3-0.1-0.4
					c0-0.3,0.1-0.5,0.3-0.7c0.1-0.1,0.2-0.1,0.3-0.2c0.1-0.1,0.3-0.1,0.4-0.1C318.3,469.1,318.5,469.2,318.7,469.4z"/>
			</g>
			<g>
				<path d="M323,472.5c0.1,0.1,0.1,0.2,0.2,0.3c0.1,0.1,0.1,0.3,0.1,0.4c0,0.2-0.1,0.5-0.3,0.7c-0.4,0.4-1,0.4-1.3,0
					c-0.1-0.1-0.2-0.2-0.2-0.3c-0.1-0.1-0.1-0.3-0.1-0.4s0.1-0.3,0.1-0.4c0-0.1,0.1-0.2,0.2-0.3c0.1-0.1,0.2-0.1,0.3-0.2
					c0.1-0.1,0.3-0.1,0.4-0.1C322.6,472.3,322.9,472.4,323,472.5z"/>
			</g>
			<g>
				<path d="M340.3,470.3c0.2,0.2,0.3,0.4,0.3,0.7c0,0.1-0.1,0.3-0.1,0.4c0,0.1-0.1,0.2-0.2,0.3c-0.4,0.4-1,0.4-1.3,0
					c-0.1-0.1-0.2-0.2-0.2-0.3c-0.1-0.1-0.1-0.3-0.1-0.4c0-0.3,0.1-0.5,0.3-0.7c0.1-0.1,0.2-0.1,0.3-0.2c0.1-0.1,0.3-0.1,0.4-0.1
					C339.8,470.1,340.1,470.1,340.3,470.3z"/>
			</g>
			<g>
				<path d="M346.5,471.3c0,0.1,0.2,0.2,0.3,0.3c0.1,0.1,0.1,0.3,0.1,0.4c0,0.3-0.1,0.5-0.3,0.7c-0.1,0-0.2,0.1-0.2,0.1
					c-0.1,0.1-0.1,0.1-0.2,0.1c-0.1,0.1-0.1,0.1-0.2,0.1c-0.3,0-0.7-0.1-0.9-0.3c-0.2-0.2-0.3-0.4-0.3-0.7c0-0.1,0.1-0.3,0.1-0.4
					c0-0.1,0.1-0.2,0.2-0.3c0.1-0.1,0.2-0.1,0.3-0.2c0.1-0.1,0.3-0.1,0.4-0.1C346,471,346.3,471.1,346.5,471.3z"/>
			</g>
			<g>
				<path d="M334,468.2c0.1,0,0.2,0.1,0.3,0.2c0.1,0.1,0.1,0.2,0.2,0.3c0.1,0.1,0.1,0.3,0.1,0.4c0,0.3-0.1,0.5-0.3,0.7
					c-0.1,0.1-0.2,0.2-0.3,0.2c-0.4,0.2-0.8,0.1-1.1-0.2c-0.2-0.2-0.3-0.4-0.3-0.7c0-0.1,0.1-0.3,0.1-0.4c0-0.1,0.1-0.2,0.2-0.3
					c0.1-0.1,0.2-0.2,0.3-0.2c0.1-0.1,0.3-0.1,0.4-0.1C333.8,468.1,333.9,468.1,334,468.2z"/>
			</g>
			<g>
				<path d="M330,471.2c0.1,0,0.2,0.1,0.3,0.2c0.2,0.2,0.3,0.4,0.3,0.7c0,0.3-0.1,0.5-0.3,0.7c-0.1,0-0.2,0.1-0.2,0.1
					c-0.1,0-0.1,0.1-0.2,0.1s-0.1,0-0.2,0c-0.2,0.1-0.4,0.1-0.6,0c-0.1,0-0.2-0.1-0.3-0.2c-0.2-0.2-0.3-0.4-0.3-0.7
					c0-0.3,0.1-0.5,0.3-0.7c0.1-0.1,0.2-0.1,0.3-0.2c0.1-0.1,0.3-0.1,0.4-0.1C329.6,471.1,329.9,471.2,330,471.2z"/>
			</g>
		</g>
	</g>
</g>
<g>
	<g>
		<path d="M326.3,488.7c0.8,0.8,1.2,1.9,1.2,3.1c0,2.4-2,4.4-4.4,4.4H309v-1.9h14.2c1.3,0,2.5-1.1,2.5-2.5c0-0.7-0.3-1.2-0.8-1.7
			s-1.1-0.8-1.7-0.8h-52.4c-1.3,0-2.5,1.1-2.5,2.5c0,0.7,0.3,1.1,0.8,1.6s1.1,0.8,1.7,0.8H302v1.9h-31.4c-1.1,0-2.3-0.5-3.1-1.2
			c-0.8-0.8-1.2-1.9-1.2-3.1c0-2.4,2-4.4,4.4-4.4h52.4C324.3,487.4,325.4,487.9,326.3,488.7z"/>
	</g>
	<g>
		<path d="M325.4,484.4v5h-56.9v-5c0-2.1,1.7-3.8,3.8-3.8h49.2C323.6,480.6,325.3,482.2,325.4,484.4z M323.5,487.4v-3.1
			c0-1.1-0.9-1.9-1.9-1.9h-49.3c-1.1,0-1.9,0.9-1.9,1.9v3.1H323.5z"/>
	</g>
	<g>
		<path d="M325.3,498.8c0,5.9-3.7,11.1-9.4,12.9c-10.8,3.4-27.2,3.4-38.1,0c-5.6-1.7-9.4-7-9.4-12.9v-4.5h33.7v1.9h-31.7v2.6
			c0,5.1,3.3,9.6,8,11.1c10.5,3.3,26.4,3.3,36.9,0c4.8-1.5,8-5.9,8-11.1v-2.6H309v-1.9h16.4V498.8z"/>
	</g>
	<g>
		<path d="M306.2,491.1l3.4,3.4c0.4,0.4,0.4,1,0,1.3c-0.4,0.4-1,0.4-1.3,0l-2.8-2.8l-2.8,2.8c-0.4,0.4-1,0.4-1.3,0
			c-0.4-0.4-0.4-1,0-1.3l3.4-3.4c0.2-0.2,0.4-0.3,0.7-0.3C305.8,490.8,306,490.9,306.2,491.1z"/>
	</g>
	<g>
		<g>
			<path d="M305.6,506.5c0.1,0.1,0.2,0.2,0.2,0.3c0.1,0.1,0.1,0.3,0.1,0.4c0,0.3-0.1,0.5-0.3,0.7c-0.2,0.3-0.6,0.4-0.9,0.3
				c-0.1,0-0.1-0.1-0.2-0.1c-0.1,0-0.1-0.1-0.2-0.1s-0.2-0.1-0.2-0.1c-0.2-0.2-0.3-0.4-0.3-0.7c0-0.1,0.1-0.3,0.1-0.4
				c0-0.1,0.1-0.2,0.2-0.3c0.2-0.2,0.4-0.3,0.7-0.3S305.3,506.3,305.6,506.5z"/>
		</g>
		<g>
			<g>
				<path d="M282.3,504.4c0.1,0,0.2,0.1,0.3,0.2c0,0.1,0,0.2,0.1,0.3c0.1,0.1,0.1,0.3,0.1,0.4c0,0.1,0,0.1,0,0.2s0,0.1,0,0.2
					c0,0.1-0.1,0.2-0.1,0.2c0,0.1-0.1,0.2-0.1,0.2c-0.4,0.4-1,0.4-1.3,0c0-0.1-0.1-0.1-0.1-0.2c0-0.1-0.1-0.1-0.1-0.2
					c-0.1-0.1-0.1-0.1-0.1-0.2s0-0.1,0-0.2c0-0.1,0.1-0.3,0.1-0.4c0-0.1,0.1-0.2,0.2-0.3c0.1-0.1,0.2-0.1,0.3-0.2
					c0.1-0.1,0.3-0.1,0.4-0.1S282.2,504.4,282.3,504.4z"/>
			</g>
			<g>
				<path d="M275.4,501.7c0.1,0.1,0.2,0.2,0.2,0.3c0.1,0.1,0.1,0.3,0.1,0.4s-0.1,0.3-0.1,0.4c0,0.1-0.1,0.2-0.2,0.3
					c-0.4,0.4-1,0.4-1.3,0c-0.1-0.1-0.2-0.2-0.2-0.3c-0.1-0.1-0.1-0.3-0.1-0.4s0.1-0.3,0.1-0.4c0-0.1,0.1-0.2,0.2-0.3
					c0.2-0.2,0.4-0.3,0.7-0.3C274.9,501.4,275.2,501.5,275.4,501.7z"/>
			</g>
			<g>
				<path d="M319.9,501.7c0,0.1,0.2,0.2,0.3,0.3c0.1,0.1,0.1,0.3,0.1,0.4s-0.1,0.3-0.1,0.4c0,0.1-0.1,0.2-0.2,0.3
					c-0.1,0-0.2,0.1-0.2,0.1c-0.1,0.1-0.1,0.1-0.2,0.1c-0.1,0.1-0.1,0.1-0.2,0.1c-0.2,0-0.4,0-0.6-0.1c-0.1,0-0.2-0.1-0.3-0.2
					c-0.1-0.1-0.2-0.2-0.2-0.3c-0.1-0.1-0.1-0.3-0.1-0.4s0.1-0.3,0.1-0.4c0-0.1,0.1-0.2,0.2-0.3c0.1-0.1,0.2-0.1,0.3-0.2
					c0.1-0.1,0.3-0.1,0.4-0.1C319.4,501.4,319.7,501.5,319.9,501.7z"/>
			</g>
			<g>
				<path d="M286.4,501.7c0,0.1,0.2,0.2,0.3,0.3c0.1,0.1,0.1,0.3,0.1,0.4c0,0.3-0.1,0.5-0.3,0.7c-0.1,0-0.2,0.1-0.2,0.1
					c-0.1,0.1-0.1,0.1-0.2,0.1c-0.1,0.1-0.1,0.1-0.2,0.1c-0.3,0-0.7-0.1-0.9-0.3c-0.1-0.1-0.2-0.2-0.2-0.3c-0.1-0.1-0.1-0.3-0.1-0.4
					c0-0.3,0.1-0.5,0.3-0.7c0.1-0.1,0.2-0.1,0.3-0.2c0.1-0.1,0.3-0.1,0.4-0.1C285.9,501.4,286.2,501.5,286.4,501.7z"/>
			</g>
			<g>
				<path d="M290.7,504.9c0.1,0.1,0.1,0.2,0.2,0.3c0.1,0.1,0.1,0.3,0.1,0.4c0,0.2-0.1,0.5-0.3,0.7c-0.4,0.4-1,0.4-1.3,0
					c-0.1-0.1-0.2-0.2-0.2-0.3c-0.1-0.1-0.1-0.3-0.1-0.4c0-0.1,0.1-0.3,0.1-0.4s0.1-0.2,0.2-0.3c0.1-0.1,0.2-0.1,0.3-0.2
					c0.1-0.1,0.3-0.1,0.4-0.1C290.2,504.6,290.5,504.7,290.7,504.9z"/>
			</g>
			<g>
				<path d="M307.9,502.7c0.2,0.2,0.3,0.4,0.3,0.7c0,0.1-0.1,0.3-0.1,0.4c0,0.1-0.1,0.2-0.2,0.3c-0.4,0.4-1,0.4-1.3,0
					c-0.1-0.1-0.2-0.2-0.2-0.3c-0.1-0.1-0.1-0.3-0.1-0.4c0-0.3,0.1-0.5,0.3-0.7c0.1-0.1,0.2-0.1,0.3-0.2c0.1-0.1,0.3-0.1,0.4-0.1
					C307.4,502.4,307.7,502.5,307.9,502.7z"/>
			</g>
			<g>
				<path d="M314.1,503.6c0,0.1,0.2,0.2,0.3,0.3c0.1,0.1,0.1,0.3,0.1,0.4c0,0.3-0.1,0.5-0.3,0.7c-0.1,0-0.2,0.1-0.2,0.1
					c-0.1,0.1-0.1,0.1-0.2,0.1c-0.1,0.1-0.1,0.1-0.2,0.1c-0.3,0-0.7-0.1-0.9-0.3s-0.3-0.4-0.3-0.7c0-0.1,0.1-0.3,0.1-0.4
					s0.1-0.2,0.2-0.3s0.2-0.1,0.3-0.2c0.1-0.1,0.3-0.1,0.4-0.1C313.7,503.4,313.9,503.5,314.1,503.6z"/>
			</g>
			<g>
				<path d="M301.7,500.6c0.1,0,0.2,0.1,0.3,0.2c0.1,0.1,0.1,0.2,0.2,0.3c0.1,0.1,0.1,0.3,0.1,0.4c0,0.3-0.1,0.5-0.3,0.7
					c-0.1,0.1-0.2,0.2-0.3,0.2c-0.4,0.2-0.8,0.1-1.1-0.2c-0.2-0.2-0.3-0.4-0.3-0.7c0-0.1,0.1-0.3,0.1-0.4c0-0.1,0.1-0.2,0.2-0.3
					c0.1-0.1,0.2-0.2,0.3-0.2c0.1-0.1,0.3-0.1,0.4-0.1S301.5,500.5,301.7,500.6z"/>
			</g>
			<g>
				<path d="M297.7,503.6c0.1,0,0.2,0.1,0.3,0.2c0.2,0.2,0.3,0.4,0.3,0.7s-0.1,0.5-0.3,0.7c-0.1,0-0.2,0.1-0.2,0.1
					c-0.1,0-0.1,0.1-0.2,0.1c-0.1,0-0.1,0-0.2,0c-0.2,0.1-0.4,0.1-0.6,0c-0.1,0-0.2-0.1-0.3-0.2c-0.2-0.2-0.3-0.4-0.3-0.7
					s0.1-0.5,0.3-0.7c0.1-0.1,0.2-0.1,0.3-0.2c0.1-0.1,0.3-0.1,0.4-0.1S297.6,503.6,297.7,503.6z"/>
			</g>
		</g>
	</g>
</g>
<g id="Page-1">
	<g id="Artboard" transform="translate(-439.000000, -537.000000)">
		<g id="gas" transform="translate(439.000000, 537.000000)">
			<g id="Group">
				<path id="Shape" class="st9" d="M250.2,384.9c0-0.6,0-1.1,0.1-1.7c-7.2-1.5-12.4-7.7-12.3-15.2c0.1-4,1.6-7.7,4.4-10.5
					c-5.8-3.6-9.4-9.9-9.3-16.7c0.2-10.7,9-19.1,19.6-18.9c8.4,0.1,15.8,5.7,18.1,13.8c6.9,1.6,11.8,7.9,11.7,15
					c-0.1,5.3-2.9,10.1-7.4,12.8c3.3,2.3,5.4,6.2,5.3,10.2c-0.1,6.7-5.6,12.2-12.5,12.1c-0.4,0-0.6,0-0.9,0
					c-0.4,4.5-4.2,7.9-8.7,7.8C253.8,393.5,250,389.6,250.2,384.9z M266.1,382.8c0.6,0.1,1.4,0.3,2,0.3c5.2,0.1,9.6-4.2,9.7-9.4
					c0.1-4-2.4-7.6-6.1-9l-3.3-1.3l3.4-1.3c4.9-1.8,8-6.2,8.1-11.4c0.1-6.2-4.3-11.3-10.4-12.4l-0.9-0.1l-0.4-0.9
					c-1.9-7.3-8.2-12.5-15.8-12.6c-9-0.1-16.6,7.2-16.7,16.2c-0.1,6.4,3.7,12.5,9.6,15.1l2.1,1l-1.8,1.3c-3,2.3-4.8,5.9-4.9,9.7
					c-0.1,6.6,4.9,12.1,11.5,12.6l2,0.2l-0.9,1.8c-0.4,0.7-0.5,1.5-0.5,2.3c0,3.2,2.5,5.9,5.7,5.9c3.2,0,5.9-2.5,5.9-5.7
					c0-0.2,0-0.5,0-0.7l-0.2-2L266.1,382.8z"/>
				<path id="Path" class="st9" d="M263.1,350c-0.4-0.6-0.1-1.5,0.5-1.9c6.1-3.8,4.9-10.7,4.7-11.1c-0.2-0.7,0.3-1.5,1-1.6
					c0.7-0.2,1.5,0.3,1.6,1c0.7,3.2,0.3,10.2-6,14c-0.2,0.1-0.5,0.2-0.7,0.2C263.9,350.8,263.4,350.5,263.1,350z"/>
				<path class="st9" d="M261.2,369.7c-0.7-0.4-1-1.1-0.7-1.9c2.8-6.5,9.1-6.6,12.1-5.8c0.7,0.3,1.2,1,1,1.7c-0.3,0.7-1,1.2-1.7,1
					c-0.2-0.1-6.3-1.7-8.7,4.1c-0.1,0.5-0.8,0.9-1.3,0.8C261.6,369.7,261.5,369.7,261.2,369.7z"/>
			</g>
		</g>
	</g>
</g>
<g id="Page-1_13_">
	<g id="Artboard_13_" transform="translate(-439.000000, -537.000000)">
		<g id="gas_1_" transform="translate(439.000000, 537.000000)">
			<g id="Group_1_">
				<path id="Shape_4_" d="M347.7,496.1c2.9,0,5.3,2.3,5.6,5.2c0.2,0,0.3,0,0.6,0c4.5,0,8,3.6,8,8c0,2.7-1.4,5.2-3.6,6.6
					c2.9,1.8,4.7,4.9,4.7,8.4c0,4.7-3.2,8.7-7.8,9.7c-1.6,5.3-6.5,8.8-12,8.8c-7,0-12.6-5.6-12.6-12.6c0-4.5,2.4-8.6,6.2-10.9
					c-1.8-1.9-2.8-4.3-2.8-6.9c0-4.9,3.5-8.9,8.2-9.8c-0.1-0.4-0.1-0.7-0.1-1.1C342.1,498.6,344.7,496.1,347.7,496.1z M351.4,503.4
					l0.2-1.3c0-0.2,0-0.3,0-0.5c0-2.1-1.7-3.8-3.8-3.8c-2.1,0-3.8,1.7-3.8,3.8c0,0.6,0.1,1.1,0.3,1.5l0.6,1.2l-1.3,0.1
					c-4.3,0.2-7.6,3.8-7.6,8.1c0,2.5,1.1,4.9,3.1,6.4l1.1,0.9l-1.4,0.6c-3.9,1.7-6.4,5.6-6.4,9.8c0,5.9,4.9,10.8,10.8,10.8
					c4.9,0,9.2-3.3,10.4-8.1l0.2-0.6l0.6-0.1c4-0.6,6.9-4,6.9-8c0-3.4-2-6.3-5.2-7.5l-2.2-0.9l2.2-0.8c2.4-0.9,4-3.2,4-5.8
					c0-3.4-2.8-6.2-6.2-6.2c-0.4,0-0.9,0.1-1.3,0.2L351.4,503.4z"/>
				<path id="Path_7_" d="M351.1,524.1c0.2,0,0.3,0.1,0.5,0.2c4.1,2.6,4.3,7.1,3.8,9.2c-0.1,0.5-0.6,0.8-1.1,0.6
					c-0.5-0.1-0.8-0.6-0.6-1.1c0.1-0.2,1-4.8-3-7.3c-0.4-0.2-0.6-0.8-0.3-1.2C350.5,524.2,350.8,524.1,351.1,524.1z"/>
				<path d="M349.7,511.7c0.3,0,0.7,0.2,0.8,0.6c1.5,3.8,5.5,2.8,5.7,2.8c0.5-0.2,1,0.2,1.1,0.6c0.2,0.5-0.2,1-0.6,1.1
					c-1.9,0.5-6.1,0.4-7.9-3.9c-0.2-0.5,0-1,0.5-1.2C349.4,511.7,349.5,511.7,349.7,511.7z"/>
			</g>
		</g>
	</g>
</g>
<line class="st10" x1="494.6" y1="297.1" x2="485.4" y2="308.4"/>
<line class="st10" x1="498.8" y1="294.9" x2="521.5" y2="288.6"/>
<path class="st11" d="M516.2,402.3c0.7,0.1,1.3-0.4,1.4-1.1l3.8-29.2c0.1-0.7-0.4-1.3-1.1-1.4c-0.7-0.1-1.3,0.4-1.4,1.1l-3.8,29.2
	C515.1,401.6,515.5,402.2,516.2,402.3z"/>
<path class="st11" d="M501.6,402.4c0.7,0,1.2-0.6,1.2-1.2v-29.4c0-0.7-0.6-1.2-1.2-1.2c-0.7,0-1.2,0.6-1.2,1.2v29.4
	C500.4,401.9,500.9,402.4,501.6,402.4z"/>
<path class="st11" d="M487,402.3c0.7-0.1,1.2-0.7,1.1-1.4l-3.8-29.2c-0.1-0.7-0.7-1.2-1.4-1.1c-0.7,0.1-1.2,0.7-1.1,1.4l3.8,29.2
	C485.7,401.9,486.3,402.4,487,402.3z"/>
<g>
	<path class="st12" d="M466.4,350.6c0.2,1.5,0.6,5,0.9,7.8l6.3,51.2c0.3,2.7,2.8,4.9,5.6,4.9h42.5c2.7,0,5.3-2.2,5.6-4.9l6.1-48.7
		c0.3-2.7-0.5-6.9-1.9-9.3l0-0.1c-1.4-2.4-4.7-4.3-7.5-4.3l-53,0.5C468.3,347.7,466.2,349,466.4,350.6z"/>
</g>
<g>
	<path class="st12" d="M530.7,344.7c-0.6,0.3-0.9,1.1-0.6,1.7l33.8,67.5c0.3,0.6,1.1,0.9,1.7,0.6l0.3-0.1c0.6-0.3,0.9-1.1,0.6-1.7
		L555,385c-0.3-0.6,0-1.5,0.5-1.9l3-2.2c0.5-0.4,0.7-1.2,0.4-1.9l-6.4-12.7c-0.3-0.6-1.1-0.9-1.7-0.7l-3.9,1.6
		c-0.6,0.3-1.4,0-1.8-0.6l-12.5-21.5c-0.3-0.6-1.1-0.8-1.7-0.5L530.7,344.7z"/>
</g>
<rect x="469.2" y="342.2" class="st13" width="54.8" height="11.2"/>
<g>
	<path d="M524.2,288.5c-6.4-2.1-15-3.5-24.3-3.8v-10.2c0-0.6-0.5-1.1-1.1-1.1h-5.9c-0.6,0-1.1,0.5-1.1,1.1v10.2
		c-9.3,0.3-17.9,1.6-24.3,3.8c-7.2,2.4-11,5.6-11,9.1l0,0v37.5c0,5.7,4.4,10.4,12.8,13.7c7.2,2.8,16.8,4.4,27,4.4
		c10.1,0,19.5-1.5,26.4-4.3c8.2-3.3,12.5-8.1,12.5-13.9v-37.3C535.2,294,531.4,290.9,524.2,288.5z M494,275.6h3.7v10.2v10.1H494
		v-10.1V275.6z M468.2,290.6c6.2-2.1,14.6-3.4,23.6-3.7V297l0,0c0,0.6,0.5,1.1,1.1,1.1h5.9c0.6,0,1.1-0.5,1.1-1.1l0,0v-10.1
		c9.1,0.3,17.4,1.6,23.6,3.7c6,2,9.5,4.6,9.5,7c0,2.6-3.9,5.3-10.4,7.3c-7.1,2.2-16.6,3.4-26.7,3.4c-9.2,0-17.8-1-24.7-2.8
		c-0.7-0.2-1.4-0.4-2.1-0.6c-0.2-0.1-0.4-0.1-0.6-0.2c-6.2-2-9.8-4.7-9.8-7.1C458.6,295.2,462.1,292.6,468.2,290.6z M533,302.1v13.4
		l0,0c0,2.6-3.9,5.3-10.4,7.3c-7.1,2.2-16.6,3.4-26.7,3.4c-10.1,0-19.6-1.2-26.7-3.4c-6.5-2-10.4-4.8-10.4-7.3v-13.4
		c0,0,0,0,0.1,0.1c0.1,0.1,0.1,0.1,0.2,0.2c0,0,0.1,0.1,0.1,0.1c0.1,0.1,0.2,0.1,0.3,0.2c0,0,0.1,0.1,0.1,0.1
		c0.3,0.2,0.6,0.4,0.9,0.6c0,0,0.1,0.1,0.1,0.1c0.1,0.1,0.2,0.1,0.3,0.2c0.1,0,0.1,0.1,0.2,0.1c0.1,0.1,0.2,0.1,0.3,0.2
		c0.1,0,0.1,0.1,0.2,0.1c0.1,0.1,0.2,0.1,0.3,0.2c0.1,0,0.1,0.1,0.2,0.1c0.1,0.1,0.2,0.1,0.4,0.2c0.1,0,0.1,0.1,0.2,0.1
		c0.1,0.1,0.3,0.1,0.5,0.2c0,0,0.1,0,0.1,0.1c0.2,0.1,0.4,0.2,0.6,0.3c0.1,0,0.1,0,0.1,0.1c0.2,0.1,0.3,0.1,0.5,0.2
		c0.1,0,0.2,0.1,0.2,0.1c0.1,0.1,0.3,0.1,0.4,0.2c0.1,0,0.2,0.1,0.3,0.1c0.1,0.1,0.3,0.1,0.4,0.2c0.1,0,0.2,0.1,0.3,0.1
		c0.1,0.1,0.3,0.1,0.5,0.2c0.1,0,0.2,0.1,0.3,0.1c0.2,0.1,0.3,0.1,0.5,0.2c0.1,0,0.2,0.1,0.3,0.1c0.3,0.1,0.5,0.2,0.8,0.2h0
		c7.3,2.3,17.1,3.5,27.4,3.5l0,0l0,0c9.4,0,18.2-1,25.3-2.9c0.7-0.2,1.4-0.4,2.1-0.6c0.3-0.1,0.5-0.2,0.8-0.3c0.1,0,0.2-0.1,0.2-0.1
		c0.2-0.1,0.3-0.1,0.5-0.2c0.1,0,0.2-0.1,0.3-0.1c0.1-0.1,0.3-0.1,0.5-0.2c0.1,0,0.2-0.1,0.3-0.1c0.1-0.1,0.3-0.1,0.4-0.2
		c0.1,0,0.2-0.1,0.3-0.1c0.1-0.1,0.3-0.1,0.4-0.2c0.1,0,0.2-0.1,0.2-0.1c0.2-0.1,0.3-0.1,0.5-0.2c0.1,0,0.1,0,0.1-0.1
		c0.2-0.1,0.4-0.2,0.6-0.3c0,0,0.1,0,0.1-0.1c0.2-0.1,0.3-0.1,0.5-0.2c0.1,0,0.1-0.1,0.2-0.1c0.1-0.1,0.3-0.1,0.4-0.2
		c0.1,0,0.1-0.1,0.2-0.1c0.1-0.1,0.2-0.1,0.3-0.2c0.1,0,0.1-0.1,0.2-0.1c0.1-0.1,0.2-0.1,0.3-0.2c0.1,0,0.1-0.1,0.2-0.1
		c0.1-0.1,0.2-0.1,0.3-0.2c0.1,0,0.1-0.1,0.1-0.1c0.3-0.2,0.6-0.4,0.9-0.6c0,0,0.1-0.1,0.1-0.1c0.1-0.1,0.2-0.1,0.3-0.2
		c0.1,0,0.1-0.1,0.1-0.1C532.8,302.3,532.9,302.2,533,302.1C533,302.1,533,302.1,533,302.1z M521.9,346.8
		c-6.7,2.7-15.8,4.2-25.6,4.2c-9.8,0-19.4-1.5-26.2-4.2c-5.2-2-11.4-5.7-11.4-11.6V320c2,1.9,5.3,3.6,9.8,5
		c7.3,2.3,17.1,3.5,27.4,3.5c10.3,0,20.1-1.3,27.4-3.5c4.5-1.4,7.8-3.1,9.8-5v15C533,341.1,527,344.8,521.9,346.8z"/>
	<path d="M493.4,272.2c0.2,0,0.4-0.1,0.6-0.2c1.2-0.8,1.8-1,2.1-1.1c0.1,0,0.2,0,0.6,0.3c0.3,0.2,0.7,0.5,1.2,0.7
		c0.3,0.1,0.7,0.1,1-0.1s0.5-0.6,0.5-0.9c-0.2-4-2.5-6.3-4.7-6.9c-0.4-0.1-0.8,0-1.1,0.3s-0.4,0.7-0.3,1.1c0.5,1.6,0.2,3.3-0.9,5.3
		c-0.2,0.4-0.1,1,0.2,1.3C492.9,272.1,493.2,272.2,493.4,272.2z M495.8,267.1c0.4,0.4,0.8,1,1,1.7c-0.2-0.1-0.4-0.1-0.6-0.1
		c-0.2,0-0.4,0-0.6,0.1C495.7,268.2,495.7,267.6,495.8,267.1z"/>
</g>
<polyline class="st14" points="485.4,307.7 485.4,323.8 485.4,350.9 "/>
<g>
	<path d="M828.3,421.8l2.2,0l0.1,20.8c0,6.3,5.2,11.4,11.5,11.4l29.7-0.1l15,10.7l17.8,12.6c1,0.7,2.3,1,3.5,0.8
		c1.2-0.2,2.3-0.9,3-1.9c1.5-2.1,1-5-1.1-6.5l-16.8-11.9l0,0l-4.9-3.5c-0.1-0.1-0.2-0.2-0.2-0.3l5.9,0c0,0,0.1,0,0.1,0
		c6.3,0,11.4-5.1,11.4-11.4l0-0.8l5,0c3,0,5.4-2.4,5.4-5.4c0-3.8-3.1-6.8-6.9-6.8l-3.6,0l0-8l1.8,0c2.8,0,5.1-2.3,5.1-5.1l0-2.3
		l-89.1,0.3l0,2.3C823.1,419.5,825.4,421.8,828.3,421.8z M833,442.6l-0.1-20.8l22.2-0.1l0,8.7c0,1.2,0.2,2.4,0.5,3.5
		c-1,0.7-1.8,1.5-2.5,2.4c-0.6,0.8-0.8,1.8-0.6,2.8c0.2,1,0.7,1.8,1.5,2.4l1.1,0.8h0c0,3.7,1.8,7.1,4.5,9.2l-17.8,0.1
		C837,451.6,833,447.6,833,442.6z M866.6,451.3c-2.4,0-4.6-1-6.3-2.7c-1.2-1.2-2.1-2.8-2.4-4.5l10.1,7.1L866.6,451.3z M909,474.7
		c-0.3,0.5-0.8,0.8-1.4,0.9c-0.1,0-0.2,0-0.4,0c-0.5,0-0.9-0.1-1.3-0.4l-16.8-11.9l0,0l-1.1-0.8l2.5-3.6l17.9,12.7
		C909.4,472.4,909.7,473.7,909,474.7z M888.6,457.5l-2.5,3.6l-13.4-9.5l0-0.1l-0.2,0l-16.9-12c-0.3-0.2-0.4-0.5-0.5-0.8
		c-0.1-0.3,0-0.6,0.2-0.9c0.4-0.6,0.9-1.1,1.5-1.5c2,3.4,5.7,5.7,9.9,5.6l1.9,0l5.2,0l12.1,8.6c0.2,0.1,0.3,0.3,0.3,0.5
		c0,0.2,0,0.4-0.1,0.6c-1.1,1.5-0.7,3.6,0.8,4.6L888.6,457.5z M894,451.5C894,451.5,893.9,451.5,894,451.5l-5.3,0c0-0.3,0-0.6,0-0.9
		c-0.1-0.9-0.6-1.6-1.4-2.2l-9.3-6.6l24.9-0.1l0,0.8C902.9,447.5,898.9,451.5,894,451.5z M913.3,436.4c0,1.6-1.3,2.9-2.9,2.9l-6.3,0
		l-28.4,0.1c1-0.8,1.9-1.8,2.6-3c1.6-2.6,4.6-4.3,7.8-4.3l22.9-0.1C911.3,432.1,913.3,434,913.3,436.4z M902.8,429.6l-16.8,0
		c-4,0-7.8,2.1-9.9,5.5c-1.6,2.7-4.5,4.3-7.6,4.3l-1.9,0c-4.9,0-9-4-9-8.9l0-8.8l45.2-0.1L902.8,429.6z M909.7,416.6
		c-0.1,1.4-1.2,2.4-2.6,2.4l-78.9,0.2c-1.4,0-2.5-1.1-2.6-2.4L909.7,416.6z"/>
</g>
<g>
	<path class="st15" d="M937.9,411.2c3.6,0,6.5-2.9,6.5-6.5c0-3.6-2.9-6.5-6.5-6.5c-3.6,0-6.5,2.9-6.5,6.5
		C931.5,408.3,934.4,411.2,937.9,411.2z M937.9,401.9c1.6,0,2.9,1.3,2.9,2.9s-1.3,2.9-2.9,2.9c-1.6,0-2.9-1.3-2.9-2.9
		S936.4,401.9,937.9,401.9z"/>
	<path class="st15" d="M917.5,402.2c3,0,5.5-2.5,5.5-5.5s-2.5-5.5-5.5-5.5s-5.5,2.5-5.5,5.5S914.5,402.2,917.5,402.2z M917.5,394.8
		c1.1,0,1.9,0.9,1.9,1.9c0,1.1-0.9,1.9-1.9,1.9s-1.9-0.9-1.9-1.9C915.6,395.6,916.5,394.8,917.5,394.8z"/>
	<path class="st15" d="M955.2,379.1C955.2,379,955.2,379,955.2,379.1c0-0.1,0-0.2,0-0.3c0,0,0,0,0,0c0-0.1,0-0.1-0.1-0.2v0
		c0-0.1-0.1-0.1-0.1-0.2c0,0,0,0,0,0c0-0.1-0.1-0.1-0.1-0.2l0,0c0-0.1-0.1-0.1-0.2-0.2l0,0l-7.1-6.4c-0.4-0.3-0.8-0.5-1.3-0.5
		c-0.5,0-0.9,0.3-1.2,0.6c-0.7,0.8-1.8,1.2-3,1.2c-1.9,0-3.5-1.1-3.5-2.5c0-0.9,0.7-1.7,1.8-2.1c0.6-0.2,1-0.7,1.1-1.4
		c0.1-0.6-0.1-1.2-0.6-1.6l-5.6-5c-0.5-0.5-1.2-0.6-1.9-0.3l-43.5,17.6l0,0c0,0,0,0-0.1,0c0,0,0,0-0.1,0c0,0,0,0-0.1,0
		c0,0,0,0-0.1,0s0,0,0,0c0,0,0,0-0.1,0c0,0,0,0,0,0c0,0,0,0-0.1,0.1c0,0,0,0,0,0c0,0,0,0-0.1,0.1c0,0,0,0,0,0c0,0,0,0-0.1,0.1
		c0,0,0,0,0,0c0,0,0,0.1-0.1,0.1c0,0,0,0.1,0,0.1c0,0,0,0,0,0.1c0,0,0,0,0,0.1c0,0,0,0,0,0.1c0,0,0,0,0,0.1c0,0,0,0,0,0.1
		c0,0,0,0,0,0.1c0,0,0,0.1,0,0.1c0,0,0,0,0,0.1c0,0,0,0.1,0,0.1v0v7c0,1,0.8,1.8,1.8,1.8c2.6,0,4.8,1.6,4.8,3.5s-2.2,3.5-4.8,3.5
		c-1,0-1.8,0.8-1.8,1.8v17.5c0,1,0.8,1.8,1.8,1.8h4.7c1,0,1.8-0.8,1.8-1.8c0-2.7,2.9-4.9,6.6-4.9s6.6,2.2,6.6,4.9
		c0,1,0.8,1.8,1.8,1.8h41.6c1,0,1.8-0.8,1.8-1.8v-34.9C955.2,379.2,955.2,379.1,955.2,379.1z M933.5,363.7l3,2.7
		c-1.1,1.1-1.7,2.5-1.7,4c0,3.3,3.2,6.1,7.1,6.1c1.6,0,3.1-0.5,4.4-1.3l2.4,2.2h-49.1L933.5,363.7z M951.6,412.4h-38.3
		c-1-3.8-5.1-6.7-9.9-6.7c-4.9,0-8.9,2.9-9.9,6.7h-1.3v-14.1c3.8-0.7,6.6-3.5,6.6-6.9c0-3.4-2.8-6.2-6.6-6.9V381h59.5L951.6,412.4
		L951.6,412.4z"/>
	<path class="st15" d="M923.8,368.8c-2.3,0-4.2,1.9-4.2,4.2s1.9,4.2,4.2,4.2c2.3,0,4.2-1.9,4.2-4.2S926.1,368.8,923.8,368.8z
		 M923.8,373.6c-0.3,0-0.6-0.3-0.6-0.6c0-0.3,0.3-0.6,0.6-0.6s0.6,0.3,0.6,0.6C924.4,373.3,924.1,373.6,923.8,373.6z"/>
</g>
<g>
	<path class="st16" d="M868.5,343.7c0-0.5-1.3-10.9-9.5-20.9c1-1,1.6-2.4,1.6-3.9l0-1.5c0-3.1-2.5-5.6-5.6-5.6l-32.4,0
		c-3.1,0-5.6,2.5-5.6,5.6l0,1.5c0,1.5,0.6,2.9,1.6,3.9c-8.2,10-9.5,20.5-9.5,20.9c0,0.1,0,0.1,0,0.2l0,65.6c0,3.5,2.9,6.4,6.4,6.4
		l46.8,0c3.5,0,6.4-2.9,6.4-6.4l0-65.6C868.6,343.8,868.5,343.8,868.5,343.7z M865,409.5c0,1.6-1.3,2.8-2.8,2.8l-46.8,0
		c-1.6,0-2.8-1.3-2.8-2.8l0-65.5c0.1-1,1.6-10.2,8.7-18.9l35.2,0c7.1,8.7,8.5,17.9,8.6,18.9L865,409.5L865,409.5z M857.1,317.4
		l0,1.5c0,1.2-0.9,2.1-2.1,2.1l-32.4,0c-1.2,0-2.1-0.9-2.1-2.1l0-1.5c0-1.2,0.9-2.1,2.1-2.1l32.4,0
		C856.1,315.3,857.1,316.2,857.1,317.4z"/>
	<path class="st16" d="M816.4,345.9c-0.5,0-0.9,0.2-1.3,0.5c-0.3,0.3-0.5,0.8-0.5,1.3l0,52.5c0,3.5,2.8,6.3,6.3,6.3l35.8,0
		c3.5,0,6.3-2.8,6.3-6.3l0-59.9c0-0.8-0.5-1.4-1.2-1.7c-0.5-0.2-5.6-1.6-17.2,3.2C833.8,346.2,816.6,345.9,816.4,345.9z
		 M859.5,341.8l0,58.4c0,1.5-1.2,2.8-2.8,2.8l-35.8,0c-1.5,0-2.8-1.2-2.8-2.8l0-50.7c4.9,0,18.3-0.5,27.9-4.4
		C853.2,342.1,857.5,341.7,859.5,341.8z"/>
</g>
<line class="st17" x1="35.1" y1="415" x2="1333.9" y2="414.4"/>
<g>
	<path class="st5" d="M1077.1,393.1l0.3-1.5c0.6-2.7,1-5.6,1.2-8.5c0.1-3,0-5.9-0.4-8.6l-0.2-1.5l1.4-0.6c4.4-2,10.1-2.9,15.9-2.7
		c13.2,0.6,23.3,6.8,23.5,14.5c0,0.2,0,0.4,0,0.6c-0.3,7.9-11.2,13.6-24.7,13c-5.8-0.3-11.4-1.7-15.7-4.1L1077.1,393.1z
		 M1082.6,379.4c0,1.3,0,2.6,0,3.9c-0.1,2.7-0.4,5.3-0.9,7.7c3.5,1.7,8,2.7,12.6,2.9c10.9,0.5,20.3-3.7,20.6-9.2c0-0.1,0-0.2,0-0.4
		c-0.1-4.7-8.1-10.1-19.7-10.7c-4.6-0.2-9.1,0.4-12.8,1.8C1082.5,376.8,1082.6,378.1,1082.6,379.4z"/>
</g>
<g>
	<path class="st5" d="M1050.7,384.8c-0.2-5.8,7.1-10.7,16.5-11.3c0.9-0.1,1.8-0.1,2.7,0l1.8,0.1l1.3,20.4l-1.8,0.3
		c-0.9,0.1-1.8,0.2-2.7,0.3c-9.6,0.6-17.4-3.5-17.8-9.4L1050.7,384.8z M1067.9,377.4c-0.2,0-0.3,0-0.5,0c-7.6,0.5-12.9,4.2-12.8,7.2
		l0,0.1c0.2,3.1,5.8,6.2,13.6,5.7c0.2,0,0.3,0,0.5,0L1067.9,377.4z"/>
</g>
<g id="Animals_45_">
	<g>
		<g id="Artboard_29_" transform="translate(-3113.000000, -1056.000000)">
			<g id="noun_bag_606249_17_">
				<g transform="translate(3113.000000, 1056.000000)">
					<g id="Group_17_">
						<g transform="translate(0.215533, 0.000000)">
							<path id="Shape_20_" d="M1207,414.7c-0.2,0-0.3,0-0.5,0.1c-0.6,0.1-1.4,0.6-2.2,1.3l-13.1,0c-0.7-0.6-1.4-1-1.9-1.1
								c-0.6-0.1-1.1-0.1-1.3-0.1h0c0,0,0,0,0,0c0,0,0,0,0,0c-0.2,0-0.4,0-0.6,0.2c-0.5,0.4-0.7,1-0.7,1.9c0,0.8,0.3,1.9,0.8,3.1
								c-0.3,2.1-0.5,5.3-0.5,9c0,3.7,0.2,6.9,0.5,9c-0.6,1.2-0.9,2.3-0.8,3.1c0,0.9,0.2,1.5,0.7,1.9c0.7,0.5,2.2,0.5,3.8-1l13.1,0
								c1.7,1.5,3.2,1.5,3.8,1c0.5-0.4,0.7-1,0.7-1.9c0-0.8-0.3-1.9-0.8-3.1c0.3-2.1,0.5-5.3,0.5-9c0-3.7-0.2-6.9-0.5-9
								c0.6-1.2,0.9-2.3,0.8-3.1c0-0.9-0.2-1.5-0.7-1.9C1207.9,414.9,1207.5,414.7,1207,414.7z M1207.2,415.9c0.1,0,0.2,0.1,0.2,0.1
								c-0.1-0.1,0.2,0.3,0.3,1c0,0.7-0.1,1.6-0.8,2.7c-0.1,0.1-0.1,0.2-0.1,0.4c0.3,2,0.5,5.2,0.5,8.9c0,3.7-0.2,7-0.5,8.9
								c0,0.1,0,0.3,0.1,0.4c0.6,1.1,0.8,2.1,0.8,2.7c0,0.7-0.3,1-0.3,1c-0.1,0.1-1,0.5-2.6-1.1c-0.1-0.1-0.3-0.2-0.4-0.2l-13.4,0
								c-0.2,0-0.3,0.1-0.4,0.2c-1.6,1.6-2.5,1.1-2.6,1.1c0.1,0.1-0.2-0.3-0.3-1c0-0.7,0.1-1.6,0.8-2.7c0.1-0.1,0.1-0.2,0.1-0.4
								c-0.3-2-0.5-5.2-0.5-8.9c0-3.7,0.2-7,0.5-8.9c0-0.1,0-0.3-0.1-0.4c-0.6-1.1-0.8-2.1-0.8-2.7c0-0.6,0.3-0.9,0.2-0.9
								c0.3,0,0.6,0,1,0c0.4,0.1,0.9,0.3,1.6,1c0.1,0.1,0.3,0.2,0.4,0.2l13.4,0c0.2,0,0.3-0.1,0.4-0.2c0.8-0.8,1.4-1.1,1.9-1.1
								C1206.9,415.9,1207.1,415.9,1207.2,415.9z M1191.1,424.3c-0.3,0-0.6,0.3-0.6,0.6l0,7.1c0,0.3,0.3,0.6,0.6,0.6l13.2,0
								c0.3,0,0.6-0.3,0.6-0.6l0-7.1c0-0.3-0.3-0.6-0.6-0.6L1191.1,424.3z M1191.7,425.5l12,0l0,5.9l-12,0L1191.7,425.5z"/>
						</g>
					</g>
				</g>
			</g>
		</g>
	</g>
</g>
<g>
	<path d="M1267.9,387.3h-7.9c-0.6,0-1.1-0.5-1.1-1.1v-7.9c0-0.6,0.5-1.1,1.1-1.1h7.9c0.6,0,1.1,0.5,1.1,1.1v7.9
		C1269.1,386.8,1268.5,387.3,1267.9,387.3z M1261.2,385h5.6v-5.6h-5.6V385z"/>
	<path d="M1277.2,414.8h-26.4c-0.6,0-1.1-0.5-1.1-1.1v-20.1c0-0.6,0.5-1.1,1.1-1.1h26.4c0.6,0,1.1,0.5,1.1,1.1v20.1
		C1278.3,414.3,1277.8,414.8,1277.2,414.8z M1251.9,412.5h24.1v-17.8h-24.1V412.5z"/>
	<path d="M1283.6,414.8h-39.3c-0.6,0-1.1-0.5-1.1-1.1v-26.1h-2.8c-0.6,0-1.1-0.5-1.1-1.1c0-0.2,0.1-0.4,0.2-0.6l7.5-11.6
		c0.1-0.2,0.3-0.4,0.6-0.4l16-5.8c0.2-0.1,0.5-0.1,0.8,0l16,5.8c0.2,0.1,0.4,0.2,0.6,0.4l7.5,11.6c0.3,0.5,0.2,1.2-0.3,1.6
		c-0.2,0.1-0.4,0.2-0.6,0.2h-2.8v26.1C1284.8,414.3,1284.3,414.8,1283.6,414.8z M1245.5,412.5h37v-26.1c0-0.6,0.5-1.1,1.1-1.1h1.8
		l-6.2-9.6l-15.3-5.6l-15.3,5.6l-6.2,9.6h1.8c0.6,0,1.1,0.5,1.1,1.1V412.5z"/>
	<path d="M1277.2,414.8c-0.2,0-0.5-0.1-0.7-0.2l-26.4-20.1c-0.5-0.4-0.6-1.1-0.2-1.6c0.4-0.5,1.1-0.6,1.6-0.2l26.4,20.1
		c0.5,0.4,0.6,1.1,0.2,1.6C1277.9,414.6,1277.5,414.8,1277.2,414.8z"/>
	<path d="M1250.8,414.8c-0.6,0-1.1-0.5-1.1-1.1c0-0.3,0.2-0.7,0.4-0.9l26.4-20.1c0.5-0.4,1.2-0.3,1.6,0.2c0.4,0.5,0.3,1.2-0.2,1.6
		l-26.4,20.1C1251.3,414.7,1251.1,414.8,1250.8,414.8z"/>
</g>
<g id="Animals_1_">
	<g>
		<g id="Artboard_28_" transform="translate(-3113.000000, -1056.000000)">
			<g id="noun_bag_606249_16_">
				<g transform="translate(3113.000000, 1056.000000)">
					<g id="Group_16_">
						<g transform="translate(0.215533, 0.000000)">
							<path id="Shape_19_" d="M1230.8,414.7c-0.2,0-0.3,0-0.5,0.1c-0.6,0.1-1.4,0.6-2.2,1.3l-13.1,0c-0.7-0.6-1.4-1-1.9-1.1
								c-0.6-0.1-1.1-0.1-1.3-0.1h0c0,0,0,0,0,0c0,0,0,0,0,0c-0.2,0-0.4,0-0.6,0.2c-0.5,0.4-0.7,1-0.7,1.9c0,0.8,0.3,1.9,0.8,3.1
								c-0.3,2.1-0.5,5.3-0.5,9c0,3.7,0.2,6.9,0.5,9c-0.6,1.2-0.9,2.3-0.8,3.1c0,0.9,0.2,1.5,0.7,1.9c0.7,0.5,2.2,0.5,3.8-1l13.1,0
								c1.7,1.5,3.2,1.5,3.8,1c0.5-0.4,0.7-1,0.7-1.9c0-0.8-0.3-1.9-0.8-3.1c0.3-2.1,0.5-5.3,0.5-9c0-3.7-0.2-6.9-0.5-9
								c0.6-1.2,0.9-2.3,0.8-3.1c0-0.9-0.2-1.5-0.7-1.9C1231.7,414.9,1231.3,414.7,1230.8,414.7z M1231.1,415.9
								c0.1,0,0.2,0.1,0.2,0.1c-0.1-0.1,0.2,0.3,0.3,1c0,0.7-0.1,1.6-0.8,2.7c-0.1,0.1-0.1,0.2-0.1,0.4c0.3,2,0.5,5.2,0.5,8.9
								c0,3.7-0.2,7-0.5,8.9c0,0.1,0,0.3,0.1,0.4c0.6,1.1,0.8,2.1,0.8,2.7c0,0.7-0.3,1-0.3,1c-0.1,0.1-1,0.5-2.6-1.1
								c-0.1-0.1-0.3-0.2-0.4-0.2l-13.4,0c-0.2,0-0.3,0.1-0.4,0.2c-1.6,1.6-2.5,1.1-2.6,1.1c0.1,0.1-0.2-0.3-0.3-1
								c0-0.7,0.1-1.6,0.8-2.7c0.1-0.1,0.1-0.2,0.1-0.4c-0.3-2-0.5-5.2-0.5-8.9c0-3.7,0.2-7,0.5-8.9c0-0.1,0-0.3-0.1-0.4
								c-0.6-1.1-0.8-2.1-0.8-2.7c0-0.6,0.3-0.9,0.2-0.9c0.3,0,0.6,0,1,0c0.4,0.1,0.9,0.3,1.6,1c0.1,0.1,0.3,0.2,0.4,0.2l13.4,0
								c0.2,0,0.3-0.1,0.4-0.2c0.8-0.8,1.4-1.1,1.9-1.1C1230.8,415.9,1230.9,415.9,1231.1,415.9z M1215,424.3
								c-0.3,0-0.6,0.3-0.6,0.6l0,7.1c0,0.3,0.3,0.6,0.6,0.6l13.2,0c0.3,0,0.6-0.3,0.6-0.6l0-7.1c0-0.3-0.3-0.6-0.6-0.6L1215,424.3z
								 M1215.6,425.5l12,0l0,5.9l-12,0L1215.6,425.5z"/>
						</g>
					</g>
				</g>
			</g>
		</g>
	</g>
</g>
<g id="Animals_3_">
	<g>
		<g id="Artboard_27_" transform="translate(-3113.000000, -1056.000000)">
			<g id="noun_bag_606249_15_">
				<g transform="translate(3113.000000, 1056.000000)">
					<g id="Group_15_">
						<g transform="translate(0.215533, 0.000000)">
							<path id="Shape_18_" d="M1254.6,414.5c-0.2,0-0.3,0-0.5,0.1c-0.6,0.1-1.4,0.6-2.2,1.3l-13.1,0c-0.7-0.6-1.4-1-1.9-1.1
								c-0.6-0.1-1.1-0.1-1.3-0.1h0c0,0,0,0,0,0c0,0,0,0,0,0c-0.2,0-0.4,0-0.6,0.2c-0.5,0.4-0.7,1-0.7,1.9c0,0.8,0.3,1.9,0.8,3.1
								c-0.3,2.1-0.5,5.3-0.5,9c0,3.7,0.2,6.9,0.5,9c-0.6,1.2-0.9,2.3-0.8,3.1c0,0.9,0.2,1.5,0.7,1.9c0.7,0.5,2.2,0.5,3.8-1l13.1,0
								c1.7,1.5,3.2,1.5,3.8,1c0.5-0.4,0.7-1,0.7-1.9c0-0.8-0.3-1.9-0.8-3.1c0.3-2.1,0.5-5.3,0.5-9c0-3.7-0.2-6.9-0.5-9
								c0.6-1.2,0.9-2.3,0.8-3.1c0-0.9-0.2-1.5-0.7-1.9C1255.5,414.6,1255.1,414.5,1254.6,414.5z M1254.8,415.7
								c0.1,0,0.2,0.1,0.2,0.1c-0.1-0.1,0.2,0.3,0.3,1c0,0.7-0.1,1.6-0.8,2.7c-0.1,0.1-0.1,0.2-0.1,0.4c0.3,2,0.5,5.2,0.5,8.9
								c0,3.7-0.2,7-0.5,8.9c0,0.1,0,0.3,0.1,0.4c0.6,1.1,0.8,2.1,0.8,2.7c0,0.7-0.3,1-0.3,1c-0.1,0.1-1,0.5-2.6-1.1
								c-0.1-0.1-0.3-0.2-0.4-0.2l-13.4,0c-0.2,0-0.3,0.1-0.4,0.2c-1.6,1.6-2.5,1.1-2.6,1.1c0.1,0.1-0.2-0.3-0.3-1
								c0-0.7,0.1-1.6,0.8-2.7c0.1-0.1,0.1-0.2,0.1-0.4c-0.3-2-0.5-5.2-0.5-8.9c0-3.7,0.2-7,0.5-8.9c0-0.1,0-0.3-0.1-0.4
								c-0.6-1.1-0.8-2.1-0.8-2.7c0-0.6,0.3-0.9,0.2-0.9c0.3,0,0.6,0,1,0c0.4,0.1,0.9,0.3,1.6,1c0.1,0.1,0.3,0.2,0.4,0.2l13.4,0
								c0.2,0,0.3-0.1,0.4-0.2c0.8-0.8,1.4-1.1,1.9-1.1C1254.5,415.7,1254.7,415.7,1254.8,415.7z M1238.8,424.1
								c-0.3,0-0.6,0.3-0.6,0.6l0,7.1c0,0.3,0.3,0.6,0.6,0.6l13.2,0c0.3,0,0.6-0.3,0.6-0.6l0-7.1c0-0.3-0.3-0.6-0.6-0.6
								L1238.8,424.1z M1239.4,425.3l12,0l0,5.9l-12,0L1239.4,425.3z"/>
						</g>
					</g>
				</g>
			</g>
		</g>
	</g>
</g>
<g id="Animals_5_">
	<g>
		<g id="Artboard_26_" transform="translate(-3113.000000, -1056.000000)">
			<g id="noun_bag_606249_14_">
				<g transform="translate(3113.000000, 1056.000000)">
					<g id="Group_14_">
						<g transform="translate(0.215533, 0.000000)">
							<path id="Shape_17_" d="M1219.8,441.4c-0.2,0-0.3,0-0.5,0.1c-0.6,0.1-1.4,0.6-2.2,1.3l-13.1,0c-0.7-0.6-1.4-1-1.9-1.1
								c-0.6-0.1-1.1-0.1-1.3-0.1h0c0,0,0,0,0,0c0,0,0,0,0,0c-0.2,0-0.4,0-0.6,0.2c-0.5,0.4-0.7,1-0.7,1.9c0,0.8,0.3,1.9,0.8,3.1
								c-0.3,2.1-0.5,5.3-0.5,9c0,3.7,0.2,6.9,0.5,9c-0.6,1.2-0.9,2.3-0.8,3.1c0,0.9,0.2,1.5,0.7,1.9c0.7,0.5,2.2,0.5,3.8-1l13.1,0
								c1.7,1.5,3.2,1.5,3.8,1c0.5-0.4,0.7-1,0.7-1.9c0-0.8-0.3-1.9-0.8-3.1c0.3-2.1,0.5-5.3,0.5-9c0-3.7-0.2-6.9-0.5-9
								c0.6-1.2,0.9-2.3,0.8-3.1c0-0.9-0.2-1.5-0.7-1.9C1220.7,441.6,1220.3,441.4,1219.8,441.4z M1220,442.6c0.1,0,0.2,0.1,0.2,0.1
								c-0.1-0.1,0.2,0.3,0.3,1c0,0.7-0.1,1.6-0.8,2.7c-0.1,0.1-0.1,0.2-0.1,0.4c0.3,2,0.5,5.2,0.5,8.9c0,3.7-0.2,7-0.5,8.9
								c0,0.1,0,0.3,0.1,0.4c0.6,1.1,0.8,2.1,0.8,2.7c0,0.7-0.3,1-0.3,1c-0.1,0.1-1,0.5-2.6-1.1c-0.1-0.1-0.3-0.2-0.4-0.2l-13.4,0
								c-0.2,0-0.3,0.1-0.4,0.2c-1.6,1.6-2.5,1.1-2.6,1.1c0.1,0.1-0.2-0.3-0.3-1c0-0.7,0.1-1.6,0.8-2.7c0.1-0.1,0.1-0.2,0.1-0.4
								c-0.3-2-0.5-5.2-0.5-8.9c0-3.7,0.2-7,0.5-8.9c0-0.1,0-0.3-0.1-0.4c-0.6-1.1-0.8-2.1-0.8-2.7c0-0.6,0.3-0.9,0.2-0.9
								c0.3,0,0.6,0,1,0c0.4,0.1,0.9,0.3,1.6,1c0.1,0.1,0.3,0.2,0.4,0.2l13.4,0c0.2,0,0.3-0.1,0.4-0.2c0.8-0.8,1.4-1.1,1.9-1.1
								C1219.7,442.6,1219.9,442.6,1220,442.6z M1204,451c-0.3,0-0.6,0.3-0.6,0.6l0,7.1c0,0.3,0.3,0.6,0.6,0.6l13.2,0
								c0.3,0,0.6-0.3,0.6-0.6l0-7.1c0-0.3-0.3-0.6-0.6-0.6L1204,451z M1204.6,452.2l12,0l0,5.9l-12,0L1204.6,452.2z"/>
						</g>
					</g>
				</g>
			</g>
		</g>
	</g>
</g>
<g id="Animals_7_">
	<g>
		<g id="Artboard_25_" transform="translate(-3113.000000, -1056.000000)">
			<g id="noun_bag_606249_13_">
				<g transform="translate(3113.000000, 1056.000000)">
					<g id="Group_13_">
						<g transform="translate(0.215533, 0.000000)">
							<path id="Shape_16_" d="M1243.8,440.8c-0.2,0-0.3,0-0.5,0.1c-0.6,0.1-1.4,0.6-2.2,1.3l-13.1,0c-0.7-0.6-1.4-1-1.9-1.1
								c-0.6-0.1-1.1-0.1-1.3-0.1h0c0,0,0,0,0,0c0,0,0,0,0,0c-0.2,0-0.4,0-0.6,0.2c-0.5,0.4-0.7,1-0.7,1.9c0,0.8,0.3,1.9,0.8,3.1
								c-0.3,2.1-0.5,5.3-0.5,9c0,3.7,0.2,6.9,0.5,9c-0.6,1.2-0.9,2.3-0.9,3.1c0,0.9,0.2,1.5,0.7,1.9c0.7,0.5,2.2,0.5,3.8-1l13.1,0
								c1.7,1.5,3.2,1.5,3.8,1c0.5-0.4,0.7-1,0.7-1.9c0-0.8-0.3-1.9-0.8-3.1c0.3-2.1,0.5-5.3,0.5-9c0-3.7-0.2-6.9-0.5-9
								c0.6-1.2,0.9-2.3,0.9-3.1c0-0.9-0.2-1.5-0.7-1.9C1244.7,440.9,1244.3,440.8,1243.8,440.8z M1244,442c0.1,0,0.2,0.1,0.2,0.1
								c-0.1-0.1,0.2,0.3,0.3,1c0,0.7-0.1,1.6-0.8,2.7c-0.1,0.1-0.1,0.2-0.1,0.4c0.3,2,0.5,5.2,0.5,8.9c0,3.7-0.2,7-0.5,8.9
								c0,0.1,0,0.3,0.1,0.4c0.6,1.1,0.8,2.1,0.8,2.7c0,0.7-0.3,1-0.3,1c-0.1,0.1-1,0.5-2.6-1.1c-0.1-0.1-0.3-0.2-0.4-0.2l-13.4,0
								c-0.2,0-0.3,0.1-0.4,0.2c-1.6,1.6-2.5,1.1-2.6,1.1c0.1,0.1-0.2-0.3-0.3-1c0-0.7,0.1-1.6,0.8-2.7c0.1-0.1,0.1-0.2,0.1-0.4
								c-0.3-2-0.5-5.2-0.5-8.9c0-3.7,0.2-7,0.5-8.9c0-0.1,0-0.3-0.1-0.4c-0.6-1.1-0.8-2.1-0.8-2.7c0-0.6,0.3-0.9,0.2-0.9
								c0.3,0,0.6,0,1,0c0.4,0.1,0.9,0.3,1.6,1c0.1,0.1,0.3,0.2,0.4,0.2l13.4,0c0.2,0,0.3-0.1,0.4-0.2c0.8-0.8,1.4-1.1,1.9-1.1
								C1243.7,442,1243.9,442,1244,442z M1228,450.4c-0.3,0-0.6,0.3-0.6,0.6l0,7.1c0,0.3,0.3,0.6,0.6,0.6l13.2,0
								c0.3,0,0.6-0.3,0.6-0.6l0-7.1c0-0.3-0.3-0.6-0.6-0.6L1228,450.4z M1228.6,451.6l12,0l0,5.9l-12,0L1228.6,451.6z"/>
						</g>
					</g>
				</g>
			</g>
		</g>
	</g>
</g>
</svg>
