<?xml version="1.0" encoding="utf-8"?>
<!-- Generator: Adobe Illustrator 24.2.1, SVG Export Plug-In . SVG Version: 6.00 Build 0)  -->
<svg version="1.1" id="Layer_1" xmlns="http://www.w3.org/2000/svg" xmlns:xlink="http://www.w3.org/1999/xlink" x="0px" y="0px"
	 viewBox="0 0 6367 1363.6" style="enable-background:new 0 0 6367 1363.6;" xml:space="preserve">
<style type="text/css">
	.st0{fill:#FFFFFF;}
	.st1{font-family:'IBMPlexSerif-SemiBold';}
	.st2{font-size:101.7442px;}
	.st3{font-family:'IBMPlexSerif-Text';}
	.st4{fill:none;stroke:#FFFFFF;stroke-width:8.3043;stroke-linecap:round;stroke-linejoin:round;}
	.st5{fill:none;stroke:#FFFFFF;stroke-width:7.7691;}
	.st6{fill:#FFFFFF;stroke:#FFFFFF;stroke-width:0.5;}
	.st7{fill:none;stroke:#FFFFFF;stroke-width:8.5819;stroke-linecap:round;}
	.st8{fill:#FFFFFF;stroke:#FFFFFF;stroke-width:2;}
	.st9{fill:none;stroke:#FFFFFF;stroke-width:7;stroke-linecap:round;}
	.st10{fill:none;}
	.st11{font-size:72px;}
</style>
<text transform="matrix(1 0 0 1 182.5784 587.4088)" class="st0 st1 st2">Land Use</text>
<text transform="matrix(1 0 0 1 1071.7537 587.4088)" class="st0 st1 st2">Agriculture</text>
<text transform="matrix(1 0 0 1 1960.929 587.4088)" class="st0 st1 st2">Animal feed</text>
<text transform="matrix(1 0 0 1 3739.2795 587.4088)" class="st0 st1 st2">Transport</text>
<text transform="matrix(1 0 0 1 4628.4546 587.4088)" class="st0 st1 st2">Retail</text>
<text transform="matrix(1 0 0 1 5517.6299 587.4088)" class="st0 st3 st2">Packaging</text>
<text transform="matrix(1 0 0 1 2850.1042 587.4088)" class="st0 st1 st2">Processing</text>
<g id="noun_Factory_1474011" transform="translate(2960.000000, 0.000000)">
	<g id="Group">
		<path id="Shape" class="st0" d="M4.6,229h-76.8c-2.7,0-5.1,2.1-5.1,4.8l-7.5,151.6c0,1.5,0.3,2.7,1.5,3.9c0.9,0.9,2.4,1.5,3.9,1.5
			h91.9c1.5,0,2.7-0.6,3.6-1.5c0.9-0.9,1.5-2.4,1.5-3.9L10,233.8C9.7,231.1,7.6,229,4.6,229z M-75.9,381.8l7.2-143.8H0.9l7.2,143.8
			H-75.9z"/>
		<path id="Path" class="st0" d="M-2.7,353.1h-60c-2.4,0-4.5,2.1-4.5,4.5s2.1,4.5,4.5,4.5h60c2.4,0,4.5-2.1,4.5-4.5
			S-0.3,353.1-2.7,353.1z"/>
		<path id="Shape_1_" class="st0" d="M-68.4,200.9c7.8,6.6,14.5,6.6,19.6,5.7c4.5,3.9,10.5,6.3,16.6,6.3c8.1,0,15.7-3.9,20.5-10.5
			c12.7-1.8,22-12.4,22-25.3c0-14.2-11.8-25.9-25.9-25.6c-4.2-6.9-11.8-10.8-20.2-10.8c-10.5,0-19.9,6.6-23.8,16.3
			c-5.1,1.2-9.6,4.2-13,8.1c-4.2,4.8-6,11.2-5.7,17.5C-77.4,189.5-73.8,196.4-68.4,200.9z M-65.7,170.8c2.4-3,6-4.8,9.9-5.4
			c2.1-0.3,3.6-1.8,4.2-3.6c2.1-6.9,8.4-12.1,15.7-12.1c6,0,11.5,3.3,14.5,8.7c0.9,1.5,2.7,2.4,4.5,2.4h0.6c0.6,0,0.9,0,1.5,0
			c9,0,16.6,7.5,16.6,16.6c0,8.7-6.9,16-15.7,16.3c-1.8,0-3.3,0.9-4.2,2.4c-3,5.1-8.1,7.8-14.2,7.8c-4.5,0-8.7-1.8-11.8-5.1
			c-0.9-0.9-2.4-1.5-3.6-1.5c-0.6,0-0.9,0-1.5,0.3c-4.2,1.2-8.4,0.9-13.9-3.3c-3.6-3-6-7.5-6.3-12.1
			C-69.3,177.7-68.1,173.8-65.7,170.8z"/>
		<path id="Shape_2_" class="st0" d="M98.3,290.7c0-2.7-2.4-4.8-5.1-4.8H45.2c-2.7,0-5.1,2.1-5.1,4.8l-4.8,94.6
			c0,1.5,0.6,2.7,1.5,3.9c0.9,0.9,2.4,1.5,3.6,1.5h57.3c1.5,0,2.7-0.6,3.9-1.5c0.9-0.9,1.5-2.4,1.5-3.9L98.3,290.7z M44.6,381.8
			l4.2-86.8h40.7l4.2,86.8H44.6z"/>
		<path id="Path_1_" class="st0" d="M84.1,363.7H54.6c-2.4,0-4.5,2.1-4.5,4.5c0,2.4,2.1,4.5,4.5,4.5h29.5c2.4,0,4.5-2.1,4.5-4.5
			C88.6,365.8,86.5,363.7,84.1,363.7z"/>
		<path id="Shape_3_" class="st0" d="M45.9,270.9c5.4,4.5,9.9,5.1,13.6,4.5c3,2.4,6.9,3.9,10.8,3.9c5.4,0,10.5-2.4,13.9-6.9
			c8.4-1.5,14.8-8.7,14.8-17.5c0-9.6-7.5-17.5-17.2-17.8c-3.3-4.2-8.4-6.6-13.9-6.6c-6.9,0-13.3,4.2-16,10.5
			c-6,1.8-10.8,7.2-12.1,13.6C38.6,260.3,41,266.6,45.9,270.9z M48.6,256.1c0.6-3.6,3.6-6.3,6.9-6.9c1.8-0.3,3.6-1.8,3.9-3.6
			c1.2-3.6,4.5-6.3,8.1-6.3c3,0,6,1.8,7.5,4.5c0.9,1.5,2.7,2.4,4.5,2.4h0.3c0.3,0,0.6,0,0.6,0c4.8,0,8.7,3.9,8.7,8.7
			c0,4.5-3.6,8.4-8.1,8.7c-1.5,0-3,0.9-3.9,2.4c-1.5,2.7-4.2,4.2-7.2,4.2c-2.4,0-4.5-0.9-6-2.7c-0.9-0.9-2.4-1.5-3.6-1.5
			c-0.3,0-0.9,0-1.2,0.3c-2.1,0.6-3.9,0.9-7.5-2.1C49.5,261.8,48.3,258.8,48.6,256.1z"/>
		<path id="Shape_4_" class="st0" d="M73.5,225.9c3.3,2.8,6.1,3.2,8.3,2.8c1.8,1.5,4.2,2.4,6.6,2.4c3.3,0,6.4-1.5,8.4-4.3
			c5.1-0.9,9-5.4,9-10.8c0-6-4.6-10.8-10.5-11c-2-2.6-5.1-4.1-8.4-4.1c-4.2,0-8.1,2.6-9.7,6.5c-3.7,1.1-6.6,4.5-7.3,8.4
			C69.1,219.3,70.6,223.3,73.5,225.9z M75.7,216.8c0.4-2.1,2.1-3.7,4.1-4c1.1-0.2,2.1-1.1,2.3-2.1c0.7-2.1,2.7-3.7,4.8-3.7
			c1.8,0,3.6,1.1,4.5,2.6c0.5,0.9,1.6,1.4,2.7,1.4h0.2c0.2,0,0.4,0,0.4,0c2.9,0,5.2,2.3,5.2,5.1c0,2.6-2.1,4.9-4.8,5.1
			c-0.9,0-1.8,0.5-2.3,1.4c-0.9,1.6-2.5,2.5-4.3,2.5c-1.4,0-2.7-0.5-3.6-1.6c-0.5-0.5-1.4-0.9-2.1-0.9c-0.2,0-0.5,0-0.7,0.2
			c-1.2,0.4-2.3,0.5-4.5-1.2C76.3,220.1,75.5,218.4,75.7,216.8z"/>
		<path id="Shape_5_" class="st0" d="M-8.4,141.9c5.4,4.5,9.9,5.1,13.6,4.5c3,2.4,6.9,3.9,10.8,3.9c5.4,0,10.5-2.4,13.9-6.9
			c8.4-1.5,14.8-8.7,14.8-17.5c0-9.6-7.5-17.5-17.2-17.8c-3.3-4.2-8.4-6.6-13.9-6.6c-6.9,0-13.3,4.2-16,10.5
			c-6,1.8-10.8,7.2-12.1,13.6C-15.6,131.3-13.2,137.6-8.4,141.9z M-5.7,127.1c0.6-3.6,3.6-6.3,6.9-6.9c1.8-0.3,3.6-1.8,3.9-3.6
			c1.2-3.6,4.5-6.3,8.1-6.3c3,0,6,1.8,7.5,4.5c0.9,1.5,2.7,2.4,4.5,2.4h0.3c0.3,0,0.6,0,0.6,0c4.8,0,8.7,3.9,8.7,8.7
			c0,4.5-3.6,8.4-8.1,8.7c-1.5,0-3,0.9-3.9,2.4c-1.5,2.7-4.2,4.2-7.2,4.2c-2.4,0-4.5-0.9-6-2.7c-0.9-0.9-2.4-1.5-3.6-1.5
			c-0.3,0-0.9,0-1.2,0.3c-2.1,0.6-3.9,0.9-7.5-2.1C-4.8,132.8-6,129.8-5.7,127.1z"/>
	</g>
</g>
<g id="noun_Airplane_2481268" transform="translate(3851.000000, 102.000000)">
	<path id="Shape_6_" class="st0" d="M101.8,129.7c1.3-3.4,2-7,2.1-10.6c0.3-5.7-2.3-11.1-6.9-14.4c-5.3-3.7-12.9-4.1-21.3-1.1
		c-0.1,0-0.2,0.1-0.3,0.1c-7.2,2.9-13.8,7.3-19.1,13L31.7,142l-78.3-29.6c-13.9-5.6-28.1-2.2-35.6,8.4c-3.3,4.6-2.3,11.1,2.3,14.5
		l68.5,51.3l-7.4,7.6c-7.4,7.7-14.5,15.7-21.2,23.9l-34.4-5c-2-0.3-4,0.9-4.6,2.9l-5,15.8c-0.6,2,0.3,4.2,2.2,5l20.6,9.5
		c-5.6,8-11,16.1-16.1,24.2c-2.2,3.4-1.7,7.9,1.2,10.8c2.9,2.9,7.4,3.4,10.8,1.2c8.1-5.1,16.2-10.5,24.1-16.1l9.5,20.6
		c0.9,1.9,3,2.9,5,2.2l15.8-5c2-0.6,3.2-2.6,2.9-4.6l-5-34.5c8-6.5,15.9-13.5,23.5-20.8l8-7.7l51.4,68.5c3.4,4.6,9.8,5.6,14.5,2.3
		c10.6-7.4,14-21.7,8.4-35.5l-29.7-78.4l25.4-24.5C94.4,143.7,98.9,137,101.8,129.7z M-74.9,128.5c-0.9-0.7-1.2-2-0.5-3
		c6.3-9.1,17.7-8.6,25.7-5.4l75,28.4l-30.9,32L-74.9,128.5z M85.2,255.1c3.2,7.8,3.7,19.2-5.4,25.6c-1,0.7-2.3,0.5-3-0.5l-52-69.4
		l32-30.9L85.2,255.1z M4.9,218.5c-7.9,7.6-16.1,14.9-24.5,21.6c-1.1,0.8-1.8,2.1-1.8,3.5c0,0.2,0,0.4,0,0.6l4.9,33.3l-8.9,2.8
		l-10.1-21.9c-0.5-1.1-1.5-2-2.7-2.3c-1.2-0.3-2.5-0.1-3.5,0.6c-9.2,6.6-18.6,12.9-27.9,18.8c-0.1,0.1-0.3,0.1-0.4-0.1
		s-0.1-0.3-0.1-0.4c5.9-9.3,12.2-18.7,18.8-27.9c0.7-1,1-2.3,0.6-3.5c-0.3-1.2-1.2-2.2-2.3-2.7l-21.9-10.1l2.8-8.9l33.1,4.8l0.1,0
		c1.8,0.3,3.7-0.6,4.5-2.3c6.7-8.3,14-16.5,21.5-24.4l75.1-77.6c4.5-4.8,10.1-8.6,16.3-11c0.1,0,0.2-0.1,0.3-0.1
		c5.6-2,10.4-1.9,13.4,0.1c2.3,1.8,3.5,4.7,3.3,7.6c-0.1,2.7-0.6,5.3-1.5,7.8c-2.4,6.2-6.2,11.8-11.1,16.3L4.9,218.5z"/>
</g>
<g id="Group-2" transform="translate(4744.000000, 118.000000)">
	<polyline id="Path-14" class="st4" points="-120,101.5 -93.1,101.5 -88.5,122 -67.5,216.5 44,216.5 	"/>
	<circle id="Oval" class="st5" cx="-46.5" cy="252" r="17.5"/>
	<circle id="Oval_1_" class="st5" cx="23.5" cy="252" r="17.5"/>
	<polygon id="Path-15" class="st4" points="-87,122.5 70,122.5 54.6,192.5 -71.9,192.5 	"/>
</g>
<g id="noun_sausages_2556563" transform="translate(5644.000000, 60.000000)">
	<g id="Group_1_" transform="translate(0.038435, 0.000000)">
		<path id="Shape_7_" class="st0" d="M-50.4,101.5c-18.8,0-34.1,15.3-34.1,34.1v161.3c0,18.8,15.3,34.1,34.1,34.1h99.7
			c18.8,0,34.1-15.3,34.1-34.1V135.6c0-18.8-15.3-34.1-34.1-34.1H-50.4z M-45.2,124h26.9c-1.2,6.4-6.8,11.2-13.5,11.2
			S-44.1,130.3-45.2,124z M-12,174h-39.5v-14.8c0-10.1,8.9-18.3,19.7-18.3s19.7,8.2,19.7,18.3V174L-12,174z M77.6,179.8v72.9H-78.8
			v-72.9H77.6z M17.2,124h26.9c-1.2,6.4-6.8,11.2-13.5,11.2C23.9,135.2,18.3,130.3,17.2,124z M50.4,174H10.9v-14.8
			c0-10.1,8.9-18.3,19.7-18.3s19.7,8.2,19.7,18.3V174L50.4,174z M44.1,308.7H17.2c1.2-6.4,6.8-11.2,13.5-11.2
			C37.3,297.4,42.9,302.3,44.1,308.7z M10.9,258.4h39.5v15c0,10.1-8.9,18.3-19.7,18.3s-19.7-8.2-19.7-18.3V258.4L10.9,258.4z
			 M-18.3,308.7h-26.9c1.2-6.4,6.8-11.2,13.5-11.2S-19.5,302.3-18.3,308.7z M-51.5,258.4H-12v15c0,10.1-8.9,18.3-19.7,18.3
			s-19.7-8.2-19.7-18.3V258.4L-51.5,258.4z M49.3,325.2h-99.7c-15.6,0-28.4-12.7-28.4-28.4v-38.5h21.5v15c0,9.6,6,17.8,14.5,21.7
			c-5.1,3.5-8.5,9.4-8.5,16v0.4c0,1.6,1.3,2.9,2.9,2.9h33.1c1.6,0,2.9-1.3,2.9-2.9v-0.4c0-6.7-3.4-12.5-8.5-16
			c8.6-3.9,14.5-12.1,14.5-21.7v-15H5.2v15c0,9.6,6,17.8,14.5,21.7c-5.1,3.5-8.5,9.4-8.5,16v0.4c0,1.6,1.3,2.9,2.9,2.9h33.1
			c1.6,0,2.9-1.3,2.9-2.9v-0.4c0-6.7-3.4-12.5-8.5-16c8.6-3.9,14.5-12.1,14.5-21.7v-15h21.5v38.5C77.6,312.5,64.9,325.2,49.3,325.2z
			 M77.6,135.6V174H56.1v-14.8c0-9.6-6-17.8-14.5-21.7c5.1-3.5,8.5-9.4,8.5-16v-0.4c0-1.6-1.3-2.9-2.9-2.9H14.1
			c-1.6,0-2.9,1.3-2.9,2.9v0.4c0,6.7,3.4,12.5,8.5,16c-8.6,3.9-14.5,12.1-14.5,21.7V174H-6.3v-14.8c0-9.6-6-17.8-14.5-21.7
			c5.1-3.5,8.5-9.4,8.5-16v-0.4c0-1.6-1.3-2.9-2.9-2.9h-33.1c-1.6,0-2.9,1.3-2.9,2.9v0.4c0,6.7,3.4,12.5,8.5,16
			c-8.6,3.9-14.5,12.1-14.5,21.7V174h-21.5v-38.5c0-15.6,12.7-28.4,28.4-28.4h99.7C64.9,107.2,77.6,119.9,77.6,135.6z"/>
		<path id="Shape_8_" class="st0" d="M-65.2,234.4h61.8c1.6,0,2.9-1.3,2.9-2.9v-32.7c0-1.6-1.3-2.9-2.9-2.9h-61.8
			c-1.6,0-2.9,1.3-2.9,2.9v32.7C-68.1,233.1-66.8,234.4-65.2,234.4z M-62.3,201.7h56.1v26.9h-56.1V201.7z"/>
		<path id="Path_2_" class="st6" d="M17.4,211.7h42.4c1.3,0,2.3-1.3,2.3-2.9s-1-2.9-2.3-2.9H17.4c-1.3,0-2.3,1.3-2.3,2.9
			S16.1,211.7,17.4,211.7z"/>
		<path id="Path_3_" class="st6" d="M18.7,224.3h39.9c2,0,3.7-1.3,3.7-2.9s-1.6-2.9-3.7-2.9H18.7c-2,0-3.7,1.3-3.7,2.9
			S16.7,224.3,18.7,224.3z"/>
	</g>
</g>
<g id="noun_bag_606249" transform="translate(2072.000000, 50.000000)">
	<g id="Group_2_" transform="translate(0.269299, 0.000000)">
		<path id="Shape_9_" class="st0" d="M85.6,101.7c-1.3,0-2.8,0.1-4.3,0.4c-5.3,1-11.7,5-18.3,10.8H-46.6c-5.7-4.9-11.4-8.3-16-9.3
			c-5.3-1.1-9.5-0.5-10.8-0.6h-0.1c0,0-0.1,0-0.1,0c-0.1,0-0.1,0-0.2,0c-1.3,0-3.1,0.2-4.9,1.5c-4.3,3.2-6,8.4-6.2,15.8
			c-0.2,6.8,2.1,15.9,7.1,25.7c-2.5,17.4-4.1,44.3-4.1,75.2s1.6,57.8,4.1,75.2c-5,9.9-7.3,18.9-7.1,25.7c0.3,7.4,1.9,12.6,6.2,15.8
			c5.8,4.3,18.1,4.1,32.2-8.4H63c14.1,12.5,26.4,12.6,32.2,8.4c4.4-3.2,6-8.4,6.2-15.8c0.2-6.9-2.1-15.9-7.1-25.7
			c1.3-9.3,2.4-21.2,3.1-35c0.6-12.1,1-25.7,1-40.2c0-30.9-1.6-57.8-4.1-75.3c5-9.9,7.3-18.9,7.1-25.7c-0.3-7.4-1.9-12.6-6.2-15.8
			C92.9,102.9,89.6,101.7,85.6,101.7z M87.4,111.9c1,0.2,1.6,0.5,1.8,0.6c-0.6-0.5,2,2.8,2.2,8.2c0.2,5.5-1.2,13.2-6.5,22.8
			c-0.5,0.9-0.7,2-0.5,3.1c2.4,16.6,4.1,43.8,4.1,74.8s-1.6,58.2-4.1,74.7c-0.2,1.1,0,2.1,0.5,3.1c5.3,9.6,6.7,17.4,6.5,22.9
			c-0.2,5.5-2.8,8.7-2.2,8.2c-0.6,0.5-8.4,4.2-21.6-8.9c-0.9-0.9-2.2-1.4-3.5-1.4H-47.6c-1.3,0-2.6,0.5-3.5,1.4
			c-13.2,13-21,9.3-21.6,8.9c0.6,0.5-2-2.8-2.2-8.2c-0.2-5.5,1.2-13.3,6.5-22.9c0.5-0.9,0.7-2,0.5-3.1c-2.4-16.5-4.1-43.7-4.1-74.7
			s1.6-58.2,4.1-74.8c0.2-1.1,0-2.1-0.5-3.1c-5.3-9.6-6.7-17.4-6.5-22.8c0.2-5.1,2.3-7.7,2.1-7.7c2.8,0,5.2-0.3,8.3,0.3
			c3.5,0.7,7.9,2.6,13.5,8c0.9,0.9,2.2,1.5,3.5,1.5H64.1c1.3,0,2.6-0.5,3.5-1.5c6.6-6.5,11.9-8.8,15.5-9.5
			C85,111.6,86.4,111.7,87.4,111.9z M-46.9,182c-2.8,0-5,2.2-5,4.9v59.1c0,2.7,2.2,4.9,5,4.9H63.4c2.8,0,5-2.2,5-4.9v-59.1
			c0-2.7-2.2-4.9-5-4.9H-46.9z M-41.9,191.9H58.3v49.3H-41.9V191.9z"/>
		<line id="Path-13" class="st7" x1="-29.3" y1="208.2" x2="29.9" y2="208.3"/>
		<line id="Path-13_1_" class="st7" x1="-29.3" y1="224.5" x2="30.1" y2="224.5"/>
	</g>
</g>
<g id="noun_Global-Warming_2684613" transform="translate(1147.000000, 40.000000)">
	<g id="Group_3_">
		<path id="Path_4_" class="st8" d="M161.4,245.1c-43.4,7.2-127,30-198.9,100.8c-1.2,1.2-1.2,3.2,0,4.4c0.6,0.6,1.4,0.9,2.2,0.9
			c0.8,0,1.6-0.3,2.2-0.9c70.7-69.6,152.9-91.9,195.6-99.1c1.7-0.3,2.9-1.9,2.6-3.6C164.7,245.9,163.1,244.8,161.4,245.1z"/>
		<path id="Path_5_" class="st8" d="M161.2,276.2c-37.2,8.7-92.8,27.9-146,69.4c-1.4,1.1-1.6,3-0.5,4.4c0.6,0.8,1.5,1.2,2.5,1.2
			c0.7,0,1.3-0.2,1.9-0.7c52.3-40.8,106.9-59.6,143.5-68.2c1.7-0.4,2.7-2.1,2.3-3.8C164.5,276.9,162.9,275.9,161.2,276.2z"/>
		<path id="Path_6_" class="st8" d="M164.9,311c-0.5-1.7-2.2-2.6-3.9-2.1c-29.8,8.9-58.2,21.3-84.5,36.8c-1.5,0.9-2,2.8-1.1,4.3
			c0.6,1,1.6,1.5,2.7,1.5c0.5,0,1.1-0.1,1.6-0.4c25.9-15.2,53.9-27.4,83.2-36.2C164.5,314.4,165.4,312.6,164.9,311z"/>
		<path id="Path_7_" class="st8" d="M-82,193.7c0.7,0,69.7,4.1,144.3,46.7c-10.2,4.1-20.8,8.8-31.7,14.3
			c-44.6-23.2-85.5-33.3-112-37.8c-1.7-0.3-3.3,0.9-3.6,2.6c-0.3,1.7,0.9,3.3,2.6,3.6c25.3,4.2,63.9,13.8,106.2,35.1
			c-9.3,5-18.8,10.5-28.3,16.7c-24.6-11.6-50.4-20.6-76.7-26.8c-1.7-0.4-3.4,0.6-3.8,2.3s0.7,3.4,2.3,3.8
			c24.7,5.8,48.9,14.1,72,24.8c-8.3,5.7-16.6,11.8-24.9,18.6c-14.7-6.5-30.1-12.2-45.5-16.8c-1.7-0.5-3.4,0.4-3.9,2.1
			c-0.5,1.7,0.4,3.4,2.1,3.9c14.2,4.3,28.3,9.4,41.9,15.3c-15,12.7-29.6,27.3-43.5,44.1c-1.1,1.3-0.9,3.3,0.4,4.4
			c0.6,0.5,1.3,0.7,2,0.7c0.9,0,1.8-0.4,2.4-1.1c98.8-119.5,240.1-128.1,241.5-128.2c1.7-0.1,3-1.6,3-3.3c-0.1-1.7-1.6-3.1-3.3-3
			c-0.8,0-40.1,2.4-91.9,21.9c-77.7-45.8-150.8-50-151.5-50c-1.7-0.1-3.2,1.2-3.3,3C-85.1,192.1-83.7,193.6-82,193.7z"/>
		<path id="Path_8_" class="st8" d="M17,124.6c0-9.8-3.9-15.1-7-19.3c-0.6-0.8-1.2-1.6-1.8-2.4c-1-1.4-2.9-1.8-4.3-0.8
			c-1.4,1-1.8,2.9-0.8,4.3c0.6,0.9,1.3,1.8,1.9,2.7c3,4,5.8,7.8,5.8,15.5c0,6.1-2,9.1-4.3,12.4c-2.5,3.7-5.4,7.9-5.4,16
			c0,8.1,2.9,12.3,5.4,16c0.6,0.9,1.6,1.4,2.6,1.4c0.6,0,1.2-0.2,1.8-0.5c1.4-1,1.8-2.9,0.8-4.3c-2.3-3.4-4.3-6.3-4.3-12.4
			c0-6.1,2-9.1,4.3-12.4C14.1,136.9,17,132.7,17,124.6z"/>
		<path id="Path_9_" class="st8" d="M48,124.6c0-9.8-3.9-15.1-7-19.3c-0.6-0.8-1.2-1.6-1.8-2.4c-1-1.4-2.9-1.8-4.3-0.8
			c-1.4,1-1.8,2.9-0.8,4.3c0.6,0.9,1.3,1.8,1.9,2.7c3,4,5.8,7.8,5.8,15.5c0,6.1-2,9.1-4.3,12.4c-2.5,3.7-5.4,7.9-5.4,16
			c0,8.1,2.9,12.3,5.4,16c0.6,0.9,1.6,1.4,2.6,1.4c0.6,0,1.2-0.2,1.8-0.5c1.4-1,1.8-2.9,0.8-4.3c-2.3-3.4-4.3-6.3-4.3-12.4
			c0-6.1,2-9.1,4.3-12.4C45.1,136.9,48,132.7,48,124.6z"/>
		<path id="Path_10_" class="st8" d="M79,124.6c0-9.8-3.9-15.1-7-19.3c-0.6-0.8-1.2-1.6-1.8-2.4c-1-1.4-2.9-1.8-4.3-0.8
			c-1.4,1-1.8,2.9-0.8,4.3c0.6,0.9,1.3,1.8,1.9,2.7c3,4,5.8,7.8,5.8,15.5c0,6.1-2,9.1-4.3,12.4c-2.5,3.7-5.4,7.9-5.4,16
			c0,8.1,2.9,12.3,5.4,16c0.6,0.9,1.6,1.4,2.6,1.4c0.6,0,1.2-0.2,1.8-0.5c1.4-1,1.8-2.9,0.8-4.3c-2.3-3.4-4.3-6.3-4.3-12.4
			c0-6.1,2-9.1,4.3-12.4C76.2,136.9,79,132.7,79,124.6z"/>
	</g>
</g>
<path id="Shape_10_" class="st0" d="M362.3,361.5c-10.2,0-19.8-5.4-25.8-14.4c10.1-9.7,16.4-22.9,17.7-37.3c0,0,0-0.1,0-0.1
	c0-0.4,0.1-0.9,0.1-1.3c0-0.1,0-0.3,0-0.4c0-0.4,0-0.7,0.1-1.1c0-0.2,0-0.5,0-0.7c0-0.3,0-0.5,0-0.8c0-0.5,0-1,0-1.5
	c0-0.6,0-1.1,0-1.7c0-0.1,0-0.2,0-0.3c0-0.5,0-1-0.1-1.5c0-0.1,0-0.1,0-0.2c-0.4-7.6-1.9-16.9-4.2-26.5c-0.1-0.3-0.1-0.6-0.2-0.9
	c-0.1-0.4-0.2-0.8-0.3-1.2c-0.1-0.5-0.2-1-0.4-1.5c0-0.2-0.1-0.4-0.1-0.6c-0.1-0.3-0.2-0.7-0.3-1c5.8-8.3,10.4-10.1,13.3-10.1
	c6.8,0,14.9,9.7,21.6,25.8c5.9,14.1,10.2,32.1,10.2,42.7C394.1,346,379.8,361.5,362.3,361.5L362.3,361.5z M304.5,331.5l22.6-16.3
	c1.8-1.3,2.2-3.8,0.9-5.6c-1.3-1.8-3.8-2.2-5.6-0.9l-17.9,12.9v-33.6l14.8-10.7c1.8-1.3,2.2-3.8,0.9-5.6c-1.3-1.8-3.8-2.2-5.6-0.9
	l-10.2,7.3v-20.8c0-2.2-1.8-4-4-4c-2.2,0-4,1.8-4,4v44.1l-17.6-12.7c-1.8-1.3-4.3-0.9-5.6,0.9c-1.3,1.8-0.9,4.3,0.9,5.6l22.3,16.1
	v42.4c-21.6-2-38.9-20.3-41.7-43.4c0,0,0-0.1,0-0.1c0-0.3-0.1-0.7-0.1-1c0-0.1,0-0.3,0-0.4c0-0.3,0-0.6-0.1-0.9c0-0.2,0-0.4,0-0.6
	c0-0.2,0-0.5,0-0.7c0-0.3,0-0.5,0-0.8c0-0.2,0-0.4,0-0.5c0-0.5,0-0.9,0-1.4c0-0.4,0-0.8,0-1.2c0-0.1,0-0.3,0-0.4c0-0.3,0-0.7,0-1
	c0.4-8.7,2.4-20.3,5.7-32.5c0-0.1,0-0.1,0-0.2c2.3-8.5,5.2-17.1,8.6-25c9.9-23.6,21.4-37.1,31.7-37.1c10.3,0,21.8,13.5,31.7,37.1
	c3.3,7.9,6.2,16.5,8.6,25c0,0.1,0,0.1,0,0.2c3.3,12.2,5.3,23.8,5.7,32.5c0,0.3,0,0.7,0,1c0,0.1,0,0.3,0,0.4c0,0.4,0,0.8,0,1.2
	c0,0.5,0,0.9,0,1.4c0,0.2,0,0.4,0,0.5c0,0.3,0,0.5,0,0.8c0,0.2,0,0.5,0,0.7c0,0.2,0,0.4,0,0.6c0,0.3,0,0.6-0.1,0.9
	c0,0.1,0,0.3,0,0.4c0,0.3-0.1,0.7-0.1,1c0,0,0,0.1,0,0.1c-2.7,23.2-20.1,41.4-41.7,43.5V331.5z M238.8,361.5
	c-17.5,0-31.8-15.6-31.8-34.7c0-10.7,4.3-28.7,10.2-42.7c6.8-16.2,14.8-25.8,21.6-25.8c2.9,0,7.5,1.8,13.3,10.1
	c-0.1,0.4-0.2,0.7-0.3,1c0,0.2-0.1,0.4-0.1,0.5c-0.1,0.5-0.3,1-0.4,1.5c-0.1,0.4-0.2,0.8-0.3,1.2c-0.1,0.3-0.1,0.6-0.2,0.9
	c-2.3,9.7-3.8,18.9-4.2,26.5c0,0.1,0,0.1,0,0.2c0,0.5,0,1-0.1,1.5c0,0.1,0,0.2,0,0.3c0,0.6,0,1.1,0,1.7c0,0.5,0,1,0,1.5
	c0,0.3,0,0.5,0,0.8c0,0.2,0,0.5,0,0.7c0,0.4,0,0.7,0.1,1.1c0,0.1,0,0.3,0,0.4c0,0.4,0.1,0.9,0.1,1.3c0,0,0,0.1,0,0.1
	c1.4,14.4,7.6,27.6,17.7,37.3C258.6,356.1,249,361.5,238.8,361.5L238.8,361.5z M402,326.9c0-11.8-4.4-30.6-10.8-45.8
	c-10.6-25.4-21.6-30.7-29-30.7c-5.5,0-10.9,2.9-16,8.7c-2-6.4-4.2-12.6-6.7-18.5c-5.1-12.1-10.6-21.8-16.5-28.9
	c-7.2-8.7-14.8-13.1-22.5-13.1c-7.7,0-15.3,4.4-22.5,13.1c-5.9,7.1-11.5,16.8-16.5,28.9c-2.5,5.9-4.7,12.2-6.7,18.5
	c-5.1-5.7-10.5-8.7-16-8.7c-13.3,0-23.1,16.7-29,30.7c-6.3,15.2-10.8,34-10.8,45.8c0,22.1,15.7,40.3,35.8,42.4v15.2c0,2.2,1.8,4,4,4
	c2.2,0,4-1.8,4-4v-15.2c11.1-1.2,21.3-7.4,27.9-17c7.5,5.4,16.3,8.8,25.8,9.5v22.7c0,2.2,1.8,4,4,4c2.2,0,4-1.8,4-4v-22.7
	c9.5-0.7,18.3-4.2,25.8-9.5c6.7,9.6,16.8,15.8,27.9,17v15.2c0,2.2,1.8,4,4,4c2.2,0,4-1.8,4-4v-15.2C386.3,367.1,402,348.9,402,326.9
	L402,326.9z"/>
<line id="Path-2" class="st9" x1="195.6" y1="418.2" x2="372.5" y2="418.2"/>
<rect x="182.6" y="690.2" class="st10" width="665.6" height="673.3"/>
<text transform="matrix(1 0 0 1 182.5782 744.9615)"><tspan x="0" y="0" class="st0 st3 st11">Aboveground </tspan><tspan x="0" y="86.4" class="st0 st3 st11">changes in </tspan><tspan x="0" y="172.8" class="st0 st3 st11">biomass due to </tspan><tspan x="0" y="259.2" class="st0 st3 st11">deforestation, </tspan><tspan x="0" y="345.6" class="st0 st3 st11">and underground </tspan><tspan x="0" y="432" class="st0 st3 st11">changes in soil </tspan><tspan x="0" y="518.4" class="st0 st3 st11">carbon</tspan></text>
<rect x="1071.8" y="690.2" class="st10" width="665.6" height="713.1"/>
<text transform="matrix(1 0 0 1 1071.7534 744.9615)"><tspan x="0" y="0" class="st0 st3 st11">methane </tspan><tspan x="0" y="86.4" class="st0 st3 st11">emissions from </tspan><tspan x="0" y="172.8" class="st0 st3 st11">animals, emissions </tspan><tspan x="0" y="259.2" class="st0 st3 st11">from fertilizers, </tspan><tspan x="0" y="345.6" class="st0 st3 st11">manure and farm </tspan><tspan x="0" y="432" class="st0 st3 st11">machinery</tspan></text>
<rect x="1960.9" y="690.2" class="st10" width="665.6" height="873.6"/>
<text transform="matrix(1 0 0 1 1960.9291 744.9615)"><tspan x="0" y="0" class="st0 st3 st11">emissions from </tspan><tspan x="0" y="86.4" class="st0 st3 st11">crop production </tspan><tspan x="0" y="172.8" class="st0 st3 st11">and its processing </tspan><tspan x="0" y="259.2" class="st0 st3 st11">into feed for </tspan><tspan x="0" y="345.6" class="st0 st3 st11">farmed animals</tspan></text>
<rect x="2850.1" y="690.2" class="st10" width="665.6" height="673.3"/>
<text transform="matrix(1 0 0 1 2850.1042 744.9615)"><tspan x="0" y="0" class="st0 st3 st11">emissions from </tspan><tspan x="0" y="86.4" class="st0 st3 st11">energy use in the </tspan><tspan x="0" y="172.8" class="st0 st3 st11">process of </tspan><tspan x="0" y="259.2" class="st0 st3 st11">converting raw </tspan><tspan x="0" y="345.6" class="st0 st3 st11">products into final </tspan><tspan x="0" y="432" class="st0 st3 st11">food items</tspan></text>
<rect x="3739.3" y="690.2" class="st10" width="665.6" height="488"/>
<text transform="matrix(1 0 0 1 3739.2791 744.9615)"><tspan x="0" y="0" class="st0 st3 st11">emissions from </tspan><tspan x="0" y="86.4" class="st0 st3 st11">energy use in the </tspan><tspan x="0" y="172.8" class="st0 st3 st11">transport of food </tspan><tspan x="0" y="259.2" class="st0 st3 st11">items in-country </tspan><tspan x="0" y="345.6" class="st0 st3 st11">and internationally</tspan></text>
<rect x="4628.5" y="690.2" class="st10" width="665.6" height="673.3"/>
<text transform="matrix(1 0 0 1 4628.4541 744.9615)"><tspan x="0" y="0" class="st0 st3 st11">emissions from </tspan><tspan x="0" y="86.4" class="st0 st3 st11">energy use in the </tspan><tspan x="0" y="172.8" class="st0 st3 st11">refridgeration </tspan><tspan x="0" y="259.2" class="st0 st3 st11">and other retail </tspan><tspan x="0" y="345.6" class="st0 st3 st11">processes</tspan></text>
<rect x="5517.6" y="690.2" class="st10" width="665.6" height="713.1"/>
<text transform="matrix(1 0 0 1 5517.6304 744.9615)"><tspan x="0" y="0" class="st0 st3 st11">emissions from the </tspan><tspan x="0" y="86.4" class="st0 st3 st11">production of </tspan><tspan x="0" y="172.8" class="st0 st3 st11">package materials, </tspan><tspan x="0" y="259.2" class="st0 st3 st11">material transport </tspan><tspan x="0" y="345.6" class="st0 st3 st11">and end-of-life </tspan><tspan x="0" y="432" class="st0 st3 st11">disposal</tspan></text>
</svg>
