<?xml version="1.0" encoding="utf-8"?>
<!-- Generator: Adobe Illustrator 24.2.1, SVG Export Plug-In . SVG Version: 6.00 Build 0)  -->
<svg version="1.1" id="Layer_1" xmlns="http://www.w3.org/2000/svg" xmlns:xlink="http://www.w3.org/1999/xlink" x="0px" y="0px"
	 viewBox="0 0 6367 1363.6" style="enable-background:new 0 0 6367 1363.6;" xml:space="preserve">
<style type="text/css">
	.st0{fill:#FFFFFF;}
	.st1{fill:none;stroke:#FFFFFF;stroke-width:8.3043;stroke-linecap:round;stroke-linejoin:round;}
	.st2{fill:none;stroke:#FFFFFF;stroke-width:7.7691;}
	.st3{fill:#FFFFFF;stroke:#FFFFFF;stroke-width:0.5;}
	.st4{fill:none;stroke:#FFFFFF;stroke-width:8.5819;stroke-linecap:round;}
	.st5{fill:#FFFFFF;stroke:#FFFFFF;stroke-width:2;}
	.st6{fill:none;stroke:#FFFFFF;stroke-width:7;stroke-linecap:round;}
	.st7{font-family:'IBMPlexSerif-Medium';}
	.st8{font-size:101.7442px;}
	.st9{fill:#FFFFFF;stroke:#1C2A40;stroke-width:2;}
	.st10{fill:none;stroke:#FFFFFF;stroke-width:8;stroke-linecap:round;}
	.st11{fill:none;}
	.st12{font-family:'IBMPlexSerif-Light';}
	.st13{font-size:72px;}
</style>
<text transform="matrix(1 0 0 1 5729.3262 546.7977)" class="st0 st7 st8">Land Use</text>
<text transform="matrix(1 0 0 1 4747.5884 546.7977)" class="st0 st7 st8">Agriculture</text>
<text transform="matrix(1 0 0 1 3798.7251 546.7977)" class="st0 st7 st8">Animal feed</text>
<text transform="matrix(1 0 0 1 2007.6775 546.7977)" class="st0 st7 st8">Transport</text>
<text transform="matrix(1 0 0 1 1195.0966 546.7977)" class="st0 st7 st8">Retail</text>
<text transform="matrix(1 0 0 1 147.6558 546.7977)" class="st0 st7 st8">Packaging</text>
<text transform="matrix(1 0 0 1 2899.4094 546.7977)" class="st0 st7 st8">Processing</text>
<g id="noun_Factory_1474011_1_" transform="translate(2960.000000, 0.000000)">
	<g id="Group_7_">
		<path id="Shape_21_" class="st0" d="M195.2,145.7h-76.8c-2.7,0-5.1,2.1-5.1,4.8l-7.5,151.6c0,1.5,0.3,2.7,1.5,3.9
			c0.9,0.9,2.4,1.5,3.9,1.5h91.9c1.5,0,2.7-0.6,3.6-1.5s1.5-2.4,1.5-3.9l-7.5-151.6C200.4,147.8,198.3,145.7,195.2,145.7z
			 M114.8,298.4l7.2-143.8h69.6l7.2,143.8H114.8z"/>
		<path id="Path_21_" class="st0" d="M188,269.8h-60c-2.4,0-4.5,2.1-4.5,4.5s2.1,4.5,4.5,4.5h60c2.4,0,4.5-2.1,4.5-4.5
			S190.4,269.8,188,269.8z"/>
		<path id="Shape_20_" class="st0" d="M122.3,117.6c7.8,6.6,14.5,6.6,19.6,5.7c4.5,3.9,10.5,6.3,16.6,6.3c8.1,0,15.7-3.9,20.5-10.5
			c12.7-1.8,22-12.4,22-25.3c0-14.2-11.8-25.9-25.9-25.6c-4.2-6.9-11.8-10.8-20.2-10.8c-10.5,0-19.9,6.6-23.8,16.3
			c-5.1,1.2-9.6,4.2-13,8.1c-4.2,4.8-6,11.2-5.7,17.5C113.3,106.2,116.9,113.1,122.3,117.6z M125,87.5c2.4-3,6-4.8,9.9-5.4
			c2.1-0.3,3.6-1.8,4.2-3.6c2.1-6.9,8.4-12.1,15.7-12.1c6,0,11.5,3.3,14.5,8.7c0.9,1.5,2.7,2.4,4.5,2.4h0.6c0.6,0,0.9,0,1.5,0
			c9,0,16.6,7.5,16.6,16.6c0,8.7-6.9,16-15.7,16.3c-1.8,0-3.3,0.9-4.2,2.4c-3,5.1-8.1,7.8-14.2,7.8c-4.5,0-8.7-1.8-11.8-5.1
			c-0.9-0.9-2.4-1.5-3.6-1.5c-0.6,0-0.9,0-1.5,0.3c-4.2,1.2-8.4,0.9-13.9-3.3c-3.6-3-6-7.5-6.3-12.1C121.4,94.4,122.6,90.5,125,87.5
			z"/>
		<path id="Shape_19_" class="st0" d="M289,207.4c0-2.7-2.4-4.8-5.1-4.8h-47.9c-2.7,0-5.1,2.1-5.1,4.8l-4.8,94.6
			c0,1.5,0.6,2.7,1.5,3.9c0.9,0.9,2.4,1.5,3.6,1.5h57.3c1.5,0,2.7-0.6,3.9-1.5c0.9-0.9,1.5-2.4,1.5-3.9L289,207.4z M235.3,298.4
			l4.2-86.8h40.7l4.2,86.8H235.3z"/>
		<path id="Path_20_" class="st0" d="M274.8,280.4h-29.5c-2.4,0-4.5,2.1-4.5,4.5c0,2.4,2.1,4.5,4.5,4.5h29.5c2.4,0,4.5-2.1,4.5-4.5
			C279.3,282.5,277.2,280.4,274.8,280.4z"/>
		<path id="Shape_18_" class="st0" d="M236.5,187.5c5.4,4.5,9.9,5.1,13.6,4.5c3,2.4,6.9,3.9,10.8,3.9c5.4,0,10.5-2.4,13.9-6.9
			c8.4-1.5,14.8-8.7,14.8-17.5c0-9.6-7.5-17.5-17.2-17.8c-3.3-4.2-8.4-6.6-13.9-6.6c-6.9,0-13.3,4.2-16,10.5
			c-6,1.8-10.8,7.2-12.1,13.6C229.3,177,231.7,183.3,236.5,187.5z M239.2,172.8c0.6-3.6,3.6-6.3,6.9-6.9c1.8-0.3,3.6-1.8,3.9-3.6
			c1.2-3.6,4.5-6.3,8.1-6.3c3,0,6,1.8,7.5,4.5c0.9,1.5,2.7,2.4,4.5,2.4h0.3c0.3,0,0.6,0,0.6,0c4.8,0,8.7,3.9,8.7,8.7
			c0,4.5-3.6,8.4-8.1,8.7c-1.5,0-3,0.9-3.9,2.4c-1.5,2.7-4.2,4.2-7.2,4.2c-2.4,0-4.5-0.9-6-2.7c-0.9-0.9-2.4-1.5-3.6-1.5
			c-0.3,0-0.9,0-1.2,0.3c-2.1,0.6-3.9,0.9-7.5-2.1C240.1,178.5,238.9,175.5,239.2,172.8z"/>
		<path id="Shape_17_" class="st0" d="M264.2,142.6c3.3,2.8,6.1,3.2,8.3,2.8c1.8,1.5,4.2,2.4,6.6,2.4c3.3,0,6.4-1.5,8.4-4.3
			c5.1-0.9,9-5.4,9-10.8c0-6-4.6-10.8-10.5-11c-2-2.6-5.1-4.1-8.4-4.1c-4.2,0-8.1,2.6-9.7,6.5c-3.7,1.1-6.6,4.5-7.3,8.4
			C259.8,136,261.3,139.9,264.2,142.6z M266.4,133.5c0.4-2.1,2.1-3.7,4.1-4c1.1-0.2,2.1-1.1,2.3-2.1c0.7-2.1,2.7-3.7,4.8-3.7
			c1.8,0,3.6,1.1,4.5,2.6c0.5,0.9,1.6,1.4,2.7,1.4h0.2c0.2,0,0.4,0,0.4,0c2.9,0,5.2,2.3,5.2,5.1c0,2.6-2.1,4.9-4.8,5.1
			c-0.9,0-1.8,0.5-2.3,1.4c-0.9,1.6-2.5,2.5-4.3,2.5c-1.4,0-2.7-0.5-3.6-1.6c-0.5-0.5-1.4-0.9-2.1-0.9c-0.2,0-0.5,0-0.7,0.2
			c-1.2,0.4-2.3,0.5-4.5-1.2C266.9,136.8,266.2,135.1,266.4,133.5z"/>
		<path id="Shape_16_" class="st0" d="M182.3,58.6c5.4,4.5,9.9,5.1,13.6,4.5c3,2.4,6.9,3.9,10.8,3.9c5.4,0,10.5-2.4,13.9-6.9
			c8.4-1.5,14.8-8.7,14.8-17.5c0-9.6-7.5-17.5-17.2-17.8c-3.3-4.2-8.4-6.6-13.9-6.6c-6.9,0-13.3,4.2-16,10.5
			c-6,1.8-10.8,7.2-12.1,13.6C175.1,48,177.5,54.3,182.3,58.6z M185,43.8c0.6-3.6,3.6-6.3,6.9-6.9c1.8-0.3,3.6-1.8,3.9-3.6
			c1.2-3.6,4.5-6.3,8.1-6.3c3,0,6,1.8,7.5,4.5c0.9,1.5,2.7,2.4,4.5,2.4h0.3c0.3,0,0.6,0,0.6,0c4.8,0,8.7,3.9,8.7,8.7
			c0,4.5-3.6,8.4-8.1,8.7c-1.5,0-3,0.9-3.9,2.4c-1.5,2.7-4.2,4.2-7.2,4.2c-2.4,0-4.5-0.9-6-2.7c-0.9-0.9-2.4-1.5-3.6-1.5
			c-0.3,0-0.9,0-1.2,0.3c-2.1,0.6-3.9,0.9-7.5-2.1C185.9,49.5,184.7,46.5,185,43.8z"/>
	</g>
</g>
<g id="noun_Airplane_2481268_1_" transform="translate(3851.000000, 102.000000)">
	<path id="Shape_15_" class="st0" d="M-1500.8,45.7c1.3-3.4,2-7,2.1-10.6c0.3-5.7-2.3-11.1-6.9-14.4c-5.3-3.7-12.9-4.1-21.3-1.1
		c-0.1,0-0.2,0.1-0.3,0.1c-7.2,2.9-13.8,7.3-19.1,13L-1571,58l-78.3-29.6c-13.9-5.6-28.1-2.2-35.6,8.4c-3.3,4.6-2.3,11.1,2.3,14.5
		l68.5,51.3l-7.4,7.6c-7.4,7.7-14.5,15.7-21.2,23.9l-34.4-5c-2-0.3-4,0.9-4.6,2.9l-5,15.8c-0.6,2,0.3,4.2,2.2,5l20.6,9.5
		c-5.6,8-11,16.1-16.1,24.2c-2.2,3.4-1.7,7.9,1.2,10.8c2.9,2.9,7.4,3.4,10.8,1.2c8.1-5.1,16.2-10.5,24.1-16.1l9.5,20.6
		c0.9,1.9,3,2.9,5,2.2l15.8-5c2-0.6,3.2-2.6,2.9-4.6l-5-34.5c8-6.5,15.9-13.5,23.5-20.8l8-7.7l51.4,68.5c3.4,4.6,9.8,5.6,14.5,2.3
		c10.6-7.4,14-21.7,8.4-35.5l-29.7-78.4l25.4-24.5C-1508.2,59.7-1503.7,53.1-1500.8,45.7z M-1677.5,44.5c-0.9-0.7-1.2-2-0.5-3
		c6.3-9.1,17.7-8.6,25.7-5.4l75,28.4l-30.9,32L-1677.5,44.5z M-1517.4,171.1c3.2,7.8,3.7,19.2-5.4,25.6c-1,0.7-2.3,0.5-3-0.5
		l-52-69.4l32-30.9L-1517.4,171.1z M-1597.7,134.5c-7.9,7.6-16.1,14.9-24.5,21.6c-1.1,0.8-1.8,2.1-1.8,3.5c0,0.2,0,0.4,0,0.6
		l4.9,33.3l-8.9,2.8l-10.1-21.9c-0.5-1.1-1.5-2-2.7-2.3c-1.2-0.3-2.5-0.1-3.5,0.6c-9.2,6.6-18.6,12.9-27.9,18.8
		c-0.1,0.1-0.3,0.1-0.4-0.1c-0.1-0.1-0.1-0.3-0.1-0.4c5.9-9.3,12.2-18.7,18.8-27.9c0.7-1,1-2.3,0.6-3.5c-0.3-1.2-1.2-2.2-2.3-2.7
		l-21.9-10.1l2.8-8.9l33.1,4.8l0.1,0c1.8,0.3,3.7-0.6,4.5-2.3c6.7-8.3,14-16.5,21.5-24.4l75.1-77.6c4.5-4.8,10.1-8.6,16.3-11
		c0.1,0,0.2-0.1,0.3-0.1c5.6-2,10.4-1.9,13.4,0.1c2.3,1.8,3.5,4.7,3.3,7.6c-0.1,2.7-0.6,5.3-1.5,7.8c-2.4,6.2-6.2,11.8-11.1,16.3
		L-1597.7,134.5z"/>
</g>
<g id="Group-2_1_" transform="translate(4744.000000, 118.000000)">
	<polyline id="Path-14_1_" class="st1" points="-3504.9,21.5 -3478,21.5 -3473.4,42 -3452.4,136.5 -3340.9,136.5 	"/>
	<circle id="Oval_3_" class="st2" cx="-3431.4" cy="172" r="17.5"/>
	<circle id="Oval_2_" class="st2" cx="-3361.4" cy="172" r="17.5"/>
	<polygon id="Path-15_1_" class="st1" points="-3471.9,42.5 -3314.9,42.5 -3330.3,112.5 -3456.8,112.5 	"/>
</g>
<g id="noun_sausages_2556563_1_" transform="translate(5644.000000, 60.000000)">
	<g id="Group_6_" transform="translate(0.038435, 0.000000)">
		<path id="Shape_14_" class="st0" d="M-5286.8,18c-18.8,0-34.1,15.3-34.1,34.1v161.3c0,18.8,15.3,34.1,34.1,34.1h99.7
			c18.8,0,34.1-15.3,34.1-34.1V52.1c0-18.8-15.3-34.1-34.1-34.1H-5286.8z M-5281.6,40.5h26.9c-1.2,6.4-6.8,11.2-13.5,11.2
			S-5280.4,46.9-5281.6,40.5z M-5248.4,90.6h-39.5V75.8c0-10.1,8.9-18.3,19.7-18.3c10.9,0,19.7,8.2,19.7,18.3V90.6L-5248.4,90.6z
			 M-5158.7,96.3v72.9h-156.4V96.3H-5158.7z M-5219.2,40.5h26.9c-1.2,6.4-6.8,11.2-13.5,11.2S-5218,46.9-5219.2,40.5z M-5186,90.6
			h-39.5V75.8c0-10.1,8.9-18.3,19.7-18.3c10.9,0,19.7,8.2,19.7,18.3V90.6L-5186,90.6z M-5192.3,225.2h-26.9
			c1.2-6.4,6.8-11.2,13.5-11.2S-5193.4,218.8-5192.3,225.2z M-5225.5,174.9h39.5v15c0,10.1-8.9,18.3-19.7,18.3
			c-10.9,0-19.7-8.2-19.7-18.3V174.9L-5225.5,174.9z M-5254.7,225.2h-26.9c1.2-6.4,6.8-11.2,13.5-11.2S-5255.8,218.8-5254.7,225.2z
			 M-5287.9,174.9h39.5v15c0,10.1-8.9,18.3-19.7,18.3c-10.9,0-19.7-8.2-19.7-18.3V174.9L-5287.9,174.9z M-5187.1,241.8h-99.7
			c-15.6,0-28.4-12.7-28.4-28.4v-38.5h21.5v15c0,9.6,6,17.8,14.5,21.7c-5.1,3.5-8.5,9.4-8.5,16v0.4c0,1.6,1.3,2.9,2.9,2.9h33.1
			c1.6,0,2.9-1.3,2.9-2.9v-0.4c0-6.7-3.4-12.5-8.5-16c8.6-3.9,14.5-12.1,14.5-21.7v-15h11.5v15c0,9.6,6,17.8,14.5,21.7
			c-5.1,3.5-8.5,9.4-8.5,16v0.4c0,1.6,1.3,2.9,2.9,2.9h33.1c1.6,0,2.9-1.3,2.9-2.9v-0.4c0-6.7-3.4-12.5-8.5-16
			c8.6-3.9,14.5-12.1,14.5-21.7v-15h21.5v38.5C-5158.7,229-5171.5,241.8-5187.1,241.8z M-5158.7,52.1v38.5h-21.5V75.8
			c0-9.6-6-17.8-14.5-21.7c5.1-3.5,8.5-9.4,8.5-16v-0.4c0-1.6-1.3-2.9-2.9-2.9h-33.1c-1.6,0-2.9,1.3-2.9,2.9v0.4
			c0,6.7,3.4,12.5,8.5,16c-8.6,3.9-14.5,12.1-14.5,21.7v14.8h-11.5V75.8c0-9.6-6-17.8-14.5-21.7c5.1-3.5,8.5-9.4,8.5-16v-0.4
			c0-1.6-1.3-2.9-2.9-2.9h-33.1c-1.6,0-2.9,1.3-2.9,2.9v0.4c0,6.7,3.4,12.5,8.5,16c-8.6,3.9-14.5,12.1-14.5,21.7v14.8h-21.5V52.1
			c0-15.6,12.7-28.4,28.4-28.4h99.7C-5171.5,23.8-5158.7,36.5-5158.7,52.1z"/>
		<path id="Shape_13_" class="st0" d="M-5301.6,150.9h61.8c1.6,0,2.9-1.3,2.9-2.9v-32.7c0-1.6-1.3-2.9-2.9-2.9h-61.8
			c-1.6,0-2.9,1.3-2.9,2.9v32.7C-5304.4,149.6-5303.1,150.9-5301.6,150.9z M-5298.7,118.2h56.1v26.9h-56.1V118.2z"/>
		<path id="Path_19_" class="st0" d="M-5219,128.3h42.4c1.3,0,2.3-1.3,2.3-2.9s-1-2.9-2.3-2.9h-42.4c-1.3,0-2.3,1.3-2.3,2.9
			S-5220.3,128.3-5219,128.3z"/>
		<path id="Path_18_" class="st0" d="M-5217.6,140.9h39.9c2,0,3.7-1.3,3.7-2.9s-1.6-2.9-3.7-2.9h-39.9c-2,0-3.7,1.3-3.7,2.9
			S-5219.7,140.9-5217.6,140.9z"/>
	</g>
</g>
<g id="Group_5_" transform="translate(0.269299, 0.000000)">
	<path id="Shape_12_" class="st9" d="M4152.8,68.5c-1.3,0-2.8,0.1-4.3,0.4c-5.3,1-11.7,5-18.3,10.8h-109.5c-5.7-4.9-11.4-8.3-16-9.3
		c-5.3-1.1-9.5-0.5-10.8-0.6h-0.1c0,0-0.1,0-0.1,0c-0.1,0-0.1,0-0.2,0c-1.3,0-3.1,0.2-4.9,1.5c-4.3,3.2-6,8.4-6.2,15.8
		c-0.2,6.8,2.1,15.9,7.1,25.7c-2.5,17.4-4.1,44.3-4.1,75.2s1.6,57.8,4.1,75.2c-5,9.9-7.3,18.9-7.1,25.7c0.3,7.4,1.9,12.6,6.2,15.8
		c5.8,4.3,18.1,4.1,32.2-8.4h109.5c14.1,12.5,26.4,12.6,32.2,8.4c4.4-3.2,6-8.4,6.2-15.8c0.2-6.9-2.1-15.9-7.1-25.7
		c1.3-9.3,2.4-21.2,3.1-35c0.6-12.1,1-25.7,1-40.2c0-30.9-1.6-57.8-4.1-75.3c5-9.9,7.3-18.9,7.1-25.7c-0.3-7.4-1.9-12.6-6.2-15.8
		C4160.1,69.6,4156.8,68.5,4152.8,68.5z M4154.7,78.6c1,0.2,1.6,0.5,1.8,0.6c-0.6-0.5,2,2.8,2.2,8.2c0.2,5.5-1.2,13.2-6.5,22.8
		c-0.5,0.9-0.7,2-0.5,3.1c2.4,16.6,4.1,43.8,4.1,74.8s-1.6,58.2-4.1,74.7c-0.2,1.1,0,2.1,0.5,3.1c5.3,9.6,6.7,17.4,6.5,22.9
		c-0.2,5.5-2.8,8.7-2.2,8.2c-0.6,0.5-8.4,4.2-21.6-8.9c-0.9-0.9-2.2-1.4-3.5-1.4h-111.7c-1.3,0-2.6,0.5-3.5,1.4
		c-13.2,13-21,9.3-21.6,8.9c0.6,0.5-2-2.8-2.2-8.2c-0.2-5.5,1.2-13.3,6.5-22.9c0.5-0.9,0.7-2,0.5-3.1c-2.4-16.5-4.1-43.7-4.1-74.7
		s1.6-58.2,4.1-74.8c0.2-1.1,0-2.1-0.5-3.1c-5.3-9.6-6.7-17.4-6.5-22.8c0.2-5.1,2.3-7.7,2.1-7.7c2.8,0,5.2-0.3,8.3,0.3
		c3.5,0.7,7.9,2.6,13.5,8c0.9,0.9,2.2,1.5,3.5,1.5h111.7c1.3,0,2.6-0.5,3.5-1.5c6.6-6.5,11.9-8.8,15.5-9.5
		C4152.2,78.3,4153.7,78.4,4154.7,78.6z M4020.4,148.7c-2.8,0-5,2.2-5,4.9v59.1c0,2.7,2.2,4.9,5,4.9h110.2c2.8,0,5-2.2,5-4.9v-59.1
		c0-2.7-2.2-4.9-5-4.9H4020.4z M4025.4,158.6h100.2v49.3h-100.2V158.6z"/>
	<line id="Path-13_3_" class="st10" x1="4038" y1="175" x2="4097.1" y2="175.1"/>
	<line id="Path-13_2_" class="st10" x1="4038" y1="191.2" x2="4097.4" y2="191.2"/>
</g>
<g id="noun_Global-Warming_2684613_1_" transform="translate(1147.000000, 40.000000)">
	<g id="Group_4_">
		<path id="Path_17_" class="st5" d="M3994.9,161.1c-43.4,7.2-127,30-198.9,100.8c-1.2,1.2-1.2,3.2,0,4.4c0.6,0.6,1.4,0.9,2.2,0.9
			c0.8,0,1.6-0.3,2.2-0.9c70.7-69.6,152.9-91.9,195.6-99.1c1.7-0.3,2.9-1.9,2.6-3.6C3998.2,161.9,3996.6,160.8,3994.9,161.1z"/>
		<path id="Path_16_" class="st5" d="M3994.7,192.2c-37.2,8.7-92.8,27.9-146,69.4c-1.4,1.1-1.6,3-0.5,4.4c0.6,0.8,1.5,1.2,2.5,1.2
			c0.7,0,1.3-0.2,1.9-0.7c52.3-40.8,106.9-59.6,143.5-68.2c1.7-0.4,2.7-2.1,2.3-3.8C3998.1,192.9,3996.4,191.9,3994.7,192.2z"/>
		<path id="Path_15_" class="st5" d="M3998.4,227c-0.5-1.7-2.2-2.6-3.9-2.1c-29.8,8.9-58.2,21.3-84.5,36.8c-1.5,0.9-2,2.8-1.1,4.3
			c0.6,1,1.6,1.5,2.7,1.5c0.5,0,1.1-0.1,1.6-0.4c25.9-15.2,53.9-27.4,83.2-36.2C3998,230.4,3998.9,228.6,3998.4,227z"/>
		<path id="Path_14_" class="st5" d="M3751.5,109.7c0.7,0,69.7,4.1,144.3,46.7c-10.2,4.1-20.8,8.8-31.7,14.3
			c-44.6-23.2-85.5-33.3-112-37.8c-1.7-0.3-3.3,0.9-3.6,2.6c-0.3,1.7,0.9,3.3,2.6,3.6c25.3,4.2,63.9,13.8,106.2,35.1
			c-9.3,5-18.8,10.5-28.3,16.7c-24.6-11.6-50.4-20.6-76.7-26.8c-1.7-0.4-3.4,0.6-3.8,2.3c-0.4,1.7,0.6,3.4,2.3,3.8
			c24.7,5.8,48.9,14.1,72,24.8c-8.3,5.7-16.6,11.8-24.9,18.6c-14.7-6.5-30.1-12.2-45.5-16.8c-1.7-0.5-3.4,0.4-3.9,2.1
			c-0.5,1.7,0.4,3.4,2.1,3.9c14.2,4.3,28.3,9.4,41.9,15.3c-15,12.7-29.6,27.3-43.5,44.1c-1.1,1.3-0.9,3.3,0.4,4.4
			c0.6,0.5,1.3,0.7,2,0.7c0.9,0,1.8-0.4,2.4-1.1c98.8-119.5,240.1-128.1,241.5-128.2c1.7-0.1,3-1.6,3-3.3c-0.1-1.7-1.6-3.1-3.3-3
			c-0.8,0-40.1,2.4-91.9,21.9c-77.7-45.8-150.8-50-151.5-50c-1.7-0.1-3.2,1.2-3.3,3C3748.5,108.1,3749.8,109.6,3751.5,109.7z"/>
		<path id="Path_13_" class="st5" d="M3850.6,40.6c0-9.8-3.9-15.1-7-19.3c-0.6-0.8-1.2-1.6-1.8-2.4c-1-1.4-2.9-1.8-4.3-0.8
			c-1.4,1-1.8,2.9-0.8,4.3c0.6,0.9,1.3,1.8,1.9,2.7c3,4,5.8,7.8,5.8,15.5c0,6.1-2,9.1-4.3,12.4c-2.5,3.7-5.4,7.9-5.4,16
			c0,8.1,2.9,12.3,5.4,16c0.6,0.9,1.6,1.4,2.6,1.4c0.6,0,1.2-0.2,1.8-0.5c1.4-1,1.8-2.9,0.8-4.3c-2.3-3.4-4.3-6.3-4.3-12.4
			c0-6.1,2-9.1,4.3-12.4C3847.7,52.9,3850.6,48.7,3850.6,40.6z"/>
		<path id="Path_12_" class="st5" d="M3881.6,40.6c0-9.8-3.9-15.1-7-19.3c-0.6-0.8-1.2-1.6-1.8-2.4c-1-1.4-2.9-1.8-4.3-0.8
			c-1.4,1-1.8,2.9-0.8,4.3c0.6,0.9,1.3,1.8,1.9,2.7c3,4,5.8,7.8,5.8,15.5c0,6.1-2,9.1-4.3,12.4c-2.5,3.7-5.4,7.9-5.4,16
			c0,8.1,2.9,12.3,5.4,16c0.6,0.9,1.6,1.4,2.6,1.4c0.6,0,1.2-0.2,1.8-0.5c1.4-1,1.8-2.9,0.8-4.3c-2.3-3.4-4.3-6.3-4.3-12.4
			c0-6.1,2-9.1,4.3-12.4C3878.7,52.9,3881.6,48.7,3881.6,40.6z"/>
		<path id="Path_11_" class="st5" d="M3912.6,40.6c0-9.8-3.9-15.1-7-19.3c-0.6-0.8-1.2-1.6-1.8-2.4c-1-1.4-2.9-1.8-4.3-0.8
			c-1.4,1-1.8,2.9-0.8,4.3c0.6,0.9,1.3,1.8,1.9,2.7c3,4,5.8,7.8,5.8,15.5c0,6.1-2,9.1-4.3,12.4c-2.5,3.7-5.4,7.9-5.4,16
			c0,8.1,2.9,12.3,5.4,16c0.6,0.9,1.6,1.4,2.6,1.4c0.6,0,1.2-0.2,1.8-0.5c1.4-1,1.8-2.9,0.8-4.3c-2.3-3.4-4.3-6.3-4.3-12.4
			c0-6.1,2-9.1,4.3-12.4C3909.7,52.9,3912.6,48.7,3912.6,40.6z"/>
	</g>
</g>
<g>
	<path id="Shape_11_" class="st0" d="M6002.4,280.5c-10.2,0-19.8-5.4-25.8-14.4c10.1-9.7,16.4-22.9,17.7-37.3c0,0,0-0.1,0-0.1
		c0-0.4,0.1-0.9,0.1-1.3c0-0.1,0-0.3,0-0.4c0-0.4,0-0.7,0.1-1.1c0-0.2,0-0.5,0-0.7c0-0.3,0-0.5,0-0.8c0-0.5,0-1,0-1.5
		c0-0.6,0-1.1,0-1.7c0-0.1,0-0.2,0-0.3c0-0.5,0-1-0.1-1.5c0-0.1,0-0.1,0-0.2c-0.4-7.6-1.9-16.9-4.2-26.5c-0.1-0.3-0.1-0.6-0.2-0.9
		c-0.1-0.4-0.2-0.8-0.3-1.2c-0.1-0.5-0.2-1-0.4-1.5c0-0.2-0.1-0.4-0.1-0.6c-0.1-0.3-0.2-0.7-0.3-1c5.8-8.3,10.4-10.1,13.3-10.1
		c6.8,0,14.9,9.7,21.6,25.8c5.9,14.1,10.2,32.1,10.2,42.7C6034.2,265,6019.9,280.5,6002.4,280.5L6002.4,280.5z M5944.6,250.5
		l22.6-16.3c1.8-1.3,2.2-3.8,0.9-5.6c-1.3-1.8-3.8-2.2-5.6-0.9l-17.9,12.9v-33.6l14.8-10.7c1.8-1.3,2.2-3.8,0.9-5.6
		c-1.3-1.8-3.8-2.2-5.6-0.9l-10.2,7.3v-20.8c0-2.2-1.8-4-4-4c-2.2,0-4,1.8-4,4v44.1l-17.6-12.7c-1.8-1.3-4.3-0.9-5.6,0.9
		c-1.3,1.8-0.9,4.3,0.9,5.6l22.3,16.1v42.4c-21.6-2-38.9-20.3-41.7-43.4c0,0,0-0.1,0-0.1c0-0.3-0.1-0.7-0.1-1c0-0.1,0-0.3,0-0.4
		c0-0.3,0-0.6-0.1-0.9c0-0.2,0-0.4,0-0.6c0-0.2,0-0.5,0-0.7c0-0.3,0-0.5,0-0.8c0-0.2,0-0.4,0-0.5c0-0.5,0-0.9,0-1.4
		c0-0.4,0-0.8,0-1.2c0-0.1,0-0.3,0-0.4c0-0.3,0-0.7,0-1c0.4-8.7,2.4-20.3,5.7-32.5c0-0.1,0-0.1,0-0.2c2.3-8.5,5.2-17.1,8.6-25
		c9.9-23.6,21.4-37.1,31.7-37.1c10.3,0,21.8,13.5,31.7,37.1c3.3,7.9,6.2,16.5,8.6,25c0,0.1,0,0.1,0,0.2c3.3,12.2,5.3,23.8,5.7,32.5
		c0,0.3,0,0.7,0,1c0,0.1,0,0.3,0,0.4c0,0.4,0,0.8,0,1.2c0,0.5,0,0.9,0,1.4c0,0.2,0,0.4,0,0.5c0,0.3,0,0.5,0,0.8c0,0.2,0,0.5,0,0.7
		c0,0.2,0,0.4,0,0.6c0,0.3,0,0.6-0.1,0.9c0,0.1,0,0.3,0,0.4c0,0.3-0.1,0.7-0.1,1c0,0,0,0.1,0,0.1c-2.7,23.2-20.1,41.4-41.7,43.5
		V250.5z M5878.9,280.5c-17.5,0-31.8-15.6-31.8-34.7c0-10.7,4.3-28.7,10.2-42.7c6.8-16.2,14.8-25.8,21.6-25.8
		c2.9,0,7.5,1.8,13.3,10.1c-0.1,0.4-0.2,0.7-0.3,1c0,0.2-0.1,0.4-0.1,0.5c-0.1,0.5-0.3,1-0.4,1.5c-0.1,0.4-0.2,0.8-0.3,1.2
		c-0.1,0.3-0.1,0.6-0.2,0.9c-2.3,9.7-3.8,18.9-4.2,26.5c0,0.1,0,0.1,0,0.2c0,0.5,0,1-0.1,1.5c0,0.1,0,0.2,0,0.3c0,0.6,0,1.1,0,1.7
		c0,0.5,0,1,0,1.5c0,0.3,0,0.5,0,0.8c0,0.2,0,0.5,0,0.7c0,0.4,0,0.7,0.1,1.1c0,0.1,0,0.3,0,0.4c0,0.4,0.1,0.9,0.1,1.3
		c0,0,0,0.1,0,0.1c1.4,14.4,7.6,27.6,17.7,37.3C5898.7,275.1,5889.1,280.5,5878.9,280.5L5878.9,280.5z M6042.1,245.9
		c0-11.8-4.4-30.6-10.8-45.8c-10.6-25.4-21.6-30.7-29-30.7c-5.5,0-10.9,2.9-16,8.7c-2-6.4-4.2-12.6-6.7-18.5
		c-5.1-12.1-10.6-21.8-16.5-28.9c-7.2-8.7-14.8-13.1-22.5-13.1c-7.7,0-15.3,4.4-22.5,13.1c-5.9,7.1-11.5,16.8-16.5,28.9
		c-2.5,5.9-4.7,12.2-6.7,18.5c-5.1-5.7-10.5-8.7-16-8.7c-13.3,0-23.1,16.7-29,30.7c-6.4,15.2-10.8,34-10.8,45.8
		c0,22.1,15.7,40.3,35.8,42.4v15.2c0,2.2,1.8,4,4,4c2.2,0,4-1.8,4-4v-15.2c11.1-1.2,21.3-7.4,27.9-17c7.5,5.4,16.3,8.8,25.8,9.5
		v22.7c0,2.2,1.8,4,4,4c2.2,0,4-1.8,4-4v-22.7c9.5-0.7,18.3-4.2,25.8-9.5c6.7,9.6,16.8,15.8,27.9,17v15.2c0,2.2,1.8,4,4,4
		c2.2,0,4-1.8,4-4v-15.2C6026.4,286.2,6042.1,267.9,6042.1,245.9L6042.1,245.9z"/>
	<line id="Path-2_1_" class="st6" x1="5851.1" y1="307.5" x2="6028.1" y2="307.5"/>
</g>
<rect x="5624.1" y="748.6" class="st11" width="665.6" height="673.3"/>
<text transform="matrix(1 0 0 1 5733.3125 803.2089)"><tspan x="0" y="0" class="st0 st12 st13">Aboveground </tspan><tspan x="44.7" y="86.4" class="st0 st12 st13">changes in </tspan><tspan x="-26.6" y="172.8" class="st0 st12 st13">biomass due to </tspan><tspan x="-5.7" y="259.2" class="st0 st12 st13">deforestation, </tspan><tspan x="-66.9" y="345.6" class="st0 st12 st13">and underground </tspan><tspan x="-21.6" y="432" class="st0 st12 st13">changes in soil </tspan><tspan x="107.9" y="518.4" class="st0 st12 st13">carbon</tspan></text>
<rect x="4700" y="748.6" class="st11" width="665.6" height="713.1"/>
<text transform="matrix(1 0 0 1 4885.2256 803.2089)"><tspan x="0" y="0" class="st0 st12 st13">methane </tspan><tspan x="-109.3" y="86.4" class="st0 st12 st13">emissions from </tspan><tspan x="-170.5" y="172.8" class="st0 st12 st13">animals, emissions </tspan><tspan x="-108.7" y="259.2" class="st0 st12 st13">from fertilizers, </tspan><tspan x="-142.4" y="345.6" class="st0 st12 st13">manure and farm </tspan><tspan x="-31.3" y="432" class="st0 st12 st13">machinery</tspan></text>
<rect x="3775.9" y="748.6" class="st11" width="665.6" height="873.6"/>
<text transform="matrix(1 0 0 1 3851.7808 803.2089)"><tspan x="0" y="0" class="st0 st12 st13">emissions from </tspan><tspan x="-8.7" y="86.4" class="st0 st12 st13">crop production </tspan><tspan x="-43.6" y="172.8" class="st0 st12 st13">and its processing </tspan><tspan x="-71.5" y="259.2" class="st0 st12 st13">into feed for farmed </tspan><tspan x="124.6" y="345.6" class="st0 st12 st13">animals</tspan></text>
<rect x="2851.8" y="748.6" class="st11" width="665.6" height="673.3"/>
<text transform="matrix(1 0 0 1 2927.6648 803.2089)"><tspan x="0" y="0" class="st0 st12 st13">emissions from </tspan><tspan x="-26.4" y="86.4" class="st0 st12 st13">energy use in the </tspan><tspan x="88.5" y="172.8" class="st0 st12 st13">process of </tspan><tspan x="8.1" y="259.2" class="st0 st12 st13">converting raw </tspan><tspan x="-45.8" y="345.6" class="st0 st12 st13">products into final </tspan><tspan x="82.5" y="432" class="st0 st12 st13">food items</tspan></text>
<rect x="1927.6" y="748.6" class="st11" width="665.6" height="488"/>
<text transform="matrix(1 0 0 1 2003.5491 803.2089)"><tspan x="0" y="0" class="st0 st12 st13">emissions from </tspan><tspan x="-26.4" y="86.4" class="st0 st12 st13">energy use in the </tspan><tspan x="-19" y="172.8" class="st0 st12 st13">transport of food </tspan><tspan x="-19.8" y="259.2" class="st0 st12 st13">items in-country </tspan><tspan x="-58.4" y="345.6" class="st0 st12 st13">and internationally</tspan></text>
<rect x="1003.5" y="748.6" class="st11" width="665.6" height="673.3"/>
<text transform="matrix(1 0 0 1 1079.4321 803.2089)"><tspan x="0" y="0" class="st0 st12 st13">emissions from </tspan><tspan x="-26.4" y="86.4" class="st0 st12 st13">energy use in the </tspan><tspan x="26.4" y="172.8" class="st0 st12 st13">refridgeration </tspan><tspan x="3.1" y="259.2" class="st0 st12 st13">and other retail </tspan><tspan x="92.1" y="345.6" class="st0 st12 st13">processes</tspan></text>
<rect x="79.4" y="748.6" class="st11" width="665.6" height="713.1"/>
<text transform="matrix(1 0 0 1 93.7211 803.2089)"><tspan x="0" y="0" class="st0 st12 st13">emissions from the </tspan><tspan x="-6.2" y="86.4" class="st0 st12 st13">production of pack</tspan><tspan x="614.8" y="86.4" class="st0 st12 st13">-</tspan><tspan x="11.5" y="172.8" class="st0 st12 st13">age materials, ma</tspan><tspan x="597.1" y="172.8" class="st0 st12 st13">-</tspan><tspan x="-1.7" y="259.2" class="st0 st12 st13">terial transport and </tspan><tspan x="143.9" y="345.6" class="st0 st12 st13">end-of-life </tspan><tspan x="181.2" y="432" class="st0 st12 st13">disposal</tspan></text>
</svg>
