<?xml version="1.0" encoding="utf-8"?>
<!-- Generator: Adobe Illustrator 24.2.1, SVG Export Plug-In . SVG Version: 6.00 Build 0)  -->
<svg version="1.1" id="Ebene_1" xmlns="http://www.w3.org/2000/svg" xmlns:xlink="http://www.w3.org/1999/xlink" x="0px" y="0px"
	 viewBox="0 0 1201.4 345.5" style="enable-background:new 0 0 1201.4 345.5;" xml:space="preserve">
<style type="text/css">
	.st0{fill:#FFFFFF;}
	.st1{fill:#FFFFFF;stroke:#FFFFFF;stroke-miterlimit:10;}
	.st2{fill:#FFFFFF;stroke:#FFFFFF;stroke-width:3.3656;stroke-miterlimit:10;}
	.st3{fill:#FFFFFF;stroke:#FFFFFF;stroke-width:2.9414;stroke-miterlimit:10;}
	.st4{fill:none;stroke:#FFFFFF;stroke-width:6.6037;stroke-miterlimit:10;}
	.st5{fill:none;stroke:#37485E;stroke-width:5;stroke-miterlimit:10;}
	.st6{fill:#37485E;}
	.st7{fill-rule:evenodd;clip-rule:evenodd;fill:none;stroke:#37485E;stroke-width:5;stroke-miterlimit:10;}
	.st8{fill:#37485E;stroke:#37485E;stroke-width:0.75;stroke-miterlimit:10;}
	.st9{fill-rule:evenodd;clip-rule:evenodd;fill:#37485E;}
	.st10{fill:#233854;}
</style>
<line class="st5" x1="125.3" y1="247.5" x2="1055.8" y2="247.5"/>
<g>
	<g>
		<path class="st6" d="M19.8,267.8c-1.8,0-9.5-0.3-14.5-5.3c-5.5-5.5-5.3-14.5-5.3-15c0-1.3,1-2.3,2.5-2.5c0.5,0,9.5-0.3,15,5.3
			c5.5,5.5,5.3,14.5,5.3,15c0,1.3-1,2.3-2.5,2.5C20.3,267.8,20,267.8,19.8,267.8z M20,265.3L20,265.3L20,265.3z M20,265.3L20,265.3
			L20,265.3z M5,250.3c0.3,2.5,1.3,6.3,3.8,8.8s6.3,3.3,8.8,3.8c-0.3-2.5-1.3-6.3-3.8-8.8S7.5,250.8,5,250.3z"/>
	</g>
	<g>
		<path class="st6" d="M19.8,243.1c-1.8,0-9.5-0.3-14.5-5.3c-5.5-5.5-5.3-14.5-5.3-15c0-1.3,1-2.3,2.5-2.5c0.5,0,9.3-0.3,15,5.3
			c5.5,5.5,5.3,14.5,5.3,15c0,1.3-1,2.3-2.5,2.5C20.3,243.1,20,243.1,19.8,243.1z M20,240.6L20,240.6L20,240.6z M20,240.6L20,240.6
			L20,240.6z M5,225.6c0.3,2.5,1.3,6.3,3.8,8.8s6.3,3.3,8.8,3.8c-0.3-2.5-1.3-6.3-3.8-8.8S7.5,225.8,5,225.6z"/>
	</g>
	<g>
		<path class="st6" d="M19.8,218.3c-1.8,0-9.5-0.3-14.5-5.3c-5.5-5.5-5.3-14.5-5.3-15c0-1.3,1-2.3,2.5-2.5c0.5,0,9.3-0.3,15,5.3
			c5.5,5.5,5.3,14.5,5.3,15c0,1.3-1,2.3-2.5,2.5C20.3,218.3,20,218.3,19.8,218.3z M20,215.8L20,215.8L20,215.8z M20,215.8L20,215.8
			L20,215.8z M5,200.8c0.3,2.5,1.3,6.3,3.8,8.8s6.3,3.3,8.8,3.8c-0.3-2.5-1.3-6.3-3.8-8.8C11.3,201.8,7.5,201.1,5,200.8z"/>
	</g>
	<g>
		<path class="st6" d="M19.8,193.3c-1.8,0-9.5-0.3-14.5-5.3c-5.5-5.5-5.3-14.5-5.3-15c0-1.3,1-2.3,2.5-2.5c0.5,0,9.3-0.3,15,5.3
			c5.5,5.5,5.3,14.5,5.3,15c0,1.3-1,2.3-2.5,2.5C20.3,193.3,20,193.3,19.8,193.3z M20,190.8L20,190.8L20,190.8z M20,190.8L20,190.8
			L20,190.8z M5,175.8c0.3,2.5,1.3,6.3,3.8,8.8s6.3,3.3,8.8,3.8c-0.3-2.5-1.3-6.3-3.8-8.8C11.3,177.1,7.5,176.3,5,175.8z"/>
	</g>
	<g>
		<path class="st6" d="M19.8,168.6c-1.8,0-9.5-0.3-14.5-5.3c-5.5-5.5-5.3-14.5-5.3-15c0-1.3,1-2.3,2.5-2.5c0.5,0,9.3-0.3,15,5.3
			c5.5,5.5,5.3,14.5,5.3,15c0,1.3-1,2.3-2.5,2.5C20.3,168.6,20,168.6,19.8,168.6z M20,166.1L20,166.1L20,166.1z M20,166.1L20,166.1
			L20,166.1z M5,151.1c0.3,2.5,1.3,6.3,3.8,8.8s6.3,3.3,8.8,3.8c-0.3-2.5-1.3-6.3-3.8-8.8S7.5,151.3,5,151.1z"/>
	</g>
	<g>
		<path class="st6" d="M36.8,267.8c-0.3,0-0.3,0-0.5,0c-1.3,0-2.3-1-2.5-2.5c0-0.5-0.3-9.3,5.3-15c5.5-5.5,14.5-5.3,15-5.3
			c1.3,0,2.3,1,2.5,2.5c0,0.5,0.3,9.3-5.3,15C46.3,267.6,38.5,267.8,36.8,267.8z M51.5,250.3c-2.5,0.3-6.3,1.3-8.8,3.8
			c-2.5,2.5-3.5,6.3-3.8,8.8c2.5-0.3,6.3-1.3,8.8-3.8C50.3,256.6,51,252.8,51.5,250.3z"/>
	</g>
	<g>
		<path class="st6" d="M36.8,243.1c-0.3,0-0.3,0-0.5,0c-1.3,0-2.3-1-2.5-2.5c0-0.5-0.3-9.3,5.3-15c5.5-5.5,14.5-5.3,15-5.3
			c1.3,0,2.3,1,2.5,2.5c0,0.5,0.3,9.3-5.3,15C46.3,242.8,38.5,243.1,36.8,243.1z M51.5,225.6c-2.5,0.3-6.3,1.3-8.8,3.8
			c-2.5,2.5-3.5,6.3-3.8,8.8c2.5-0.3,6.3-1.3,8.8-3.8C50.3,231.8,51,228.1,51.5,225.6z"/>
	</g>
	<g>
		<path class="st6" d="M36.8,218.3c-0.3,0-0.3,0-0.5,0c-1.3,0-2.3-1-2.5-2.5c0-0.5-0.3-9.3,5.3-15c5.5-5.5,14.5-5.3,15-5.3
			c1.3,0,2.3,1,2.5,2.5c0,0.5,0.3,9.3-5.3,15C46.3,218.1,38.5,218.3,36.8,218.3z M51.5,200.8c-2.5,0.3-6.3,1.3-8.8,3.8
			c-2.5,2.5-3.5,6.3-3.8,8.8c2.5-0.3,6.3-1.3,8.8-3.8C50.3,206.8,51,203.3,51.5,200.8z"/>
	</g>
	<g>
		<path class="st6" d="M36.8,193.3c-0.3,0-0.3,0-0.5,0c-1.3,0-2.3-1-2.5-2.5c0-0.5-0.3-9.3,5.3-15c5.5-5.5,14.5-5.3,15-5.3
			c1.3,0,2.3,1,2.5,2.5c0,0.5,0.3,9.3-5.3,15C46.3,193.1,38.5,193.3,36.8,193.3z M51.5,175.8c-2.5,0.3-6.3,1.3-8.8,3.8
			c-2.5,2.5-3.3,6.3-3.8,8.8c2.5-0.3,6.3-1.3,8.8-3.8C50.3,182.1,51,178.3,51.5,175.8z"/>
	</g>
	<g>
		<path class="st6" d="M36.8,168.6c-0.3,0-0.3,0-0.5,0c-1.3,0-2.3-1-2.5-2.5c0-0.5-0.3-9.3,5.3-15c5.5-5.5,14.5-5.3,15-5.3
			c1.3,0,2.3,1,2.5,2.5c0,0.5,0.3,9.3-5.3,15C46.3,168.3,38.5,168.6,36.8,168.6z M51.5,151.1c-2.5,0.3-6.3,1.3-8.8,3.8
			c-2.5,2.5-3.5,6.3-3.8,8.8c2.5-0.3,6.3-1.3,8.8-3.8C50.3,157.3,51,153.6,51.5,151.1z"/>
	</g>
	<g>
		<path class="st6" d="M27.8,151.1c-0.5,0-1.3-0.3-1.8-0.8c-0.3-0.3-6.8-6.3-6.8-14.3s6.5-14,6.8-14.3c1-1,2.5-1,3.5,0
			c0.3,0.3,6.8,6.5,6.8,14.3c0,8-6.5,14-6.8,14.3C29,150.8,28.3,151.1,27.8,151.1z M27.8,127.3c-1.5,2-3.5,5.3-3.5,8.8
			s2,6.8,3.5,8.8c1.5-2,3.5-5.3,3.5-8.8S29.3,129.3,27.8,127.3z"/>
	</g>
	<g>
		<path class="st6" d="M27.8,281.1c-1.5,0-2.5-1-2.5-2.5v-130c0-1.5,1-2.5,2.5-2.5s2.5,1,2.5,2.5v130
			C30.3,280.1,29.3,281.1,27.8,281.1z"/>
	</g>
	<g>
		<path class="st6" d="M91.8,267.8c-1.8,0-9.5-0.3-14.5-5.3c-5.5-5.5-5.3-14.5-5.3-15c0-1.3,1-2.3,2.5-2.5c0.5,0,9.3-0.3,15,5.3
			c5.5,5.5,5.3,14.5,5.3,15c0,1.3-1,2.3-2.5,2.5C92.3,267.8,92,267.8,91.8,267.8z M92,265.3L92,265.3L92,265.3z M92,265.3L92,265.3
			L92,265.3z M77,250.3c0.3,2.5,1.3,6.3,3.8,8.8s6.3,3.3,8.8,3.8c-0.3-2.5-1.3-6.3-3.8-8.8C83.3,251.6,79.5,250.8,77,250.3z"/>
	</g>
	<g>
		<path class="st6" d="M91.8,243.1c-1.8,0-9.5-0.3-14.5-5.3c-5.5-5.5-5.3-14.5-5.3-15c0-1.3,1-2.3,2.5-2.5c0.5,0,9.3-0.3,15,5.3
			c5.5,5.5,5.3,14.5,5.3,15c0,1.3-1,2.3-2.5,2.5C92.3,243.1,92,243.1,91.8,243.1z M92,240.6L92,240.6L92,240.6z M92,240.6L92,240.6
			L92,240.6z M77,225.6c0.3,2.5,1.3,6.3,3.8,8.8s6.3,3.3,8.8,3.8c-0.3-2.5-1.3-6.3-3.8-8.8C83.3,226.8,79.5,225.8,77,225.6z"/>
	</g>
	<g>
		<path class="st6" d="M91.8,218.3c-1.8,0-9.5-0.3-14.5-5.3c-5.5-5.5-5.3-14.5-5.3-15c0-1.3,1-2.3,2.5-2.5c0.5,0,9.3-0.3,15,5.3
			c5.5,5.5,5.3,14.5,5.3,15c0,1.3-1,2.3-2.5,2.5C92.3,218.3,92,218.3,91.8,218.3z M92,215.8L92,215.8L92,215.8z M92,215.8L92,215.8
			L92,215.8z M77,200.8c0.3,2.5,1.3,6.3,3.8,8.8s6.3,3.3,8.8,3.8c-0.3-2.5-1.3-6.3-3.8-8.8C83.3,201.8,79.5,201.1,77,200.8z"/>
	</g>
	<g>
		<path class="st6" d="M91.8,193.3c-1.8,0-9.5-0.3-14.5-5.3c-5.5-5.5-5.3-14.5-5.3-15c0-1.3,1-2.3,2.5-2.5c0.5,0,9.3-0.3,15,5.3
			c5.5,5.5,5.3,14.5,5.3,15c0,1.3-1,2.3-2.5,2.5C92.3,193.3,92,193.3,91.8,193.3z M92,190.8L92,190.8L92,190.8z M92,190.8L92,190.8
			L92,190.8z M77,175.8c0.3,2.5,1.3,6.3,3.8,8.8s6.3,3.3,8.8,3.8c-0.3-2.5-1.3-6.3-3.8-8.8C83.3,177.1,79.5,176.3,77,175.8z"/>
	</g>
	<g>
		<path class="st6" d="M91.8,168.6c-1.8,0-9.5-0.3-14.5-5.3c-5.5-5.5-5.3-14.5-5.3-15c0-1.3,1-2.3,2.5-2.5c0.5,0,9.3-0.3,15,5.3
			c5.5,5.5,5.3,14.5,5.3,15c0,1.3-1,2.3-2.5,2.5C92.3,168.6,92,168.6,91.8,168.6z M92,166.1L92,166.1L92,166.1z M92,166.1L92,166.1
			L92,166.1z M77,151.1c0.3,2.5,1.3,6.3,3.8,8.8s6.3,3.3,8.8,3.8c-0.3-2.5-1.3-6.3-3.8-8.8C83.3,152.3,79.5,151.3,77,151.1z"/>
	</g>
	<g>
		<path class="st6" d="M108.8,267.8c-0.3,0-0.3,0-0.5,0c-1.3,0-2.3-1-2.5-2.5c0-0.5-0.3-9.3,5.3-15c5.5-5.5,14.5-5.3,15-5.3
			c1.3,0,2.3,1,2.5,2.5c0,0.5,0.3,9.3-5.3,15C118.3,267.6,110.5,267.8,108.8,267.8z M123.5,250.3c-2.5,0.3-6.3,1.3-8.8,3.8
			c-2.5,2.5-3.5,6.3-3.8,8.8c2.5-0.3,6.3-1.3,8.8-3.8S123,252.8,123.5,250.3z"/>
	</g>
	<g>
		<path class="st6" d="M108.8,243.1c-0.3,0-0.3,0-0.5,0c-1.3,0-2.3-1-2.5-2.5c0-0.5-0.3-9.3,5.3-15c5.5-5.5,14.5-5.3,15-5.3
			c1.3,0,2.3,1,2.5,2.5c0,0.5,0.3,9.3-5.3,15C118.3,242.8,110.5,243.1,108.8,243.1z M123.5,225.6c-2.5,0.3-6.3,1.3-8.8,3.8
			c-2.5,2.5-3.5,6.3-3.8,8.8c2.5-0.3,6.3-1.3,8.8-3.8S123,228.1,123.5,225.6z"/>
	</g>
	<g>
		<path class="st6" d="M108.8,218.3c-0.3,0-0.3,0-0.5,0c-1.3,0-2.3-1-2.5-2.5c0-0.5-0.3-9.3,5.3-15c5.5-5.5,14.5-5.3,15-5.3
			c1.3,0,2.3,1,2.5,2.5c0,0.5,0.3,9.3-5.3,15C118.3,218.1,110.5,218.3,108.8,218.3z M123.5,200.8c-2.5,0.3-6.3,1.3-8.8,3.8
			c-2.5,2.5-3.5,6.3-3.8,8.8c2.5-0.3,6.3-1.3,8.8-3.8C122.3,206.8,123,203.3,123.5,200.8z"/>
	</g>
	<g>
		<path class="st6" d="M108.8,193.3c-0.3,0-0.3,0-0.5,0c-1.3,0-2.3-1-2.5-2.5c0-0.5-0.3-9.3,5.3-15c5.5-5.5,14.5-5.3,15-5.3
			c1.3,0,2.3,1,2.5,2.5c0,0.5,0.3,9.3-5.3,15C118.3,193.1,110.5,193.3,108.8,193.3z M123.5,175.8c-2.5,0.3-6.3,1.3-8.8,3.8
			c-2.5,2.5-3.3,6.3-3.8,8.8c2.5-0.3,6.3-1.3,8.8-3.8S123,178.3,123.5,175.8z"/>
	</g>
	<g>
		<path class="st6" d="M108.8,168.6c-0.3,0-0.3,0-0.5,0c-1.3,0-2.3-1-2.5-2.5c0-0.5-0.3-9.3,5.3-15c5.5-5.5,14.5-5.3,15-5.3
			c1.3,0,2.3,1,2.5,2.5c0,0.5,0.3,9.3-5.3,15C118.3,168.3,110.5,168.6,108.8,168.6z M123.5,151.1c-2.5,0.3-6.3,1.3-8.8,3.8
			c-2.5,2.5-3.5,6.3-3.8,8.8c2.5-0.3,6.3-1.3,8.8-3.8S123,153.6,123.5,151.1z"/>
	</g>
	<g>
		<path class="st6" d="M99.8,151.1c-0.5,0-1.3-0.3-1.8-0.8c-0.3-0.3-6.8-6.5-6.8-14.3c0-8,6.5-14,6.8-14.3c1-1,2.5-1,3.5,0
			c0.3,0.3,6.8,6.3,6.8,14.3s-6.5,14-6.8,14.3C101,150.8,100.3,151.1,99.8,151.1z M99.8,127.3c-1.5,2-3.5,5.3-3.5,8.8s2,6.8,3.5,8.8
			c1.5-2,3.5-5.3,3.5-8.8C103.3,132.6,101.3,129.3,99.8,127.3z"/>
	</g>
	<g>
		<path class="st6" d="M99.8,281.1c-1.5,0-2.5-1-2.5-2.5v-130c0-1.5,1-2.5,2.5-2.5s2.5,1,2.5,2.5v130
			C102.3,280.1,101.3,281.1,99.8,281.1z"/>
	</g>
</g>
<path class="st7" d="M1174.3,210.5 M1143.4,214.9h30.9c8.9,0,15.5-6.6,15.5-15.6c0-5-2.2-9.8-6.4-12.6c-1.8-1.2-4.1-2.1-6.7-2.5
	c-3.5-6.6-10.4-10.7-18.1-10.1c-7.3,0.6-13.2,5.4-15.6,12.2c-6.1,0.4-11,4-12.7,9.9C1127.7,205.5,1133.7,214.9,1143.4,214.9z"/>
<g>
	<path class="st6" d="M817.3,249.7c-1.5,0-2.6-1.2-2.6-2.6c0-1.5,1.2-2.6,2.6-2.6c1.4,0,2.6-1.2,2.6-2.6c0-1.5,1.2-2.6,2.6-2.6
		c1.5,0,2.6,1.2,2.6,2.6C825.2,246.1,821.6,249.7,817.3,249.7z"/>
	<path class="st6" d="M822.5,244.4c-1.5,0-2.6-1.2-2.6-2.6v-105c0-1.5,1.2-2.6,2.6-2.6c1.5,0,2.6,1.2,2.6,2.6v105
		C825.2,243.2,824,244.4,822.5,244.4z"/>
	<path class="st6" d="M822.5,139.4c-1.5,0-2.6-1.2-2.6-2.6c0-7.2-5.9-13.1-13.1-13.1c-1.5,0-2.6-1.2-2.6-2.6c0-1.5,1.2-2.6,2.6-2.6
		c10.1,0,18.4,8.2,18.4,18.4C825.2,138.2,824,139.4,822.5,139.4z"/>
	<path class="st6" d="M733.3,249.7c-4.3,0-7.9-3.5-7.9-7.9c0-1.5,1.2-2.6,2.6-2.6c1.5,0,2.6,1.2,2.6,2.6c0,1.4,1.2,2.6,2.6,2.6
		c1.5,0,2.6,1.2,2.6,2.6C735.9,248.5,734.7,249.7,733.3,249.7z"/>
	<path class="st6" d="M728,244.4c-1.5,0-2.6-1.2-2.6-2.6v-86.2c0-1.5,1.2-2.6,2.6-2.6c1.5,0,2.6,1.2,2.6,2.6v86.2
		C730.7,243.2,729.5,244.4,728,244.4z"/>
	<path class="st6" d="M812,139.4c-1.5,0-2.6-1.2-2.6-2.6c0-1.4-1.2-2.6-2.6-2.6c-1.5,0-2.6-1.2-2.6-2.6c0-1.5,1.2-2.6,2.6-2.6
		c4.3,0,7.9,3.5,7.9,7.9C814.7,138.2,813.5,139.4,812,139.4z"/>
	<path class="st6" d="M812,144.7c-1.5,0-2.6-1.2-2.6-2.6v-5.3c0-1.5,1.2-2.6,2.6-2.6c1.5,0,2.6,1.2,2.6,2.6v5.3
		C814.7,143.5,813.5,144.7,812,144.7z"/>
	<path class="st6" d="M806.8,149.9c-1.5,0-2.6-1.2-2.6-2.6c0-1.5,1.2-2.6,2.6-2.6c1.4,0,2.6-1.2,2.6-2.6c0-1.5,1.2-2.6,2.6-2.6
		c1.5,0,2.6,1.2,2.6,2.6C814.7,146.4,811.1,149.9,806.8,149.9z"/>
	<path class="st6" d="M741,130.4c-0.7,0-1.3-0.3-1.9-0.8c-1-1-2.7-1-3.7,0s-2.7,1-3.7,0s-1-2.7,0-3.7c3.1-3.1,8.1-3.1,11.1,0
		c1,1,1,2.7,0,3.7C742.3,130.2,741.6,130.4,741,130.4z"/>
	<path class="st6" d="M720.6,143.4c-0.7,0-1.3-0.3-1.9-0.8c-1-1-1-2.7,0-3.7l12.9-12.9c1-1,2.7-1,3.7,0s1,2.7,0,3.7l-12.9,12.9
		C721.9,143.1,721.3,143.4,720.6,143.4z"/>
	<path class="st6" d="M728,158.2c-0.7,0-1.3-0.3-1.9-0.8l-7.4-7.4c-1-1-1-2.7,0-3.7s2.7-1,3.7,0l7.4,7.4c1,1,1,2.7,0,3.7
		C729.4,158,728.7,158.2,728,158.2z"/>
	<path class="st6" d="M720.6,150.8c-0.7,0-1.3-0.3-1.9-0.8c-1.5-1.5-2.3-3.5-2.3-5.6c0-2.1,0.8-4.1,2.3-5.6c1-1,2.7-1,3.7,0
		s1,2.7,0,3.7c-0.5,0.5-0.8,1.2-0.8,1.9c0,0.7,0.3,1.4,0.8,1.9c1,1,1,2.7,0,3.7C722,150.5,721.3,150.8,720.6,150.8z"/>
	<path class="st6" d="M748.4,137.9c-0.7,0-1.3-0.3-1.9-0.8l-7.4-7.4c-1-1-1-2.7,0-3.7c1-1,2.7-1,3.7,0l7.4,7.4c1,1,1,2.7,0,3.7
		C749.7,137.6,749.1,137.9,748.4,137.9z"/>
	<path class="st6" d="M817.3,249.7h-84c-1.5,0-2.6-1.2-2.6-2.6c0-1.5,1.2-2.6,2.6-2.6h84c1.5,0,2.6,1.2,2.6,2.6
		C819.9,248.5,818.7,249.7,817.3,249.7z"/>
	<path class="st6" d="M812,218.2c-1.5,0-2.6-1.2-2.6-2.6v-42c0-1.5,1.2-2.6,2.6-2.6c1.5,0,2.6,1.2,2.6,2.6v42
		C814.7,217,813.5,218.2,812,218.2z"/>
	<path class="st6" d="M806.8,223.4c-1.5,0-2.6-1.2-2.6-2.6c0-1.5,1.2-2.6,2.6-2.6c1.4,0,2.6-1.2,2.6-2.6c0-1.5,1.2-2.6,2.6-2.6
		c1.5,0,2.6,1.2,2.6,2.6C814.7,219.9,811.1,223.4,806.8,223.4z"/>
	<path class="st6" d="M806.8,223.4h-63c-1.5,0-2.6-1.2-2.6-2.6c0-1.5,1.2-2.6,2.6-2.6h63c1.5,0,2.6,1.2,2.6,2.6
		C809.4,222.2,808.2,223.4,806.8,223.4z"/>
	<path class="st6" d="M738.5,218.2c-1.5,0-2.6-1.2-2.6-2.6v-42c0-1.5,1.2-2.6,2.6-2.6c1.5,0,2.6,1.2,2.6,2.6v42
		C741.2,217,740,218.2,738.5,218.2z"/>
	<path class="st6" d="M743.8,223.4c-4.3,0-7.9-3.5-7.9-7.9c0-1.5,1.2-2.6,2.6-2.6c1.5,0,2.6,1.2,2.6,2.6c0,1.4,1.2,2.6,2.6,2.6
		c1.5,0,2.6,1.2,2.6,2.6C746.4,222.2,745.2,223.4,743.8,223.4z"/>
	<path class="st6" d="M797,199.4c-0.7,0-1.4-0.3-2-0.9c-2-2.2-3.9-4.7-6-7.3c-8.4-10.6-18-22.6-30.9-20.4c-1.4,0.2-2.8-0.7-3-2.1
		c-0.2-1.4,0.7-2.8,2.1-3c16-2.8,27,11.1,35.9,22.3c2,2.6,4,5,5.8,7.1c1,1.1,0.9,2.7-0.2,3.7C798.2,199.2,797.6,199.4,797,199.4z"/>
	<path class="st6" d="M797,199.4c-0.1,0-0.1,0-0.2,0c-1.4-0.1-2.5-1.4-2.4-2.8c0.6-8.1,0.4-17.2-6-23.9c-4.5-4.7-11.3-7.1-18.2-6.1
		c-3.7,0.5-7.5,1.8-11.2,4.1c-1.2,0.7-2.9,0.3-3.6-0.9c-0.7-1.2-0.3-2.9,0.9-3.6c4.4-2.6,8.8-4.2,13.2-4.7c8.5-1.1,17,1.8,22.6,7.7
		c7.8,8.3,8.1,19.3,7.4,28C799.5,198.4,798.3,199.4,797,199.4z"/>
	<path class="st6" d="M784.6,201.8c-3.9,0-7.8-0.9-11.2-3.4c-5.2-3.8-6.8-9.5-8.4-15c-1-3.3-1.9-6.5-3.5-9.1c-1.2-1.9-2.7-3-4.5-3.5
		c-1.4-0.4-2.2-1.8-1.8-3.2c0.4-1.4,1.8-2.2,3.2-1.8c3,0.8,5.6,2.8,7.5,5.7c2.1,3.2,3.1,6.9,4.2,10.5c1.4,4.9,2.7,9.5,6.4,12.2
		c5.4,3.9,12.7,2.4,19.7,0.2c1.4-0.4,2.9,0.3,3.3,1.7c0.4,1.4-0.3,2.9-1.7,3.3C793.5,200.6,789,201.8,784.6,201.8z"/>
	<path class="st6" d="M783.2,193.9c-1.3,0-2.4-1-2.6-2.3c-0.2-1.4,0.9-2.7,2.3-2.9l8.1-1c1.4-0.2,2.7,0.9,2.9,2.3
		c0.2,1.4-0.9,2.7-2.3,2.9l-8.1,1C783.4,193.8,783.3,193.9,783.2,193.9z"/>
	<path class="st6" d="M775.8,186c-1.4,0-2.5-1.1-2.6-2.5c-0.1-1.4,1-2.7,2.5-2.8l9.4-0.5c1.4-0.1,2.7,1,2.8,2.5
		c0.1,1.4-1,2.7-2.5,2.8l-9.4,0.5C775.8,186,775.8,186,775.8,186z"/>
	<path class="st6" d="M777.8,177.9c-0.1,0-0.1,0-0.2,0l-5.6-0.4c-1.4-0.1-2.5-1.3-2.5-2.8c0.1-1.4,1.4-2.5,2.8-2.5l5.6,0.4
		c1.4,0.1,2.5,1.3,2.5,2.8C780.3,176.8,779.2,177.9,777.8,177.9z"/>
	<path class="st6" d="M777.8,177.9C777.8,177.9,777.8,177.9,777.8,177.9c-1.5,0-2.7-1.2-2.6-2.7l0.1-5.7c0-1.4,1.3-2.5,2.7-2.6
		c1.4,0,2.6,1.2,2.6,2.7l-0.1,5.7C780.4,176.7,779.2,177.9,777.8,177.9z"/>
	<path class="st6" d="M785.2,185.5C785.2,185.5,785.1,185.5,785.2,185.5c-1.5,0-2.7-1.2-2.6-2.7l0.2-8.2c0-1.4,1.2-2.6,2.6-2.6
		c0,0,0,0,0.1,0c1.4,0,2.6,1.2,2.6,2.7l-0.2,8.2C787.8,184.4,786.6,185.5,785.2,185.5z"/>
	<path class="st6" d="M747.1,170.9h-3.3c-1.5,0-2.6-1.2-2.6-2.6s1.2-2.6,2.6-2.6h3.3c1.5,0,2.6,1.2,2.6,2.6S748.6,170.9,747.1,170.9
		z"/>
	<path class="st6" d="M738.5,176.2c-1.5,0-2.6-1.2-2.6-2.6c0-4.3,3.5-7.9,7.9-7.9c1.5,0,2.6,1.2,2.6,2.6s-1.2,2.6-2.6,2.6
		c-1.4,0-2.6,1.2-2.6,2.6C741.2,175,740,176.2,738.5,176.2z"/>
	<path class="st6" d="M806.8,170.9h-5.2c-1.5,0-2.6-1.2-2.6-2.6s1.2-2.6,2.6-2.6h5.2c1.5,0,2.6,1.2,2.6,2.6S808.2,170.9,806.8,170.9
		z"/>
	<path class="st6" d="M812,176.2c-1.5,0-2.6-1.2-2.6-2.6c0-1.4-1.2-2.6-2.6-2.6c-1.5,0-2.6-1.2-2.6-2.6s1.2-2.6,2.6-2.6
		c4.3,0,7.9,3.5,7.9,7.9C814.7,175,813.5,176.2,812,176.2z"/>
	<path class="st6" d="M765.4,144.7c-1.5,0-2.6-1.2-2.6-2.6v-5.3c0-1.5,1.2-2.6,2.6-2.6c1.5,0,2.6,1.2,2.6,2.6v5.3
		C768,143.5,766.8,144.7,765.4,144.7z"/>
	<path class="st6" d="M728,158.2c-0.7,0-1.3-0.3-1.9-0.8c-1-1-1-2.7,0-3.7l28.4-28.4c1-1,2.7-1,3.7,0c1,1,1,2.7,0,3.7l-28.4,28.4
		C729.4,158,728.7,158.2,728,158.2z"/>
	<path class="st6" d="M806.8,123.7h-35.5c-1.5,0-2.6-1.2-2.6-2.6c0-1.5,1.2-2.6,2.6-2.6h35.5c1.5,0,2.6,1.2,2.6,2.6
		S808.2,123.7,806.8,123.7z"/>
	<path class="st6" d="M756.5,129.8c-0.7,0-1.3-0.3-1.9-0.8c-1-1-1-2.7,0-3.7c4.5-4.5,10.4-6.9,16.7-6.9l0,0c1.5,0,2.6,1.2,2.6,2.6
		s-1.2,2.6-2.6,2.6c-4.9,0-9.5,1.9-13,5.4C757.8,129.5,757.1,129.8,756.5,129.8z"/>
	<path class="st6" d="M765.4,139.4c-1.5,0-2.6-1.2-2.6-2.6c0-4.3,3.5-7.9,7.9-7.9c1.5,0,2.6,1.2,2.6,2.6c0,1.5-1.2,2.6-2.6,2.6
		c-1.4,0-2.6,1.2-2.6,2.6C768,138.2,766.8,139.4,765.4,139.4z"/>
	<path class="st6" d="M806.8,134.2h-36.2c-1.5,0-2.6-1.2-2.6-2.6c0-1.5,1.2-2.6,2.6-2.6h36.2c1.5,0,2.6,1.2,2.6,2.6
		C809.4,133,808.2,134.2,806.8,134.2z"/>
	<path class="st6" d="M806.8,149.9h-36.2c-1.5,0-2.6-1.2-2.6-2.6c0-1.5,1.2-2.6,2.6-2.6h36.2c1.5,0,2.6,1.2,2.6,2.6
		C809.4,148.7,808.2,149.9,806.8,149.9z"/>
	<path class="st6" d="M770.6,149.9c-4.3,0-7.9-3.5-7.9-7.9c0-1.5,1.2-2.6,2.6-2.6c1.5,0,2.6,1.2,2.6,2.6c0,1.4,1.2,2.6,2.6,2.6
		c1.5,0,2.6,1.2,2.6,2.6C773.2,148.7,772.1,149.9,770.6,149.9z"/>
</g>
<path class="st6" d="M594.9,201.9v-28.6c1,1.1,2.2,2,3.4,2.8c5,3.4,11.6,5.3,18.5,5.3c1.3,0,2.4-1.1,2.4-2.4s-1.1-2.4-2.4-2.4
	c-12.1,0-22-6.4-22-14.2v-6.5c4.1,4.1,10.6,6.7,17.8,6.7c1.3,0,2.4-1.1,2.4-2.4s-1.1-2.4-2.4-2.4c-9.8,0-17.8-5.6-17.8-12.5v-4.1
	c3.6,3,8.1,4.7,12.8,4.6c1.3,0,2.4-1.1,2.4-2.4c0-1.3-1.1-2.4-2.4-2.4c-7.1,0-12.8-4.4-12.8-9.7v-6.4c2.7,2.4,6.1,3.8,9.7,3.8
	c1.3,0,2.4-1.1,2.4-2.4c0-1.3-1.1-2.4-2.4-2.4c-5.4,0-9.7-4.4-9.7-9.7c0-1.3-1.1-2.4-2.4-2.4c-1.3,0-2.4,1.1-2.4,2.4v0.1
	c0,5.4-4.3,9.7-9.7,9.7c-1.3,0-2.4,1.1-2.4,2.4c0,1.3,1.1,2.4,2.4,2.4c3.6,0,7.1-1.3,9.7-3.8v6.4c0,5.4-5.8,9.7-12.8,9.7
	c-1.3,0-2.4,1.1-2.4,2.4s1.1,2.4,2.4,2.4c5.1,0,9.6-1.8,12.8-4.6v4.1c0,6.9-8,12.5-17.8,12.5c-1.3,0-2.4,1.1-2.4,2.4
	c0,1.3,1.1,2.4,2.4,2.4c7.2,0,13.7-2.6,17.8-6.7v6.5c0,7.8-9.9,14.2-22,14.2c-1.3,0-2.4,1.1-2.4,2.4s1.1,2.4,2.4,2.4
	c7,0,13.6-1.9,18.5-5.3c1.2-0.8,2.4-1.8,3.4-2.9v28.2h-0.5c-6.8,0-13.4,1.5-19.6,4.3c0.2-0.9,0.3-1.7,0.3-2.6
	c0.1-2.6-0.6-5.2-2.1-8.1l0,0l-0.7-1.5c-0.4-0.8-1.1-1.3-2-1.5c-0.1,0-0.3,0-0.4,0c-0.9-1.9-2.2-3.9-4.3-5.1l-0.6-0.4
	c-0.9-0.5-2-0.5-2.9,0l-0.6,0.4c-2,1.2-3.4,3.2-4.3,5.1c-0.1,0-0.3,0-0.4,0h-0.1c-0.9,0.2-1.6,0.7-2,1.5l-0.8,1.5
	c-1.5,3.1-2.2,5.8-2.2,8.4c0,0.9,0.1,1.9,0.3,2.8c-5.7-2.8-11.8-4.5-18.2-4.8v-40.8c1.7,2,3.6,3.7,5.8,5.2
	c6.5,4.4,15.1,6.9,24.3,6.9c1.3,0,2.4-1.1,2.4-2.4s-1.1-2.4-2.4-2.4c-16.6,0-30.1-8.9-30.1-19.8v-10.6c5.2,6.1,14.3,10.1,24.6,10.1
	c1.3,0,2.4-1.1,2.4-2.4c0-1.3-1.1-2.4-2.4-2.4c-13.5,0-24.6-7.8-24.6-17.4v-7.3c4.1,4.4,10.6,7.2,17.9,7.2c1.3,0,2.4-1.1,2.4-2.4
	s-1.1-2.4-2.4-2.4c-9.9,0-17.9-6.1-17.9-13.7V96.8c3.5,3.9,8.5,6.1,13.7,6.1c1.3,0,2.4-1.1,2.4-2.4s-1.1-2.4-2.4-2.4
	c-7.6,0-13.7-6.2-13.7-13.7c0-1.3-1.1-2.4-2.4-2.4s-2.4,1.1-2.4,2.4v0.2c0,7.6-6.1,13.8-13.7,13.8c-1.3,0-2.4,1.1-2.4,2.4
	s1.1,2.4,2.4,2.4c5.2,0,10.2-2.2,13.7-6.1v10.4c0,7.6-8,13.7-17.9,13.7c-1.3,0-2.4,1.1-2.4,2.4c0,1.3,1.1,2.4,2.4,2.4
	c7.3,0,13.8-2.8,17.9-7.2v7.3c0,9.6-11,17.4-24.6,17.4c-1.3,0-2.4,1.1-2.4,2.4c0,1.3,1.1,2.4,2.4,2.4c10.3,0,19.3-4,24.6-10.1v10.7
	c0,10.9-13.5,19.8-30.1,19.8c-1.3,0-2.4,1.1-2.4,2.4s1.1,2.4,2.4,2.4c9.1,0,17.8-2.4,24.3-6.9c2.2-1.5,4.1-3.2,5.8-5.2v40.5
	c-23.6,1.2-42.4,20.1-43.6,43.6h-15.4c2.2-1.7,4-4,5.1-6.5c1.5-3,2.3-6.2,2.4-9.5c0.1-4.3-1-8.7-3.5-13.5l0,0l-1.3-2.6
	c-0.5-0.9-1.3-1.5-2.3-1.7c-0.5-0.1-1.1-0.1-1.6,0.1c-2-4.7-4.5-7.8-7.4-9.6l-1.1-0.6c-1-0.6-2.2-0.6-3.2,0l-1.1,0.7
	c-3.6,2.2-5.9,6-7.4,9.6c-0.5-0.2-1-0.2-1.5-0.1h-0.1c-1,0.2-1.8,0.8-2.3,1.7l-1.3,2.6c-2.6,5.2-3.8,9.8-3.7,14.1
	c0.1,3.3,0.9,6.6,2.5,9.6c1,2.3,2.5,4.3,4.3,5.9h-15.6c-1.3,0-2.4,1.1-2.4,2.4s1.1,2.4,2.4,2.4h56.1c0.1,0,0.2,0,0.3,0
	c0.1,0,0.2,0,0.3,0h87.4c0.2,0,0.4,0,0.7,0h62.1c1.3,0,2.4-1.1,2.4-2.4C635.7,224.2,618.2,204.5,594.9,201.9z M458.4,243.7
	L458.4,243.7c-0.1,0.1-0.3,0.2-0.4,0.3c-1.2,0.5-2.4,0.8-3.6,1.1c-0.2,0-0.5,0-0.9,0c-1.2-0.1-2.4-0.6-3.4-1.2
	c-1.2-0.8-2-2.2-1.9-3.7c0-0.8,0.4-3,3.9-7.4c0.8-0.9,1.5-1.8,2.2-2.5c0.7,0.7,1.4,1.6,2.2,2.5c3.6,4.4,3.9,6.6,3.9,7.4
	C460.4,241.5,459.6,242.9,458.4,243.7L458.4,243.7z M460,229.7c-1.3-1.6-2.7-3.2-4.2-4.6c-0.9-0.9-2.4-0.9-3.3,0
	c-1.5,1.5-2.9,3-4.2,4.6c-3.2,3.9-4.9,7.3-5,10.1c-0.5-0.7-1-1.5-1.3-2.3c0,0,0-0.1-0.1-0.1c-1.2-2.3-1.9-4.9-2-7.6
	c-0.1-3.5,1-7.5,3.2-12l0.3-0.7c0.9,0.9,2.4,0.9,3.3-0.1c0.2-0.2,0.4-0.5,0.5-0.9c1.9-5.3,4-8.6,6.6-10.2l0.3-0.2l0.3,0.2
	c2.6,1.5,4.7,4.9,6.6,10.2c0.4,1.2,1.8,1.9,3,1.5c0.3-0.1,0.6-0.3,0.8-0.5l0.4,0.7c2.1,4.1,3,7.8,3,11.3c-0.1,2.7-0.8,5.3-2,7.7l0,0
	c-0.4,0.8-0.8,1.6-1.4,2.4C464.7,236.5,463,233.3,460,229.7L460,229.7z M553.3,197.8c1.1,0.2,2.3-0.4,2.7-1.5
	c0.9-2.4,1.8-4.1,2.9-4.9c1.1,0.8,2,2.5,2.9,4.9c0.4,1.1,1.5,1.8,2.7,1.5c0.8,1.7,1.3,3.5,1.3,5.3c0,1-0.2,2.1-0.6,3
	c-0.6-1.2-1.3-2.3-2.2-3.3c-0.8-0.9-1.6-1.8-2.4-2.7c-0.9-0.9-2.4-0.9-3.3,0c-0.9,0.8-1.7,1.7-2.5,2.7c-0.9,1.1-1.7,2.2-2.3,3.5
	c-0.4-0.9-0.5-1.8-0.6-2.8C551.8,201.9,552.3,200,553.3,197.8L553.3,197.8z M561.2,209.4c0,0.5-0.2,1-0.6,1.2h0l-0.1,0.1
	c-0.5,0.2-1.1,0.4-1.7,0.5h-0.3c-0.5-0.1-1-0.2-1.4-0.5c-0.4-0.3-0.7-0.7-0.6-1.2c0,0,0-1.1,2-3.5l0.4-0.5l0.4,0.5
	C561.2,208.3,561.2,209.3,561.2,209.4L561.2,209.4z M529.3,245.3c0.3-5.1,4.5-9.1,9.7-9.2c1.3,0,2.4-1.1,2.4-2.4s-1.1-2.4-2.4-2.4
	c-3.6,0-7.1,1.3-9.7,3.8v-10.8c0-1.3-1.1-2.4-2.4-2.4s-2.4,1.1-2.4,2.4v10.9c-2.7-2.4-6.1-3.8-9.7-3.8c-1.3,0-2.4,1.1-2.4,2.4
	s1.1,2.4,2.4,2.4c5.1,0,9.3,3.9,9.7,9h-38.9c1.3-22.8,20.8-40.2,43.6-38.9c21,1.2,37.7,17.9,38.9,38.9H529.3z M610.3,245.3
	c0.9-4.5,4.9-7.7,9.5-7.7c1.3,0,2.4-1.1,2.4-2.4c0-1.3-1.1-2.4-2.4-2.4c-3.6,0-7.1,1.3-9.7,3.8v-10.8c0-1.3-1.1-2.4-2.4-2.4
	c-1.3,0-2.4,1.1-2.4,2.4v10.9c-2.7-2.4-6.1-3.8-9.7-3.8c-1.3,0-2.4,1.1-2.4,2.4c0,1.3,1.1,2.4,2.4,2.4c4.5,0,8.5,3.2,9.5,7.6H573
	c-0.5-10.3-4.5-20.2-11.4-28c16.7-15.5,42.9-14.5,58.4,2.2c6.5,7,10.4,16.2,11,25.8H610.3z"/>
<path class="st6" d="M474.9,202.9c1,0.9,2.5,0.7,3.3-0.2c0.8-1,0.8-2.4-0.2-3.3c-2.2-2-4.5-6.6-3.3-9.5c0.4-0.8,0.8-1.5,1.3-2.3
	c1.9-2.9,4.2-6.4,0.6-14.6c-0.5-1.2-1.8-1.8-3-1.4s-1.8,1.8-1.4,3c0,0.1,0.1,0.2,0.1,0.2c2.6,5.8,1.4,7.6-0.2,10.1
	c-0.6,0.9-1.2,1.9-1.7,2.9C468.1,193.3,471.7,200,474.9,202.9z"/>
<path class="st6" d="M597.7,101.6c0.9,0.9,2.4,0.9,3.3-0.1c0.9-0.9,0.9-2.4-0.1-3.3c0,0-0.1,0-0.1-0.1c-2.2-2-4.5-6.6-3.3-9.5
	c0.4-0.8,0.8-1.5,1.3-2.3c1.9-2.9,4.2-6.4,0.6-14.6c-0.6-1.2-2-1.7-3.1-1.1c-1.1,0.5-1.6,1.9-1.2,3c2.6,5.8,1.4,7.6-0.2,10.1
	c-0.6,0.9-1.2,1.9-1.7,2.9C591,92,594.6,98.7,597.7,101.6z"/>
<path class="st6" d="M440.6,191.3c1,0.9,2.5,0.8,3.3-0.2s0.8-2.5-0.2-3.3c-2.2-2-4.5-6.6-3.3-9.5c0.4-0.8,0.8-1.5,1.3-2.3
	c1.9-2.9,4.2-6.4,0.6-14.6c-0.5-1.2-1.8-1.8-3-1.4c-1.2,0.5-1.8,1.8-1.4,3c0,0.1,0.1,0.2,0.1,0.2c2.6,5.8,1.4,7.6-0.2,10.1
	c-0.6,0.9-1.2,1.9-1.7,2.9C433.8,181.8,437.4,188.5,440.6,191.3z"/>
<path class="st6" d="M489.4,125.1c0.9,0.9,2.4,0.9,3.3-0.1c0.9-0.9,0.9-2.4-0.1-3.3c0,0-0.1,0-0.1-0.1c-2.2-2-4.5-6.6-3.3-9.5
	c0.4-0.8,0.8-1.5,1.3-2.3c1.9-2.9,4.2-6.4,0.6-14.6c-0.5-1.2-1.8-1.8-3-1.4c-1.2,0.5-1.8,1.8-1.4,3c0,0.1,0.1,0.2,0.1,0.2
	c2.6,5.8,1.4,7.6-0.2,10.1c-0.6,0.9-1.2,1.9-1.7,2.9C482.6,115.5,486.2,122.2,489.4,125.1z"/>
<path class="st6" d="M552.4,85.7c0.9,0.9,2.4,0.9,3.3-0.1c0.9-0.9,0.9-2.4-0.1-3.3c0,0-0.1,0-0.1-0.1c-2.2-2-4.5-6.6-3.3-9.5
	c0.4-0.8,0.8-1.5,1.3-2.3c1.9-2.9,4.2-6.4,0.6-14.6c-0.5-1.2-1.8-1.8-3-1.4s-1.8,1.8-1.4,3c0,0.1,0.1,0.2,0.1,0.2
	c2.6,5.8,1.4,7.6-0.2,10.1c-0.6,0.9-1.2,1.9-1.7,2.9C545.7,76.2,549.3,82.9,552.4,85.7z"/>
<path class="st8" d="M325.7,157.4c2.2-2.3,3.6-6.4,3.6-11.4c0-7.6-3.3-13.3-7.6-13.3h-98.8c-4.3,0-7.6,5.7-7.6,13.3
	c0,5,1.4,9.1,3.6,11.4c-2.2,2.3-3.6,6.4-3.6,11.4c0,5,1.4,9.1,3.6,11.4c-2.2,2.3-3.6,6.4-3.6,11.4c0,7.6,3.3,13.3,7.6,13.3h15
	c1.5,2.8,3.3,5.5,5.4,7.9c-11.1,0.9-22.3,3.6-22.3,9.2v13l-3.7,11.1l3.6,1.2l3.9-11.7V227c1.5,0.9,3.5,1.6,6,2.3
	c5.5,1.5,12.9,2.3,20.6,2.3s15.1-0.8,20.6-2.3c2.4-0.6,4.4-1.4,6-2.3v8.6l3.9,11.7l3.6-1.2l-3.7-11.1v-13c0-5-8.7-7.3-15.6-8.4
	l6.6-11.3l44.2,42.4c1.4,1.3,3.1,2,5,2h0.1c4,0,7.2-3.2,7.2-7.2c0-2-0.8-3.8-2.2-5.2l-30.5-29.4h25.2c4.3,0,7.6-5.7,7.6-13.3
	c0-5-1.4-9.1-3.6-11.4c2.2-2.3,3.6-6.4,3.6-11.4C329.2,163.8,327.8,159.7,325.7,157.4z M222.8,201.1c-1.5,0-3.8-3.7-3.8-9.5
	c0-5.8,2.3-9.5,3.8-9.5s3.8,3.7,3.8,9.5C226.6,197.4,224.4,201.1,222.8,201.1z M222.8,178.3c-1.5,0-3.8-3.7-3.8-9.5
	c0-5.8,2.3-9.5,3.8-9.5s3.8,3.7,3.8,9.5C226.6,174.6,224.4,178.3,222.8,178.3z M222.8,155.5c-1.5,0-3.8-3.7-3.8-9.5
	c0-5.8,2.3-9.5,3.8-9.5s3.8,3.7,3.8,9.5C226.6,151.8,224.4,155.5,222.8,155.5z M235.9,201.1h-7.7c1.4-2.4,2.2-5.7,2.2-9.5
	s-0.8-7.1-2.2-9.5h34.1l-26.7,18.4L235.9,201.1z M240.9,202.5l-0.4-0.8l4.1-2.8l16.2,16.2l-2.6,4.4
	C250.7,215.9,244.6,209.9,240.9,202.5z M277.9,222c0,0.4-1.2,2-6.9,3.5c-5.2,1.4-12.2,2.2-19.7,2.2c-7.5,0-14.4-0.8-19.7-2.2
	c-5.7-1.5-6.9-3.2-6.9-3.5c0-0.3,1-1.8,5.8-3.2c4.2-1.3,10-2.1,16.2-2.4c3.4,3.1,7.3,5.5,11.4,7.3l1.5,0.7l4.3-7.3
	C274.5,218.5,277.9,221.2,277.9,222z M262.8,211.7l-15-15l20.4-14.1l7.3,7.3L262.8,211.7z M324.4,237c1.4,1.3,1.4,3.5,0.1,4.8
	c-0.6,0.7-1.5,1-2.5,1h-0.1c-0.9,0-1.7-0.3-2.4-1l-44.8-43l3.7-6.2L324.4,237z M321.6,201.1h-29.1l-13.3-12.8l-6.2-6.2h14.2
	c2,0,3.8-1,4.9-2.8l3.5-5.8c0.4-0.6,1-0.9,1.6-0.9h0.8c1,0,1.9,0.9,1.9,1.9c0,0.1,0,0.3,0,0.4l-0.1,0.4c-0.6,3.1,1.4,6.1,4.5,6.7
	c0.4,0.1,0.7,0.1,1.1,0.1h16.3c1.5,0,3.8,3.7,3.8,9.5S323.2,201.1,321.6,201.1z M321.6,178.3h-16.3c-1,0-1.9-0.9-1.9-1.9
	c0-0.1,0-0.3,0-0.4l0.1-0.4c0.6-3.1-1.4-6.1-4.5-6.7c-0.4-0.1-0.7-0.1-1.1-0.1h-0.8c-2,0-3.8,1-4.9,2.8l-3.5,5.8
	c-0.4,0.6-1,0.9-1.6,0.9h-58.9c1.4-2.4,2.2-5.7,2.2-9.5s-0.8-7.1-2.2-9.5h93.4c1.5,0,3.8,3.7,3.8,9.5S323.2,178.3,321.6,178.3z
	 M321.6,155.5h-93.4c1.4-2.4,2.2-5.7,2.2-9.5s-0.8-7.1-2.2-9.5h93.4c1.5,0,3.8,3.7,3.8,9.5C325.4,151.8,323.2,155.5,321.6,155.5z"/>
<g>
	<path class="st9" d="M970,244.2h-42.1c-8.4,0-15.5-6.9-15.4-15.2c0-8.2,6.7-15,15-15.1c1.5,0,2.7-1.4,2.4-2.9
		c-0.2-1.1-0.3-2.2-0.3-3.3c0-9.1,7.8-16.5,17.4-16.5l0.1,0c1.5,0,12.6,0,19.7-7.5c0.9,1.6,1.9,3.8,2.6,6.4
		c1.4,5.2,1.1,10.1-0.8,14.7c-1.1,2.5-3.6,4.2-6.3,4.2h-11.4c-1.3,0-2.4,1-2.5,2.3c-0.1,1.4,1,2.6,2.4,2.6h19.2
		c8.3,0,15.3,6.6,15.4,14.9C985.3,237.3,978.4,244.2,970,244.2 M971.8,209.1c3.3-6.2,4.1-13.1,2.2-20.2c-1.7-6.4-5-10.7-5.1-10.9
		l-0.3-0.4c-0.9-1.2-2.7-1.1-3.5,0.1l-0.2,0.4c-5.3,8.3-17.3,8.1-17.8,8.1l-0.1,0c-12.3,0-22.4,9.6-22.4,21.4c0,0.5,0,1,0.1,1.5
		c-4.3,0.6-8.2,2.6-11.3,5.7c-3.7,3.7-5.7,8.6-5.8,13.8c-0.2,11.2,9.2,20.3,20.4,20.3h41.7c11,0,20.2-8.7,20.3-19.7
		C990.2,218.8,982.1,210,971.8,209.1"/>
</g>
<path class="st6" d="M936.8,168.3c0.9,0.9,2.4,0.9,3.3-0.1c0.9-0.9,0.9-2.4-0.1-3.3c0,0-0.1,0-0.1-0.1c-2.2-2-4.5-6.6-3.3-9.5
	c0.4-0.8,0.8-1.5,1.3-2.3c1.9-2.9,4.2-6.4,0.6-14.6c-0.5-1.2-1.8-1.8-3-1.4c-1.2,0.5-1.8,1.8-1.4,3c0,0.1,0.1,0.2,0.1,0.2
	c2.6,5.8,1.4,7.6-0.2,10.1c-0.6,0.9-1.2,1.9-1.7,2.9C930,158.8,933.6,165.5,936.8,168.3z"/>
<path class="st6" d="M986.9,159.1c-0.9-0.9-2.4-1-3.3-0.1c-0.9,0.9-1,2.4-0.1,3.3c0,0,0.1,0.1,0.1,0.1c2.1,2.1,4.2,6.9,2.8,9.7
	c-0.4,0.8-0.9,1.5-1.4,2.2c-2,2.8-4.5,6.2-1.4,14.5c0.4,1.2,1.7,1.9,3,1.5s1.9-1.7,1.5-3c0-0.1-0.1-0.2-0.1-0.2
	c-2.2-5.9-1-7.7,0.8-10.1c0.7-0.9,1.3-1.8,1.8-2.8C993.1,169,989.9,162.1,986.9,159.1z"/>
<path class="st6" d="M1102.3,190.4c0.9,0.9,2.4,0.9,3.3-0.1c0.9-0.9,0.9-2.4-0.1-3.3c0,0-0.1,0-0.1-0.1c-2.2-2-4.5-6.6-3.3-9.5
	c0.4-0.8,0.8-1.5,1.3-2.3c1.9-2.9,4.2-6.4,0.6-14.6c-0.5-1.2-1.8-1.8-3-1.4c-1.2,0.5-1.8,1.8-1.4,3c0,0.1,0.1,0.2,0.1,0.2
	c2.6,5.8,1.4,7.6-0.2,10.1c-0.6,0.9-1.2,1.9-1.7,2.9C1095.5,180.9,1099.1,187.6,1102.3,190.4z"/>
<path class="st6" d="M1062.3,214.1c0.9,0.9,2.4,0.9,3.3-0.1c0.9-0.9,0.9-2.4-0.1-3.3c0,0-0.1,0-0.1-0.1c-2.2-2-4.5-6.6-3.3-9.5
	c0.4-0.8,0.8-1.5,1.3-2.3c1.9-2.9,4.2-6.4,0.6-14.6c-0.5-1.2-1.8-1.8-3-1.4c-1.2,0.5-1.8,1.8-1.4,3c0,0.1,0.1,0.2,0.1,0.2
	c2.6,5.8,1.4,7.6-0.2,10.1c-0.6,0.9-1.2,1.9-1.7,2.9C1055.6,204.5,1059.2,211.2,1062.3,214.1z"/>
<path class="st7" d="M1120.5,265 M1076,271.4h44.5c12.8,0,22.3-9.6,22.3-22.7c0-7.3-3.2-14.3-9.3-18.4c-2.7-1.8-5.8-3.1-9.6-3.6
	c-5.1-9.6-15-15.7-26.1-14.7c-10.5,0.9-18.9,7.9-22.4,17.9c-8.8,0.6-15.9,5.8-18.3,14.5C1053.4,257.6,1062.1,271.4,1076,271.4z"/>
<path class="st6" d="M1143,132c-0.9-0.9-2.4-1-3.3-0.1c-0.9,0.9-1,2.4-0.1,3.3c0,0,0.1,0.1,0.1,0.1c2.1,2.1,4.2,6.9,2.8,9.7
	c-0.4,0.8-0.9,1.5-1.4,2.2c-2,2.8-4.5,6.2-1.4,14.5c0.4,1.2,1.7,1.9,3,1.5s1.9-1.7,1.5-3c0-0.1-0.1-0.2-0.1-0.2
	c-2.2-5.9-1-7.7,0.8-10.1c0.7-0.9,1.3-1.8,1.8-2.8C1149.2,141.9,1146,135,1143,132z"/>
</svg>
