<svg id="Ebene_1" data-name="Ebene 1" xmlns="http://www.w3.org/2000/svg" viewBox="0 0 1366 768"><defs><style>.cls-1,.cls-2,.cls-24,.cls-9{isolation:isolate;}.cls-2,.cls-9{font-size:17px;}.cls-2,.cls-44,.cls-45,.cls-9{fill:#1c2a40;}.cls-2{font-family:IBMPlexSerif-Bold, IBM Plex Serif;font-weight:700;}.cls-3{letter-spacing:-0.02em;}.cls-4{letter-spacing:-0.03em;}.cls-20,.cls-5{letter-spacing:0em;}.cls-6{letter-spacing:-0.02em;}.cls-7{letter-spacing:0.01em;}.cls-8{letter-spacing:0em;}.cls-9{font-family:IBMPlexSerif, IBM Plex Serif;}.cls-10{letter-spacing:-0.02em;}.cls-11{letter-spacing:-0.01em;}.cls-12{letter-spacing:0.01em;}.cls-13{letter-spacing:-0.01em;}.cls-14{letter-spacing:-0.01em;}.cls-15{letter-spacing:-0.02em;}.cls-16{letter-spacing:-0.01em;}.cls-17{letter-spacing:0.02em;}.cls-18{letter-spacing:-0.09em;}.cls-19{letter-spacing:-0.01em;}.cls-20{font-family:Roboto-Regular, Roboto;}.cls-21{letter-spacing:-0.01em;}.cls-22{letter-spacing:0.03em;}.cls-23{letter-spacing:0.01em;}.cls-24{fill:#00c1ff;opacity:0.1;}.cls-25{letter-spacing:-0.02em;}.cls-26{letter-spacing:-0.01em;}.cls-27{letter-spacing:0.03em;}.cls-28{letter-spacing:0.09em;}.cls-29{letter-spacing:0em;}.cls-30{letter-spacing:0em;}.cls-31{letter-spacing:-0.01em;}.cls-32{letter-spacing:-0.01em;}.cls-33{letter-spacing:0em;}.cls-34{letter-spacing:0em;}.cls-35{letter-spacing:-0.03em;}.cls-36{letter-spacing:-0.07em;}.cls-37{letter-spacing:-0.01em;}.cls-38{letter-spacing:-0.06em;}.cls-39{letter-spacing:0.02em;}.cls-40{letter-spacing:0.01em;}.cls-41{letter-spacing:0.02em;}.cls-42{letter-spacing:-0.1em;}.cls-43{letter-spacing:-0.01em;}.cls-45{stroke:#fff;stroke-miterlimit:10;stroke-width:0.75px;}</style></defs><g class="cls-1"><text class="cls-2" transform="translate(87.21 204.05)">1. Ma<tspan class="cls-3" x="43.88" y="0">k</tspan><tspan x="54.16" y="0">e </tspan><tspan class="cls-4" x="67.73" y="0">y</tspan><tspan class="cls-5" x="77.01" y="0">our </tspan><tspan class="cls-6" x="110.23" y="0">o</tspan><tspan class="cls-5" x="119.75" y="0">wn </tspan><tspan class="cls-7" x="149.7" y="0">r</tspan><tspan class="cls-8" x="158.25" y="0">ules:</tspan></text><text class="cls-9" transform="translate(87.21 227.05)"><tspan class="cls-10">e</tspan><tspan class="cls-11" x="8.77" y="0">.</tspan><tspan class="cls-12" x="13.07" y="0">g</tspan><tspan x="22.54" y="0">. a </tspan><tspan class="cls-10" x="44.27" y="0">&quot;</tspan><tspan x="50.98" y="0">on</tspan><tspan class="cls-13" x="71.43" y="0">c</tspan><tspan class="cls-5" x="80.03" y="0">e a d</tspan><tspan class="cls-14" x="116.65" y="0">a</tspan><tspan class="cls-15" x="125.76" y="0">y</tspan><tspan class="cls-14" x="134.59" y="0">/</tspan><tspan class="cls-16" x="140.64" y="0">w</tspan><tspan class="cls-5" x="153.73" y="0">eek </tspan><tspan class="cls-17" x="185.82" y="0">r</tspan><tspan class="cls-8" x="193.7" y="0">ul</tspan><tspan class="cls-10" x="209.32" y="0">e</tspan><tspan class="cls-18" x="218.09" y="0">&quot;</tspan><tspan x="223.62" y="0">, </tspan></text><text class="cls-9" transform="translate(87.21 250.05)">changing from lar<tspan class="cls-19" x="143.17" y="0">g</tspan><tspan class="cls-5" x="152.32" y="0">er to smaller quantities</tspan><tspan class="cls-20" x="337.95" y="0"> </tspan></text><text class="cls-9" transform="translate(87.21 273.05)">and ta<tspan class="cls-11" x="49.71" y="0">k</tspan><tspan x="59.38" y="0">e the pre</tspan><tspan class="cls-21" x="129.16" y="0">s</tspan><tspan x="137.36" y="0">sure </tspan><tspan class="cls-19" x="176.76" y="0">o</tspan><tspan x="186.25" y="0">ff: e</tspan><tspan class="cls-14" x="215.83" y="0">v</tspan><tspan x="224.74" y="0">e</tspan><tspan class="cls-22" x="233.85" y="0">r</tspan><tspan class="cls-8" x="241.89" y="0">y r</tspan><tspan class="cls-23" x="262.44" y="0">e</tspan><tspan class="cls-8" x="271.72" y="0">duction is gr</tspan><tspan class="cls-7" x="371.48" y="0">e</tspan><tspan class="cls-14" x="380.76" y="0">a</tspan><tspan x="389.87" y="0">t!</tspan></text></g><rect class="cls-24" x="77.27" y="179.22" width="566" height="111.23"/><g class="cls-1"><text class="cls-2" transform="translate(87.85 491.89)">3. If <tspan class="cls-25" x="35.95" y="0">y</tspan><tspan class="cls-5" x="45.24" y="0">ou mi</tspan><tspan class="cls-21" x="92.27" y="0">s</tspan><tspan x="100.81" y="0">s the ta</tspan><tspan class="cls-26" x="160.41" y="0">s</tspan><tspan x="168.93" y="0">te of m</tspan><tspan class="cls-23" x="225.72" y="0">e</tspan><tspan class="cls-8" x="235.51" y="0">a</tspan><tspan class="cls-27" x="245.22" y="0">t</tspan><tspan class="cls-8" x="251.99" y="0">,</tspan></text><text class="cls-9" transform="translate(87.85 514.89)"><tspan class="cls-14">y</tspan><tspan x="8.91" y="0">ou are </tspan><tspan class="cls-26" x="62.83" y="0">w</tspan><tspan x="75.92" y="0">ell se</tspan><tspan class="cls-22" x="116.58" y="0">r</tspan><tspan class="cls-13" x="124.63" y="0">v</tspan><tspan class="cls-7" x="133.53" y="0">e</tspan><tspan class="cls-8" x="142.82" y="0">d with </tspan><tspan class="cls-16" x="196.21" y="0">s</tspan><tspan x="204.39" y="0">trongly spi</tspan><tspan class="cls-14" x="289.81" y="0">c</tspan><tspan class="cls-23" x="298.41" y="0">e</tspan><tspan class="cls-8" x="307.7" y="0">d dishes li</tspan><tspan class="cls-15" x="388.38" y="0">k</tspan><tspan x="398.05" y="0">e currie</tspan><tspan class="cls-10" x="459.93" y="0">s</tspan><tspan class="cls-5" x="467.88" y="0">. </tspan></text><text class="cls-9" transform="translate(87.85 537.89)"><tspan class="cls-14">A</tspan><tspan class="cls-5" x="11.49" y="0">lso &quot;as i</tspan><tspan class="cls-28" x="72.35" y="0">f</tspan><tspan class="cls-5" x="79.69" y="0">&quot; </tspan><tspan class="cls-14" x="90.69" y="0">v</tspan><tspan x="99.6" y="0">ersion</tspan><tspan class="cls-10" x="150.35" y="0">s</tspan><tspan x="158.3" y="0">, </tspan><tspan class="cls-19" x="166.8" y="0">f</tspan><tspan x="172.51" y="0">or </tspan><tspan class="cls-14" x="193.58" y="0">e</tspan><tspan x="202.52" y="0">xample n</tspan><tspan class="cls-23" x="276.98" y="0">oo</tspan><tspan class="cls-8" x="296.49" y="0">dles with s</tspan><tspan class="cls-29" x="380.69" y="0">o</tspan><tspan class="cls-8" x="390.2" y="0">y Bolognese s</tspan><tspan class="cls-30" x="497.75" y="0">a</tspan><tspan x="506.95" y="0">u</tspan><tspan class="cls-13" x="517.47" y="0">c</tspan><tspan class="cls-5" x="526.07" y="0">e </tspan></text><text class="cls-9" transform="translate(87.85 560.89)">or sli<tspan class="cls-14" x="39.81" y="0">c</tspan><tspan class="cls-23" x="48.42" y="0">e</tspan><tspan x="57.7" y="0">d m</tspan><tspan class="cls-23" x="88.18" y="0">e</tspan><tspan class="cls-31" x="97.46" y="0">a</tspan><tspan x="106.57" y="0">t with seita</tspan><tspan class="cls-23" x="193.68" y="0">n</tspan><tspan x="204.71" y="0">, are a </tspan><tspan class="cls-32" x="256.3" y="0">g</tspan><tspan class="cls-23" x="265.45" y="0">oo</tspan><tspan x="284.97" y="0">d altern</tspan><tspan class="cls-31" x="347.13" y="0">a</tspan><tspan x="356.25" y="0">ti</tspan><tspan class="cls-14" x="367.6" y="0">v</tspan><tspan x="376.51" y="0">e </tspan><tspan class="cls-19" x="389.57" y="0">f</tspan><tspan x="395.28" y="0">or some </tspan><tspan class="cls-23" x="463.48" y="0">p</tspan><tspan x="474.07" y="0">eopl</tspan><tspan class="cls-10" x="508.29" y="0">e</tspan><tspan class="cls-5" x="517.06" y="0">.</tspan></text><text class="cls-9" transform="translate(87.85 606.99)">Other<tspan class="cls-10" x="45.42" y="0">s</tspan><tspan class="cls-5" x="53.38" y="0">, </tspan><tspan class="cls-10" x="61.88" y="0">e</tspan><tspan class="cls-11" x="70.65" y="0">.</tspan><tspan class="cls-12" x="74.95" y="0">g</tspan><tspan x="84.42" y="0">. </tspan><tspan class="cls-14" x="92.92" y="0">c</tspan><tspan x="101.52" y="0">elebrity chef </tspan><tspan class="cls-29" x="205.17" y="0">J</tspan><tspan x="212.85" y="0">amie Oli</tspan><tspan class="cls-13" x="279.37" y="0">v</tspan><tspan class="cls-5" x="288.28" y="0">er pre</tspan><tspan class="cls-21" x="335.93" y="0">f</tspan><tspan x="341.64" y="0">er to </tspan><tspan class="cls-14" x="381.76" y="0">c</tspan><tspan class="cls-23" x="390.37" y="0">o</tspan><tspan x="400.12" y="0">ok without </tspan></text><text class="cls-9" transform="translate(87.85 629.99)">t<tspan class="cls-22" x="6" y="0">r</tspan><tspan class="cls-8" x="14.04" y="0">ying to repla</tspan><tspan class="cls-14" x="113.51" y="0">c</tspan><tspan x="122.11" y="0">e m</tspan><tspan class="cls-23" x="151.37" y="0">e</tspan><tspan class="cls-31" x="160.65" y="0">a</tspan><tspan class="cls-8" x="169.76" y="0">t - </tspan><tspan class="cls-23" x="190.33" y="0">b</tspan><tspan x="200.67" y="0">e</tspan><tspan class="cls-33" x="209.78" y="0">c</tspan><tspan class="cls-30" x="218.5" y="0">a</tspan><tspan x="227.69" y="0">use m</tspan><tspan class="cls-23" x="275.77" y="0">e</tspan><tspan class="cls-31" x="285.05" y="0">a</tspan><tspan x="294.16" y="0">t altern</tspan><tspan class="cls-14" x="352" y="0">a</tspan><tspan x="361.11" y="0">ti</tspan><tspan class="cls-13" x="372.46" y="0">v</tspan><tspan x="381.37" y="0">es such as t</tspan><tspan class="cls-19" x="472.39" y="0">o</tspan><tspan x="481.88" y="0">fu et</tspan><tspan class="cls-10" x="517.27" y="0">c</tspan><tspan x="525.7" y="0">. </tspan></text><text class="cls-9" transform="translate(87.85 652.99)">are <tspan class="cls-19" x="29.87" y="0">o</tspan><tspan x="39.35" y="0">ften not </tspan><tspan class="cls-16" x="105.48" y="0">w</tspan><tspan x="118.57" y="0">ell re</tspan><tspan class="cls-14" x="158.47" y="0">c</tspan><tspan x="167.07" y="0">ei</tspan><tspan class="cls-14" x="181.54" y="0">v</tspan><tspan class="cls-23" x="190.45" y="0">e</tspan><tspan x="199.73" y="0">d </tspan><tspan class="cls-34" x="214.01" y="0">b</tspan><tspan x="224.13" y="0">y m</tspan><tspan class="cls-7" x="253.35" y="0">e</tspan><tspan class="cls-14" x="262.63" y="0">a</tspan><tspan x="271.74" y="0">t </tspan><tspan class="cls-23" x="281.69" y="0">e</tspan><tspan class="cls-14" x="290.97" y="0">a</tspan><tspan x="300.08" y="0">ters</tspan></text></g><rect class="cls-24" x="76.4" y="467.18" width="566" height="200.8"/><g class="cls-1"><text class="cls-2" transform="translate(750.97 204.02)">2. Do not <tspan class="cls-35" x="77.04" y="0">f</tspan><tspan class="cls-23" x="83.13" y="0">e</tspan><tspan x="92.92" y="0">ar protein deficiency</tspan></text><text class="cls-9" transform="translate(1017.77 204.02)"> <tspan class="cls-33" x="3.94" y="0">b</tspan><tspan class="cls-8" x="14.06" y="0">y </tspan><tspan class="cls-7" x="27.08" y="0">e</tspan><tspan class="cls-14" x="36.36" y="0">a</tspan><tspan x="45.47" y="0">ting le</tspan><tspan class="cls-19" x="95.1" y="0">s</tspan><tspan x="103.29" y="0">s m</tspan><tspan class="cls-23" x="131.73" y="0">e</tspan><tspan class="cls-31" x="141.01" y="0">a</tspan><tspan x="150.13" y="0">t! </tspan></text><text class="cls-9" transform="translate(750.97 227.02)"><tspan class="cls-36">Y</tspan><tspan x="9.59" y="0">ou </tspan><tspan class="cls-33" x="33.64" y="0">c</tspan><tspan x="42.36" y="0">an </tspan><tspan class="cls-26" x="66.45" y="0">s</tspan><tspan x="74.63" y="0">till </tspan><tspan class="cls-19" x="100.13" y="0">f</tspan><tspan x="105.84" y="0">oll</tspan><tspan class="cls-26" x="125.63" y="0">o</tspan><tspan class="cls-8" x="135.1" y="0">w a h</tspan><tspan class="cls-23" x="176.08" y="0">e</tspan><tspan x="185.37" y="0">alt</tspan><tspan class="cls-37" x="205.75" y="0">h</tspan><tspan class="cls-38" x="216.13" y="0">y</tspan><tspan class="cls-5" x="224.11" y="0">, </tspan><tspan class="cls-23" x="232.61" y="0">b</tspan><tspan x="242.94" y="0">alan</tspan><tspan class="cls-14" x="277.47" y="0">c</tspan><tspan class="cls-23" x="286.07" y="0">e</tspan><tspan x="295.35" y="0">d diet: </tspan></text><text class="cls-9" transform="translate(750.97 250.02)">Legume<tspan class="cls-10" x="64.29" y="0">s</tspan><tspan class="cls-5" x="72.25" y="0">, </tspan><tspan class="cls-14" x="80.75" y="0">v</tspan><tspan x="89.66" y="0">e</tspan><tspan class="cls-19" x="98.77" y="0">g</tspan><tspan x="107.92" y="0">et</tspan><tspan class="cls-14" x="123.03" y="0">a</tspan><tspan x="132.14" y="0">ble</tspan><tspan class="cls-10" x="156.52" y="0">s</tspan><tspan class="cls-5" x="164.47" y="0">, </tspan><tspan class="cls-13" x="172.97" y="0">c</tspan><tspan class="cls-5" x="181.57" y="0">er</tspan><tspan class="cls-23" x="198.22" y="0">e</tspan><tspan x="207.5" y="0">als and dai</tspan><tspan class="cls-22" x="293.52" y="0">r</tspan><tspan x="301.56" y="0">y pr</tspan><tspan class="cls-23" x="332.53" y="0">o</tspan><tspan class="cls-8" x="342.29" y="0">ducts </tspan></text><text class="cls-9" transform="translate(750.97 273.02)">are high<tspan class="cls-39" x="65.69" y="0">-</tspan><tspan x="72.71" y="0">quality sour</tspan><tspan class="cls-14" x="168.09" y="0">c</tspan><tspan x="176.69" y="0">es </tspan><tspan class="cls-21" x="198.05" y="0">o</tspan><tspan class="cls-8" x="207.53" y="0">f protei</tspan><tspan class="cls-23" x="265.3" y="0">n</tspan><tspan x="276.33" y="0">.</tspan></text><text class="cls-9" transform="translate(750.97 296.12)">Some <tspan class="cls-21" x="48.84" y="0">o</tspan><tspan x="58.33" y="0">f the </tspan><tspan class="cls-23" x="97.75" y="0">b</tspan><tspan x="108.08" y="0">e</tspan><tspan class="cls-16" x="117.2" y="0">s</tspan><tspan x="125.37" y="0">t </tspan><tspan class="cls-31" x="135.32" y="0">a</tspan><tspan x="144.43" y="0">thletes in the </tspan><tspan class="cls-26" x="252.43" y="0">w</tspan><tspan x="265.52" y="0">orld are </tspan><tspan class="cls-14" x="331.89" y="0">v</tspan><tspan x="340.79" y="0">e</tspan><tspan class="cls-34" x="349.91" y="0">g</tspan><tspan class="cls-5" x="359.1" y="0">ans!</tspan></text></g><rect class="cls-24" x="735.95" y="181.11" width="566" height="127.2"/><g class="cls-1"><text class="cls-2" transform="translate(751.19 491.26)">4. If <tspan class="cls-25" x="35.95" y="0">y</tspan><tspan class="cls-5" x="45.24" y="0">ou </tspan><tspan class="cls-23" x="70.07" y="0">e</tspan><tspan x="79.86" y="0">at m</tspan><tspan class="cls-40" x="116.36" y="0">e</tspan><tspan x="126.15" y="0">a</tspan><tspan class="cls-41" x="135.86" y="0">t</tspan><tspan x="142.63" y="0">,</tspan></text><text class="cls-9" transform="translate(900.59 491.26)"><tspan xml:space="preserve"> then it should </tspan><tspan class="cls-23" x="118.17" y="0">b</tspan><tspan x="128.5" y="0">e or</tspan><tspan class="cls-33" x="158.68" y="0">g</tspan><tspan x="167.87" y="0">anic </tspan></text><text class="cls-9" transform="translate(751.19 514.26)">and from s<tspan class="cls-40" x="85.8" y="0">p</tspan><tspan class="cls-5" x="96.39" y="0">ecie</tspan><tspan class="cls-14" x="128.74" y="0">s</tspan><tspan class="cls-5" x="136.86" y="0">-appropri</tspan><tspan class="cls-14" x="214.09" y="0">a</tspan><tspan x="223.21" y="0">t</tspan><tspan class="cls-10" x="229.21" y="0">e</tspan><tspan x="237.98" y="0">, regional pr</tspan><tspan class="cls-23" x="334.45" y="0">o</tspan><tspan x="344.21" y="0">ductio</tspan><tspan class="cls-23" x="394.78" y="0">n</tspan><tspan class="cls-5" x="405.82" y="0">, </tspan></text><text class="cls-9" transform="translate(751.19 537.26)">pre<tspan class="cls-19" x="27.06" y="0">f</tspan><tspan class="cls-5" x="32.78" y="0">er</tspan><tspan class="cls-14" x="49.42" y="0">a</tspan><tspan x="58.53" y="0">bly from the direct mar</tspan><tspan class="cls-15" x="243.62" y="0">k</tspan><tspan x="253.3" y="0">ete</tspan><tspan class="cls-42" x="277.52" y="0">r</tspan><tspan x="283.35" y="0">. </tspan></text><text class="cls-9" transform="translate(751.19 560.26)"><tspan class="cls-4">F</tspan><tspan x="10.22" y="0">ind out whether there are suppliers </tspan><tspan class="cls-21" x="296.07" y="0">o</tspan><tspan x="305.55" y="0">f or</tspan><tspan class="cls-34" x="332.43" y="0">g</tspan><tspan class="cls-5" x="341.63" y="0">anic m</tspan><tspan class="cls-23" x="396.04" y="0">e</tspan><tspan class="cls-14" x="405.33" y="0">a</tspan><tspan x="414.44" y="0">t </tspan></text><text class="cls-9" transform="translate(751.19 583.36)">in <tspan class="cls-14" x="20.16" y="0">y</tspan><tspan x="29.07" y="0">our regio</tspan><tspan class="cls-7" x="101.49" y="0">n</tspan><tspan x="112.52" y="0">. Ma</tspan><tspan class="cls-15" x="145.13" y="0">k</tspan><tspan x="154.8" y="0">e sure the animal </tspan><tspan class="cls-21" x="296.95" y="0">f</tspan><tspan x="302.66" y="0">e</tspan><tspan class="cls-23" x="311.78" y="0">e</tspan><tspan x="321.06" y="0">d is not </tspan><tspan class="cls-13" x="383.33" y="0">c</tspan><tspan class="cls-5" x="391.93" y="0">oming </tspan></text><text class="cls-9" transform="translate(751.19 606.36)">from <tspan class="cls-14" x="43.08" y="0">ov</tspan><tspan class="cls-5" x="61.4" y="0">ers</tspan><tspan class="cls-23" x="86.34" y="0">e</tspan><tspan x="95.62" y="0">a</tspan><tspan class="cls-10" x="104.91" y="0">s</tspan><tspan x="112.86" y="0">. And </tspan><tspan class="cls-14" x="158.17" y="0">y</tspan><tspan x="167.07" y="0">ou ju</tspan><tspan class="cls-26" x="206.8" y="0">s</tspan><tspan x="214.98" y="0">t l</tspan><tspan class="cls-23" x="230.02" y="0">e</tspan><tspan class="cls-5" x="239.31" y="0">arn</tspan><tspan class="cls-23" x="266.98" y="0">e</tspan><tspan x="276.26" y="0">d which animals </tspan></text><text class="cls-9" transform="translate(751.19 629.36)"><tspan class="cls-33">c</tspan><tspan class="cls-30" x="8.72" y="0">a</tspan><tspan x="17.92" y="0">use the l</tspan><tspan class="cls-23" x="84.56" y="0">e</tspan><tspan x="93.84" y="0">a</tspan><tspan class="cls-26" x="103.12" y="0">s</tspan><tspan x="111.3" y="0">t </tspan><tspan class="cls-43" x="121.24" y="0">C</tspan><tspan x="132.05" y="0">O2 </tspan><tspan class="cls-23" x="158.37" y="0">e</tspan><tspan x="167.65" y="0">qui</tspan><tspan class="cls-43" x="193.7" y="0">v</tspan><tspan x="202.55" y="0">alents!</tspan></text></g><rect class="cls-24" x="736.26" y="463.37" width="565.67" height="181.93"/><path class="cls-44" d="M230,428.77H226.5l4.38-18.45a1,1,0,0,0-.65-1.12l-3.73-.93a1,1,0,0,0-1.12.65L220,428.77h-2.14a4.41,4.41,0,0,0,.93-2.8v-2.79H216a4.6,4.6,0,0,0-4.56,3.82,4.72,4.72,0,0,0-6.43-1.21c-.1.09-.19.09-.28.18,1.86-8.2,1.86-8.29,1.86-8.48a3.73,3.73,0,0,0-3.73-3.72h-.37a5.58,5.58,0,0,0-7.08-3.45,5.75,5.75,0,0,0-3.45,3.45,3.67,3.67,0,0,0-4,3.35v.28c0,.28,0,.65,1.59,5.68-.19,0-.47-.09-.65-.09h-2.8v2.8a5,5,0,0,0,.93,2.79h-3.72a.89.89,0,0,0-.94.93c0,8.67,8.11,14.17,10.25,15.47v3.17a.88.88,0,0,0,.94.93h26.09a.88.88,0,0,0,.93-.93v-3c2.14-1.31,10.25-6.8,10.25-15.47A.8.8,0,0,0,230,428.77Zm-3.08-18.45,2,.46-4.29,18h-2.6Zm-13.69,17.52A2.74,2.74,0,0,1,216,425h.93V426a2.74,2.74,0,0,1-2.79,2.8h-.93Zm-5.59-.93a2.7,2.7,0,0,1,2.6,1.86h-5.31A3,3,0,0,1,207.59,426.91Zm-4.76,1.86h-5.31a2.73,2.73,0,0,1,3.54-1.68A2.87,2.87,0,0,1,202.83,428.77Zm-13-11.18a1.8,1.8,0,0,1,1.77-1.87,1.12,1.12,0,0,1,.75.19,1,1,0,0,0,1.21-.56c0-.09,0-.09.09-.19a3.62,3.62,0,0,1,4.2-3.07,3.66,3.66,0,0,1,3.07,3.07.92.92,0,0,0,1,.75c.1,0,.1,0,.19-.09a1.88,1.88,0,0,1,2.42,1c.1.19.1.47.19.65-.09.66-1.21,5.32-2,8.39a4.57,4.57,0,0,0-7.26,2.8h-2v-.94a4.73,4.73,0,0,0-1.77-3.63C190.16,418.89,190,417.77,189.88,417.59ZM188,426V425H189a2.75,2.75,0,0,1,2.8,2.8v.93h-.94A2.8,2.8,0,0,1,188,426Zm31.49,17.71h-4.38v1.86h3.73v1.86H194.63v-1.86h12.12v-1.86H194c-1-.65-6.33-4-8.57-9.32h10.25V432.5h-11a6.78,6.78,0,0,1-.28-1.87H229c-.1.65-.19,1.21-.28,1.87H208.61v1.86h19.57C225.85,439.67,220.54,443.12,219.51,443.68Z"/><rect class="cls-44" x="197.34" y="432.5" width="1.86" height="1.86"/><rect class="cls-44" x="201.06" y="432.5" width="1.86" height="1.86"/><rect class="cls-44" x="204.79" y="432.5" width="1.86" height="1.86"/><path class="cls-44" d="M205.26,407.71a2.66,2.66,0,0,0-.19,1.68c.37,1.86,2.61,3.82,5,4.47a24,24,0,0,0,5.78.93h0a.88.88,0,0,0,.93-.93,1.25,1.25,0,0,0-.19-.56s-1-1.49-2.79-3.73c-.75-1-2.89-3.44-5.22-3.72a4.11,4.11,0,0,0-2.14.37,3,3,0,0,1-1.77-2.7h-1.87A5.21,5.21,0,0,0,205.26,407.71Zm3,0h.18c1.12.09,2.71,1.3,4,3,.56.75,1.12,1.49,1.49,2.05-1.12-.18-2.23-.37-3.35-.65-2-.56-3.45-2-3.73-3.08a.77.77,0,0,1,.37-.93,2.43,2.43,0,0,1,1-.37Z"/><rect class="cls-44" x="193.61" y="419.45" width="1.86" height="1.86"/><rect class="cls-44" x="198.27" y="421.31" width="1.86" height="1.86"/><path class="cls-44" d="M187.09,408.27c.28,0,1.11.09,2.33.09,2.33,0,5.77-.18,7.54-1.12a5.38,5.38,0,0,0,2.43-3.07,5,5,0,0,0-.19-3.82c-1.12-2.14-4.66-2.52-6.9-1.31-2.7,1.4-5.68,7.18-6,7.83a.82.82,0,0,0,.37,1.21C186.81,408.27,186.9,408.27,187.09,408.27Zm5.4-5.13-2.79,1.68c.46-.65.93-1.4,1.39-2.05Zm1.12,1.5v1.58l-3.17.28Zm3.91-1a2.9,2.9,0,0,1-1.49,2,1.55,1.55,0,0,1-.46.18v-2.23l2.23-1.31c-.09.47-.18.93-.28,1.4Zm-.74-3-2,1.12h0l-2.33-.56a2.86,2.86,0,0,1,.65-.47,4.48,4.48,0,0,1,3.64-.09Z"/><path class="cls-44" d="M218.77,400.81h1.86a.88.88,0,0,0,.93-.93,6.48,6.48,0,0,0-6.52-6.52h-1.86a.88.88,0,0,0-.94.93A6.54,6.54,0,0,0,218.77,400.81ZM215,395.22a4.7,4.7,0,0,1,4.57,3.73h-.84a4.69,4.69,0,0,1-4.57-3.73Z"/><path class="cls-44" d="M207.59,400.81a2.8,2.8,0,1,0-2.8-2.79A2.81,2.81,0,0,0,207.59,400.81Zm0-3.72a.93.93,0,1,1-.94.93A.94.94,0,0,1,207.59,397.09Z"/><path class="cls-44" d="M217.84,406.41a2.8,2.8,0,1,0,2.79-2.8A2.86,2.86,0,0,0,217.84,406.41Zm3.72,0a.93.93,0,1,1-.93-.94A.94.94,0,0,1,221.56,406.41Z"/><rect class="cls-44" x="211.31" y="418.52" width="1.86" height="1.86"/><rect class="cls-44" x="214.11" y="402.68" width="1.86" height="1.86"/><rect class="cls-44" x="199.2" y="394.29" width="1.86" height="1.86"/><rect class="cls-44" x="218.77" y="414.79" width="1.86" height="1.86"/><path class="cls-44" d="M1057.91,114c-.78-.09-6.76-.39-10.29,2.85a7.68,7.68,0,0,0-2.45,6,3.53,3.53,0,0,0,3.13,3.92h.79c2.55,0,3.92-1.47,3.92-2.94s0-2,4.9-2,4.9.49,4.9,2,1.38,2.94,3.92,2.94a3.55,3.55,0,0,0,3.93-3.14v-.78a7.73,7.73,0,0,0-2.46-6C1064.68,113.7,1058.69,114,1057.91,114Zm8.82,10.79c-1.27,0-2-.49-2-1,0-2.94-1-3.92-6.86-3.92s-6.86,1-6.86,3.92c0,.49-.69,1-2,1s-2-.59-2-2a5.68,5.68,0,0,1,1.86-4.51,7.35,7.35,0,0,1,2.55-1.47,5.13,5.13,0,0,0-.49,2.06h2a3.07,3.07,0,0,1,2-2.85,12.24,12.24,0,0,1,2-.1v2h2v-2a10.94,10.94,0,0,1,1.86.1,3.33,3.33,0,0,1,2.06,2.85h2a5.64,5.64,0,0,0-.49-2.16,7.12,7.12,0,0,1,2.55,1.47,6,6,0,0,1,1.86,4.51C1068.69,124.29,1068.11,124.78,1066.73,124.78Z"/><path class="cls-44" d="M1056.93,139.68l-2-.29-1,6.86a.92.92,0,0,0,.78,1.08h4v-2h-2.74Z"/><path class="cls-44" d="M1091.64,126.05c-6.18-3-10.4-3-16.57,0-.69.39-1.38.79-2,1.18a7.85,7.85,0,0,0,1.37-4.41c0-5.39-4.31-10.39-8.43-12.45-6.18-3-10.39-3-16.57,0-4.12,2.06-8.43,7.25-8.43,12.45a7.87,7.87,0,0,0,7.84,7.84,7.08,7.08,0,0,0,3.14-.78l-2.16,15.29a5.69,5.69,0,0,0,1.28,4.31,5.15,5.15,0,0,0,3.62,1.77h5.89a4.79,4.79,0,0,0,3.62-1.77,5.69,5.69,0,0,0,1.28-4.31l-2.16-15.29a7.08,7.08,0,0,0,3.14.78,7.35,7.35,0,0,0,3.82-1,13.93,13.93,0,0,0-3.82,8.82,7.87,7.87,0,0,0,7.84,7.85,7.09,7.09,0,0,0,3.14-.79l-2.16,15.3a5.7,5.7,0,0,0,1.28,4.31,5.15,5.15,0,0,0,3.62,1.77h5.89a4.79,4.79,0,0,0,3.62-1.77,5.7,5.7,0,0,0,1.28-4.31l-2.16-15.3a7.09,7.09,0,0,0,3.14.79,7.87,7.87,0,0,0,7.84-7.85C1100.07,133.11,1095.75,128.11,1091.64,126.05Zm-27.85,19.51a3.58,3.58,0,0,1-.88,2.75,2.62,2.62,0,0,1-2.16,1.08h-5.88a2.93,2.93,0,0,1-2.16-1.08,3.2,3.2,0,0,1-.78-2.75l2.45-17.25a13.77,13.77,0,0,0,1.08-1.47h4.71a7.91,7.91,0,0,0,1.07,1.47Zm2.94-16.86a5.6,5.6,0,0,1-5-3.33,1.11,1.11,0,0,0-.88-.59H1055a.93.93,0,0,0-.88.59,5.44,5.44,0,0,1-5,3.33,5.9,5.9,0,0,1-5.89-5.88c0-4.41,3.73-8.92,7.26-10.69,5.59-2.74,9.22-2.74,14.8,0,3.63,1.77,7.26,6.28,7.26,10.69A5.76,5.76,0,0,1,1066.73,128.7Zm22.55,32.55a3.9,3.9,0,0,1-.78,2.74,2.6,2.6,0,0,1-2.16,1.08h-5.88a2.9,2.9,0,0,1-2.16-1.08,3.17,3.17,0,0,1-.78-2.74L1080,144a15.3,15.3,0,0,0,1.08-1.47h4.7a8.44,8.44,0,0,0,1.08,1.47Zm2.94-16.86a5.61,5.61,0,0,1-5-3.34,1.13,1.13,0,0,0-.88-.59h-5.88a.94.94,0,0,0-.88.59,5.45,5.45,0,0,1-5,3.34,5.91,5.91,0,0,1-5.89-5.89c0-4.41,3.73-8.92,7.26-10.68,5.59-2.75,9.22-2.75,14.8,0,3.63,1.76,7.26,6.27,7.26,10.68A5.76,5.76,0,0,1,1092.22,144.39Z"/><path class="cls-44" d="M1083.4,129.68c-.78-.1-6.76-.39-10.29,2.84a7.7,7.7,0,0,0-2.45,6,3.54,3.54,0,0,0,3.13,3.93h.79c2.55,0,3.92-1.48,3.92-3s0-2,4.9-2,4.9.49,4.9,2,1.38,3,3.92,3a3.55,3.55,0,0,0,3.93-3.14v-.79a7.74,7.74,0,0,0-2.46-6C1090.17,129.39,1084.19,129.68,1083.4,129.68Zm8.82,10.78c-1.27,0-2-.49-2-1,0-2.94-1-3.92-6.86-3.92s-6.86,1-6.86,3.92c0,.49-.69,1-2,1s-2-.58-2-2a5.71,5.71,0,0,1,1.86-4.51,7.68,7.68,0,0,1,2.55-1.47,5.21,5.21,0,0,0-.49,2.06h2a3,3,0,0,1,2-2.84,12.24,12.24,0,0,1,2-.1v2h2v-2a10.94,10.94,0,0,1,1.86.1,3.33,3.33,0,0,1,2.06,2.84h2a5.59,5.59,0,0,0-.49-2.15,7.12,7.12,0,0,1,2.55,1.47,6,6,0,0,1,1.87,4.51C1094.19,140,1093.6,140.46,1092.22,140.46Z"/><path class="cls-44" d="M1082.42,155.37l-2-.3-1,6.87a.91.91,0,0,0,.78,1.07h4v-2h-2.74Z"/><rect class="cls-44" x="1084.38" y="156.15" width="1.96" height="1.96"/><rect class="cls-44" x="1081.44" y="149.29" width="1.96" height="1.96"/><rect class="cls-44" x="1057.91" y="134.58" width="1.96" height="1.96"/><path class="cls-44" d="M848.11,134.29a1.47,1.47,0,0,1-.4-1.08h-2a3.6,3.6,0,0,0,1.28,2.65,3,3,0,0,0,1.57.49,3.06,3.06,0,0,0,1.37-.3l-.59-1.86A1.48,1.48,0,0,1,848.11,134.29Z"/><path class="cls-44" d="M894.77,128.31a5.5,5.5,0,0,0-3,.88,5,5,0,0,0-1.07-1,8.81,8.81,0,0,0,2.15-5.78,8.91,8.91,0,0,0-5-8,2.62,2.62,0,0,0,.1-.88,5.9,5.9,0,0,0-5.88-5.88,5.48,5.48,0,0,0-3,.88,9.66,9.66,0,0,0-7.75-3.82,9.79,9.79,0,0,0-9.31,6.86,5.86,5.86,0,0,0-6.27,5.2,6.89,6.89,0,0,0-4.71,8.43,7,7,0,0,0,1.37,2.55,5,5,0,0,0-1.57,1.27,5.48,5.48,0,0,0-3-.88,5.9,5.9,0,0,0-5.88,5.88,5.83,5.83,0,0,0,2.55,4.81,3.6,3.6,0,0,0-.59,2,3.94,3.94,0,0,0,3.92,3.93,4.09,4.09,0,0,0,3.53-2.16,6.57,6.57,0,0,0,1.38.2,1.19,1.19,0,0,0,.58-.1c3.83,2.15,12.16,8.13,12.16,19.7a.92.92,0,0,0,1,1h9.81a1,1,0,0,0,1-.88c0-.1.88-14.12,10.78-20.1a4.33,4.33,0,0,0,2,.4,5.64,5.64,0,0,0,1.37-.2,3.85,3.85,0,0,0,5.2,1.76A3.9,3.9,0,0,0,898.6,141a4.11,4.11,0,0,0-.59-2,5.77,5.77,0,0,0-3.24-10.59Zm-38-9.71a1,1,0,0,0,.79-1v-.1a3.93,3.93,0,0,1,3.92-3.92,2.65,2.65,0,0,1,.88.1,1.1,1.1,0,0,0,.79-.1,1.5,1.5,0,0,0,.49-.59,7.86,7.86,0,0,1,7.64-6.27,7.65,7.65,0,0,1,6.67,3.72,1,1,0,0,0,1.37.3.1.1,0,0,0,.1-.1,3.7,3.7,0,0,1,2.65-1A3.93,3.93,0,0,1,886,113.6a4.86,4.86,0,0,1-.2,1.18.87.87,0,0,0,.59,1.17,6.79,6.79,0,0,1,4.51,6.48,6.89,6.89,0,0,1-2.16,5c-.29,0-.49-.1-.78-.1a4.91,4.91,0,0,0-4.9,4.9v.59a3.9,3.9,0,0,1-5.49.49,1,1,0,0,0-1.37.1.09.09,0,0,1-.1.09,5.84,5.84,0,0,1-8.14,1.67,4.53,4.53,0,0,1-1.67-1.67,1,1,0,0,0-1.37-.29.1.1,0,0,0-.1.1,3.9,3.9,0,0,1-5.49-.49,5,5,0,0,0-4.21-5.49h-.59a4.87,4.87,0,0,1-1-6.87,5.2,5.2,0,0,1,3.23-1.86Zm28.53,17.75h0a23.36,23.36,0,0,0-10.39,8.82l.88-8.53a8.74,8.74,0,0,0,1.38-1.27,5.89,5.89,0,0,0,2.84.78,5.81,5.81,0,0,0,3.72-1.37A6.49,6.49,0,0,0,885.26,136.35ZM868,147.72a27.25,27.25,0,0,0-10.59-10.2,2.33,2.33,0,0,0-.29-1.08,4.84,4.84,0,0,0,1.56-1.56,5.76,5.76,0,0,0,3.73,1.27,5.89,5.89,0,0,0,2.84-.78,6.8,6.8,0,0,0,2.26,1.76Zm-15.39-6.67a3.56,3.56,0,0,1-1.47-.39,1.07,1.07,0,0,0-1.38.29c-.09.1-.09.2-.09.4a1.84,1.84,0,0,1-2.16,1.66,2,2,0,0,1-1.77-2,2.07,2.07,0,0,1,.79-1.57,1,1,0,0,0,.19-1.37c-.09-.1-.29-.19-.39-.29a3.95,3.95,0,0,1,2.85-7.36,5.44,5.44,0,0,1,1.27.79,1,1,0,0,0,1.37-.1c.1-.1.1-.2.2-.29a3,3,0,1,1,5.39,2.45,3.15,3.15,0,0,1-1.76,1.57,1,1,0,0,0-.59,1.27.35.35,0,0,0,.1.2,3,3,0,0,1-.79,4.11A3.12,3.12,0,0,1,852.62,141.05Zm22.64,20.59h-7.94c-.39-10.69-7.45-16.86-11.76-19.61a5,5,0,0,0,1.76-2.45,25.18,25.18,0,0,1,11.08,13.53,1,1,0,0,0,1,.69h.2a.87.87,0,0,0,.78-1L869.58,138a8.72,8.72,0,0,0,4.21-.19l-1.47,14a1,1,0,0,0,.79,1.08h.19a1,1,0,0,0,1-.79,19.66,19.66,0,0,1,10.89-13.33,4.33,4.33,0,0,0,1.17,2.64C877.42,147.13,875.56,158.31,875.26,161.64Zm21-23.82a1,1,0,0,0-.58,1.27,1.07,1.07,0,0,0,.29.39,2,2,0,0,1,.39,2.75,2,2,0,0,1-1.57.78,2,2,0,0,1-2-1.66c0-.3-.29-.59-.59-.79a.56.56,0,0,0-.39-.1.73.73,0,0,0-.49.1,2.71,2.71,0,0,1-1.47.39,2.88,2.88,0,0,1-2.94-2.94,3.35,3.35,0,0,1,.49-1.66,1,1,0,0,0-.29-1.38c-.1,0-.1-.09-.2-.09a2.91,2.91,0,0,1,2-5.49,2.64,2.64,0,0,1,1.67,1.56,1,1,0,0,0,1.27.49c.1,0,.2-.09.3-.19a3.88,3.88,0,1,1,5.29,5.69,2.3,2.3,0,0,1-1.18.88Z"/><path class="cls-44" d="M894.38,134.29a1.9,1.9,0,0,1-1.27,0l-.59,1.86a6.09,6.09,0,0,0,1.37.29,2.91,2.91,0,0,0,1.57-.49,3.59,3.59,0,0,0,1.27-2.64h-2A2.06,2.06,0,0,1,894.38,134.29Z"/><path class="cls-44" d="M871.24,110.66v-2a5.69,5.69,0,0,0-5.88,5.49v.39h2a3.81,3.81,0,0,1,3.63-3.92Z"/><path class="cls-44" d="M863.4,117.52v-2a3.83,3.83,0,0,0-3.92,3.73v.19h2a1.86,1.86,0,0,1,1.76-2Z"/><path class="cls-44" d="M882,114.58h2a2.85,2.85,0,0,0-2.75-2.94h-.19v2a.83.83,0,0,1,1,.79Z"/><path class="cls-44" d="M887.71,126a5.87,5.87,0,0,0,0-7l-1.56,1.17a4.14,4.14,0,0,1,0,4.71Z"/><path class="cls-44" d="M879.09,127.33a3.94,3.94,0,0,0,3.92-3.92h-2a2,2,0,1,1-3.92,0h-2A3.93,3.93,0,0,0,879.09,127.33Z"/><path class="cls-44" d="M866.34,130.27a3.93,3.93,0,0,0,3.92-3.92h-2a2,2,0,1,1-3.92,0h-2A3.94,3.94,0,0,0,866.34,130.27Z"/><path class="cls-44" d="M868.3,118.5h-2a3.93,3.93,0,1,0,7.85,0h-2a2,2,0,0,1-3.92,0Z"/><rect class="cls-44" x="858.5" y="122.43" width="1.96" height="1.96"/><rect class="cls-44" x="874.19" y="128.31" width="1.96" height="1.96"/><rect class="cls-44" x="878.11" y="114.58" width="1.96" height="1.96"/><rect class="cls-44" x="869.28" y="157.72" width="1.96" height="1.96"/><rect class="cls-44" x="872.22" y="154.78" width="1.96" height="1.96"/><path class="cls-44" d="M483.83,434.17a.89.89,0,0,0,.94.94h3.72a.88.88,0,0,0,.93-.94,2.73,2.73,0,0,1,1.87-2.61V437h-4.66a.88.88,0,0,0-.93.93,6.52,6.52,0,0,0,5.59,6.43v2.05a3.75,3.75,0,0,0,1.86,7.27,3.72,3.72,0,0,0,2.7-4.57,3.92,3.92,0,0,0-2.7-2.7v-2h4.66a.88.88,0,0,0,.93-.93,6.52,6.52,0,0,0-5.59-6.43v-5.5a2.82,2.82,0,0,1,1.87,2.61.88.88,0,0,0,.93.94h3.72a.89.89,0,0,0,.94-.94,8.21,8.21,0,0,0-3.17-6.52h.37a2.74,2.74,0,0,0,2.8-2.79v-5.6a2.74,2.74,0,0,0-2.8-2.79h-1a6.5,6.5,0,0,0,.09-9.23,10.21,10.21,0,0,0-1.12-.93,8.4,8.4,0,0,0,4.85-7.55.89.89,0,0,0-.94-.93H496a.88.88,0,0,0-.93.93,2.71,2.71,0,0,1-1.87,2.61v-2.61a.93.93,0,0,0-1.86,0v2.61a2.71,2.71,0,0,1-1.87-2.61.88.88,0,0,0-.93-.93h-3.72a.89.89,0,0,0-.94.93,8.18,8.18,0,0,0,4.85,7.55,6.59,6.59,0,0,0-2,9,10.21,10.21,0,0,0,.93,1.12h-1a2.75,2.75,0,0,0-2.8,2.79v5.6a2.75,2.75,0,0,0,2.8,2.79H487A8.21,8.21,0,0,0,483.83,434.17ZM494.08,450a1.86,1.86,0,1,1-1.86-1.86A1.87,1.87,0,0,1,494.08,450Zm2.71-7.45h-4.57a4.69,4.69,0,0,1-4.57-3.73h4.57A4.7,4.7,0,0,1,496.79,442.56Zm-11-42.86h1.86a4.67,4.67,0,0,0,9.14,0h1.86a6.45,6.45,0,0,1-7.36,5.49A6.32,6.32,0,0,1,485.79,399.7Zm1.77,12.11a4.66,4.66,0,1,1,4.66,4.66A4.61,4.61,0,0,1,487.56,411.81Zm-.93,6.52h11.18a.88.88,0,0,1,.93.93v1a3.64,3.64,0,0,0-1.58,1c-.47.47-.65.66-1.21.66s-.75-.19-1.21-.66a3.26,3.26,0,0,0-4.57-.46c-.19.18-.37.28-.47.46-.46.47-.65.66-1.21.66s-.74-.19-1.21-.66a3.64,3.64,0,0,0-1.58-1v-1A.88.88,0,0,1,486.63,418.33Zm0,7.46a.88.88,0,0,1-.93-.93v-2.43a3.7,3.7,0,0,0,.28.28,3.24,3.24,0,0,0,4.56.47c.19-.19.38-.28.47-.47.47-.46.65-.65,1.21-.65s.75.19,1.21.65a3.25,3.25,0,0,0,4.57.47c.18-.19.37-.28.46-.47a3.7,3.7,0,0,0,.28-.28v2.43a.88.88,0,0,1-.93.93Zm12,7.45h-1.86a4.67,4.67,0,0,0-9.14,0h-1.86a6.45,6.45,0,0,1,7.36-5.5,6.34,6.34,0,0,1,5.5,5.5Z"/><path class="cls-44" d="M492.22,412.74a.88.88,0,0,1-.93-.93h-1.87a2.8,2.8,0,1,0,5.6,0h-1.87A.93.93,0,0,1,492.22,412.74Z"/><path class="cls-44" d="M509.92,427.65h-1.86a2.8,2.8,0,1,0,5.59,0h-1.86a.94.94,0,0,1-1.87,0Z"/><path class="cls-44" d="M516.87,409a.88.88,0,0,0,.93-.93,6.52,6.52,0,0,0-5.59-6.43v-2.89a.93.93,0,1,0-1.86,0v2.8h-4.66a.88.88,0,0,0-.93.93,6.51,6.51,0,0,0,5.59,6.43v2a8.36,8.36,0,0,0-7.46,8.29.88.88,0,0,0,.93.93h3.73a.88.88,0,0,0,.93-.93,2.72,2.72,0,0,1,1.87-2.61v4.57a6.45,6.45,0,0,0-5.5,7.36,6.55,6.55,0,0,0,1.86,3.73h-1a2.74,2.74,0,0,0-2.8,2.79v5.59a2.75,2.75,0,0,0,2.8,2.8h4.66v2.89a3.75,3.75,0,0,0,1.86,7.26,3.7,3.7,0,0,0,2.7-4.56,3.91,3.91,0,0,0-2.7-2.7V443.4h4.66a2.75,2.75,0,0,0,2.8-2.8V435a2.75,2.75,0,0,0-2.8-2.79h-1a6.49,6.49,0,0,0-3.64-11.09v-4.57a2.79,2.79,0,0,1,1.86,2.61.88.88,0,0,0,.94.93h3.72a.88.88,0,0,0,.94-.93,8.29,8.29,0,0,0-7.46-8.29v-2h4.66Zm-3.73,41a1.86,1.86,0,1,1-1.86-1.86A1.87,1.87,0,0,1,513.14,450Zm-6.43-46.59h4.57a4.7,4.7,0,0,1,4.57,3.73h-4.57A4.69,4.69,0,0,1,506.71,403.42Zm10.16,38.21H505.69a.88.88,0,0,1-.93-.93v-2.43l.28.28a3.24,3.24,0,0,0,4.56.47c.19-.19.37-.28.47-.47.46-.46.65-.65,1.21-.65s.74.19,1.21.65a3.25,3.25,0,0,0,4.57.47c.18-.19.37-.28.46-.47a3.7,3.7,0,0,0,.28-.28v2.43a.93.93,0,0,1-.93.93Zm0-7.46a.88.88,0,0,1,.93.94v1a3.57,3.57,0,0,0-1.58,1c-.47.46-.65.65-1.21.65s-.75-.19-1.21-.65a3.25,3.25,0,0,0-4.57-.47c-.19.19-.37.28-.47.47-.46.46-.65.65-1.21.65s-.74-.19-1.21-.65a3.62,3.62,0,0,0-1.58-1v-1a.88.88,0,0,1,.93-.94Zm-.93-6.52a4.66,4.66,0,1,1-4.66-4.66A4.61,4.61,0,0,1,515.94,427.65Zm1.77-9.32h-1.86a4.67,4.67,0,0,0-9.14,0h-1.86a6.46,6.46,0,0,1,7.36-5.5,6.34,6.34,0,0,1,5.5,5.5Z"/><path class="cls-44" d="M992.13,117.23c0-.1-.1-.1-.1-.2l-3.73-5.59v-5.58a.92.92,0,0,0-1-1H961.83a.92.92,0,0,0-1,1v5.58L957.13,117c0,.1-.1.1-.1.2s-.1.2-.1.39v45.1a.92.92,0,0,0,1,1h33.33a.92.92,0,0,0,1-1v-45.1C992.22,117.43,992.22,117.33,992.13,117.23Zm-1.87,36.57h-5.88V130.27h5.88Zm-7.84-23.53v2.35c-5,2.65-7.06,1.77-9.41.88a12.38,12.38,0,0,0-14.12,2.26v-5.49Zm0-2H962.81v-5.88h3.92v-2h-4.9a.93.93,0,0,0-1,1v6.87h-2V118.5h23.53ZM958.89,138.5c.88-1,4.22-4.31,8.82-4.31a10.12,10.12,0,0,1,4.51,1.08c2.46,1,5,2.06,10.2-.49v19H958.89Zm25.49-10.19V118.5h5.88v9.81Zm.88-11.77,2.06-3.13,2.06,3.13Zm-22.45-9.8h2v2h2v-2H978.5v2h2v-2h2v2h2v-2h2v3.92H962.81Zm-.49,5.88h23.14l-2.65,3.92H959.68Zm-3.43,43.14h23.53v5.88H958.89Zm25.49,5.88v-5.88h5.88v5.88Z"/><path class="cls-44" d="M975.56,138.11c-2,0-4.22,2.94-4.81,5-1.47-1.67-3.53-3-5-3a2.84,2.84,0,0,0-1.76.69c-1.18,1.27-1.18,3.63-1.18,5.59v.49a4.86,4.86,0,0,0,4.9,4.9,4.92,4.92,0,0,0,4.91-4.51A4,4,0,0,0,978,146a3.84,3.84,0,0,0,.59-2C978.5,142.62,978.3,138.11,975.56,138.11Zm-7.85,11.77a2.89,2.89,0,0,1-2.94-2.94v-.5a28.88,28.88,0,0,1,.1-2.94l2,3.83,1.77-.89-2.16-4.31c1.67.69,4.22,3.33,4.22,4.71A3,3,0,0,1,967.71,149.88Zm6.87-3.93a2,2,0,0,1-2-2c0-1.27,2-3.92,2.94-3.92.39,0,1,1.67,1,3.92A2,2,0,0,1,974.58,146Z"/><rect class="cls-44" x="967.71" y="136.15" width="1.96" height="1.96"/><rect class="cls-44" x="977.52" y="149.88" width="1.96" height="1.96"/><rect class="cls-44" x="961.83" y="157.72" width="1.96" height="1.96"/><path class="cls-44" d="M1207.91,150H1204V131.35a.92.92,0,0,0-1-1h-10.79V111.74a.92.92,0,0,0-1-1h-10a5.29,5.29,0,0,0-1.07-5.59l-3-2.94a1,1,0,0,0-1.37,0,5.41,5.41,0,0,0,0,7.25l1.28,1.28h-7.45a.93.93,0,0,0-1,1v18.63h-8.82a.92.92,0,0,0-1,1V150h-7.84a.93.93,0,0,0-1,1v3.93a.93.93,0,0,0,1,1h5.49l5.59,4.7a1.34,1.34,0,0,0,.58.2h33.34a1.07,1.07,0,0,0,.59-.2l5.58-4.7h5.49a.93.93,0,0,0,1-1V151A.75.75,0,0,0,1207.91,150Zm-31.27-45.58,2.15,2.15a3.3,3.3,0,0,1,.59,3.63l-2.16-2.16A3.27,3.27,0,0,1,1176.64,104.39ZM1202,150h-19.61V132.33H1202Zm-31.37-37.25h19.6v17.65h-19.6Zm-9.81,19.61h19.61V150h-19.61Zm34.9,26.47h-32.64l-3.53-2.94h39.7Zm11.18-4.9H1152v-2h54.9Z"/><path class="cls-44" d="M1176.54,118.6a2.89,2.89,0,0,0-2.94,2.94h2a1,1,0,1,1,2,0h2A3,3,0,0,0,1176.54,118.6Z"/><path class="cls-44" d="M1186.34,138.21a2.94,2.94,0,1,0,2.94-2.94A2.89,2.89,0,0,0,1186.34,138.21Zm3.92,0a1,1,0,1,1-1-1A.92.92,0,0,1,1190.26,138.21Z"/><path class="cls-44" d="M1197.13,146.05a.93.93,0,0,1,1,1h2a2.94,2.94,0,1,0-5.88,0h2A.92.92,0,0,1,1197.13,146.05Z"/><path class="cls-44" d="M1172.62,139.19a.92.92,0,0,1-1-1h-2a2.94,2.94,0,0,0,5.88,0h-2A1.05,1.05,0,0,1,1172.62,139.19Z"/><path class="cls-44" d="M1186.34,120.56h2v-4.9a.92.92,0,0,0-1-1h-3.92v2h2.94Z"/><path class="cls-44" d="M1164.77,141.15h-2V147a.92.92,0,0,0,1,1h4.9v-2h-3.92Z"/><rect class="cls-44" x="1170.66" y="146.05" width="3.92" height="1.96"/><rect class="cls-44" x="1180.46" y="124.48" width="3.92" height="1.96"/><rect class="cls-44" x="1164.77" y="135.27" width="3.92" height="1.96"/><rect class="cls-44" x="1195.17" y="136.25" width="3.92" height="1.96"/><rect class="cls-44" x="1184.38" y="143.11" width="3.92" height="1.96"/><path class="cls-44" d="M327.29,437.71h-3.35c-.47-8.48-7.74-12.67-22.18-12.67s-21.62,4.19-22.18,12.67h-3.35a.92.92,0,0,0-.93.84c0,.28-.28,7.08,12,10.63H316.2c12.3-3.55,12-10.25,12-10.63A.92.92,0,0,0,327.29,437.71Zm-25.53-10.8c13.32,0,19.85,3.44,20.31,10.8h-2.33c-.74-8.1-11.92-8.1-18-8.1s-17.24,0-18,8.1h-2.33C282,430.35,288.43,426.91,301.76,426.91Zm12.86,10.8c-.47-3.54-6.71-4-12.86-4s-12.39.46-12.86,4h-3.26c.65-5.12,6.89-6.24,16.12-6.24s15.47,1.12,16.12,6.24Zm-2,0h-21.8c.46-1.11,2.79-2.14,10.9-2.14S312.29,436.69,312.66,437.71Zm3.17,9.69H287.69c-8.2-2.42-10.06-6.15-10.44-7.82h49C325.89,441.25,324,445,315.83,447.4Z"/><path class="cls-44" d="M315.92,441.72a11.19,11.19,0,0,1-4.1,2,.92.92,0,1,0,.47,1.77,14.1,14.1,0,0,0,4.75-2.33.9.9,0,0,0,.09-1.3A.74.74,0,0,0,315.92,441.72Z"/><path class="cls-44" d="M330.65,388.79c-4.1-.93-31.13,12.4-31.41,12.49A1.09,1.09,0,0,1,298,401a2.78,2.78,0,0,0-2.7-.28L280.23,407a.9.9,0,0,0-.55,1.22.85.85,0,0,0,1.21.46l10.62-4.38.75,1.68c-.1.09-11.28,4.66-10.63,4.38a.85.85,0,0,0-.46,1.21.89.89,0,0,0,.84.56.58.58,0,0,0,.37-.09l.56-.28a2,2,0,0,0-.1,1.95c0,.1.1.1.1.19a1,1,0,0,0-.38,1.12c.47,1,1.59.37,2.15.09,1,.28,1.12.28.65,1.12-1.12,1.86-.56,3.35,1.58,3.91.56.1.66.19.75.38.19.46-1.4,1.58-.75,3.16a.89.89,0,0,0,.84.56.6.6,0,0,0,.38-.09.86.86,0,0,0,.46-1.21c-.09-.19,0-.28.28-.75a2.37,2.37,0,0,0,.37-2.42c-.84-2.14-3.54-.84-2.42-2.52a2.38,2.38,0,0,0,.09-3l2.89-1.21c.47.09.84.19.93.37.19.47-1.39,1.59-.74,3.17s2.51,1.31,2.7,1.77-1.4,1.59-.65,3.17a.92.92,0,1,0,1.68-.74c-.19-.47,1.39-1.59.65-3.17-.93-2.15-3.54-.75-2.42-2.52a2.39,2.39,0,0,0,.09-3l6.8-2.8c2.33-.93,1.21-3.07,2.42-3.44.28-.1,28.7-9.79,30.94-13.24C333,391.31,332,389.07,330.65,388.79Zm-37,20.69-3.91,1.58c-.47-.37.65-1.11.74-2.33l2.43-1Zm-5.59.28a2.28,2.28,0,0,0-.09,2.05l-3.45,1.4c-.46-.38.75-1.12.75-2.33Zm42.59-18.17c-1.22,2-20.22,9.32-30,12.49-2.51.83-1.4,3-2.51,3.44l-2.8,1.12-2.14-5.12L296,402.4c.65-.28,1,.28,1.21.28a2.7,2.7,0,0,0,2.89.18c9.23-4.65,27.86-12.95,30.1-12.39A1.5,1.5,0,0,1,330.65,391.59Z"/><path class="cls-44" d="M383.32,425.23a.88.88,0,0,0-.93.93.82.82,0,0,0,.56.84c4.57,1.86,11.37,2.89,18.54,2.89,11.75,0,24.23-3,24.23-8.39s-12.21-8.29-23.76-8.39h0a.88.88,0,0,0-.93.94.8.8,0,0,0,.56.83c2.89,1.12,4.56,2.52,4.56,3.83a3.68,3.68,0,0,1-1.11,2.51c-3.73,3.54-15.38,4.19-21.72,4Zm23-2.7a5.18,5.18,0,0,0,1.68-3.82c0-1-.47-2.24-2.15-3.64,10.81.65,18,3.73,18,6.43,0,3.08-9.23,6.52-22.37,6.52a61.22,61.22,0,0,1-11.64-1c5.68-.28,13.14-1.31,16.49-4.47Z"/><path class="cls-44" d="M380.53,418.71V419a3.75,3.75,0,0,0-2.33,3.45.85.85,0,0,0,.37.75,11.72,11.72,0,0,0,3.08,1.49c.09,0,.18.09.28.09a.88.88,0,0,0,.93-.93.9.9,0,0,0-.65-.84,22.16,22.16,0,0,1-2.15-.93,1.9,1.9,0,0,1,1.59-1.4,1,1,0,0,0,.84-1c0-.1,0-.19-.1-.19a1.52,1.52,0,0,1,.1-1.4,2.23,2.23,0,0,1,1.58-1.12,1,1,0,0,0,.75-1.11v-.1a1.58,1.58,0,0,1-.1-.93,2.12,2.12,0,0,1,1.59-1.58.92.92,0,0,0,.74-.93v-.1a1.87,1.87,0,0,1,1.87-1.86H389a1,1,0,0,0,.74-.28,1.8,1.8,0,0,1,2.61-.09.09.09,0,0,1,.1.09.76.76,0,0,0,.74.28h.19a1.87,1.87,0,0,1,1.86,1.86v.1a.91.91,0,0,0,.75.93,2.1,2.1,0,0,1,1.58,1.58,1.66,1.66,0,0,1-.09.93,1,1,0,0,0,.56,1.21h.09a2,2,0,0,1,1.58,1.12,2.4,2.4,0,0,1,.1,1.4,1,1,0,0,0,.56,1.21c.09,0,.18,0,.18.1a2.16,2.16,0,0,1,1,.55,1,1,0,0,0,1.3.1,1,1,0,0,0,.1-1.31h0a4.23,4.23,0,0,0-1.22-.93v-.28a3.75,3.75,0,0,0-2.33-3.45v-.28a3.6,3.6,0,0,0-2.42-3.44,6.87,6.87,0,0,0-8.48-3.08,3.69,3.69,0,0,0-3.54,3.08,3.82,3.82,0,0,0-2.42,3.44v.28A3.4,3.4,0,0,0,380.53,418.71Z"/><path class="cls-44" d="M415.47,423.36a2.8,2.8,0,1,0-2.79-2.79A2.8,2.8,0,0,0,415.47,423.36Zm0-3.72a.93.93,0,1,1-.93.93A.88.88,0,0,1,415.47,419.64Z"/><path class="cls-44" d="M405.87,426.07l2.8.93c.09,0,.19.09.28.09s.28,0,.37-.09l3.73-1.87a.82.82,0,0,0,.37-1.21c-.09-.18-.28-.37-.37-.37l-3.73-1.86a1,1,0,0,0-1.12.18l-2.79,2.8a.9.9,0,0,0,0,1.3C405.59,426,405.69,426.07,405.87,426.07Zm3.27-2.52,1.49.75-1.68.83-1-.37Z"/><rect class="cls-44" x="409.88" y="417.77" width="1.86" height="1.86"/><rect class="cls-44" x="389.38" y="412.18" width="1.86" height="1.86"/><rect class="cls-44" x="393.11" y="414.98" width="1.86" height="1.86"/><rect class="cls-44" x="395.9" y="419.64" width="1.86" height="1.86"/><rect class="cls-44" x="390.31" y="418.71" width="1.86" height="1.86"/><rect class="cls-44" x="386.59" y="415.91" width="1.86" height="1.86"/><rect class="cls-44" x="384.72" y="419.64" width="1.86" height="1.86"/><rect class="cls-44" x="420.13" y="420.57" width="1.86" height="1.86"/><rect class="cls-44" x="402.43" y="425.23" width="1.86" height="1.86"/><path class="cls-44" d="M431.22,422.34c0-.19.09-.84.09-.84,0-7.36-13.14-13-29.82-13H398.7a.93.93,0,0,0-.93.93h0a1,1,0,0,0,.93.93h2.7c15.19,0,28,5.12,28,11.18v.56c-.84,5.78-13.24,10.62-28,10.62-15.19,0-27.95-5.12-27.95-11.18,0-3.07,3.44-6.43,8.76-8.48a.94.94,0,1,0-.66-1.77c-6.15,2.33-9.87,6.24-9.87,10.16a3,3,0,0,0,.09.84c.37,3.07,2.7,13.6,17.61,17.33v3a.9.9,0,0,0,.75.93,46.61,46.61,0,0,0,11.36,1.12,57.68,57.68,0,0,0,11.37-1.12.9.9,0,0,0,.75-.93v-3C428.52,435.94,430.85,425.41,431.22,422.34Zm-19.48,19.57a47.47,47.47,0,0,1-10.25.93,54.07,54.07,0,0,1-10.25-.93V440a56.35,56.35,0,0,0,20.5,0Zm-10.25-2.71c-16.67,0-23.38-6.24-26.09-11.36,5,4,14.73,6.71,26.09,6.71s20.88-2.61,26-6.53C424.6,433.06,417.89,439.2,401.49,439.2Z"/><path class="cls-44" d="M1208.05,394.84h-1v-.95a4.71,4.71,0,0,0-4.75-4.76h-7.61a1,1,0,0,0,0,1.9h7.61a2.81,2.81,0,0,1,2.85,2.86v.95h-33.29a1,1,0,0,0,0,1.9h36.14a.9.9,0,0,1,1,.95v.95h-51.35v-.95a.9.9,0,0,1,.95-.95h9.51a.95.95,0,0,0,0-1.9h-6.66v-.95a2.81,2.81,0,0,1,2.85-2.86h26.63a1,1,0,1,0,0-1.9H1164.3a4.71,4.71,0,0,0-4.75,4.76v.95h-1a2.8,2.8,0,0,0-2.85,2.85v7.61a4.71,4.71,0,0,0,4.75,4.76,4.54,4.54,0,0,0,3.8-1.91,4.71,4.71,0,0,0,6.57,1.05,5.44,5.44,0,0,0,1-1.05,4.71,4.71,0,0,0,6.57,1.05,5.44,5.44,0,0,0,1-1.05,4.7,4.7,0,0,0,6.56,1.05,5.8,5.8,0,0,0,1.05-1.05,4.7,4.7,0,0,0,6.56,1.05,5.8,5.8,0,0,0,1-1.05,4.54,4.54,0,0,0,3.8,1.91,1,1,0,0,0,0-1.91,2.8,2.8,0,0,1-2.85-2.85v-4.75h5.71v4.75a4.71,4.71,0,0,0,4.75,4.76,5,5,0,0,0,2.85-1v20h-14.64a6.17,6.17,0,0,0,3.23-5.71,3.4,3.4,0,0,0-.09-.95h2a.9.9,0,0,0,1-.95,1.91,1.91,0,0,1,3.81,0,1.77,1.77,0,0,1-.48,1.23,1,1,0,0,0,0,1.24,2,2,0,0,1,.48,1.24,1.91,1.91,0,0,1-3.81,0,.95.95,0,0,0-1.9,0,3.81,3.81,0,0,0,7.61,0,4.37,4.37,0,0,0-.47-1.9,3.38,3.38,0,0,0,.47-1.91,3.82,3.82,0,0,0-7.51-.95h-1.71c-2-4.37-8.56-4.75-10.85-4.75a7.71,7.71,0,0,0-4.94,1.8,2.17,2.17,0,0,1-.76-.57,8.35,8.35,0,0,0-7.9-3,7.6,7.6,0,0,0-1.61.38,8.56,8.56,0,0,0-9.23,13.79,5,5,0,0,0,1,1h-5.14V411.86a.95.95,0,0,0-1.9,0v33.29a.95.95,0,0,0,1.9,0V434.69h51.36v10.46a.95.95,0,0,0,1.9,0V397.6A2.7,2.7,0,0,0,1208.05,394.84Zm-47.55,13.31a2.79,2.79,0,0,1-2.85-2.85v-4.75h5.7v4.75A2.79,2.79,0,0,1,1160.5,408.15Zm7.61,0a2.79,2.79,0,0,1-2.85-2.85v-4.75h5.7v4.75A2.79,2.79,0,0,1,1168.11,408.15Zm7.61,0a2.8,2.8,0,0,1-2.86-2.85v-4.75h5.71v4.75A2.8,2.8,0,0,1,1175.72,408.15Zm7.61,0a2.8,2.8,0,0,1-2.86-2.85v-4.75h5.71v4.75A2.8,2.8,0,0,1,1183.33,408.15Zm7.6,0a2.8,2.8,0,0,1-2.85-2.85v-4.75h5.71v4.75A2.8,2.8,0,0,1,1190.93,408.15Zm15.22,0a2.79,2.79,0,0,1-2.85-2.85v-4.75h5.7v4.75A2.79,2.79,0,0,1,1206.15,408.15Zm-10.46,15.22c0,4.18-4.47,5.33-7.61,5.61l.19-.19a6.72,6.72,0,0,0-.47-9.41,6.36,6.36,0,0,0-3-1.53,7.69,7.69,0,0,1,1.42-.19C1189,417.66,1195.69,418.23,1195.69,423.37Zm-22.83-7.51a6.51,6.51,0,0,1,6.09,2.37,3.88,3.88,0,0,0,3.52,1.43,5.45,5.45,0,0,1,1.71,0,4.7,4.7,0,0,1,3.71,5.61,4.78,4.78,0,0,1-4.66,3.81h-9.51a6.62,6.62,0,0,1-6.66-6.66A6.82,6.82,0,0,1,1172.86,415.86Zm-9.7,11a6.57,6.57,0,0,1-1.61-5.23,6.75,6.75,0,0,1,5.61-5.8,3,3,0,0,1,1.33,0,8.38,8.38,0,0,0-1.33,11.89,10,10,0,0,0,1.42,1.42h-.38a7,7,0,0,1-5-2.28Zm-5.51,6V431H1209v1.9Z"/><path class="cls-44" d="M1173.82,427.17h5.7a.95.95,0,0,0,0-1.9h-5.7a2.8,2.8,0,0,1-2.86-2.85V422a2.92,2.92,0,0,1,2.38-2.47,2.66,2.66,0,0,1,2.66,1,7.42,7.42,0,0,0,7.14,2.76h.38a1,1,0,0,1,.76.76v.1a.9.9,0,0,1-1,.95,1,1,0,1,0,0,1.9,2.81,2.81,0,0,0,2.85-2.85v-.38a3,3,0,0,0-2.28-2.48,2.08,2.08,0,0,0-1.05,0,5.7,5.7,0,0,1-5.33-2.09,4.72,4.72,0,0,0-8.36,2.38v.57A4.62,4.62,0,0,0,1173.82,427.17Z"/><circle class="cls-44" cx="1173.82" cy="422.42" r="0.95"/><path class="cls-44" d="M1179.52,436.69h-19a.9.9,0,0,0-1,.95v7.6a1,1,0,1,0,1.9,0v-6.65h17.12v6.65a1,1,0,1,0,1.9,0v-7.6A1,1,0,0,0,1179.52,436.69Z"/><path class="cls-44" d="M1206.15,436.69h-19a.9.9,0,0,0-1,.95v7.6a1,1,0,1,0,1.9,0v-6.65h17.12v6.65a1,1,0,1,0,1.9,0v-7.6A1,1,0,0,0,1206.15,436.69Z"/><path class="cls-45" d="M345.2,130.82A2,2,0,0,0,347,133l39.4.1-11.5,13.7a2.55,2.55,0,0,0,0,3.1,1.64,1.64,0,0,0,2.6,0l14.7-17.4h0c.1-.1.2-.2.2-.3s.1-.1.1-.2.1-.1.1-.2,0-.1.1-.2v-1.3c0-.1,0-.2-.1-.2s-.1-.1-.1-.2,0-.1-.1-.2-.1-.2-.2-.3h0l-14.5-17.5a1.59,1.59,0,0,0-2.6,0,2.55,2.55,0,0,0,0,3.1l11.4,13.7-39.4-.1A2.11,2.11,0,0,0,345.2,130.82Z"/><path class="cls-44" d="M134.6,154.22a13.57,13.57,0,0,1-11.5,5.1,14.12,14.12,0,0,1-13.3-14.4v-15.6a1,1,0,0,0-2,0v15.6a16.55,16.55,0,0,0,8.3,14.4H98.9a14.23,14.23,0,0,1-13.1-14.4v-16.1a1,1,0,0,0-2,0v16.1a16.38,16.38,0,0,0,14.6,16.4c.1,0,.2.1.4.1h25a16,16,0,0,0,12.4-5.9,1,1,0,0,0-.1-1.4,1.09,1.09,0,0,0-1.5.1Z"/><path class="cls-44" d="M132.9,132.22a7.4,7.4,0,0,1-3.1-6.1V126a11,11,0,0,0-8-10.2v-3a28.62,28.62,0,0,1,1.9-10,1,1,0,0,0-.6-1.3c-.1,0-.2-.1-.4-.1h-6a.87.87,0,0,0-.9.6,28.46,28.46,0,0,0-2.1,10.8v2.6h-3v-2.6a28.62,28.62,0,0,1,1.9-10,1,1,0,0,0-.6-1.3c-.1,0-.2-.1-.4-.1h-6a.87.87,0,0,0-.9.6,28.46,28.46,0,0,0-2.1,10.8,1,1,0,0,0,2,0,27.42,27.42,0,0,1,1.7-9.4h3.9a29.92,29.92,0,0,0-1.6,9.4v2.6h-9v-2.6a28.62,28.62,0,0,1,1.9-10,1,1,0,0,0-.6-1.3c-.1,0-.2-.1-.4-.1h-6a.87.87,0,0,0-.9.6,28.46,28.46,0,0,0-2.1,10.8v3a10.92,10.92,0,0,0-7.9,9.5,1,1,0,0,0,.9,1.1h.1a1.06,1.06,0,0,0,1-.9,8.87,8.87,0,0,1,8.1-8c.1,0,.2,0,.2-.1h18.4a10.85,10.85,0,0,0-4.6,7.9,1,1,0,0,0,2,.2h0a9,9,0,0,1,9.4-8.1,9.26,9.26,0,0,1,8.6,8.7v.1a9.57,9.57,0,0,0,4,7.7,13.62,13.62,0,0,1,6,11.5,13.88,13.88,0,0,1-1.2,5.7,1,1,0,0,0,.5,1.3.6.6,0,0,0,.4.1.87.87,0,0,0,.9-.6,15.8,15.8,0,0,0,1.4-6.5A15.49,15.49,0,0,0,132.9,132.22Zm-17.1-19.4a27.42,27.42,0,0,1,1.7-9.4h3.9a29.92,29.92,0,0,0-1.6,9.4v2.7h-4v-2.7Zm-22,2.6v-2.6a27.42,27.42,0,0,1,1.7-9.4h3.9a29.92,29.92,0,0,0-1.6,9.4v2.6Z"/><path class="cls-44" d="M113.9,122.12a1.49,1.49,0,0,0-.9.4,8.2,8.2,0,0,0-1.2,3.2v6.8a1.2,1.2,0,0,0,.7,1l.6.2a8.37,8.37,0,0,1,5.5,10.4,6.63,6.63,0,0,1-.9,1.9l-3.4,5.5a.9.9,0,0,0,.1,1.1,11.61,11.61,0,0,0,8.9,4.8h.6a10.72,10.72,0,0,0,3.9-.7,1,1,0,0,0,.6-1.3.76.76,0,0,0-.2-.4l-1.5-1.5a8.25,8.25,0,0,1,5.7-14.1,1,1,0,0,0,0-2,10.29,10.29,0,0,0-10.1,10.5,10.42,10.42,0,0,0,3,7.1l.3.3a9.62,9.62,0,0,1-9.1-3.4l3-4.9a10.35,10.35,0,0,0-3.3-14.2,9.43,9.43,0,0,0-2.3-1V126c0-.2.1-.4.1-.6l1.1,2a10.47,10.47,0,0,0,9,5.3,5.7,5.7,0,0,0,1.3-.1,13.25,13.25,0,0,0,2.9,3.8,1,1,0,1,0,1.3-1.5,11,11,0,0,1-2.7-3.8,1.08,1.08,0,0,0-1.1-.6,8.26,8.26,0,0,1-9-4.1l-2.1-3.7A.94.94,0,0,0,113.9,122.12Z"/><path class="cls-44" d="M124.1,128.52a3.4,3.4,0,0,0,1-.1,1,1,0,0,0,.8-1.1c0-.4-.1-.8-.1-1.2a7.21,7.21,0,0,0-6.6-6.8,9.86,9.86,0,0,0-2.4.3,1.09,1.09,0,0,0-.7,1.2c0,.1.1.1.1.2l2.3,4.2A6.39,6.39,0,0,0,124.1,128.52Zm-5-7.1a5,5,0,0,1,4.7,4.8v.3a4.22,4.22,0,0,1-3.5-2.2l-1.7-2.9Z"/><path class="cls-44" d="M130.9,153.92a1,1,0,0,0,1.4,0,11.75,11.75,0,0,0,3-11.8,1,1,0,0,0-1-.7h-1.9a6.27,6.27,0,0,0-6.3,6.3,6.71,6.71,0,0,0,1.8,4.5,1,1,0,0,0,1.4-1.4,4.29,4.29,0,0,1,0-6.1,4.39,4.39,0,0,1,3.1-1.3h1.1a13.55,13.55,0,0,1,.2,2,9.9,9.9,0,0,1-2.9,7.1A1.08,1.08,0,0,0,130.9,153.92Z"/><path class="cls-44" d="M111.8,141a1,1,0,0,0,2,0v-2.3a4.36,4.36,0,0,1,.5,5.2l-2,3.3a1,1,0,0,0,1.7,1.1h0l2-3.3a6.39,6.39,0,0,0-2-8.7c-.2-.1-.5-.3-.7-.4a1,1,0,0,0-1.3.5.6.6,0,0,0-.1.4V141Z"/><path class="cls-44" d="M101.8,124.42a.94.94,0,0,0-1,1V145a16.85,16.85,0,0,0,4.2,11.1,1,1,0,0,0,1.5-1.3,14.75,14.75,0,0,1-3.7-9.8v-19.6A.94.94,0,0,0,101.8,124.42Z"/><path class="cls-44" d="M92.8,124.42a.94.94,0,0,0-1,1V145a16.85,16.85,0,0,0,4.2,11.1,1,1,0,0,0,1.5-1.3,14.75,14.75,0,0,1-3.7-9.8v-19.6A.94.94,0,0,0,92.8,124.42Z"/><path class="cls-44" d="M233.3,157.52l-2.5-1.4a13,13,0,0,0-2.2-15.3h0l-3.5-3.5a1,1,0,1,0-1.4,1.4l3.1,3.1a23,23,0,0,1-1.7,3.9l-4.5-4.5a17.67,17.67,0,0,0,1.5-6.5,1.14,1.14,0,0,0-.3-.8l-3.8-3.8h0c-.8-.8-2.3-1.5-5.1-.6a1.15,1.15,0,0,0-.7,1.3c.1.6.7.8,1.3.7h0c1.4-.4,2.5-.4,3.1.1h0c1,1,.2,4.1-2.3,7.5a.94.94,0,0,0-1.1-.2,1.1,1.1,0,0,1-.8,0,.78.78,0,0,1-.4-.4,2.75,2.75,0,0,0-.5-3.1c-1.2-1.2-3.4-.9-4.9.7s-1.9,3.8-.7,4.9a2.64,2.64,0,0,0,1.9.7,1.7,1.7,0,0,0,.7-.1,4.52,4.52,0,0,0,2.4-1.4.1.1,0,0,1,.1-.1,2.64,2.64,0,0,0,1.9.7c-.4.4-.7.8-1.1,1.2a20.85,20.85,0,0,1-6.7,4.7,6.64,6.64,0,0,1-2,.6,6.08,6.08,0,0,1,2.7-2.3,1,1,0,0,0-.7-1.9h0a7.83,7.83,0,0,0-4,3.6c-.5-.7-.4-2.1.3-3.7a22.53,22.53,0,0,1,4.7-6.7,27.18,27.18,0,0,1,4.2-3.4,1,1,0,0,0-1.1-1.7,26.87,26.87,0,0,0-4.5,3.7,24.16,24.16,0,0,0-5.2,7.4c-1.1,2.7-1,4.8.2,6.1L210.3,159h0a13,13,0,0,0,15.3,2.2l1.4,2.5a1.11,1.11,0,0,0,1.4.4c.1,0,.1-.1.2-.2l5-5a1,1,0,0,0,0-1.4c-.2.1-.3,0-.3,0Zm-25.4-17.8a.88.88,0,0,1-.7-.1c-.3-.3-.2-1.3.7-2.1s1.8-1,2.1-.7.2,1.3-.7,2.1A2.85,2.85,0,0,1,207.9,139.72Zm20.3,3.7a11.28,11.28,0,0,1,1.9,8.4,6.33,6.33,0,0,0-1.6-2.6l-2.1-2.1A25.28,25.28,0,0,0,228.2,143.42ZM220,135a18,18,0,0,1-1,4.6l-1.7-1.7a12.7,12.7,0,0,0,1.5-4.1Zm-7,8.5a28,28,0,0,0,3.2-3.8l1.9,1.9a16.77,16.77,0,0,1-7.1,7.1l-1.9-1.9a30.92,30.92,0,0,0,3.9-3.3Zm-7.4,5.2a15.11,15.11,0,0,0,1.8-.9l1.7,1.7a14.58,14.58,0,0,1-4.6,1l-1.2-1.2A6,6,0,0,0,205.6,148.72Zm.6,3.6a22.13,22.13,0,0,0,5-1.5h0a18.2,18.2,0,0,0,8.3-7.7l4.4,4.4a23.71,23.71,0,0,1-3.2,3.9c-.5.5-1.1,1-1.6,1.5a1,1,0,0,0,1.3,1.5,12.88,12.88,0,0,0,1.7-1.6,23.71,23.71,0,0,0,3.2-3.9l1.8,1.8a5,5,0,0,1-7.1,7.1h0l-5.8-5.8a1,1,0,0,0-1.4,1.4h0l2.2,2.2a22,22,0,0,1-3.9,1.7Zm6.7,6.5a25.28,25.28,0,0,0,3.7-1.8l2.1,2.1a6.33,6.33,0,0,0,2.6,1.6A11.28,11.28,0,0,1,212.9,158.82Zm15.1,2.9-.8-1.5a11.85,11.85,0,0,0,2.5-2.5l1.5.8Z"/><path class="cls-44" d="M214.4,135.12a1,1,0,1,0-1.4,0,1.2,1.2,0,0,0,1.4,0Z"/><path class="cls-44" d="M201.3,128a4.52,4.52,0,0,0-2.4,1.4c-1.6,1.6-1.9,3.8-.7,5a2.57,2.57,0,0,0,1.8.7,5,5,0,0,0,3.1-1.4,24.16,24.16,0,0,0,5.2-7.4c1.1-2.7,1-4.8-.2-6.1l-10.6-10.6h0a13,13,0,0,0-14.6-2.5l-1.1-2.1a1,1,0,0,0-1.1-.5l-5,1a1.14,1.14,0,0,0-.8.7l-1,4a1,1,0,0,0,.5,1.1l2.5,1.4a13,13,0,0,0,2.2,15.3h0l.1.1h0l1.6,1.6a1,1,0,0,0,1.4-1.4l-1.2-1.2a23,23,0,0,1,1.7-3.9l4.5,4.5a22.26,22.26,0,0,0-1.3,4.4l-.9-.9a1,1,0,0,0-1.4,1.4h0l6.1,6.1a3.78,3.78,0,0,0,2.7,1,11.32,11.32,0,0,0,5.1-1.6,1,1,0,0,0-1-1.8h0c-2.4,1.3-4.4,1.7-5.3,1.1a7.83,7.83,0,0,0,3.6-4,1,1,0,0,0-1.9-.7h0a5.05,5.05,0,0,1-2.3,2.7c.3-2.1,2.1-5.5,5.4-8.8l.1-.1-.7-.7-.8-.6a28,28,0,0,0-3.2,3.8l-1.9-1.9a16.77,16.77,0,0,1,7.1-7.1l1.9,1.9c-.2.1-.4.3-.6.4a1,1,0,1,0,1.2,1.6h0c3.7-2.7,6.7-3.3,7.6-2.4.6.6.5,2.1-.2,3.9a20.8,20.8,0,0,1-2.2,3.8c-.1-.2-.3-.4-.4-.6A3.11,3.11,0,0,0,201.3,128Zm0-11.7a22.26,22.26,0,0,0-4.4,1.3l-4.5-4.5a22,22,0,0,1,3.9-1.7Zm-6.6-6.4a25.28,25.28,0,0,0-3.7,1.8l-2.1-2.1a6.33,6.33,0,0,0-2.6-1.6A11.28,11.28,0,0,1,194.7,109.92Zm-18.8,0,.7-2.7,3.6-.7.8,1.5a15.58,15.58,0,0,0-2,1.6,17.41,17.41,0,0,0-1.2,1.4Zm3.4,15.3a11.13,11.13,0,0,1-1.9-8.3,6.33,6.33,0,0,0,1.6,2.6l2.1,2.1A24.19,24.19,0,0,0,179.3,125.22Zm9.4,9.7-1.2-1.2a18,18,0,0,1,1-4.6l1.7,1.7a13.35,13.35,0,0,0-1.5,4.1Zm2.3-13.3a19,19,0,0,0-3,4l-4.4-4.4a23.71,23.71,0,0,1,3.2-3.9,17.38,17.38,0,0,1,1.5-1.3,1,1,0,1,0-1.3-1.5c-.5.5-1.1,1-1.6,1.5a23.71,23.71,0,0,0-3.2,3.9l-1.7-1.8a5,5,0,0,1,7-7.2l.1.1,7.6,7.6a16,16,0,0,0-4.2,3Zm9.2-.8-1.7-1.7a14.58,14.58,0,0,1,4.6-1l1.1,1.1a17.6,17.6,0,0,0-4,1.6Zm1.5,11.4c-.9.9-1.8,1-2.1.7s-.2-1.3.7-2.1a2.85,2.85,0,0,1,1.4-.8h.3c.2,0,.3,0,.4.1.3.3.1,1.3-.7,2.1Z"/><path class="cls-44" d="M195.3,128.72a1,1,0,1,0,1.4,0h0A1,1,0,0,0,195.3,128.72Z"/><path class="cls-44" d="M203.8,125.92a1,1,0,1,0-1.4,0h0A1.2,1.2,0,0,0,203.8,125.92Z"/><circle class="cls-44" cx="1080.1" cy="407.96" r="0.95"/><circle class="cls-44" cx="1087.7" cy="407.96" r="0.95"/><path class="cls-44" d="M1096.26,438.39a.9.9,0,0,0-1,.95v4.76a1,1,0,0,0,1.91,0v-4.76A1,1,0,0,0,1096.26,438.39Z"/><path class="cls-44" d="M1090.56,435.54h-13.32a.9.9,0,0,0-1,.95v7.61a1,1,0,1,0,1.9,0v-6.66h11.42v6.66a1,1,0,1,0,1.9,0v-7.61A1,1,0,0,0,1090.56,435.54Z"/><path class="cls-44" d="M1095.31,418.42h-5.7v-1.24a4.56,4.56,0,0,0,.66-.66h1.24a.9.9,0,0,0,1-.95,4.68,4.68,0,0,0-.48-2,8.74,8.74,0,0,0,.48-2.76v-.95h1a2.8,2.8,0,0,0,2.85-2.85V405.1a2.84,2.84,0,0,0-2.09-2.75,2.87,2.87,0,0,0-1.52-3.71,3.87,3.87,0,0,0-1.05-.19h-14.26v-.95a4.71,4.71,0,0,1,4.75-4.76h3.81a4.73,4.73,0,0,1,4.47,3.14,1,1,0,1,0,1.8-.67v-.09a6.66,6.66,0,0,0-6.27-4.47h-3.81a6.61,6.61,0,0,0-6.65,6.66v1.14a2.71,2.71,0,0,0-1.72,3.61c0,.1,0,.1.1.1a2.84,2.84,0,0,0-2.09,2.75v1.91a2.8,2.8,0,0,0,2.85,2.85h1v.95a8.74,8.74,0,0,0,.48,2.76,5,5,0,0,0-.48,2,.9.9,0,0,0,1,.95h1.24a4.56,4.56,0,0,0,.66.66v1.24h-5.7a8.52,8.52,0,0,0-8.56,8.56,1,1,0,1,0,1.9,0,6.62,6.62,0,0,1,6.66-6.66h1.9v7.61h-.95a.9.9,0,0,0-1,.95,23.7,23.7,0,0,1-1.71,8.85l-.29.47c0,.1-.09.19-.09.38v5.71a1,1,0,1,0,1.9,0v-5.52l.09-.19a24.34,24.34,0,0,0,1.81-8.56h19a26.57,26.57,0,0,0,.95,6.09.94.94,0,0,0,1.81-.48,24.87,24.87,0,0,1-1-6.56.9.9,0,0,0-1-.95h-1v-4.76a1,1,0,0,0-1.91,0v4.76h-1.9v-7.61h5.71a6.62,6.62,0,0,1,6.66,6.66V444.1a.95.95,0,1,0,1.9,0V427A8.39,8.39,0,0,0,1095.31,418.42Zm-18.07-7.61v-6.66h13.32v6.66a3.37,3.37,0,0,1-.1.95,4.81,4.81,0,0,0-2.76-.95h-7.6a4.09,4.09,0,0,0-2.76.95A3.37,3.37,0,0,1,1077.24,410.81Zm10.46,3.81a2.78,2.78,0,0,1-2.66-1.91h2.66a2.77,2.77,0,0,1,2.67,1.91Zm-7.6-1.91h2.66a2.87,2.87,0,0,1-2.66,1.91h-2.67A2.77,2.77,0,0,1,1080.1,412.71Zm3.8,1.81a4.69,4.69,0,0,0,3.52,1.9,6.53,6.53,0,0,1-6.94,0A4.67,4.67,0,0,0,1083.9,414.52Zm10.46-7.51a.9.9,0,0,1-.95.95h-1v-3.81h1a.9.9,0,0,1,.95,1Zm-18.07-6.66h15.22a1,1,0,1,1,0,1.9h-15.22a.95.95,0,0,1,0-1.9Zm-1.9,7.61a.9.9,0,0,1-1-.95V405.1a.9.9,0,0,1,1-1h.95V408Zm9.51,11.41a8.44,8.44,0,0,0,3.8-.86v1.81a3.8,3.8,0,1,1-7.6,0v-1.81A8.57,8.57,0,0,0,1083.9,419.37Zm-7.61,8.56v-7.61h1.9v7.61Zm3.81,0V424.6a5.56,5.56,0,0,0,7.6,0v3.33Z"/><path class="cls-44" d="M1066.78,437.44h-1.23a5.24,5.24,0,0,0-.67-7.32,5.18,5.18,0,0,0-4.19-1.14h-.47l1.62-2.86a2.92,2.92,0,0,0-1-3.9h0l-.76-.38,3-4.09a3.2,3.2,0,1,0-5.14-3.8c-.09.09-.09.19-.19.28l-3.14,5.43h0l-4.75,8.27a6.66,6.66,0,0,0-.38,9.22l.28.29h-2a.9.9,0,0,0-1,.95v5.71a1,1,0,0,0,1.91,0v-4.76h17.12v4.76a1,1,0,1,0,1.9,0v-5.71A.83.83,0,0,0,1066.78,437.44Zm-6.56-12.36-1.43,2.56a8.88,8.88,0,0,0-1.61-1l1.9-3.33.85.48a1,1,0,0,1,.29,1.33Zm-.86-10a1.32,1.32,0,0,1,2.29,1.33l-.1.1-3.14,4.18-1.71-1Zm-3.61,6.28,1.62.95-2.19,3.71a5.5,5.5,0,0,0-1.81,0c-.19,0-.28.09-.47.09Zm5.33,16.07v-1.52l1.61-1.62a.94.94,0,1,0-1.33-1.33l-1.24,1.24-.28-.29a.94.94,0,0,0-1.33,1.33l.66.67v1.52h-4.75a4.76,4.76,0,1,1,0-9.51,5.09,5.09,0,0,1,3.71,1.71,3,3,0,0,0,2.85,1.14,3.26,3.26,0,0,1,3.8,2.76v.19a3.39,3.39,0,0,1-2.94,3.71h-.76Z"/><path class="cls-44" d="M1054.42,429.83a2.86,2.86,0,1,0,2.85,2.86A2.86,2.86,0,0,0,1054.42,429.83Zm0,3.81a1,1,0,1,1,.95-.95A1,1,0,0,1,1054.42,433.64Z"/><path class="cls-44" d="M789.3,430.88a1.05,1.05,0,0,0-.38,1.33,1,1,0,0,0,1.33.38,1,1,0,0,0,.38-1.33h0A1,1,0,0,0,789.3,430.88Z"/><path class="cls-44" d="M792.16,435.82a1,1,0,0,0,1,1.72,1.07,1.07,0,0,0,.38-1.34h0A1,1,0,0,0,792.16,435.82Z"/><circle class="cls-44" cx="795.49" cy="441.62" r="0.95"/><path class="cls-44" d="M770.28,405.77a2.86,2.86,0,1,0-2-3.52,2.88,2.88,0,0,0,.28,2.19A4,4,0,0,0,770.28,405.77Zm-.09-3a.93.93,0,1,1,1.8.47c-.09.29-.19.48-.47.57a1,1,0,0,1-.76.1.85.85,0,0,1-.57-1.14Z"/><path class="cls-44" d="M804.23,445.33l-7-12.17a1.06,1.06,0,0,0-1.33-.38,1,1,0,0,0-.38,1.33h0l6.56,11.32-8.28,4.75a1.84,1.84,0,0,1-2.56-.66,2,2,0,0,1,.66-2.57h0a1,1,0,0,0,.48-1.05,15.9,15.9,0,0,0-4-6.94,14.52,14.52,0,0,1-3.61-6.18c-.19-.67-.48-1.33-.67-1.9l6.66-4.95,2.95,5a1,1,0,1,0,1.71-1L792,424.13c0-.1,0-.1-.1-.19l-14.55-25.21A6.62,6.62,0,0,0,769,396l-6.18,2.67a.94.94,0,1,0,.76,1.71l6.18-2.66a4.76,4.76,0,0,1,6,2l14.17,24.54L771.23,438a104.91,104.91,0,0,1-18.92-32.81l4.28-1.9a109.44,109.44,0,0,0,16.83,30,1,1,0,1,0,1.52-1.15h0a105.72,105.72,0,0,1-16.64-29.57l1.62-.67a.85.85,0,0,0,.38-1.24.87.87,0,0,0-1.14-.47l-8.47,3.71a.87.87,0,0,0-.47,1.14,107.58,107.58,0,0,0,20.16,34.9.91.91,0,0,0,1.33.1l10.84-8.09c.19.48.29.86.48,1.34a15.88,15.88,0,0,0,4,6.94,16.83,16.83,0,0,1,3.42,5.51,3.8,3.8,0,0,0,4.47,6.09l9-5.23A.88.88,0,0,0,804.23,445.33Z"/><path class="cls-44" d="M136.12,425.37a.88.88,0,0,0,.93-.93v-3.73a6.48,6.48,0,0,0-6.52-6.52H87.66a6.48,6.48,0,0,0-6.52,6.52v3.73a.88.88,0,0,0,.93.93H85.8v2a4.69,4.69,0,0,0-3.73,4.56v1.87a4.7,4.7,0,0,0,2.8,4.28v2.24h-2.8a.88.88,0,0,0-.93.93v3.73a4.61,4.61,0,0,0,4.66,4.66h46.59a4.61,4.61,0,0,0,4.66-4.66v-3.73a.88.88,0,0,0-.93-.93h-2.8V438a4.7,4.7,0,0,0,2.8-4.28v-1.87a4.69,4.69,0,0,0-3.73-4.56v-2ZM83,420.71a4.61,4.61,0,0,1,4.66-4.66h42.87a4.61,4.61,0,0,1,4.65,4.66v2.8H83Zm39.14,6.52h-6.71a3.35,3.35,0,0,0,.19-.93v-.93h6.52Zm-27-1.86H97v2.8a.93.93,0,0,1-1.86,0Zm3.72,0H110v.93a3.33,3.33,0,0,0,.18.93H98.84Zm13,.93v-.93h1.86v.93a.88.88,0,0,1-.93.93A.93.93,0,0,1,111.89,426.3Zm12.11-.93h1.87v2.8a.94.94,0,0,1-1.87,0Zm-30.75,0v1.86H87.66v-1.86Zm41.93,19.57a2.74,2.74,0,0,1-2.79,2.79H85.8a2.74,2.74,0,0,1-2.8-2.79v-2.8h6.15l4.38,3.54a1.29,1.29,0,0,0,.56.19.34.34,0,0,0,.28-.09l9.79-3.54,4.28,3.35a.85.85,0,0,0,1.12,0l4.29-3.35,9.78,3.54c.09,0,.19.09.28.09a1.25,1.25,0,0,0,.56-.19l4.38-3.54H135v2.8Zm-43-2.8h7l-4.75,1.77Zm14.9,0h4l-2,1.59Zm12,0h7l-2.14,1.77Zm12.4-1.86H86.73v-1.86h44.73Zm0-3.73H86.73a2.74,2.74,0,0,1-2.79-2.79v-.93h2.79a7,7,0,0,1,3.36.83,9.17,9.17,0,0,0,4.19,1,8.17,8.17,0,0,0,4.19-1,7.29,7.29,0,0,1,3.36-.83,7.58,7.58,0,0,1,3.44.83,9.24,9.24,0,0,0,4.2,1,8.17,8.17,0,0,0,4.19-1,7.36,7.36,0,0,1,6.8,0,9.45,9.45,0,0,0,8.39,0,7.33,7.33,0,0,1,3.45-.83h1.86v.93A2.72,2.72,0,0,1,131.46,436.55Zm2.61-5.59h-1.68a8.17,8.17,0,0,0-4.19,1,7.32,7.32,0,0,1-6.81,0,9.43,9.43,0,0,0-8.38,0,7.27,7.27,0,0,1-3.45.84,7.54,7.54,0,0,1-3.45-.84,9.17,9.17,0,0,0-4.19-1,8.17,8.17,0,0,0-4.19,1,7.27,7.27,0,0,1-3.45.84,6.92,6.92,0,0,1-3.36-.84,9.17,9.17,0,0,0-4.19-1H84.12a2.71,2.71,0,0,1,2.61-1.86h6.71A2.67,2.67,0,0,0,97,430.78a2.74,2.74,0,0,0,1.68-1.68h23.67a2.67,2.67,0,0,0,3.54,1.68,2.73,2.73,0,0,0,1.67-1.68h3.92A2.72,2.72,0,0,1,134.07,431Zm-3.54-3.73h-2.8v-1.86h2.8Z"/><rect class="cls-44" x="91.39" y="419.78" width="1.86" height="1.86"/><rect class="cls-44" x="96.98" y="417.92" width="1.86" height="1.86"/><rect class="cls-44" x="86.73" y="418.85" width="1.86" height="1.86"/><rect class="cls-44" x="102.57" y="419.78" width="1.86" height="1.86"/><rect class="cls-44" x="124.93" y="419.78" width="1.86" height="1.86"/><rect class="cls-44" x="119.34" y="417.92" width="1.86" height="1.86"/><rect class="cls-44" x="129.59" y="418.85" width="1.86" height="1.86"/><rect class="cls-44" x="113.75" y="419.78" width="1.86" height="1.86"/><rect class="cls-44" x="108.16" y="417.92" width="1.86" height="1.86"/><rect class="cls-44" x="127.73" y="412.33" width="1.86" height="1.86"/><rect class="cls-44" x="106.11" y="412.68" width="1.86" height="1.86"/><rect class="cls-44" x="96.98" y="412.68" width="1.86" height="1.86"/><rect class="cls-44" x="116.45" y="412.33" width="1.86" height="1.86"/><rect class="cls-44" x="90.46" y="412.68" width="1.86" height="1.86"/><path class="cls-44" d="M888.59,420.7a22.86,22.86,0,0,1-31,1.33.95.95,0,0,0-1.24,1.43h0a24.11,24.11,0,0,0,6.18,3.8l-.47,7.9a21.82,21.82,0,0,0,.38,5.61,10.24,10.24,0,0,0,5.71,7.61v3.8a1,1,0,1,0,1.9,0V449h.09a9.4,9.4,0,0,0,2.29.29,10.11,10.11,0,0,0,2.37-.29v3.14a1,1,0,1,0,1.9,0v-3.8a10.07,10.07,0,0,0,5.62-7.33l.09-.28a22.4,22.4,0,0,0,.38-5.61l-.28-5.14a1,1,0,0,0-1.91.19l.29,5.14a24.18,24.18,0,0,1-.29,5.23l-.09.28a8.13,8.13,0,0,1-9.51,6.57c-.1,0-.29-.1-.38-.1a8.33,8.33,0,0,1-6.18-6.75,23.86,23.86,0,0,1-.29-5.23l.38-7.23.86.29.47,7.79a3,3,0,0,0,5.9,0l.38-6.75h1l.38,6.75a3,3,0,0,0,5.9,0l.47-7.79a24.79,24.79,0,0,0,10.37-6.28.92.92,0,0,0,0-1.33c-.67-.48-1.24-.48-1.62-.1ZM869.67,436a1,1,0,0,1-1.14.95,1,1,0,0,1-1-.95l-.38-7.22a28.87,28.87,0,0,0,2.86.47Zm7.61,0a1,1,0,0,1-1.15.95,1,1,0,0,1-1-.95l-.38-6.75a28.87,28.87,0,0,0,2.86-.47Z"/><path class="cls-44" d="M901,403.49l-1-4.76a1,1,0,0,0-1-.76l-5.33.86-3.52-2.57a1,1,0,0,0-1.33.19,1.42,1.42,0,0,0-.19.57v6.85a6,6,0,0,0-4.28,4.09A12.37,12.37,0,0,1,869,416.42a12.22,12.22,0,0,1-8.46-8.46,6.17,6.17,0,0,0-7.71-4.09,6.3,6.3,0,0,0-3,2.09l-3.9-2.76.67-3.23,4.75.76a1.13,1.13,0,0,0,.76-.19l2.29-1.71v2a1,1,0,1,0,1.9,0v-3.89a.9.9,0,0,0-1-1,1.42,1.42,0,0,0-.57.19l-3.52,2.57-5.33-.66a.94.94,0,0,0-1,.76l-1,4.75a.92.92,0,0,0,.38.95l4.57,3.24a6,6,0,0,0-.19,3.9,24.49,24.49,0,0,0,4.94,9.13.93.93,0,0,0,1.34.09.92.92,0,0,0,.09-1.33,24,24,0,0,1-4.56-8.37,4.27,4.27,0,0,1,8.17-2.47c.1.19.1.38.2.57l-2.76,1.62a2.85,2.85,0,1,0,2.85,4.94l2.76-1.62a7.6,7.6,0,0,0,1.23,1.24l-1.61,2.76a2.85,2.85,0,1,0,4.94,2.85l1.62-2.76c.57.19,1.14.29,1.62.48v3.14a2.85,2.85,0,0,0,5.7,0h0V418.8a8.52,8.52,0,0,0,1.62-.48l1.62,2.76a2.85,2.85,0,1,0,4.94-2.85h0l-1.61-2.76a14.44,14.44,0,0,0,1.23-1.24l2.76,1.62a2.85,2.85,0,1,0,2.85-4.94h0l-2.76-1.62c.1-.19.1-.38.2-.57a4.08,4.08,0,0,1,4.08-3,4.23,4.23,0,0,1,4.09,5.42,22.89,22.89,0,0,1-3.32,6.85.95.95,0,1,0,1.52,1.14,24.56,24.56,0,0,0,3.61-7.42,6.08,6.08,0,0,0-.19-3.9l4.57-3.23A1.35,1.35,0,0,0,901,403.49ZM858.06,414a1,1,0,0,1-1.33-.38h0a1,1,0,0,1,.38-1.33h0l2.48-1.42a8.53,8.53,0,0,0,.95,1.61Zm6.57,5.9a1,1,0,0,1-1.72-.95h0l1.43-2.47a15.15,15.15,0,0,0,1.62,1Zm8.75,1.81a1,1,0,0,1-1.91,0v-2.86h1.91Zm8.37-2.76a1,1,0,0,1-.39,1.33h0a1,1,0,0,1-1.33-.38h0l-1.42-2.47a9.1,9.1,0,0,0,1.61-1Zm6-6.56a1,1,0,0,1-1,1.71l-2.48-1.43a13.54,13.54,0,0,0,1-1.61Zm7.32-6.37a6.19,6.19,0,0,0-4.57-2.38v-4.76l2.29,1.71a1,1,0,0,0,.76.19l4.75-.76.67,3.24Z"/><path class="cls-44" d="M281.2,110.82a33.53,33.53,0,0,1-5.7,5.6l-.4.3a27.26,27.26,0,0,0-4.8,4.8l-.5.6a1,1,0,0,0,1.6,1.2l.5-.6a26.17,26.17,0,0,1,4.4-4.4l.4-.3a34.07,34.07,0,0,0,6-6,1,1,0,1,0-1.5-1.2Z"/><path class="cls-44" d="M276.7,127.92l-.5.6a1,1,0,0,0,1.5,1.3h0l.5-.6a22.92,22.92,0,0,1,4.4-4.4l.4-.3a34.07,34.07,0,0,0,6-6,1,1,0,0,0-1.6-1.2,38.4,38.4,0,0,1-5.7,5.7l-.4.3A25,25,0,0,0,276.7,127.92Z"/><path class="cls-44" d="M278.4,135.62h.3a5.21,5.21,0,0,0,3.5-1.8,30.76,30.76,0,0,1,5.1-5.1l.4-.3a31.81,31.81,0,0,0,5.5-5.5,2.83,2.83,0,0,1,3.9-.5c.1.1.2.1.3.2l1.6,1.6.7,1a1,1,0,0,0,.7.4,1.14,1.14,0,0,0,.8-.3l2.3-2.3a2.9,2.9,0,0,0,0-4.2h0a3.08,3.08,0,0,0-4.2,0l-1.5,1.5a4,4,0,0,0-2.6-.6.76.76,0,0,0-.4.1,6.73,6.73,0,0,0-.1-2l1.9-1.9a2.9,2.9,0,0,0,0-4.2h0a3.08,3.08,0,0,0-4.2,0l-1.6,1.6a4.67,4.67,0,0,0-6.1,1.2c-.9,1.1-1.9,2.2-2.9,3.2a1,1,0,0,0,1.4,1.4h0a32.83,32.83,0,0,0,3.1-3.4,2.83,2.83,0,0,1,3.9-.5c.1.1.2.1.2.2h0l1.7,1.7a2.18,2.18,0,0,1,.5.8v.1a2.82,2.82,0,0,1-.3,2.8h0l-.3.4h0c-.1.1-.2.1-.2.2a30.76,30.76,0,0,1-5.1,5.1l-.4.3a28.65,28.65,0,0,0-5.5,5.5,2.83,2.83,0,0,1-3.9.5c-.1-.1-.2-.1-.3-.2l-1.7-1.7h0a2.76,2.76,0,0,1-.2-3.7l.6-.7a30.76,30.76,0,0,1,5.1-5.1,1,1,0,1,0-1.2-1.6h0a28.65,28.65,0,0,0-5.5,5.5l-.6.7a8.79,8.79,0,0,0-.6,1,2.86,2.86,0,0,1-2.3-.8l-1.7-1.7h0a2.76,2.76,0,0,1-.2-3.7l.6-.7A30.76,30.76,0,0,1,274,115l.4-.3a28.65,28.65,0,0,0,5.5-5.5,2.83,2.83,0,0,1,3.9-.5c.1.1.2.1.3.2h0l1,1a1,1,0,0,0,1.4-1.4l-.5-.5,1.4-1.4a1,1,0,1,1,1.4,1.4l-1.2,1.2a1,1,0,0,0,1.4,1.4h0l1.2-1.2a2.9,2.9,0,0,0,0-4.2,3.08,3.08,0,0,0-4.2,0l-1.6,1.5a4.65,4.65,0,0,0-6.1,1.2,30.76,30.76,0,0,1-5.1,5.1l-.4.3a31.81,31.81,0,0,0-5.5,5.5l-.6.7a4.71,4.71,0,0,0-.4,5.2l-1.6,1.6a3,3,0,0,0,4,4.4l.2-.2,1.8-1.8a5.07,5.07,0,0,0,1.3.2,4.28,4.28,0,0,0,.6,2.2l-1.6,1.6a2.9,2.9,0,0,0,0,4.2,3,3,0,0,0,4.2,0l1.8-1.8A2.18,2.18,0,0,0,278.4,135.62Zm22.3-15.4a1,1,0,0,1,1.4,1.4h0l-1.4,1.4-.1-.1-.1-.1-1.2-1.2Zm-5.6-7a1,1,0,0,1,0,1.4h0l-1.4,1.4c-.1-.1-.1-.2-.2-.3l-1.2-1.2,1.4-1.4A1.08,1.08,0,0,1,295.1,113.22Zm-27.6,16.2a1,1,0,0,1-1.4-1.4h0l1.4-1.4,1.2,1.2.2.2Zm6.3,6.4a1,1,0,0,1-1.4-1.4h0l1.4-1.4,1.2,1.2.2.2Z"/><path class="cls-44" d="M294.7,124.22a33.53,33.53,0,0,1-5.7,5.6l-.4.3a27.26,27.26,0,0,0-4.8,4.8l-.5.6a1,1,0,0,0,.2,1.4,1,1,0,0,0,1.4-.2l.5-.6a26.17,26.17,0,0,1,4.4-4.4l.4-.3a34.07,34.07,0,0,0,6-6,1,1,0,0,0-.1-1.4,1.08,1.08,0,0,0-1.4.2Z"/><path class="cls-44" d="M296.8,138.82l.4-.3a34.3,34.3,0,0,0,6.4-5.6,1,1,0,0,0-1.4-1.4l-.1.1a30.51,30.51,0,0,1-6.1,5.2l-.4.3a31,31,0,0,0-5.1,4.4l-.5.6a1,1,0,1,0,1.5,1.3h0l.5-.6A36.37,36.37,0,0,1,296.8,138.82Z"/><path class="cls-44" d="M308.6,139.92a33.65,33.65,0,0,1-6.5,4.7l-.4.2a27,27,0,0,0-5.4,4l-.5.5a1,1,0,0,0,1.4,1.4h0l.5-.5a23.79,23.79,0,0,1,5.1-3.7l.4-.2a38,38,0,0,0,6.9-5,1,1,0,0,0,0-1.4A1.2,1.2,0,0,0,308.6,139.92Z"/><path class="cls-44" d="M323.5,147a3.13,3.13,0,0,0-2.7-1.7,2.77,2.77,0,0,0-1.3.3l-2,1a4.75,4.75,0,0,0-6.2-.8,24.19,24.19,0,0,1-3.9,2.1,1,1,0,0,0,.8,1.8h0a43.59,43.59,0,0,0,4.2-2.3,2.73,2.73,0,0,1,3.8.8c.1.1.1.2.2.3l1,2.1a2.68,2.68,0,0,1-1,3.5l-.8.5a30.22,30.22,0,0,1-6.5,3.2l-.5.2a30.22,30.22,0,0,0-7,3.4,2.73,2.73,0,0,1-3.8-.8c-.1-.1-.1-.2-.2-.3l-1-2.1a2.68,2.68,0,0,1,1-3.5l.8-.5a30.22,30.22,0,0,1,6.5-3.2,1,1,0,0,0,.6-1.3.93.93,0,0,0-1.3-.6h0a30.22,30.22,0,0,0-7,3.4l-.8.5a4.74,4.74,0,0,0-1,1l-.3-.3-1.4-1.9a2.89,2.89,0,0,1,.3-3.7l.7-.7a27.89,27.89,0,0,1,5.9-4.3l.4-.2a28.53,28.53,0,0,0,6.2-4.6,3,3,0,0,1,2.2-.8,3.09,3.09,0,0,1,2,1.1l1.4,1.9a2.38,2.38,0,0,1,.5,1.8,1.09,1.09,0,0,0,.9,1.1,1.17,1.17,0,0,0,1.1-.9h0v-.9l2.1-1.5a3,3,0,0,0,.6-4.2,3,3,0,0,0-4.2-.6l-1.8,1.3a4.36,4.36,0,0,0-3.3-1,4.54,4.54,0,0,0,.3-2.8l2-1.7a3,3,0,1,0-3.9-4.5l-1.7,1.4a5,5,0,0,0-2.6-.8h0a5,5,0,0,0-3.6,1.6,31.58,31.58,0,0,1-5.5,4.8l-.4.3a36,36,0,0,0-5.9,5.1l-.6.7-.6.9a2.82,2.82,0,0,1-2.8-.6l-1.7-1.7-.2-.2a1,1,0,0,0-1.4,0l-2.1,2.1a3,3,0,0,0,2.1,5.1,2.72,2.72,0,0,0,2.1-.9l1.8-1.8a4.4,4.4,0,0,0,1.6.2,5.7,5.7,0,0,0,.4,2.2l-1.7,1.4a3,3,0,0,0,2,5.2,3.72,3.72,0,0,0,2-.7l2-1.7a2.92,2.92,0,0,0,.9.2,4.3,4.3,0,0,0,.2,2.5l-1.8,1.3a3.12,3.12,0,0,0-.7,4.2h0a3,3,0,0,0,4.2.6h0l1-.8a1.7,1.7,0,0,0,.1.7l-2,1a3.09,3.09,0,0,0-1.5,1.7,3.06,3.06,0,0,0,.1,2.3,3.13,3.13,0,0,0,2.7,1.7,2.77,2.77,0,0,0,1.3-.3l2.3-1.1a4.66,4.66,0,0,0,5.4.1,30.22,30.22,0,0,1,6.5-3.2l.5-.2a30.22,30.22,0,0,0,7-3.4l.8-.5a4.36,4.36,0,0,0,2.1-3.7l2.4-1.2a3,3,0,0,0,1.7-4.1Zm-8.3-10.1a1,1,0,0,1,1.2,1.6l-1.6,1.2c-.1-.1-.1-.2-.2-.3l-1-1.3Zm-34.3,6a1,1,0,0,1-1.4-1.4h0l1.4-1.4,1.2,1.2.2.2ZM308.5,128a1,1,0,0,1,1.3,1.5l-1.5,1.3c-.1-.1-.1-.2-.2-.3l-1.1-1.3Zm-21.3,21.3a1.07,1.07,0,0,1-1.4-.1,1,1,0,0,1,.1-1.4h0l1.5-1.3,1.1,1.3.2.2Zm2.8-2.9-1.6-1.8a2.87,2.87,0,0,1,0-3.7l.6-.7a31.58,31.58,0,0,1,5.5-4.8l.4-.3a36,36,0,0,0,5.9-5.1,2.72,2.72,0,0,1,2.1-.9,2.81,2.81,0,0,1,2.1,1l1.6,1.8a2.87,2.87,0,0,1,0,3.7l-.6.7a28.51,28.51,0,0,1-4.9,4.3l-.9.6-.4.2a28.53,28.53,0,0,0-6.2,4.6l-.7.7a4.35,4.35,0,0,0-.6.7,3.26,3.26,0,0,1-2.3-1Zm2.2,9.9a1.06,1.06,0,0,1-1.4-.2,1.08,1.08,0,0,1,.2-1.4h0l1.6-1.2,1,1.4.2.2Zm2,6.1a1,1,0,0,1-1.3-.5,1.1,1.1,0,0,1,0-.8,1,1,0,0,1,.5-.6l1.8-.9.8,1.5a.35.35,0,0,0,.1.2Zm27.5-13.7a1,1,0,0,1-.5.6l-1.8.9c0-.1-.1-.2-.1-.3l-.7-1.5,1.8-.9a1,1,0,0,1,1.3.5A.82.82,0,0,1,321.7,148.72Z"/><path class="cls-44" d="M299.5,155.92l-.6.4A1,1,0,1,0,300,158h.1l.6-.4a29.3,29.3,0,0,1,5.6-2.8l.5-.2a33.46,33.46,0,0,0,7.6-3.7,1,1,0,0,0-1.1-1.7h0a39.87,39.87,0,0,1-7.2,3.5l-.5.2A24.69,24.69,0,0,0,299.5,155.92Z"/><path class="cls-44" d="M470.1,151.92a15,15,0,0,1-21,3,10.7,10.7,0,0,1-1.6-1.4,22.37,22.37,0,0,1-6-13.1,11.22,11.22,0,0,0-6.8-9.6l-2.6-2.6a2.16,2.16,0,0,1-.2-2.9,2,2,0,0,1,2.8-.2.1.1,0,0,1,.1.1,1,1,0,0,0,1.4-1.4A2,2,0,0,1,439,121a1,1,0,0,0,1.4-1.4,1.93,1.93,0,0,1,0-2.8l.1-.1a2.16,2.16,0,0,1,2.9.2,1,1,0,1,0,1.4-1.4h0a4.06,4.06,0,0,0-5.6-.3,3.92,3.92,0,0,0-.8,1l-6.6-6.6a5.86,5.86,0,0,0-.9-8.2,6,6,0,0,0-8.4.7,6,6,0,0,0-1.3,4.9,5.46,5.46,0,0,0-3.3,1.1,6.09,6.09,0,0,0-2.8,5.1,6,6,0,0,0,6.2,5.8,6.3,6.3,0,0,0,4.1-1.7l4.5,4.5a1,1,0,1,0,1.4-1.4l-5.3-5.3a1,1,0,0,0-1.4,0l-.1.1a4,4,0,0,1-7.4-2.1,4,4,0,0,1,1.9-3.4,3.73,3.73,0,0,1,3.4-.5,1,1,0,0,0,1.3-.6.78.78,0,0,0-.1-.8,3.91,3.91,0,0,1-.3-3,4.07,4.07,0,0,1,3.1-2.7,3.9,3.9,0,0,1,4.6,3.2,3.94,3.94,0,0,1-1.3,3.7,1.07,1.07,0,0,0-.1,1.4h0l8.1,8.1h0a4.06,4.06,0,0,0-3.1,1.2,3.78,3.78,0,0,0-1.2,2.8v.3H433a4.11,4.11,0,0,0-2.9,1.3,4.06,4.06,0,0,0,.3,5.6l2.6,2.6a2.09,2.09,0,0,0,.6.4,9.37,9.37,0,0,1,5.6,8,25.23,25.23,0,0,0,6.6,14.4,17,17,0,0,0,23.9.2,16.32,16.32,0,0,0,1.7-2,1.08,1.08,0,0,0-.2-1.4c-.2-.6-.8-.5-1.1,0Z"/><path class="cls-44" d="M470.1,130.82a24.33,24.33,0,0,0-14.4-6.6,9.37,9.37,0,0,1-8-5.6.92.92,0,0,0-1.3-.5c-.5.3-.8.8-.5,1.3a11.17,11.17,0,0,0,9.6,6.8,22.37,22.37,0,0,1,13.1,6,14.92,14.92,0,0,1,3.2,16.4,1,1,0,0,0,.5,1.3c.1,0,.3.1.4.1a.87.87,0,0,0,.9-.6A16.52,16.52,0,0,0,470.1,130.82Z"/><circle class="cls-44" cx="453.1" cy="148.92" r="1"/><circle class="cls-44" cx="449.1" cy="150.92" r="1"/><circle class="cls-44" cx="464.1" cy="152.92" r="1"/><circle class="cls-44" cx="462.1" cy="147.92" r="1"/><circle class="cls-44" cx="468.1" cy="144.92" r="1"/><circle class="cls-44" cx="453.1" cy="153.92" r="1"/><circle class="cls-44" cx="459.1" cy="150.92" r="1"/><circle class="cls-44" cx="468.1" cy="148.92" r="1"/><circle class="cls-44" cx="457.1" cy="147.92" r="1"/><circle class="cls-44" cx="451.1" cy="144.92" r="1"/><circle class="cls-44" cx="459.1" cy="154.92" r="1"/><circle class="cls-44" cx="447.1" cy="145.92" r="1"/><circle class="cls-44" cx="443.1" cy="133.92" r="1"/><circle class="cls-44" cx="445.1" cy="140.92" r="1"/><path class="cls-44" d="M1001.82,432l-1.9-3.8a1.1,1.1,0,0,0-.86-.58h-3.8v-1.9h1a2.79,2.79,0,0,0,2.85-2.85V421a.9.9,0,0,0-.95-.95H981.37a1,1,0,0,0,0,1.9h15.79v.95a.9.9,0,0,1-.95.95H950.56a.9.9,0,0,1-.95-.95v-.95h16.83a35.25,35.25,0,0,0,15.5-3.62l.38-.19a8.11,8.11,0,0,0,4.19-9.51h2.38a.9.9,0,0,0,.85-.66,1.88,1.88,0,0,1,2.38-1.14,1.9,1.9,0,0,1,.76,3,1,1,0,0,0,0,1.24,2,2,0,0,1,.48,1.23,1.91,1.91,0,0,1-1.91,1.9,1.93,1.93,0,0,1-1.8-1.23,1,1,0,0,0-1.81.66,3.7,3.7,0,0,0,4.85,2.29,3.9,3.9,0,0,0,2.57-3.62,4.28,4.28,0,0,0-.48-1.9,3.35,3.35,0,0,0,.48-1.9,3.82,3.82,0,0,0-3.81-3.81,4,4,0,0,0-3.33,1.91h-2.56a6.16,6.16,0,0,0-1.14-1.53h0a8.17,8.17,0,0,0-1.72-1.42,36.9,36.9,0,0,0-6.18-2.86h0a34.92,34.92,0,0,0-11.22-1.9h-3.23a.86.86,0,0,0-.86,1.05.91.91,0,0,0,1,.85H963a9.58,9.58,0,0,1,8.37,4.95l-1.72,1.62a4.8,4.8,0,0,0-.95,5.8.93.93,0,0,0,1.33.28,1,1,0,0,0,.38-1.23,2.91,2.91,0,0,1,.58-3.52l1.14-1.14a9.34,9.34,0,0,1-3.62,10.36l-3-2.47a8.58,8.58,0,0,0-9.23-1l-1.42.66c-.1-.09-.1-.19-.19-.28l2.18-4a7.44,7.44,0,0,0-.28-7.7,9.75,9.75,0,0,1,2.28-1.52.94.94,0,0,0-.76-1.72,11.34,11.34,0,0,0-5.32,15.22,11.54,11.54,0,0,0,4,4.57h-8a.9.9,0,0,0-1,.95v1.9a2.8,2.8,0,0,0,2.85,2.85h1v1.9h-3.8a.92.92,0,0,0-.86.57l-1.9,3.81a.58.58,0,0,0-.09.38v11.41a.9.9,0,0,0,.95.95h28.53a.95.95,0,1,0,0-1.9H946.85V432.21l1.52-3h50.22l1.52,3v10.27H978.23a1,1,0,0,0,0,1.9h22.83a.9.9,0,0,0,1-.95V432C1001.91,432.3,1001.91,432.11,1001.82,432Zm-19.31-26a15.8,15.8,0,0,1-4,4.37,18.63,18.63,0,0,0-.67-6.85c1.33.57,2.67,1.24,3.9,1.91A5.56,5.56,0,0,0,982.51,406.06Zm-8.18,4.47a11.49,11.49,0,0,0-4.66-9.23,40.47,40.47,0,0,1,5.81,1.33,14.32,14.32,0,0,1,.76,9.51,1,1,0,0,0,.66,1.14,1,1,0,0,0,.76-.09l1.52-1.05a15.87,15.87,0,0,0,4.47-4.66,6.16,6.16,0,0,1-1.8,8.56,3.4,3.4,0,0,1-.67.38l-.38.19a32.5,32.5,0,0,1-11.6,3.33A11.18,11.18,0,0,0,974.33,410.53ZM955.22,405a5.6,5.6,0,0,1-.1,5.33l-1.42,2.56A9.39,9.39,0,0,1,955.22,405Zm.76,12,1-.57a6.87,6.87,0,0,1,7.22.76l2.48,2A9.3,9.3,0,0,1,956,417Zm33.57,8.75v1.9H957.22v-1.9Zm-36.14,1.9v-1.9h1.9v1.9Zm38,0v-1.9h1.91v1.9Z"/><path class="cls-44" d="M974.33,431.45h-5.7a1,1,0,1,0,0,1.9h4.75v5.71H951.51v-5.71h13.31a1,1,0,0,0,0-1.9H950.56a.9.9,0,0,0-.95.95V440a.9.9,0,0,0,.95.95h23.77a.91.91,0,0,0,1-.95V432.4A1,1,0,0,0,974.33,431.45Z"/><path class="cls-44" d="M984.8,441a.9.9,0,0,0,1-.95V432.4a.9.9,0,0,0-1-.95H981a.9.9,0,0,0-1,.95V440a.9.9,0,0,0,1,.95Zm-1-1.9h-1.9v-1.91h1.9Zm-1.9-5.71h1.9v1.9h-1.9Z"/><path class="cls-44" d="M993.36,441a.9.9,0,0,0,.95-.95V432.4a.9.9,0,0,0-.95-.95h-3.81a.9.9,0,0,0-.95.95V440a.9.9,0,0,0,.95.95Zm-1-1.9h-1.9v-1.91h1.9Zm-1.9-5.71h1.9v1.9h-1.9Z"/><circle class="cls-44" cx="954.36" cy="436.2" r="0.95"/><circle class="cls-44" cx="958.17" cy="436.2" r="0.95"/><circle class="cls-44" cx="961.97" cy="436.2" r="0.95"/><circle class="cls-44" cx="969.58" cy="436.2" r="0.95"/><path class="cls-44" d="M962.92,410.53a3.81,3.81,0,1,0-3.8-3.81A3.83,3.83,0,0,0,962.92,410.53Zm0-5.71a1.9,1.9,0,1,1-1.9,1.9A1.91,1.91,0,0,1,962.92,404.82Z"/><path class="cls-44" d="M769,129.39a5.08,5.08,0,0,0-4-2.45c-3.14.19-5.2,4.8-5,7.25a4.76,4.76,0,0,0,1.76,3.43,5,5,0,0,0,2.75,1.18,4,4,0,0,0,1.08.1,5.35,5.35,0,0,0,3.72-1.57,5,5,0,0,0,1.47-3.53A10.92,10.92,0,0,0,769,129.39Zm-.79,7a3.74,3.74,0,0,1-2.25,1.08c-.1,0-.1-.1-.2-.1a10.42,10.42,0,0,1-.39-6.87.59.59,0,0,0-.39-.88h0a.6.6,0,0,0-.88.39h0a10.87,10.87,0,0,0-.49,4,13,13,0,0,0,.59,3.44,4.16,4.16,0,0,1-1.77-.79,3.35,3.35,0,0,1-1.27-2.45c-.1-2.16,1.66-5.69,3.72-5.78h.3a3.89,3.89,0,0,1,2.45,1.86A6.9,6.9,0,0,1,769,133.9h0a2.41,2.41,0,0,1-.79,2.45Zm-4.41-16.87a5.51,5.51,0,0,0,2.94,1.38,4.8,4.8,0,0,0,4.32-1.47h0a8.78,8.78,0,0,0,1.76-4.32c.3-2-.1-3.63-1.17-4.51-2.36-2.06-7-.19-8.63,1.67A5.26,5.26,0,0,0,763.79,119.48Zm.3-6.37a7.15,7.15,0,0,1,5.49-2.06,2.94,2.94,0,0,1,1.27.49,3.62,3.62,0,0,1,.79,3.24,7.65,7.65,0,0,1-1.47,3.53,3.63,3.63,0,0,1-4.91.29c0-.1,0-.1-.09-.19a8.41,8.41,0,0,1,1.86-3,7,7,0,0,1,2.65-2.16.6.6,0,0,0,.39-.88c-.2-.39-.49-.59-.88-.39h-.1a9.65,9.65,0,0,0-3.14,2.54,12.13,12.13,0,0,0-2,3A3.55,3.55,0,0,1,764.09,113.11Zm19.41,24.51a5.13,5.13,0,0,0-4.61-.68,8,8,0,0,0-4,2.35,5.17,5.17,0,0,0,.79,7.25,5.44,5.44,0,0,0,2.94,1.38,4.76,4.76,0,0,0,4.31-1.48C784.58,144.58,785.85,139.68,783.5,137.62Zm-1.67,7.84a3.61,3.61,0,0,1-4.9.3c0-.1,0-.1-.1-.2a8.83,8.83,0,0,1,1.86-3,7.18,7.18,0,0,1,2.65-2.15.77.77,0,0,0,.3-1,.66.66,0,0,0-.79-.3,9.9,9.9,0,0,0-3.14,2.55,15.46,15.46,0,0,0-1.76,2.55c-.1.1-.1.2-.2.29a3.67,3.67,0,0,1,.1-4.41,7.49,7.49,0,0,1,3.34-1.86,5.27,5.27,0,0,1,2.15-.2,2.12,2.12,0,0,1,1.28.49C784.19,140,783.3,143.9,781.83,145.46Zm6-25.78a5.42,5.42,0,0,0-10.39,2.94h0c.59,2,3,5,5.69,5.3a3.85,3.85,0,0,0,1.47-.1,4.92,4.92,0,0,0,3-3.53,8.2,8.2,0,0,0,.19-4.61Zm-1.47,4.22c-.49,1.47-1.17,2.35-2.06,2.64-2,.59-4.8-2.25-5.39-4.31a3.82,3.82,0,0,1,2.26-4.31h.19a7.43,7.43,0,0,1,1.57,3.23,10.11,10.11,0,0,1,.49,3.43c-.1.39.2.69.59.79h0a.67.67,0,0,0,.78-.59,10.85,10.85,0,0,0-.49-4,18,18,0,0,0-1.17-2.94c-.1-.1-.1-.2-.2-.3a3.53,3.53,0,0,1,3.63,2.45,7.67,7.67,0,0,1-.2,3.93Zm-37.45,12c-1.86,1.57-4,6.17-2.06,8.62a3.9,3.9,0,0,0,2.65,1.38,9.25,9.25,0,0,0,6.18-1.57,5.21,5.21,0,0,0,.39-7.26,5.13,5.13,0,0,0-7.16-1.17Zm5.88,7.25c-1.66,1.37-5.58,2.06-6.86.39s.2-5.29,1.86-6.66a3.38,3.38,0,0,1,2.55-.69,3.42,3.42,0,0,1,2.26,1.18v.19a7.25,7.25,0,0,1-2.36,2.65,9.24,9.24,0,0,1-2.94,1.77.64.64,0,0,0,.1,1.27h.3a9.2,9.2,0,0,0,3.52-2.06,11.77,11.77,0,0,0,2.36-2.55,3.82,3.82,0,0,1-.79,4.51ZM754,131.05a5.08,5.08,0,0,0,1.57-7.06,8.68,8.68,0,0,0-3.73-2.74,4.88,4.88,0,0,0-4.7.1c-1.18.78-1.77,2.35-1.67,4.31a8.4,8.4,0,0,0,1.37,4.51,4.9,4.9,0,0,0,3.24,2A6.73,6.73,0,0,0,754,131.05Zm-7.06-5.49a3.86,3.86,0,0,1,1.08-3.13,2.3,2.3,0,0,1,2-.3,6,6,0,0,1,1.37.39,8.81,8.81,0,0,1,3.14,2.26,3.74,3.74,0,0,1-.79,4.8h-.19a6.38,6.38,0,0,1-2.45-2.55,8.58,8.58,0,0,1-1.47-3c-.1-.39-.39-.68-.79-.58h0a.67.67,0,0,0-.59.78h0a9.1,9.1,0,0,0,1.77,3.63,12,12,0,0,0,2.35,2.55,3.55,3.55,0,0,1-4.21-1.18A5.52,5.52,0,0,1,746.93,125.56Z"/><path class="cls-44" d="M787.13,141.15c-2-.29-3.63.1-4.51,1.18-2.16,2.35-.2,7.06,1.57,8.72a4.88,4.88,0,0,0,3.62,1.18,5.63,5.63,0,0,0,2.75-1.08,3,3,0,0,0,.78-.78,5.28,5.28,0,0,0,1.47-3.73,4.75,4.75,0,0,0-1.57-3.53A7.06,7.06,0,0,0,787.13,141.15Zm4.41,5.39a4,4,0,0,1-.79,2.36c-.09,0-.09,0-.19.09a6.83,6.83,0,0,1-3-2,8,8,0,0,1-2.16-2.64.69.69,0,0,0-.88-.4h0a.69.69,0,0,0-.39.89h0a8.79,8.79,0,0,0,2.55,3.13,13.12,13.12,0,0,0,2.84,2,3.87,3.87,0,0,1-1.77.69,3.32,3.32,0,0,1-2.54-.78c-1.57-1.38-2.85-5.2-1.48-6.67.1-.1.2-.2.3-.2a4.14,4.14,0,0,1,3-.49,7.65,7.65,0,0,1,3.53,1.47h0a3.92,3.92,0,0,1,1,2.55Zm-15.1-8.72a5.81,5.81,0,0,0,3-1.18,4.93,4.93,0,0,0,2-4.12h0a8.8,8.8,0,0,0-1.76-4.31c-1.18-1.57-2.65-2.45-4-2.35-3.14.19-5,4.9-4.91,7.35A5.21,5.21,0,0,0,776.44,137.82Zm-4.31-4.61a7.4,7.4,0,0,1,2.35-5.39,2,2,0,0,1,1.27-.49c.89-.1,2,.59,2.85,1.76a7.08,7.08,0,0,1,1.47,3.53,3.81,3.81,0,0,1-3.24,3.73c-.1,0-.1,0-.19-.1a7.88,7.88,0,0,1-.79-3.43,9.76,9.76,0,0,1,.3-3.43.63.63,0,0,0-.3-.89c-.29-.09-.78,0-.88.3v.1a9.21,9.21,0,0,0-.39,4,13.55,13.55,0,0,0,.68,3.43A3.74,3.74,0,0,1,772.13,133.21Zm27.15-.59a4.93,4.93,0,0,0-3.72,2.84,9.1,9.1,0,0,0-1.18,4.51,5.13,5.13,0,0,0,5.69,4.51,5.83,5.83,0,0,0,3-1.17,4.93,4.93,0,0,0,2-4.12C805,136.74,802.42,132.43,799.28,132.62Zm4.41,6.67a3.78,3.78,0,0,1-3.23,3.72c-.1,0-.1,0-.2-.09a8.17,8.17,0,0,1-.78-3.44,10,10,0,0,1,.29-3.43.69.69,0,0,0-.49-.88.62.62,0,0,0-.78.29,9.24,9.24,0,0,0-.39,4,10.24,10.24,0,0,0,.58,3c0,.1.1.2.1.4a3.56,3.56,0,0,1-3-3.14,8.56,8.56,0,0,1,1-3.73,5.46,5.46,0,0,1,1.38-1.66,2,2,0,0,1,1.27-.49C801.44,133.8,803.6,137.23,803.69,139.29ZM793.5,120.86a5.18,5.18,0,0,0-6.86,2.35,5.12,5.12,0,0,0,1.76,7.06h0c1.86,1,5.69,1.27,7.75-.3a5.27,5.27,0,0,0,1-1.07c.68-1.28.49-2.85-.4-4.61a9.9,9.9,0,0,0-3.23-3.43Zm1.86,4a3.51,3.51,0,0,1,.39,3.33c-1,1.76-5,1.86-6.86.88a3.75,3.75,0,0,1-1.47-4.61c.1,0,.1-.09.2-.09a7.54,7.54,0,0,1,3.33,1.17,8.05,8.05,0,0,1,2.74,2.06.66.66,0,0,0,1,.1h0a.65.65,0,0,0,.09-1,8.87,8.87,0,0,0-3.23-2.45,13.37,13.37,0,0,0-2.94-1.18c-.1,0-.2-.1-.3-.1a3.62,3.62,0,0,1,4.32-.88,5.76,5.76,0,0,1,2.74,2.75ZM772.71,157c-.19,2.45,1.57,7.16,4.71,7.45a4.24,4.24,0,0,0,2.84-.88,9.29,9.29,0,0,0,3.24-5.49,5.13,5.13,0,0,0-4.9-5.39,5.2,5.2,0,0,0-5.89,4.31Zm9.32.89c-.2,2.05-2.45,5.39-4.51,5.19s-3.63-3.82-3.43-6a3.5,3.5,0,0,1,1.37-2.35,4.31,4.31,0,0,1,2.45-.79c.1,0,.1.1.2.1a8.77,8.77,0,0,1,.29,3.53,9.71,9.71,0,0,1-.78,3.33.77.77,0,0,0,.19,1c.2.19.59.09.79,0l.19-.2a8.92,8.92,0,0,0,1-3.92,13.45,13.45,0,0,0-.09-3.43,3.63,3.63,0,0,1,2.35,3.53Zm-10.49-11.18c.49-2.94-1.28-5.69-3.92-6.08a9.25,9.25,0,0,0-4.61.69,4.88,4.88,0,0,0-3.24,3.43c-.19,1.37.49,2.84,1.87,4.31a8.41,8.41,0,0,0,4.11,2.16,4.45,4.45,0,0,0,3.63-1A5.86,5.86,0,0,0,771.54,146.74Zm-8.92,1.18a3.57,3.57,0,0,1-1.47-3,2.87,2.87,0,0,1,1.17-1.67,5.58,5.58,0,0,1,1.28-.69,7.37,7.37,0,0,1,3.82-.59,3.72,3.72,0,0,1,2.84,3.93.32.32,0,0,0-.09.19A10.84,10.84,0,0,1,763.4,145a.68.68,0,0,0-1,.2h0a.66.66,0,0,0,.2,1h0a8.8,8.8,0,0,0,3.82,1.28,14.44,14.44,0,0,0,3.53.19,3.7,3.7,0,0,1-3.82,2.26A8.38,8.38,0,0,1,762.62,147.92Z"/><path class="cls-44" d="M574.46,437.55a.88.88,0,0,0-.93.93v3.72a6.49,6.49,0,0,0,6.52,6.53h42.86a6.49,6.49,0,0,0,6.53-6.53v-3.72a.88.88,0,0,0-.94-.93h-3.72v-2A4.69,4.69,0,0,0,628.5,431v-1.86a4.71,4.71,0,0,0-2.79-4.29v-2.23h2.79a.89.89,0,0,0,.94-.93V418a4.61,4.61,0,0,0-4.66-4.66H578.19a4.61,4.61,0,0,0-4.66,4.66v3.73a.88.88,0,0,0,.93.93h2.8v2.23a4.72,4.72,0,0,0-2.8,4.29V431a4.69,4.69,0,0,0,3.73,4.57v2Zm53.11,4.65a4.61,4.61,0,0,1-4.66,4.66H580.05a4.61,4.61,0,0,1-4.66-4.66v-2.79h52.18Zm-39.13-6.52h6.71a3.08,3.08,0,0,0-.19.93v.94h-6.52Zm27,1.87H613.6v-2.8a.93.93,0,0,1,1.86,0Zm-3.73,0H600.55v-.94a3.08,3.08,0,0,0-.19-.93h11.37Zm-13-.94v.94h-1.87v-.94a.89.89,0,0,1,.94-.93A.94.94,0,0,1,598.69,436.61Zm-12.12.94h-1.86v-2.8a.93.93,0,1,1,1.86,0Zm30.75,0v-1.87h5.59v1.87ZM575.39,418a2.75,2.75,0,0,1,2.8-2.8h46.59a2.74,2.74,0,0,1,2.79,2.8v2.79h-6.15L617,417.23a1.32,1.32,0,0,0-.56-.18.33.33,0,0,0-.27.09l-9.79,3.54-4.29-3.35a.84.84,0,0,0-1.11,0l-4.29,3.35L587,417.14c-.1,0-.19-.09-.28-.09a1.32,1.32,0,0,0-.56.18l-4.38,3.54h-6.15V418Zm43.05,2.79h-7L616.2,419Zm-14.91,0h-4l2.05-1.58Zm-12,0h-7l2.15-1.77Zm-12.39,1.87h44.73v1.86H579.12Zm0,3.72h44.73a2.75,2.75,0,0,1,2.79,2.8v.93h-2.79a6.89,6.89,0,0,1-3.36-.84,9.29,9.29,0,0,0-4.19-1,8.26,8.26,0,0,0-4.19,1,7.18,7.18,0,0,1-3.36.84,7.54,7.54,0,0,1-3.45-.84,9.29,9.29,0,0,0-4.19-1,8.26,8.26,0,0,0-4.19,1,7.32,7.32,0,0,1-6.81,0,9.49,9.49,0,0,0-8.38,0,7.27,7.27,0,0,1-3.45.84h-1.86v-.93A2.72,2.72,0,0,1,579.12,426.36Zm-2.61,5.6h1.68a8.17,8.17,0,0,0,4.19-1,7.3,7.3,0,0,1,6.8,0,9.51,9.51,0,0,0,8.39,0,7.24,7.24,0,0,1,3.45-.84,7.47,7.47,0,0,1,3.44.84,9.37,9.37,0,0,0,4.2,1,8.17,8.17,0,0,0,4.19-1,7.27,7.27,0,0,1,3.45-.84,6.86,6.86,0,0,1,3.35.84,9.34,9.34,0,0,0,4.2,1h2.6a2.71,2.71,0,0,1-2.6,1.86h-6.71a2.66,2.66,0,0,0-3.54-1.68,2.72,2.72,0,0,0-1.68,1.68H588.25a2.66,2.66,0,0,0-3.54-1.68,2.72,2.72,0,0,0-1.68,1.68h-3.91A2.72,2.72,0,0,1,576.51,432Zm3.54,3.72h2.8v1.87h-2.8Z"/></svg>