<svg id="Ebene_1" data-name="Ebene 1" xmlns="http://www.w3.org/2000/svg" viewBox="0 0 1366 768"><defs><style>.cls-1,.cls-10,.cls-3{fill:#1c2a40;}.cls-10,.cls-2,.cls-25,.cls-3{isolation:isolate;}.cls-10,.cls-3{font-size:17px;}.cls-3{font-family:IBMPlexSerif-Bold, IBM Plex Serif;font-weight:700;}.cls-4{letter-spacing:-0.02em;}.cls-5{letter-spacing:-0.03em;}.cls-21,.cls-6{letter-spacing:0em;}.cls-7{letter-spacing:-0.02em;}.cls-8{letter-spacing:0.01em;}.cls-9{letter-spacing:0em;}.cls-10{font-family:IBMPlexSerif, IBM Plex Serif;}.cls-11{letter-spacing:-0.02em;}.cls-12{letter-spacing:-0.01em;}.cls-13{letter-spacing:0.01em;}.cls-14{letter-spacing:-0.01em;}.cls-15{letter-spacing:-0.01em;}.cls-16{letter-spacing:-0.02em;}.cls-17{letter-spacing:-0.01em;}.cls-18{letter-spacing:0.02em;}.cls-19{letter-spacing:-0.09em;}.cls-20{letter-spacing:-0.01em;}.cls-21{font-family:Roboto-Regular, Roboto;}.cls-22{letter-spacing:-0.01em;}.cls-23{letter-spacing:0.03em;}.cls-24{letter-spacing:0.01em;}.cls-25{fill:#00c1ff;opacity:0.1;}.cls-26{letter-spacing:-0.02em;}.cls-27{letter-spacing:-0.01em;}.cls-28{letter-spacing:0.03em;}.cls-29{letter-spacing:0.09em;}.cls-30{letter-spacing:0em;}.cls-31{letter-spacing:0em;}.cls-32{letter-spacing:-0.01em;}.cls-33{letter-spacing:-0.01em;}.cls-34{letter-spacing:0em;}.cls-35{letter-spacing:0em;}.cls-36{letter-spacing:-0.03em;}.cls-37{letter-spacing:-0.07em;}.cls-38{letter-spacing:-0.01em;}.cls-39{letter-spacing:-0.06em;}.cls-40{letter-spacing:0.02em;}.cls-41{letter-spacing:0.01em;}.cls-42{letter-spacing:0.02em;}.cls-43{letter-spacing:-0.1em;}.cls-44{letter-spacing:-0.01em;}</style></defs><path class="cls-1" d="M350.26,150.05l-4.44-2.49a23.13,23.13,0,0,0-3.91-27.16h0l-6.21-6.21a1.76,1.76,0,0,0-2.48,2.49l5.5,5.5a41.31,41.31,0,0,1-3,6.92l-8-8a31.14,31.14,0,0,0,2.66-11.54,2,2,0,0,0-.53-1.42l-6.74-6.74h0c-1.42-1.42-4.09-2.66-9.06-1.07a2,2,0,0,0-1.24,2.31c.18,1.07,1.24,1.42,2.31,1.24h0c2.48-.71,4.44-.71,5.5.18h0c1.78,1.78.36,7.28-4.08,13.32a1.66,1.66,0,0,0-1.95-.36,2,2,0,0,1-1.43,0,1.4,1.4,0,0,1-.71-.71,4.86,4.86,0,0,0-.88-5.5c-2.13-2.13-6-1.6-8.7,1.24s-3.37,6.75-1.24,8.7A4.66,4.66,0,0,0,305,122a3,3,0,0,0,1.24-.18,8,8,0,0,0,4.26-2.48.18.18,0,0,1,.18-.18A4.67,4.67,0,0,0,314,120.4c-.71.71-1.24,1.42-2,2.13a37.19,37.19,0,0,1-11.89,8.35,12,12,0,0,1-3.55,1.06,10.81,10.81,0,0,1,4.79-4.08,1.8,1.8,0,0,0-1.24-3.37h0a13.94,13.94,0,0,0-7.11,6.39c-.88-1.25-.71-3.73.54-6.57a40.07,40.07,0,0,1,8.34-11.9,48.16,48.16,0,0,1,7.46-6,1.8,1.8,0,0,0-2-3,47,47,0,0,0-8,6.57,42.92,42.92,0,0,0-9.24,13.14c-1.95,4.79-1.77,8.52.36,10.82l18.82,18.82h0a23.17,23.17,0,0,0,27.16,3.91l2.48,4.44a2,2,0,0,0,2.49.71c.18,0,.18-.18.35-.36l8.88-8.88a1.71,1.71,0,0,0,0-2.48c-.36.18-.53,0-.53,0Zm-45.09-31.6a1.56,1.56,0,0,1-1.25-.18c-.53-.53-.35-2.31,1.25-3.73,1.59-1.59,3.19-1.77,3.72-1.24s.36,2.31-1.24,3.73A5.1,5.1,0,0,1,305.17,118.45Zm36,6.57a20,20,0,0,1,3.38,14.91,11.45,11.45,0,0,0-2.84-4.62L338,131.59A44.25,44.25,0,0,0,341.2,125Zm-14.55-14.91a31.9,31.9,0,0,1-1.78,8.16l-3-3a22.44,22.44,0,0,0,2.67-7.27ZM314.22,125.2a49.83,49.83,0,0,0,5.68-6.75l3.37,3.37a29.77,29.77,0,0,1-12.6,12.61l-3.37-3.38a54.74,54.74,0,0,0,6.92-5.85Zm-13.14,9.23a28.08,28.08,0,0,0,3.2-1.6l3,3a25.89,25.89,0,0,1-8.17,1.77L297,135.49A10.71,10.71,0,0,0,301.08,134.43Zm1.07,6.39a39.2,39.2,0,0,0,8.87-2.66h0a32.35,32.35,0,0,0,14.74-13.67l7.81,7.81a42.41,42.41,0,0,1-5.68,6.92c-.89.89-1.95,1.78-2.84,2.66a1.77,1.77,0,1,0,2.31,2.67,23.14,23.14,0,0,0,3-2.84,41.62,41.62,0,0,0,5.69-6.93l3.19,3.2a8.91,8.91,0,0,1-12.6,12.6h0l-10.3-10.29a1.75,1.75,0,0,0-2.48,2.48h0l3.9,3.91a39.13,39.13,0,0,1-6.92,3ZM314,152.36a45.32,45.32,0,0,0,6.57-3.2l3.73,3.73a11.24,11.24,0,0,0,4.61,2.84A20,20,0,0,1,314,152.36Zm26.81,5.15-1.42-2.67a21.23,21.23,0,0,0,4.44-4.44l2.66,1.42Z"/><path class="cls-1" d="M293.45,97.68a8,8,0,0,0-4.26,2.49c-2.84,2.84-3.37,6.74-1.24,8.87a4.53,4.53,0,0,0,3.19,1.24,8.77,8.77,0,0,0,5.51-2.48,43.06,43.06,0,0,0,9.23-13.14c1.95-4.79,1.77-8.52-.36-10.83L286.7,65h0a23,23,0,0,0-25.91-4.44l-2-3.73a1.78,1.78,0,0,0-1.95-.89L248,57.74A2,2,0,0,0,246.58,59l-1.77,7.1a1.78,1.78,0,0,0,.89,2l4.43,2.49A23.17,23.17,0,0,0,254,97.68h0l.18.18h0l2.84,2.84a1.76,1.76,0,0,0,2.48-2.49l-2.13-2.13a41.31,41.31,0,0,1,3-6.92l8,8a39,39,0,0,0-2.31,7.81l-1.6-1.6a1.76,1.76,0,1,0-2.48,2.49h0l10.83,10.83a6.71,6.71,0,0,0,4.79,1.77,20.06,20.06,0,0,0,9.05-2.84,1.83,1.83,0,0,0-1.77-3.2h0c-4.26,2.31-7.81,3-9.41,2a13.92,13.92,0,0,0,6.39-7.1,1.8,1.8,0,0,0-3.37-1.25h0a9,9,0,0,1-4.08,4.8c.53-3.73,3.72-9.77,9.58-15.63l.18-.17L283,93.77l-1.42-1.06a49.12,49.12,0,0,0-5.68,6.75l-3.38-3.38a29.77,29.77,0,0,1,12.61-12.6l3.37,3.37c-.36.18-.71.53-1.07.71a1.78,1.78,0,0,0,2.13,2.84h0c6.57-4.79,11.9-5.86,13.5-4.26,1.06,1.07.88,3.73-.36,6.92a37,37,0,0,1-3.9,6.75c-.18-.35-.54-.71-.71-1.06A5.53,5.53,0,0,0,293.45,97.68Zm0-20.77a39,39,0,0,0-7.81,2.31l-8-8a39.52,39.52,0,0,1,6.92-3ZM281.73,65.55a45.66,45.66,0,0,0-6.56,3.19L271.44,65a11.17,11.17,0,0,0-4.62-2.84A20,20,0,0,1,281.73,65.55Zm-33.37,0,1.24-4.79L256,59.51l1.42,2.67A27.11,27.11,0,0,0,253.86,65a30.37,30.37,0,0,0-2.13,2.48Zm6,27.16A19.75,19.75,0,0,1,251,78a11.24,11.24,0,0,0,2.84,4.61l3.73,3.73A42.32,42.32,0,0,0,254.4,92.71Zm16.68,17.22L269,107.8a32.07,32.07,0,0,1,1.78-8.17l3,3a23.74,23.74,0,0,0-2.66,7.28Zm4.09-23.61a33.32,33.32,0,0,0-5.33,7.1L262,85.61a42,42,0,0,1,5.68-6.92,30.45,30.45,0,0,1,2.66-2.31,1.77,1.77,0,0,0-2.31-2.67c-.88.89-1.95,1.78-2.84,2.67a42.41,42.41,0,0,0-5.68,6.92l-3-3.19A8.91,8.91,0,0,1,269,67.32l.18.18L282.62,81a28.42,28.42,0,0,0-7.45,5.33ZM291.5,84.9l-3-3a25.77,25.77,0,0,1,8.17-1.77l2,2a31.26,31.26,0,0,0-7.1,2.84Zm2.66,20.24c-1.6,1.59-3.2,1.77-3.73,1.24s-.35-2.31,1.24-3.73a5.08,5.08,0,0,1,2.49-1.42h.53c.36,0,.54,0,.71.18.54.53.18,2.31-1.24,3.73Z"/><path class="cls-1" d="M1053.51,227.6c-2.61-3.71-5.88-5.45-8.94-5.45-7,.43-11.56,10.68-11.12,16.13a10.55,10.55,0,0,0,3.93,7.64,11,11,0,0,0,6.1,2.61,8.88,8.88,0,0,0,2.4.22,11.93,11.93,0,0,0,8.29-3.49,11.06,11.06,0,0,0,3.27-7.85A24.4,24.4,0,0,0,1053.51,227.6Zm-1.74,15.48a8.37,8.37,0,0,1-5,2.4c-.22,0-.22-.22-.43-.22-.44-.65-1.53-3.27-1.75-7.63a18,18,0,0,1,.87-7.63,1.33,1.33,0,0,0-.87-2h0a1.33,1.33,0,0,0-2,.88h0a24.57,24.57,0,0,0-1.09,8.94,29.25,29.25,0,0,0,1.31,7.63,9.14,9.14,0,0,1-3.93-1.74,7.53,7.53,0,0,1-2.83-5.46c-.22-4.79,3.7-12.65,8.28-12.86h.66a8.67,8.67,0,0,1,5.45,4.14,15.25,15.25,0,0,1,3,8.07h0c.66,2-.21,3.92-1.74,5.45ZM1042,205.57a12,12,0,0,0,6.54,3.05,10.55,10.55,0,0,0,9.59-3.27h0a19.59,19.59,0,0,0,3.93-9.59c.65-4.36-.22-8.07-2.62-10-5.23-4.58-15.48-.44-19.19,3.7C1036.29,194,1037.16,201.21,1042,205.57Zm.65-14.17a15.91,15.91,0,0,1,12.21-4.58,6.32,6.32,0,0,1,2.84,1.09c1.52,1.31,2.18,3.92,1.74,7.19a16.75,16.75,0,0,1-3.27,7.85,8,8,0,0,1-10.9.66c0-.22,0-.22-.22-.44a19.52,19.52,0,0,1,4.14-6.76,16,16,0,0,1,5.89-4.8,1.32,1.32,0,0,0,.87-2c-.43-.87-1.09-1.31-2-.87h-.22a21.69,21.69,0,0,0-7,5.67,26.38,26.38,0,0,0-4.36,6.54C1040.21,198.37,1040.43,194.23,1042.61,191.4Zm43.18,54.52c-2.4-2-6.11-2.62-10.25-1.53a17.81,17.81,0,0,0-8.94,5.23c-3.93,4.58-3.27,11.78,1.74,16.14a12.11,12.11,0,0,0,6.54,3.05,10.57,10.57,0,0,0,9.6-3.27C1088.19,261.4,1091,250.5,1085.79,245.92Zm-3.71,17.44a8.06,8.06,0,0,1-10.9.66c0-.22,0-.22-.22-.44a19.52,19.52,0,0,1,4.14-6.76A16,16,0,0,1,1081,252a1.7,1.7,0,0,0,.66-2.18,1.47,1.47,0,0,0-1.75-.65,21.59,21.59,0,0,0-7,5.67,32.78,32.78,0,0,0-3.92,5.67c-.22.22-.22.43-.44.65a8.17,8.17,0,0,1,.22-9.81,16.83,16.83,0,0,1,7.41-4.15,11.74,11.74,0,0,1,4.8-.43,4.59,4.59,0,0,1,2.84,1.09C1087.32,251.15,1085.35,259.87,1082.08,263.36Zm13.3-57.35c-1.74-5.89-8.28-8.94-14.61-7.2s-10,8.07-8.5,13.74h0c1.31,4.36,6.76,11.12,12.65,11.78a8.43,8.43,0,0,0,3.27-.22c3-.87,5.45-3.71,6.76-7.85a18.11,18.11,0,0,0,.43-10.25Zm-3.27,9.37c-1.09,3.28-2.61,5.24-4.58,5.89-4.36,1.31-10.68-5-12-9.59a8.54,8.54,0,0,1,5-9.6h.44c.66.44,2.18,2.84,3.49,7.2a22.36,22.36,0,0,1,1.09,7.63c-.22.87.44,1.53,1.31,1.75h0a1.49,1.49,0,0,0,1.74-1.31,24.35,24.35,0,0,0-1.09-8.94,40.61,40.61,0,0,0-2.61-6.55c-.22-.21-.22-.43-.44-.65a7.81,7.81,0,0,1,8.07,5.45,16.8,16.8,0,0,1-.44,8.72ZM1008.81,242c-4.15,3.49-8.94,13.74-4.58,19.19a8.61,8.61,0,0,0,5.89,3.05,20.4,20.4,0,0,0,13.73-3.48c4.58-3.71,5-11.13.88-16.14-4.15-5.24-11.34-6.33-15.92-2.62Zm13.08,16.14c-3.71,3.05-12.43,4.58-15.26.87-2.84-3.49.43-11.78,4.14-14.83a7.93,7.93,0,0,1,10.69,1.09v.44c-.22.87-1.75,3.05-5.24,5.89a20.11,20.11,0,0,1-6.54,3.92,1.44,1.44,0,0,0-1.09,1.75,1.38,1.38,0,0,0,1.31,1.09h.65a20.72,20.72,0,0,0,7.85-4.58,26.13,26.13,0,0,0,5.24-5.67,8.49,8.49,0,0,1-1.75,10Zm-1.74-26.83c5.45-3.7,7-10.9,3.49-15.7a19.23,19.23,0,0,0-8.29-6.1c-4.14-1.75-7.85-1.53-10.47.22s-3.92,5.23-3.71,9.59a18.67,18.67,0,0,0,3.06,10,10.9,10.9,0,0,0,7.19,4.36A15,15,0,0,0,1020.15,231.3Zm-15.7-12.21c0-3.27.87-5.89,2.39-7a5.15,5.15,0,0,1,4.37-.65,12.82,12.82,0,0,1,3,.87,19.63,19.63,0,0,1,7,5,8.34,8.34,0,0,1-1.75,10.68h-.43c-.88-.21-3.06-2-5.45-5.67a19.49,19.49,0,0,1-3.28-6.76,1.49,1.49,0,0,0-1.74-1.31h0c-.87.22-1.53.88-1.31,1.75h0a19.91,19.91,0,0,0,3.93,8.07,26.09,26.09,0,0,0,5.23,5.67,7.88,7.88,0,0,1-9.38-2.62A12.36,12.36,0,0,1,1004.45,219.09Z"/><path class="cls-1" d="M1093.86,253.77c-4.36-.66-8.07.21-10,2.61-4.8,5.24-.44,15.71,3.49,19.41a10.91,10.91,0,0,0,8.06,2.62,12.4,12.4,0,0,0,6.11-2.4,6.89,6.89,0,0,0,1.75-1.74,11.72,11.72,0,0,0,3.27-8.29,10.56,10.56,0,0,0-3.49-7.85A15.69,15.69,0,0,0,1093.86,253.77Zm9.81,12a8.85,8.85,0,0,1-1.74,5.23c-.22,0-.22,0-.44.22-.87,0-3.49-1.31-6.76-4.36a17.94,17.94,0,0,1-4.8-5.89,1.53,1.53,0,0,0-2-.87h0a1.53,1.53,0,0,0-.87,2h0a19.51,19.51,0,0,0,5.67,7,29.52,29.52,0,0,0,6.32,4.36,8.67,8.67,0,0,1-3.92,1.53,7.43,7.43,0,0,1-5.67-1.74c-3.49-3.06-6.33-11.56-3.28-14.83.22-.22.44-.44.66-.44a9,9,0,0,1,6.76-1.09,16.89,16.89,0,0,1,7.85,3.27h0a8.72,8.72,0,0,1,2.18,5.67Zm-33.58-19.41a13.05,13.05,0,0,0,6.76-2.61,11,11,0,0,0,4.36-9.16h0a19.67,19.67,0,0,0-3.93-9.6c-2.61-3.49-5.88-5.45-8.94-5.23-7,.43-11.12,10.9-10.9,16.35C1057.87,242.21,1063.54,246.79,1070.09,246.35Zm-9.6-10.25a16.45,16.45,0,0,1,5.24-12,4.54,4.54,0,0,1,2.83-1.09c2-.22,4.36,1.31,6.32,3.92a15.59,15.59,0,0,1,3.28,7.85,8.43,8.43,0,0,1-7.2,8.29c-.22,0-.22,0-.44-.22-.43-.65-1.52-3.27-1.74-7.63a22.23,22.23,0,0,1,.65-7.63,1.38,1.38,0,0,0-.65-2c-.66-.21-1.75,0-2,.66v.22a20.53,20.53,0,0,0-.88,8.94,29.79,29.79,0,0,0,1.53,7.63A8.32,8.32,0,0,1,1060.49,236.1Zm60.41-1.31c-3.05.22-6.11,2.4-8.29,6.33a20.29,20.29,0,0,0-2.61,10c.43,6.11,6.1,10.47,12.64,10a13,13,0,0,0,6.76-2.62,11,11,0,0,0,4.37-9.15C1133.55,244,1127.88,234.36,1120.9,234.79Zm9.81,14.83a8.42,8.42,0,0,1-7.19,8.29c-.22,0-.22,0-.44-.22-.44-.65-1.53-3.27-1.74-7.63a22.23,22.23,0,0,1,.65-7.63,1.57,1.57,0,0,0-1.09-2,1.39,1.39,0,0,0-1.75.66,20.69,20.69,0,0,0-.87,8.94,23.37,23.37,0,0,0,1.31,6.76c0,.22.22.44.22.87a7.86,7.86,0,0,1-6.76-7,18.72,18.72,0,0,1,2.18-8.28,11.94,11.94,0,0,1,3-3.71,4.63,4.63,0,0,1,2.84-1.09C1125.7,237.41,1130.49,245,1130.71,249.62Zm-22.68-41c-5.23-2.83-12.21-.43-15.26,5.24-3.27,5.89-1.31,12.87,3.92,15.7h0c4.15,2.18,12.65,2.84,17.23-.65a11.58,11.58,0,0,0,2.18-2.4c1.53-2.84,1.09-6.33-.87-10.25a22.12,22.12,0,0,0-7.2-7.64Zm4.15,8.95c1.52,2.83,2,5.67.87,7.41-2.18,3.93-11.12,4.14-15.27,2a8.35,8.35,0,0,1-3.27-10.25c.22,0,.22-.21.44-.21a16.76,16.76,0,0,1,7.41,2.61,18.1,18.1,0,0,1,6.11,4.58,1.46,1.46,0,0,0,2.18.22h0a1.46,1.46,0,0,0,.22-2.18,19.67,19.67,0,0,0-7.2-5.45,29,29,0,0,0-6.54-2.62c-.22,0-.44-.22-.66-.22a8,8,0,0,1,9.6-2,12.77,12.77,0,0,1,6.11,6.11ZM1061.8,289.1c-.44,5.45,3.49,15.91,10.47,16.57a9.52,9.52,0,0,0,6.32-2,20.76,20.76,0,0,0,7.2-12.22c.65-6.1-4.36-11.34-10.91-12-6.76-.65-12.43,3.71-13.08,9.6Zm20.72,2c-.44,4.58-5.45,12-10,11.56s-8.07-8.51-7.64-13.31a7.73,7.73,0,0,1,3.06-5.23,9.53,9.53,0,0,1,5.45-1.75c.22,0,.22.22.43.22.44.66.88,3.49.66,7.85a21.76,21.76,0,0,1-1.75,7.42,1.7,1.7,0,0,0,.44,2.18c.44.44,1.31.22,1.74,0l.44-.44a19.81,19.81,0,0,0,2.18-8.72,29.27,29.27,0,0,0-.22-7.63,8.07,8.07,0,0,1,5.24,7.85Zm-23.34-24.86c1.09-6.55-2.83-12.65-8.72-13.52a20.63,20.63,0,0,0-10.25,1.52c-4.14,1.75-6.54,4.36-7.2,7.64-.43,3.05,1.09,6.32,4.15,9.59a18.65,18.65,0,0,0,9.16,4.8,9.88,9.88,0,0,0,8.07-2.18A13,13,0,0,0,1059.18,266.2Zm-19.84,2.61c-2.4-2.18-3.71-4.79-3.27-6.76a6.5,6.5,0,0,1,2.61-3.7,11.88,11.88,0,0,1,2.84-1.53,16.36,16.36,0,0,1,8.5-1.31,8.27,8.27,0,0,1,6.33,8.72.77.77,0,0,0-.22.44c-.65.44-3.49.65-7.85,0a16.58,16.58,0,0,1-7.2-2.4,1.5,1.5,0,0,0-2.18.44h0a1.5,1.5,0,0,0,.44,2.18h0a19.53,19.53,0,0,0,8.5,2.83,31.42,31.42,0,0,0,7.85.44,8.19,8.19,0,0,1-8.5,5A18.4,18.4,0,0,1,1039.34,268.81Z"/><g class="cls-2"><text class="cls-3" transform="translate(412.4 78.14)">1. Ma<tspan class="cls-4" x="43.88" y="0">k</tspan><tspan x="54.16" y="0">e </tspan><tspan class="cls-5" x="67.73" y="0">y</tspan><tspan class="cls-6" x="77.01" y="0">our </tspan><tspan class="cls-7" x="110.23" y="0">o</tspan><tspan class="cls-6" x="119.75" y="0">wn </tspan><tspan class="cls-8" x="149.7" y="0">r</tspan><tspan class="cls-9" x="158.25" y="0">ules:</tspan></text><text class="cls-10" transform="translate(412.4 101.14)"><tspan class="cls-11">e</tspan><tspan class="cls-12" x="8.77" y="0">.</tspan><tspan class="cls-13" x="13.07" y="0">g</tspan><tspan x="22.54" y="0">. a </tspan><tspan class="cls-11" x="44.27" y="0">&quot;</tspan><tspan x="50.98" y="0">on</tspan><tspan class="cls-14" x="71.43" y="0">c</tspan><tspan class="cls-6" x="80.03" y="0">e a d</tspan><tspan class="cls-15" x="116.65" y="0">a</tspan><tspan class="cls-16" x="125.76" y="0">y</tspan><tspan class="cls-15" x="134.59" y="0">/</tspan><tspan class="cls-17" x="140.64" y="0">w</tspan><tspan class="cls-6" x="153.73" y="0">eek </tspan><tspan class="cls-18" x="185.82" y="0">r</tspan><tspan class="cls-9" x="193.7" y="0">ul</tspan><tspan class="cls-11" x="209.32" y="0">e</tspan><tspan class="cls-19" x="218.09" y="0">&quot;</tspan><tspan x="223.62" y="0">, </tspan></text><text class="cls-10" transform="translate(412.4 124.14)">changing from lar<tspan class="cls-20" x="143.17" y="0">g</tspan><tspan class="cls-6" x="152.32" y="0">er to smaller quantities</tspan><tspan class="cls-21" x="337.95" y="0"> </tspan></text><text class="cls-10" transform="translate(412.4 147.14)">and ta<tspan class="cls-12" x="49.71" y="0">k</tspan><tspan x="59.38" y="0">e the pre</tspan><tspan class="cls-22" x="129.16" y="0">s</tspan><tspan x="137.36" y="0">sure </tspan><tspan class="cls-20" x="176.76" y="0">o</tspan><tspan x="186.25" y="0">ff: e</tspan><tspan class="cls-15" x="215.83" y="0">v</tspan><tspan x="224.74" y="0">e</tspan><tspan class="cls-23" x="233.85" y="0">r</tspan><tspan class="cls-9" x="241.89" y="0">y r</tspan><tspan class="cls-24" x="262.44" y="0">e</tspan><tspan class="cls-9" x="271.72" y="0">duction is gr</tspan><tspan class="cls-8" x="371.48" y="0">e</tspan><tspan class="cls-15" x="380.76" y="0">a</tspan><tspan x="389.87" y="0">t!</tspan></text></g><rect class="cls-25" x="402" y="53.31" width="566" height="111.23"/><g class="cls-2"><text class="cls-3" transform="translate(414.69 350.81)">3. If <tspan class="cls-26" x="35.95" y="0">y</tspan><tspan class="cls-6" x="45.24" y="0">ou mi</tspan><tspan class="cls-22" x="92.27" y="0">s</tspan><tspan x="100.81" y="0">s the ta</tspan><tspan class="cls-27" x="160.41" y="0">s</tspan><tspan x="168.93" y="0">te of m</tspan><tspan class="cls-24" x="225.72" y="0">e</tspan><tspan class="cls-9" x="235.51" y="0">a</tspan><tspan class="cls-28" x="245.22" y="0">t</tspan><tspan class="cls-9" x="251.99" y="0">,</tspan></text><text class="cls-10" transform="translate(414.69 373.81)"><tspan class="cls-15">y</tspan><tspan x="8.91" y="0">ou are </tspan><tspan class="cls-27" x="62.83" y="0">w</tspan><tspan x="75.92" y="0">ell se</tspan><tspan class="cls-23" x="116.58" y="0">r</tspan><tspan class="cls-14" x="124.63" y="0">v</tspan><tspan class="cls-8" x="133.53" y="0">e</tspan><tspan class="cls-9" x="142.82" y="0">d with </tspan><tspan class="cls-17" x="196.21" y="0">s</tspan><tspan x="204.39" y="0">trongly spi</tspan><tspan class="cls-15" x="289.81" y="0">c</tspan><tspan class="cls-24" x="298.41" y="0">e</tspan><tspan class="cls-9" x="307.7" y="0">d dishes li</tspan><tspan class="cls-16" x="388.38" y="0">k</tspan><tspan x="398.05" y="0">e currie</tspan><tspan class="cls-11" x="459.93" y="0">s</tspan><tspan class="cls-6" x="467.88" y="0">. </tspan></text><text class="cls-10" transform="translate(414.69 396.81)"><tspan class="cls-15">A</tspan><tspan class="cls-6" x="11.49" y="0">lso &quot;as i</tspan><tspan class="cls-29" x="72.35" y="0">f</tspan><tspan class="cls-6" x="79.69" y="0">&quot; </tspan><tspan class="cls-15" x="90.69" y="0">v</tspan><tspan x="99.6" y="0">ersion</tspan><tspan class="cls-11" x="150.35" y="0">s</tspan><tspan x="158.3" y="0">, </tspan><tspan class="cls-20" x="166.8" y="0">f</tspan><tspan x="172.51" y="0">or </tspan><tspan class="cls-15" x="193.58" y="0">e</tspan><tspan x="202.52" y="0">xample n</tspan><tspan class="cls-24" x="276.98" y="0">oo</tspan><tspan class="cls-9" x="296.49" y="0">dles with s</tspan><tspan class="cls-30" x="380.69" y="0">o</tspan><tspan class="cls-9" x="390.2" y="0">y Bolognese s</tspan><tspan class="cls-31" x="497.75" y="0">a</tspan><tspan x="506.95" y="0">u</tspan><tspan class="cls-14" x="517.47" y="0">c</tspan><tspan class="cls-6" x="526.07" y="0">e </tspan></text><text class="cls-10" transform="translate(414.69 419.81)">or sli<tspan class="cls-15" x="39.81" y="0">c</tspan><tspan class="cls-24" x="48.42" y="0">e</tspan><tspan x="57.7" y="0">d m</tspan><tspan class="cls-24" x="88.18" y="0">e</tspan><tspan class="cls-32" x="97.46" y="0">a</tspan><tspan x="106.57" y="0">t with seita</tspan><tspan class="cls-24" x="193.68" y="0">n</tspan><tspan x="204.71" y="0">, are a </tspan><tspan class="cls-33" x="256.3" y="0">g</tspan><tspan class="cls-24" x="265.45" y="0">oo</tspan><tspan x="284.97" y="0">d altern</tspan><tspan class="cls-32" x="347.13" y="0">a</tspan><tspan x="356.25" y="0">ti</tspan><tspan class="cls-15" x="367.6" y="0">v</tspan><tspan x="376.51" y="0">e </tspan><tspan class="cls-20" x="389.57" y="0">f</tspan><tspan x="395.28" y="0">or some </tspan><tspan class="cls-24" x="463.48" y="0">p</tspan><tspan x="474.07" y="0">eopl</tspan><tspan class="cls-11" x="508.29" y="0">e</tspan><tspan class="cls-6" x="517.06" y="0">.</tspan></text><text class="cls-10" transform="translate(414.69 465.91)">Other<tspan class="cls-11" x="45.42" y="0">s</tspan><tspan class="cls-6" x="53.38" y="0">, </tspan><tspan class="cls-11" x="61.88" y="0">e</tspan><tspan class="cls-12" x="70.65" y="0">.</tspan><tspan class="cls-13" x="74.95" y="0">g</tspan><tspan x="84.42" y="0">. </tspan><tspan class="cls-15" x="92.92" y="0">c</tspan><tspan x="101.52" y="0">elebrity chef </tspan><tspan class="cls-30" x="205.17" y="0">J</tspan><tspan x="212.85" y="0">amie Oli</tspan><tspan class="cls-14" x="279.37" y="0">v</tspan><tspan class="cls-6" x="288.28" y="0">er pre</tspan><tspan class="cls-22" x="335.93" y="0">f</tspan><tspan x="341.64" y="0">er to </tspan><tspan class="cls-15" x="381.76" y="0">c</tspan><tspan class="cls-24" x="390.37" y="0">o</tspan><tspan x="400.12" y="0">ok without </tspan></text><text class="cls-10" transform="translate(414.69 488.91)">t<tspan class="cls-23" x="6" y="0">r</tspan><tspan class="cls-9" x="14.04" y="0">ying to repla</tspan><tspan class="cls-15" x="113.51" y="0">c</tspan><tspan x="122.11" y="0">e m</tspan><tspan class="cls-24" x="151.37" y="0">e</tspan><tspan class="cls-32" x="160.65" y="0">a</tspan><tspan class="cls-9" x="169.76" y="0">t - </tspan><tspan class="cls-24" x="190.33" y="0">b</tspan><tspan x="200.67" y="0">e</tspan><tspan class="cls-34" x="209.78" y="0">c</tspan><tspan class="cls-31" x="218.5" y="0">a</tspan><tspan x="227.69" y="0">use m</tspan><tspan class="cls-24" x="275.77" y="0">e</tspan><tspan class="cls-32" x="285.05" y="0">a</tspan><tspan x="294.16" y="0">t altern</tspan><tspan class="cls-15" x="352" y="0">a</tspan><tspan x="361.11" y="0">ti</tspan><tspan class="cls-14" x="372.46" y="0">v</tspan><tspan x="381.37" y="0">es such as t</tspan><tspan class="cls-20" x="472.39" y="0">o</tspan><tspan x="481.88" y="0">fu et</tspan><tspan class="cls-11" x="517.27" y="0">c</tspan><tspan x="525.7" y="0">. </tspan></text><text class="cls-10" transform="translate(414.69 511.91)">are <tspan class="cls-20" x="29.87" y="0">o</tspan><tspan x="39.35" y="0">ften not </tspan><tspan class="cls-17" x="105.48" y="0">w</tspan><tspan x="118.57" y="0">ell re</tspan><tspan class="cls-15" x="158.47" y="0">c</tspan><tspan x="167.07" y="0">ei</tspan><tspan class="cls-15" x="181.54" y="0">v</tspan><tspan class="cls-24" x="190.45" y="0">e</tspan><tspan x="199.73" y="0">d </tspan><tspan class="cls-35" x="214.01" y="0">b</tspan><tspan x="224.13" y="0">y m</tspan><tspan class="cls-8" x="253.35" y="0">e</tspan><tspan class="cls-15" x="262.63" y="0">a</tspan><tspan x="271.74" y="0">t </tspan><tspan class="cls-24" x="281.69" y="0">e</tspan><tspan class="cls-15" x="290.97" y="0">a</tspan><tspan x="300.08" y="0">ters</tspan></text></g><rect class="cls-25" x="402" y="326.09" width="566" height="200.8"/><g class="cls-2"><text class="cls-3" transform="translate(418.47 204.62)">2. Do not <tspan class="cls-36" x="77.04" y="0">f</tspan><tspan class="cls-24" x="83.13" y="0">e</tspan><tspan x="92.92" y="0">ar protein deficiency</tspan></text><text class="cls-10" transform="translate(685.27 204.62)"> <tspan class="cls-34" x="3.94" y="0">b</tspan><tspan class="cls-9" x="14.06" y="0">y </tspan><tspan class="cls-8" x="27.08" y="0">e</tspan><tspan class="cls-15" x="36.36" y="0">a</tspan><tspan x="45.47" y="0">ting le</tspan><tspan class="cls-20" x="95.1" y="0">s</tspan><tspan x="103.29" y="0">s m</tspan><tspan class="cls-24" x="131.73" y="0">e</tspan><tspan class="cls-32" x="141.01" y="0">a</tspan><tspan x="150.13" y="0">t! </tspan></text><text class="cls-10" transform="translate(418.47 227.62)"><tspan class="cls-37">Y</tspan><tspan x="9.59" y="0">ou </tspan><tspan class="cls-34" x="33.64" y="0">c</tspan><tspan x="42.36" y="0">an </tspan><tspan class="cls-27" x="66.45" y="0">s</tspan><tspan x="74.63" y="0">till </tspan><tspan class="cls-20" x="100.13" y="0">f</tspan><tspan x="105.84" y="0">oll</tspan><tspan class="cls-27" x="125.63" y="0">o</tspan><tspan class="cls-9" x="135.1" y="0">w a h</tspan><tspan class="cls-24" x="176.08" y="0">e</tspan><tspan x="185.37" y="0">alt</tspan><tspan class="cls-38" x="205.75" y="0">h</tspan><tspan class="cls-39" x="216.13" y="0">y</tspan><tspan class="cls-6" x="224.11" y="0">, </tspan><tspan class="cls-24" x="232.61" y="0">b</tspan><tspan x="242.94" y="0">alan</tspan><tspan class="cls-15" x="277.47" y="0">c</tspan><tspan class="cls-24" x="286.07" y="0">e</tspan><tspan x="295.35" y="0">d diet: </tspan></text><text class="cls-10" transform="translate(418.47 250.62)">Legume<tspan class="cls-11" x="64.29" y="0">s</tspan><tspan class="cls-6" x="72.25" y="0">, </tspan><tspan class="cls-15" x="80.75" y="0">v</tspan><tspan x="89.66" y="0">e</tspan><tspan class="cls-20" x="98.77" y="0">g</tspan><tspan x="107.92" y="0">et</tspan><tspan class="cls-15" x="123.03" y="0">a</tspan><tspan x="132.14" y="0">ble</tspan><tspan class="cls-11" x="156.52" y="0">s</tspan><tspan class="cls-6" x="164.47" y="0">, </tspan><tspan class="cls-14" x="172.97" y="0">c</tspan><tspan class="cls-6" x="181.57" y="0">er</tspan><tspan class="cls-24" x="198.22" y="0">e</tspan><tspan x="207.5" y="0">als and dai</tspan><tspan class="cls-23" x="293.52" y="0">r</tspan><tspan x="301.56" y="0">y pr</tspan><tspan class="cls-24" x="332.53" y="0">o</tspan><tspan class="cls-9" x="342.29" y="0">ducts </tspan></text><text class="cls-10" transform="translate(418.47 273.62)">are high<tspan class="cls-40" x="65.69" y="0">-</tspan><tspan x="72.71" y="0">quality sour</tspan><tspan class="cls-15" x="168.09" y="0">c</tspan><tspan x="176.69" y="0">es </tspan><tspan class="cls-22" x="198.05" y="0">o</tspan><tspan class="cls-9" x="207.53" y="0">f protei</tspan><tspan class="cls-24" x="265.3" y="0">n</tspan><tspan x="276.33" y="0">.</tspan></text><text class="cls-10" transform="translate(418.47 296.72)">Some <tspan class="cls-22" x="48.84" y="0">o</tspan><tspan x="58.33" y="0">f the </tspan><tspan class="cls-24" x="97.75" y="0">b</tspan><tspan x="108.08" y="0">e</tspan><tspan class="cls-17" x="117.2" y="0">s</tspan><tspan x="125.37" y="0">t </tspan><tspan class="cls-32" x="135.32" y="0">a</tspan><tspan x="144.43" y="0">thletes in the </tspan><tspan class="cls-27" x="252.43" y="0">w</tspan><tspan x="265.52" y="0">orld are </tspan><tspan class="cls-15" x="331.89" y="0">v</tspan><tspan x="340.79" y="0">e</tspan><tspan class="cls-35" x="349.91" y="0">g</tspan><tspan class="cls-6" x="359.1" y="0">ans!</tspan></text></g><rect class="cls-25" x="402.5" y="181.72" width="566" height="127.2"/><g class="cls-2"><text class="cls-3" transform="translate(418.55 571.53)">4. If <tspan class="cls-26" x="35.95" y="0">y</tspan><tspan class="cls-6" x="45.24" y="0">ou </tspan><tspan class="cls-24" x="70.07" y="0">e</tspan><tspan x="79.86" y="0">at m</tspan><tspan class="cls-41" x="116.36" y="0">e</tspan><tspan x="126.15" y="0">a</tspan><tspan class="cls-42" x="135.86" y="0">t</tspan><tspan x="142.63" y="0">,</tspan></text><text class="cls-10" transform="translate(567.95 571.53)"><tspan xml:space="preserve"> then it should </tspan><tspan class="cls-24" x="118.17" y="0">b</tspan><tspan x="128.5" y="0">e or</tspan><tspan class="cls-34" x="158.68" y="0">g</tspan><tspan x="167.87" y="0">anic </tspan></text><text class="cls-10" transform="translate(418.55 594.53)">and from s<tspan class="cls-41" x="85.8" y="0">p</tspan><tspan class="cls-6" x="96.39" y="0">ecie</tspan><tspan class="cls-15" x="128.74" y="0">s</tspan><tspan class="cls-6" x="136.86" y="0">-appropri</tspan><tspan class="cls-15" x="214.09" y="0">a</tspan><tspan x="223.21" y="0">t</tspan><tspan class="cls-11" x="229.21" y="0">e</tspan><tspan x="237.98" y="0">, regional pr</tspan><tspan class="cls-24" x="334.45" y="0">o</tspan><tspan x="344.21" y="0">ductio</tspan><tspan class="cls-24" x="394.78" y="0">n</tspan><tspan class="cls-6" x="405.82" y="0">, </tspan></text><text class="cls-10" transform="translate(418.55 617.53)">pre<tspan class="cls-20" x="27.06" y="0">f</tspan><tspan class="cls-6" x="32.78" y="0">er</tspan><tspan class="cls-15" x="49.42" y="0">a</tspan><tspan x="58.53" y="0">bly from the direct mar</tspan><tspan class="cls-16" x="243.62" y="0">k</tspan><tspan x="253.3" y="0">ete</tspan><tspan class="cls-43" x="277.52" y="0">r</tspan><tspan x="283.35" y="0">. </tspan></text><text class="cls-10" transform="translate(418.55 640.53)"><tspan class="cls-5">F</tspan><tspan x="10.22" y="0">ind out whether there are suppliers </tspan><tspan class="cls-22" x="296.07" y="0">o</tspan><tspan x="305.55" y="0">f or</tspan><tspan class="cls-35" x="332.43" y="0">g</tspan><tspan class="cls-6" x="341.63" y="0">anic m</tspan><tspan class="cls-24" x="396.04" y="0">e</tspan><tspan class="cls-15" x="405.33" y="0">a</tspan><tspan x="414.44" y="0">t </tspan></text><text class="cls-10" transform="translate(418.55 663.63)">in <tspan class="cls-15" x="20.16" y="0">y</tspan><tspan x="29.07" y="0">our regio</tspan><tspan class="cls-8" x="101.49" y="0">n</tspan><tspan x="112.52" y="0">. Ma</tspan><tspan class="cls-16" x="145.13" y="0">k</tspan><tspan x="154.8" y="0">e sure the animal </tspan><tspan class="cls-22" x="296.95" y="0">f</tspan><tspan x="302.66" y="0">e</tspan><tspan class="cls-24" x="311.78" y="0">e</tspan><tspan x="321.06" y="0">d is not </tspan><tspan class="cls-14" x="383.33" y="0">c</tspan><tspan class="cls-6" x="391.93" y="0">oming </tspan></text><text class="cls-10" transform="translate(418.55 686.63)">from <tspan class="cls-15" x="43.08" y="0">ov</tspan><tspan class="cls-6" x="61.4" y="0">ers</tspan><tspan class="cls-24" x="86.34" y="0">e</tspan><tspan x="95.62" y="0">a</tspan><tspan class="cls-11" x="104.91" y="0">s</tspan><tspan x="112.86" y="0">. And </tspan><tspan class="cls-15" x="158.17" y="0">y</tspan><tspan x="167.07" y="0">ou ju</tspan><tspan class="cls-27" x="206.8" y="0">s</tspan><tspan x="214.98" y="0">t l</tspan><tspan class="cls-24" x="230.02" y="0">e</tspan><tspan class="cls-6" x="239.31" y="0">arn</tspan><tspan class="cls-24" x="266.98" y="0">e</tspan><tspan x="276.26" y="0">d which animals </tspan></text><text class="cls-10" transform="translate(418.55 709.63)"><tspan class="cls-34">c</tspan><tspan class="cls-31" x="8.72" y="0">a</tspan><tspan x="17.92" y="0">use the l</tspan><tspan class="cls-24" x="84.56" y="0">e</tspan><tspan x="93.84" y="0">a</tspan><tspan class="cls-27" x="103.12" y="0">s</tspan><tspan x="111.3" y="0">t </tspan><tspan class="cls-44" x="121.24" y="0">C</tspan><tspan x="132.05" y="0">O2 </tspan><tspan class="cls-24" x="158.37" y="0">e</tspan><tspan x="167.65" y="0">qui</tspan><tspan class="cls-44" x="193.7" y="0">v</tspan><tspan x="202.55" y="0">alents!</tspan></text></g><rect class="cls-25" x="402.16" y="543.64" width="565.67" height="181.93"/><path class="cls-1" d="M260.17,424.15a2,2,0,0,0-2.15,2.16,1.87,1.87,0,0,0,1.29,1.93c10.55,4.31,26.26,6.68,42.84,6.68,27.12,0,56-6.89,56-19.38,0-12.27-28.2-19.15-54.9-19.37h0a2,2,0,0,0-2.15,2.15,1.89,1.89,0,0,0,1.29,1.94c6.68,2.58,10.55,5.81,10.55,8.83a8.52,8.52,0,0,1-2.58,5.81c-8.61,8.18-35.52,9.68-50.16,9.25Zm53.17-6.24a11.91,11.91,0,0,0,3.88-8.82c0-2.37-1.08-5.17-5-8.4,25,1.51,41.54,8.61,41.54,14.85,0,7.11-21.31,15.07-51.66,15.07a140,140,0,0,1-26.91-2.37c13.13-.64,30.35-3,38.1-10.33Z"/><path class="cls-1" d="M253.72,409.09v.64a8.67,8.67,0,0,0-5.39,8,2,2,0,0,0,.87,1.72,27.32,27.32,0,0,0,7.1,3.44c.21,0,.43.22.64.22a2,2,0,0,0,2.16-2.16,2.06,2.06,0,0,0-1.51-1.93,48.25,48.25,0,0,1-4.95-2.16,4.36,4.36,0,0,1,3.66-3.22,2.36,2.36,0,0,0,1.94-2.37c0-.22,0-.43-.22-.43a3.44,3.44,0,0,1,.22-3.23A5.09,5.09,0,0,1,261.9,405a2.25,2.25,0,0,0,1.72-2.59v-.21a3.75,3.75,0,0,1-.22-2.16,4.87,4.87,0,0,1,3.66-3.65,2.1,2.1,0,0,0,1.72-2.16V394a4.32,4.32,0,0,1,4.31-4.31h.21a2.45,2.45,0,0,0,1.73-.64,4.15,4.15,0,0,1,6-.22.22.22,0,0,1,.22.22,1.77,1.77,0,0,0,1.72.64h.43a4.32,4.32,0,0,1,4.31,4.31v.21a2.1,2.1,0,0,0,1.72,2.16,4.88,4.88,0,0,1,3.66,3.65,3.75,3.75,0,0,1-.22,2.16,2.25,2.25,0,0,0,1.29,2.8h.22a4.58,4.58,0,0,1,3.66,2.58,5.51,5.51,0,0,1,.21,3.23,2.25,2.25,0,0,0,1.3,2.8c.21,0,.43,0,.43.21a5.18,5.18,0,0,1,2.36,1.29,2.14,2.14,0,1,0,3.23-2.8h0a9.62,9.62,0,0,0-2.8-2.15v-.64a8.66,8.66,0,0,0-5.38-8v-.64a8.35,8.35,0,0,0-5.59-8,8.73,8.73,0,0,0-8.18-7.1,8.8,8.8,0,0,0-11.41,0,8.51,8.51,0,0,0-8.18,7.1,8.87,8.87,0,0,0-5.6,8v.64C255.87,402.41,253.72,405.43,253.72,409.09Z"/><path class="cls-1" d="M334.44,419.85a6.46,6.46,0,1,0-6.46-6.46A6.48,6.48,0,0,0,334.44,419.85Zm0-8.61a2.15,2.15,0,1,1-2.16,2.15A2,2,0,0,1,334.44,411.24Z"/><path class="cls-1" d="M312.27,426.09l6.45,2.15c.22,0,.43.22.65.22.43,0,.65,0,.86-.22l8.61-4.3a1.9,1.9,0,0,0,.86-2.8c-.21-.43-.64-.86-.86-.86L320.23,416a2.35,2.35,0,0,0-2.58.43l-6.46,6.46a2.09,2.09,0,0,0,0,3C311.62,425.88,311.84,426.09,312.27,426.09Zm7.53-5.81,3.44,1.72-3.87,1.94-2.37-.86Z"/><path class="cls-1" d="M370.82,417.48c0-.43.21-1.94.21-1.94,0-17-30.35-30.13-68.88-30.13h-6.46a2.15,2.15,0,0,0-2.15,2.15h0a2.3,2.3,0,0,0,2.15,2.15h6.24c35.09,0,64.58,11.84,64.58,25.83v1.29c-1.94,13.35-30.57,24.54-64.58,24.54-35.08,0-64.57-11.83-64.57-25.83,0-7.1,8-14.85,20.23-19.59a2.18,2.18,0,0,0-1.51-4.09c-14.2,5.39-22.81,14.43-22.81,23.47a6.83,6.83,0,0,0,.21,1.94c.86,7.1,6.24,31.42,40.68,40v6.89a2.09,2.09,0,0,0,1.73,2.15,107.8,107.8,0,0,0,26.26,2.59,133.54,133.54,0,0,0,26.26-2.59,2.08,2.08,0,0,0,1.72-2.15V457.3C364.57,448.91,370,424.58,370.82,417.48Zm-45,45.2a109.14,109.14,0,0,1-23.68,2.16,124,124,0,0,1-23.68-2.16v-4.3a131.48,131.48,0,0,0,47.36,0Zm-23.68-6.24c-38.53,0-54-14.42-60.27-26.26,11.62,9.26,34,15.5,60.27,15.5,26,0,48.22-6,60.06-15.07C355.53,442.24,340,456.44,302.15,456.44Z"/><path class="cls-1" d="M1118.71,586.54h-2.11v-2.11A10.46,10.46,0,0,0,1106,573.87h-27.1a2.11,2.11,0,0,0,0,4.22H1106a6.22,6.22,0,0,1,6.33,6.34v2.11h-73.91a2.11,2.11,0,0,0,0,4.22h80.25a2,2,0,0,1,2.11,2.11V595h-114v-2.12a2,2,0,0,1,2.11-2.11h31.92a2.11,2.11,0,1,0,0-4.22h-25.59v-2.11a6.23,6.23,0,0,1,6.34-6.34h59.13a2.11,2.11,0,0,0,0-4.22h-59.13A10.46,10.46,0,0,0,1011,584.43v2.11h-2.11a6.22,6.22,0,0,0-6.34,6.33v16.9a10.46,10.46,0,0,0,10.56,10.56,10.12,10.12,0,0,0,8.45-4.23,10.46,10.46,0,0,0,14.57,2.33,12.19,12.19,0,0,0,2.32-2.33,10.46,10.46,0,0,0,14.57,2.33,12.24,12.24,0,0,0,2.33-2.33,10.46,10.46,0,0,0,14.57,2.33,12.19,12.19,0,0,0,2.32-2.33,10.46,10.46,0,0,0,14.57,2.33,11.91,11.91,0,0,0,2.32-2.33c1.9,2.75,6.27,4.23,9.65,4.23a2.12,2.12,0,0,0,0-4.23c-3.59,0-7.53-2.74-7.53-6.33V599.21h12.67v10.56a10.45,10.45,0,0,0,10.55,10.56,11.36,11.36,0,0,0,6.34-2.12v44.35H1088.3a13.72,13.72,0,0,0,7.18-12.67,7.21,7.21,0,0,0-.21-2.11h4.43a2,2,0,0,0,2.11-2.11,4.23,4.23,0,1,1,8.45,0,4,4,0,0,1-1.06,2.74,2.23,2.23,0,0,0,0,2.75,4.4,4.4,0,0,1,1.06,2.74,4.23,4.23,0,1,1-8.45,0,2.11,2.11,0,1,0-4.22,0,8.45,8.45,0,1,0,16.89,0,9.64,9.64,0,0,0-1-4.22,7.46,7.46,0,0,0,1-4.22A8.47,8.47,0,0,0,1106,637a8.56,8.56,0,0,0-8.24,6.33H1094c-4.43-9.71-19-10.56-24.07-10.56a17.09,17.09,0,0,0-11,4,5,5,0,0,1-1.69-1.27,18.54,18.54,0,0,0-17.53-6.76,18,18,0,0,0-3.59.85,19,19,0,0,0-20.48,30.62,10.86,10.86,0,0,0,2.32,2.11h-11.4v-56a2,2,0,0,0-2.12-2.11c-1.26,0-2.11,5-2.11,6.31v87.71a2.12,2.12,0,0,0,4.23,0V675h114v23.23a2.11,2.11,0,1,0,4.22,0V592.66A6,6,0,0,0,1118.71,586.54ZM1013.12,616.1a6.21,6.21,0,0,1-6.33-6.33V599.21h12.67v10.56A6.22,6.22,0,0,1,1013.12,616.1Zm16.9,0a6.22,6.22,0,0,1-6.34-6.33V599.21h12.67v10.56A6.21,6.21,0,0,1,1030,616.1Zm16.89,0a6.22,6.22,0,0,1-6.34-6.33V599.21h12.67v10.56A6.21,6.21,0,0,1,1046.91,616.1Zm16.89,0a6.21,6.21,0,0,1-6.33-6.33V599.21h12.67v10.56A6.22,6.22,0,0,1,1063.8,616.1Zm16.9,0a6.22,6.22,0,0,1-6.34-6.33V599.21H1087v10.56A6.21,6.21,0,0,1,1080.7,616.1Zm33.78,0a6.21,6.21,0,0,1-6.33-6.33V599.21h12.67v10.56A6.22,6.22,0,0,1,1114.48,616.1Zm-23.22,33.79c0,9.29-9.93,11.83-16.9,12.46l.42-.42a14.94,14.94,0,0,0-1-20.91,13.9,13.9,0,0,0-6.55-3.38,16.41,16.41,0,0,1,3.17-.42C1076.47,637.22,1091.26,638.49,1091.26,649.89Zm-50.69-16.68a14.41,14.41,0,0,1,13.52,5.28,8.59,8.59,0,0,0,7.81,3.16,11.54,11.54,0,0,1,3.8,0,10.45,10.45,0,0,1,8.24,12.46,10.63,10.63,0,0,1-10.35,8.45h-21.11a14.7,14.7,0,0,1-14.79-14.78A15.12,15.12,0,0,1,1040.57,633.21ZM1019,657.7a14.53,14.53,0,0,1-3.59-11.61,15,15,0,0,1,12.45-12.88,7,7,0,0,1,3,0,18.62,18.62,0,0,0-3,26.39,22.56,22.56,0,0,0,3.17,3.17h-.84A15.44,15.44,0,0,1,1019,657.7ZM1006.79,671v-4.23h114V671Z"/><path class="cls-1" d="M1042.69,658.34h12.67a2.12,2.12,0,0,0,0-4.23h-12.67a6.22,6.22,0,0,1-6.34-6.33v-.85a6.52,6.52,0,0,1,5.28-5.49,5.91,5.91,0,0,1,5.91,2.33,16.5,16.5,0,0,0,15.84,6.12h.85a2.3,2.3,0,0,1,1.69,1.69v.21a2,2,0,0,1-2.12,2.11,2.12,2.12,0,0,0,0,4.23,6.23,6.23,0,0,0,6.34-6.34V651a6.5,6.5,0,0,0-5.07-5.49,4.16,4.16,0,0,0-2.32,0,12.7,12.7,0,0,1-11.83-4.65,10.49,10.49,0,0,0-18.58,5.28v1.27A10.27,10.27,0,0,0,1042.69,658.34Z"/><circle class="cls-1" cx="1042.69" cy="647.78" r="2.11"/><path class="cls-1" d="M1055.36,679.45h-42.24a2,2,0,0,0-2.11,2.12v16.89a2.11,2.11,0,1,0,4.22,0V683.68h38v14.78a2.12,2.12,0,0,0,4.23,0V681.57A2.28,2.28,0,0,0,1055.36,679.45Z"/><path class="cls-1" d="M1114.48,679.45h-42.23a2,2,0,0,0-2.11,2.12v16.89a2.11,2.11,0,0,0,4.22,0V683.68h38v14.78a2.12,2.12,0,0,0,4.23,0V681.57A2.28,2.28,0,0,0,1114.48,679.45Z"/></svg>