<svg id="Ebene_1" data-name="Ebene 1" xmlns="http://www.w3.org/2000/svg" viewBox="0 0 1366 768"><defs><style>.cls-1,.cls-10,.cls-2,.cls-3,.cls-5{fill:#1c2a40;}.cls-2,.cls-3{stroke:#1c2a40;stroke-miterlimit:10;}.cls-3{stroke-width:2px;}.cls-10,.cls-26,.cls-4,.cls-5{isolation:isolate;}.cls-10,.cls-5{font-size:17px;}.cls-5{font-family:IBMPlexSerif-Bold, IBM Plex Serif;font-weight:700;}.cls-6{letter-spacing:-0.02em;}.cls-7{letter-spacing:0.01em;}.cls-8{letter-spacing:0.01em;}.cls-9{letter-spacing:0.02em;}.cls-10{font-family:IBMPlexSerif, IBM Plex Serif;}.cls-11{letter-spacing:0em;}.cls-12,.cls-35{letter-spacing:0em;}.cls-13{letter-spacing:-0.01em;}.cls-14{letter-spacing:-0.02em;}.cls-15{letter-spacing:-0.01em;}.cls-16{letter-spacing:-0.02em;}.cls-17{letter-spacing:-0.1em;}.cls-18{letter-spacing:-0.03em;}.cls-19{letter-spacing:-0.01em;}.cls-20{letter-spacing:0em;}.cls-21{letter-spacing:0.01em;}.cls-22{letter-spacing:-0.01em;}.cls-23{letter-spacing:-0.01em;}.cls-24{letter-spacing:0em;}.cls-25{letter-spacing:-0.01em;}.cls-26{fill:#00c1ff;opacity:0.1;}.cls-27{letter-spacing:-0.02em;}.cls-28{letter-spacing:-0.02em;}.cls-29{letter-spacing:-0.01em;}.cls-30{letter-spacing:0.01em;}.cls-31{letter-spacing:-0.01em;}.cls-32{letter-spacing:0.02em;}.cls-33{letter-spacing:0em;}.cls-34{letter-spacing:-0.09em;}.cls-35{font-family:Roboto-Regular, Roboto;}.cls-36{letter-spacing:0.03em;}.cls-37{letter-spacing:0.09em;}.cls-38{letter-spacing:0em;}.cls-39{letter-spacing:-0.01em;}.cls-40{letter-spacing:-0.01em;}.cls-41{letter-spacing:-0.03em;}.cls-42{letter-spacing:-0.07em;}.cls-43{letter-spacing:-0.01em;}.cls-44{letter-spacing:-0.06em;}.cls-45{letter-spacing:0.02em;}</style></defs><path class="cls-1" d="M467.35,383.68a4.29,4.29,0,0,0-4.54,4.54,4,4,0,0,0,2.73,4.08c22.24,9.08,55.37,14.07,90.32,14.07,57.19,0,118-14.52,118-40.85,0-25.87-59.46-40.39-115.74-40.85h0a4.29,4.29,0,0,0-4.54,4.54,4,4,0,0,0,2.72,4.09c14.08,5.44,22.25,12.25,22.25,18.61a18,18,0,0,1-5.45,12.25c-18.16,17.25-74.89,20.43-105.76,19.52Zm112.11-13.16a25.14,25.14,0,0,0,8.17-18.61c0-5-2.27-10.9-10.44-17.7,52.66,3.17,87.61,18.15,87.61,31.31,0,15-44.94,31.78-108.94,31.78a296.36,296.36,0,0,1-56.73-5c27.68-1.36,64-6.35,80.33-21.78Z"/><path class="cls-1" d="M453.74,351.91v1.36a18.26,18.26,0,0,0-11.35,16.79,4.12,4.12,0,0,0,1.81,3.63,57.47,57.47,0,0,0,15,7.27c.46,0,.91.45,1.36.45a4.29,4.29,0,0,0,4.54-4.54,4.36,4.36,0,0,0-3.17-4.08,107.13,107.13,0,0,1-10.44-4.54,9.2,9.2,0,0,1,7.71-6.81,5,5,0,0,0,4.09-5c0-.46,0-.91-.46-.91a7.31,7.31,0,0,1,.46-6.81,10.82,10.82,0,0,1,7.71-5.45,4.71,4.71,0,0,0,3.64-5.44v-.46a7.83,7.83,0,0,1-.46-4.54,10.29,10.29,0,0,1,7.72-7.71,4.42,4.42,0,0,0,3.63-4.54v-.46a9.1,9.1,0,0,1,9.08-9.07H495a5.19,5.19,0,0,0,3.63-1.36,8.77,8.77,0,0,1,12.71-.46.45.45,0,0,1,.45.46c.91.9,2.27,1.81,3.64,1.36h.9a9.1,9.1,0,0,1,9.08,9.07v.46a4.42,4.42,0,0,0,3.63,4.54,10.3,10.3,0,0,1,7.72,7.71,7.83,7.83,0,0,1-.46,4.54,4.73,4.73,0,0,0,2.73,5.9h.45a9.71,9.71,0,0,1,7.72,5.45,11.61,11.61,0,0,1,.45,6.81,4.73,4.73,0,0,0,2.72,5.9c.46,0,.91,0,.91.45a10.77,10.77,0,0,1,5,2.73,4.51,4.51,0,0,0,6.81-5.9h0c-1.36-1.82-3.63-3.18-5.9-4.54v-1.37A18.27,18.27,0,0,0,545.88,336v-1.36a17.57,17.57,0,0,0-11.81-16.79,18.4,18.4,0,0,0-17.24-15,18.57,18.57,0,0,0-24.06,0c-8.62.45-15.89,6.35-17.25,15-6.81,2.72-11.8,9.53-11.8,16.79V336C458.27,337.84,453.74,344.19,453.74,351.91Z"/><path class="cls-1" d="M623.94,374.6A13.62,13.62,0,1,0,610.33,361,13.65,13.65,0,0,0,623.94,374.6Zm0-18.15a4.54,4.54,0,1,1-4.53,4.53A4.28,4.28,0,0,1,623.94,356.45Z"/><path class="cls-1" d="M577.19,387.76l13.62,4.54c.45,0,.91.46,1.36.46.91,0,1.36,0,1.82-.46l18.15-9.07a4,4,0,0,0,1.82-5.9c-.45-.91-1.36-1.82-1.82-1.82L594,366.43c-1.82-.91-3.63-.45-5.45.91L574.93,381a4.38,4.38,0,0,0,0,6.35C575.83,387.31,576.29,387.76,577.19,387.76Zm15.89-12.25,7.26,3.63-8.17,4.09-5-1.82Z"/><path class="cls-1" d="M700.65,369.61c0-.91.46-4.09.46-4.09,0-35.85-64-63.54-145.25-63.54H542.24a4.54,4.54,0,0,0-4.53,4.54h0a4.87,4.87,0,0,0,4.53,4.54h13.17c74,0,136.16,25,136.16,54.46v2.73C687.49,396.39,627.12,420,555.41,420c-74,0-136.17-25-136.17-54.47,0-15,16.79-31.31,42.67-41.3a4.59,4.59,0,1,0-3.18-8.62c-30,11.34-48.11,30.41-48.11,49.47,0,0,0,3.63.45,4.08,1.82,15,13.16,66.27,85.79,84.43V468.1a4.42,4.42,0,0,0,3.63,4.54,227,227,0,0,0,55.37,5.45,283,283,0,0,0,55.38-5.45,4.43,4.43,0,0,0,3.63-4.54V453.58C687.49,435.88,698.84,384.59,700.65,369.61Zm-94.86,95.32a229.87,229.87,0,0,1-49.93,4.53,262.61,262.61,0,0,1-49.93-4.53v-9.08a276.83,276.83,0,0,0,99.86,0Zm-49.93-13.17c-81.25,0-113.93-30.41-127.09-55.37,24.51,19.52,71.72,32.68,127.09,32.68,54.92,0,101.67-12.71,126.64-31.77C668.43,421.81,635.75,451.76,555.86,451.76Z"/><path class="cls-2" d="M1077.11,302.29h-3.51v-3.52a17.44,17.44,0,0,0-17.6-17.6h-45.16a3.52,3.52,0,0,0,0,7H1056a10.38,10.38,0,0,1,10.56,10.56v3.52H943.37a3.52,3.52,0,0,0,0,7h133.74a3.32,3.32,0,0,1,3.52,3.52v3.52H890.58v-3.52a3.33,3.33,0,0,1,3.52-3.52h53.2a3.52,3.52,0,1,0,0-7H904.66v-3.52a10.37,10.37,0,0,1,10.56-10.56h98.54a3.52,3.52,0,0,0,0-7H915.22a17.43,17.43,0,0,0-17.6,17.6v3.52H894.1a10.37,10.37,0,0,0-10.56,10.56V341a17.43,17.43,0,0,0,17.6,17.6,16.87,16.87,0,0,0,14.08-7,17.42,17.42,0,0,0,24.28,3.87,19.71,19.71,0,0,0,3.87-3.87,17.43,17.43,0,0,0,24.29,3.87,20,20,0,0,0,3.87-3.87,17.42,17.42,0,0,0,24.28,3.87,20,20,0,0,0,3.88-3.87,17.42,17.42,0,0,0,24.28,3.87,19.71,19.71,0,0,0,3.87-3.87c3.17,4.58,10.45,7,16.08,7a3.52,3.52,0,0,0,0-7c-6,0-12.56-4.57-12.56-10.56V323.41h21.12V341a17.42,17.42,0,0,0,17.6,17.6,18.94,18.94,0,0,0,10.55-3.52V429h-54.2a22.86,22.86,0,0,0,12-21.12,12.07,12.07,0,0,0-.35-3.52h7.39a3.32,3.32,0,0,0,3.52-3.51,7,7,0,1,1,14.08,0,6.73,6.73,0,0,1-1.76,4.57,3.69,3.69,0,0,0,0,4.58,7.41,7.41,0,0,1,1.76,4.57,7,7,0,0,1-14.08,0,3.52,3.52,0,1,0-7,0,14.08,14.08,0,1,0,28.16,0,16.11,16.11,0,0,0-1.76-7,12.41,12.41,0,0,0,1.76-7,14.14,14.14,0,0,0-27.81-3.52h-6.33c-7.39-16.19-31.68-17.59-40.13-17.59a28.57,28.57,0,0,0-18.3,6.68,8.36,8.36,0,0,1-2.81-2.11,30.86,30.86,0,0,0-29.21-11.26,29.21,29.21,0,0,0-6,1.41,31.67,31.67,0,0,0-34.14,51,18.8,18.8,0,0,0,3.87,3.52h-19V335.29a3.33,3.33,0,0,0-3.52-3.52c-2.11,0-3.52,8.41-3.52,10.52V488.47a3.52,3.52,0,0,0,7,0V449.76h190v38.71a3.52,3.52,0,0,0,7,0v-176C1087.67,307.22,1083.1,302.29,1077.11,302.29Zm-176,49.27A10.37,10.37,0,0,1,890.58,341V323.41H911.7V341A10.37,10.37,0,0,1,901.14,351.56Zm28.16,0A10.36,10.36,0,0,1,918.74,341V323.41h21.11V341A10.36,10.36,0,0,1,929.3,351.56Zm28.15,0A10.37,10.37,0,0,1,946.89,341V323.41H968V341A10.37,10.37,0,0,1,957.45,351.56Zm28.16,0A10.36,10.36,0,0,1,975.05,341V323.41h21.12V341A10.37,10.37,0,0,1,985.61,351.56Zm28.15,0A10.36,10.36,0,0,1,1003.21,341V323.41h21.11V341A10.36,10.36,0,0,1,1013.76,351.56Zm56.32,0A10.36,10.36,0,0,1,1059.52,341V323.41h21.11V341A10.36,10.36,0,0,1,1070.08,351.56Zm-38.72,56.31c0,15.49-16.54,19.71-28.15,20.77l.7-.7a24.9,24.9,0,0,0-1.76-34.85,23.28,23.28,0,0,0-10.91-5.63,27.32,27.32,0,0,1,5.28-.7C1006.72,386.76,1031.36,388.87,1031.36,407.87Zm-84.47-27.8a24.05,24.05,0,0,1,22.53,8.8,14.36,14.36,0,0,0,13,5.28,19.27,19.27,0,0,1,6.34,0,17.41,17.41,0,0,1,13.72,20.76A17.7,17.7,0,0,1,985.26,429h-35.2a24.49,24.49,0,0,1-24.64-24.64A25.24,25.24,0,0,1,946.89,380.07ZM911,420.9a24.34,24.34,0,0,1-6-19.36,25,25,0,0,1,20.77-21.47,11.66,11.66,0,0,1,4.92,0,31,31,0,0,0-4.92,44,36.51,36.51,0,0,0,5.28,5.28h-1.41c-7.39-.35-14.08-3.16-18.66-8.44Zm-20.41,22.17v-7h190.05v7Z"/><path class="cls-2" d="M950.41,422h21.12a3.52,3.52,0,0,0,0-7H950.41a10.37,10.37,0,0,1-10.56-10.56V403a10.84,10.84,0,0,1,8.8-9.15,9.84,9.84,0,0,1,9.86,3.87,27.48,27.48,0,0,0,26.39,10.2h1.41a3.83,3.83,0,0,1,2.82,2.82V411a3.33,3.33,0,0,1-3.52,3.52,3.52,3.52,0,1,0,0,7A10.38,10.38,0,0,0,996.17,411v-1.41a10.89,10.89,0,0,0-8.45-9.15,7.26,7.26,0,0,0-3.87,0,21.13,21.13,0,0,1-19.71-7.74,17.48,17.48,0,0,0-31,8.8v2.11C932.82,414.21,940.56,422,950.41,422Z"/><circle class="cls-2" cx="950.41" cy="404.35" r="3.52"/><path class="cls-2" d="M971.53,457.15H901.14a3.33,3.33,0,0,0-3.52,3.52v28.15a3.52,3.52,0,1,0,7,0V464.19H968v24.63a3.52,3.52,0,0,0,7,0V460.67A3.79,3.79,0,0,0,971.53,457.15Z"/><path class="cls-2" d="M1070.08,457.15H999.69a3.32,3.32,0,0,0-3.52,3.52v28.15a3.52,3.52,0,1,0,7,0V464.19h63.35v24.63a3.52,3.52,0,0,0,7,0V460.67A3.79,3.79,0,0,0,1070.08,457.15Z"/><path class="cls-1" d="M847.78,349.83l-10.25-5.74a53.4,53.4,0,0,0-9-62.72h0L814.16,267a4.06,4.06,0,0,0-5.74,5.74l12.71,12.71a94.14,94.14,0,0,1-7,16L795.71,283a72.44,72.44,0,0,0,6.15-26.65,4.66,4.66,0,0,0-1.23-3.28l-15.58-15.57h0c-3.28-3.28-9.43-6.15-20.9-2.46a4.69,4.69,0,0,0-2.87,5.32c.41,2.46,2.87,3.28,5.32,2.87h0c5.74-1.64,10.25-1.64,12.71.41h0c4.1,4.1.82,16.81-9.43,30.75-1.23-1.23-3.28-1.64-4.51-.82a4.46,4.46,0,0,1-3.27,0,3.2,3.2,0,0,1-1.64-1.64,11.26,11.26,0,0,0-2.05-12.71c-4.92-4.92-13.94-3.69-20.09,2.87s-7.79,15.58-2.87,20.09a10.82,10.82,0,0,0,7.79,2.87,7,7,0,0,0,2.87-.41,18.54,18.54,0,0,0,9.84-5.74.4.4,0,0,1,.41-.41,10.82,10.82,0,0,0,7.79,2.87c-1.64,1.64-2.87,3.28-4.51,4.92a85.48,85.48,0,0,1-27.47,19.27A27.21,27.21,0,0,1,724,308,24.93,24.93,0,0,1,735,298.59a4.15,4.15,0,0,0-2.87-7.79h0a32.11,32.11,0,0,0-16.4,14.76c-2-2.87-1.64-8.61,1.23-15.17a92.35,92.35,0,0,1,19.27-27.47A111.43,111.43,0,0,1,753.49,249a4.15,4.15,0,1,0-4.51-7c-6.56,4.51-13.12,9.43-18.45,15.17a99,99,0,0,0-21.32,30.34c-4.51,11.07-4.1,19.68.82,25L753.49,356h0a53.48,53.48,0,0,0,62.72,9L822,375.25a4.54,4.54,0,0,0,5.74,1.64c.41,0,.41-.41.82-.82l20.5-20.5a4,4,0,0,0,0-5.74c-.82.41-1.23,0-1.23,0Zm-104.13-73a3.6,3.6,0,0,1-2.87-.41c-1.23-1.23-.82-5.33,2.87-8.61,3.69-3.69,7.38-4.1,8.61-2.87s.82,5.33-2.87,8.61A11.69,11.69,0,0,1,743.65,276.86ZM826.87,292a46.24,46.24,0,0,1,7.79,34.44,26,26,0,0,0-6.56-10.66l-8.61-8.61A103.65,103.65,0,0,0,826.87,292Zm-33.62-34.44a73.8,73.8,0,0,1-4.1,18.86l-7-7c2.87-5.33,5.33-11.07,6.15-16.81Zm-28.7,34.85a115,115,0,0,0,13.12-15.58l7.79,7.79a68.8,68.8,0,0,1-29.1,29.11L748.57,306a126,126,0,0,0,16-13.53Zm-30.33,21.32c2.46-1.23,4.92-2.05,7.38-3.69l7,7a59.79,59.79,0,0,1-18.86,4.1l-4.92-4.92C728.07,316.22,731.35,315,734.22,313.76Zm2.46,14.76a90.74,90.74,0,0,0,20.5-6.15h0a74.63,74.63,0,0,0,34-31.57l18,18a97.22,97.22,0,0,1-13.12,16c-2,2.05-4.51,4.1-6.56,6.15-1.64,1.64-2,4.1-.41,5.73s4.1,2.05,5.74.41a52.07,52.07,0,0,0,7-6.55,97.22,97.22,0,0,0,13.12-16l7.38,7.38a20.58,20.58,0,1,1-29.11,29.1h0l-23.77-23.77a4.06,4.06,0,1,0-5.74,5.74h0l9,9a89.72,89.72,0,0,1-16,7Zm27.47,26.64a104,104,0,0,0,15.16-7.38l8.61,8.61A26,26,0,0,0,798.58,363,46.21,46.21,0,0,1,764.15,355.16Zm61.9,11.89-3.28-6.15A48.58,48.58,0,0,0,833,350.65l6.15,3.28Z"/><path class="cls-1" d="M716.59,228.9a18.54,18.54,0,0,0-9.84,5.74c-6.56,6.55-7.79,15.57-2.87,20.49a10.52,10.52,0,0,0,7.38,2.87A20.31,20.31,0,0,0,724,252.26a99,99,0,0,0,21.32-30.33c4.51-11.07,4.1-19.68-.82-25L701,153.46h0a53.28,53.28,0,0,0-59.85-10.25l-4.51-8.6a4.12,4.12,0,0,0-4.51-2.05l-20.5,4.1a4.69,4.69,0,0,0-3.28,2.87l-4.1,16.39a4.12,4.12,0,0,0,2,4.51l10.25,5.74a53.5,53.5,0,0,0,9,62.73h0l.41.41h0l6.56,6.56a4.06,4.06,0,0,0,5.74-5.74l-4.92-4.92a94.14,94.14,0,0,1,7-16l18.45,18.45a91.18,91.18,0,0,0-5.33,18L649.77,242a4.06,4.06,0,0,0-5.74,5.74h0l25,25a15.48,15.48,0,0,0,11.07,4.1A46.42,46.42,0,0,0,701,270.3a4.22,4.22,0,1,0-4.1-7.38h0c-9.84,5.33-18,7-21.73,4.51A32.11,32.11,0,0,0,689.94,251a4.15,4.15,0,0,0-7.79-2.87h0a20.71,20.71,0,0,1-9.43,11.07c1.23-8.61,8.61-22.54,22.14-36.07l.41-.41-2.87-2.87-3.28-2.46A115,115,0,0,0,676,233l-7.79-7.79a68.77,68.77,0,0,1,29.11-29.11l7.79,7.79c-.82.41-1.64,1.23-2.46,1.64a4.1,4.1,0,0,0,4.92,6.56h0c15.17-11.07,27.47-13.53,31.16-9.84,2.46,2.46,2,8.61-.82,16a85.3,85.3,0,0,1-9,15.58c-.41-.82-1.23-1.64-1.64-2.46A12.74,12.74,0,0,0,716.59,228.9Zm0-48a91.27,91.27,0,0,0-18,5.33L680.1,167.81a90.12,90.12,0,0,1,16-7Zm-27.06-26.24a103.65,103.65,0,0,0-15.17,7.38l-8.6-8.61a26,26,0,0,0-10.66-6.56A46.22,46.22,0,0,1,689.53,154.69Zm-77.07,0,2.87-11.07,14.76-2.87,3.28,6.15a63.89,63.89,0,0,0-8.2,6.56,71.38,71.38,0,0,0-4.92,5.74Zm13.94,62.73a45.65,45.65,0,0,1-7.79-34,26,26,0,0,0,6.56,10.66l8.61,8.61A99.18,99.18,0,0,0,626.4,217.42Zm38.54,39.76L660,252.26a73.64,73.64,0,0,1,4.1-18.85l7,7a54.48,54.48,0,0,0-6.14,16.81Zm9.42-54.52a77.93,77.93,0,0,0-12.29,16.4l-18-18a97.22,97.22,0,0,1,13.12-16,71.27,71.27,0,0,1,6.15-5.33c1.64-1.64,2.05-4.1.41-5.74s-4.1-2.05-5.74-.41c-2.05,2-4.51,4.1-6.56,6.15a97.22,97.22,0,0,0-13.12,16l-7-7.38c-8.2-7.79-8.2-20.91-.41-29.11s20.91-8.2,29.11-.41l.41.41,31.15,31.16a65.67,65.67,0,0,0-17.22,12.3Zm37.72-3.28-7-7a59.79,59.79,0,0,1,18.86-4.1l4.51,4.51a72.15,72.15,0,0,0-16.4,6.56Zm6.15,46.73c-3.69,3.69-7.38,4.1-8.61,2.87s-.82-5.33,2.87-8.61a11.67,11.67,0,0,1,5.74-3.27h1.23c.82,0,1.23,0,1.64.41,1.23,1.23.41,5.32-2.87,8.6Z"/><path class="cls-3" d="M253.78,309.05c-6.39-4.2-12.6-4.91-17.38-3-10.67,5-11.51,23.9-7.45,32.17a17.7,17.7,0,0,0,10.87,9.53,18.4,18.4,0,0,0,11.19.33,15.16,15.16,0,0,0,3.89-1.14,20.08,20.08,0,0,0,10.83-10.59A18.67,18.67,0,0,0,266,322,41.2,41.2,0,0,0,253.78,309.05Zm6.84,25.34a14,14,0,0,1-6.38,6.86c-.34.14-.47-.2-.81-.07-1.09-.76-4.42-4.18-7.46-10.88a30.36,30.36,0,0,1-3.35-12.5,2.24,2.24,0,0,0-2.58-2.54h0a2.23,2.23,0,0,0-2.54,2.58h0a41.55,41.55,0,0,0,3.82,14.69,49.75,49.75,0,0,0,6.77,11.15,15.19,15.19,0,0,1-7.23-.31,12.63,12.63,0,0,1-7.81-6.79c-3.31-7.38-2-22.11,5-25.29l1-.4c3.83-.33,8.05.38,11.11,3.12A25.63,25.63,0,0,1,260,324.77h0c2.24,2.67,2.09,6.28.64,9.62Zm-38.57-52.72c3.81,1.66,8.11,1.54,12.14.74a17.81,17.81,0,0,0,13-11.06h0a32.86,32.86,0,0,0,.22-17.46c-1.67-7.24-5.33-12.51-10.3-14.11-11-3.94-24.54,8.9-27.79,17.68C206,267.07,211.83,277.81,222.05,281.67Zm-7.74-22.62a26.78,26.78,0,0,1,16.3-14.72,10.82,10.82,0,0,1,5.12-.05c3.2,1.11,5.85,4.8,7.19,10.2a28.25,28.25,0,0,1-.28,14.33A13.58,13.58,0,0,1,226,276.58c-.13-.35-.13-.35-.61-.55-.2-1.51-.11-6.28,2.31-13.16a26.84,26.84,0,0,1,6.26-11.16,2.24,2.24,0,0,0,.16-3.62c-1.23-1.09-2.52-1.37-3.62-.15l-.34.14a36.32,36.32,0,0,0-7.43,13.2,44.17,44.17,0,0,0-2.79,13C214.86,271.47,212.64,264.85,214.31,259.05ZM315.69,317.8c-5-1.6-11.19-.33-17,3.94a30,30,0,0,0-10.77,13.73c-3.32,9.61,2.15,20.48,12.71,24.22,3.81,1.65,8.11,1.54,12.14.74a17.85,17.85,0,0,0,13-11.06C329,340.58,326.73,321.74,315.69,317.8Zm5,29.63A13.57,13.57,0,0,1,304,355.2c-.14-.34-.14-.34-.62-.55-.19-1.5-.1-6.28,2.32-13.16A26.79,26.79,0,0,1,312,330.33a2.86,2.86,0,0,0-.32-3.82,2.48,2.48,0,0,0-3.14.05,36.3,36.3,0,0,0-7.43,13.21,55.23,55.23,0,0,0-2.65,11.31c-.21.48-.07.82-.28,1.29a13.78,13.78,0,0,1-5.73-15.51,28.28,28.28,0,0,1,9.06-11.08,19.68,19.68,0,0,1,7.25-3.65,7.75,7.75,0,0,1,5.12,0C321.32,325.06,323.64,339.94,320.67,347.43Zm-14.62-98.11c-6.37-8.15-18.52-8.89-27.35-2.24s-10.73,18.84-4.83,26.79h0c4.75,6,17.47,13.25,27.1,10.63a14.09,14.09,0,0,0,5-2.36c4.24-3.26,6.25-9.19,5.74-16.49a30.63,30.63,0,0,0-5.66-16.33Zm.67,16.72q.48,8.7-3.53,12.06c-6,4.75-19.85-1.26-24.73-7.62a14.37,14.37,0,0,1,1.92-18.14l.69-.27c1.29.28,5.17,3.09,9.92,9.12a37.33,37.33,0,0,1,6.42,11.29c.2,1.5,1.63,2.12,3.13,1.92h0c1.51-.2,2.13-1.63,1.93-3.13a41.6,41.6,0,0,0-7.24-13.34,68.47,68.47,0,0,0-8.15-8.63c-.47-.21-.61-.55-1.08-.76a13.16,13.16,0,0,1,16,3.56A28.22,28.22,0,0,1,306.72,266Zm-114.1,93.21c-4.34,8-5.52,27.06,4.69,32.91a14.61,14.61,0,0,0,11.11,1.14c7.79-2.28,15-7.09,19.38-14,4.88-8.65,1-20.54-8.61-25.83-9.73-5.64-21.69-2.9-26.57,5.74Zm30.48,17.2c-3.92,7.08-16.65,14.86-23.38,10.81-6.6-3.72-6.6-18.73-2.68-25.81a13.36,13.36,0,0,1,17.42-4.9l.27.69c.2,1.5-.84,5.86-4.56,12.46a33.77,33.77,0,0,1-7.82,10.2,2.41,2.41,0,0,0-.63,3.41,2.33,2.33,0,0,0,2.72.9l1-.41a34.8,34.8,0,0,0,9.47-12,44,44,0,0,0,4.69-12.12c5,4.73,6.09,11.42,3.47,16.8Zm-19.32-41c6.25-9.18,4.2-21.4-4.24-26.77a32.38,32.38,0,0,0-16.76-4.44c-7.57-.17-13.25,2.46-16.27,6.81s-2.92,10.63.12,17.33a31.48,31.48,0,0,0,11,13.84,18.42,18.42,0,0,0,14,2.38C196.38,342.75,201.1,339.71,203.78,335.49Zm-32.16-9.43c-2-5.13-2.27-9.77-.55-12.42a8.64,8.64,0,0,1,6.43-3.72,20.45,20.45,0,0,1,5.32-.52,33.15,33.15,0,0,1,14,3.54,14.08,14.08,0,0,1,3.87,17.83l-.68.27c-1.5.19-6-1.19-12.05-5.52a32.8,32.8,0,0,1-9.31-8.57c-.88-1.23-2.31-1.85-3.54-1h0c-1.23.88-1.85,2.31-1,3.54h0a33.53,33.53,0,0,0,11.14,10.22A44.13,44.13,0,0,0,197,335.39a13.28,13.28,0,0,1-16.32,1.7C176.15,334.54,173.38,330.5,171.62,326.06Z"/><path class="cls-3" d="M340.63,322.17c-7.24,1.68-12.51,5.34-14.1,10.31-4.28,11.17,9,24.88,17.47,28.26a18.45,18.45,0,0,0,14.27-.89,20.9,20.9,0,0,0,8.08-7.53A11.14,11.14,0,0,0,368,348.5a19.71,19.71,0,0,0,0-15,17.77,17.77,0,0,0-10.32-10.14A26.53,26.53,0,0,0,340.63,322.17Zm22.8,12.73a15,15,0,0,1,.5,9.29c-.34.13-.34.13-.55.61-1.36.54-6.27.1-13.29-2.66a30.16,30.16,0,0,1-11.16-6.26c-.88-1.23-2.72-.9-3.61-.15h0c-1.24.88-.9,2.72-.16,3.61h0a33,33,0,0,0,13.21,7.43A50.16,50.16,0,0,0,361,349.7a14.71,14.71,0,0,1-5.2,4.82,12.49,12.49,0,0,1-10,.77c-7.36-2.63-17.06-14.2-14.3-21.22.21-.47.42-.95.76-1.09,2.27-3.26,5.89-5.09,9.92-5.89a28.25,28.25,0,0,1,14.33.28h0a14.71,14.71,0,0,1,6.92,7.53Zm-64.63-9.65a21.79,21.79,0,0,0,9-8.28,18.44,18.44,0,0,0,1.17-17.05h0a32.94,32.94,0,0,0-12.08-12.61c-6.26-3.85-12.6-4.9-17.25-2.67-10.67,5-10.69,24-7,32.37C277.09,326.31,288.81,330,298.8,325.25Zm-21.38-10.13a27.83,27.83,0,0,1,.78-22,7.72,7.72,0,0,1,3.77-3.46c2.94-1.56,7.65-.65,12.34,2.24,4.22,2.68,7.89,6,10,10.28a14.2,14.2,0,0,1-6.15,17.44c-.34.13-.34.13-.82-.07-1.09-.76-4.41-4.19-7.45-10.89a37.4,37.4,0,0,1-3.7-12.36,2.32,2.32,0,0,0-2.24-2.68c-1.16.07-2.73,1.08-2.67,2.24l.14.34a34.62,34.62,0,0,0,4.16,14.56,50.34,50.34,0,0,0,7.11,11A14,14,0,0,1,277.42,315.12Zm93.86-39.4c-4.65,2.23-8.08,7.53-9.08,15a34.16,34.16,0,0,0,2.11,17.34c4.46,9.3,16,12.63,26,7.9a21.76,21.76,0,0,0,9-8.28,18.47,18.47,0,0,0,1.17-17C396.77,282.25,382,270.72,371.28,275.72Zm24.55,17.17a14.21,14.21,0,0,1-6.15,17.44c-.34.13-.34.13-.82-.07-1.09-.76-4.42-4.19-7.46-10.89A37.38,37.38,0,0,1,377.71,287a2.63,2.63,0,0,0-2.92-2.41c-1.16.07-2.39.95-2.33,2.11a34.57,34.57,0,0,0,4.16,14.55c1.83,3.63,3.52,6.91,6.23,9.79.14.34.61.55.88,1.23a13.26,13.26,0,0,1-14.91-6.76,31.54,31.54,0,0,1-1.7-14.33,20.12,20.12,0,0,1,2.49-7.7,7.68,7.68,0,0,1,3.77-3.46C380.42,276.85,392.66,285.85,395.83,292.89Zm-60.9-50.23c-9.95-1.2-19.4,6.87-20.68,17.64-1.49,11.25,5.9,21,15.86,22.18h0c7.84.86,21.57-3.37,26.59-11.67a19.26,19.26,0,0,0,1.94-5.11c.64-5.39-2.2-10.59-7.71-15.53a37.22,37.22,0,0,0-16-7.51Zm12,11.45c4.14,3.5,6.58,7.67,6,11.08-1,7.5-14.87,13.37-22.71,12.52a14.06,14.06,0,0,1-11.47-14c.35-.14.21-.48.55-.61,1.37-.54,6.08-1.61,13.24-.49a30.55,30.55,0,0,1,12.4,3.4,2.46,2.46,0,0,0,3.56-1h0a2.47,2.47,0,0,0-1-3.56,33.35,33.35,0,0,0-14.65-4.09,49.5,49.5,0,0,0-11.87-.05c-.34.13-.82-.08-1.16.06a13.5,13.5,0,0,1,13.82-9A21.56,21.56,0,0,1,347,254.11ZM312.24,397.37c2.69,8.81,15.31,22.79,26.65,19.5a16,16,0,0,0,8.7-7,35,35,0,0,0,3.73-23.59c-2.75-10-13.85-15.07-24.51-12.05-11,3.15-17.19,13.49-14.57,23.13Zm33.68-9.74c2.15,7.45-1.13,22.17-8.57,24.32s-17.91-8.34-20.19-16.13a13,13,0,0,1,1.55-10.09,16.17,16.17,0,0,1,7.46-6.11c.35-.13.48.21.82.08,1.09.75,3.53,4.92,5.88,11.89a36.37,36.37,0,0,1,1.85,12.7,2.85,2.85,0,0,0,2,3.15c1,.42,2.19-.47,2.74-1.08.21-.47.21-.47.41-.95a33.46,33.46,0,0,0-2-15,49.78,49.78,0,0,0-5.07-11.83,13.62,13.62,0,0,1,13.06,9.07ZM294,363.1c-2.34-10.93-12.27-18.07-22-15.8A34.9,34.9,0,0,0,256.83,356c-5.42,5.3-7.56,10.88-6.56,16.41,1.2,5.06,5.62,9.24,12.43,12.48A31.42,31.42,0,0,0,280,386.78a16.57,16.57,0,0,0,11.29-8.41A21.91,21.91,0,0,0,294,363.1ZM264.5,379.47c-5.11-1.93-8.78-5.23-9.31-8.57a11,11,0,0,1,1.81-7.43,19.9,19.9,0,0,1,3.5-4.15c3.42-3.32,7.8-6.24,12.52-7.31a13.92,13.92,0,0,1,15.3,9.76,1.26,1.26,0,0,0-.07.82c-.76,1.09-5.06,3.19-12.3,4.86a28.09,28.09,0,0,1-12.77.69,2.5,2.5,0,0,0-3.14,2h0a2.51,2.51,0,0,0,2,3.15h0a33.16,33.16,0,0,0,15.08-.82,53,53,0,0,0,12.57-4.17,13.78,13.78,0,0,1-10.22,13.12A30.89,30.89,0,0,1,264.5,379.47Z"/><g class="cls-4"><text class="cls-5" transform="translate(853.19 552.81)">If <tspan class="cls-6" x="17.02" y="0">y</tspan><tspan x="26.3" y="0">ou </tspan><tspan class="cls-7" x="51.14" y="0">e</tspan><tspan x="60.93" y="0">at m</tspan><tspan class="cls-8" x="97.43" y="0">e</tspan><tspan x="107.22" y="0">a</tspan><tspan class="cls-9" x="116.92" y="0">t</tspan><tspan x="123.69" y="0">,</tspan></text><text class="cls-10" transform="translate(982.59 552.81)"><tspan xml:space="preserve"> then it should </tspan><tspan class="cls-8" x="118.17" y="0">b</tspan><tspan x="128.5" y="0">e or</tspan><tspan class="cls-11" x="158.68" y="0">g</tspan><tspan x="167.87" y="0">anic </tspan></text><text class="cls-10" transform="translate(853.19 575.81)">and from s<tspan class="cls-7" x="85.8" y="0">p</tspan><tspan class="cls-12" x="96.39" y="0">ecie</tspan><tspan class="cls-13" x="128.74" y="0">s</tspan><tspan class="cls-12" x="136.86" y="0">-appropri</tspan><tspan class="cls-13" x="214.09" y="0">a</tspan><tspan x="223.21" y="0">t</tspan><tspan class="cls-14" x="229.21" y="0">e</tspan><tspan x="237.98" y="0">, regional pr</tspan><tspan class="cls-8" x="334.45" y="0">o</tspan><tspan x="344.21" y="0">ductio</tspan><tspan class="cls-8" x="394.78" y="0">n</tspan><tspan class="cls-12" x="405.82" y="0">, </tspan></text><text class="cls-10" transform="translate(853.19 598.81)">pre<tspan class="cls-15" x="27.06" y="0">f</tspan><tspan class="cls-12" x="32.78" y="0">er</tspan><tspan class="cls-13" x="49.42" y="0">a</tspan><tspan x="58.53" y="0">bly from the direct mar</tspan><tspan class="cls-16" x="243.62" y="0">k</tspan><tspan x="253.3" y="0">ete</tspan><tspan class="cls-17" x="277.52" y="0">r</tspan><tspan x="283.35" y="0">. </tspan></text><text class="cls-10" transform="translate(853.19 621.81)"><tspan class="cls-18">F</tspan><tspan x="10.22" y="0">ind out whether there are suppliers </tspan><tspan class="cls-19" x="296.07" y="0">o</tspan><tspan x="305.55" y="0">f or</tspan><tspan class="cls-20" x="332.43" y="0">g</tspan><tspan class="cls-12" x="341.63" y="0">anic m</tspan><tspan class="cls-8" x="396.04" y="0">e</tspan><tspan class="cls-13" x="405.33" y="0">a</tspan><tspan x="414.44" y="0">t </tspan></text><text class="cls-10" transform="translate(853.19 644.91)">in <tspan class="cls-13" x="20.16" y="0">y</tspan><tspan x="29.07" y="0">our regio</tspan><tspan class="cls-21" x="101.49" y="0">n</tspan><tspan x="112.52" y="0">. Ma</tspan><tspan class="cls-16" x="145.13" y="0">k</tspan><tspan x="154.8" y="0">e sure the animal </tspan><tspan class="cls-19" x="296.95" y="0">f</tspan><tspan x="302.66" y="0">e</tspan><tspan class="cls-8" x="311.78" y="0">e</tspan><tspan x="321.06" y="0">d is not </tspan><tspan class="cls-22" x="383.33" y="0">c</tspan><tspan class="cls-12" x="391.93" y="0">oming </tspan></text><text class="cls-10" transform="translate(853.19 667.91)">from <tspan class="cls-13" x="43.08" y="0">ov</tspan><tspan class="cls-12" x="61.4" y="0">ers</tspan><tspan class="cls-8" x="86.34" y="0">e</tspan><tspan x="95.62" y="0">a</tspan><tspan class="cls-14" x="104.91" y="0">s</tspan><tspan x="112.86" y="0">. And </tspan><tspan class="cls-13" x="158.17" y="0">y</tspan><tspan x="167.07" y="0">ou ju</tspan><tspan class="cls-23" x="206.8" y="0">s</tspan><tspan x="214.98" y="0">t l</tspan><tspan class="cls-8" x="230.02" y="0">e</tspan><tspan class="cls-12" x="239.31" y="0">arn</tspan><tspan class="cls-8" x="266.98" y="0">e</tspan><tspan x="276.26" y="0">d which animals </tspan></text><text class="cls-10" transform="translate(853.19 690.91)"><tspan class="cls-11">c</tspan><tspan class="cls-24" x="8.72" y="0">a</tspan><tspan x="17.92" y="0">use the l</tspan><tspan class="cls-8" x="84.56" y="0">e</tspan><tspan x="93.84" y="0">a</tspan><tspan class="cls-23" x="103.12" y="0">s</tspan><tspan x="111.3" y="0">t </tspan><tspan class="cls-25" x="121.24" y="0">C</tspan><tspan x="132.05" y="0">O2 </tspan><tspan class="cls-8" x="158.37" y="0">e</tspan><tspan x="167.65" y="0">qui</tspan><tspan class="cls-25" x="193.7" y="0">v</tspan><tspan x="202.55" y="0">alents!</tspan></text></g><rect class="cls-26" x="838.26" y="527.93" width="473.18" height="181.93"/><g class="cls-4"><text class="cls-5" transform="translate(826.98 133.76)">Ma<tspan class="cls-27" x="24.94" y="0">k</tspan><tspan x="35.22" y="0">e </tspan><tspan class="cls-6" x="48.79" y="0">y</tspan><tspan x="58.07" y="0">our </tspan><tspan class="cls-28" x="91.29" y="0">o</tspan><tspan x="100.81" y="0">wn </tspan><tspan class="cls-8" x="130.76" y="0">r</tspan><tspan x="139.31" y="0">ules:</tspan></text><text class="cls-10" transform="translate(826.98 156.76)"><tspan class="cls-14">e</tspan><tspan class="cls-29" x="8.77" y="0">.</tspan><tspan class="cls-30" x="13.07" y="0">g</tspan><tspan x="22.54" y="0">. a </tspan><tspan class="cls-14" x="44.27" y="0">&quot;</tspan><tspan x="50.98" y="0">on</tspan><tspan class="cls-22" x="71.43" y="0">c</tspan><tspan class="cls-12" x="80.03" y="0">e a d</tspan><tspan class="cls-13" x="116.65" y="0">a</tspan><tspan class="cls-16" x="125.76" y="0">y</tspan><tspan class="cls-13" x="134.59" y="0">/</tspan><tspan class="cls-31" x="140.64" y="0">w</tspan><tspan class="cls-12" x="153.73" y="0">eek </tspan><tspan class="cls-32" x="185.82" y="0">r</tspan><tspan class="cls-33" x="193.7" y="0">ul</tspan><tspan class="cls-14" x="209.32" y="0">e</tspan><tspan class="cls-34" x="218.09" y="0">&quot;</tspan><tspan x="223.62" y="0">, </tspan></text><text class="cls-10" transform="translate(826.98 179.76)">changing from lar<tspan class="cls-15" x="143.17" y="0">g</tspan><tspan class="cls-12" x="152.32" y="0">er to smaller quantities</tspan><tspan class="cls-35" x="337.95" y="0"> </tspan></text><text class="cls-10" transform="translate(826.98 202.76)">and ta<tspan class="cls-29" x="49.71" y="0">k</tspan><tspan x="59.38" y="0">e the pre</tspan><tspan class="cls-19" x="129.16" y="0">s</tspan><tspan x="137.36" y="0">sure </tspan><tspan class="cls-15" x="176.76" y="0">o</tspan><tspan x="186.25" y="0">ff: e</tspan><tspan class="cls-13" x="215.83" y="0">v</tspan><tspan x="224.74" y="0">e</tspan><tspan class="cls-36" x="233.85" y="0">r</tspan><tspan class="cls-33" x="241.89" y="0">y r</tspan><tspan class="cls-8" x="262.44" y="0">e</tspan><tspan class="cls-33" x="271.72" y="0">duction is gr</tspan><tspan class="cls-21" x="371.48" y="0">e</tspan><tspan class="cls-13" x="380.76" y="0">a</tspan><tspan x="389.87" y="0">t!</tspan></text></g><rect class="cls-26" x="817.04" y="107.94" width="424.64" height="111.23"/><g class="cls-4"><text class="cls-5" transform="translate(165.61 525.5)">If <tspan class="cls-6" x="17.02" y="0">y</tspan><tspan x="26.3" y="0">ou mi</tspan><tspan class="cls-19" x="73.34" y="0">s</tspan><tspan x="81.87" y="0">s the ta</tspan><tspan class="cls-23" x="141.47" y="0">s</tspan><tspan x="149.99" y="0">te of m</tspan><tspan class="cls-7" x="206.79" y="0">e</tspan><tspan x="216.58" y="0">a</tspan><tspan class="cls-9" x="226.28" y="0">t</tspan><tspan x="233.05" y="0">,</tspan></text><text class="cls-10" transform="translate(165.61 548.5)"><tspan class="cls-13">y</tspan><tspan x="8.91" y="0">ou are </tspan><tspan class="cls-23" x="62.83" y="0">w</tspan><tspan x="75.92" y="0">ell se</tspan><tspan class="cls-36" x="116.58" y="0">r</tspan><tspan class="cls-22" x="124.63" y="0">v</tspan><tspan class="cls-21" x="133.53" y="0">e</tspan><tspan class="cls-33" x="142.82" y="0">d with </tspan><tspan class="cls-31" x="196.21" y="0">s</tspan><tspan x="204.39" y="0">trongly spi</tspan><tspan class="cls-13" x="289.81" y="0">c</tspan><tspan class="cls-8" x="298.41" y="0">e</tspan><tspan class="cls-33" x="307.7" y="0">d dishes li</tspan><tspan class="cls-16" x="388.38" y="0">k</tspan><tspan x="398.05" y="0">e currie</tspan><tspan class="cls-14" x="459.93" y="0">s</tspan><tspan class="cls-12" x="467.88" y="0">. </tspan></text><text class="cls-10" transform="translate(165.61 571.5)"><tspan class="cls-13">A</tspan><tspan class="cls-12" x="11.49" y="0">lso &quot;as i</tspan><tspan class="cls-37" x="72.35" y="0">f</tspan><tspan class="cls-12" x="79.69" y="0">&quot; </tspan><tspan class="cls-13" x="90.69" y="0">v</tspan><tspan x="99.6" y="0">ersion</tspan><tspan class="cls-14" x="150.35" y="0">s</tspan><tspan x="158.3" y="0">, </tspan><tspan class="cls-15" x="166.8" y="0">f</tspan><tspan x="172.51" y="0">or </tspan><tspan class="cls-13" x="193.58" y="0">e</tspan><tspan x="202.52" y="0">xample n</tspan><tspan class="cls-8" x="276.98" y="0">oo</tspan><tspan class="cls-33" x="296.49" y="0">dles with s</tspan><tspan class="cls-38" x="380.69" y="0">o</tspan><tspan class="cls-33" x="390.2" y="0">y Bolognese s</tspan><tspan class="cls-24" x="497.75" y="0">a</tspan><tspan x="506.95" y="0">u</tspan><tspan class="cls-22" x="517.47" y="0">c</tspan><tspan class="cls-12" x="526.07" y="0">e </tspan></text><text class="cls-10" transform="translate(165.61 594.5)">or sli<tspan class="cls-13" x="39.81" y="0">c</tspan><tspan class="cls-8" x="48.42" y="0">e</tspan><tspan x="57.7" y="0">d m</tspan><tspan class="cls-8" x="88.18" y="0">e</tspan><tspan class="cls-39" x="97.46" y="0">a</tspan><tspan x="106.57" y="0">t with seita</tspan><tspan class="cls-8" x="193.68" y="0">n</tspan><tspan x="204.71" y="0">, are a </tspan><tspan class="cls-40" x="256.3" y="0">g</tspan><tspan class="cls-8" x="265.45" y="0">oo</tspan><tspan x="284.97" y="0">d altern</tspan><tspan class="cls-39" x="347.13" y="0">a</tspan><tspan x="356.25" y="0">ti</tspan><tspan class="cls-13" x="367.6" y="0">v</tspan><tspan x="376.51" y="0">e </tspan><tspan class="cls-15" x="389.57" y="0">f</tspan><tspan x="395.28" y="0">or some </tspan><tspan class="cls-8" x="463.48" y="0">p</tspan><tspan x="474.07" y="0">eopl</tspan><tspan class="cls-14" x="508.29" y="0">e</tspan><tspan class="cls-12" x="517.06" y="0">.</tspan></text><text class="cls-10" transform="translate(165.61 640.6)">Other<tspan class="cls-14" x="45.42" y="0">s</tspan><tspan class="cls-12" x="53.38" y="0">, </tspan><tspan class="cls-14" x="61.88" y="0">e</tspan><tspan class="cls-29" x="70.65" y="0">.</tspan><tspan class="cls-30" x="74.95" y="0">g</tspan><tspan x="84.42" y="0">. </tspan><tspan class="cls-13" x="92.92" y="0">c</tspan><tspan x="101.52" y="0">elebrity chef </tspan><tspan class="cls-38" x="205.17" y="0">J</tspan><tspan x="212.85" y="0">amie Oli</tspan><tspan class="cls-22" x="279.37" y="0">v</tspan><tspan class="cls-12" x="288.28" y="0">er pre</tspan><tspan class="cls-19" x="335.93" y="0">f</tspan><tspan x="341.64" y="0">er to </tspan><tspan class="cls-13" x="381.76" y="0">c</tspan><tspan class="cls-8" x="390.37" y="0">o</tspan><tspan x="400.12" y="0">ok without </tspan></text><text class="cls-10" transform="translate(165.61 663.6)">t<tspan class="cls-36" x="6" y="0">r</tspan><tspan class="cls-33" x="14.04" y="0">ying to repla</tspan><tspan class="cls-13" x="113.51" y="0">c</tspan><tspan x="122.11" y="0">e m</tspan><tspan class="cls-8" x="151.37" y="0">e</tspan><tspan class="cls-39" x="160.65" y="0">a</tspan><tspan class="cls-33" x="169.76" y="0">t - </tspan><tspan class="cls-8" x="190.33" y="0">b</tspan><tspan x="200.67" y="0">e</tspan><tspan class="cls-11" x="209.78" y="0">c</tspan><tspan class="cls-24" x="218.5" y="0">a</tspan><tspan x="227.69" y="0">use m</tspan><tspan class="cls-8" x="275.77" y="0">e</tspan><tspan class="cls-39" x="285.05" y="0">a</tspan><tspan x="294.16" y="0">t altern</tspan><tspan class="cls-13" x="352" y="0">a</tspan><tspan x="361.11" y="0">ti</tspan><tspan class="cls-22" x="372.46" y="0">v</tspan><tspan x="381.37" y="0">es such as t</tspan><tspan class="cls-15" x="472.39" y="0">o</tspan><tspan x="481.88" y="0">fu et</tspan><tspan class="cls-14" x="517.27" y="0">c</tspan><tspan x="525.7" y="0">. </tspan></text><text class="cls-10" transform="translate(165.61 686.6)">are <tspan class="cls-15" x="29.87" y="0">o</tspan><tspan x="39.35" y="0">ften not </tspan><tspan class="cls-31" x="105.48" y="0">w</tspan><tspan x="118.57" y="0">ell re</tspan><tspan class="cls-13" x="158.47" y="0">c</tspan><tspan x="167.07" y="0">ei</tspan><tspan class="cls-13" x="181.54" y="0">v</tspan><tspan class="cls-8" x="190.45" y="0">e</tspan><tspan x="199.73" y="0">d </tspan><tspan class="cls-20" x="214.01" y="0">b</tspan><tspan x="224.13" y="0">y m</tspan><tspan class="cls-21" x="253.35" y="0">e</tspan><tspan class="cls-13" x="262.63" y="0">a</tspan><tspan x="271.74" y="0">t </tspan><tspan class="cls-8" x="281.69" y="0">e</tspan><tspan class="cls-13" x="290.97" y="0">a</tspan><tspan x="300.08" y="0">ters</tspan></text></g><rect class="cls-26" x="153.15" y="500.79" width="566" height="200.8"/><g class="cls-4"><text class="cls-5" transform="translate(67.14 106.31)">Do not <tspan class="cls-41" x="58.1" y="0">f</tspan><tspan class="cls-7" x="64.19" y="0">e</tspan><tspan x="73.98" y="0">ar protein deficiency</tspan></text><text class="cls-10" transform="translate(316.94 106.31)"> <tspan class="cls-11" x="3.94" y="0">b</tspan><tspan class="cls-33" x="14.06" y="0">y </tspan><tspan class="cls-21" x="27.08" y="0">e</tspan><tspan class="cls-13" x="36.36" y="0">a</tspan><tspan x="45.47" y="0">ting le</tspan><tspan class="cls-15" x="95.1" y="0">s</tspan><tspan x="103.29" y="0">s m</tspan><tspan class="cls-8" x="131.73" y="0">e</tspan><tspan class="cls-39" x="141.01" y="0">a</tspan><tspan x="150.13" y="0">t! </tspan></text><text class="cls-10" transform="translate(67.14 129.31)"><tspan class="cls-42">Y</tspan><tspan x="9.59" y="0">ou </tspan><tspan class="cls-11" x="33.64" y="0">c</tspan><tspan x="42.36" y="0">an </tspan><tspan class="cls-23" x="66.45" y="0">s</tspan><tspan x="74.63" y="0">till </tspan><tspan class="cls-15" x="100.13" y="0">f</tspan><tspan x="105.84" y="0">oll</tspan><tspan class="cls-23" x="125.63" y="0">o</tspan><tspan class="cls-33" x="135.1" y="0">w a h</tspan><tspan class="cls-8" x="176.08" y="0">e</tspan><tspan x="185.37" y="0">alt</tspan><tspan class="cls-43" x="205.75" y="0">h</tspan><tspan class="cls-44" x="216.13" y="0">y</tspan><tspan class="cls-12" x="224.11" y="0">, </tspan><tspan class="cls-8" x="232.61" y="0">b</tspan><tspan x="242.94" y="0">alan</tspan><tspan class="cls-13" x="277.47" y="0">c</tspan><tspan class="cls-8" x="286.07" y="0">e</tspan><tspan x="295.35" y="0">d diet: </tspan></text><text class="cls-10" transform="translate(67.14 152.31)">Legume<tspan class="cls-14" x="64.29" y="0">s</tspan><tspan class="cls-12" x="72.25" y="0">, </tspan><tspan class="cls-13" x="80.75" y="0">v</tspan><tspan x="89.66" y="0">e</tspan><tspan class="cls-15" x="98.77" y="0">g</tspan><tspan x="107.92" y="0">et</tspan><tspan class="cls-13" x="123.03" y="0">a</tspan><tspan x="132.14" y="0">ble</tspan><tspan class="cls-14" x="156.52" y="0">s</tspan><tspan class="cls-12" x="164.47" y="0">, </tspan><tspan class="cls-22" x="172.97" y="0">c</tspan><tspan class="cls-12" x="181.57" y="0">er</tspan><tspan class="cls-8" x="198.22" y="0">e</tspan><tspan x="207.5" y="0">als and dai</tspan><tspan class="cls-36" x="293.52" y="0">r</tspan><tspan x="301.56" y="0">y pr</tspan><tspan class="cls-8" x="332.53" y="0">o</tspan><tspan class="cls-33" x="342.29" y="0">ducts </tspan></text><text class="cls-10" transform="translate(67.14 175.31)">are high<tspan class="cls-45" x="65.69" y="0">-</tspan><tspan x="72.71" y="0">quality sour</tspan><tspan class="cls-13" x="168.09" y="0">c</tspan><tspan x="176.69" y="0">es </tspan><tspan class="cls-19" x="198.05" y="0">o</tspan><tspan class="cls-33" x="207.53" y="0">f protei</tspan><tspan class="cls-8" x="265.3" y="0">n</tspan><tspan x="276.33" y="0">.</tspan></text><text class="cls-10" transform="translate(67.14 198.41)">Some <tspan class="cls-19" x="48.84" y="0">o</tspan><tspan x="58.33" y="0">f the </tspan><tspan class="cls-8" x="97.75" y="0">b</tspan><tspan x="108.08" y="0">e</tspan><tspan class="cls-31" x="117.2" y="0">s</tspan><tspan x="125.37" y="0">t </tspan><tspan class="cls-39" x="135.32" y="0">a</tspan><tspan x="144.43" y="0">thletes in the </tspan><tspan class="cls-23" x="252.43" y="0">w</tspan><tspan x="265.52" y="0">orld are </tspan><tspan class="cls-13" x="331.89" y="0">v</tspan><tspan x="340.79" y="0">e</tspan><tspan class="cls-20" x="349.91" y="0">g</tspan><tspan class="cls-12" x="359.1" y="0">ans!</tspan></text></g><rect class="cls-26" x="52.13" y="84.4" width="457.13" height="127.2"/></svg>