<?xml version="1.0" encoding="UTF-8"?>
<svg width="3134px" height="1993px" viewBox="0 0 3134 1993" version="1.1" xmlns="http://www.w3.org/2000/svg" xmlns:xlink="http://www.w3.org/1999/xlink">
    <title>testGraph</title>
    <g id="Page-1" stroke="none" stroke-width="1" fill="none" fill-rule="evenodd">
        <g id="Artboard" transform="translate(-147.000000, -342.000000)">
            <g id="testGraph" transform="translate(147.000000, 342.000000)">
                <rect id="Rectangle" x="0" y="0" width="3134" height="1993"></rect>
                <g id="Group" transform="translate(269.000000, 176.000000)">
                    <g id="Linien-vom-Graph" transform="translate(194.000000, 25.588720)" stroke="#979797">
                        <line x1="0.149219395" y1="0.5" x2="2248.91767" y2="0.5" id="Path-10" stroke-width="2"></line>
                        <line x1="2.27373675e-13" y1="191.41128" x2="2248.76845" y2="191.41128" id="Path-10" stroke-width="2"></line>
                        <line x1="2.27373675e-13" y1="383.41128" x2="2248.76845" y2="383.41128" id="Path-10" stroke-width="2"></line>
                        <line x1="0.149219395" y1="574.91128" x2="2248.91767" y2="574.91128" id="Path-10" stroke-width="2"></line>
                        <line x1="2.27373675e-13" y1="765.822561" x2="2248.76845" y2="765.822561" id="Path-10" stroke-width="2"></line>
                        <line x1="2.27373675e-13" y1="957.822561" x2="2248.76845" y2="957.822561" id="Path-10" stroke-width="2"></line>
                        <line x1="0.149219395" y1="1148.91128" x2="2248.91767" y2="1148.91128" id="Path-10" stroke-width="2"></line>
                        <line x1="2.27373675e-13" y1="1339.82256" x2="2248.76845" y2="1339.82256" id="Path-10" stroke-width="2"></line>
                        <line x1="2.27373675e-13" y1="1531.82256" x2="2248.76845" y2="1531.82256" id="Path-10" stroke-width="2"></line>
                        <line x1="1279.43127" y1="0.5" x2="1279.43127" y2="1529.91128" id="Path-11" stroke-width="12" stroke-dasharray="29"></line>
                    </g>
                    <g id="Jahreszahlen" transform="translate(180.000000, 1590.000000)" fill="#1C2A40" font-family="Roboto-Regular, Roboto" font-size="45" font-weight="normal">
                        <text id="1961">
                            <tspan x="0" y="42">1961</tspan>
                        </text>
                        <text id="2000">
                            <tspan x="965" y="42">2000</tspan>
                        </text>
                        <text id="2010">
                            <tspan x="1216" y="42">2010</tspan>
                        </text>
                        <text id="2020">
                            <tspan x="1463" y="42">2020</tspan>
                        </text>
                        <text id="2030">
                            <tspan x="1711" y="42">2030</tspan>
                        </text>
                        <text id="2040">
                            <tspan x="1959" y="42">2040</tspan>
                        </text>
                        <text id="2050">
                            <tspan x="2207" y="42">2050</tspan>
                        </text>
                        <text id="1970">
                            <tspan x="223" y="42">1970</tspan>
                        </text>
                        <text id="1980">
                            <tspan x="470" y="42">1980</tspan>
                        </text>
                        <text id="1990">
                            <tspan x="718" y="42">1990</tspan>
                        </text>
                    </g>
                    <g id="grammzahlen" transform="translate(114.000000, 0.000000)" fill="#1C2A40" font-family="Roboto-Regular, Roboto" font-size="45" font-weight="normal">
                        <text id="0">
                            <tspan x="25.7314453" y="1571">0</tspan>
                        </text>
                        <text id="10">
                            <tspan x="0.462890625" y="1380">10</tspan>
                        </text>
                        <text id="20">
                            <tspan x="0.462890625" y="1189">20</tspan>
                        </text>
                        <text id="30">
                            <tspan x="0.462890625" y="998">30</tspan>
                        </text>
                        <text id="40">
                            <tspan x="0.462890625" y="807">40</tspan>
                        </text>
                        <text id="50">
                            <tspan x="0.462890625" y="615">50</tspan>
                        </text>
                        <text id="60">
                            <tspan x="0.462890625" y="424">60</tspan>
                        </text>
                        <text id="70">
                            <tspan x="0.462890625" y="232">70</tspan>
                        </text>
                        <text id="80">
                            <tspan x="0.462890625" y="42">80</tspan>
                        </text>
                    </g>
                    <polyline id="World" stroke="#1C2A40" stroke-width="12" points="201.934972 1182.33726 235.231827 1173.5 257.29518 1164.361 285.10724 1164.361 310.226756 1160.68088 336.444317 1151.98254 382.971392 1141.49528 415.825428 1141.49528 464.032336 1134.91706 486.406089 1133.58828 512.062912 1135.49325 536.644552 1126.69984 557.089774 1126.69984 586.002807 1120.28674 612.742902 1120.28674 645.687693 1113.60549 688.318011 1107.01376 740.204907 1107.01376 791.181515 1097.76373 817.119767 1087.50841 887.743247 1076.58487 921.329426 1076.58487 942.311682 1074.46239 991.855869 1082.79723 1020.17601 1075.35256 1041.98849 1062.97898 1067.40714 1051.96917 1119.65095 1044.15286 1193.29783 1023.01433 1219.58171 1023.01433 1255.67768 1013.01259 1303.82951 1001.76574 1350.691 984.703614 1372.31332 972.130885 1396.47291 965.801392 1425.94942 961.525129 1448.80182 952.802486 1473.81624 949.870095 2440.65589 875.833756"></polyline>
                    <text id="g-animal-based-prote" transform="translate(27.000000, 792.500000) rotate(-90.000000) translate(-27.000000, -792.500000) " font-family="Roboto-Regular, Roboto" font-size="45" font-weight="normal" fill="#1C2A40">
                        <tspan x="-411.412109" y="808">g animal-based protein available/capita/day</tspan>
                    </text>
                    <text id="World" font-family="Roboto-Black, Roboto" font-size="45" font-weight="700" fill="#1C2A40">
                        <tspan x="2477" y="891">World</tspan>
                    </text>
                </g>
            </g>
        </g>
    </g>
</svg>