<?xml version="1.0" encoding="utf-8"?>
<!-- Generator: Adobe Illustrator 24.2.1, SVG Export Plug-In . SVG Version: 6.00 Build 0)  -->
<svg version="1.1" id="Layer_1" xmlns="http://www.w3.org/2000/svg" xmlns:xlink="http://www.w3.org/1999/xlink" x="0px" y="0px"
	 viewBox="0 0 1118 674" style="enable-background:new 0 0 1118 674;" xml:space="preserve">
<style type="text/css">
	.st0{fill:#5C6A7D;}
	.st1{fill:#37485E;}
	.st2{fill-rule:evenodd;clip-rule:evenodd;fill:#253854;}
	.st3{fill-rule:evenodd;clip-rule:evenodd;fill:#1C2A40;}
	.st4{opacity:0.1;fill:#5C6A7D;enable-background:new    ;}
	.st5{font-family:'IBMPlexSerif-SemiBold';}
	.st6{font-size:18px;}
	.st7{font-family:'IBMPlexSerif-Text';}
	.st8{font-size:19.1843px;}
	.st9{fill:#1C2A40;}
	.st10{fill:#253854;}
	.st11{fill:none;}
</style>
<path id="Shape_2_" class="st0" d="M180,355.7c1.8-6.2-4.7-4.6-4.7-4.6c2-5.4-6.7-3.9-11.4,3.1s-12.9,14.9-25.8,16.4
	c-12.9,1.5-21.4,4.6-28.8-5.8c-7.6-14.7-17.2-17.1-20.1-17.5l-0.1-0.3c0.2,0,2.5-1.8,1.2-3.6s-3.6-0.2-4.2-0.2
	c-0.6-0.1-0.6-2.2-2.8-2.1c-2.2,0.1-1.4,2.2-2.1,2.4c-0.7,0.2-4.2-1-5.6,1.4c-1.5,2.4,1.4,5,1.5,5.3c0.3,1.1-0.7,3-0.7,3
	c-4,3.2-4.7,8.4-4.7,8.4c3.4-1.7,6-2,6.1-2c-2.4,4.9-0.8,7.1,0.7,7c1.7-0.2,2-1.5,1.9-3l0.2,0.3c-0.1,2.5-1.4,10.2,0,18.5
	c1.5,8.6,5.8,18,10.9,27.4c3.8,7.1,9.4,14.5,14.7,19.2c5.2,4.6,10.2,6.4,11,6.6c0.5,0.1,1.1,0.2,1.7,0.2c-0.7,2.1-2.5,7.7-3.1,9.8
	c-0.9,2.6-7.4,5.2-10.3,5.7c-2.9,0.5-2.7,0.5-4.1,1s-2.2,1.2-0.7,1.2s6-0.4,6.9-0.4s-5.3,3-4.1,3.4c1.2,0.4,5-2.1,10.5-4.1
	c5.5-2.1,7.4,0.7,9.3,1.5c1.7,0.8,3.4,0.5,2.1-0.7C124,452,123,451,123,451c1.4-1.4,4.3-1.7,6.5-1c2.2,0.7,6.2,2.2,5.3,0.3
	c-0.9-1.9-6-1.4-6-3.6c0-2.2,1.4-8.7,2.4-10.3c0.5-0.8,1.4-1.3,2.3-1.7c2.3-0.5,4.6-1.2,6.8-2.2c7.3-1.7,11.7-6.2,19.1-18
	c2.6-4.2,8.5-12.4,12.3-19c2.1-3.7,3.5-8.1,3.5-8.1c9.3-3.9,3.1-10,3.1-10c8.6-5.9,0.8-9.3,0.8-9.3c8.3-0.8,3.1-6.9,3.1-6.9
	C186.4,357.2,180,355.7,180,355.7z M122.5,447.1c-2.9,2.2-3.9,0.5-2.9-2.6c0.8-2.6,3.2-7.2,4-8.7c1.1,0,2.2-0.1,3.3-0.2
	C126.8,438.2,126.2,444.3,122.5,447.1z"/>
<path id="Path" class="st1" d="M186.8,316.4c-2.5-2.4-4.8-5-7-7.7c-2.3-7.3-1.5-15.2,2.2-21.9c2-1.5,4.4,0,8.3,3.9
	c-0.1-2.7,0.6-5.4,2-7.7c2-3.3,11.8,7.7,19.5,17.7c5.3-2.3,10.9-3.9,16.6-4.8c59-11.2,118.7-17.8,178.8-19.7
	c27.3-2.9,54.8,4.2,77.2,20.2c1.5,1.1,17.3,17.1,26.3,15.8c9-1.3,13.6-2.4,7.4,1.5c-7.5,3.6-16.3,3.6-23.8,0c3,8.1,5.1,16.5,6.3,25
	c2.4,33.3-17.9,48.4-8.1,58.5c13.3,12.9-3.1,19.3-2.2,31.3c0.9,12.1,0,13.8-2.4,13.4c-2.4-0.4-5.9-1.1-8.5,7
	c-0.7,2.1-1.7,4.1-3.1,5.9h-15.1c-1.8,0-3.3-1.5-3.3-3.3c-0.3-0.6-0.3-1.3,0-2c7-8.2,11.9-18.1,14.2-28.7
	c1.1-13.2-5.4-25.8-16.6-32.6h-3.1c1.9,5.9,0.3,12.4-4.2,16.7c-3.8,11.2-5.6,23-5.5,34.8c0,3.3-6.1-1.5-6.6,2.4
	c-0.8,4.3-2,8.5-3.7,12.5h-15.1c-1.6,0-2.8-1.3-2.8-2.8c-0.2-0.6-0.2-1.2,0-1.8c4.4-5.4,8-11.5,10.5-18c3.2-11.1,1.5-23.1-4.8-32.9
	l-3.7-3.3c-3.1,0.8-6.1,1.9-9,3.1c-3.7,1.1-8.1,2.2-12.5,3.9c-27.5,7.2-56.6,5.3-82.9-5.3c-1.7,8.8-2.8,17.8-3.3,26.7
	c1.3,6.7,1.3,13.6,0,20.4c-1.8,1.5-3.9,0-4.8,0c0.2,1.3,0.2,2.6,0,3.9c-0.6,1.9-1.6,3.7-2.8,5.3c-10.8,1-17.1,1-18.9,0
	c-2.6-1.5,0.2-3,1.4-4.4c3.5-3.4,6.1-7.8,7.4-12.5c1.7-13.6-0.9-27.4-7.4-39.4c-4.5,12.6-8.3,25.4-11.4,38.3c-0.2,3-1.2,5.9-2.8,8.3
	c0,0-1.8,0-2.2,0s-2.4,1.8-2.2,5.3c-0.4,2.3-1.2,4.4-2.4,6.4h-16c-2.4,0-6.2-1.2-6.2-3.6c-0.3-0.8,1.5-2.6,1.8-3.4
	c4.3-4.9,7.8-10.5,10.1-16.7c2-13.3,1.5-26.9-1.5-40.1c-21.9,0-30.6-12.5-43.8-13.6c-7.4,0-17.5,0-24.9-1.3
	c-19.3-3.9-32.8-6.1-35.7-13.6c-1.1-3.5-8.5-3.9-7.4-3.9c-2.3-13.1-2.3-19.7,0-19.7c13.1,2.7,26.7-1.7,35.7-11.6
	C178.3,324.1,182.3,320,186.8,316.4z"/>
<path id="Path_3_" class="st2" d="M733.7,359.4v20.9c0,2.1-1.1,6.8-1.6,7.8c-0.5,1.6-3.2,6.2-5.8,10.4c-3.2,3.7-1.1,6.3-0.5,8.9
	c1,2.6,1.5,6.8,1.5,9.4l-0.1,29.2c0,1.6,0,3.2-1.6,3.1c-1.1,0-1.4,2.1-1.1,6.2c-1.7,0-6.5,0-14.2,0c0.5-2.3,1-3.9,1.3-4.8
	c1-2.3,2.5-3.6,3.4-4.1c1.6-0.5,0.5-2.1,0.5-2.1c-0.4-8.8-1.4-17.7-2.4-26.5c0,0,0-3.7-2.6-5.7c-2.6-2.1-7.3-5.2-7.3-5.2
	s-1.6-1.5-2.6-0.5c-1,0.5-1,1.6-1,2.6c-0.5,1-3.7,19.8-3.7,19.8s-3.2,13.5-3.7,15.1c-0.5,1.5-0.5,1.5-2.1,1.5
	c-1.6,0.5-2.6,0-3.2,1.6c-0.5,1.6-1,4.2-1,4.2v4.1h-12.2c-0.2-1.4-0.1-2.8,0.4-4.1c0.7-2,4.5-4.7,5-5.2v-1.6
	c1.1-5.8,2.1-12,3.7-18.2c0-6.2-0.5-13.1,0-19.8c0.5-6.8,1.1-10.9-6.8-15.1c-6.8-3.1-9.5,0-14.7,1c-5.8,1-21.6,5.2-46.3,5.1
	c-24.7,0-27.3-3.2-32-2.2c-3.2,1-5.8,5.2-9,8.3c-3.2,3.6-3.2,6.8-3.2,8.3c0,1.6,2.1,12.5,2.6,14.6c1.6,4.7,2.6,17.7,1.6,18.2
	c-1.1,0.5-4.2,0-4.2,2.1c0,1.4,0,4.1,0,8.3h-14.2c0-1.6,0.2-3,0.5-4.1c1.2-3.8,3.8-8.1,4.3-8.9c1-2.1,0.5-2.6,0.5-3.1
	c0,0,0-6.3-0.5-8.3c0-1.6-2.1-10.9-2.6-13c-1.1-2.1-2.6-7.8-4.7-10.5c-2.6-2-5.3-3.1-5.3-3.1c-1.1,9.9,0.5,38.6,0.5,41.2
	c0,2.1-2.1,3.1-3.2,3.7c-1.6,0.5-1.6,3.6-2.1,6.2h-14.2c-0.3-2.2-0.3-4,0-5.2c0.5-1.9,1.6-4.1,1.6-4.1s4.6-7,4.6-7.5
	c0.5-0.5,0.5-2.1,0.6-2.6c-0.5,0-3.5-25.3-3.5-26.4c0-1.1-1-8.3-3.1-11c-2.1-2.6-6.3-4.2-8.4-5.2c-1.6-1.1-10-6.3-12.1-9.4
	c-2.6-3.1-7.3-9.9-10.5-16.7c-2.6-6.3-7.9-18.8-9.4-25c-1.6-6.3-4.7-17.7-4.7-21.4c-0.5-3.7-1.5-14.1-1.5-16.2s-1-5.2-2.6-6.2
	c-2.1-1.1-3.5-1.7-6.3-1c-2.8,0.7-20.1,6.1-23.7,6.1c-3.6,0-4.8-2.8-6.4-3.3c-1.6-0.5-4.2-0.7-5.5-1.9c-1.3-1.2-1.8-3.2-1.8-4.7
	c0-1,1.1-6.3,2.1-8.3c2.6-4.2,8.4-12,11.1-14.6c2.1-3.1,11.1-13,13.7-15.1c2.7-2.1,7.6-6.4,12-8.9s5.9-2.5,10.1-3.6
	c4.2-1,5.7-1.2,5.7-1.2s0.1-1.7,2.7-5c2.6-3.3,4.2-4.7,6.3-6.2c2.1-1.6,4.8-2.6,6.3-1.5c1.6,1.6,1.4,4,0.3,6.6
	c-1.1,2.6-1.9,5.3-1.9,5.3s15.2,8.9,18.9,11.5c12.1,7.8,20.5,19.8,27.3,20.9c6.8,1.1,10.5,0.6,15.2,0.6c31.5-1.5,97.8-4.5,106.7-4.5
	c9.5,0,18.4-0.5,23.6,1.1c5.3,2.1,22.1,7.8,31,19.8c8.9,11.5,14.1,24,13.6,33.9c-1,9.9-3.7,13-4.2,15.1s-3.2,5.2-3.2,11.5
	L733.7,359.4z"/>
<path id="Combined-Shape_2_" class="st3" d="M630.5,116c2.2,0-0.7,2.4,4,7.7c2.2,2.4,8.3,6.2,12.4,9.3c3.8,2.9,5.5,5.2,6.6,7.1
	c1.3,2.2-0.6,6.3,0,6.6c0.9,0,1.5-0.6,3.9-2.2c0.8-0.8,6.5-4.2,12.3-4.8c6.1-0.6,12.2,1.7,12.6,2.5c1,1-2.1,7.7-6.7,12
	c-2.7,2.5-7.8,3.1-7.8,3.9c0,1.6,0.8,2.4,4.8,2.4c3,0.6,15.5,2.3,25.1,3.2c2.3,0.2,4.5,0.4,6.7,0.5c0.8,0,1.5,0.1,2.1,0.1
	c0.3,0,0.7,0.1,1,0.1l0,0c2.2,0.1,4.1,0.2,5.8,0.2c22.6,0.9,70.3,3.7,86.9,5.5c15.6,1.8,36.5,4.4,52.9,6.2
	c16.5,1.8,25.2,1.8,40.8,1.9c14.8,0.1,52.1-1.5,63.4-4.1c16.5-1.7,37.3-2.4,46.9-3.3c9.5-0.8,25.2-1.6,32.1,2.7
	c7.8,4.3,18.2,11.8,22.5,19.6c4.3,8.6,8.2,22.4,9.2,27.2c0.5,2.8,2.8,17.3,3.5,32.6c0.8,17.2,0.1,38.2,1.6,46.9
	c0.1,0.5,6.7,6.7,10.6,14.3c2,3.9,4.7,17.3,4.2,27.3c-0.7,11.9-4.4,26.7-5.4,23.3c-1-3.4-6.5-10.3-11.3-19.9
	c-3.9-7.8-7.3-18.5-7.6-20.6c-0.5-3.2-0.9-7.3,0-12c0.9-4.6,3.1-9.7,2.7-11.5c-0.9-4.3-2.6-21.6-2.5-26c0-4.3-2.4-41.5-3.3-45.8
	c-0.9-5.2-6.9-21.1-4.3-13.7c2.6,7.4-0.1,26.6-0.1,32.7L1056,279c-0.9,6.1,0.8,19.9-2.7,25.9c-3.5,6.9-5.2,9.5-5.2,9.5
	c-1.8,2.9-2.3,4.3-1.8,4.3c0.9,0,11.2,11.3,13.9,13.9c1.7,2.6,4.3,7,2.5,13c-2.6,6-6.2,38-6.3,44.9c0,6.9,0.8,30.3,0.8,32
	c0,2.6,0.9,4.3,0.8,6c-0.9,0.9-7.2,8-7.7,13c-0.2,2.4,0.1,7.1,0.9,14l-35.8-0.1c1.1-4.7,2.2-7.9,3.1-9.6c2.4-4.5,5.9-7.2,7.4-8.6
	c2.7-3.4,6.2-21.6,6.2-37.1c0.1-14.7-5.1-36.3-16.3-50.2c-16.7,30.2-21.1,57.9-20.3,76c-7,0.8-10.4,5.1-13.1,11.2
	c-0.4,0.7-1.2,3.6-2.3,8.7l-31.2-0.1c1.1-3.9,2.3-6.8,3.5-8.6c10.4-15.9,19.1-25.5,20.6-28.5c2.6-5.1,5.3-16.4,5.3-20.7v-0.3
	c0-5.4-0.1-17.9-6-18.7c-1.8-0.4-1.3,8.6-4.8,8.6s-2.8-6.8-6.3-6.4c-3.4,0.5-2,5.7-5.7,5.7c-4.5-0.9-2.2-5.6-5.3-6.3
	c-1.3-0.3-2.7-0.3-3.7,0.6c-1.6,1.2-0.8,3.4-4.3,3.4s-4.5-5.6-4.5-7c-10.4-6.1-16.6-11.7-18.3-14.3c-2.6-2.6-9.6-10.4-9.6-10.4
	c-12.2,0.8-25.2,1.6-29.5,1.6c-5.2,0-18.2-0.9-23.4-0.9c-6.1,0-12.2,0.8-19.1,0.8c-6.1,0-15.7-1.8-19.1-2.7c-2.6-0.9-3.5-0.9-6.1,0
	c-3.5,0.9-9.6,14.6-9.7,19v9.5c0.9,1.7,5.2,11.3,5.2,13.9s-4.3,5.2-6.1,8.6c-1.7,4.3-7,12.1-6.2,21.6c0,8.7,1.7,12.1,1.7,17.3
	c0,2.6,1.3,7.8-3.1,7.8c-1.6,0.3-4.7,3.1-6.6,6.9c-1,2.1-1.7,5.2-2.1,9.5l-30-0.1c1.2-5.2,3-8.6,5.3-10.3c4.3-2.6,6.1-2.6,7-6
	c1.7-4.3,4.4-16.4,5.3-19.9c0.9-4.3,1.8-20.8,1.8-24.2c0-4.3,0-11.3-0.8-15.6c-1.7-3.5-3.5-13.9-3.5-13.9
	c-1.8,9.5-7.1,26.8-8.8,27.6c-2.6,1.7-4.4,3.4-5.3,6c-0.8,1.7-2.6,16.4-4.4,21.6c-0.9,4.3-1.8,20.7-2.7,22.5
	c-1.7,0.8-5.2,0.8-6.9,2.6c-1.7,1.2-2.9,4.3-3.5,9.5l-28.7-0.1c1.3-3.4,2.6-5.7,3.8-6.9c4.2-4.2,8.4-6.5,9.3-7.7
	c0.8-2.6,7-13.8,7.8-17.3c0.9-3.5,8-28.5,8-32s-1.7-6.9-2.6-11.2c0-4.3-0.8-17.9-0.8-23.2v-0.4c0-4.1-0.1-5.8-4.4-5.8H731
	c-3.4,0-8.2-0.1-10.7-0.9c-2.6-1.7-7-6.1-9.5-9.5c-3.5-6.9-6-11.3-6.9-13.8c-0.9-3.5-6.9-20.8-9.5-27.7c-3.4-6.1-12-21.7-16.4-27.7
	c-4.3-5.1-11.9-13.7-16.3-18.1l0,0c-0.1,0-0.1-0.1-0.2-0.2c-4-4.8-3-3.8-7-7.8s-8.8-4.9-13.6-6.5c-4.8-0.8-12.9,0.8-19.3-0.1
	c-7.3-1.6-13.7-2.5-17.7-4.1c-4-1.6-12.9-5.7-16.9-6.5c-4.1-0.8-13.7,0.7-15.3-0.9c-1.6-1.6-2.4-4-4-6.4c-1.6-3.2-6.4-11.3-3.9-14.5
	c4-4.8,29.1-27.2,32.3-30.4c2.5-3.2,16.2-16.8,19.4-19.2c2.4-2.4,15-8.8,12.1-8.8s-12.1-3.4-16.4-9.1c-5.3-6.9-3-16-1.8-16
	s1.5,6.4,6.2,10.3c2.7,2.3,10.8,4.3,13.7,4.3c4.6,0,3.6,0.5,5.1,0.5s-2.4-1-4.7-5.9C626.9,126,627.9,116,630.5,116z"/>
<rect id="Rectangle" x="30.1" y="483.4" class="st4" width="245.5" height="115.2"/>
<text transform="matrix(1 0 0 1 40.0336 511.2245)" class="st0 st5 st6">Chicken:</text>
<text transform="matrix(1 0 0 1 40.0336 534.2245)" class="st0 st7 st6">used as an umbrella term</text>
<text transform="matrix(1 0 0 1 40.0336 557.2245)" class="st0 st7 st6">for poultry: chicken, duck,</text>
<text transform="matrix(1 0 0 1 40.0336 580.3246)" class="st0 st7 st8">turkey and geese</text>
<text transform="matrix(1 0 0 1 816.0218 56.2245)" class="st9 st5 st6">Cattle:</text>
<text transform="matrix(1 0 0 1 816.0218 79.2245)" class="st9 st7 st6">cattle and cow of all ages,</text>
<text transform="matrix(1 0 0 1 816.0218 102.2245)" class="st9 st7 st6">bred for meat production,</text>
<text transform="matrix(1 0 0 1 816.0218 125.3246)" class="st9 st7 st6">excluded are dairy cows</text>
<rect id="Rectangle_1_" x="803.6" y="31.5" class="st4" width="241.6" height="111"/>
<text transform="matrix(1 0 0 1 528.0697 520.8846)" class="st10 st5 st6">Sheep:</text>
<text transform="matrix(1 0 0 1 528.0697 543.8846)" class="st10 st7 st6">includes goats and sheep</text>
<text transform="matrix(1 0 0 1 528.0697 566.8846)" class="st10 st7 st6">of all ages,</text>
<text transform="matrix(1 0 0 1 528.0697 589.9846)" class="st10 st7 st6">as these are very often</text>
<text transform="matrix(1 0 0 1 528.0697 612.9846)" class="st10 st7 st6">combined in the statistics</text>
<rect id="Rectangle_2_" x="516.4" y="493.9" class="st4" width="241.8" height="135"/>
<rect id="Rectangle_3_" x="226.5" y="179.1" class="st4" width="175.4" height="65"/>
<rect x="237.1" y="192.4" class="st11" width="169.8" height="63.8"/>
<text transform="matrix(1 0 0 1 237.1091 206.0385)"><tspan x="0" y="0" class="st1 st5 st6">Pig:</tspan><tspan x="0" y="21.6" class="st1 st7 st6">representing pork</tspan></text>
</svg>
