<?xml version="1.0" encoding="utf-8"?>
<!-- Generator: Adobe Illustrator 23.1.1, SVG Export Plug-In . SVG Version: 6.00 Build 0)  -->
<svg version="1.1" id="Ebene_1" xmlns="http://www.w3.org/2000/svg" xmlns:xlink="http://www.w3.org/1999/xlink" x="0px" y="0px"
	 viewBox="0 0 1366 768" style="enable-background:new 0 0 1366 768;" xml:space="preserve">
<style type="text/css">
	.st0{fill:#5C6A7D;}
	.st1{fill:#36485E;}
	.st2{fill-rule:evenodd;clip-rule:evenodd;fill:#253854;}
	.st3{fill-rule:evenodd;clip-rule:evenodd;fill:#1C2A40;}
	.st4{opacity:0.1;fill:#5C6A7D;}
	.st5{stroke:#FFFFFF;stroke-width:1.1226;stroke-miterlimit:10;}
	.st6{stroke:#FFFFFF;stroke-width:2;}
	.st7{fill:none;stroke:#000000;stroke-width:2.2451;}
	.st8{stroke:#FFFFFF;stroke-width:2.2451;}
	.st9{stroke:#FFFFFF;stroke-width:0.3996;}
	.st10{stroke:#000000;stroke-width:2;stroke-miterlimit:10;}
	.st11{fill:none;stroke:#000000;stroke-width:1.5576;stroke-miterlimit:10;}
	.st12{fill:none;stroke:#000000;stroke-width:2.4921;stroke-miterlimit:10;}
	.st13{fill:#FFFFFF;}
	.st14{fill:none;stroke:#000000;stroke-width:2;stroke-miterlimit:10;}
	.st15{stroke:#FFFFFF;stroke-width:0.8419;stroke-miterlimit:10;}
	.st16{stroke:#FFFFFF;stroke-width:0.9022;stroke-miterlimit:10;}
	.st17{fill:none;stroke:#1C2A40;stroke-width:2.2451;stroke-miterlimit:10;}
	.st18{fill:#1C2A40;}
	.st19{font-family:'Roboto-Black';}
	.st20{font-size:19.18px;}
	.st21{font-family:'Roboto-Regular';}
	.st22{fill:#1C2A40;stroke:#FFFFFF;stroke-width:0.75;stroke-miterlimit:10;}
</style>
<text transform="matrix(1 0 0 1 93.7443 80.8129)"><tspan x="0" y="0" class="st18 st19 st20">1. Make your own rules:</tspan><tspan x="207.6" y="0" class="st18 st21 st20"> </tspan><tspan x="0" y="23" class="st18 st21 st20">e.g. a &quot;once a day/week rule&quot;, </tspan><tspan x="0" y="46" class="st18 st21 st20">changing from larger to smaller quantities </tspan><tspan x="0" y="69" class="st18 st21 st20">and take the pressure off: every reduction is great!</tspan></text>
<rect x="84" y="55" class="st4" width="445" height="111"/>
<text transform="matrix(1 0 0 1 89.3879 407.4289)"><tspan x="0" y="0" class="st18 st19 st20">3. If you miss the taste of meat,</tspan><tspan x="0" y="23" class="st18 st21 st20"> you are well served with strongly spiced dishes like curries. </tspan><tspan x="0" y="46" class="st18 st21 st20">Also &quot;as if&quot; versions, for example noodles with soy Bolognese sauce </tspan><tspan x="0" y="69" class="st18 st21 st20">or sliced meat with seitan, are a good alternative for some people.</tspan><tspan x="0" y="115.1" class="st18 st21 st20">Others, e.g. celebrity chef Jamie Oliver prefer to cook without </tspan><tspan x="0" y="138.1" class="st18 st21 st20">trying to replace meat - because meat alternatives such as tofu etc. </tspan><tspan x="0" y="161.1" class="st18 st21 st20">are often not well received by meat eaters</tspan></text>
<rect x="79" y="381" class="st4" width="598" height="201"/>
<g>
	<text transform="matrix(1 0 0 1 811.8752 236.6818)"><tspan x="0" y="0" class="st18 st19 st20">2. Do not fear protein deficiency</tspan><tspan x="278.8" y="0" class="st18 st21 st20"> by eating less meat! </tspan><tspan x="0" y="23" class="st18 st21 st20">You can still follow a healthy, balanced diet: </tspan><tspan x="0" y="46" class="st18 st21 st20">Legumes, vegetables, cereals and dairy products </tspan><tspan x="0" y="69" class="st18 st21 st20">are high-quality sources of protein.</tspan><tspan x="0" y="92.1" class="st18 st21 st20">Some of the best athletes in the world are vegans!</tspan></text>
</g>
<rect x="803" y="211" class="st4" width="470" height="133"/>
<text transform="matrix(1 0 0 1 797.0947 576.6523)"><tspan x="0" y="0" class="st18 st19 st20">4. If you eat meat,</tspan><tspan x="156.4" y="0" class="st18 st21 st20"> then it should be organic </tspan><tspan x="0" y="23" class="st18 st21 st20">and from species-appropriate, regional production, </tspan><tspan x="0" y="46" class="st18 st21 st20">preferably from the direct marketer. </tspan><tspan x="0" y="69" class="st18 st21 st20">Find out whether there are suppliers of organic meat </tspan><tspan x="0" y="92.1" class="st18 st21 st20">in your region. Make sure the animal feed is not coming </tspan><tspan x="0" y="115.1" class="st18 st21 st20">from overseas. And you just learned which animals </tspan><tspan x="0" y="138.1" class="st18 st21 st20">cause the least CO2 equivalents!</tspan></text>
<rect x="788" y="553" class="st4" width="490" height="177"/>
<g>
	<path class="st18" d="M950.6,457.4h-3.7l4.7-19.8c0.1-0.5-0.2-1.1-0.7-1.2l-4-1c-0.5-0.1-1.1,0.2-1.2,0.7l-5.8,21.3h-2.3
		c0.7-0.9,1-1.9,1-3v-3h-3c-2.4,0-4.5,1.7-4.9,4.1c-1.6-2.2-4.6-2.8-6.9-1.3c-0.1,0.1-0.2,0.1-0.3,0.2c2-8.8,2-8.9,2-9.1
		c0-2.2-1.8-4-4-4c-0.1,0-0.2,0-0.4,0c-1.1-3.1-4.5-4.8-7.6-3.7c-1.7,0.6-3.1,2-3.7,3.7c-2.2-0.2-4.1,1.4-4.3,3.6c0,0.1,0,0.2,0,0.3
		c0,0.3,0,0.7,1.7,6.1c-0.2,0-0.5-0.1-0.7-0.1h-3v3c0,1.1,0.4,2.1,1,3h-4c-0.6,0-1,0.4-1,1c0,9.3,8.7,15.2,11,16.6v3.4
		c0,0.6,0.4,1,1,1h28c0.6,0,1-0.4,1-1V475c2.3-1.4,11-7.3,11-16.6C951.6,457.9,951.2,457.4,950.6,457.4z M947.3,437.6l2.1,0.5
		l-4.6,19.3H942L947.3,437.6z M932.6,456.4c0-1.7,1.3-3,3-3h1v1c0,1.7-1.3,3-3,3h-1V456.4z M926.6,455.4c1.3,0,2.4,0.8,2.8,2h-5.7
		C924.2,456.2,925.4,455.4,926.6,455.4z M921.5,457.4h-5.7c0.6-1.6,2.3-2.4,3.8-1.8C920.5,455.9,921.2,456.6,921.5,457.4z
		 M907.6,445.4c0-1.1,0.8-2,1.9-2c0.3,0,0.5,0,0.8,0.2c0.5,0.2,1.1-0.1,1.3-0.6c0-0.1,0-0.1,0.1-0.2c0.3-2.2,2.4-3.7,4.5-3.3
		c1.7,0.3,3.1,1.6,3.3,3.3c0.1,0.5,0.6,0.9,1.1,0.8c0.1,0,0.1,0,0.2-0.1c1-0.4,2.2,0.1,2.6,1.1c0.1,0.2,0.1,0.5,0.2,0.7
		c-0.1,0.7-1.3,5.7-2.1,9c-0.8-0.6-1.9-1-2.9-1c-2.4,0-4.4,1.7-4.9,4h-2.1v-1c0-1.5-0.7-2.9-1.9-3.9
		C907.9,446.8,907.7,445.6,907.6,445.4z M905.6,454.4v-1h1c1.7,0,3,1.3,3,3v1h-1C907,457.4,905.6,456.1,905.6,454.4z M939.4,473.4
		h-4.7v2h4v2h-26v-2h13v-2h-13.7c-1.1-0.7-6.8-4.3-9.2-10h11v-2H902c-0.2-0.7-0.3-1.3-0.3-2h47.9c-0.1,0.7-0.2,1.3-0.3,2h-21.6v2h21
		C946.2,469.1,940.5,472.8,939.4,473.4z"/>
	<rect x="915.6" y="461.4" class="st18" width="2" height="2"/>
	<rect x="919.6" y="461.4" class="st18" width="2" height="2"/>
	<rect x="923.6" y="461.4" class="st18" width="2" height="2"/>
	<path class="st18" d="M924.1,434.8c-0.3,0.6-0.3,1.2-0.2,1.8c0.4,2,2.8,4.1,5.4,4.8c2,0.6,4.1,0.9,6.2,1h0c0.6,0,1-0.4,1-1
		c0-0.2-0.1-0.4-0.2-0.6c0,0-1.1-1.6-3-4c-0.8-1.1-3.1-3.7-5.6-4c-0.8-0.1-1.6,0.1-2.3,0.4c-1.1-0.5-1.9-1.6-1.9-2.9h-2
		C921.6,432.2,922.6,433.9,924.1,434.8z M927.3,434.8c0.1,0,0.2,0,0.2,0c1.2,0.1,2.9,1.4,4.3,3.2c0.6,0.8,1.2,1.6,1.6,2.2
		c-1.2-0.2-2.4-0.4-3.6-0.7c-2.1-0.6-3.7-2.1-4-3.3c-0.1-0.4,0-0.8,0.4-1C926.6,435,926.9,434.8,927.3,434.8L927.3,434.8z"/>
	<rect x="911.6" y="447.4" class="st18" width="2" height="2"/>
	<rect x="916.6" y="449.4" class="st18" width="2" height="2"/>
	<path class="st18" d="M904.6,435.4c0.3,0,1.2,0.1,2.5,0.1c2.5,0,6.2-0.2,8.1-1.2c1.2-0.7,2.2-1.9,2.6-3.3c0.5-1.3,0.4-2.8-0.2-4.1
		c-1.2-2.3-5-2.7-7.4-1.4c-2.9,1.5-6.1,7.7-6.4,8.4c-0.3,0.5-0.1,1.1,0.4,1.3C904.3,435.4,904.4,435.4,904.6,435.4z M910.4,429.9
		l-3,1.8c0.5-0.7,1-1.5,1.5-2.2L910.4,429.9z M911.6,431.5v1.7c-1.1,0.1-2.2,0.2-3.4,0.3L911.6,431.5z M915.8,430.4
		c-0.2,0.9-0.8,1.7-1.6,2.1c-0.2,0.1-0.4,0.2-0.5,0.2v-2.4l2.4-1.4C916,429.4,915.9,429.9,915.8,430.4L915.8,430.4z M915,427.2
		l-2.1,1.2l0,0l-2.5-0.6c0.2-0.2,0.5-0.4,0.7-0.5C912.3,426.7,913.8,426.7,915,427.2L915,427.2z"/>
	<path class="st18" d="M938.6,427.4h2c0.6,0,1-0.4,1-1c0-3.9-3.1-7-7-7h-2c-0.6,0-1,0.4-1,1C931.6,424.3,934.8,427.4,938.6,427.4z
		 M934.6,421.4c2.4,0,4.4,1.7,4.9,4h-0.9c-2.4,0-4.4-1.7-4.9-4H934.6z"/>
	<path class="st18" d="M926.6,427.4c1.7,0,3-1.3,3-3s-1.3-3-3-3c-1.7,0-3,1.3-3,3S925,427.4,926.6,427.4z M926.6,423.4
		c0.6,0,1,0.4,1,1s-0.4,1-1,1c-0.6,0-1-0.4-1-1S926.1,423.4,926.6,423.4z"/>
	<path class="st18" d="M937.6,433.4c0,1.7,1.3,3,3,3c1.7,0,3-1.3,3-3s-1.3-3-3-3C939,430.4,937.6,431.8,937.6,433.4z M941.6,433.4
		c0,0.6-0.4,1-1,1c-0.6,0-1-0.4-1-1s0.4-1,1-1C941.2,432.4,941.6,432.9,941.6,433.4z"/>
	<rect x="930.6" y="446.4" class="st18" width="2" height="2"/>
	<rect x="933.6" y="429.4" class="st18" width="2" height="2"/>
	<rect x="917.6" y="420.4" class="st18" width="2" height="2"/>
	<rect x="938.6" y="442.4" class="st18" width="2" height="2"/>
</g>
<g>
	<path class="st18" d="M458.7,248.8c-0.8-0.1-6.9-0.4-10.5,2.9c-1.7,1.6-2.6,3.8-2.5,6.1c-0.2,2,1.2,3.8,3.2,4c0.3,0,0.5,0,0.8,0
		c2.6,0,4-1.5,4-3c0-1.5,0-2,5-2s5,0.5,5,2c0,1.5,1.4,3,4,3c2,0.2,3.8-1.2,4-3.2c0-0.3,0-0.5,0-0.8c0.1-2.3-0.8-4.5-2.5-6.1
		C465.6,248.5,459.5,248.8,458.7,248.8z M467.7,259.8c-1.3,0-2-0.5-2-1c0-3-1-4-7-4s-7,1-7,4c0,0.5-0.7,1-2,1c-1.4,0-2-0.6-2-2
		c-0.1-1.7,0.6-3.4,1.9-4.6c0.8-0.7,1.7-1.2,2.6-1.5c-0.3,0.7-0.5,1.4-0.5,2.1h2c0-1.3,0.8-2.4,2-2.9c0.6-0.1,1.3-0.1,2-0.1v2h2v-2
		c0.7,0,1.3,0,1.9,0.1c1.2,0.5,2,1.6,2.1,2.9h2c0-0.7-0.2-1.5-0.5-2.2c1,0.3,1.9,0.9,2.6,1.5c1.3,1.2,1.9,2.9,1.9,4.6
		C469.7,259.3,469.1,259.8,467.7,259.8z"/>
	<path class="st18" d="M457.7,275l-2-0.3l-1,7c-0.1,0.5,0.3,1.1,0.8,1.1c0,0,0.1,0,0.1,0h4v-2h-2.8L457.7,275z"/>
	<path class="st18" d="M493.1,261.1c-6.3-3.1-10.6-3.1-16.9,0c-0.7,0.4-1.4,0.8-2,1.2c0.9-1.3,1.4-2.9,1.4-4.5
		c0-5.5-4.4-10.6-8.6-12.7c-6.3-3.1-10.6-3.1-16.9,0c-4.2,2.1-8.6,7.4-8.6,12.7c0,4.4,3.6,8,8,8c1.1,0,2.2-0.3,3.2-0.8l-2.2,15.6
		c-0.2,1.6,0.3,3.2,1.3,4.4c0.9,1.1,2.3,1.7,3.7,1.8h6c1.4,0,2.8-0.7,3.7-1.8c1-1.2,1.5-2.8,1.3-4.4l-2.2-15.6
		c1,0.5,2.1,0.8,3.2,0.8c1.4,0,2.7-0.3,3.9-1c-2.3,2.4-3.7,5.6-3.9,9c0,4.4,3.6,8,8,8c1.1,0,2.2-0.3,3.2-0.8l-2.2,15.6
		c-0.2,1.6,0.3,3.2,1.3,4.4c0.9,1.1,2.3,1.7,3.7,1.8h6c1.4,0,2.8-0.7,3.7-1.8c1-1.2,1.5-2.8,1.3-4.4l-2.2-15.6
		c1,0.5,2.1,0.8,3.2,0.8c4.4,0,8-3.6,8-8C501.7,268.3,497.3,263.2,493.1,261.1z M464.7,281c0.1,1-0.2,2-0.9,2.8
		c-0.5,0.7-1.3,1.1-2.2,1.1h-6c-0.8,0-1.6-0.4-2.2-1.1c-0.7-0.8-1-1.8-0.8-2.8l2.5-17.6c0.4-0.5,0.8-1,1.1-1.5h4.8
		c0.3,0.5,0.7,1.1,1.1,1.5L464.7,281z M467.7,263.8c-2.2,0-4.2-1.4-5.1-3.4c-0.2-0.3-0.5-0.6-0.9-0.6h-6c-0.4,0-0.7,0.2-0.9,0.6
		c-0.9,2.1-2.9,3.4-5.1,3.4c-3.3,0-6-2.7-6-6c0-4.5,3.8-9.1,7.4-10.9c5.7-2.8,9.4-2.8,15.1,0c3.7,1.8,7.4,6.4,7.4,10.9
		C473.7,261.1,471,263.8,467.7,263.8z M490.7,297c0.1,1-0.2,2-0.8,2.8c-0.5,0.7-1.3,1.1-2.2,1.1h-6c-0.8,0-1.6-0.4-2.2-1.1
		c-0.7-0.8-1-1.8-0.8-2.8l2.5-17.6c0.4-0.5,0.8-1,1.1-1.5h4.8c0.3,0.5,0.7,1.1,1.1,1.5L490.7,297z M493.7,279.8
		c-2.2,0-4.2-1.4-5.1-3.4c-0.2-0.3-0.5-0.6-0.9-0.6h-6c-0.4,0-0.7,0.2-0.9,0.6c-0.9,2.1-2.9,3.4-5.1,3.4c-3.3,0-6-2.7-6-6
		c0-4.5,3.8-9.1,7.4-10.9c5.7-2.8,9.4-2.8,15.1,0c3.7,1.8,7.4,6.4,7.4,10.9C499.7,277.1,497,279.8,493.7,279.8z"/>
	<path class="st18" d="M484.7,264.8c-0.8-0.1-6.9-0.4-10.5,2.9c-1.7,1.6-2.6,3.8-2.5,6.1c-0.2,2,1.2,3.8,3.2,4c0.3,0,0.5,0,0.8,0
		c2.6,0,4-1.5,4-3c0-1.5,0-2,5-2s5,0.5,5,2c0,1.5,1.4,3,4,3c2,0.2,3.8-1.2,4-3.2c0-0.3,0-0.5,0-0.8c0.1-2.3-0.8-4.5-2.5-6.1
		C491.6,264.5,485.5,264.8,484.7,264.8z M493.7,275.8c-1.3,0-2-0.5-2-1c0-3-1-4-7-4s-7,1-7,4c0,0.5-0.7,1-2,1c-1.4,0-2-0.6-2-2
		c-0.1-1.7,0.6-3.4,1.9-4.6c0.8-0.7,1.7-1.2,2.6-1.5c-0.3,0.7-0.5,1.4-0.5,2.1h2c0-1.3,0.8-2.5,2-2.9c0.6-0.1,1.3-0.1,2-0.1v2h2v-2
		c0.7,0,1.3,0,1.9,0.1c1.2,0.5,2,1.6,2.1,2.9h2c0-0.7-0.2-1.5-0.5-2.2c1,0.3,1.9,0.9,2.6,1.5c1.3,1.2,1.9,2.9,1.9,4.6
		C495.7,275.3,495.1,275.8,493.7,275.8z"/>
	<path class="st18" d="M483.7,291l-2-0.3l-1,7c-0.1,0.5,0.3,1.1,0.8,1.1c0,0,0.1,0,0.1,0h4v-2h-2.8L483.7,291z"/>
	<rect x="485.7" y="291.8" class="st18" width="2" height="2"/>
	<rect x="482.7" y="284.8" class="st18" width="2" height="2"/>
	<rect x="458.7" y="269.8" class="st18" width="2" height="2"/>
</g>
<g>
	<path class="st18" d="M244.7,269.5c-0.3-0.3-0.4-0.7-0.4-1.1l-1,0h-1c0,1,0.5,2,1.3,2.7c0.5,0.3,1,0.5,1.6,0.5c0.5,0,1-0.1,1.4-0.3
		l-0.6-1.9C245.6,269.6,245,269.7,244.7,269.5z"/>
	<path class="st18" d="M292.3,263.4c-1.1,0-2.2,0.3-3.1,0.9c-0.3-0.4-0.7-0.7-1.1-1c1.4-1.6,2.2-3.7,2.2-5.9c0-3.4-2-6.6-5.1-8.1
		c0.1-0.3,0.1-0.6,0.1-0.9c0-3.3-2.7-6-6-6c-1.1,0-2.2,0.3-3.1,0.9c-1.9-2.5-4.8-3.9-7.9-3.9c-4.4,0-8.2,2.9-9.5,7
		c-3.2-0.3-6,2.1-6.4,5.3c-3.7,1.1-5.8,4.9-4.8,8.6c0.3,1,0.8,1.9,1.4,2.6c-0.6,0.3-1.2,0.8-1.6,1.3c-0.9-0.6-2-0.9-3.1-0.9
		c-3.3,0-6,2.7-6,6c0,2,1,3.8,2.6,4.9c-0.4,0.6-0.6,1.3-0.6,2.1c0,2.2,1.8,4,4,4c1.5,0,2.9-0.9,3.6-2.2c0.5,0.1,0.9,0.2,1.4,0.2
		c0.2,0,0.4,0,0.6-0.1c3.9,2.2,12.4,8.3,12.4,20.1c0,0.6,0.4,1,1,1h10c0.5,0,1-0.4,1-0.9c0-0.1,0.9-14.4,11-20.5
		c0.6,0.3,1.3,0.4,2,0.4c0.5,0,1-0.1,1.4-0.2c1,2,3.4,2.8,5.3,1.8c1.4-0.7,2.2-2.1,2.2-3.6c0-0.7-0.2-1.4-0.6-2.1
		c2.7-1.9,3.4-5.6,1.5-8.4C296.1,264.4,294.2,263.4,292.3,263.4z M253.5,253.5c0.5-0.1,0.8-0.5,0.8-1c0,0,0-0.1,0-0.1
		c0-2.2,1.8-4,4-4c0.3,0,0.6,0,0.9,0.1c0.3,0.1,0.5,0,0.8-0.1c0.2-0.1,0.4-0.4,0.5-0.6c0.8-3.7,4-6.4,7.8-6.4c2.8,0,5.4,1.4,6.8,3.8
		c0.3,0.5,0.9,0.6,1.4,0.3c0.1,0,0.1-0.1,0.1-0.1c0.7-0.7,1.7-1,2.7-1c2.2,0,4,1.8,4,4c0,0.4-0.1,0.8-0.2,1.2
		c-0.2,0.5,0.1,1.1,0.6,1.2c2.8,1,4.6,3.6,4.6,6.6c0,1.9-0.8,3.8-2.2,5.1c-0.3,0-0.5-0.1-0.8-0.1c-2.7,0-5,2.2-5,5
		c0,0.2,0,0.4,0,0.6c-1.4,1.7-3.9,1.9-5.6,0.5c-0.4-0.3-1.1-0.3-1.4,0.1c0,0,0,0.1-0.1,0.1c-1.8,2.8-5.5,3.5-8.3,1.7
		c-0.7-0.4-1.3-1-1.7-1.7c-0.3-0.5-0.9-0.6-1.4-0.3c0,0-0.1,0-0.1,0.1c-1.7,1.4-4.2,1.2-5.6-0.5c0.3-2.7-1.6-5.2-4.3-5.6
		c-0.2,0-0.4,0-0.6,0c-2.2-1.6-2.7-4.8-1-7C251,254.4,252.2,253.7,253.5,253.5L253.5,253.5z M282.6,271.6
		C282.6,271.7,282.6,271.7,282.6,271.6c-4.4,1.9-8,5-10.6,9l0.9-8.7c0.5-0.4,1-0.8,1.4-1.3c0.9,0.5,1.9,0.8,2.9,0.8
		c1.4,0,2.7-0.5,3.8-1.4C281.5,270.7,282,271.2,282.6,271.6z M265,283.2c-2.6-4.4-6.3-8-10.8-10.4c0-0.4-0.1-0.7-0.3-1.1
		c0.6-0.4,1.2-0.9,1.6-1.6c1.1,0.9,2.4,1.3,3.8,1.3c1,0,2-0.3,2.9-0.8c0.6,0.7,1.4,1.4,2.3,1.8L265,283.2z M249.3,276.4
		c-0.5,0-1.1-0.2-1.5-0.4c-0.5-0.3-1.1-0.1-1.4,0.3c-0.1,0.1-0.1,0.2-0.1,0.4c-0.1,1.1-1.1,1.9-2.2,1.7c-1-0.1-1.8-1-1.8-2
		c0-0.6,0.3-1.2,0.8-1.6c0.4-0.3,0.5-1,0.2-1.4c-0.1-0.1-0.3-0.2-0.4-0.3c-2.1-0.8-3.1-3.1-2.3-5.2c0.8-2.1,3.1-3.1,5.2-2.3
		c0.5,0.2,0.9,0.5,1.3,0.8c0.4,0.4,1,0.3,1.4-0.1c0.1-0.1,0.1-0.2,0.2-0.3c0.7-1.5,2.5-2.2,4-1.5c1.5,0.7,2.2,2.5,1.5,4
		c-0.3,0.7-1,1.3-1.8,1.6c-0.5,0.2-0.8,0.8-0.6,1.3c0,0.1,0.1,0.2,0.1,0.2c0.9,1.4,0.6,3.2-0.8,4.2
		C250.5,276.2,249.9,276.4,249.3,276.4z M272.4,297.4h-8.1c-0.4-10.9-7.6-17.2-12-20c0.8-0.6,1.5-1.5,1.8-2.5
		c5.3,3.1,9.3,8,11.3,13.8c0.1,0.4,0.5,0.7,1,0.7c0.1,0,0.1,0,0.2,0c0.5-0.1,0.9-0.5,0.8-1l-0.8-15.1c1.4,0.3,2.9,0.2,4.3-0.2
		l-1.5,14.3c-0.1,0.5,0.3,1,0.8,1.1c0.1,0,0.1,0,0.2,0c0.5,0,0.9-0.3,1-0.8c1.4-6,5.5-11,11.1-13.6c0.1,1,0.5,2,1.2,2.7
		C274.6,282.6,272.7,294,272.4,297.4z M293.8,273.1c-0.5,0.2-0.8,0.8-0.6,1.3c0.1,0.2,0.2,0.3,0.3,0.4c0.9,0.7,1,1.9,0.4,2.8
		c-0.4,0.5-1,0.8-1.6,0.8c-1,0-1.8-0.7-2-1.7c0-0.3-0.3-0.6-0.6-0.8c-0.1-0.1-0.3-0.1-0.4-0.1c-0.2,0-0.4,0-0.5,0.1
		c-0.5,0.3-1,0.4-1.5,0.4c-1.7,0-3-1.3-3-3c0-0.6,0.2-1.2,0.5-1.7c0.3-0.5,0.2-1.1-0.3-1.4c-0.1,0-0.1-0.1-0.2-0.1
		c-1.6-0.5-2.4-2.2-1.8-3.8c0.5-1.6,2.2-2.4,3.8-1.8c0.8,0.3,1.4,0.8,1.7,1.6c0.2,0.5,0.8,0.7,1.3,0.5c0.1,0,0.2-0.1,0.3-0.2
		c1.6-1.5,4.1-1.4,5.6,0.2s1.4,4.1-0.2,5.6C294.6,272.7,294.2,273,293.8,273.1L293.8,273.1z"/>
	<path class="st18" d="M291.9,269.5c-0.3,0.2-0.9,0.1-1.3,0l-0.6,1.9c0.5,0.2,0.9,0.2,1.4,0.3c0.6,0,1.1-0.2,1.6-0.5
		c0.8-0.7,1.3-1.7,1.3-2.7h-2C292.3,268.8,292.1,269.2,291.9,269.5z"/>
	<path class="st18" d="M268.3,245.4v-2c-3.2-0.1-5.9,2.4-6,5.6c0,0.1,0,0.3,0,0.4h2c-0.1-2.1,1.6-3.9,3.7-4
		C268.1,245.4,268.2,245.4,268.3,245.4z"/>
	<path class="st18" d="M260.3,252.4l0-2c-2.1-0.1-3.9,1.6-4,3.8c0,0.1,0,0.2,0,0.2h2c-0.1-1,0.7-1.9,1.8-2
		C260.1,252.4,260.2,252.4,260.3,252.4z"/>
	<path class="st18" d="M279.3,249.4h2c0-1.6-1.2-3-2.8-3c-0.1,0-0.1,0-0.2,0l0,2c0.5-0.1,1,0.3,1,0.8
		C279.3,249.3,279.3,249.4,279.3,249.4z"/>
	<path class="st18" d="M285.1,261c1.6-2.1,1.6-5.1,0-7.2l-1.6,1.2c1,1.4,1,3.4,0,4.8L285.1,261z"/>
	<path class="st18" d="M276.3,262.4c2.2,0,4-1.8,4-4h-2c0,1.1-0.9,2-2,2c-1.1,0-2-0.9-2-2h-2C272.3,260.6,274.1,262.4,276.3,262.4z"
		/>
	<path class="st18" d="M263.3,265.4c2.2,0,4-1.8,4-4h-2c0,1.1-0.9,2-2,2c-1.1,0-2-0.9-2-2h-2C259.3,263.6,261.1,265.4,263.3,265.4z"
		/>
	<path class="st18" d="M265.3,253.4h-2c0,2.2,1.8,4,4,4s4-1.8,4-4h-2c0,1.1-0.9,2-2,2C266.2,255.4,265.3,254.5,265.3,253.4z"/>
	<rect x="255.3" y="257.4" class="st18" width="2" height="2"/>
	<rect x="271.3" y="263.4" class="st18" width="2" height="2"/>
	<rect x="275.3" y="249.4" class="st18" width="2" height="2"/>
	<rect x="266.3" y="293.4" class="st18" width="2" height="2"/>
	<rect x="269.3" y="290.4" class="st18" width="2" height="2"/>
</g>
<g>
	<path class="st18" d="M1217.7,463.2c0,0.6,0.4,1,1,1h4c0.6,0,1-0.4,1-1c0-1.3,0.8-2.4,2-2.8v5.8h-5c-0.6,0-1,0.4-1,1
		c0,3.5,2.6,6.4,6,6.9v2.2c-2.1,0.6-3.4,2.7-2.9,4.9c0.6,2.1,2.7,3.4,4.9,2.9s3.4-2.7,2.9-4.9c-0.4-1.4-1.5-2.5-2.9-2.9v-2.1h5
		c0.6,0,1-0.4,1-1c0-3.5-2.6-6.4-6-6.9v-5.9c1.2,0.4,2,1.6,2,2.8c0,0.6,0.4,1,1,1h4c0.6,0,1-0.4,1-1c0-2.7-1.2-5.3-3.4-7h0.4
		c1.7,0,3-1.3,3-3v-6c0-1.7-1.3-3-3-3h-1.1c2.8-2.7,2.8-7.1,0.1-9.9c-0.4-0.4-0.8-0.7-1.2-1c3.2-1.5,5.2-4.7,5.2-8.1
		c0-0.6-0.4-1-1-1h-4c-0.6,0-1,0.4-1,1c0,1.3-0.8,2.4-2,2.8v-2.8c0-0.6-0.4-1-1-1s-1,0.4-1,1v2.8c-1.2-0.4-2-1.5-2-2.8
		c0-0.6-0.4-1-1-1h-4c-0.6,0-1,0.4-1,1c0,3.5,2,6.7,5.2,8.1c-3.2,2.1-4.2,6.4-2.1,9.7c0.3,0.4,0.6,0.8,1,1.2h-1.1c-1.7,0-3,1.3-3,3
		v6c0,1.7,1.3,3,3,3h0.4C1218.9,457.9,1217.7,460.5,1217.7,463.2z M1228.7,480.2c0,1.1-0.9,2-2,2s-2-0.9-2-2c0-1.1,0.9-2,2-2
		S1228.7,479.1,1228.7,480.2z M1231.6,472.2h-4.9c-2.4,0-4.4-1.7-4.9-4h4.9C1229.1,468.2,1231.1,469.9,1231.6,472.2z M1219.8,426.2
		h2c0.5,2.7,3.2,4.5,5.9,3.9c2-0.4,3.5-1.9,3.9-3.9h2c-0.5,3.8-4.1,6.5-7.9,5.9C1222.6,431.7,1220.2,429.3,1219.8,426.2z
		 M1221.7,439.2c0-2.8,2.2-5,5-5s5,2.2,5,5s-2.2,5-5,5C1223.9,444.2,1221.7,442,1221.7,439.2z M1220.7,446.2h12c0.6,0,1,0.4,1,1v1.1
		c-0.7,0.2-1.2,0.6-1.7,1.1c-0.5,0.5-0.7,0.7-1.3,0.7c-0.6,0-0.8-0.2-1.3-0.7c-1.2-1.5-3.4-1.7-4.9-0.5c-0.2,0.2-0.4,0.3-0.5,0.5
		c-0.5,0.5-0.7,0.7-1.3,0.7c-0.6,0-0.8-0.2-1.3-0.7c-0.5-0.5-1-0.9-1.7-1.1v-1.1C1219.7,446.6,1220.1,446.2,1220.7,446.2z
		 M1220.7,454.2c-0.6,0-1-0.4-1-1v-2.6c0.1,0.1,0.2,0.2,0.3,0.3c1.2,1.5,3.4,1.7,4.9,0.5c0.2-0.2,0.4-0.3,0.5-0.5
		c0.5-0.5,0.7-0.7,1.3-0.7c0.6,0,0.8,0.2,1.3,0.7c1.2,1.5,3.4,1.7,4.9,0.5c0.2-0.2,0.4-0.3,0.5-0.5c0.1-0.1,0.2-0.2,0.3-0.3v2.6
		c0,0.6-0.4,1-1,1H1220.7z M1233.6,462.2h-2c-0.5-2.7-3.2-4.5-5.9-3.9c-2,0.4-3.5,1.9-3.9,3.9h-2c0.5-3.8,4.1-6.5,7.9-5.9
		C1230.8,456.7,1233.2,459.1,1233.6,462.2L1233.6,462.2z"/>
	<path class="st18" d="M1226.7,440.2c-0.6,0-1-0.4-1-1h-2c0,1.7,1.3,3,3,3s3-1.3,3-3h-2C1227.7,439.8,1227.2,440.2,1226.7,440.2z"/>
	<path class="st18" d="M1245.7,456.2h-2c0,1.7,1.3,3,3,3s3-1.3,3-3h-2c0,0.6-0.4,1-1,1S1245.7,456.8,1245.7,456.2z"/>
	<path class="st18" d="M1252.7,436.2c0.6,0,1-0.4,1-1c0-3.5-2.6-6.4-6-6.9v-3.1c0-0.6-0.4-1-1-1s-1,0.4-1,1v3h-5c-0.6,0-1,0.4-1,1
		c0,3.5,2.6,6.4,6,6.9v2.1c-4.6,0.5-8,4.4-8,8.9c0,0.6,0.4,1,1,1h4c0.6,0,1-0.4,1-1c0-1.3,0.8-2.4,2-2.8v4.9
		c-3.8,0.5-6.5,4.1-5.9,7.9c0.2,1.5,0.9,2.9,2,4h-1.1c-1.7,0-3,1.3-3,3v6c0,1.7,1.3,3,3,3h5v3.1c-2.1,0.6-3.4,2.7-2.9,4.9
		c0.6,2.1,2.7,3.4,4.9,2.9s3.4-2.7,2.9-4.9c-0.4-1.4-1.5-2.5-2.9-2.9v-3.1h5c1.7,0,3-1.3,3-3v-6c0-1.7-1.3-3-3-3h-1.1
		c2.8-2.7,2.8-7.1,0.1-9.9c-1.1-1.1-2.5-1.8-4-2v-4.9c1.2,0.4,2,1.6,2,2.8c0,0.6,0.4,1,1,1h4c0.6,0,1-0.4,1-1c0-4.6-3.4-8.4-8-8.9
		v-2.1H1252.7z M1248.7,480.2c0,1.1-0.9,2-2,2s-2-0.9-2-2c0-1.1,0.9-2,2-2S1248.7,479.1,1248.7,480.2z M1241.8,430.2h4.9
		c2.4,0,4.4,1.7,4.9,4h-4.9C1244.3,434.2,1242.3,432.5,1241.8,430.2z M1252.7,471.2h-12c-0.6,0-1-0.4-1-1v-2.6
		c0.1,0.1,0.2,0.2,0.3,0.3c1.2,1.5,3.4,1.7,4.9,0.5c0.2-0.2,0.4-0.3,0.5-0.5c0.5-0.5,0.7-0.7,1.3-0.7c0.6,0,0.8,0.2,1.3,0.7
		c1.2,1.5,3.4,1.7,4.9,0.5c0.2-0.2,0.4-0.3,0.5-0.5c0.1-0.1,0.2-0.2,0.3-0.3v2.6C1253.7,470.8,1253.2,471.2,1252.7,471.2
		C1252.7,471.2,1252.7,471.2,1252.7,471.2z M1252.7,463.2c0.6,0,1,0.4,1,1v1.1c-0.7,0.2-1.2,0.6-1.7,1.1c-0.5,0.5-0.7,0.7-1.3,0.7
		s-0.8-0.2-1.3-0.7c-1.2-1.5-3.4-1.7-4.9-0.5c-0.2,0.2-0.4,0.3-0.5,0.5c-0.5,0.5-0.7,0.7-1.3,0.7s-0.8-0.2-1.3-0.7
		c-0.5-0.5-1-0.9-1.7-1.1v-1.1c0-0.6,0.4-1,1-1H1252.7z M1251.7,456.2c0,2.8-2.2,5-5,5s-5-2.2-5-5s2.2-5,5-5
		C1249.5,451.2,1251.7,453.4,1251.7,456.2z M1253.6,446.2h-2c-0.5-2.7-3.2-4.5-5.9-3.9c-2,0.4-3.5,1.9-3.9,3.9h-2
		c0.5-3.8,4.1-6.5,7.9-5.9C1250.8,440.7,1253.2,443.1,1253.6,446.2L1253.6,446.2z"/>
</g>
<g>
	<path class="st18" d="M391.6,252.1c0-0.1-0.1-0.1-0.1-0.2l-3.8-5.7v-5.7c0-0.6-0.4-1-1-1h-26c-0.6,0-1,0.4-1,1v5.7l-3.8,5.7
		c0,0.1-0.1,0.1-0.1,0.2c0,0.1-0.1,0.2-0.1,0.4v46c0,0.6,0.4,1,1,1h34c0.6,0,1-0.4,1-1v-46C391.7,252.3,391.7,252.2,391.6,252.1z
		 M389.7,289.4h-6v-24h6V289.4z M381.7,265.4v2.4c-5.1,2.7-7.2,1.8-9.6,0.9c-1.7-0.8-3.5-1.2-5.4-1.3c-3.3,0.1-6.5,1.4-9,3.6v-5.6
		H381.7z M381.7,263.4h-20v-6h4v-2h-5c-0.6,0-1,0.4-1,1v7h-2v-10h24V263.4z M357.7,273.8c0.9-1,4.3-4.4,9-4.4c1.6,0,3.2,0.4,4.6,1.1
		c2.5,1,5.1,2.1,10.4-0.5v19.4h-24V273.8z M383.7,263.4v-10h6v10H383.7z M384.6,251.4l2.1-3.2l2.1,3.2H384.6z M361.7,241.4h2v2h2v-2
		h12v2h2v-2h2v2h2v-2h2v4h-24V241.4z M361.2,247.4h23.6l-2.7,4h-23.6L361.2,247.4z M357.7,291.4h24v6h-24V291.4z M383.7,297.4v-6h6
		v6H383.7z"/>
	<path class="st18" d="M374.7,273.4c-2,0-4.3,3-4.9,5.1c-1.5-1.7-3.6-3.1-5.1-3.1c-0.7,0-1.3,0.3-1.8,0.7c-1.2,1.3-1.2,3.7-1.2,5.7
		l0,0.5c0,2.8,2.2,5,5,5c2.6,0,4.8-2,5-4.6c1.9,1.1,4.3,0.5,5.5-1.3c0.4-0.6,0.6-1.4,0.6-2.1C377.7,278,377.5,273.4,374.7,273.4z
		 M366.7,285.4c-1.7,0-3-1.3-3-3v-0.5c0-1,0-2,0.1-3l2,3.9l1.8-0.9l-2.2-4.4c1.7,0.7,4.3,3.4,4.3,4.8
		C369.7,284.1,368.3,285.4,366.7,285.4z M373.7,281.4c-1.1,0-2-0.9-2-2c0-1.3,2-4,3-4c0.4,0,1,1.7,1,4
		C375.7,280.5,374.8,281.4,373.7,281.4z"/>
	<rect x="366.7" y="271.4" class="st18" width="2" height="2"/>
	<rect x="376.7" y="285.4" class="st18" width="2" height="2"/>
	<rect x="360.7" y="293.4" class="st18" width="2" height="2"/>
</g>
<g>
	<path class="st18" d="M611.7,285.5h-4v-19c0-0.6-0.4-1-1-1h-11v-19c0-0.6-0.4-1-1-1h-10.2c0.8-2,0.3-4.2-1.1-5.7l-3-3
		c-0.4-0.4-1-0.4-1.4,0c-1.9,2.1-1.9,5.3,0,7.4l1.3,1.3h-7.6c-0.6,0-1,0.4-1,1v19h-9c-0.6,0-1,0.4-1,1v19h-8c-0.6,0-1,0.4-1,1v4
		c0,0.6,0.4,1,1,1h5.6l5.7,4.8c0.2,0.1,0.4,0.2,0.6,0.2h34c0.2,0,0.5-0.1,0.6-0.2l5.7-4.8h5.6c0.6,0,1-0.4,1-1v-4
		C612.7,285.9,612.2,285.5,611.7,285.5z M579.8,239l2.2,2.2c0.9,1,1.2,2.5,0.6,3.7l-2.2-2.2C579.5,241.7,579.2,240.3,579.8,239z
		 M605.7,285.5h-20v-18h20V285.5z M573.7,247.5h20v18h-20V247.5z M563.7,267.5h20v18h-20V267.5z M599.3,294.5h-33.3l-3.6-3h40.5
		L599.3,294.5z M610.7,289.5h-56v-2h56V289.5z"/>
	<path class="st18" d="M579.7,253.5c-1.7,0-3,1.3-3,3h2c0-0.6,0.4-1,1-1s1,0.4,1,1h2C582.7,254.8,581.3,253.5,579.7,253.5z"/>
	<path class="st18" d="M589.7,273.5c0,1.7,1.3,3,3,3s3-1.3,3-3c0-1.7-1.3-3-3-3S589.7,271.8,589.7,273.5z M593.7,273.5
		c0,0.6-0.4,1-1,1s-1-0.4-1-1c0-0.6,0.4-1,1-1S593.7,272.9,593.7,273.5z"/>
	<path class="st18" d="M600.7,281.5c0.6,0,1,0.4,1,1h2c0-1.7-1.3-3-3-3s-3,1.3-3,3h2C599.7,281.9,600.1,281.5,600.7,281.5z"/>
	<path class="st18" d="M575.7,274.5c-0.6,0-1-0.4-1-1h-2c0,1.7,1.3,3,3,3s3-1.3,3-3h-2C576.7,274,576.2,274.5,575.7,274.5z"/>
	<path class="st18" d="M589.7,255.5h2v-5c0-0.6-0.4-1-1-1h-4v2h3V255.5z"/>
	<path class="st18" d="M567.7,276.5h-2v6c0,0.6,0.4,1,1,1h5v-2h-4V276.5z"/>
	<rect x="573.7" y="281.5" class="st18" width="4" height="2"/>
	<rect x="583.7" y="259.5" class="st18" width="4" height="2"/>
	<rect x="567.7" y="270.5" class="st18" width="4" height="2"/>
	<rect x="598.7" y="271.5" class="st18" width="4" height="2"/>
	<rect x="587.7" y="278.5" class="st18" width="4" height="2"/>
</g>
<g>
	<g>
		<path class="st18" d="M1049.7,467h-3.6c-0.5-9.1-8.3-13.6-23.8-13.6s-23.2,4.5-23.8,13.6h-3.6c-0.5,0-1,0.4-1,0.9
			c0,0.3-0.3,7.6,12.9,11.4c0.1,0,0.2,0,0.3,0h30.4c0.1,0,0.2,0,0.3,0c13.2-3.8,12.9-11,12.9-11.4
			C1050.7,467.4,1050.2,467,1049.7,467z M1022.3,455.4c14.3,0,21.3,3.7,21.8,11.6h-2.5c-0.8-8.7-12.8-8.7-19.3-8.7s-18.5,0-19.3,8.7
			h-2.5C1001.1,459.1,1008,455.4,1022.3,455.4z M1036.1,467c-0.5-3.8-7.2-4.3-13.8-4.3s-13.3,0.5-13.8,4.3h-3.5
			c0.7-5.5,7.4-6.7,17.3-6.7c9.9,0,16.6,1.2,17.3,6.7H1036.1z M1034,467h-23.4c0.5-1.2,3-2.3,11.7-2.3
			C1031,464.7,1033.6,465.9,1034,467z M1037.4,477.4h-30.2c-8.8-2.6-10.8-6.6-11.2-8.4h52.6C1048.2,470.8,1046.2,474.8,1037.4,477.4
			z"/>
	</g>
	<g>
		<path class="st18" d="M1037.5,471.3c-1,0.9-2.5,1.6-4.4,2.2c-0.5,0.2-0.8,0.7-0.7,1.2c0.2,0.5,0.7,0.8,1.2,0.7
			c2.2-0.7,3.9-1.5,5.1-2.5c0.4-0.4,0.5-1,0.1-1.4C1038.6,471,1037.9,470.9,1037.5,471.3z"/>
	</g>
	<g>
		<path class="st18" d="M1053.3,414.5c-4.4-1-33.4,13.3-33.7,13.4c-0.7,0.3-1.2-0.2-1.3-0.3c-0.8-0.6-1.9-0.7-2.9-0.3l-16.2,6.7
			c-0.6,0.2-0.8,0.8-0.6,1.3c0.2,0.5,0.8,0.8,1.3,0.5l11.4-4.7l0.8,1.8c-0.1,0.1-12.1,5-11.4,4.7c-0.5,0.2-0.8,0.8-0.5,1.3
			c0.2,0.4,0.5,0.6,0.9,0.6c0.1,0,0.3,0,0.4-0.1l0.6-0.3c-0.3,0.5-0.5,1.2-0.1,2.1c0,0.1,0.1,0.1,0.1,0.2c-0.4,0.3-0.5,0.7-0.4,1.2
			c0.5,1.1,1.7,0.4,2.3,0.1c1.1,0.3,1.2,0.3,0.7,1.2c-1.2,2-0.6,3.6,1.7,4.2c0.6,0.1,0.7,0.2,0.8,0.4c0.2,0.5-1.5,1.7-0.8,3.4
			c0.2,0.4,0.5,0.6,0.9,0.6c0.1,0,0.3,0,0.4-0.1c0.5-0.2,0.8-0.8,0.5-1.3c-0.1-0.2,0-0.3,0.3-0.8c0.4-0.6,0.9-1.5,0.4-2.6
			c-0.9-2.3-3.8-0.9-2.6-2.7c0.7-1.1,0.9-2.2,0.1-3.2l3.1-1.3c0.5,0.1,0.9,0.2,1,0.4c0.2,0.5-1.5,1.7-0.8,3.4
			c0.7,1.8,2.7,1.4,2.9,1.9c0.2,0.5-1.5,1.7-0.7,3.4c0.2,0.5,0.8,0.8,1.3,0.5c0.5-0.2,0.8-0.8,0.5-1.3c-0.2-0.5,1.5-1.7,0.7-3.4
			c-1-2.3-3.8-0.8-2.6-2.7c0.7-1.1,0.9-2.2,0.1-3.2l7.3-3c2.5-1,1.3-3.3,2.6-3.7c0.3-0.1,30.8-10.5,33.2-14.2
			C1055.8,417.2,1054.8,414.8,1053.3,414.5z M1013.6,436.7l-4.2,1.7c-0.5-0.4,0.7-1.2,0.8-2.5l2.6-1.1L1013.6,436.7z M1007.6,437
			c-0.4,0.8-0.4,1.4-0.1,2.2l-3.7,1.5c-0.5-0.4,0.8-1.2,0.8-2.5L1007.6,437z M1053.3,417.5c-1.3,2.1-21.7,10-32.2,13.4
			c-2.7,0.9-1.5,3.2-2.7,3.7l-3,1.2l-2.3-5.5l3-1.2c0.7-0.3,1.1,0.3,1.3,0.3c0.9,0.7,2.1,0.7,3.1,0.2c9.9-5,29.9-13.9,32.3-13.3
			C1053.1,416.5,1053.4,417.3,1053.3,417.5z"/>
	</g>
</g>
<g>
	<path class="st18" d="M1115.2,453.6c-0.6,0-1,0.4-1,1c0,0.4,0.2,0.8,0.6,0.9c4.9,2,12.2,3.1,19.9,3.1c12.6,0,26-3.2,26-9
		c0-5.7-13.1-8.9-25.5-9h0c-0.6,0-1,0.4-1,1c0,0.4,0.2,0.8,0.6,0.9c3.1,1.2,4.9,2.7,4.9,4.1c0,1-0.5,2-1.2,2.7
		C1134.5,453.1,1122,453.8,1115.2,453.6L1115.2,453.6z M1139.9,450.7c1.2-1.1,1.8-2.6,1.8-4.1c0-1.1-0.5-2.4-2.3-3.9
		c11.6,0.7,19.3,4,19.3,6.9c0,3.3-9.9,7-24,7c-4.2,0-8.4-0.3-12.5-1.1C1128.3,455.2,1136.3,454.1,1139.9,450.7L1139.9,450.7z"/>
	<path class="st18" d="M1112.2,446.6c0,0.1,0,0.2,0,0.3c-1.5,0.6-2.5,2.1-2.5,3.7c0,0.3,0.1,0.6,0.4,0.8c1,0.7,2.1,1.2,3.3,1.6
		c0.1,0,0.2,0.1,0.3,0.1c0.6,0,1-0.4,1-1c0-0.4-0.3-0.8-0.7-0.9c-0.8-0.3-1.5-0.6-2.3-1c0.2-0.8,0.9-1.4,1.7-1.5
		c0.5-0.1,0.9-0.5,0.9-1.1c0-0.1,0-0.2-0.1-0.2c-0.2-0.5-0.2-1,0.1-1.5c0.3-0.6,1-1.1,1.7-1.2c0.5-0.1,0.9-0.6,0.8-1.2
		c0,0,0-0.1,0-0.1c-0.1-0.3-0.2-0.7-0.1-1c0.2-0.8,0.8-1.5,1.7-1.7c0.5-0.1,0.8-0.5,0.8-1c0,0,0-0.1,0-0.1c0-1.1,0.9-2,2-2h0
		c0,0,0.1,0,0.1,0c0.3,0,0.6-0.1,0.8-0.3c0.7-0.8,2-0.9,2.8-0.1c0.1,0,0.1,0.1,0.1,0.1c0.2,0.2,0.5,0.4,0.8,0.3c0,0,0.2,0,0.2,0
		c1.1,0,2,0.9,2,2c0,0,0,0.1,0,0.1c0,0.5,0.3,0.9,0.8,1c0.8,0.2,1.5,0.8,1.7,1.7c0.1,0.3,0,0.7-0.1,1c-0.2,0.5,0.1,1.1,0.6,1.3
		c0,0,0.1,0,0.1,0c0.7,0.1,1.4,0.5,1.7,1.2c0.2,0.5,0.2,1,0.1,1.5c-0.2,0.5,0.1,1.1,0.6,1.3c0.1,0,0.2,0,0.2,0.1
		c0.4,0.1,0.8,0.3,1.1,0.6c0.4,0.4,1,0.4,1.4,0.1c0.4-0.4,0.4-1,0.1-1.4c0,0,0,0,0,0c-0.3-0.4-0.8-0.7-1.3-1c0-0.1,0-0.2,0-0.3
		c0-1.6-1-3.1-2.5-3.7c0-0.1,0-0.2,0-0.3c0-1.7-1-3.1-2.6-3.7c-0.3-1.8-1.9-3.2-3.8-3.3c-1.5-1.3-3.8-1.3-5.3,0
		c-1.9,0.1-3.5,1.4-3.8,3.3c-1.5,0.6-2.6,2.1-2.6,3.7c0,0.1,0,0.2,0,0.3C1113.2,443.5,1112.2,444.9,1112.2,446.6z"/>
	<path class="st18" d="M1149.7,451.6c1.7,0,3-1.3,3-3c0-1.7-1.3-3-3-3s-3,1.3-3,3C1146.7,450.2,1148,451.6,1149.7,451.6z
		 M1149.7,447.6c0.6,0,1,0.4,1,1c0,0.6-0.4,1-1,1s-1-0.4-1-1C1148.7,448,1149.1,447.6,1149.7,447.6z"/>
	<path class="st18" d="M1139.4,454.5l3,1c0.1,0,0.2,0.1,0.3,0.1c0.2,0,0.3,0,0.4-0.1l4-2c0.5-0.2,0.7-0.8,0.4-1.3
		c-0.1-0.2-0.3-0.4-0.4-0.4l-4-2c-0.4-0.2-0.8-0.1-1.2,0.2l-3,3c-0.4,0.4-0.4,1,0,1.4C1139.1,454.4,1139.2,454.5,1139.4,454.5z
		 M1142.9,451.8l1.6,0.8l-1.8,0.9l-1.1-0.4L1142.9,451.8z"/>
	<rect x="1143.7" y="445.6" class="st18" width="2" height="2"/>
	<rect x="1121.7" y="439.6" class="st18" width="2" height="2"/>
	<rect x="1125.7" y="442.6" class="st18" width="2" height="2"/>
	<rect x="1128.7" y="447.6" class="st18" width="2" height="2"/>
	<rect x="1122.7" y="446.6" class="st18" width="2" height="2"/>
	<rect x="1118.7" y="443.6" class="st18" width="2" height="2"/>
	<rect x="1116.7" y="447.6" class="st18" width="2" height="2"/>
	<rect x="1154.7" y="448.6" class="st18" width="2" height="2"/>
	<rect x="1135.7" y="453.6" class="st18" width="2" height="2"/>
	<path class="st18" d="M1166.6,450.5c0-0.2,0.1-0.9,0.1-0.9c0-7.9-14.1-14-32-14c-0.3,0-0.7,0-1,0c-0.7,0-1.4,0-2,0
		c-0.6,0-1,0.5-1,1c0,0,0,0,0,0c0,0.5,0.5,1,1,1c0,0,0,0,0,0c0.6,0,1.3,0,1.9,0c0.3,0,0.7,0,1,0c16.3,0,30,5.5,30,12
		c0,0.2,0,0.6,0,0.6c-0.9,6.2-14.2,11.4-30,11.4c-16.3,0-30-5.5-30-12c0-3.3,3.7-6.9,9.4-9.1c0.5-0.2,0.8-0.8,0.6-1.3
		c-0.2-0.5-0.8-0.8-1.3-0.6c-6.6,2.5-10.6,6.7-10.6,10.9c0,0,0,0.8,0.1,0.9c0.4,3.3,2.9,14.6,18.9,18.6v3.2c0,0.5,0.3,0.9,0.8,1
		c4,0.9,8.1,1.3,12.2,1.2c4.1,0,8.2-0.4,12.2-1.2c0.5-0.1,0.8-0.5,0.8-1v-3.2C1163.7,465.1,1166.2,453.8,1166.6,450.5z
		 M1145.7,471.5c-3.6,0.7-7.3,1.1-11,1c-3.7,0-7.4-0.3-11-1v-2c3.6,0.7,7.3,1,11,1c3.7,0,7.4-0.3,11-1V471.5z M1134.7,468.6
		c-17.9,0-25.1-6.7-28-12.2c5.4,4.3,15.8,7.2,28,7.2c12.1,0,22.4-2.8,27.9-7C1159.5,462,1152.3,468.6,1134.7,468.6z"/>
</g>
<g>
	<g>
		<path class="st18" d="M593.7,636.4h-1v-1c0-2.8-2.2-5-5-5h-8c-0.6,0-1,0.4-1,1c0,0.6,0.4,1,1,1h8c1.7,0,3,1.3,3,3v1h-35
			c-0.6,0-1,0.4-1,1c0,0.6,0.4,1,1,1h38c0.6,0,1,0.4,1,1v1h-54v-1c0-0.6,0.4-1,1-1h10c0.6,0,1-0.4,1-1c0-0.6-0.4-1-1-1h-7v-1
			c0-1.7,1.3-3,3-3h28c0.6,0,1-0.4,1-1c0-0.6-0.4-1-1-1h-28c-2.8,0-5,2.2-5,5v1h-1c-1.7,0-3,1.3-3,3v8c0,2.8,2.2,5,5,5
			c1.6,0,3.1-0.7,4-2c1.6,2.2,4.7,2.7,6.9,1.1c0.4-0.3,0.8-0.7,1.1-1.1c1.6,2.2,4.7,2.7,6.9,1.1c0.4-0.3,0.8-0.7,1.1-1.1
			c1.6,2.2,4.7,2.7,6.9,1.1c0.4-0.3,0.8-0.7,1.1-1.1c1.6,2.2,4.7,2.7,6.9,1.1c0.4-0.3,0.8-0.7,1.1-1.1c0.9,1.3,2.4,2,4,2
			c0.6,0,1-0.4,1-1c0-0.6-0.4-1-1-1c-1.7,0-3-1.3-3-3v-5h6v5c0,2.8,2.2,5,5,5c1.1,0,2.1-0.4,3-1v21h-15.4c2.2-1.2,3.5-3.5,3.4-6
			c0-0.3,0-0.7-0.1-1h2.1c0.6,0,1-0.4,1-1c0-1.1,0.9-2,2-2s2,0.9,2,2c0,0.5-0.2,1-0.5,1.3c-0.3,0.4-0.3,1,0,1.3
			c0.3,0.4,0.5,0.8,0.5,1.3c0,1.1-0.9,2-2,2s-2-0.9-2-2c0-0.6-0.4-1-1-1s-1,0.4-1,1c0,2.2,1.8,4,4,4s4-1.8,4-4c0-0.7-0.2-1.4-0.5-2
			c0.4-0.6,0.5-1.3,0.5-2c0-2.2-1.8-4-4-4c-1.8,0-3.4,1.2-3.9,3h-1.8c-2.1-4.6-9-5-11.4-5c-1.9,0-3.8,0.7-5.2,1.9
			c-0.3-0.1-0.6-0.4-0.8-0.6c-2-2.5-5.1-3.7-8.3-3.2c-0.6,0.1-1.2,0.2-1.7,0.4c-4.7-1.7-9.8,0.8-11.5,5.5c-1.1,3.1-0.4,6.5,1.8,9
			c0.3,0.4,0.7,0.7,1.1,1h-5.4v-18c0-0.6-0.4-1-1-1s-1,0.4-1,1v35c0,0.6,0.4,1,1,1s1-0.4,1-1v-11h54v11c0,0.6,0.4,1,1,1s1-0.4,1-1
			v-50C596.7,637.8,595.4,636.4,593.7,636.4z M543.7,650.4c-1.7,0-3-1.3-3-3v-5h6v5C546.7,649.1,545.4,650.4,543.7,650.4z
			 M551.7,650.4c-1.7,0-3-1.3-3-3v-5h6v5C554.7,649.1,553.4,650.4,551.7,650.4z M559.7,650.4c-1.7,0-3-1.3-3-3v-5h6v5
			C562.7,649.1,561.4,650.4,559.7,650.4z M567.7,650.4c-1.7,0-3-1.3-3-3v-5h6v5C570.7,649.1,569.4,650.4,567.7,650.4z M575.7,650.4
			c-1.7,0-3-1.3-3-3v-5h6v5C578.7,649.1,577.4,650.4,575.7,650.4z M591.7,650.4c-1.7,0-3-1.3-3-3v-5h6v5
			C594.7,649.1,593.4,650.4,591.7,650.4z M580.7,666.4c0,4.4-4.7,5.6-8,5.9c0.1-0.1,0.2-0.2,0.2-0.2c2.6-2.9,2.3-7.3-0.5-9.9
			c-0.9-0.8-2-1.4-3.1-1.6c0.5-0.1,1-0.2,1.5-0.2C573.7,660.4,580.7,661,580.7,666.4z M556.7,658.5c2.4-0.4,4.9,0.6,6.4,2.5
			c0.9,1.1,2.3,1.7,3.7,1.5c0.6-0.1,1.2-0.1,1.8,0c2.7,0.5,4.5,3.2,3.9,5.9c-0.5,2.3-2.5,4-4.9,4h-10c-3.9,0-7-3.1-7-7
			C550.7,662,553.2,659,556.7,658.5z M546.5,670.1c-1.3-1.5-2-3.5-1.7-5.5c0.4-3.1,2.8-5.6,5.9-6.1c0.5-0.1,0.9-0.1,1.4,0
			c-3.9,3.1-4.5,8.7-1.4,12.5c0.4,0.5,0.9,1,1.5,1.5h-0.4C549.7,672.4,547.8,671.6,546.5,670.1L546.5,670.1z M540.7,676.4v-2h54v2
			H540.7z"/>
		<path class="st18" d="M557.7,670.4h6c0.6,0,1-0.4,1-1c0-0.6-0.4-1-1-1h-6c-1.7,0-3-1.3-3-3c0-0.1,0-0.3,0-0.4
			c0.2-1.3,1.2-2.4,2.5-2.6c1.1-0.2,2.1,0.2,2.8,1.1c1.8,2.3,4.7,3.4,7.5,2.9c0.1,0,0.3,0,0.4,0c0.4,0.1,0.7,0.4,0.8,0.8
			c0,0,0,0.1,0,0.1c0,0.6-0.4,1-1,1s-1,0.4-1,1c0,0.6,0.4,1,1,1c1.7,0,3-1.3,3-3c0-0.1,0-0.2,0-0.4c-0.2-1.3-1.1-2.3-2.4-2.6
			c-0.4-0.1-0.7-0.1-1.1,0c-2.1,0.3-4.3-0.5-5.6-2.2c-1.1-1.4-2.9-2-4.6-1.8c-2.2,0.4-3.9,2.1-4.2,4.3c0,0.2,0,0.4,0,0.6
			C552.7,668.2,554.9,670.4,557.7,670.4z"/>
		<circle class="st18" cx="557.7" cy="665.4" r="1"/>
		<path class="st18" d="M563.7,680.4h-20c-0.6,0-1,0.4-1,1v8c0,0.6,0.4,1,1,1s1-0.4,1-1v-7h18v7c0,0.6,0.4,1,1,1s1-0.4,1-1v-8
			C564.7,680.9,564.2,680.4,563.7,680.4z"/>
		<path class="st18" d="M591.7,680.4h-20c-0.6,0-1,0.4-1,1v8c0,0.6,0.4,1,1,1s1-0.4,1-1v-7h18v7c0,0.6,0.4,1,1,1s1-0.4,1-1v-8
			C592.7,680.9,592.2,680.4,591.7,680.4z"/>
	</g>
</g>
<path class="st22" d="M1123.3,116.3c0,1.2,0.8,2.2,1.8,2.2l39.4,0.1l-11.5,13.7c-0.7,0.8-0.7,2.2,0,3.1c0.7,0.8,1.9,0.9,2.6,0
	l14.7-17.4l0,0c0.1-0.1,0.2-0.2,0.2-0.3c0-0.1,0.1-0.1,0.1-0.2c0-0.1,0.1-0.1,0.1-0.2c0-0.1,0-0.1,0.1-0.2c0-0.1,0-0.1,0-0.2
	c0-0.3,0-0.6,0-0.9c0-0.1,0-0.1,0-0.2c0-0.1,0-0.2-0.1-0.2c0-0.1-0.1-0.1-0.1-0.2c0-0.1,0-0.1-0.1-0.2c-0.1-0.1-0.1-0.2-0.2-0.3l0,0
	l-14.5-17.5c-0.7-0.9-1.9-0.9-2.6,0c-0.7,0.8-0.7,2.2,0,3.1l11.4,13.7l-39.4-0.1C1124.1,114.2,1123.3,115.1,1123.3,116.3z"/>
<g>
	<g>
		<path class="st18" d="M912.7,139.7c-2.8,3.5-7.1,5.4-11.5,5.1c-7.6-0.5-13.5-6.8-13.3-14.4v-15.6c0-0.6-0.4-1-1-1
			c-0.6,0-1,0.4-1,1v15.6c0,6,3.2,11.5,8.3,14.4h-17c-0.1,0-0.2,0-0.2,0c-7.5-0.6-13.2-6.9-13.1-14.4v-16.1c0-0.6-0.4-1-1-1
			c-0.6,0-1,0.4-1,1v16.1c-0.1,8.4,6.3,15.5,14.6,16.4c0.1,0,0.2,0.1,0.4,0.1h25c4.8,0,9.4-2.2,12.4-5.9c0.4-0.4,0.3-1-0.1-1.4
			C913.8,139.2,913.1,139.3,912.7,139.7C912.8,139.7,912.7,139.7,912.7,139.7L912.7,139.7z"/>
		<path class="st18" d="M911,117.7c-2-1.4-3.1-3.7-3.1-6.1v-0.1c-0.2-4.8-3.4-8.9-8-10.2v-3c0-3.4,0.7-6.8,1.9-10
			c0.2-0.5,0-1.1-0.6-1.3c-0.1,0-0.2-0.1-0.4-0.1h-6c-0.4,0-0.8,0.2-0.9,0.6c-1.4,3.4-2.1,7.1-2.1,10.8v2.6h-3v-2.6
			c0-3.4,0.7-6.8,1.9-10c0.2-0.5,0-1.1-0.6-1.3c-0.1,0-0.2-0.1-0.4-0.1h-6c-0.4,0-0.8,0.2-0.9,0.6c-1.4,3.4-2.1,7.1-2.1,10.8
			c0,0.6,0.4,1,1,1c0.6,0,1-0.4,1-1c0-3.2,0.6-6.4,1.7-9.4h3.9c-1,3-1.6,6.2-1.6,9.4v2.6h-9v-2.6c0-3.4,0.7-6.8,1.9-10
			c0.2-0.5,0-1.1-0.6-1.3c-0.1,0-0.2-0.1-0.4-0.1h-6c-0.4,0-0.8,0.2-0.9,0.6c-1.4,3.4-2.1,7.1-2.1,10.8v3c-4.3,1.2-7.5,5-7.9,9.5
			c-0.1,0.5,0.3,1,0.9,1.1c0,0,0,0,0,0c0,0,0.1,0,0.1,0c0.5,0,0.9-0.4,1-0.9c0.4-4.3,3.8-7.6,8.1-8c0.1,0,0.2,0,0.2-0.1h18.4
			c-2.6,1.8-4.3,4.7-4.6,7.9c-0.1,0.5,0.3,1,0.9,1.1c0.5,0.1,1-0.3,1.1-0.9l0,0c0.5-4.8,4.6-8.3,9.4-8.1c4.6,0.3,8.3,4,8.6,8.7v0.1
			c0,3,1.5,5.9,4,7.7c3.8,2.6,6.1,6.9,6,11.5c0,2-0.4,3.9-1.2,5.7c-0.2,0.5,0,1.1,0.5,1.3c0.1,0.1,0.3,0.1,0.4,0.1
			c0.4,0,0.8-0.2,0.9-0.6c0.9-2,1.4-4.2,1.4-6.5C917.9,125.6,915.4,120.7,911,117.7z M893.9,98.3c0-3.2,0.6-6.4,1.7-9.4h3.9
			c-1,3-1.6,6.2-1.6,9.4v2.7c-0.2,0-0.3,0-0.5,0c-0.2,0-3.5,0-3.5,0V98.3z M871.9,100.9v-2.6c0-3.2,0.6-6.4,1.7-9.4h3.9
			c-1,3-1.6,6.2-1.6,9.4v2.6H871.9z"/>
		<path class="st18" d="M892,107.6c-0.3,0-0.7,0.2-0.9,0.4c-0.6,0.9-1,2-1.2,3.2l0,0.3c0,0,0,0.1,0,0.1v6.4c0,0.4,0.3,0.8,0.7,1
			l0.6,0.2c4.4,1.4,6.8,6,5.5,10.4c-0.2,0.7-0.5,1.3-0.9,1.9l-3.4,5.5c-0.2,0.4-0.2,0.8,0.1,1.1c2.1,2.9,5.3,4.6,8.9,4.8
			c0.2,0,0.4,0,0.6,0c1.3,0,2.6-0.2,3.9-0.7c0.5-0.2,0.8-0.7,0.6-1.3c0-0.1-0.1-0.3-0.2-0.4l-1.5-1.5c-3.2-3.2-3.3-8.5,0-11.7
			c1.5-1.5,3.6-2.4,5.7-2.4c0.6,0,1-0.5,1-1c0-0.6-0.5-1-1-1c-5.7,0.1-10.2,4.8-10.1,10.5c0.1,2.7,1.1,5.2,3,7.1l0.3,0.3
			c-3.4,0.6-6.9-0.7-9.1-3.4l3-4.9c3-4.8,1.5-11.2-3.3-14.2c-0.7-0.4-1.5-0.8-2.3-1v-5.6l0-0.2c0-0.2,0.1-0.4,0.1-0.6l1.1,2
			c1.8,3.2,5.3,5.3,9,5.3c0.4,0,0.9,0,1.3-0.1c0.7,1.4,1.7,2.7,2.9,3.8c0.4,0.4,1,0.3,1.4-0.1s0.3-1-0.1-1.4
			c-1.2-1.1-2.1-2.4-2.7-3.8c-0.2-0.4-0.7-0.7-1.1-0.6c-3.6,0.8-7.2-0.9-9-4.1l-2.1-3.7C892.6,107.8,892.3,107.6,892,107.6z"/>
		<path class="st18" d="M902.2,114c0.3,0,0.7,0,1-0.1c0.5-0.1,0.9-0.6,0.8-1.1c0-0.4-0.1-0.8-0.1-1.2c-0.2-3.6-3-6.5-6.6-6.8
			c-0.8,0-1.6,0.1-2.4,0.3c-0.5,0.2-0.8,0.7-0.7,1.2c0,0.1,0.1,0.1,0.1,0.2l2.3,4.2C897.8,112.8,899.9,114,902.2,114z M897.2,106.9
			c2.6,0.2,4.6,2.2,4.7,4.8c0,0.1,0,0.2,0,0.3c-1.5-0.1-2.8-0.9-3.5-2.2l-1.7-2.9C896.9,106.9,897,106.9,897.2,106.9z"/>
		<path class="st18" d="M909,139.4c0.4,0.4,1,0.4,1.4,0c3.1-3.1,4.3-7.6,3-11.8c-0.1-0.4-0.5-0.7-1-0.7h-1.9c-3.5,0-6.3,2.8-6.3,6.3
			c0,1.7,0.7,3.3,1.8,4.5c0.4,0.4,1,0.4,1.4,0c0.4-0.4,0.4-1,0-1.4c-1.7-1.7-1.7-4.4,0-6.1c0.8-0.8,1.9-1.3,3.1-1.3h1.1
			c0.1,0.7,0.2,1.3,0.2,2c0,2.7-1,5.2-2.9,7.1C908.6,138.3,908.6,139,909,139.4z"/>
		<path class="st18" d="M889.9,126.5c0,0.6,0.4,1,1,1c0.6,0,1-0.4,1-1v-2.3c1.3,1.4,1.5,3.5,0.5,5.2l-2,3.3
			c-0.3,0.5-0.2,1.1,0.3,1.4c0.5,0.3,1.1,0.2,1.4-0.3c0,0,0,0,0,0l2-3.3c1.8-3,0.9-6.9-2-8.7c-0.2-0.1-0.5-0.3-0.7-0.4
			c-0.5-0.2-1.1,0-1.3,0.5c-0.1,0.1-0.1,0.3-0.1,0.4V126.5z"/>
		<path class="st18" d="M879.9,109.9c-0.6,0-1,0.4-1,1v19.6c0,4.1,1.5,8,4.2,11.1c0.4,0.4,1,0.4,1.4,0.1c0.4-0.4,0.4-1,0.1-1.4
			c-2.4-2.7-3.7-6.2-3.7-9.8v-19.6C880.9,110.3,880.5,109.9,879.9,109.9z"/>
		<path class="st18" d="M870.9,109.9c-0.6,0-1,0.4-1,1v19.6c0,4.1,1.5,8,4.2,11.1c0.4,0.4,1,0.4,1.4,0.1c0.4-0.4,0.4-1,0.1-1.4
			c-2.4-2.7-3.7-6.2-3.7-9.8v-19.6C871.9,110.3,871.5,109.9,870.9,109.9z"/>
	</g>
</g>
<g>
	<g>
		<path class="st18" d="M1011.4,143l-2.5-1.4c2.7-5,1.8-11.3-2.2-15.3v0l0,0l0,0l-3.5-3.5c-0.4-0.4-1-0.4-1.4,0
			c-0.4,0.4-0.4,1,0,1.4l3.1,3.1c-0.5,1.4-1,2.7-1.7,3.9l-4.5-4.5c0.9-2,1.4-4.2,1.5-6.5c0-0.3-0.1-0.6-0.3-0.8l-3.8-3.8l0,0
			c-0.8-0.8-2.3-1.5-5.1-0.6c-0.5,0.2-0.8,0.7-0.7,1.3s0.7,0.8,1.3,0.7l0,0c1.4-0.4,2.5-0.4,3.1,0.1l0,0l0,0c1,1,0.2,4.1-2.3,7.5
			c-0.3-0.3-0.8-0.4-1.1-0.2c-0.2,0.1-0.5,0.1-0.8,0c-0.2-0.1-0.3-0.2-0.4-0.4c0.5-1,0.3-2.3-0.5-3.1c-1.2-1.2-3.4-0.9-4.9,0.7
			s-1.9,3.8-0.7,4.9c0.5,0.5,1.2,0.7,1.9,0.7c0.2,0,0.5,0,0.7-0.1c0.9-0.2,1.8-0.7,2.4-1.4c0,0,0-0.1,0.1-0.1
			c0.5,0.5,1.2,0.7,1.9,0.7c-0.4,0.4-0.7,0.8-1.1,1.2c-1.9,2-4.2,3.6-6.7,4.7c-0.6,0.3-1.3,0.5-2,0.6c0.6-1,1.6-1.8,2.7-2.3
			c0.5-0.2,0.8-0.8,0.6-1.3c-0.2-0.5-0.8-0.8-1.3-0.6c0,0,0,0,0,0c-1.7,0.7-3.2,2-4,3.6c-0.5-0.7-0.4-2.1,0.3-3.7
			c1.1-2.5,2.8-4.8,4.7-6.7c1.3-1.3,2.7-2.4,4.2-3.4c0.5-0.3,0.6-0.9,0.3-1.4c-0.3-0.5-0.9-0.6-1.4-0.3c-1.6,1.1-3.2,2.3-4.5,3.7
			c-2.2,2.1-3.9,4.6-5.2,7.4c-1.1,2.7-1,4.8,0.2,6.1l10.6,10.6c0,0,0,0,0,0l0,0l0,0c4.1,4,10.3,4.9,15.3,2.2l1.4,2.5
			c0.3,0.5,0.9,0.6,1.4,0.4c0.1,0,0.1-0.1,0.2-0.2l5-5c0.4-0.4,0.4-1,0-1.4C1011.5,143.1,1011.4,143,1011.4,143L1011.4,143z
			 M986,125.2c-0.2,0.1-0.5,0-0.7-0.1c-0.3-0.3-0.2-1.3,0.7-2.1c0.9-0.9,1.8-1,2.1-0.7s0.2,1.3-0.7,2.1
			C987,124.8,986.5,125.1,986,125.2z M1006.3,128.9c1.7,2.4,2.4,5.4,1.9,8.4c-0.3-1-0.9-1.9-1.6-2.6l-2.1-2.1
			C1005.2,131.4,1005.8,130.2,1006.3,128.9z M998.1,120.5c-0.1,1.6-0.5,3.1-1,4.6l-1.7-1.7c0.7-1.3,1.3-2.7,1.5-4.1L998.1,120.5z
			 M991.1,129c1.2-1.2,2.3-2.5,3.2-3.8l1.9,1.9c-1.6,3-4,5.5-7.1,7.1l-1.9-1.9C988.6,131.3,989.9,130.2,991.1,129L991.1,129z
			 M983.7,134.2c0.6-0.3,1.2-0.5,1.8-0.9l1.7,1.7c-1.5,0.6-3,0.9-4.6,1l-1.2-1.2C982.2,134.8,983,134.5,983.7,134.2z M984.3,137.8
			c1.7-0.3,3.4-0.8,5-1.5l0,0c0,0,0,0,0,0l0,0c3.5-1.6,6.4-4.3,8.3-7.7l4.4,4.4c-0.9,1.4-2,2.7-3.2,3.9c-0.5,0.5-1.1,1-1.6,1.5
			c-0.4,0.4-0.5,1-0.1,1.4c0.4,0.4,1,0.5,1.4,0.1c0.6-0.5,1.2-1,1.7-1.6c1.2-1.2,2.3-2.5,3.2-3.9l1.8,1.8c2,1.9,2,5.1,0,7.1
			c-1.9,2-5.1,2-7.1,0c0,0,0,0,0,0l-5.8-5.8c-0.4-0.4-1-0.4-1.4,0c-0.4,0.4-0.4,1,0,1.4c0,0,0,0,0,0l2.2,2.2
			c-1.3,0.7-2.6,1.3-3.9,1.7L984.3,137.8z M991,144.3c1.3-0.5,2.5-1.1,3.7-1.8l2.1,2.1c0.7,0.7,1.6,1.3,2.6,1.6
			C996.4,146.7,993.4,146,991,144.3z M1006.1,147.2l-0.8-1.5c1-0.7,1.8-1.6,2.5-2.5l1.5,0.8L1006.1,147.2z"/>
		<path class="st18" d="M992.5,120.6c0.4-0.4,0.4-1,0-1.4s-1-0.4-1.4,0c-0.4,0.4-0.4,1,0,1.4C991.5,120.9,992.1,120.9,992.5,120.6
			C992.5,120.6,992.5,120.6,992.5,120.6z"/>
		<path class="st18" d="M979.4,113.5c-0.9,0.2-1.8,0.7-2.4,1.4c-1.6,1.6-1.9,3.8-0.7,5c0.5,0.5,1.2,0.7,1.8,0.7
			c1.2-0.1,2.3-0.6,3.1-1.4c2.2-2.1,3.9-4.6,5.2-7.4c1.1-2.7,1-4.8-0.2-6.1l-10.6-10.6c0,0,0,0,0,0l0,0h0c-3.9-3.8-9.7-4.8-14.6-2.5
			l-1.1-2.1c-0.2-0.4-0.7-0.6-1.1-0.5l-5,1c-0.4,0.1-0.7,0.4-0.8,0.7l-1,4c-0.1,0.4,0.1,0.9,0.5,1.1l2.5,1.4
			c-2.7,5-1.8,11.2,2.2,15.3l0,0l0.1,0.1l0,0l0,0l1.6,1.6c0.4,0.4,1,0.4,1.4,0c0.4-0.4,0.4-1,0-1.4l-1.2-1.2c0.5-1.4,1-2.7,1.7-3.9
			l4.5,4.5c-0.6,1.4-1,2.9-1.3,4.4l-0.9-0.9c-0.4-0.4-1-0.4-1.4,0c-0.4,0.4-0.4,1,0,1.4c0,0,0,0,0,0l6.1,6.1c0.7,0.7,1.7,1,2.7,1
			c1.8-0.1,3.6-0.7,5.1-1.6c0.5-0.3,0.7-0.9,0.4-1.4s-0.9-0.7-1.4-0.4c0,0,0,0,0,0c-2.4,1.3-4.4,1.7-5.3,1.1c1.6-0.8,2.9-2.3,3.6-4
			c0.2-0.5,0-1.1-0.6-1.3c-0.5-0.2-1.1,0-1.3,0.6c0,0,0,0,0,0c-0.4,1.1-1.2,2.1-2.3,2.7c0.3-2.1,2.1-5.5,5.4-8.8l0.1-0.1l-0.7-0.7
			l-0.8-0.6c-1.2,1.2-2.3,2.5-3.2,3.8l-1.9-1.9c1.6-3,4-5.5,7.1-7.1l1.9,1.9c-0.2,0.1-0.4,0.3-0.6,0.4c-0.4,0.3-0.5,1-0.2,1.4
			c0.3,0.4,1,0.5,1.4,0.2l0,0c3.7-2.7,6.7-3.3,7.6-2.4c0.6,0.6,0.5,2.1-0.2,3.9c-0.6,1.3-1.3,2.6-2.2,3.8c-0.1-0.2-0.3-0.4-0.4-0.6
			C981.2,113.5,980.3,113.3,979.4,113.5z M979.4,101.8c-1.5,0.3-3,0.7-4.4,1.3l-4.5-4.5c1.3-0.7,2.6-1.3,3.9-1.7L979.4,101.8z
			 M972.8,95.4c-1.3,0.5-2.5,1.1-3.7,1.8l-2.1-2.1c-0.7-0.7-1.6-1.3-2.6-1.6C967.4,93,970.4,93.7,972.8,95.4z M954,95.4l0.7-2.7
			l3.6-0.7l0.8,1.5c-0.7,0.5-1.4,1-2,1.6c-0.4,0.4-0.8,0.9-1.2,1.4L954,95.4z M957.4,110.7c-1.7-2.4-2.4-5.4-1.9-8.3
			c0.3,1,0.9,1.9,1.6,2.6l2.1,2.1C958.5,108.2,957.9,109.5,957.4,110.7z M966.8,120.4l-1.2-1.2c0.1-1.6,0.5-3.1,1-4.6l1.7,1.7
			C967.6,117.5,967.1,118.9,966.8,120.4L966.8,120.4z M969.1,107.1c-1.2,1.2-2.2,2.6-3,4l-4.4-4.4c0.9-1.4,2-2.7,3.2-3.9
			c0.5-0.5,1-0.9,1.5-1.3c0.4-0.4,0.5-1,0.1-1.4c-0.4-0.4-1-0.5-1.4-0.1c-0.5,0.5-1.1,1-1.6,1.5c-1.2,1.2-2.3,2.5-3.2,3.9l-1.7-1.8
			c-2-1.9-2-5.1-0.1-7.1c1.9-2,5.1-2,7.1-0.1c0,0,0.1,0.1,0.1,0.1l7.6,7.6C971.7,104.9,970.3,105.9,969.1,107.1L969.1,107.1z
			 M978.3,106.3l-1.7-1.7c1.5-0.6,3-0.9,4.6-1l1.1,1.1C980.9,105.1,979.5,105.6,978.3,106.3L978.3,106.3z M979.8,117.7
			c-0.9,0.9-1.8,1-2.1,0.7c-0.3-0.3-0.2-1.3,0.7-2.1c0.4-0.4,0.9-0.7,1.4-0.8c0.1,0,0.2,0,0.3,0c0.2,0,0.3,0,0.4,0.1
			C980.8,115.9,980.6,116.9,979.8,117.7L979.8,117.7z"/>
		<path class="st18" d="M973.4,114.2c-0.4,0.4-0.4,1,0,1.4c0.4,0.4,1,0.4,1.4,0c0.4-0.4,0.4-1,0-1.4c0,0,0,0,0,0
			C974.4,113.8,973.8,113.8,973.4,114.2z"/>
		<path class="st18" d="M981.9,111.4c0.4-0.4,0.4-1,0-1.4c-0.4-0.4-1-0.4-1.4,0s-0.4,1,0,1.4c0,0,0,0,0,0
			C980.9,111.7,981.5,111.7,981.9,111.4z"/>
	</g>
</g>
<g>
	<g>
		<circle class="st18" cx="453.9" cy="654.4" r="1"/>
		<circle class="st18" cx="461.9" cy="654.4" r="1"/>
		<path class="st18" d="M470.9,686.4c-0.6,0-1,0.4-1,1v5c0,0.6,0.4,1,1,1s1-0.4,1-1v-5C471.9,686.8,471.4,686.4,470.9,686.4z"/>
		<path class="st18" d="M464.9,683.4h-14c-0.6,0-1,0.4-1,1v8c0,0.6,0.4,1,1,1s1-0.4,1-1v-7h12v7c0,0.6,0.4,1,1,1s1-0.4,1-1v-8
			C465.9,683.8,465.4,683.4,464.9,683.4z"/>
		<path class="st18" d="M469.9,665.4h-6v-1.3c0.2-0.2,0.5-0.4,0.7-0.7h1.3c0.6,0,1-0.4,1-1c0-0.7-0.2-1.5-0.5-2.1
			c0.3-0.9,0.5-1.9,0.5-2.9v-1h1c1.7,0,3-1.3,3-3v-2c0-1.4-0.9-2.5-2.2-2.9c0.6-1.5-0.1-3.3-1.6-3.9c-0.4-0.1-0.7-0.2-1.1-0.2h-15
			v-1c0-2.8,2.2-5,5-5h4c2.1,0,4,1.3,4.7,3.3c0.2,0.5,0.7,0.8,1.3,0.6c0.5-0.2,0.8-0.7,0.6-1.3c0,0,0,0,0-0.1
			c-1-2.8-3.6-4.7-6.6-4.7h-4c-3.9,0-7,3.1-7,7v1.2c-1.6,0.5-2.4,2.2-1.8,3.8c0,0.1,0,0.1,0.1,0.1c-1.3,0.4-2.2,1.5-2.2,2.9v2
			c0,1.7,1.3,3,3,3h1v1c0,1,0.2,2,0.5,2.9c-0.3,0.7-0.5,1.4-0.5,2.1c0,0.6,0.4,1,1,1h1.3c0.2,0.2,0.4,0.5,0.7,0.7v1.3h-6
			c-5,0-9,4-9,9c0,0.6,0.4,1,1,1s1-0.4,1-1c0-3.9,3.1-7,7-7h2v8h-1c-0.6,0-1,0.4-1,1c0,3.2-0.6,6.3-1.8,9.3L444,686
			c0,0.1-0.1,0.2-0.1,0.4v6c0,0.6,0.4,1,1,1s1-0.4,1-1v-5.8l0.1-0.2c1.2-2.9,1.8-5.9,1.9-9h20c0.1,2.2,0.4,4.3,1,6.4
			c0.2,0.5,0.7,0.8,1.2,0.7c0.5-0.2,0.8-0.7,0.7-1.2c-0.6-2.2-1-4.5-1-6.9c0-0.6-0.4-1-1-1h-1v-5c0-0.6-0.4-1-1-1s-1,0.4-1,1v5h-2
			v-8h6c3.9,0,7,3.1,7,7v18c0,0.6,0.4,1,1,1s1-0.4,1-1v-18C478.9,669.4,474.9,665.4,469.9,665.4z M450.9,657.4v-7h14v7
			c0,0.3,0,0.6-0.1,1c-0.8-0.6-1.9-1-2.9-1h-8c-1.1,0-2.1,0.3-2.9,1C450.9,658,450.9,657.7,450.9,657.4z M461.9,661.4
			c-1.3,0-2.4-0.8-2.8-2h2.8c1.3,0,2.4,0.8,2.8,2H461.9z M453.9,659.4h2.8c-0.4,1.2-1.6,2-2.8,2h-2.8
			C451.5,660.2,452.6,659.4,453.9,659.4z M457.9,661.3c0.9,1.2,2.2,1.9,3.7,2c-2.2,1.4-5.1,1.4-7.3,0
			C455.7,663.2,457,662.5,457.9,661.3z M468.9,653.4c0,0.6-0.4,1-1,1h-1v-4h1c0.6,0,1,0.4,1,1V653.4z M449.9,646.4h16
			c0.6,0,1,0.4,1,1s-0.4,1-1,1h-16c-0.6,0-1-0.4-1-1S449.3,646.4,449.9,646.4z M447.9,654.4c-0.6,0-1-0.4-1-1v-2c0-0.6,0.4-1,1-1h1
			v4H447.9z M457.9,666.4c1.4,0,2.8-0.3,4-0.9v1.9c0,2.2-1.8,4-4,4s-4-1.8-4-4v-1.9C455.1,666.1,456.5,666.4,457.9,666.4z
			 M449.9,675.4v-8h2v8H449.9z M453.9,675.4v-3.5c2.3,2.1,5.7,2.1,8,0v3.5H453.9z"/>
		<path class="st18" d="M439.9,685.4h-1.3c1.9-2.3,1.6-5.8-0.7-7.7c-1.2-1-2.9-1.5-4.4-1.2c-0.2,0-0.3,0-0.5,0l1.7-3
			c0.8-1.4,0.3-3.3-1.1-4.1c0,0,0,0,0,0l-0.8-0.4l3.1-4.3c1.1-1.5,0.8-3.6-0.7-4.7c-1.5-1.1-3.6-0.8-4.7,0.7
			c-0.1,0.1-0.1,0.2-0.2,0.3l-3.3,5.7l0,0l-5,8.7c-2.7,2.6-2.9,6.9-0.4,9.7c0.1,0.1,0.2,0.2,0.3,0.3h-2.1c-0.6,0-1,0.4-1,1v6
			c0,0.6,0.4,1,1,1s1-0.4,1-1v-5h18v5c0,0.6,0.4,1,1,1s1-0.4,1-1v-6C440.9,685.8,440.4,685.4,439.9,685.4z M433,672.4l-1.5,2.7
			c-0.5-0.4-1.1-0.8-1.7-1.1l2-3.5l0.9,0.5C433.1,671.3,433.3,671.9,433,672.4C433,672.4,433,672.4,433,672.4z M432.1,661.9
			c0.4-0.7,1.2-0.9,1.9-0.5c0.7,0.4,0.9,1.2,0.5,1.9c0,0-0.1,0.1-0.1,0.1l-3.3,4.4l-1.8-1.1L432.1,661.9z M428.3,668.5l1.7,1
			l-2.3,3.9c-0.6-0.1-1.3-0.1-1.9,0c-0.2,0-0.3,0.1-0.5,0.1L428.3,668.5z M433.9,685.4v-1.6l1.7-1.7c0.4-0.4,0.4-1,0-1.4
			c-0.4-0.4-1-0.4-1.4,0l-1.3,1.3l-0.3-0.3c-0.4-0.4-1-0.4-1.4,0c-0.4,0.4-0.4,1,0,1.4l0.7,0.7v1.6h-5c-2.8,0-5-2.2-5-5
			c0-2.8,2.2-5,5-5c1.5,0,2.9,0.7,3.9,1.8c0.7,0.9,1.9,1.4,3,1.2c1.9-0.3,3.7,0.9,4,2.9c0,0.1,0,0.1,0,0.2c0.2,1.9-1.2,3.7-3.1,3.9
			c-0.1,0-0.3,0-0.4,0H433.9z"/>
		<path class="st18" d="M426.9,677.4c-1.7,0-3,1.3-3,3s1.3,3,3,3s3-1.3,3-3S428.5,677.4,426.9,677.4z M426.9,681.4c-0.6,0-1-0.4-1-1
			s0.4-1,1-1s1,0.4,1,1S427.4,681.4,426.9,681.4z"/>
	</g>
</g>
<g>
	<g>
		<path class="st18" d="M155.5,678.5c-0.5,0.3-0.6,0.9-0.4,1.4s0.9,0.6,1.4,0.4c0.5-0.3,0.6-0.9,0.4-1.4c0,0,0,0,0,0
			C156.6,678.4,156,678.2,155.5,678.5z"/>
		<path class="st18" d="M158.5,683.7c-0.5,0.3-0.6,0.9-0.4,1.4c0.3,0.5,0.9,0.6,1.4,0.4c0.5-0.3,0.6-0.9,0.4-1.4c0,0,0,0,0,0
			C159.6,683.6,159,683.4,158.5,683.7z"/>
		<circle class="st18" cx="162" cy="689.8" r="1"/>
		<path class="st18" d="M135.5,652.1c1.6,0.4,3.2-0.5,3.7-2.1c0.4-1.6-0.5-3.2-2.1-3.7c-1.6-0.4-3.2,0.5-3.7,2.1
			c-0.2,0.8-0.1,1.6,0.3,2.3C134.1,651.3,134.8,651.8,135.5,652.1z M135.4,648.9c0.1-0.5,0.7-0.8,1.2-0.7s0.8,0.7,0.7,1.2
			c-0.1,0.3-0.2,0.5-0.5,0.6c-0.2,0.1-0.5,0.2-0.8,0.1C135.5,650,135.2,649.4,135.4,648.9C135.4,648.9,135.4,648.9,135.4,648.9z"/>
		<path class="st18" d="M171.2,693.7l-7.4-12.8c-0.3-0.5-0.9-0.6-1.4-0.4c-0.5,0.3-0.6,0.9-0.4,1.4c0,0,0,0,0,0l6.9,11.9l-8.7,5
			c-1,0.6-2.2,0.2-2.7-0.7s-0.2-2.2,0.7-2.7c0,0,0,0,0,0c0.4-0.2,0.6-0.7,0.5-1.1c-0.8-2.8-2.2-5.3-4.2-7.3
			c-1.8-1.8-3.1-4.1-3.8-6.5c-0.2-0.7-0.5-1.4-0.7-2l7-5.2l3.1,5.3c0.3,0.5,0.9,0.6,1.4,0.4c0.5-0.3,0.6-0.9,0.4-1.4l-3.6-6.2
			c0-0.1,0-0.1-0.1-0.2l-15.3-26.5c-1.8-3.1-5.6-4.3-8.8-2.9l-6.5,2.8c-0.5,0.2-0.7,0.8-0.5,1.3c0.2,0.5,0.8,0.7,1.3,0.5l6.5-2.8
			c2.3-1,5-0.1,6.3,2.1l14.9,25.8l-19.6,14.5c-8.7-10.2-15.4-21.9-19.9-34.5l4.5-2c4.2,11.4,10.2,22,17.7,31.5
			c0.3,0.4,1,0.5,1.4,0.2c0.4-0.3,0.5-1,0.2-1.4l0,0c-7.5-9.4-13.4-19.9-17.5-31.1l1.7-0.7c0.5-0.2,0.7-0.8,0.4-1.3
			c-0.2-0.5-0.8-0.7-1.2-0.5l-8.9,3.9c-0.5,0.2-0.7,0.8-0.5,1.2c4.7,13.5,11.9,25.9,21.2,36.7c0.3,0.4,0.9,0.5,1.4,0.1l11.4-8.5
			c0.2,0.5,0.3,0.9,0.5,1.4c0.8,2.8,2.2,5.3,4.2,7.3c1.6,1.7,2.8,3.7,3.6,5.8c-1.6,1.5-1.8,4-0.3,5.6c1.3,1.4,3.3,1.8,5,0.8l9.5-5.5
			C171.3,694.8,171.5,694.2,171.2,693.7z"/>
	</g>
</g>
<g>
	<path class="st18" d="M849.9,455.9c0.6,0,1-0.4,1-1v-4c0-3.9-3.1-7-7-7h-46c-3.9,0-7,3.1-7,7v4c0,0.6,0.4,1,1,1h4v2.1
		c-2.3,0.5-4,2.5-4,4.9v2c0,2,1.2,3.8,3,4.6v2.4h-3c-0.6,0-1,0.4-1,1v4c0,2.8,2.2,5,5,5h50c2.8,0,5-2.2,5-5v-4c0-0.6-0.4-1-1-1h-3
		v-2.4c1.8-0.8,3-2.6,3-4.6v-2c0-2.4-1.7-4.4-4-4.9v-2.1H849.9z M792.9,450.9c0-2.8,2.2-5,5-5h46c2.8,0,5,2.2,5,5v3h-56V450.9z
		 M834.9,457.9h-7.2c0.1-0.3,0.2-0.7,0.2-1v-1h7V457.9z M805.9,455.9h2v3c0,0.6-0.4,1-1,1s-1-0.4-1-1V455.9z M809.9,455.9h12v1
		c0,0.3,0.1,0.7,0.2,1h-12.2V455.9z M823.9,456.9v-1h2v1c0,0.6-0.4,1-1,1S823.9,457.4,823.9,456.9z M836.9,455.9h2v3
		c0,0.6-0.4,1-1,1s-1-0.4-1-1V455.9z M803.9,455.9v2h-6v-2H803.9z M848.9,476.9c0,1.7-1.3,3-3,3h-50c-1.7,0-3-1.3-3-3v-3h6.6
		l4.7,3.8c0.2,0.1,0.4,0.2,0.6,0.2c0.1,0,0.2,0,0.3-0.1l10.5-3.8l4.6,3.6c0.4,0.3,0.9,0.3,1.2,0l4.6-3.6l10.5,3.8
		c0.1,0,0.2,0.1,0.3,0.1c0.2,0,0.4-0.1,0.6-0.2l4.7-3.8h6.6V476.9z M802.7,473.9h7.5l-5.1,1.9L802.7,473.9z M818.7,473.9h4.3
		l-2.2,1.7L818.7,473.9z M831.6,473.9h7.5l-2.3,1.9L831.6,473.9z M844.9,471.9h-48v-2h48V471.9z M844.9,467.9h-48c-1.7,0-3-1.3-3-3
		v-1h3c1.3,0,2.5,0.3,3.6,0.9c1.4,0.7,2.9,1.1,4.5,1.1c1.6,0,3.1-0.3,4.5-1.1c1.1-0.6,2.4-0.9,3.6-0.9c1.3,0,2.5,0.3,3.7,0.9
		c1.4,0.7,2.9,1.1,4.5,1.1c1.6,0,3.1-0.3,4.5-1.1c2.3-1.2,5-1.2,7.3,0c2.8,1.4,6.2,1.4,9,0c1.1-0.6,2.4-0.9,3.7-0.9h2v1
		C847.9,466.5,846.5,467.9,844.9,467.9z M847.7,461.9h-1.8c-1.6,0-3.1,0.3-4.5,1.1c-2.3,1.2-5,1.2-7.3,0c-2.8-1.4-6.2-1.4-9,0
		c-1.1,0.6-2.4,0.9-3.7,0.9c-1.3,0-2.5-0.3-3.7-0.9c-1.4-0.7-2.9-1.1-4.5-1.1c-1.6,0-3.1,0.3-4.5,1.1c-1.1,0.6-2.4,0.9-3.7,0.9
		c-1.3,0-2.5-0.3-3.6-0.9c-1.4-0.7-2.9-1.1-4.5-1.1h-2.8c0.4-1.2,1.5-2,2.8-2h7.2c0.5,1.6,2.2,2.4,3.8,1.8c0.9-0.3,1.5-1,1.8-1.8
		h25.4c0.5,1.6,2.2,2.4,3.8,1.8c0.9-0.3,1.5-1,1.8-1.8h4.2C846.2,459.9,847.3,460.7,847.7,461.9z M843.9,457.9h-3v-2h3V457.9z"/>
	<rect x="801.9" y="449.9" class="st18" width="2" height="2"/>
	<rect x="807.9" y="447.9" class="st18" width="2" height="2"/>
	<rect x="796.9" y="448.9" class="st18" width="2" height="2"/>
	<rect x="813.9" y="449.9" class="st18" width="2" height="2"/>
	<rect x="837.9" y="449.9" class="st18" width="2" height="2"/>
	<rect x="831.9" y="447.9" class="st18" width="2" height="2"/>
	<rect x="842.9" y="448.9" class="st18" width="2" height="2"/>
	<rect x="825.9" y="449.9" class="st18" width="2" height="2"/>
	<rect x="819.9" y="447.9" class="st18" width="2" height="2"/>
</g>
<g>
	<g>
		<path class="st18" d="M259.9,667.8c-4.5,4.6-10.6,7.1-17.1,7.1c-5.7,0-11.2-2-15.5-5.7c-0.4-0.4-1.1-0.3-1.4,0.1
			c-0.4,0.4-0.3,1.1,0.1,1.4l0,0c1.9,1.6,4.1,3,6.5,4L232,683c-0.1,2,0,4,0.4,5.9c0.6,3.5,2.8,6.5,6,8v4c0,0.6,0.4,1,1,1
			c0.6,0,1-0.4,1-1v-3.3c0,0,0,0,0.1,0c0.8,0.2,1.6,0.3,2.4,0.3c0.8,0,1.7-0.1,2.5-0.3v3.3c0,0.6,0.4,1,1,1c0.6,0,1-0.4,1-1v-4
			c3.1-1.5,5.3-4.3,5.9-7.7l0.1-0.3c0.4-2,0.5-4,0.4-5.9l-0.3-5.4c0-0.6-0.5-1-1.1-0.9c-0.6,0-1,0.5-0.9,1.1l0.3,5.4
			c0.1,1.8,0,3.7-0.3,5.5l-0.1,0.3c-0.9,4.7-5.3,7.8-10,6.9c-0.1,0-0.3-0.1-0.4-0.1c-3.4-0.9-6-3.7-6.5-7.1
			c-0.3-1.8-0.4-3.6-0.3-5.5l0.4-7.6c0.3,0.1,0.6,0.2,0.9,0.3l0.5,8.2c0.1,1.7,1.6,3,3.3,2.9c1.6-0.1,2.8-1.4,2.9-2.9l0.4-7.1
			c0.2,0,0.3,0,0.5,0c0.2,0,0.3,0,0.5,0l0.4,7.1c0.1,1.7,1.6,3,3.3,2.9c1.6-0.1,2.8-1.4,2.9-2.9l0.5-8.2c4.1-1.3,7.9-3.5,10.9-6.6
			c0.4-0.4,0.4-1,0-1.4C260.9,667.4,260.3,667.4,259.9,667.8L259.9,667.8z M240,683.9c0,0.6-0.6,1.1-1.2,1c-0.6,0-1-0.5-1-1
			l-0.4-7.6c1,0.2,2,0.4,3,0.5L240,683.9z M248,683.9c0,0.6-0.6,1.1-1.2,1c-0.6,0-1-0.5-1-1l-0.4-7.1c1-0.1,2-0.3,3-0.5L248,683.9z"
			/>
		<path class="st18" d="M272.9,649.7l-1-5c-0.1-0.5-0.6-0.9-1.1-0.8l-5.6,0.9l-3.7-2.7c-0.4-0.3-1.1-0.2-1.4,0.2
			c-0.1,0.2-0.2,0.4-0.2,0.6v7.2c-2.2,0.6-3.9,2.2-4.5,4.3c-2,6.9-9.2,10.9-16.1,8.9c-4.3-1.2-7.7-4.6-8.9-8.9
			c-1.1-3.4-4.7-5.4-8.1-4.3c-1.3,0.4-2.4,1.2-3.2,2.2l-4.1-2.9l0.7-3.4l5,0.8c0.3,0,0.5,0,0.8-0.2l2.4-1.8v2.1c0,0.6,0.4,1,1,1
			c0.6,0,1-0.4,1-1v-4.1c0-0.6-0.4-1-1-1c-0.2,0-0.4,0.1-0.6,0.2l-3.7,2.7L215,644c-0.5-0.1-1,0.3-1.1,0.8l-1,5
			c-0.1,0.4,0.1,0.8,0.4,1l4.8,3.4c-0.5,1.3-0.6,2.7-0.2,4.1c1,3.5,2.8,6.8,5.2,9.6c0.4,0.4,1,0.5,1.4,0.1c0.4-0.4,0.5-1,0.1-1.4
			c-2.2-2.6-3.8-5.6-4.8-8.8c-0.4-1.3-0.1-2.8,0.7-3.9c0.8-1.1,2.2-1.8,3.6-1.8c2,0,3.7,1.3,4.3,3.1c0.1,0.2,0.1,0.4,0.2,0.6
			l-2.9,1.7c-1.4,0.8-1.9,2.7-1.1,4.1c0.8,1.4,2.7,1.9,4.1,1.1l2.9-1.7c0.4,0.5,0.8,0.9,1.3,1.3l-1.7,2.9c-0.8,1.4-0.3,3.3,1.1,4.1
			s3.3,0.3,4.1-1.1l1.7-2.9c0.6,0.2,1.2,0.3,1.7,0.5v3.3c0,1.7,1.3,3,3,3c1.7,0,3-1.3,3-3l0,0v-3.3c0.6-0.1,1.2-0.3,1.7-0.5l1.7,2.9
			c0.8,1.4,2.7,1.9,4.1,1.1c1.4-0.8,1.9-2.7,1.1-4.1l0,0l-1.7-2.9c0.4-0.4,0.9-0.8,1.3-1.3l2.9,1.7c1.4,0.8,3.3,0.3,4.1-1.1
			c0.8-1.4,0.3-3.3-1.1-4.1l0,0l-2.9-1.7c0.1-0.2,0.1-0.4,0.2-0.6c0.6-1.9,2.3-3.2,4.3-3.1c1.4,0,2.8,0.7,3.6,1.8
			c0.8,1.1,1.1,2.6,0.7,3.9c-0.8,2.6-1.9,5-3.5,7.2c-0.3,0.4-0.2,1.1,0.2,1.4s1.1,0.2,1.4-0.2c1.7-2.4,3-5,3.8-7.8
			c0.4-1.3,0.3-2.8-0.2-4.1l4.8-3.4C272.8,650.5,272.9,650.1,272.9,649.7z M227.8,660.8c-0.5,0.3-1.1,0.1-1.4-0.4c0,0,0,0,0,0
			c-0.3-0.5-0.1-1.1,0.4-1.4c0,0,0,0,0,0l2.6-1.5c0.3,0.6,0.6,1.2,1,1.7L227.8,660.8z M234.7,667c-0.3,0.5-0.9,0.6-1.4,0.4
			c-0.5-0.3-0.6-0.9-0.4-1.4c0,0,0,0,0,0l1.5-2.6c0.6,0.4,1.1,0.7,1.7,1L234.7,667z M243.9,668.9c0,0.6-0.4,1-1,1c-0.6,0-1-0.4-1-1
			v-3c0.3,0,0.7,0,1,0s0.7,0,1,0V668.9z M252.7,666c0.3,0.5,0.1,1.1-0.4,1.4c0,0,0,0,0,0c-0.5,0.3-1.1,0.1-1.4-0.4c0,0,0,0,0,0
			l-1.5-2.6c0.6-0.3,1.2-0.6,1.7-1L252.7,666z M259,659.1c0.5,0.3,0.6,0.9,0.4,1.4c-0.3,0.5-0.9,0.6-1.4,0.4l-2.6-1.5
			c0.4-0.6,0.7-1.1,1-1.7L259,659.1z M266.7,652.4c-1.2-1.5-2.9-2.4-4.8-2.5v-5l2.4,1.8c0.2,0.2,0.5,0.2,0.8,0.2l5-0.8l0.7,3.4
			L266.7,652.4z"/>
	</g>
</g>
<g>
	<g>
		<path class="st18" d="M1059.3,96.3c-1.7,2.1-3.6,4-5.7,5.6l-0.4,0.3c-1.8,1.4-3.4,3-4.8,4.8l-0.5,0.6c-0.3,0.4-0.3,1.1,0.2,1.4
			c0.4,0.3,1.1,0.3,1.4-0.2l0.5-0.6c1.3-1.7,2.8-3.1,4.4-4.4l0.4-0.3c2.2-1.7,4.3-3.8,6-6c0.3-0.4,0.3-1.1-0.2-1.4
			C1060.3,95.8,1059.7,95.9,1059.3,96.3z"/>
		<path class="st18" d="M1054.8,113.4l-0.5,0.6c-0.4,0.4-0.3,1.1,0.1,1.4c0.4,0.4,1.1,0.3,1.4-0.1c0,0,0,0,0,0l0.5-0.6
			c1.3-1.7,2.8-3.2,4.4-4.4l0.4-0.3c2.2-1.7,4.3-3.8,6-6c0.3-0.4,0.3-1.1-0.2-1.4c-0.4-0.3-1.1-0.3-1.4,0.2c-1.7,2.1-3.6,4-5.7,5.7
			l-0.4,0.3C1057.8,110,1056.2,111.6,1054.8,113.4z"/>
		<path class="st18" d="M1056.5,121.1c0.1,0,0.2,0,0.3,0c1.4-0.1,2.6-0.8,3.5-1.8c1.5-1.9,3.2-3.6,5.1-5.1l0.4-0.3
			c2-1.6,3.9-3.4,5.5-5.5c0.9-1.2,2.7-1.4,3.9-0.5c0.1,0.1,0.2,0.1,0.3,0.2l1.6,1.6l0.7,1c0.2,0.2,0.4,0.4,0.7,0.4
			c0.3,0,0.6-0.1,0.8-0.3l2.3-2.3c1.2-1.2,1.2-3.1,0-4.2c0,0,0,0,0,0c-1.2-1.1-3.1-1.1-4.2,0l-1.5,1.5c-0.8-0.5-1.7-0.7-2.6-0.6
			c-0.1,0-0.2,0-0.4,0.1c0.1-0.7,0-1.3-0.1-2l1.9-1.9c1.2-1.2,1.2-3.1,0-4.2c0,0,0,0,0,0c-1.2-1.1-3.1-1.1-4.2,0l-1.6,1.6
			c-2-1.2-4.7-0.7-6.1,1.2c-0.9,1.1-1.9,2.2-2.9,3.2c-0.4,0.4-0.4,1,0,1.4c0.4,0.4,1,0.4,1.4,0l0,0c1.1-1.1,2.2-2.2,3.1-3.4
			c0.9-1.2,2.7-1.4,3.9-0.5c0.1,0.1,0.2,0.1,0.2,0.2l0,0l0,0l1.7,1.7c0.2,0.2,0.4,0.5,0.5,0.8c0,0,0,0,0,0.1c0.4,0.9,0.3,2-0.3,2.8
			c0,0,0,0,0,0c0,0,0,0,0,0l-0.3,0.4c0,0,0,0,0,0c-0.1,0.1-0.2,0.1-0.2,0.2c-1.5,1.9-3.2,3.6-5.1,5.1l-0.4,0.3
			c-2.1,1.6-3.9,3.4-5.5,5.5c-0.9,1.2-2.7,1.4-3.9,0.5c-0.1-0.1-0.2-0.1-0.3-0.2l-1.7-1.7l0,0l0,0c-1-1-1.1-2.6-0.2-3.7l0.6-0.7
			c1.5-1.9,3.2-3.6,5.1-5.1c0.4-0.3,0.5-1,0.2-1.4s-1-0.5-1.4-0.2c0,0,0,0,0,0c-2.1,1.6-3.9,3.4-5.5,5.5l-0.6,0.7
			c-0.2,0.3-0.4,0.6-0.6,1c-0.8,0.1-1.7-0.2-2.3-0.8l-1.7-1.7l0,0l0,0c-1-1-1.1-2.6-0.2-3.7l0.6-0.7c1.5-1.9,3.2-3.6,5.1-5.1
			l0.4-0.3c2.1-1.6,3.9-3.4,5.5-5.5c0.9-1.2,2.7-1.4,3.9-0.5c0.1,0.1,0.2,0.1,0.3,0.2h0l0,0l1,1c0.4,0.4,1,0.4,1.4,0
			c0.4-0.4,0.4-1,0-1.4l-0.5-0.5l1.4-1.4c0.4-0.4,1-0.4,1.4,0c0.4,0.4,0.4,1,0,1.4l-1.2,1.2c-0.4,0.4-0.4,1,0,1.4s1,0.4,1.4,0l0,0
			l1.2-1.2c1.2-1.2,1.2-3.1,0-4.2c-1.2-1.1-3.1-1.1-4.2,0l-1.6,1.5c-2.1-1.2-4.7-0.7-6.1,1.2c-1.5,1.9-3.2,3.6-5.1,5.1l-0.4,0.3
			c-2,1.6-3.9,3.4-5.5,5.5l-0.6,0.7c-1.2,1.5-1.3,3.6-0.4,5.2l-1.6,1.6c-1.2,1.1-1.3,3-0.2,4.2c1.1,1.2,3,1.3,4.2,0.2
			c0.1-0.1,0.1-0.1,0.2-0.2l1.8-1.8c0.4,0.1,0.8,0.2,1.3,0.2c0,0.8,0.2,1.5,0.6,2.2l-1.6,1.6c-1.2,1.2-1.2,3.1,0,4.2s3.1,1.2,4.2,0
			l1.8-1.8C1055.6,121,1056.1,121.1,1056.5,121.1z M1078.8,105.7c0.4-0.4,1-0.4,1.4,0c0.4,0.4,0.4,1,0,1.4c0,0,0,0,0,0l-1.4,1.4
			l-0.1-0.1c0,0-0.1-0.1-0.1-0.1l-1.2-1.2L1078.8,105.7z M1073.2,98.7c0.4,0.4,0.4,1,0,1.4c0,0,0,0,0,0l-1.4,1.4
			c-0.1-0.1-0.1-0.2-0.2-0.3l-1.2-1.2l1.4-1.4C1072.1,98.3,1072.8,98.3,1073.2,98.7z M1045.6,114.9c-0.4,0.4-1,0.4-1.4,0
			c-0.4-0.4-0.4-1,0-1.4c0,0,0,0,0,0l1.4-1.4l1.2,1.2c0.1,0.1,0.1,0.1,0.2,0.2L1045.6,114.9z M1051.9,121.3c-0.4,0.4-1,0.4-1.4,0
			c-0.4-0.4-0.4-1,0-1.4c0,0,0,0,0,0l1.4-1.4l1.2,1.2c0.1,0.1,0.1,0.1,0.2,0.2L1051.9,121.3z"/>
		<path class="st18" d="M1072.8,109.7c-1.7,2.1-3.6,4-5.7,5.6l-0.4,0.3c-1.8,1.4-3.4,3-4.8,4.8l-0.5,0.6c-0.3,0.4-0.3,1.1,0.2,1.4
			s1.1,0.3,1.4-0.2l0.5-0.6c1.3-1.7,2.8-3.1,4.4-4.4l0.4-0.3c2.2-1.7,4.3-3.8,6-6c0.4-0.4,0.3-1.1-0.1-1.4
			S1073.1,109.3,1072.8,109.7C1072.8,109.7,1072.8,109.7,1072.8,109.7z"/>
		<path class="st18" d="M1074.9,124.3l0.4-0.3c2.4-1.6,4.5-3.5,6.4-5.6c0.4-0.4,0.4-1,0-1.4c-0.4-0.4-1-0.4-1.4,0c0,0,0,0-0.1,0.1
			c-1.8,2-3.8,3.7-6.1,5.2l-0.4,0.3c-1.9,1.3-3.6,2.8-5.1,4.4l-0.5,0.6c-0.4,0.4-0.3,1,0.1,1.4c0.4,0.4,1,0.3,1.4-0.1c0,0,0,0,0,0
			l0.5-0.6C1071.6,126.8,1073.2,125.5,1074.9,124.3z"/>
		<path class="st18" d="M1086.7,125.4c-2,1.8-4.1,3.4-6.5,4.7l-0.4,0.2c-2,1.1-3.8,2.5-5.4,4l-0.5,0.5c-0.4,0.4-0.4,1,0,1.4
			c0.4,0.4,1,0.4,1.4,0l0,0l0.5-0.5c1.5-1.4,3.2-2.7,5.1-3.7l0.4-0.2c2.5-1.4,4.8-3.1,6.9-5c0.4-0.4,0.4-1,0-1.4
			S1087.1,125.1,1086.7,125.4z"/>
		<path class="st18" d="M1101.6,132.5c-0.5-1-1.6-1.7-2.7-1.7c-0.5,0-0.9,0.1-1.3,0.3l-2,1c-1.6-1.8-4.2-2.1-6.2-0.8
			c-1.2,0.8-2.5,1.5-3.9,2.1c-0.5,0.2-0.7,0.8-0.5,1.3c0.2,0.5,0.8,0.7,1.3,0.5c0,0,0,0,0,0c1.4-0.7,2.8-1.4,4.2-2.3
			c1.3-0.8,3-0.5,3.8,0.8c0.1,0.1,0.1,0.2,0.2,0.3l1,2.1c0.6,1.3,0.2,2.8-1,3.5l-0.8,0.5c-2,1.3-4.2,2.4-6.5,3.2l-0.5,0.2
			c-2.5,0.8-4.8,2-7,3.4c-1.3,0.8-3,0.5-3.8-0.8c-0.1-0.1-0.1-0.2-0.2-0.3l-1-2.1c-0.6-1.3-0.2-2.8,1-3.5l0.8-0.5
			c2-1.3,4.2-2.4,6.5-3.2c0.5-0.2,0.8-0.7,0.6-1.3s-0.7-0.8-1.3-0.6c0,0,0,0,0,0c-2.5,0.8-4.8,2-7,3.4l-0.8,0.5
			c-0.4,0.3-0.7,0.6-1,1c-0.1-0.1-0.2-0.2-0.3-0.3l-1.4-1.9c-0.8-1.1-0.7-2.7,0.3-3.7l0.7-0.7c1.8-1.7,3.7-3.1,5.9-4.3l0.4-0.2
			c2.3-1.3,4.4-2.8,6.2-4.6c0.6-0.6,1.4-0.8,2.2-0.8c0.8,0.1,1.5,0.5,2,1.1l1.4,1.9c0.4,0.5,0.6,1.2,0.5,1.8c0,0.6,0.4,1,0.9,1.1
			c0.5,0,1-0.4,1.1-0.9c0,0,0,0,0,0c0-0.3,0-0.6,0-0.9l2.1-1.5c1.3-1,1.6-2.9,0.6-4.2c-0.6-0.8-1.5-1.2-2.4-1.2
			c-0.6,0-1.3,0.2-1.8,0.6l-1.8,1.3c-0.9-0.8-2.1-1.1-3.3-1c0.4-0.9,0.5-1.9,0.3-2.8l2-1.7c1.2-1.1,1.4-3,0.3-4.2
			c-1.1-1.2-3-1.4-4.2-0.3l-1.7,1.4c-0.8-0.5-1.7-0.8-2.6-0.8h0c-1.4,0-2.6,0.6-3.6,1.6c-1.6,1.8-3.5,3.4-5.5,4.8l-0.4,0.3
			c-2.2,1.5-4.1,3.2-5.9,5.1l-0.6,0.7c-0.2,0.3-0.4,0.6-0.6,0.9c-1,0.3-2.1,0.1-2.8-0.6l-1.7-1.7l-0.2-0.2c-0.2-0.2-0.4-0.3-0.7-0.3
			c-0.3,0-0.5,0.1-0.7,0.3l-2.1,2.1c-1.2,1.2-1.2,3.1,0,4.2c0.6,0.6,1.3,0.9,2.1,0.9c0.8,0,1.6-0.3,2.1-0.9l1.8-1.8
			c0.5,0.2,1.1,0.2,1.6,0.2c0,0.7,0.1,1.5,0.4,2.2l-1.7,1.4c-1.3,1.1-1.4,3-0.3,4.2c0.6,0.7,1.4,1,2.3,1c0.7,0,1.4-0.3,2-0.7l2-1.7
			c0.3,0.1,0.6,0.2,0.9,0.2c-0.2,0.8-0.1,1.7,0.2,2.5l-1.8,1.3c-1.3,1-1.6,2.8-0.7,4.2c0,0,0,0,0,0c1,1.3,2.9,1.6,4.2,0.6
			c0,0,0,0,0,0l1-0.8c0,0.2,0,0.5,0.1,0.7l-2,1c-0.7,0.4-1.3,1-1.5,1.7c-0.3,0.7-0.2,1.6,0.1,2.3c0.5,1,1.6,1.7,2.7,1.7
			c0.5,0,0.9-0.1,1.3-0.3l2.3-1.1c1.6,1.2,3.7,1.2,5.4,0.1c2-1.3,4.2-2.4,6.5-3.2l0.5-0.2c2.5-0.8,4.8-2,7-3.4l0.8-0.5
			c1.3-0.8,2.1-2.2,2.1-3.7l2.4-1.2C1101.7,135.8,1102.3,134,1101.6,132.5C1101.6,132.5,1101.6,132.5,1101.6,132.5z M1093.3,122.4
			c0.4-0.3,1.1-0.2,1.4,0.2c0.3,0.4,0.2,1.1-0.2,1.4l-1.6,1.2c-0.1-0.1-0.1-0.2-0.2-0.3l-1-1.3L1093.3,122.4z M1059,128.4
			c-0.4,0.4-1,0.4-1.4,0c-0.4-0.4-0.4-1,0-1.4c0,0,0,0,0,0l1.4-1.4l1.2,1.2c0.1,0.1,0.1,0.1,0.2,0.2L1059,128.4z M1086.6,113.5
			c0.4-0.4,1-0.3,1.4,0.1c0.4,0.4,0.3,1-0.1,1.4l-1.5,1.3c-0.1-0.1-0.1-0.2-0.2-0.3l-1.1-1.3L1086.6,113.5z M1065.3,134.8
			c-0.4,0.3-1,0.3-1.4-0.1c-0.4-0.4-0.3-1,0.1-1.4c0,0,0,0,0,0l1.5-1.3l1.1,1.3c0.1,0.1,0.1,0.1,0.2,0.2L1065.3,134.8z
			 M1068.1,131.9l-1.6-1.8c-0.9-1.1-0.9-2.6,0-3.7l0.6-0.7c1.6-1.8,3.5-3.4,5.5-4.8l0.4-0.3c2.2-1.5,4.1-3.2,5.9-5.1
			c0.5-0.6,1.3-0.9,2.1-0.9c0.8,0,1.6,0.4,2.1,1l1.6,1.8c0.9,1.1,0.9,2.6,0,3.7l-0.6,0.7c-1.5,1.6-3.1,3.1-4.9,4.3
			c-0.3,0.2-0.6,0.4-0.9,0.6l-0.4,0.2c-2.3,1.3-4.4,2.8-6.2,4.6l-0.7,0.7c-0.2,0.2-0.4,0.4-0.6,0.7
			C1069.5,132.9,1068.7,132.5,1068.1,131.9L1068.1,131.9z M1070.3,141.8c-0.5,0.3-1.1,0.2-1.4-0.2c-0.3-0.4-0.2-1.1,0.2-1.4
			c0,0,0,0,0,0l1.6-1.2l1,1.4c0.1,0.1,0.1,0.1,0.2,0.2L1070.3,141.8z M1072.3,147.9c-0.5,0.2-1.1,0-1.3-0.5c-0.1-0.2-0.1-0.5,0-0.8
			c0.1-0.3,0.3-0.5,0.5-0.6l1.8-0.9l0.8,1.5c0,0.1,0.1,0.2,0.1,0.2L1072.3,147.9z M1099.8,134.2c-0.1,0.3-0.3,0.5-0.5,0.6l-1.8,0.9
			c0-0.1-0.1-0.2-0.1-0.3l-0.7-1.5l1.8-0.9c0.5-0.2,1.1,0,1.3,0.5C1099.9,133.6,1099.9,133.9,1099.8,134.2z"/>
		<path class="st18" d="M1077.6,141.4l-0.6,0.4c-0.5,0.3-0.6,0.9-0.3,1.4s0.9,0.6,1.4,0.3c0,0,0,0,0.1,0l0.6-0.4
			c1.8-1.1,3.6-2.1,5.6-2.8l0.5-0.2c2.7-0.9,5.3-2.2,7.6-3.7c0.5-0.3,0.6-0.9,0.3-1.4c-0.3-0.5-0.9-0.6-1.4-0.3c0,0,0,0,0,0
			c-2.3,1.4-4.7,2.6-7.2,3.5l-0.5,0.2C1081.6,139.1,1079.5,140.1,1077.6,141.4z"/>
	</g>
</g>
<g>
	<g>
		<path class="st18" d="M1248.2,137.4c-5,6.6-14.3,8-21,3c-0.6-0.4-1.1-0.9-1.6-1.4c-3.4-3.6-5.5-8.2-6-13.1c-0.3-4.2-2.9-8-6.8-9.6
			l-2.6-2.6c-0.8-0.8-0.9-2-0.2-2.9c0.7-0.8,2-0.9,2.8-0.2c0,0,0.1,0,0.1,0.1c0.4,0.4,1,0.4,1.4,0c0.4-0.4,0.4-1,0-1.4
			c-0.8-0.8-0.8-2,0-2.8c0.8-0.8,2-0.8,2.8,0c0.4,0.4,1,0.4,1.4,0c0.4-0.4,0.4-1,0-1.4c-0.8-0.8-0.8-2,0-2.8c0,0,0,0,0.1-0.1
			c0.9-0.7,2.1-0.6,2.9,0.2c0.4,0.4,1,0.4,1.4,0c0.4-0.4,0.4-1,0-1.4c0,0,0,0,0,0c-1.5-1.6-4-1.7-5.6-0.3c-0.3,0.3-0.6,0.6-0.8,1
			l-6.6-6.6c2-2.5,1.6-6.2-0.9-8.2c-2.5-2.1-6.3-1.8-8.4,0.7c-0.5,0.6-0.9,1.3-1.1,2c-0.3,0.9-0.4,1.9-0.2,2.9
			c-1.2,0-2.4,0.4-3.3,1.1c-1.7,1.1-2.8,3-2.8,5.1c0.1,3.3,2.8,5.9,6.2,5.8c1.5,0,3-0.7,4.1-1.7l4.5,4.5c0.4,0.4,1,0.4,1.4,0
			s0.4-1,0-1.4l-5.3-5.3c-0.4-0.4-1-0.4-1.4,0c0,0-0.1,0.1-0.1,0.1c-1.2,1.8-3.7,2.3-5.6,1.1c-1.1-0.7-1.7-1.9-1.8-3.2
			c0-1.4,0.7-2.6,1.9-3.4c1-0.7,2.2-0.9,3.4-0.5c0.5,0.2,1.1-0.1,1.3-0.6c0.1-0.3,0.1-0.5-0.1-0.8c-0.5-0.9-0.6-2-0.3-3
			c0.5-1.4,1.6-2.4,3.1-2.7c2.2-0.4,4.2,1,4.6,3.2c0.2,1.4-0.2,2.8-1.3,3.7c-0.4,0.4-0.4,1-0.1,1.4c0,0,0,0,0,0l8.1,8.1l0,0
			c-1.1-0.1-2.3,0.4-3.1,1.2c-0.8,0.7-1.2,1.8-1.2,2.8c0,0.1,0,0.2,0,0.3c-0.1,0-0.2,0-0.4,0c-1.1,0-2.1,0.5-2.9,1.3
			c-1.4,1.6-1.3,4.1,0.3,5.6l2.6,2.6c0.2,0.2,0.4,0.3,0.6,0.4c3.2,1.4,5.4,4.5,5.6,8c0.6,5.4,2.9,10.4,6.6,14.4
			c6.5,6.6,17.2,6.7,23.9,0.2c0.6-0.6,1.2-1.3,1.7-2c0.3-0.4,0.2-1.1-0.2-1.4C1249.1,136.8,1248.5,136.9,1248.2,137.4L1248.2,137.4z
			"/>
		<path class="st18" d="M1248.2,116.3c-3.9-3.7-9-6.1-14.4-6.6c-3.5-0.2-6.6-2.4-8-5.6c-0.2-0.5-0.8-0.8-1.3-0.5s-0.8,0.8-0.5,1.3
			c1.7,3.9,5.4,6.6,9.6,6.8c4.9,0.5,9.5,2.6,13.1,6c4.3,4.3,5.6,10.8,3.2,16.4c-0.2,0.5,0,1.1,0.5,1.3c0.1,0,0.3,0.1,0.4,0.1
			c0.4,0,0.8-0.2,0.9-0.6C1254.6,128.5,1253.1,121.2,1248.2,116.3z"/>
		<circle class="st18" cx="1231.2" cy="134.4" r="1"/>
		<circle class="st18" cx="1227.2" cy="136.4" r="1"/>
		<circle class="st18" cx="1242.2" cy="138.4" r="1"/>
		<circle class="st18" cx="1240.2" cy="133.4" r="1"/>
		<circle class="st18" cx="1246.2" cy="130.4" r="1"/>
		<circle class="st18" cx="1231.2" cy="139.4" r="1"/>
		<circle class="st18" cx="1237.2" cy="136.4" r="1"/>
		<circle class="st18" cx="1246.2" cy="134.4" r="1"/>
		<circle class="st18" cx="1235.2" cy="133.4" r="1"/>
		<circle class="st18" cx="1229.2" cy="130.4" r="1"/>
		<circle class="st18" cx="1237.2" cy="140.4" r="1"/>
		<circle class="st18" cx="1225.2" cy="131.4" r="1"/>
		<circle class="st18" cx="1221.2" cy="119.4" r="1"/>
		<circle class="st18" cx="1223.2" cy="126.4" r="1"/>
	</g>
</g>
<g>
	<g>
		<path class="st18" d="M375.8,679.7l-2-4c-0.2-0.3-0.5-0.6-0.9-0.6h-4v-2h1c1.7,0,3-1.3,3-3v-2c0-0.6-0.4-1-1-1h-17.6
			c-0.6,0-1,0.4-1,1s0.4,1,1,1h16.6v1c0,0.6-0.4,1-1,1h-48c-0.6,0-1-0.4-1-1v-1h13c0.1,0,0.1,0,0.2,0c0.3,0,0.5,0,0.8,0h3.7
			c5.6,0,11.2-1.3,16.3-3.8l0.4-0.2c3.7-1.8,5.5-6,4.4-10h2.5c0.4,0,0.8-0.3,0.9-0.7c0.4-1,1.5-1.6,2.5-1.2c0.8,0.3,1.3,1,1.3,1.9
			c0,0.5-0.2,1-0.5,1.3c-0.3,0.4-0.3,1,0,1.3c0.3,0.4,0.5,0.8,0.5,1.3c0,1.1-0.9,2-2,2c-0.8,0-1.6-0.5-1.9-1.3
			c-0.2-0.5-0.8-0.8-1.3-0.6s-0.8,0.8-0.6,1.3c0.7,2.1,3,3.2,5.1,2.4c1.6-0.6,2.7-2.1,2.7-3.8c0-0.7-0.2-1.4-0.5-2
			c0.4-0.6,0.5-1.3,0.5-2c0-2.2-1.8-4-4-4c-1.4,0-2.8,0.8-3.5,2h-2.7c-0.3-0.6-0.7-1.1-1.2-1.6l0,0c-0.5-0.6-1.2-1.1-1.8-1.5
			c-2.1-1.2-4.2-2.2-6.5-3l0,0c-3.8-1.3-7.8-2-11.8-2h-2.4c-0.3,0-0.7,0-1,0c-0.6,0-1,0.5-0.9,1.1c0,0.5,0.5,1,1.1,0.9
			c0.3,0,0.6,0,0.8,0c3.7,0,7,2,8.8,5.2l-1.8,1.7c-1.7,1.6-2.1,4.1-1,6.1c0.3,0.5,0.9,0.6,1.4,0.3c0.4-0.3,0.6-0.8,0.4-1.3
			c-0.7-1.2-0.4-2.7,0.6-3.7l1.2-1.2c1.2,4.1-0.3,8.5-3.8,10.9l-3.2-2.6c-2.7-2.2-6.6-2.7-9.7-1.1l-1.5,0.7
			c-0.1-0.1-0.1-0.2-0.2-0.3l2.3-4.2c1.4-2.6,1.3-5.7-0.3-8.1c0.7-0.6,1.5-1.2,2.4-1.6c0.5-0.2,0.7-0.8,0.5-1.3
			c-0.2-0.5-0.8-0.7-1.3-0.5c-6,2.9-8.5,10-5.6,16c0.9,1.9,2.4,3.6,4.2,4.8h-8.4c-0.6,0-1,0.4-1,1v2c0,1.7,1.3,3,3,3h1v2h-4
			c-0.4,0-0.7,0.2-0.9,0.6l-2,4c-0.1,0.1-0.1,0.3-0.1,0.4v12c0,0.6,0.4,1,1,1h30c0.6,0,1-0.4,1-1s-0.4-1-1-1h-29v-10.8l1.6-3.2h52.8
			l1.6,3.2v10.8h-23c-0.6,0-1,0.4-1,1s0.4,1,1,1h24c0.6,0,1-0.4,1-1v-12C375.9,680,375.9,679.8,375.8,679.7z M355.5,652.4
			c-1.1,1.8-2.5,3.3-4.2,4.6c0.2-2.4,0-4.8-0.7-7.2c1.4,0.6,2.8,1.3,4.1,2C354.9,652,355.2,652.2,355.5,652.4z M346.9,657.1
			c0-3.8-1.8-7.4-4.9-9.7c2.1,0.3,4.1,0.8,6.1,1.4c1.4,3.2,1.7,6.7,0.8,10c-0.1,0.5,0.2,1.1,0.7,1.2c0.3,0.1,0.6,0,0.8-0.1l1.6-1.1
			c1.9-1.3,3.5-3,4.7-4.9c2,3,1.1,7-1.9,9c-0.2,0.1-0.4,0.3-0.7,0.4l-0.4,0.2c-3.8,1.9-7.9,3.1-12.2,3.5
			C345,664.7,346.9,661,346.9,657.1z M326.8,651.3c0.9,1.8,0.9,3.8-0.1,5.6l-1.5,2.7C324.5,656.8,325,653.7,326.8,651.3z
			 M327.6,663.9l1.1-0.6c2.5-1.2,5.4-0.9,7.6,0.8l2.6,2.1C335,668,330.4,667,327.6,663.9L327.6,663.9z M362.9,673.1v2h-34v-2H362.9z
			 M324.9,675.1v-2h2v2H324.9z M364.9,675.1v-2h2v2H364.9z"/>
		<path class="st18" d="M346.9,679.1h-6c-0.6,0-1,0.4-1,1s0.4,1,1,1h5v6h-23v-6h14c0.6,0,1-0.4,1-1s-0.4-1-1-1h-15c-0.6,0-1,0.4-1,1
			v8c0,0.6,0.4,1,1,1h25c0.6,0,1-0.4,1-1v-8C347.9,679.6,347.5,679.1,346.9,679.1z"/>
		<path class="st18" d="M357.9,689.1c0.6,0,1-0.4,1-1v-8c0-0.6-0.4-1-1-1h-4c-0.6,0-1,0.4-1,1v8c0,0.6,0.4,1,1,1H357.9z
			 M356.9,687.1h-2v-2h2V687.1z M354.9,681.1h2v2h-2V681.1z"/>
		<path class="st18" d="M366.9,689.1c0.6,0,1-0.4,1-1v-8c0-0.6-0.4-1-1-1h-4c-0.6,0-1,0.4-1,1v8c0,0.6,0.4,1,1,1H366.9z
			 M365.9,687.1h-2v-2h2V687.1z M363.9,681.1h2v2h-2V681.1z"/>
		<circle class="st18" cx="325.9" cy="684.1" r="1"/>
		<circle class="st18" cx="329.9" cy="684.1" r="1"/>
		<circle class="st18" cx="333.9" cy="684.1" r="1"/>
		<circle class="st18" cx="341.9" cy="684.1" r="1"/>
		<path class="st18" d="M334.9,657.1c2.2,0,4-1.8,4-4c0-2.2-1.8-4-4-4s-4,1.8-4,4C330.9,655.3,332.7,657.1,334.9,657.1z
			 M334.9,651.1c1.1,0,2,0.9,2,2s-0.9,2-2,2c-1.1,0-2-0.9-2-2S333.8,651.1,334.9,651.1z"/>
	</g>
</g>
<path class="st18" d="M164,264.5c-1.2-1.7-2.7-2.5-4.1-2.5c-3.2,0.2-5.3,4.9-5.1,7.4c0.1,1.4,0.7,2.6,1.8,3.5
	c0.8,0.7,1.8,1.1,2.8,1.2c0.4,0.1,0.7,0.1,1.1,0.1c1.4,0,2.8-0.6,3.8-1.6c1-1,1.5-2.3,1.5-3.6C165.5,267.3,164.9,265.8,164,264.5z
	 M163.2,271.6c-0.6,0.6-1.4,1-2.3,1.1c-0.1,0-0.1-0.1-0.2-0.1c-0.2-0.3-0.7-1.5-0.8-3.5c-0.1-1.2,0-2.4,0.4-3.5
	c0.2-0.4,0-0.8-0.4-0.9c0,0,0,0,0,0c-0.4-0.2-0.8,0-0.9,0.4c0,0,0,0,0,0c-0.4,1.3-0.6,2.7-0.5,4.1c0,1.2,0.3,2.4,0.6,3.5
	c-0.6-0.1-1.3-0.4-1.8-0.8c-0.8-0.6-1.2-1.5-1.3-2.5c-0.1-2.2,1.7-5.8,3.8-5.9c0.1,0,0.2,0,0.3,0c1,0.3,2,0.9,2.5,1.9
	c0.8,1.1,1.3,2.3,1.4,3.7l0,0C164.3,270,163.9,270.9,163.2,271.6L163.2,271.6z M158.7,254.4c0.8,0.8,1.9,1.2,3,1.4
	c1.6,0.3,3.3-0.3,4.4-1.5l0,0c1-1.3,1.6-2.8,1.8-4.4c0.3-2-0.1-3.7-1.2-4.6c-2.4-2.1-7.1-0.2-8.8,1.7
	C156.1,249.1,156.5,252.4,158.7,254.4z M159,247.9c1.5-1.5,3.5-2.2,5.6-2.1c0.5,0.1,0.9,0.2,1.3,0.5c0.7,0.6,1,1.8,0.8,3.3
	c-0.2,1.3-0.7,2.6-1.5,3.6c-1.3,1.4-3.5,1.5-5,0.3c0-0.1,0-0.1-0.1-0.2c0.1-0.4,0.6-1.6,1.9-3.1c0.7-0.9,1.6-1.7,2.7-2.2
	c0.4-0.1,0.6-0.5,0.4-0.9s-0.5-0.6-0.9-0.4c0,0,0,0-0.1,0c-1.2,0.6-2.3,1.5-3.2,2.6c-0.8,0.9-1.5,1.9-2,3
	C157.9,251.1,158,249.2,159,247.9z M178.8,272.9c-1.1-0.9-2.8-1.2-4.7-0.7c-1.6,0.4-3,1.2-4.1,2.4c-1.8,2.1-1.5,5.4,0.8,7.4
	c0.8,0.8,1.9,1.2,3,1.4c1.6,0.3,3.3-0.3,4.4-1.5C179.9,280,181.2,275,178.8,272.9z M177.1,280.9c-1.3,1.4-3.5,1.5-5,0.3
	c0-0.1,0-0.1-0.1-0.2c0.1-0.4,0.6-1.6,1.9-3.1c0.7-0.9,1.6-1.7,2.7-2.2c0.3-0.2,0.5-0.6,0.3-1c-0.2-0.3-0.5-0.4-0.8-0.3
	c-1.2,0.6-2.3,1.5-3.2,2.6c-0.7,0.8-1.3,1.7-1.8,2.6c-0.1,0.1-0.1,0.2-0.2,0.3c-1-1.4-0.9-3.2,0.1-4.5c1-0.9,2.1-1.6,3.4-1.9
	c0.7-0.2,1.4-0.3,2.2-0.2c0.5,0,0.9,0.2,1.3,0.5C179.5,275.3,178.6,279.3,177.1,280.9z M183.2,254.6c-0.8-2.7-3.8-4.1-6.7-3.3
	c-2.9,0.8-4.6,3.7-3.9,6.3l0,0c0.6,2,3.1,5.1,5.8,5.4c0.5,0.1,1,0,1.5-0.1c1.4-0.4,2.5-1.7,3.1-3.6
	C183.5,257.8,183.6,256.2,183.2,254.6L183.2,254.6z M181.7,258.9c-0.5,1.5-1.2,2.4-2.1,2.7c-2,0.6-4.9-2.3-5.5-4.4
	c-0.4-1.8,0.6-3.7,2.3-4.4c0.1,0,0.1,0,0.2,0c0.3,0.2,1,1.3,1.6,3.3c0.4,1.1,0.5,2.3,0.5,3.5c-0.1,0.4,0.2,0.7,0.6,0.8l0,0
	c0.4,0.1,0.7-0.2,0.8-0.6c0.1-1.4-0.1-2.8-0.5-4.1c-0.3-1-0.7-2-1.2-3c-0.1-0.1-0.1-0.2-0.2-0.3c1.7-0.1,3.2,0.9,3.7,2.5
	C182.2,256.3,182.1,257.6,181.7,258.9L181.7,258.9z M143.5,271.1c-1.9,1.6-4.1,6.3-2.1,8.8c0.7,0.8,1.6,1.3,2.7,1.4
	c2.2,0.2,4.5-0.3,6.3-1.6c2.1-1.7,2.3-5.1,0.4-7.4C148.9,269.9,145.6,269.4,143.5,271.1L143.5,271.1z M149.5,278.5
	c-1.7,1.4-5.7,2.1-7,0.4c-1.3-1.6,0.2-5.4,1.9-6.8c0.7-0.6,1.7-0.8,2.6-0.7c0.9,0.1,1.7,0.5,2.3,1.2c0,0.1,0,0.1,0,0.2
	c-0.1,0.4-0.8,1.4-2.4,2.7c-0.9,0.8-1.9,1.4-3,1.8c-0.4,0.1-0.6,0.5-0.5,0.8c0.1,0.3,0.3,0.5,0.6,0.5c0.1,0,0.2,0,0.3,0
	c1.3-0.4,2.5-1.1,3.6-2.1c0.9-0.7,1.7-1.6,2.4-2.6C151.1,275.6,150.7,277.4,149.5,278.5L149.5,278.5z M148.7,266.2
	c2.5-1.7,3.2-5,1.6-7.2c-1-1.3-2.3-2.2-3.8-2.8c-1.9-0.8-3.6-0.7-4.8,0.1c-1.2,0.8-1.8,2.4-1.7,4.4c0,1.6,0.5,3.2,1.4,4.6
	c0.8,1.1,2,1.8,3.3,2C146.1,267.3,147.6,267,148.7,266.2z M141.5,260.6c0-1.5,0.4-2.7,1.1-3.2c0.6-0.4,1.3-0.5,2-0.3
	c0.5,0.1,1,0.2,1.4,0.4c1.2,0.5,2.3,1.3,3.2,2.3c1,1.6,0.6,3.7-0.8,4.9c-0.1,0-0.1,0-0.2,0c-0.4-0.1-1.4-0.9-2.5-2.6
	c-0.7-0.9-1.2-2-1.5-3.1c-0.1-0.4-0.4-0.7-0.8-0.6c0,0,0,0,0,0c-0.4,0.1-0.7,0.4-0.6,0.8c0,0,0,0,0,0c0.3,1.3,0.9,2.6,1.8,3.7
	c0.7,1,1.5,1.9,2.4,2.6c-1.5,0.6-3.3,0.2-4.3-1.2C141.8,263.2,141.5,261.9,141.5,260.6z"/>
<path class="st18" d="M182.5,276.5c-2-0.3-3.7,0.1-4.6,1.2c-2.2,2.4-0.2,7.2,1.6,8.9c1,0.9,2.4,1.3,3.7,1.2c1-0.1,2-0.5,2.8-1.1
	c0.3-0.2,0.6-0.5,0.8-0.8c1-1,1.5-2.4,1.5-3.8c0-1.4-0.6-2.7-1.6-3.6C185.6,277.4,184.1,276.7,182.5,276.5z M187,282
	c0,0.9-0.3,1.7-0.8,2.4c-0.1,0-0.1,0-0.2,0.1c-0.4,0-1.6-0.6-3.1-2c-0.9-0.7-1.7-1.7-2.2-2.7c-0.1-0.4-0.6-0.5-0.9-0.4c0,0,0,0,0,0
	c-0.4,0.1-0.5,0.6-0.4,0.9c0,0,0,0,0,0c0.6,1.2,1.5,2.4,2.6,3.2c0.9,0.8,1.9,1.5,2.9,2c-0.5,0.4-1.2,0.6-1.8,0.7
	c-1,0.1-1.9-0.2-2.6-0.8c-1.6-1.4-2.9-5.3-1.5-6.8c0.1-0.1,0.2-0.2,0.3-0.2c0.9-0.6,2-0.7,3.1-0.5c1.3,0.2,2.6,0.7,3.6,1.5l0,0
	C186.6,280.1,187,281,187,282L187,282z M171.6,273.1c1.1-0.1,2.2-0.5,3.1-1.2c1.3-1,2.1-2.6,2-4.2l0,0c-0.2-1.6-0.8-3.1-1.8-4.4
	c-1.2-1.6-2.7-2.5-4.1-2.4c-3.2,0.2-5.1,5-5,7.5C166,271.2,168.6,273.3,171.6,273.1z M167.2,268.4c0-2.1,0.9-4.1,2.4-5.5
	c0.4-0.3,0.8-0.5,1.3-0.5c0.9-0.1,2,0.6,2.9,1.8c0.8,1.1,1.4,2.3,1.5,3.6c0,1.9-1.4,3.5-3.3,3.8c-0.1,0-0.1,0-0.2-0.1
	c-0.2-0.3-0.7-1.5-0.8-3.5c-0.1-1.2,0-2.4,0.3-3.5c0.2-0.4,0-0.8-0.3-0.9s-0.8,0-0.9,0.3c0,0,0,0,0,0.1c-0.4,1.3-0.6,2.7-0.4,4.1
	c0.1,1.2,0.3,2.4,0.7,3.5C168.7,271.3,167.4,270,167.2,268.4z M194.9,267.8c-1.4,0.1-2.8,1.1-3.8,2.9c-0.8,1.4-1.2,3-1.2,4.6
	c0.2,2.8,2.8,4.8,5.8,4.6c1.1-0.1,2.2-0.5,3.1-1.2c1.3-1,2.1-2.6,2-4.2C200.7,272,198.1,267.6,194.9,267.8z M199.4,274.6
	c0,1.9-1.4,3.5-3.3,3.8c-0.1,0-0.1,0-0.2-0.1c-0.2-0.3-0.7-1.5-0.8-3.5c-0.1-1.2,0-2.4,0.3-3.5c0.1-0.4-0.1-0.8-0.5-0.9
	c-0.3-0.1-0.7,0-0.8,0.3c-0.4,1.3-0.6,2.7-0.4,4.1c0.1,1.1,0.2,2.1,0.6,3.1c0,0.1,0.1,0.2,0.1,0.4c-1.7-0.2-2.9-1.6-3.1-3.2
	c0-1.3,0.4-2.6,1-3.8c0.3-0.6,0.8-1.2,1.4-1.7c0.4-0.3,0.8-0.5,1.3-0.5C197.1,269,199.3,272.5,199.4,274.6z M189,255.8
	c-2.4-1.3-5.6-0.2-7,2.4c-1.5,2.7-0.6,5.9,1.8,7.2l0,0c1.9,1,5.8,1.3,7.9-0.3c0.4-0.3,0.7-0.7,1-1.1c0.7-1.3,0.5-2.9-0.4-4.7
	C191.4,257.8,190.3,256.6,189,255.8L189,255.8z M190.9,259.9c0.7,1.3,0.9,2.6,0.4,3.4c-1,1.8-5.1,1.9-7,0.9c-1.6-1-2.2-3-1.5-4.7
	c0.1,0,0.1-0.1,0.2-0.1c0.4,0,1.7,0.2,3.4,1.2c1.1,0.5,2,1.2,2.8,2.1c0.2,0.3,0.7,0.4,1,0.1l0,0c0.3-0.2,0.4-0.7,0.1-1
	c-0.9-1.1-2-1.9-3.3-2.5c-0.9-0.5-1.9-0.9-3-1.2c-0.1,0-0.2-0.1-0.3-0.1c1.1-1.3,2.9-1.6,4.4-0.9
	C189.4,257.7,190.3,258.7,190.9,259.9L190.9,259.9z M167.8,292.7c-0.2,2.5,1.6,7.3,4.8,7.6c1,0.1,2.1-0.3,2.9-0.9
	c1.7-1.4,2.9-3.4,3.3-5.6c0.3-2.8-2-5.2-5-5.5C170.7,288,168.1,290,167.8,292.7L167.8,292.7z M177.3,293.6c-0.2,2.1-2.5,5.5-4.6,5.3
	c-2.1-0.2-3.7-3.9-3.5-6.1c0.1-0.9,0.6-1.8,1.4-2.4c0.7-0.5,1.6-0.8,2.5-0.8c0.1,0,0.1,0.1,0.2,0.1c0.2,0.3,0.4,1.6,0.3,3.6
	c-0.1,1.2-0.3,2.3-0.8,3.4c-0.2,0.3-0.1,0.8,0.2,1c0.2,0.2,0.6,0.1,0.8,0c0.1-0.1,0.1-0.1,0.2-0.2c0.6-1.2,1-2.6,1-4
	c0.1-1.2,0.1-2.4-0.1-3.5C176.3,290.5,177.4,292,177.3,293.6L177.3,293.6z M166.6,282.2c0.5-3-1.3-5.8-4-6.2
	c-1.6-0.2-3.2,0.1-4.7,0.7c-1.9,0.8-3,2-3.3,3.5c-0.2,1.4,0.5,2.9,1.9,4.4c1.2,1.1,2.6,1.9,4.2,2.2c1.3,0.2,2.7-0.1,3.7-1
	C165.6,284.9,166.3,283.6,166.6,282.2z M157.5,283.4c-1.1-1-1.7-2.2-1.5-3.1c0.2-0.7,0.6-1.3,1.2-1.7c0.4-0.3,0.8-0.5,1.3-0.7
	c1.2-0.5,2.6-0.8,3.9-0.6c1.8,0.4,3.1,2.2,2.9,4c0,0-0.1,0.1-0.1,0.2c-0.3,0.2-1.6,0.3-3.6,0c-1.2-0.1-2.3-0.5-3.3-1.1
	c-0.3-0.2-0.8-0.2-1,0.2c0,0,0,0,0,0c-0.2,0.3-0.2,0.8,0.2,1c0,0,0,0,0,0c1.2,0.7,2.5,1.2,3.9,1.3c1.2,0.2,2.4,0.3,3.6,0.2
	c-0.6,1.5-2.2,2.5-3.9,2.3C159.6,285,158.5,284.3,157.5,283.4z"/>
</svg>
