<?xml version="1.0" encoding="UTF-8"?>
<svg width="6423px" height="3573px" viewBox="0 0 6423 3573" version="1.1" xmlns="http://www.w3.org/2000/svg" xmlns:xlink="http://www.w3.org/1999/xlink">
    <title>All Animals Overview 2</title>
    <g id="All-Animals-Overview-2" stroke="none" stroke-width="1" fill="none" fill-rule="evenodd">
        <g id="Page-1-2" transform="translate(697.000000, 2109.000000)" fill="#5C697C" fill-rule="nonzero">
            <g id="Artboard-2" transform="translate(3.000000, 0.000000)">
                <path d="M527.453571,69.4587591 C536.239286,39.0535348 504.610714,46.9853325 504.610714,46.9853325 C514.275,20.546007 472.103571,28.0371492 448.821429,62.4082724 C421.039933,106.603147 374.894706,135.898003 323.185714,142.166904 C260.367857,149.658046 219.075,164.640331 183.053571,113.964957 C166.441505,70.9280373 129.828302,38.8121802 85.0928571,28.0371492 L85.0928571,28.0371492 C85.0928571,28.0371492 97.3928571,19.2240407 91.2428571,10.4109322 C85.0928571,1.59782374 73.6714286,10.4109322 70.5964286,10.4109322 C67.5214286,10.4109322 67.9607143,-0.164797964 57.4178571,0.275857461 C46.875,0.716512886 50.3892857,10.8515877 46.875,11.7328985 C43.3607143,12.6142094 26.6678571,6.88568883 19.6392857,18.7833853 C12.6107143,30.6810818 26.2285714,43.0194337 26.6678571,44.7820554 C26.8230508,49.8582585 25.608886,54.8823049 23.1535714,59.3236844 C10.9199083,69.6359633 2.80850184,84.0316601 0.310714286,99.8639835 C9.71425557,95.1172365 19.7888809,91.8476359 30.1821429,90.1695641 C18.7607143,113.964957 26.2285714,124.981343 33.6964286,124.100032 C41.1642857,123.218721 43.3607143,117.049545 42.9214286,109.558403 L42.9214286,109.558403 C39.0508199,139.692188 39.0508199,170.199635 42.9214286,200.33342 C53.4291996,246.913036 71.220769,291.530647 95.6357143,332.530048 C114.117192,367.604104 138.31924,399.328704 167.239286,426.389653 C182.546979,440.686658 200.646685,451.640364 220.392857,458.557499 L228.739286,458.557499 L213.803571,506.148285 C209.410714,518.927292 177.782143,531.7063 163.725,533.909577 C156.75704,534.612395 149.940121,536.396267 143.517857,539.197442 C136.928571,541.841374 132.535714,544.925962 140.003571,544.925962 L173.389286,544.925962 C177.782143,544.925962 147.910714,559.908247 153.621429,561.670869 C159.332143,563.43349 177.782143,551.535794 204.578571,541.841374 C219.412944,536.030274 236.220832,538.727921 248.507143,548.891861 C257.292857,552.85776 265.2,551.535794 258.610714,545.807273 C254.617872,542.333926 250.805698,538.656943 247.189286,534.790888 C256.255709,527.959224 268.13152,526.139207 278.817857,529.943678 C289.8,533.028266 308.689286,540.519408 304.735714,529.943678 C300.782143,519.367948 275.303571,523.333847 275.303571,512.758116 C276.38321,495.31672 280.393235,478.183728 287.164286,462.082743 C290.045317,458.49412 293.839883,455.753514 298.146429,454.150945 C309.435858,451.477944 320.462498,447.790937 331.092857,443.134559 C366.675,434.762106 388.2,412.729335 424.221429,355.003474 C436.960714,334.733325 465.514286,294.193026 483.964286,262.02518 C490.722621,249.438532 496.452119,236.322754 501.096429,222.806847 C545.025,203.418008 516.032143,173.894095 516.032143,173.894095 C559.960714,145.251492 519.985714,129.828552 519.985714,129.828552 C560.839286,125.862654 535.360714,96.3387401 535.360714,96.3387401 C558.642857,76.5092459 527.453571,69.4587591 527.453571,69.4587591 Z M247.628571,515.842704 C233.132143,526.85909 228.3,518.486637 233.132143,503.504353 C238.928194,488.470573 245.527032,473.760765 252.9,459.43881 L269.153571,459.43881 C269.871038,480.385313 262.106535,500.73134 247.628571,515.842704 L247.628571,515.842704 Z" id="Shape"></path>
            </g>
        </g>
        <g id="Page-1" transform="translate(941.000000, 1798.000000)" fill="#37485E" fill-rule="nonzero">
            <g id="Artboard" transform="translate(1.000000, 0.000000)">
                <path d="M241.360572,197.26524 C229.33413,185.639751 218.04622,173.27114 207.563119,160.232029 C196.411755,125.007751 200.231839,86.7374143 218.124823,54.4228548 C227.630357,47.0162126 239.248231,54.4228548 258.259298,73.4685062 C257.621294,60.4456056 260.935271,47.5344714 267.764832,36.4352952 C277.270366,20.5639191 324.798034,73.4685062 361.763998,122.140726 C387.474169,111.135375 414.430186,103.318122 442.032948,98.862708 C726.758956,44.7225233 1015.26197,12.8834706 1304.92417,3.63445122 C1436.88574,-10.4767426 1569.45243,24.1360664 1677.75232,100.978891 C1685.14551,106.26935 1761.18978,183.510047 1804.49277,177.161497 C1847.79575,170.812946 1869.97533,165.522488 1840.40256,184.568139 C1804.01376,202.057017 1761.66879,202.057017 1725.27999,184.568139 C1739.56469,223.62532 1749.82765,264.042784 1755.90893,305.190598 C1767.5268,466.020542 1669.30296,539.028872 1716.83062,587.701093 C1781.25702,650.128505 1702.04424,680.813166 1706.26892,739.008212 C1710.4936,797.203257 1706.26892,805.667991 1694.65104,803.551808 C1683.03317,801.435624 1666.13444,798.261349 1653.4604,837.410744 C1650.2649,847.737996 1645.25783,857.41207 1638.67401,865.979221 L1565.79826,865.979221 C1557.04865,865.979221 1549.9557,858.873364 1549.9557,850.107845 C1548.60018,847.078809 1548.60018,843.614055 1549.9557,840.585019 C1583.90195,800.762226 1607.48633,753.144177 1618.60678,701.975001 C1623.83267,638.430792 1592.75292,577.387293 1538.33783,544.319331 L1523.55144,544.319331 C1532.73485,572.764193 1524.94872,603.965362 1503.4842,624.734304 C1485.33278,678.934193 1476.40694,735.8058 1477.07994,792.97089 C1477.07994,808.842267 1447.50717,785.564248 1445.39483,804.6099 C1441.65371,825.316768 1435.63195,845.544136 1427.43993,864.921129 L1354.56418,864.921129 C1346.98119,864.921129 1340.83396,858.762719 1340.83396,851.165936 C1339.7735,848.444363 1339.7735,845.422776 1340.83396,842.701202 C1362.13894,816.600849 1379.24382,787.326852 1391.53014,755.93768 C1407.05209,702.155644 1398.57842,644.275522 1368.29439,597.223918 L1350.33949,581.352542 C1335.5995,585.343387 1321.13457,590.291618 1307.03651,596.165827 C1289.08161,601.456285 1267.9582,606.746744 1246.83479,615.211478 C1114.13572,649.931056 973.813601,641.029058 846.546212,589.817276 C838.28875,632.427027 832.995162,675.559864 830.703656,718.904469 C837.027394,751.399411 837.027394,784.812058 830.703656,817.307001 C822.254293,824.713643 811.692589,817.307001 807.467907,817.307001 C808.551877,823.609112 808.551877,830.05054 807.467907,836.352652 C804.549229,845.616991 799.888763,854.236579 793.737692,861.746854 C741.45642,866.57975 711.085651,866.57975 702.625386,861.746854 C689.934989,854.497509 703.544457,847.31436 709.24406,840.585019 C726.221215,823.932589 738.594392,803.151587 745.153854,780.27379 C753.297075,714.590254 740.741658,647.99948 709.24406,589.817276 C687.71356,650.533365 669.381352,712.340531 654.323199,774.983331 C653.480144,789.387076 648.733197,803.288009 640.592984,815.190817 C640.592984,815.190817 632.143621,815.190817 630.03128,815.190817 C627.918939,815.190817 618.413405,823.655551 619.469576,840.585019 C617.580671,851.460521 613.637522,861.875006 607.851701,871.269679 L530.751262,871.269679 C519.085126,871.269679 509.627854,861.795203 509.627854,850.107845 C508.087217,846.016191 508.087217,841.502397 509.627854,837.410744 C530.578603,813.795715 547.043838,786.542797 558.211693,756.995771 C567.96648,692.563105 565.457919,626.86284 550.8185,563.364983 C445.20146,563.364983 402.954644,503.053753 339.584419,497.763295 C303.674626,497.763295 255.090787,497.763295 219.180994,491.414744 C126.237998,472.369093 60.7554333,461.788175 47.0252181,425.813056 C41.7443661,408.883588 5.83457241,406.767405 11.1154244,406.767405 C-0.150393196,343.2819 -0.150393196,311.539148 11.1154244,311.539148 C74.3607292,324.640199 139.811485,303.319951 183.2712,255.460286 C200.460857,234.000309 219.939563,214.486167 241.360572,197.26524 Z" id="Path"></path>
            </g>
        </g>
        <g id="Page-1-4" transform="translate(2402.000000, 1618.000000)" fill="#253854">
            <g id="Artboard-4">
                <g id="Sheep">
                    <path d="M1374.44,607.743424 L1374.44,704.367491 C1373.64465,716.607416 1371.21075,728.685431 1367.20339,740.278575 C1359.76474,756.984346 1351.12719,773.130473 1341.35833,788.590609 C1326.8851,805.383562 1336.44777,817.526159 1338.77383,829.410402 C1343.53777,843.386867 1345.98226,858.048266 1346.01044,872.813727 L1346.01044,1007.93241 C1346.01044,1015.1663 1346.01044,1022.40018 1338.77383,1022.40018 C1331.53721,1022.40018 1332.05411,1031.95925 1333.86327,1051.07738 L1266.40767,1051.07738 C1267.8,1043.58337 1269.87628,1036.23264 1272.61049,1029.11736 C1275.77315,1021.3433 1281.28465,1014.75004 1288.37597,1010.25759 C1295.61258,1007.93241 1290.70202,1000.69852 1290.70202,1000.69852 C1288.37597,959.620375 1283.72386,918.542229 1278.8133,877.722436 C1278.39058,867.831601 1274.01443,858.52416 1266.66612,851.887124 C1254.51895,842.069705 1232.8091,827.60193 1232.8091,827.60193 C1232.8091,827.60193 1225.57249,820.626396 1220.66193,825.018399 C1215.75137,829.410402 1215.75137,832.51064 1215.75137,837.419349 C1215.75137,842.328058 1198.43518,928.876354 1198.43518,928.876354 C1198.43518,928.876354 1183.7035,991.397809 1181.37744,998.89005 C1179.05139,1006.38229 1179.05139,1005.86558 1171.81477,1005.86558 C1164.57816,1005.86558 1159.40915,1005.86558 1157.08309,1013.09947 C1155.06281,1019.4551 1153.42305,1025.92539 1152.17253,1032.47596 L1152.17253,1051.59409 L1095.83031,1051.59409 C1094.86272,1045.16931 1095.48386,1038.60541 1097.63947,1032.47596 C1100.74087,1022.91689 1118.31551,1010.77429 1120.64157,1008.19076 L1120.64157,1000.95687 C1125.55213,975.121563 1130.46269,945.669307 1137.95775,916.733757 C1137.95775,887.798208 1135.6317,856.279127 1137.95775,825.018399 C1140.28381,793.757671 1142.86831,773.347775 1106.42679,755.004703 C1074.89582,740.536928 1062.74864,755.004703 1038.45429,759.913412 C968.205511,775.602687 896.437975,783.487209 824.45724,783.423547 C710.222099,783.423547 698.074923,768.697419 676.365077,773.606128 C661.633396,778.514837 650.520023,797.632968 635.01299,812.100743 C625.129627,822.433637 619.820454,836.306771 620.281309,850.595358 C620.281309,857.829245 629.843979,908.466457 632.170034,918.025523 C640.068422,945.356784 642.527041,973.971338 639.406649,1002.24864 C634.496089,1004.83217 620.022859,1002.24864 620.022859,1012.06606 L620.022859,1050.56067 L554.37642,1050.56067 C554.239768,1044.10989 555.022985,1037.67253 556.702475,1031.44254 C561.63609,1016.99009 568.319258,1003.19499 576.603167,990.364397 C579.355527,986.074248 580.198218,980.832817 578.929222,975.896622 C579.058068,963.026429 578.280797,950.163125 576.603167,937.402007 C576.603167,930.168119 567.040497,885.731383 564.455991,876.947376 C558.913071,860.135099 551.637381,843.944131 542.746145,828.635343 C535.249144,822.939474 527.092092,818.16853 518.451794,814.425921 C513.541234,859.89607 520.777849,992.689575 520.777849,1004.83217 C520.777849,1016.97477 510.956728,1019.04159 506.046168,1021.62512 C501.135608,1024.20866 498.809553,1038.41808 496.225047,1050.30232 L430.578609,1050.30232 C429.257878,1042.34778 429.257878,1034.23002 430.578609,1026.27548 C432.475497,1019.68321 434.984771,1013.28265 438.073675,1007.15735 C438.073675,1007.15735 459.266619,974.604856 459.266619,972.279678 C459.266619,969.9545 461.851125,962.720613 461.851125,960.137082 C461.851125,957.55355 445.56874,843.103118 445.56874,838.194408 C444.599516,820.11728 439.657984,802.475604 431.09551,786.523784 C419.973904,775.921486 406.773368,767.740239 392.327928,762.496944 C371.906559,750.421015 353.14109,735.744308 336.50261,718.835266 C317.286499,695.019221 300.97546,669.000778 287.913908,641.32933 C271.298997,603.585657 256.803249,564.944899 244.494216,525.587131 C235.066686,493.210253 227.813915,460.239849 222.78437,426.896239 C220.458315,409.844933 215.547755,361.791252 215.547755,351.973834 C215.635476,341.072409 211.244413,330.612543 203.400579,323.038284 C194.88899,317.334485 184.2755,315.724116 174.454118,318.646281 C138.437184,329.9176 101.860534,339.317015 64.8710869,346.806771 C48.330252,346.806771 42.64434,333.889115 35.4077247,331.563937 C26.3484899,330.155566 17.6032231,327.183296 9.56267018,322.779931 C4.11910708,316.894111 1.23716865,309.087931 1.55070327,301.078269 C3.04133645,287.856939 6.34607974,274.903751 11.371824,262.583654 C26.7577791,238.75255 44.0440091,216.202524 63.0619331,195.153489 C82.274684,170.251482 103.44898,146.925339 126.382317,125.398146 C143.465038,110.465637 161.699257,96.9031102 180.915382,84.8367062 C195.21518,76.3875401 211.010469,70.7735542 227.43648,68.3021065 C235.945849,65.9558596 244.572785,64.0586492 253.281535,62.6183378 C255.556808,53.9568898 259.902758,45.9775402 265.945611,39.3665569 C273.952514,28.1947408 283.833307,18.4924877 295.150523,10.6893604 C304.971644,3.455473 317.118819,-1.45323631 324.355435,3.455473 C331.060579,12.4412081 331.67311,24.5851502 325.906138,34.1994944 C320.995577,46.083738 316.860369,60.0348066 316.860369,60.0348066 C316.860369,60.0348066 387.675818,99.8211873 405.508906,112.222137 C461.334224,148.391574 500.101805,203.937495 531.891223,208.846205 C555.183236,212.002567 578.728777,212.867886 602.189771,211.429736 C747.955879,204.454201 1054.21977,190.503133 1095.57186,190.503133 C1132.09149,188.075271 1168.76889,189.808773 1204.89644,195.670195 C1229.44924,205.229261 1306.98441,232.097985 1348.3365,287.643907 C1389.68858,343.189828 1413.72448,398.477396 1411.13998,444.464251 C1408.80193,468.700066 1402.14995,492.32318 1391.49774,514.219594 C1383.12997,530.265205 1378.11762,547.845743 1376.76606,565.890218 L1374.44,607.743424 Z" id="Path-2"></path>
                </g>
            </g>
        </g>
        <g id="Page-1-3" transform="translate(2861.000000, 815.000000)" fill="#1C2A40">
            <g id="Artboard-3" transform="translate(0.298371, 0.000000)">
                <path d="M364.295435,0.448771494 C376.337983,0.448771494 360.621438,13.7124523 386.339422,42.6872403 C407.985653,60.9962236 430.680415,78.0290595 454.30838,93.6991909 C468.76232,104.063518 481.037535,117.166894 490.436024,132.264226 C497.78402,144.303046 486.966138,166.748304 490.436024,168.380687 C493.905911,170.013069 498.600464,165.115922 512.071789,156.341866 C531.965424,142.245018 555.031483,133.273767 579.224303,130.223747 C602.987735,127.21886 627.080948,132.093358 647.805594,144.098998 C653.520702,149.608289 636.375379,186.336893 611.269728,209.394295 C596.777848,223.065498 568.814643,226.126215 568.814643,231.023362 C568.814643,239.797417 573.305084,244.286469 595.14496,244.286469 C611.269728,247.551234 679.646908,257.141481 732.307542,262.038628 L768.843408,264.691249 L780.477735,264.691249 L785.78462,264.691249 L785.78462,264.691249 C797.623057,264.691249 808.44094,264.691249 817.217712,264.691249 C940.704858,269.588397 1201.5587,285.096029 1291.97986,294.686276 C1377.09414,304.276523 1491.19219,318.967965 1581.00102,328.762259 C1655.15813,336.667372 1729.73133,340.006454 1804.29844,338.760602 C1884.92228,338.760602 2089.03326,330.598689 2151.28711,316.519391 C2241.70828,307.33724 2355.3981,303.256284 2407.85462,298.563184 C2460.31114,293.870085 2545.42543,289.585081 2583.39007,313.458674 C2625.84515,337.128219 2682.79212,378.141827 2705.85666,420.787818 C2727.80906,468.456651 2744.64037,518.319349 2756.06796,569.538666 C2765.88306,628.498554 2772.28917,687.975179 2775.2544,747.672398 C2779.74484,841.738434 2775.2544,956.005204 2784.03117,1003.75239 C2805.94958,1028.0601 2824.86365,1054.91524 2840.3658,1083.73913 C2857.51138,1131.45545 2865.27376,1182.03391 2863.22623,1232.69402 C2859.75634,1297.58122 2838.93702,1378.18011 2834.03836,1360.01985 C2829.1397,1341.8596 2798.52305,1303.49861 2772.80506,1251.05833 C2755.50489,1214.95561 2741.83051,1177.22601 2731.98287,1138.42394 C2728.18938,1116.7555 2728.18938,1094.59303 2731.98287,1072.92459 C2736.88153,1047.62267 2748.92408,1019.66812 2746.67886,1010.28192 C2739.59453,962.94153 2734.96184,915.266816 2732.79931,867.448458 C2732.79931,843.98296 2719.5321,640.751349 2714.83754,617.081804 C2710.14299,588.923207 2677.28112,501.794796 2691.36478,542.400308 C2705.44844,583.005821 2691.36478,687.886391 2691.36478,720.942135 L2691.36478,890.913955 C2686.46612,923.969699 2695.447,999.467386 2676.66879,1032.52313 C2668.03367,1050.31377 2658.42594,1067.61597 2647.88914,1084.35127 C2638.29592,1100.06295 2635.23426,1107.81677 2638.29592,1107.81677 C2641.35759,1107.81677 2699.52922,1169.03111 2714.0211,1183.72255 C2729.64221,1203.85596 2734.79154,1230.20024 2727.90065,1254.73119 C2713.61288,1287.78693 2693.81411,1462.45185 2693.81411,1499.58855 C2693.81411,1536.72525 2697.89633,1665.07132 2697.89633,1674.45752 C2697.89633,1688.74086 2702.59088,1697.92301 2702.59088,1707.51326 C2697.69222,1712.20636 2662.99335,1751.38354 2660.54402,1778.31785 C2659.98174,1803.84209 2661.55204,1829.3687 2665.23857,1854.63173 L2469.70025,1854.63173 C2473.27506,1836.50866 2478.88982,1818.8482 2486.43735,1801.98739 C2497.23898,1783.99175 2511.04631,1767.98021 2527.25955,1754.6483 C2541.75143,1735.8759 2560.93786,1636.91272 2561.34608,1551.82479 C2561.34608,1471.42995 2533.58699,1353.49032 2472.35369,1277.58454 C2381.32019,1442.65921 2357.03099,1593.65459 2361.52143,1692.82182 C2323.55678,1697.31087 2304.57446,1720.98041 2290.28669,1754.03616 C2284.68136,1769.41227 2280.44659,1785.25362 2277.63181,1801.37525 L2106.99503,1801.37525 C2111.22798,1784.86819 2117.68236,1769.0118 2126.18146,1754.24021 C2182.92432,1667.51989 2230.48217,1614.87556 2238.64661,1598.75578 C2254.27022,1562.80007 2263.98832,1524.55982 2267.42626,1485.50925 L2267.42626,1484.48901 C2267.42626,1455.10613 2267.42626,1387.15821 2234.56439,1382.46511 C2224.97118,1380.01654 2227.62462,1429.60015 2208.43819,1429.60015 C2189.25176,1429.60015 2192.92575,1392.25941 2174.14754,1394.91203 C2155.36933,1397.56465 2163.32966,1425.92729 2142.91856,1425.92729 C2118.22113,1421.23419 2130.6719,1395.32012 2113.9348,1391.44321 C2107.01035,1389.4363 2099.5544,1390.55435 2093.5237,1394.50393 C2084.95104,1401.03346 2089.03326,1413.07228 2070.25505,1413.07228 C2051.47684,1413.07228 2045.55762,1382.26106 2045.55762,1374.50725 C2007.75094,1354.73579 1973.80546,1328.33425 1945.33913,1296.56099 C1931.05136,1282.27764 1893.29083,1239.63165 1893.29083,1239.63165 C1826.75065,1244.1207 1755.51591,1248.4057 1732.04315,1248.4057 C1703.67172,1248.4057 1632.43699,1243.50856 1603.86145,1243.30451 C1570.79547,1243.30451 1537.52538,1247.79356 1499.56074,1247.58951 C1464.34585,1246.07548 1429.3541,1241.22461 1395.05591,1233.10212 C1384.52725,1228.43985 1372.51859,1228.43985 1361.98993,1233.10212 C1342.8035,1237.79522 1309.3293,1313.08886 1309.12519,1336.96245 L1309.12519,1388.79059 C1321.37075,1412.86837 1330.82127,1438.26735 1337.2925,1464.49233 C1337.2925,1478.57163 1313.61563,1492.85497 1304.02241,1511.62737 C1294.63331,1535.09287 1265.64955,1577.53481 1270.3441,1629.567 C1270.3441,1676.70204 1279.7332,1695.67849 1279.52909,1724.04113 C1279.52909,1738.12043 1286.46887,1766.48307 1262.58788,1766.48307 C1246.4382,1774.20545 1233.66408,1787.55608 1226.66435,1804.02787 C1219.90575,1820.60038 1215.97318,1838.18803 1215.03002,1856.06006 L1051.74123,1856.06006 C1054.64281,1834.41328 1064.95706,1814.44012 1080.92911,1799.53882 C1104.60598,1785.45952 1114.1992,1785.45952 1118.89375,1766.48307 C1128.28285,1743.01758 1142.97884,1676.90609 1147.6734,1658.13369 C1153.2582,1614.25847 1156.59637,1570.12659 1157.67484,1525.91072 C1158.48768,1497.47951 1157.05445,1469.02851 1153.3885,1440.82278 C1144.70698,1416.2378 1138.3517,1390.89285 1134.40618,1365.12105 C1124.81297,1417.15324 1095.82921,1511.42332 1086.64421,1516.11642 C1073.45147,1523.39698 1063.25779,1535.10524 1057.86456,1549.17217 C1053.37412,1558.55836 1043.37268,1638.74915 1033.77947,1667.1118 C1028.8808,1690.78134 1023.77803,1780.35833 1019.08348,1789.54048 C1009.69437,1794.23358 990.507939,1794.23358 981.118833,1803.61977 C971.729728,1809.94526 965.198176,1827.08527 961.932401,1855.44792 L805.379275,1855.44792 C809.850316,1841.73749 816.765344,1828.94865 825.790373,1817.69907 C849.059026,1794.84572 871.919456,1781.99071 876.409898,1775.66523 C880.900339,1761.17783 914.374541,1700.16754 919.273205,1681.19109 C924.171868,1662.21465 962.748845,1525.50262 962.748845,1506.73022 C959.799706,1485.96302 955.088155,1465.48436 948.665187,1445.51588 C948.665187,1422.05038 944.582967,1347.57294 944.582967,1318.8022 L944.582967,1316.55767 C944.582967,1293.90836 944.582967,1284.93026 920.701982,1284.72621 L917.436206,1284.72621 C897.916721,1285.5503 878.371309,1283.90488 859.264575,1279.82907 C839.589987,1264.89811 822.07474,1247.31961 807.216274,1227.59283 C788.233952,1189.84399 774.150294,1166.37849 769.455741,1152.09514 C764.761189,1133.1187 731.89932,1038.44052 717.611551,1000.69167 C699.037451,967.635929 651.887814,882.343947 628.210939,849.288203 C604.738176,821.129606 563.099535,774.40266 539.014439,750.529067 L539.014439,750.529067 C538.679742,750.615458 538.328581,750.615458 537.993884,750.529067 C526.273263,735.261124 513.374857,720.933998 499.416908,707.679028 C477.781143,685.641866 451.450826,681.152814 425.120509,672.378758 C398.790192,667.889707 354.702219,676.459714 319.595129,672.378758 C286.90969,666.917497 254.597277,659.421157 222.846522,649.9335 C192.907017,636.309748 162.165443,624.521176 130.792468,614.63323 C108.544371,610.144179 55.8837363,618.714186 47.1069639,609.940131 C38.9457855,598.812979 31.6446884,587.080269 25.2670885,574.843909 C16.4903161,557.09175 -9.63589001,513.629568 3.83543503,495.877409 C25.8794215,469.555243 162.633782,347.330609 179.983215,329.986546 C213.146452,292.854005 248.59453,257.825789 286.120928,225.105976 C299.388142,211.842868 367.765322,177.154742 352.252887,177.154742 C317.452247,171.591846 285.687363,154.054397 262.444054,127.571126 C233.664405,89.8222826 245.706953,40.2386666 252.442615,40.2386666 C259.178278,40.2386666 261.015277,75.1308408 286.52915,96.7599079 C308.644638,108.891339 333.191043,115.932303 358.376217,117.368736 C367.693633,117.345985 376.990933,118.234422 386.135311,120.021357 C394.095639,120.021357 373.276319,114.512067 360.417327,87.5777568 C344.904892,54.5220128 350.211777,0.245297358 364.295435,0.448771494 Z" id="Combined-Shape"></path>
            </g>
        </g>
        <text id="Cattle-integrated-he" font-family="Roboto-Black, Roboto" font-size="60" font-weight="700" fill="#1C2A40">
            <tspan x="3322" y="389">Cattle</tspan>
            <tspan x="3322" y="460"></tspan>
            <tspan x="3322" y="531" font-family="Roboto-Regular, Roboto" font-weight="normal">integrated here are cattle and cows of all </tspan>
            <tspan x="3322" y="602" font-family="Roboto-Regular, Roboto" font-weight="normal">ages, bred for meat production. </tspan>
            <tspan x="3322" y="673" font-family="Roboto-Regular, Roboto" font-weight="normal">Excluded are dairy cows.</tspan>
        </text>
        <text id="Pig-representing-por" font-family="Roboto-Black, Roboto" font-size="60" font-weight="700" fill="#37485E">
            <tspan x="1438" y="1514">Pig</tspan>
            <tspan x="1438" y="1585"> </tspan>
            <tspan x="1438" y="1656" font-family="Roboto-Regular, Roboto" font-weight="normal">representing pork.</tspan>
        </text>
        <text id="Chicken-used-as-an-u" font-family="Roboto-Black, Roboto" font-size="60" font-weight="700" fill="#5C697C">
            <tspan x="697" y="2855">Chicken</tspan>
            <tspan x="697" y="2926"></tspan>
            <tspan x="697" y="2997" font-family="Roboto-Regular, Roboto" font-weight="normal">used as an umbrella </tspan>
            <tspan x="697" y="3068" font-family="Roboto-Regular, Roboto" font-weight="normal">term for poultry. </tspan>
            <tspan x="697" y="3139" font-family="Roboto-Regular, Roboto" font-weight="normal">Included are chickens, </tspan>
            <tspan x="697" y="3210" font-family="Roboto-Regular, Roboto" font-weight="normal">ducks, turkeys and </tspan>
            <tspan x="697" y="3281" font-family="Roboto-Regular, Roboto" font-weight="normal">geese.</tspan>
            <tspan x="697" y="3352" font-family="Roboto-Regular, Roboto" font-weight="normal"></tspan>
        </text>
        <text id="Sheep-includes-goats" font-family="Roboto-Black, Roboto" font-size="60" font-weight="700" fill="#253854">
            <tspan x="2821" y="2855">Sheep</tspan>
            <tspan x="2821" y="2926" font-family="Roboto-Regular, Roboto" font-weight="normal"></tspan>
            <tspan x="2821" y="2997" font-family="Roboto-Regular, Roboto" font-weight="normal">includes goats and sheep of </tspan>
            <tspan x="2821" y="3068" font-family="Roboto-Regular, Roboto" font-weight="normal">all ages, as these are very </tspan>
            <tspan x="2821" y="3139" font-family="Roboto-Regular, Roboto" font-weight="normal">often combined in the </tspan>
            <tspan x="2821" y="3210" font-family="Roboto-Regular, Roboto" font-weight="normal">statistics.</tspan>
        </text>
    </g>
</svg>