<?xml version="1.0" encoding="utf-8"?>
<!-- Generator: Adobe Illustrator 24.2.1, SVG Export Plug-In . SVG Version: 6.00 Build 0)  -->
<svg version="1.1" id="Ebene_1" xmlns="http://www.w3.org/2000/svg" xmlns:xlink="http://www.w3.org/1999/xlink" x="0px" y="0px"
	 viewBox="0 0 1201.4 345.5" style="enable-background:new 0 0 1201.4 345.5;" xml:space="preserve">
<style type="text/css">
	.st0{fill:#FFFFFF;}
	.st1{fill:#FFFFFF;stroke:#FFFFFF;stroke-miterlimit:10;}
	.st2{fill:#FFFFFF;stroke:#FFFFFF;stroke-width:3.3656;stroke-miterlimit:10;}
	.st3{fill:#FFFFFF;stroke:#FFFFFF;stroke-width:2.9414;stroke-miterlimit:10;}
	.st4{fill:none;stroke:#FFFFFF;stroke-width:6.6037;stroke-miterlimit:10;}
	.st5{fill:#37485E;}
	.st6{fill:none;stroke:#37485E;stroke-width:5;stroke-miterlimit:10;}
	.st7{fill-rule:evenodd;clip-rule:evenodd;fill:none;stroke:#37485E;stroke-width:5;stroke-miterlimit:10;}
	.st8{fill:#37485E;stroke:#37485E;stroke-width:0.75;stroke-miterlimit:10;}
	.st9{fill-rule:evenodd;clip-rule:evenodd;fill:#37485E;}
	.st10{fill:#37485E;stroke:#37485E;stroke-miterlimit:10;}
	.st11{fill:#37485E;stroke:#FFFFFF;stroke-width:1.5;stroke-miterlimit:10;}
</style>
<path class="st5" d="M585.4,171.8c1.1,0.9,2.6,0.8,3.5-0.3c0.9-1,0.8-2.5-0.2-3.5c-2.3-2.1-4.8-7-3.5-10.1c0.4-0.8,0.9-1.6,1.4-2.4
	c2-3.1,4.4-6.9,0.6-15.5c-0.5-1.3-1.9-2-3.2-1.5s-2,1.9-1.5,3.2c0,0.1,0.1,0.2,0.1,0.2c2.7,6.2,1.5,8.1-0.2,10.8
	c-0.7,1-1.3,2-1.8,3.1C578.2,161.6,582,168.8,585.4,171.8z"/>
<path class="st5" d="M565.7,127.2c1,1,2.6,0.9,3.6-0.1c1-1,0.9-2.6-0.1-3.6c0,0-0.1-0.1-0.1-0.1c-2.3-2.1-4.8-7-3.5-10.1
	c0.4-0.8,0.9-1.6,1.4-2.4c2-3.1,4.4-6.9,0.6-15.5c-0.6-1.3-2.1-1.8-3.4-1.2c-1.2,0.6-1.8,2-1.3,3.2c2.7,6.2,1.5,8.1-0.2,10.8
	c-0.7,1-1.3,2-1.8,3.1C558.5,117,562.3,124.1,565.7,127.2z"/>
<path class="st5" d="M300.7,97c1,0.9,2.6,0.8,3.6-0.2c0.9-1,0.8-2.6-0.2-3.6c-2.3-2.1-4.8-7-3.5-10.1c0.4-0.8,0.9-1.6,1.4-2.4
	c2-3.1,4.4-6.9,0.6-15.5c-0.5-1.3-1.9-2-3.2-1.5c-1.3,0.5-2,1.9-1.5,3.2c0,0.1,0.1,0.2,0.1,0.2c2.7,6.2,1.5,8.1-0.2,10.8
	c-0.7,1-1.3,2-1.8,3.1C293.5,86.8,297.3,94,300.7,97z"/>
<path class="st5" d="M821.5,164.1c1,1,2.6,0.9,3.6-0.1c1-1,0.9-2.6-0.1-3.6c0,0-0.1-0.1-0.1-0.1c-2.3-2.1-4.8-7-3.5-10.1
	c0.4-0.8,0.9-1.6,1.4-2.4c2-3.1,4.4-6.9,0.6-15.5c-0.5-1.3-1.9-2-3.2-1.5s-2,1.9-1.5,3.2c0,0.1,0.1,0.2,0.1,0.2
	c2.7,6.2,1.5,8.1-0.2,10.8c-0.7,1-1.3,2-1.8,3.1C814.3,153.9,818.1,161.1,821.5,164.1z"/>
<path class="st5" d="M193.2,68.7c1,1,2.6,0.9,3.6-0.1c1-1,0.9-2.6-0.1-3.6c0,0-0.1-0.1-0.1-0.1c-2.3-2.1-4.8-7-3.5-10.1
	c0.4-0.8,0.9-1.6,1.4-2.4c2-3.1,4.4-6.9,0.6-15.5c-0.5-1.3-1.9-2-3.2-1.5c-1.3,0.5-2,1.9-1.5,3.2c0,0.1,0.1,0.2,0.1,0.2
	c2.7,6.2,1.5,8.1-0.2,10.8c-0.7,1-1.3,2-1.8,3.1C186,58.5,189.8,65.6,193.2,68.7z"/>
<path class="st5" d="M957.2,135.7c1,1,2.6,0.9,3.6-0.1c1-1,0.9-2.6-0.1-3.6c0,0-0.1-0.1-0.1-0.1c-2.3-2.1-4.8-7-3.5-10.1
	c0.4-0.8,0.9-1.6,1.4-2.4c2-3.1,4.4-6.9,0.6-15.5c-0.5-1.3-1.9-2-3.2-1.5s-2,1.9-1.5,3.2c0,0.1,0.1,0.2,0.1,0.2
	c2.7,6.2,1.5,8.1-0.2,10.8c-0.7,1-1.3,2-1.8,3.1C950,125.5,953.9,132.6,957.2,135.7z"/>
<path class="st5" d="M1104,160.2c1,1,2.6,0.9,3.6-0.1c1-1,0.9-2.6-0.1-3.6c0,0-0.1-0.1-0.1-0.1c-2.3-2.1-4.8-7-3.5-10.1
	c0.4-0.8,0.9-1.6,1.4-2.4c2-3.1,4.4-6.9,0.6-15.5c-0.5-1.3-1.9-2-3.2-1.5c-1.3,0.5-2,1.9-1.5,3.2c0,0.1,0.1,0.2,0.1,0.2
	c2.7,6.2,1.5,8.1-0.2,10.8c-0.7,1-1.3,2-1.8,3.1C1096.8,150,1100.7,157.1,1104,160.2z"/>
<path class="st5" d="M1030.9,176.4c-1-1-2.5-1.1-3.6-0.1c-1,1-1.1,2.5-0.1,3.6c0,0,0.1,0.1,0.1,0.1c2.2,2.2,4.4,7.3,2.9,10.3
	c-0.4,0.8-0.9,1.6-1.5,2.3c-2.1,2.9-4.8,6.6-1.5,15.5c0.4,1.3,1.8,2.1,3.2,1.6c1.3-0.4,2.1-1.8,1.6-3.2c0-0.1-0.1-0.2-0.1-0.2
	c-2.4-6.3-1-8.2,0.8-10.7c0.7-1,1.4-2,1.9-3C1037.5,186.9,1034.1,179.6,1030.9,176.4z"/>
<g id="Animals_314_">
	<g id="Artboard_360_" transform="translate(-3118.000000, -1138.000000)">
		<g id="noun_Factory_1474011_66_" transform="translate(3118.000000, 1138.000000)">
			<g id="Group_211_">
				<path id="Shape_222_" class="st5" d="M245.7,135.8h-49.2c-1.7,0-3.3,1.2-3.3,2.8l-4.8,89.1c0,0.9,0.2,1.6,1,2.3
					c0.6,0.5,1.5,0.9,2.5,0.9h58.8c1,0,1.7-0.4,2.3-0.9c0.6-0.5,1-1.4,1-2.3l-4.8-89.1C249,137.1,247.7,135.8,245.7,135.8z
					 M194.3,225.7l4.6-84.5h44.5l4.6,84.5H194.3z"/>
				<path class="st5" d="M199.1,119.4c5,3.9,9.3,3.9,12.5,3.4c2.9,2.3,6.7,3.7,10.6,3.7c5.2,0,10-2.3,13.1-6.2
					c8.1-1.1,14.1-7.3,14.1-14.9c0-8.3-7.5-15.2-16.6-15.1c-2.7-4.1-7.5-6.4-12.9-6.4c-6.7,0-12.7,3.9-15.2,9.6
					c-3.3,0.7-6.2,2.5-8.3,4.8c-2.7,2.8-3.9,6.6-3.7,10.3C193.3,112.6,195.6,116.7,199.1,119.4z M200.8,101.6
					c1.5-1.8,3.9-2.8,6.4-3.2c1.3-0.2,2.3-1.1,2.7-2.1c1.3-4.1,5.4-7.1,10-7.1c3.9,0,7.3,1.9,9.3,5.1c0.6,0.9,1.7,1.4,2.9,1.4h0.4
					c0.4,0,0.6,0,1,0c5.8,0,10.6,4.4,10.6,9.7c0,5.1-4.4,9.4-10,9.6c-1.2,0-2.1,0.5-2.7,1.4c-1.9,3-5.2,4.6-9.1,4.6
					c-2.9,0-5.6-1.1-7.5-3c-0.6-0.5-1.5-0.9-2.3-0.9c-0.4,0-0.6,0-1,0.2c-2.7,0.7-5.4,0.5-8.9-1.9c-2.3-1.8-3.9-4.4-4-7.1
					C198.5,105.7,199.3,103.4,200.8,101.6z"/>
				<path class="st5" d="M305.7,172.2c0-1.6-1.5-2.8-3.3-2.8h-30.7c-1.7,0-3.3,1.2-3.3,2.8l-3.1,55.6c0,0.9,0.4,1.6,1,2.3
					c0.6,0.5,1.5,0.9,2.3,0.9h36.6c1,0,1.7-0.4,2.5-0.9c0.6-0.5,1-1.4,1-2.3L305.7,172.2z M271.4,225.7l2.7-51h26l2.7,51H271.4z"/>
				<path class="st5" d="M272.2,160.5c3.5,2.7,6.4,3,8.7,2.7c1.9,1.4,4.4,2.3,6.9,2.3c3.5,0,6.7-1.4,8.9-4.1
					c5.4-0.9,9.4-5.1,9.4-10.3c0-5.7-4.8-10.3-11-10.5c-2.1-2.5-5.4-3.9-8.9-3.9c-4.4,0-8.5,2.5-10.2,6.2c-3.9,1.1-6.9,4.3-7.7,8
					C267.5,154.3,269.1,158,272.2,160.5z M273.9,151.8c0.4-2.1,2.3-3.7,4.4-4.1c1.2-0.2,2.3-1.1,2.5-2.1c0.8-2.1,2.9-3.7,5.2-3.7
					c1.9,0,3.9,1.1,4.8,2.7c0.6,0.9,1.7,1.4,2.9,1.4h0.2c0.2,0,0.4,0,0.4,0c3.1,0,5.6,2.3,5.6,5.1c0,2.7-2.3,5-5.2,5.1
					c-1,0-1.9,0.5-2.5,1.4c-1,1.6-2.7,2.5-4.6,2.5c-1.5,0-2.9-0.5-3.9-1.6c-0.6-0.5-1.5-0.9-2.3-0.9c-0.2,0-0.6,0-0.8,0.2
					c-1.3,0.4-2.5,0.5-4.8-1.2C274.5,155.1,273.7,153.4,273.9,151.8z"/>
				<path class="st5" d="M289.9,134c2.1,1.6,3.9,1.9,5.3,1.6c1.2,0.9,2.7,1.4,4.2,1.4c2.1,0,4.1-0.9,5.4-2.5
					c3.3-0.5,5.8-3.2,5.8-6.3c0-3.5-2.9-6.3-6.7-6.5c-1.3-1.5-3.3-2.4-5.4-2.4c-2.7,0-5.2,1.5-6.2,3.8c-2.3,0.7-4.2,2.6-4.7,4.9
					C287,130.2,288,132.5,289.9,134z M291.3,128.7c0.2-1.2,1.4-2.2,2.6-2.4c0.7-0.1,1.4-0.6,1.5-1.2c0.5-1.2,1.7-2.2,3.1-2.2
					c1.1,0,2.3,0.6,2.9,1.5c0.3,0.5,1,0.8,1.7,0.8h0.1c0.1,0,0.2,0,0.2,0c1.8,0,3.3,1.3,3.3,3c0,1.5-1.4,2.9-3.1,3
					c-0.6,0-1.1,0.3-1.5,0.8c-0.6,0.9-1.6,1.4-2.7,1.4c-0.9,0-1.7-0.3-2.3-0.9c-0.3-0.3-0.9-0.5-1.4-0.5c-0.1,0-0.3,0-0.5,0.1
					c-0.8,0.2-1.5,0.3-2.9-0.7C291.6,130.6,291.2,129.6,291.3,128.7z"/>
				<path class="st5" d="M237.5,84.6c3.5,2.7,6.4,3,8.7,2.7c1.9,1.4,4.4,2.3,6.9,2.3c3.5,0,6.7-1.4,8.9-4.1
					c5.4-0.9,9.4-5.1,9.4-10.3c0-5.7-4.8-10.3-11-10.5c-2.1-2.5-5.4-3.9-8.9-3.9c-4.4,0-8.5,2.5-10.2,6.2c-3.9,1.1-6.9,4.3-7.7,8
					C232.8,78.4,234.4,82.2,237.5,84.6z M239.2,76c0.4-2.1,2.3-3.7,4.4-4.1c1.2-0.2,2.3-1.1,2.5-2.1c0.8-2.1,2.9-3.7,5.2-3.7
					c1.9,0,3.9,1.1,4.8,2.7c0.6,0.9,1.7,1.4,2.9,1.4h0.2c0.2,0,0.4,0,0.4,0c3.1,0,5.6,2.3,5.6,5.1c0,2.7-2.3,5-5.2,5.1
					c-1,0-1.9,0.5-2.5,1.4c-1,1.6-2.7,2.5-4.6,2.5c-1.5,0-2.9-0.5-3.9-1.6c-0.6-0.5-1.5-0.9-2.3-0.9c-0.2,0-0.6,0-0.8,0.2
					c-1.3,0.4-2.5,0.5-4.8-1.2C239.8,79.3,239,77.5,239.2,76z"/>
			</g>
		</g>
	</g>
</g>
<g>
	<path class="st10" d="M699.4,194.3h-97.3v-61.6h97.3V194.3z M605.6,190.8h90.3v-54.6h-90.3V190.8z"/>
	<polygon class="st10" points="750,213.8 734.6,213.8 734.6,210.3 746.5,210.3 746.5,200.5 725.9,200.5 725.9,197 750,197 	"/>
	<rect x="639.4" y="210.3" class="st10" width="66.2" height="3.5"/>
	<rect x="630.7" y="197" class="st10" width="83.5" height="3.5"/>
	<polygon class="st10" points="610.4,213.8 602.1,213.8 602.1,197 619.1,197 619.1,200.5 605.6,200.5 605.6,210.3 610.4,210.3 	"/>
	<path class="st10" d="M750,200.5h-48.3v-57h29l19.3,36V200.5z M705.2,197h41.3v-16.7l-17.9-33.4h-23.5L705.2,197z"/>
	<path class="st10" d="M742.1,177.8h-30v-24h17.6L742.1,177.8z M715.6,174.3h20.9l-8.8-17.1h-12L715.6,174.3z"/>
	<path class="st10" d="M624.9,228.3c-9,0-16.2-7.3-16.2-16.3c0-9,7.3-16.2,16.3-16.2c8.9,0,16.2,7.3,16.2,16.2
		C641.2,221,634,228.3,624.9,228.3C625,228.3,624.9,228.3,624.9,228.3z M624.9,199.3c-7.1,0-12.7,5.8-12.7,12.8
		c0,7.1,5.8,12.7,12.8,12.7c7,0,12.7-5.7,12.7-12.8C637.8,205,632,199.3,624.9,199.3C625,199.3,624.9,199.3,624.9,199.3z"/>
	<path class="st10" d="M720.1,228.3c-9,0-16.2-7.3-16.2-16.2s7.3-16.2,16.2-16.2c9,0,16.2,7.3,16.2,16.2l0,0
		C736.3,221,729,228.3,720.1,228.3z M720.1,199.3c-7.1,0-12.8,5.7-12.8,12.8s5.7,12.8,12.8,12.8c7.1,0,12.8-5.7,12.8-12.8
		C732.8,205,727.1,199.3,720.1,199.3z"/>
</g>
<g>
	<path class="st5" d="M938.9,217.1l2.7,4c7.8-4.7,12.4-13.1,12.4-22.1v-18h-7.3v-38h-7.3v-30.9h-92.9V143h-7.3v38h-7.3v18
		c0,8.8,4.6,17.1,12.4,22.1l2.7-4c-6.3-4-10.2-10.7-10.2-18v-1.4h5.4c16.1,0,31.5-5,44.4-14l3.9-2.6v47.5h4.9V181l3.7,2.6
		c12.9,9.3,28.5,14,44.4,14h5.6v1.4C948.9,206.4,945,213,938.9,217.1z M851.3,116.9h82.9V143h-82.9V116.9z M941.6,147.7V181
		c-14.4-0.2-28.3-5-39.8-13.1l-9-6.4l-9,6.4c-11.5,8.1-25.4,12.6-39.8,13.1v-33.2H941.6z M883.7,179.8
		c-12.2,8.5-26.6,13.3-41.7,13.1h-5.4v-7.1h5.4c16.1,0,31.5-5,44.4-14l3.9-2.6v5.9L883.7,179.8z M943.5,192.8
		c-14.9,0-29.5-4.5-41.7-13.1l-6.6-4.7v-5.9l3.7,2.6c12.9,9.3,28.5,14,44.4,14h5.6v7.1H943.5z"/>
	<path class="st5" d="M956.7,231.8c-2,2.4-2.9,3.8-5.4,3.8c-2.4,0-3.4-1.4-5.4-3.8c-2-2.6-4.4-5.7-9.3-5.7s-7.3,3.1-9.3,5.7
		c-2,2.4-2.9,3.8-5.4,3.8c-2.4,0-3.4-1.4-5.4-3.8c-2-2.6-4.4-5.7-9.3-5.7s-7.3,3.1-9.3,5.7c-2,2.4-2.9,3.8-5.4,3.8
		c-2.4,0-3.4-1.4-5.4-3.8c-2-2.6-4.4-5.7-9.3-5.7s-7.3,3.1-9.3,5.7c-2,2.4-2.9,3.8-5.4,3.8c-2.4,0-3.4-1.4-5.4-3.8
		c-2-2.6-4.4-5.7-9.3-5.7c-4.9,0-7.3,3.1-9.3,5.7c-2,2.4-3.2,3.8-5.4,3.8c-2.4,0-3.4-1.4-5.4-3.8c-2-2.6-4.4-5.7-9.3-5.7v4.7
		c2.4,0,3.4,1.4,5.4,3.8c2,2.6,4.4,5.7,9.3,5.7s7.3-3.1,9.3-5.7c2-2.4,2.9-3.8,5.4-3.8c2.4,0,3.4,1.4,5.4,3.8c2,2.6,4.4,5.7,9.3,5.7
		s7.3-3.1,9.3-5.7c2-2.4,2.9-3.8,5.4-3.8c2.4,0,3.4,1.4,5.4,3.8c2,2.6,4.4,5.7,9.3,5.7s7.3-3.1,9.3-5.7c2-2.4,2.9-3.8,5.4-3.8
		c2.4,0,3.4,1.4,5.4,3.8c2,2.6,4.4,5.7,9.3,5.7s7.3-3.1,9.3-5.7c2-2.4,2.9-3.8,5.4-3.8c2.4,0,3.4,1.4,5.4,3.8c2,2.6,4.4,5.7,9.3,5.7
		c4.9,0,7.3-3.1,9.3-5.7c2-2.4,2.9-3.8,5.4-3.8v-4.7C961.1,226.1,958.6,229.2,956.7,231.8z"/>
</g>
<path class="st5" d="M1185.7,157.7c0.6-2.6,0.7-5.3,0.4-8c-0.4-4.2-2.9-7.9-6.6-9.8c-4.3-2.2-9.9-1.6-15.7,1.5
	c-0.1,0-0.1,0.1-0.2,0.1c-5,2.9-9.3,6.8-12.6,11.5l-15.2,21.2l-60.4-13.3c-10.7-2.6-20.8,1.4-25.1,9.9c-1.9,3.7-0.5,8.3,3.2,10.3
	l55.6,30.2l-4.6,6.4c-4.6,6.4-8.9,13-12.9,19.7l-25.7,0c-1.5,0-2.8,1.1-3,2.6l-1.9,12.1c-0.2,1.5,0.7,3,2.2,3.4l16.1,4.7
	c-3.3,6.5-6.3,13-9.2,19.4c-1.4,3.3,0,7.1,3.3,8.5c2.3,1,4.9,0.6,6.8-1c5.3-4.6,10.7-9.4,15.9-14.4l9.2,14.1
	c0.8,1.3,2.5,1.8,3.9,1.1l11-5.3c1.4-0.7,2.1-2.2,1.6-3.7l-7.4-24.6c5.2-5.6,10.2-11.6,14.9-17.7l5-6.5l44.9,44.6
	c3,3,7.8,3,10.8,0.1c7-6.6,7.9-17.4,2.3-26.8l-30.1-54.1l15.9-20.6C1181.8,168.8,1184.4,163.4,1185.7,157.7z M1056.4,175.9
	c-0.8-0.4-1.1-1.4-0.7-2.1c3.7-7.3,12.1-8.2,18.2-6.7l57.9,12.7l-19.2,26.7L1056.4,175.9z M1187,251.2c3.2,5.4,4.7,13.7-1.2,19.3
	c-0.6,0.6-1.6,0.6-2.2,0l-45.5-45.1l20.1-26L1187,251.2z M1124.4,233c-4.9,6.4-10.2,12.6-15.6,18.4c-0.7,0.7-1.1,1.7-1,2.7
	c0,0.2,0.1,0.3,0.1,0.5l7.1,23.8l-6.2,3l-9.7-14.9c-0.9-1.4-2.8-1.8-4.3-0.9c-0.2,0.1-0.3,0.2-0.5,0.4c-6,5.8-12.2,11.4-18.4,16.7
	c-0.1,0.1-0.3,0.1-0.4-0.1c-0.1-0.1-0.1-0.2,0-0.3c3.3-7.4,6.9-15,10.7-22.4c0.8-1.5,0.2-3.4-1.3-4.2c-0.2-0.1-0.4-0.2-0.5-0.2
	l-17.1-5l1.1-6.8l24.7,0l0.1,0c1.4,0,2.6-0.9,3-2.2c4-6.8,8.4-13.6,13.1-20.1l46.6-64.8c2.8-4,6.5-7.4,10.7-9.8
	c0.1,0,0.1-0.1,0.2-0.1c3.8-2,7.4-2.5,9.8-1.3c1.9,1.1,3.1,3,3.2,5.2c0.2,1.9,0.1,3.9-0.3,5.8c-1.1,4.8-3.3,9.3-6.3,13.1L1124.4,233
	z"/>
<g>
	<g>
		<path class="st5" d="M114.9,187.6c-0.8,0.9-1.7,1.8-2.6,2.8c-2.3,2.5-4.6,5-6.9,7.5c-3.4,3.7-6.8,7.5-10.3,11.2
			c-4.2,4.5-8.3,9.1-12.5,13.6c-4.6,5-9.1,10-13.7,15c-4.6,5-9.2,10-13.8,15c-4.3,4.7-8.6,9.4-12.9,14.1c-3.6,4-7.3,7.9-10.9,11.9
			c-2.6,2.8-5.2,5.7-7.8,8.5c-1.2,1.3-2.5,2.7-3.7,4.1c-0.1,0.1-0.1,0.1-0.2,0.2c1.7,1,3.4,1.9,5,2.9c0.6-2.6,1.3-5.2,1.9-7.8
			c1.5-6.2,3-12.4,4.6-18.5c1.8-7.5,3.7-14.9,5.5-22.4c1.6-6.5,3.2-13,4.8-19.5c0.8-3.1,1.6-6.3,2.3-9.4c0,0,0-0.1,0-0.1
			c0.5-1.9-0.9-3.8-2.9-3.8c-9,0-18,0-27.1,0c-1.3,0-2.6,0-3.9,0c1,1.3,1.9,2.6,2.9,3.8c0.5-3,1-5.9,1.6-8.8
			c1.3-7.1,2.5-14.2,3.8-21.4c1.5-8.6,3-17.2,4.6-25.7c1.3-7.4,2.6-14.8,3.9-22.3c0.4-2.5,0.9-4.9,1.3-7.3c0.2-1.2,0.5-2.3,0.6-3.5
			c0-0.1,0-0.1,0-0.2c-1,0.7-1.9,1.5-2.9,2.2c7.1,0,14.3,0,21.4,0c11.4,0,22.8,0,34.1,0c2.6,0,5.2,0,7.8,0c-1-1.3-1.9-2.6-2.9-3.8
			c-2.2,7.2-4.3,14.3-6.5,21.4c-3.4,11.3-6.8,22.6-10.3,33.9c-0.8,2.6-1.6,5.2-2.4,7.8c-0.6,1.9,1,3.8,2.9,3.8c5.3,0,10.6,0,15.9,0
			c8.4,0,16.9,0,25.3,0c1.9,0,3.9,0,5.8,0c1.6,0,3.1-1.4,3-3c-0.1-1.6-1.3-3-3-3c-5.3,0-10.6,0-15.9,0c-8.4,0-16.9,0-25.3,0
			c-1.9,0-3.9,0-5.8,0c1,1.3,1.9,2.6,2.9,3.8c2.2-7.2,4.3-14.3,6.5-21.4c3.4-11.3,6.8-22.6,10.3-33.9c0.8-2.6,1.6-5.2,2.4-7.8
			c0.6-1.9-1-3.8-2.9-3.8c-7.1,0-14.3,0-21.4,0c-11.4,0-22.8,0-34.1,0c-2.6,0-5.2,0-7.8,0c-1.2,0-2.7,0.9-2.9,2.2
			c-0.5,3-1,5.9-1.6,8.8c-1.3,7.1-2.5,14.2-3.8,21.4c-1.5,8.6-3,17.2-4.6,25.7c-1.3,7.4-2.6,14.8-3.9,22.3
			c-0.6,3.6-1.3,7.2-1.9,10.8c0,0.1,0,0.1,0,0.2c-0.3,1.9,0.8,3.8,2.9,3.8c9,0,18,0,27.1,0c1.3,0,2.6,0,3.9,0
			c-1-1.3-1.9-2.6-2.9-3.8c-0.6,2.6-1.3,5.2-1.9,7.8c-1.5,6.2-3,12.4-4.6,18.5c-1.8,7.5-3.7,14.9-5.5,22.4c-1.6,6.5-3.2,13-4.8,19.5
			c-0.8,3.1-1.6,6.3-2.3,9.4c0,0,0,0.1,0,0.1c-0.7,2.8,2.9,5.2,5,2.9c0.8-0.9,1.7-1.8,2.6-2.8c2.3-2.5,4.6-5,6.9-7.5
			c3.4-3.7,6.8-7.5,10.3-11.2c4.2-4.5,8.3-9.1,12.5-13.6c4.6-5,9.1-10,13.7-15c4.6-5,9.2-10,13.8-15c4.3-4.7,8.6-9.4,12.9-14.1
			c3.6-4,7.3-7.9,10.9-11.9c2.6-2.8,5.2-5.7,7.8-8.5c1.2-1.3,2.5-2.7,3.7-4.1c0.1-0.1,0.1-0.1,0.2-0.2c1.1-1.2,1.2-3.1,0-4.3
			C118,186.5,116,186.4,114.9,187.6z"/>
	</g>
</g>
<g>
	<path class="st5" d="M458.9,173.5c-6,0-11.2-2.3-15.7-6.7c-8.9-8.8-12.9-25.2-12.9-36.7c0-1.3,1.1-2.4,2.4-2.4
		c1.3,0,2.4,1.1,2.4,2.4c0,10.8,4,25.7,11.5,33.2c3.5,3.5,7.7,5.3,12.3,5.3c0,0,0.1,0,0.1,0c17.9-0.2,23.9-26.5,23.9-38.5
		c0-1.3,1.1-2.4,2.4-2.4s2.4,1.1,2.4,2.4C487.8,144.2,480.7,173.3,458.9,173.5C459,173.5,459,173.5,458.9,173.5z"/>
	<path class="st5" d="M406.4,228.4c-1.3,0-2.4-1.1-2.4-2.4c0-15.5,4-29.6,11.1-38.7c3.9-5.2,9.8-6,14.9-6.7
		c4.3-0.6,8.3-1.1,11.2-3.9c2.1-2,1.8-6.3,1.6-11.3c-0.1-1.3,0.9-2.5,2.3-2.6c1.4-0.1,2.5,0.9,2.6,2.3c0.3,5.9,0.7,11.4-3,15
		c-4,3.9-9.3,4.6-13.9,5.2c-4.8,0.7-9,1.2-11.7,4.8c-6.4,8.3-10.1,21.4-10.1,35.8C408.8,227.3,407.7,228.4,406.4,228.4z"/>
	<path class="st5" d="M511.7,228.4c-1.3,0-2.4-1.1-2.4-2.4c0-14.4-3.7-27.4-10.1-35.8c-2.7-3.6-6.9-4.2-11.7-4.8
		c-4.6-0.6-9.8-1.3-13.8-5.2c-3.6-3.5-3.5-8.7-3-15.2c0.1-1.3,1.3-2.4,2.6-2.2c1.3,0.1,2.3,1.3,2.2,2.6c-0.4,5.2-0.5,9.4,1.6,11.4
		c2.8,2.8,6.9,3.3,11.1,3.9c5.2,0.7,11,1.5,14.9,6.7c7.1,9.1,11.1,23.3,11.1,38.7C514.2,227.3,513.1,228.4,511.7,228.4z"/>
	<path class="st5" d="M511.7,228.4H406.4c-1.3,0-2.4-1.1-2.4-2.4s1.1-2.4,2.4-2.4h105.3c1.3,0,2.4,1.1,2.4,2.4
		S513.1,228.4,511.7,228.4z"/>
	<path class="st5" d="M432.7,132.6c-0.9,0-1.8-0.5-2.2-1.4c-0.5-1.2,0-2.7,1.2-3.2c17.4-7.7,37.3-7.7,54.6,0c1.2,0.5,1.8,2,1.2,3.2
		c-0.5,1.2-2,1.8-3.2,1.2c-16.1-7.1-34.5-7.1-50.7,0C433.4,132.5,433,132.6,432.7,132.6z"/>
	<path class="st5" d="M434.1,228.4c-0.1,0-0.1,0-0.2,0c-1.3-0.1-2.3-1.3-2.2-2.6c1-12.1,4.1-22.8,9.3-31.8c0.6-1.1,1.9-1.5,3.1-1
		c9.6,4.2,20.5,4.2,30.1,0c1.2-0.5,2.7,0,3.2,1.3c0.5,1.2,0,2.7-1.3,3.2c-10.1,4.4-21.6,4.7-31.9,0.8c-4.2,8-6.8,17.4-7.6,28
		C436.4,227.4,435.3,228.4,434.1,228.4z"/>
	<path class="st5" d="M484,228.4c-1.2,0-2.3-1-2.4-2.2c-1-11.4-3.9-21.4-8.7-29.8c-0.7-1.2-0.3-2.6,0.9-3.3c1.2-0.7,2.6-0.3,3.3,0.9
		c5.1,9,8.3,19.7,9.3,31.8c0.1,1.3-0.9,2.5-2.2,2.6C484.1,228.4,484.1,228.4,484,228.4z"/>
	<path class="st5" d="M443.1,197.5c-1,0-2-0.7-2.3-1.7c-2.4-7.4-3.6-11.9-4.1-14.4c-0.2-1.3,0.6-2.6,1.9-2.8
		c1.3-0.3,2.6,0.6,2.8,1.9c0.4,2.3,1.7,6.6,4,13.9c0.4,1.3-0.3,2.6-1.6,3C443.6,197.5,443.3,197.5,443.1,197.5z"/>
	<path class="st5" d="M475.1,197.5c-0.2,0-0.5,0-0.7-0.1c-1.3-0.4-2-1.8-1.6-3c2.6-8.1,3.5-12,3.9-13.9c0.2-1.3,1.5-2.2,2.8-1.9
		c1.3,0.2,2.2,1.5,1.9,2.8c-0.5,2.8-1.9,7.8-4,14.4C477,196.9,476.1,197.5,475.1,197.5z"/>
	<path class="st5" d="M482.5,94.1c-0.3,0-0.7-0.1-1-0.2c-14.2-6.3-30.6-6.3-44.8,0c-1.2,0.5-2.7,0-3.2-1.2c-0.5-1.2,0-2.7,1.2-3.2
		c15.5-6.9,33.3-6.8,48.8,0c1.2,0.5,1.8,2,1.2,3.2C484.3,93.5,483.4,94.1,482.5,94.1z"/>
	<path class="st5" d="M432.7,132.6c-1.3,0-2.4-1.1-2.4-2.4c-0.1-15,0.9-28.2,3-39c0.3-1.3,1.5-2.2,2.8-1.9c1.3,0.3,2.2,1.5,1.9,2.8
		c-2,10.5-3,23.3-2.9,38C435.1,131.5,434.1,132.5,432.7,132.6C432.7,132.6,432.7,132.6,432.7,132.6z"/>
	<path class="st5" d="M485.3,132.6C485.3,132.6,485.3,132.6,485.3,132.6c-1.4,0-2.4-1.1-2.4-2.5c0.2-14.6-0.8-27.4-2.8-38
		c-0.3-1.3,0.6-2.6,1.9-2.8c1.3-0.2,2.6,0.6,2.8,1.9c2.1,10.9,3.1,24.1,2.9,39C487.7,131.5,486.7,132.6,485.3,132.6z"/>
	<path class="st5" d="M459,103.2c-0.6,0-1.2-0.2-1.7-0.7c-3.7-3.6-6.2-8.5-7.7-14.9c-0.3-1.3,0.5-2.6,1.8-2.9
		c1.3-0.3,2.6,0.5,2.9,1.8c1.2,5.5,3.3,9.6,6.3,12.5c1,0.9,1,2.5,0,3.4C460.3,103,459.6,103.2,459,103.2z"/>
	<path class="st5" d="M459,103.2c-0.6,0-1.3-0.2-1.7-0.7c-0.9-1-0.9-2.5,0-3.4c3.1-3,5.2-7.1,6.4-12.5c0.3-1.3,1.6-2.1,2.9-1.8
		c1.3,0.3,2.1,1.6,1.8,2.9c-1.4,6.3-4,11.3-7.7,14.9C460.2,103,459.6,103.2,459,103.2z"/>
	<path class="st5" d="M504.3,180.7c-0.4,0-0.9-0.1-1.3-0.3L480.9,167c-0.6-0.4-1-1-1.1-1.7c-0.1-0.7,0.1-1.4,0.5-2
		c4.9-5.9,9.5-12.3,13.5-19c4.2-6.9,7.6-13.9,10.3-20.8c0.3-0.7,0.8-1.2,1.5-1.4c0.7-0.2,1.4-0.2,2,0.2l22.3,13.3c1,0.6,1.5,1.9,1,3
		c-3,7.6-6.6,14.8-10.7,21.6c-4.1,6.8-8.8,13.4-14,19.6C505.7,180.5,505,180.7,504.3,180.7z M485.8,164.3l18,10.9
		c4.6-5.6,8.7-11.4,12.3-17.4c3.6-5.9,6.8-12.3,9.6-19L507.6,128c-2.6,6.3-5.9,12.6-9.6,18.9C494.3,153,490.2,158.8,485.8,164.3z"/>
	<path class="st5" d="M510.5,156.8c-0.4,0-0.9-0.1-1.3-0.3c-1.1-0.7-1.5-2.2-0.8-3.3c3.9-6.5,7.4-13.5,10.3-20.9
		c0.5-1.2,1.9-1.9,3.2-1.4c1.2,0.5,1.9,1.9,1.4,3.2c-3,7.6-6.6,14.8-10.7,21.6C512.1,156.4,511.3,156.8,510.5,156.8z"/>
	<path class="st5" d="M484.6,176.6c-0.4,0-0.9-0.1-1.3-0.4c-1.1-0.7-1.5-2.2-0.8-3.3c1.8-2.9,3.9-4.8,6.4-5.7
		c1.3-0.5,2.7,0.2,3.1,1.4c0.5,1.3-0.2,2.7-1.4,3.1c-1.5,0.5-2.8,1.8-4,3.7C486.2,176.2,485.4,176.6,484.6,176.6z M479.2,172.3
		c-0.4,0-0.9-0.1-1.2-0.3c-1.1-0.7-1.5-2.2-0.8-3.3l3-4.9c0.7-1.2,2.2-1.5,3.3-0.8c1.2,0.7,1.5,2.2,0.8,3.3l-3,4.9
		C480.8,171.9,480,172.3,479.2,172.3z"/>
	<path class="st5" d="M425,178.9c-0.6,0-1.2-0.2-1.7-0.6c-2.8-2.6-5.1-5.7-7.6-9.1c-4.1-5.4-8.3-11-14.3-14
		c-8.3-4-10.3-9.8-10.5-13.9c-0.4-7.2,4.4-14.1,9.3-17c8.3-5.1,20.9-1.2,28.2,8.5c0.8,1.1,0.6,2.6-0.5,3.4c-1.1,0.8-2.6,0.6-3.4-0.5
		c-5.8-7.8-15.6-11.1-21.8-7.3c-3.6,2.2-7.2,7.6-7,12.7c0.2,4.1,2.8,7.4,7.7,9.8c7.1,3.4,11.8,9.8,16.1,15.4
		c2.4,3.2,4.6,6.1,7.1,8.4c1,0.9,1,2.5,0.1,3.4C426.3,178.7,425.6,178.9,425,178.9z"/>
	<path class="st5" d="M415,147.6c-2.2,0-4.7-1.2-6.8-3.4c-2-2-3.2-4.6-3.2-6.8c0-1.5,0.5-2.8,1.5-3.7c2.5-2.3,6.9-1.4,10.3,2.1l0,0
		c2,2.1,3.2,4.7,3.1,6.9c0,1.4-0.6,2.7-1.5,3.6C417.6,147.2,416.3,147.6,415,147.6z M409.9,137.3c-0.1,0-0.1,0-0.2,0
		c0,0.2,0.3,1.9,1.9,3.5c1.7,1.7,3.2,2,3.6,1.9c0.1-0.3-0.2-1.9-1.8-3.5l0,0C411.9,137.8,410.5,137.3,409.9,137.3z"/>
	<path class="st5" d="M418.3,182.1c-0.7,0-1.3-0.3-1.8-0.8c-2-2.2-3.9-4.7-5.8-7.3c-4.1-5.4-8.3-11.1-14.3-14
		c-6.7-3.3-8.7-8.3-9.2-11.9c-1-7.4,3.3-15,7.8-18.9c1-0.9,2.5-0.8,3.4,0.2c0.9,1,0.8,2.5-0.2,3.4c-3.5,3.1-6.9,9.2-6.2,14.6
		c0.5,3.5,2.7,6.3,6.5,8.2c7.1,3.4,11.9,9.8,16.1,15.4c1.9,2.5,3.7,4.9,5.5,6.9c0.9,1,0.9,2.5-0.1,3.4
		C419.5,181.9,418.9,182.1,418.3,182.1z"/>
	<path class="st5" d="M425,228.4c-1.3,0-2.4-1.1-2.4-2.4v-9.8c0-1.3,1.1-2.4,2.4-2.4s2.4,1.1,2.4,2.4v9.8
		C427.4,227.3,426.3,228.4,425,228.4z"/>
	<path class="st5" d="M493.1,228.4c-1.3,0-2.4-1.1-2.4-2.4v-9.8c0-1.3,1.1-2.4,2.4-2.4s2.4,1.1,2.4,2.4v9.8
		C495.6,227.3,494.5,228.4,493.1,228.4z"/>
</g>
<line class="st6" x1="84.1" y1="228.6" x2="820.8" y2="228.6"/>
<line class="st6" x1="966" y1="228.5" x2="1103.4" y2="228.5"/>
</svg>
