<?xml version="1.0" encoding="utf-8"?>
<!-- Generator: Adobe Illustrator 23.1.1, SVG Export Plug-In . SVG Version: 6.00 Build 0)  -->
<svg version="1.1" id="Ebene_1" xmlns="http://www.w3.org/2000/svg" xmlns:xlink="http://www.w3.org/1999/xlink" x="0px" y="0px"
	 viewBox="0 0 1366 276" style="enable-background:new 0 0 1366 276;" xml:space="preserve">
<style type="text/css">
	.st0{fill:#5C6A7D;}
	.st1{fill:#36485E;}
	.st2{fill-rule:evenodd;clip-rule:evenodd;fill:#253854;}
	.st3{fill-rule:evenodd;clip-rule:evenodd;fill:#1C2A40;}
	.st4{opacity:0.1;fill:#5C6A7D;}
	.st5{stroke:#FFFFFF;stroke-width:1.1226;stroke-miterlimit:10;}
	.st6{stroke:#FFFFFF;stroke-width:2;}
	.st7{fill:none;stroke:#000000;stroke-width:2.2451;}
	.st8{stroke:#FFFFFF;stroke-width:2.2451;}
	.st9{stroke:#FFFFFF;stroke-width:0.3996;}
	.st10{stroke:#000000;stroke-width:2;stroke-miterlimit:10;}
	.st11{fill:none;stroke:#000000;stroke-width:1.5576;stroke-miterlimit:10;}
	.st12{fill:none;stroke:#000000;stroke-width:2.4921;stroke-miterlimit:10;}
	.st13{fill:#FFFFFF;}
	.st14{fill:none;stroke:#000000;stroke-width:2;stroke-miterlimit:10;}
	.st15{stroke:#FFFFFF;stroke-width:0.8419;stroke-miterlimit:10;}
	.st16{stroke:#FFFFFF;stroke-width:0.9022;stroke-miterlimit:10;}
	.st17{fill:#1C2A40;}
	.st18{fill:#1C2A40;stroke:#FFFFFF;stroke-width:0.75;stroke-miterlimit:10;}
	.st19{stroke:#FFFFFF;stroke-width:1.8698;}
	.st20{fill:none;stroke:#1C2A40;stroke-width:2.2451;stroke-miterlimit:10;}
	.st21{fill:#37485E;}
	.st22{fill:#253854;}
	.st23{opacity:0.7;}
	.st24{fill:none;stroke:#1C2A40;stroke-width:0.293;stroke-linecap:round;stroke-linejoin:round;}
	.st25{fill:none;stroke:#1C2A40;stroke-width:0.2791;}
	.st26{opacity:0.8;}
	.st27{fill:none;stroke:#1C2A40;stroke-width:0.2707;stroke-linecap:round;stroke-linejoin:round;}
	.st28{fill:none;stroke:#1C2A40;stroke-width:0.2579;}
	.st29{opacity:0.9;}
	.st30{fill:none;stroke:#1C2A40;stroke-width:0.2637;stroke-linecap:round;stroke-linejoin:round;}
	.st31{fill:none;stroke:#1C2A40;stroke-width:0.2512;}
	.st32{fill:none;stroke:#1C2A40;stroke-width:0.2822;stroke-miterlimit:10;}
	.st33{fill-rule:evenodd;clip-rule:evenodd;fill:#5C6A7D;}
	.st34{fill-rule:evenodd;clip-rule:evenodd;fill:#36485E;}
	.st35{fill:#38485E;}
	.st36{fill:#FFFFFF;stroke:#FFFFFF;stroke-miterlimit:10;}
	.st37{fill:#FFFFFF;stroke:#FFFFFF;stroke-width:3.3656;stroke-miterlimit:10;}
	.st38{fill:#FFFFFF;stroke:#FFFFFF;stroke-width:2.9414;stroke-miterlimit:10;}
	.st39{fill:none;stroke:#FFFFFF;stroke-width:6.6037;stroke-miterlimit:10;}
	.st40{fill:#5C6A7D;stroke:#FFFFFF;stroke-width:1.8473;stroke-miterlimit:10;}
	.st41{fill:#5C6A7D;stroke:#FFFFFF;stroke-width:0.9375;stroke-miterlimit:10;}
	.st42{fill-rule:evenodd;clip-rule:evenodd;fill:#5C6A7D;stroke:#FFFFFF;stroke-width:2;stroke-miterlimit:10;}
</style>
<path class="st40" d="M1027.9,73.4c1.3-3.5,2.1-7.2,2.1-11c0.3-5.8-2.4-11.4-7.1-14.9c-5.5-3.9-13.3-4.2-21.9-1.1
	c-0.1,0-0.2,0.1-0.3,0.1c-7.5,3-14.2,7.5-19.7,13.3l-25.3,26.2l-80.7-30.5c-14.3-5.8-29-2.3-36.6,8.6c-3.4,4.8-2.3,11.4,2.4,14.9
	l70.5,52.9l-7.6,7.9c-7.6,7.9-15,16.2-21.8,24.6l-35.4-5.2c-2.1-0.3-4.1,1-4.7,3l-5.1,16.3c-0.6,2.1,0.3,4.3,2.3,5.2l21.2,9.8
	c-5.8,8.3-11.4,16.6-16.6,24.9c-2.6,4.2-1.4,9.7,2.8,12.4c2.9,1.8,6.7,1.8,9.6,0c8.3-5.3,16.6-10.8,24.9-16.6l9.8,21.3
	c0.9,2,3.1,3,5.2,2.3l16.3-5.1c2-0.6,3.3-2.6,3-4.7l-5.2-35.5c8.3-6.7,16.4-13.9,24.2-21.4l8.3-8l52.9,70.6
	c3.5,4.7,10.1,5.8,14.9,2.4c10.9-7.6,14.4-22.4,8.7-36.5l-30.5-80.8l26.1-25.3C1020.3,87.8,1024.9,81,1027.9,73.4z M845.8,72.2
	c-1-0.7-1.2-2.1-0.5-3.1c6.5-9.3,18.3-8.8,26.5-5.5l77.3,29.2l-31.9,32.9L845.8,72.2z M1010.7,202.6c3.3,8.1,3.8,19.8-5.6,26.4
	c-1,0.7-2.4,0.5-3.1-0.5L948.5,157l33-31.8L1010.7,202.6z M928,164.9c-8.1,7.8-16.6,15.3-25.3,22.2c-1.2,0.8-1.9,2.1-1.9,3.6
	c0,0.2,0,0.4,0.1,0.7l5,34.3l-9.2,2.9l-10.4-22.5c-1-2.2-3.6-3.1-5.7-2.1c-0.2,0.1-0.5,0.2-0.7,0.4c-9.5,6.8-19.1,13.3-28.7,19.4
	c-0.2,0.1-0.4,0-0.5-0.2c-0.1-0.1-0.1-0.3,0-0.4c6.1-9.6,12.6-19.2,19.4-28.7c1.4-1.9,0.9-4.6-1-6c-0.2-0.2-0.5-0.3-0.7-0.4
	l-22.5-10.4l2.9-9.2l34.1,5l0.1,0c1.9,0.3,3.8-0.7,4.6-2.4c6.9-8.6,14.4-17,22.2-25.1l77.4-79.9c4.7-5,10.4-8.9,16.8-11.3
	c0.1,0,0.2-0.1,0.3-0.1c5.7-2,10.7-2,13.8,0.2c2.4,1.9,3.6,4.8,3.4,7.8c-0.1,2.7-0.6,5.4-1.6,8c-2.5,6.4-6.4,12.1-11.4,16.8
	L928,164.9z"/>
<g id="Animals_26_">
	<g id="Artboard_22_" transform="translate(-3118.000000, -1138.000000)">
		<g id="noun_Factory_1474011_1_" transform="translate(3118.000000, 1138.000000)">
			<g id="Group_10_">
				<path id="Shape_13_" class="st41" d="M448.2,124.9h-61.3c-2.2,0-4.1,1.5-4.1,3.5l-6,111.2c0,1.1,0.2,2,1.2,2.9
					c0.7,0.7,1.9,1.1,3.1,1.1h73.4c1.2,0,2.2-0.4,2.9-1.1c0.7-0.7,1.2-1.8,1.2-2.9l-6-111.2C452.3,126.5,450.6,124.9,448.2,124.9z
					 M383.9,237l5.8-105.4h55.6l5.8,105.4H383.9z"/>
				<path class="st41" d="M390,104.4c6.3,4.9,11.5,4.9,15.6,4.2c3.6,2.9,8.4,4.6,13.2,4.6c6.5,0,12.5-2.9,16.4-7.7
					c10.1-1.3,17.6-9.1,17.6-18.6c0-10.4-9.4-19-20.7-18.8c-3.4-5.1-9.4-8-16.1-8c-8.4,0-15.9,4.9-19,11.9c-4.1,0.9-7.7,3.1-10.3,6
					c-3.4,3.5-4.8,8.2-4.6,12.8C382.7,96,385.6,101.1,390,104.4z M392.1,82.3c1.9-2.2,4.8-3.5,7.9-4c1.7-0.2,2.9-1.3,3.4-2.7
					c1.7-5.1,6.7-8.8,12.5-8.8c4.8,0,9.1,2.4,11.5,6.4c0.7,1.1,2.2,1.8,3.6,1.8h0.5c0.5,0,0.7,0,1.2,0c7.2,0,13.2,5.5,13.2,12.2
					c0,6.4-5.5,11.7-12.5,11.9c-1.4,0-2.6,0.7-3.4,1.8c-2.4,3.8-6.5,5.7-11.3,5.7c-3.6,0-7-1.3-9.4-3.8c-0.7-0.7-1.9-1.1-2.9-1.1
					c-0.5,0-0.7,0-1.2,0.2c-3.4,0.9-6.7,0.7-11.1-2.4c-2.9-2.2-4.8-5.5-5.1-8.8C389.2,87.4,390.2,84.5,392.1,82.3z"/>
				<path class="st41" d="M523,170.3c0-2-1.9-3.5-4.1-3.5h-38.2c-2.2,0-4.1,1.5-4.1,3.5l-3.8,69.4c0,1.1,0.5,2,1.2,2.9
					c0.7,0.7,1.9,1.1,2.9,1.1h45.7c1.2,0,2.2-0.4,3.1-1.1c0.7-0.7,1.2-1.8,1.2-2.9L523,170.3z M480.2,237l3.4-63.7H516l3.4,63.7
					H480.2z"/>
				<path class="st41" d="M481.1,155.7c4.3,3.3,7.9,3.8,10.8,3.3c2.4,1.8,5.5,2.9,8.7,2.9c4.3,0,8.4-1.8,11.1-5.1
					c6.7-1.1,11.8-6.4,11.8-12.8c0-7.1-6-12.8-13.7-13c-2.6-3.1-6.7-4.9-11.1-4.9c-5.5,0-10.6,3.1-12.7,7.7
					c-4.8,1.3-8.7,5.3-9.6,9.9C475.4,147.9,477.3,152.6,481.1,155.7z M483.3,144.8c0.5-2.7,2.9-4.6,5.5-5.1c1.4-0.2,2.9-1.3,3.1-2.7
					c1-2.7,3.6-4.6,6.5-4.6c2.4,0,4.8,1.3,6,3.3c0.7,1.1,2.2,1.8,3.6,1.8h0.2c0.2,0,0.5,0,0.5,0c3.8,0,7,2.9,7,6.4
					c0,3.3-2.9,6.2-6.5,6.4c-1.2,0-2.4,0.7-3.1,1.8c-1.2,2-3.4,3.1-5.8,3.1c-1.9,0-3.6-0.7-4.8-2c-0.7-0.7-1.9-1.1-2.9-1.1
					c-0.2,0-0.7,0-1,0.2c-1.7,0.4-3.1,0.7-6-1.5C484,149,483.1,146.8,483.3,144.8z"/>
				<path class="st41" d="M503.2,122.7c2.6,2,4.8,2.3,6.6,2c1.5,1.1,3.4,1.8,5.3,1.8c2.6,0,5.1-1.1,6.7-3.1c4.1-0.7,7.2-4,7.2-7.9
					c0-4.4-3.7-7.9-8.4-8c-1.6-1.9-4.1-3-6.7-3c-3.4,0-6.4,1.9-7.8,4.8c-2.9,0.8-5.3,3.3-5.9,6.1
					C499.7,117.9,500.9,120.8,503.2,122.7z M505,116c0.3-1.5,1.7-2.7,3.3-3c0.9-0.1,1.7-0.8,1.9-1.5c0.6-1.5,2.1-2.7,3.8-2.7
					c1.4,0,2.8,0.8,3.6,1.9c0.4,0.6,1.3,1,2.1,1h0.1c0.1,0,0.3,0,0.3,0c2.3,0,4.1,1.7,4.1,3.7c0,1.9-1.7,3.6-3.8,3.7
					c-0.7,0-1.4,0.4-1.9,1c-0.7,1.2-2,1.8-3.4,1.8c-1.1,0-2.1-0.4-2.8-1.2c-0.4-0.4-1.1-0.6-1.7-0.6c-0.1,0-0.4,0-0.6,0.1
					c-1,0.3-1.9,0.4-3.6-0.9C505.4,118.5,504.8,117.2,505,116z"/>
				<path class="st41" d="M437.8,61.1c4.3,3.3,7.9,3.8,10.8,3.3c2.4,1.8,5.5,2.9,8.7,2.9c4.3,0,8.4-1.8,11.1-5.1
					c6.7-1.1,11.8-6.4,11.8-12.8c0-7.1-6-12.8-13.7-13c-2.6-3.1-6.7-4.9-11.1-4.9c-5.5,0-10.6,3.1-12.7,7.7
					c-4.8,1.3-8.7,5.3-9.6,9.9C432.1,53.3,434,58,437.8,61.1z M440,50.2c0.5-2.7,2.9-4.6,5.5-5.1c1.4-0.2,2.9-1.3,3.1-2.7
					c1-2.7,3.6-4.6,6.5-4.6c2.4,0,4.8,1.3,6,3.3c0.7,1.1,2.2,1.8,3.6,1.8h0.2c0.2,0,0.5,0,0.5,0c3.8,0,7,2.9,7,6.4
					c0,3.3-2.9,6.2-6.5,6.4c-1.2,0-2.4,0.7-3.1,1.8c-1.2,2-3.4,3.1-5.8,3.1c-1.9,0-3.6-0.7-4.8-2c-0.7-0.7-1.9-1.1-2.9-1.1
					c-0.2,0-0.7,0-1,0.2c-1.7,0.4-3.1,0.7-6-1.5C440.7,54.4,439.8,52.2,440,50.2z"/>
			</g>
		</g>
	</g>
</g>
<g id="Animals_12_">
	<g id="Artboard_21_" transform="translate(-3118.000000, -1364.000000)">
		<g id="noun_sausages_2556563_1_" transform="translate(3118.000000, 1364.000000)">
			<g id="Group_9_" transform="translate(0.336231, 0.000000)">
				<path id="Shape_12_" class="st0" d="M632.9,37.5c-18.5,0-33.6,14-33.6,31.1V216c0,17.2,15.1,31.1,33.6,31.1h98.3
					c18.5,0,33.6-14,33.6-31.1V68.6c0-17.2-15.1-31.1-33.6-31.1H632.9z M638.1,58h26.5c-1.1,5.8-6.7,10.3-13.3,10.3
					S639.2,63.9,638.1,58z M670.8,103.8h-38.9V90.3c0-9.2,8.7-16.7,19.4-16.7c10.7,0,19.4,7.5,19.4,16.7V103.8L670.8,103.8z
					 M759.2,109v66.6H605V109H759.2z M699.6,58h26.5c-1.1,5.8-6.7,10.3-13.3,10.3C706.2,68.3,700.7,63.9,699.6,58z M732.3,103.8
					h-38.9V90.3c0-9.2,8.7-16.7,19.4-16.7c10.7,0,19.4,7.5,19.4,16.7V103.8L732.3,103.8z M726.1,226.8h-26.5
					c1.1-5.8,6.7-10.3,13.3-10.3C719.4,216.5,724.9,221,726.1,226.8z M693.4,180.9h38.9v13.7c0,9.2-8.7,16.7-19.4,16.7
					c-10.7,0-19.4-7.5-19.4-16.7V180.9L693.4,180.9z M664.6,226.8h-26.5c1.1-5.8,6.7-10.3,13.3-10.3S663.4,221,664.6,226.8z
					 M631.9,180.9h38.9v13.7c0,9.2-8.7,16.7-19.4,16.7c-10.7,0-19.4-7.5-19.4-16.7V180.9L631.9,180.9z M731.2,241.9h-98.3
					c-15.4,0-27.9-11.6-27.9-25.9v-35.1h21.2v13.7c0,8.7,5.9,16.3,14.3,19.8c-5,3.2-8.4,8.6-8.4,14.7v0.4c0,1.4,1.3,2.6,2.8,2.6
					h32.6c1.6,0,2.8-1.2,2.8-2.6V229c0-6.1-3.3-11.5-8.4-14.7c8.5-3.5,14.3-11.1,14.3-19.8v-13.7h11.3v13.7
					c0,8.7,5.9,16.3,14.3,19.8c-5,3.2-8.4,8.6-8.4,14.7v0.4c0,1.4,1.3,2.6,2.8,2.6h32.6c1.6,0,2.8-1.2,2.8-2.6V229
					c0-6.1-3.3-11.5-8.4-14.7c8.5-3.5,14.3-11.1,14.3-19.8v-13.7h21.2V216C759.2,230.3,746.6,241.9,731.2,241.9z M759.2,68.6v35.1
					h-21.2V90.3c0-8.7-5.9-16.3-14.3-19.8c5-3.2,8.4-8.6,8.4-14.7v-0.4c0-1.4-1.3-2.6-2.8-2.6h-32.6c-1.6,0-2.8,1.2-2.8,2.6v0.4
					c0,6.1,3.3,11.5,8.4,14.7c-8.5,3.5-14.3,11.1-14.3,19.8v13.5h-11.3V90.3c0-8.7-5.9-16.3-14.3-19.8c5-3.2,8.4-8.6,8.4-14.7v-0.4
					c0-1.4-1.3-2.6-2.8-2.6H635c-1.6,0-2.8,1.2-2.8,2.6v0.4c0,6.1,3.3,11.5,8.4,14.7c-8.5,3.5-14.3,11.1-14.3,19.8v13.5H605V68.6
					c0-14.3,12.5-25.9,27.9-25.9h98.3C746.6,42.7,759.2,54.4,759.2,68.6z"/>
			</g>
		</g>
	</g>
</g>
</svg>
