<?xml version="1.0" encoding="UTF-8"?>
<svg width="3800px" height="3896px" viewBox="0 0 3800 3896" version="1.1" xmlns="http://www.w3.org/2000/svg" xmlns:xlink="http://www.w3.org/1999/xlink">
    <title>Artboard</title>
    <g id="Artboard" stroke="none" stroke-width="1" fill="none" fill-rule="evenodd">
        <g id="DidYouKnow-01" transform="translate(56.000000, 98.000000)">
            <g id="noun_Shower_1541311" transform="translate(50.000000, 0.000000)" fill="#37485E" fill-rule="nonzero" stroke="#FFFFFF">
                <g id="Group">
                    <path d="M15,90 C12.2,90 10,92.2 10,95 L10,110 C10,112.8 12.2,115 15,115 C17.8,115 20,112.8 20,110 L20,95 C20,92.2 17.8,90 15,90 Z" id="Path"></path>
                    <path d="M35,90 C32.2,90 30,92.2 30,95 L30,110 C30,112.8 32.2,115 35,115 C37.8,115 40,112.8 40,110 L40,95 C40,92.2 37.8,90 35,90 Z" id="Path_1_"></path>
                    <path d="M55,90 C52.2,90 50,92.2 50,95 L50,110 C50,112.8 52.2,115 55,115 C57.8,115 60,112.8 60,110 L60,95 C60,92.2 57.8,90 55,90 Z" id="Path_2_"></path>
                    <path d="M75,90 C72.2,90 70,92.2 70,95 L70,110 C70,112.8 72.2,115 75,115 C77.8,115 80,112.8 80,110 L80,95 C80,92.2 77.8,90 75,90 Z" id="Path_3_"></path>
                    <path d="M95,90 C92.2,90 90,92.2 90,95 L90,110 C90,112.8 92.2,115 95,115 C97.8,115 100,112.8 100,110 L100,95 C100,92.2 97.8,90 95,90 Z" id="Path_4_"></path>
                    <path d="M115,90 C112.2,90 110,92.2 110,95 L110,110 C110,112.8 112.2,115 115,115 C117.8,115 120,112.8 120,110 L120,95 C120,92.2 117.8,90 115,90 Z" id="Path_5_"></path>
                    <path d="M135,90 C132.2,90 130,92.2 130,95 L130,110 C130,112.8 132.2,115 135,115 C137.8,115 140,112.8 140,110 L140,95 C140,92.2 137.8,90 135,90 Z" id="Path_6_"></path>
                    <path d="M155,90 C152.2,90 150,92.2 150,95 L150,110 C150,112.8 152.2,115 155,115 C157.8,115 160,112.8 160,110 L160,95 C160,92.2 157.8,90 155,90 Z" id="Path_7_"></path>
                    <path d="M15,135 C12.2,135 10,137.2 10,140 L10,155 C10,157.8 12.2,160 15,160 C17.8,160 20,157.8 20,155 L20,140 C20,137.2 17.8,135 15,135 Z" id="Path_8_"></path>
                    <path d="M35,135 C32.2,135 30,137.2 30,140 L30,155 C30,157.8 32.2,160 35,160 C37.8,160 40,157.8 40,155 L40,140 C40,137.2 37.8,135 35,135 Z" id="Path_9_"></path>
                    <path d="M55,135 C52.2,135 50,137.2 50,140 L50,155 C50,157.8 52.2,160 55,160 C57.8,160 60,157.8 60,155 L60,140 C60,137.2 57.8,135 55,135 Z" id="Path_10_"></path>
                    <path d="M75,135 C72.2,135 70,137.2 70,140 L70,155 C70,157.8 72.2,160 75,160 C77.8,160 80,157.8 80,155 L80,140 C80,137.2 77.8,135 75,135 Z" id="Path_11_"></path>
                    <path d="M95,135 C92.2,135 90,137.2 90,140 L90,155 C90,157.8 92.2,160 95,160 C97.8,160 100,157.8 100,155 L100,140 C100,137.2 97.8,135 95,135 Z" id="Path_12_"></path>
                    <path d="M115,135 C112.2,135 110,137.2 110,140 L110,155 C110,157.8 112.2,160 115,160 C117.8,160 120,157.8 120,155 L120,140 C120,137.2 117.8,135 115,135 Z" id="Path_13_"></path>
                    <path d="M135,135 C132.2,135 130,137.2 130,140 L130,155 C130,157.8 132.2,160 135,160 C137.8,160 140,157.8 140,155 L140,140 C140,137.2 137.8,135 135,135 Z" id="Path_14_"></path>
                    <path d="M155,135 C152.2,135 150,137.2 150,140 L150,155 C150,157.8 152.2,160 155,160 C157.8,160 160,157.8 160,155 L160,140 C160,137.2 157.8,135 155,135 Z" id="Path_15_"></path>
                    <path d="M15,180 C12.2,180 10,182.2 10,185 L10,200 C10,202.8 12.2,205 15,205 C17.8,205 20,202.8 20,200 L20,185 C20,182.2 17.8,180 15,180 Z" id="Path_16_"></path>
                    <path d="M35,180 C32.2,180 30,182.2 30,185 L30,200 C30,202.8 32.2,205 35,205 C37.8,205 40,202.8 40,200 L40,185 C40,182.2 37.8,180 35,180 Z" id="Path_17_"></path>
                    <path d="M55,180 C52.2,180 50,182.2 50,185 L50,200 C50,202.8 52.2,205 55,205 C57.8,205 60,202.8 60,200 L60,185 C60,182.2 57.8,180 55,180 Z" id="Path_18_"></path>
                    <path d="M75,180 C72.2,180 70,182.2 70,185 L70,200 C70,202.8 72.2,205 75,205 C77.8,205 80,202.8 80,200 L80,185 C80,182.2 77.8,180 75,180 Z" id="Path_19_"></path>
                    <path d="M95,180 C92.2,180 90,182.2 90,185 L90,200 C90,202.8 92.2,205 95,205 C97.8,205 100,202.8 100,200 L100,185 C100,182.2 97.8,180 95,180 Z" id="Path_20_"></path>
                    <path d="M115,180 C112.2,180 110,182.2 110,185 L110,200 C110,202.8 112.2,205 115,205 C117.8,205 120,202.8 120,200 L120,185 C120,182.2 117.8,180 115,180 Z" id="Path_21_"></path>
                    <path d="M135,180 C132.2,180 130,182.2 130,185 L130,200 C130,202.8 132.2,205 135,205 C137.8,205 140,202.8 140,200 L140,185 C140,182.2 137.8,180 135,180 Z" id="Path_22_"></path>
                    <path d="M155,180 C152.2,180 150,182.2 150,185 L150,200 C150,202.8 152.2,205 155,205 C157.8,205 160,202.8 160,200 L160,185 C160,182.2 157.8,180 155,180 Z" id="Path_23_"></path>
                    <path d="M15,225 C12.2,225 10,227.2 10,230 L10,245 C10,247.8 12.2,250 15,250 C17.8,250 20,247.8 20,245 L20,230 C20,227.2 17.8,225 15,225 Z" id="Path_24_"></path>
                    <path d="M35,225 C32.2,225 30,227.2 30,230 L30,245 C30,247.8 32.2,250 35,250 C37.8,250 40,247.8 40,245 L40,230 C40,227.2 37.8,225 35,225 Z" id="Path_25_"></path>
                    <path d="M55,225 C52.2,225 50,227.2 50,230 L50,245 C50,247.8 52.2,250 55,250 C57.8,250 60,247.8 60,245 L60,230 C60,227.2 57.8,225 55,225 Z" id="Path_26_"></path>
                    <path d="M75,225 C72.2,225 70,227.2 70,230 L70,245 C70,247.8 72.2,250 75,250 C77.8,250 80,247.8 80,245 L80,230 C80,227.2 77.8,225 75,225 Z" id="Path_27_"></path>
                    <path d="M95,225 C92.2,225 90,227.2 90,230 L90,245 C90,247.8 92.2,250 95,250 C97.8,250 100,247.8 100,245 L100,230 C100,227.2 97.8,225 95,225 Z" id="Path_28_"></path>
                    <path d="M115,225 C112.2,225 110,227.2 110,230 L110,245 C110,247.8 112.2,250 115,250 C117.8,250 120,247.8 120,245 L120,230 C120,227.2 117.8,225 115,225 Z" id="Path_29_"></path>
                    <path d="M135,225 C132.2,225 130,227.2 130,230 L130,245 C130,247.8 132.2,250 135,250 C137.8,250 140,247.8 140,245 L140,230 C140,227.2 137.8,225 135,225 Z" id="Path_30_"></path>
                    <path d="M155,225 C152.2,225 150,227.2 150,230 L150,245 C150,247.8 152.2,250 155,250 C157.8,250 160,247.8 160,245 L160,230 C160,227.2 157.8,225 155,225 Z" id="Path_31_"></path>
                    <path d="M15,270 C12.2,270 10,272.2 10,275 L10,290 C10,292.8 12.2,295 15,295 C17.8,295 20,292.8 20,290 L20,275 C20,272.2 17.8,270 15,270 Z" id="Path_32_"></path>
                    <path d="M35,270 C32.2,270 30,272.2 30,275 L30,290 C30,292.8 32.2,295 35,295 C37.8,295 40,292.8 40,290 L40,275 C40,272.2 37.8,270 35,270 Z" id="Path_33_"></path>
                    <path d="M55,270 C52.2,270 50,272.2 50,275 L50,290 C50,292.8 52.2,295 55,295 C57.8,295 60,292.8 60,290 L60,275 C60,272.2 57.8,270 55,270 Z" id="Path_34_"></path>
                    <path d="M75,270 C72.2,270 70,272.2 70,275 L70,290 C70,292.8 72.2,295 75,295 C77.8,295 80,292.8 80,290 L80,275 C80,272.2 77.8,270 75,270 Z" id="Path_35_"></path>
                    <path d="M95,270 C92.2,270 90,272.2 90,275 L90,290 C90,292.8 92.2,295 95,295 C97.8,295 100,292.8 100,290 L100,275 C100,272.2 97.8,270 95,270 Z" id="Path_36_"></path>
                    <path d="M115,270 C112.2,270 110,272.2 110,275 L110,290 C110,292.8 112.2,295 115,295 C117.8,295 120,292.8 120,290 L120,275 C120,272.2 117.8,270 115,270 Z" id="Path_37_"></path>
                    <path d="M135,270 C132.2,270 130,272.2 130,275 L130,290 C130,292.8 132.2,295 135,295 C137.8,295 140,292.8 140,290 L140,275 C140,272.2 137.8,270 135,270 Z" id="Path_38_"></path>
                    <path d="M155,270 C152.2,270 150,272.2 150,275 L150,290 C150,292.8 152.2,295 155,295 C157.8,295 160,292.8 160,290 L160,275 C160,272.2 157.8,270 155,270 Z" id="Path_39_"></path>
                    <path d="M265,0 C262.2,0 260,2.2 260,5 L260,110 L245,110 L245,30 C245,13.4 231.6,0 215,0 L105,0 C88.4,0 75,13.4 75,30 L75,45 L15,45 C6.7,45 0,51.7 0,60 L0,70 C0,71.3 0.5,72.6 1.5,73.5 C2.4,74.5 3.7,75 5,75 L165,75 C167.8,75 170,72.8 170,70 L170,60 C170,51.7 163.3,45 155,45 L85,45 L85,30 C85,19 94,10 105,10 L215,10 C226,10 235,19 235,30 L235,260 L235,270 L235,295 C235,297.8 237.2,300 240,300 C242.8,300 245,297.8 245,295 L245,270 L260,270 L260,295 C260,297.8 262.2,300 265,300 C267.8,300 270,297.8 270,295 L270,5 C270,2.2 267.8,0 265,0 Z M160,60 L160,65 L10,65 L10,60 C10,57.2 12.2,55 15,55 L155,55 C157.8,55 160,57.2 160,60 Z M245,260 L245,120 L260,120 L260,260 L245,260 Z" id="Shape"></path>
                </g>
            </g>
            <g id="noun_Burger_1530809" transform="translate(3310.113346, 678.628885)" fill="#37485E" fill-rule="nonzero" stroke="#37485E" stroke-width="1.5">
                <path d="M213.7,115.4 L203.6,115.4 C205.2,113.5 206.4,111.2 206.9,108.7 L207.9,103.3 C208.4,100.6 207.6,97.9 205.7,95.9 C204.7,94.8 203.4,94 202.1,93.4 L202.1,85.1 C203,84.9 204,84.7 205.4,84.7 C206.7,84.7 207.9,83.8 208.1,82.5 C208.1,82.2 208.8,77.5 205.1,73.3 C208.8,71.7 211.4,68.2 211.4,64.1 L211.4,61.7 C211.4,56.7 207.4,52.5 202.3,51.8 L202.3,44.8 C204.2,44.3 205.9,43.3 207.2,41.8 C209.2,39.6 210,36.7 209.4,33.8 C205.5,14.2 187.2,0 166,0 L133.4,0 C112.8,0 95.1,13.1 90.4,32 L90,33.4 C89.3,36.3 90,39.3 91.9,41.6 C93.1,43.1 94.8,44.1 96.6,44.7 L96.6,51.8 C91.5,52.5 87.5,56.7 87.5,61.7 L87.5,64.1 C87.5,68.3 90.2,71.9 94.1,73.4 C90.8,77.6 90.8,81.9 90.8,82.1 C90.8,83.5 92,84.6 93.5,84.6 C94.7,84.6 95.6,84.7 96.4,84.9 L96.4,93.4 C95.1,94 94,94.8 93.1,95.8 C91.2,97.9 90.4,100.6 90.9,103.2 L91.9,108.6 C92.4,111.2 93.5,113.4 95.2,115.3 C40.2,114.8 9.4,114.8 2.7,115.3 C0.2,115.5 4.54747351e-13,117.7 4.54747351e-13,117.8 L4.54747351e-13,138.6 C4.54747351e-13,140 1.2,141.1 2.7,141.1 L214,141.1 C215.5,141.1 216.7,140 216.7,138.6 L216.7,117.8 C216.4,116.5 215.2,115.4 213.7,115.4 Z M155.9,92.7 C149.6,92.7 143.6,95 139.1,99.2 L134,104 L128.9,99.2 C124.4,95 118.5,92.7 112.1,92.7 L101.6,92.7 L101.6,87.2 C103,87.7 104.8,88.1 107.3,88.1 C111.5,88.1 113.6,87 115.5,86.1 C117.1,85.3 118.4,84.7 121.3,84.7 C124.1,84.7 125.4,85.3 127,86.1 C128.9,87 131.1,88.1 135.2,88.1 C139.4,88.1 141.5,87 143.4,86.1 C145,85.3 146.3,84.7 149.2,84.7 C152.1,84.7 153.3,85.3 154.9,86.1 C156.8,87 159,88.1 163.1,88.1 C167.3,88.1 169.4,87 171.3,86.1 C172.9,85.3 174.2,84.7 177,84.7 C179.8,84.7 181.1,85.3 182.7,86.1 C184.6,87 186.8,88.1 190.9,88.1 C193.2,88.1 194.8,87.8 196.2,87.3 L196.2,92.7 L155.9,92.7 Z M98,56.8 C98.2,56.8 98.5,56.7 98.7,56.7 C98.8,56.7 99,56.8 99.1,56.8 L142.9,56.8 C147.5,56.8 151.7,58.5 155,61.5 L162.4,68.5 C162.9,69 163.6,69.2 164.3,69.2 L98,69.2 C95.1,69.2 92.7,67 92.7,64.2 L92.7,61.8 C92.7,59 95.1,56.8 98,56.8 Z M185.7,51.6 C179.7,51.6 174.1,53.8 169.8,57.8 L164.3,63 L158.8,57.8 C154.6,53.8 148.9,51.6 142.9,51.6 L101.8,51.6 L101.8,45.3 L196.7,45.3 L196.7,51.6 L185.7,51.6 Z M202.8,38.6 C201.9,39.7 200.5,40.3 199.1,40.3 L99.8,40.3 C98.3,40.3 96.9,39.7 96,38.6 C95.1,37.5 94.7,36.1 95.1,34.7 L95.5,33.3 C99.7,16.8 115.2,5.2 133.2,5.2 L165.8,5.2 C184.4,5.2 200.4,17.7 203.9,34.9 C204.1,36.2 203.7,37.5 202.8,38.6 Z M200.5,69.1 L164.4,69.1 C165.1,69.1 165.8,68.8 166.3,68.4 L173.7,61.4 C176.9,58.4 181.2,56.7 185.8,56.7 L199,56.7 C199.1,56.7 199.2,56.8 199.3,56.8 L200.6,56.8 C203.5,56.8 205.9,59 205.9,61.8 L205.9,64.2 C205.8,66.9 203.4,69.1 200.5,69.1 Z M202.3,79.8 C199.9,80.1 198.3,80.9 196.9,81.6 C195.3,82.4 194,83 191.2,83 C188.4,83 187.1,82.4 185.5,81.6 C183.6,80.7 181.4,79.6 177.3,79.6 C173.1,79.6 171,80.7 169.1,81.6 C167.5,82.4 166.2,83 163.4,83 C160.6,83 159.3,82.4 157.7,81.6 C155.8,80.7 153.6,79.6 149.5,79.6 C145.3,79.6 143.2,80.7 141.3,81.6 C139.7,82.4 138.4,83 135.5,83 C132.6,83 131.4,82.4 129.8,81.6 C127.9,80.7 125.7,79.6 121.6,79.6 C117.4,79.6 115.3,80.7 113.4,81.6 C111.8,82.4 110.5,83 107.6,83 C104.7,83 103.5,82.4 101.8,81.6 C100.4,80.9 99,80.2 96.7,79.9 C97.2,78.3 98.3,76.2 100.8,74.3 L197.9,74.3 C198,74.4 198,74.4 198.1,74.5 C200.9,76 202,78.2 202.3,79.8 Z M192,115.4 L106.5,115.4 C101.8,115.4 97.8,112.2 97,107.9 L96,102.5 C95.8,101.3 96.1,100.1 97,99.2 C97.6,98.5 98.5,98 99.5,97.8 L112.1,97.8 C117,97.8 121.6,99.6 125,102.8 L132,109.4 C132.5,109.9 133.2,110.1 133.9,110.1 C134.6,110.1 135.3,109.8 135.8,109.4 L142.8,102.8 C146.3,99.6 150.9,97.8 155.7,97.8 L198.8,97.8 C199.8,98 200.6,98.4 201.3,99.2 C202.1,100.1 202.5,101.3 202.3,102.5 L201.3,107.9 C200.7,112.2 196.7,115.4 192,115.4 Z M211,136.2 L5.2,136.2 L5.2,120.5 L106.6,120.5 L192.1,120.5 L211.1,120.5 L211.1,136.2 L211,136.2 Z" id="Shape_1_"></path>
            </g>
            <g id="noun_Burger_1530809_1_" transform="translate(3446.127971, 678.628885)" fill="#37485E" fill-rule="nonzero" stroke="#37485E" stroke-width="1.5">
                <path d="M213.7,115.4 L203.6,115.4 C205.2,113.5 206.4,111.2 206.9,108.7 L207.9,103.3 C208.4,100.6 207.6,97.9 205.7,95.9 C204.7,94.8 203.4,94 202.1,93.4 L202.1,85.1 C203,84.9 204,84.7 205.4,84.7 C206.7,84.7 207.9,83.8 208.1,82.5 C208.1,82.2 208.8,77.5 205.1,73.3 C208.8,71.7 211.4,68.2 211.4,64.1 L211.4,61.7 C211.4,56.7 207.4,52.5 202.3,51.8 L202.3,44.8 C204.2,44.3 205.9,43.3 207.2,41.8 C209.2,39.6 210,36.7 209.4,33.8 C205.5,14.2 187.2,0 166,0 L133.4,0 C112.8,0 95.1,13.1 90.4,32 L90,33.4 C89.3,36.3 90,39.3 91.9,41.6 C93.1,43.1 94.8,44.1 96.6,44.7 L96.6,51.8 C91.5,52.5 87.5,56.7 87.5,61.7 L87.5,64.1 C87.5,68.3 90.2,71.9 94.1,73.4 C90.8,77.6 90.8,81.9 90.8,82.1 C90.8,83.5 92,84.6 93.5,84.6 C94.7,84.6 95.6,84.7 96.4,84.9 L96.4,93.4 C95.1,94 94,94.8 93.1,95.8 C91.2,97.9 90.4,100.6 90.9,103.2 L91.9,108.6 C92.4,111.2 93.5,113.4 95.2,115.3 C40.2,114.8 9.4,114.8 2.7,115.3 C0.2,115.5 4.54747351e-13,117.7 4.54747351e-13,117.8 L4.54747351e-13,138.6 C4.54747351e-13,140 1.2,141.1 2.7,141.1 L214,141.1 C215.5,141.1 216.7,140 216.7,138.6 L216.7,117.8 C216.4,116.5 215.2,115.4 213.7,115.4 Z M155.9,92.7 C149.6,92.7 143.6,95 139.1,99.2 L134,104 L128.9,99.2 C124.4,95 118.5,92.7 112.1,92.7 L101.6,92.7 L101.6,87.2 C103,87.7 104.8,88.1 107.3,88.1 C111.5,88.1 113.6,87 115.5,86.1 C117.1,85.3 118.4,84.7 121.3,84.7 C124.1,84.7 125.4,85.3 127,86.1 C128.9,87 131.1,88.1 135.2,88.1 C139.4,88.1 141.5,87 143.4,86.1 C145,85.3 146.3,84.7 149.2,84.7 C152.1,84.7 153.3,85.3 154.9,86.1 C156.8,87 159,88.1 163.1,88.1 C167.3,88.1 169.4,87 171.3,86.1 C172.9,85.3 174.2,84.7 177,84.7 C179.8,84.7 181.1,85.3 182.7,86.1 C184.6,87 186.8,88.1 190.9,88.1 C193.2,88.1 194.8,87.8 196.2,87.3 L196.2,92.7 L155.9,92.7 Z M98,56.8 C98.2,56.8 98.5,56.7 98.7,56.7 C98.8,56.7 99,56.8 99.1,56.8 L142.9,56.8 C147.5,56.8 151.7,58.5 155,61.5 L162.4,68.5 C162.9,69 163.6,69.2 164.3,69.2 L98,69.2 C95.1,69.2 92.7,67 92.7,64.2 L92.7,61.8 C92.7,59 95.1,56.8 98,56.8 Z M185.7,51.6 C179.7,51.6 174.1,53.8 169.8,57.8 L164.3,63 L158.8,57.8 C154.6,53.8 148.9,51.6 142.9,51.6 L101.8,51.6 L101.8,45.3 L196.7,45.3 L196.7,51.6 L185.7,51.6 Z M202.8,38.6 C201.9,39.7 200.5,40.3 199.1,40.3 L99.8,40.3 C98.3,40.3 96.9,39.7 96,38.6 C95.1,37.5 94.7,36.1 95.1,34.7 L95.5,33.3 C99.7,16.8 115.2,5.2 133.2,5.2 L165.8,5.2 C184.4,5.2 200.4,17.7 203.9,34.9 C204.1,36.2 203.7,37.5 202.8,38.6 Z M200.5,69.1 L164.4,69.1 C165.1,69.1 165.8,68.8 166.3,68.4 L173.7,61.4 C176.9,58.4 181.2,56.7 185.8,56.7 L199,56.7 C199.1,56.7 199.2,56.8 199.3,56.8 L200.6,56.8 C203.5,56.8 205.9,59 205.9,61.8 L205.9,64.2 C205.8,66.9 203.4,69.1 200.5,69.1 Z M202.3,79.8 C199.9,80.1 198.3,80.9 196.9,81.6 C195.3,82.4 194,83 191.2,83 C188.4,83 187.1,82.4 185.5,81.6 C183.6,80.7 181.4,79.6 177.3,79.6 C173.1,79.6 171,80.7 169.1,81.6 C167.5,82.4 166.2,83 163.4,83 C160.6,83 159.3,82.4 157.7,81.6 C155.8,80.7 153.6,79.6 149.5,79.6 C145.3,79.6 143.2,80.7 141.3,81.6 C139.7,82.4 138.4,83 135.5,83 C132.6,83 131.4,82.4 129.8,81.6 C127.9,80.7 125.7,79.6 121.6,79.6 C117.4,79.6 115.3,80.7 113.4,81.6 C111.8,82.4 110.5,83 107.6,83 C104.7,83 103.5,82.4 101.8,81.6 C100.4,80.9 99,80.2 96.7,79.9 C97.2,78.3 98.3,76.2 100.8,74.3 L197.9,74.3 C198,74.4 198,74.4 198.1,74.5 C200.9,76 202,78.2 202.3,79.8 Z M192,115.4 L106.5,115.4 C101.8,115.4 97.8,112.2 97,107.9 L96,102.5 C95.8,101.3 96.1,100.1 97,99.2 C97.6,98.5 98.5,98 99.5,97.8 L112.1,97.8 C117,97.8 121.6,99.6 125,102.8 L132,109.4 C132.5,109.9 133.2,110.1 133.9,110.1 C134.6,110.1 135.3,109.8 135.8,109.4 L142.8,102.8 C146.3,99.6 150.9,97.8 155.7,97.8 L198.8,97.8 C199.8,98 200.6,98.4 201.3,99.2 C202.1,100.1 202.5,101.3 202.3,102.5 L201.3,107.9 C200.7,112.2 196.7,115.4 192,115.4 Z M211,136.2 L5.2,136.2 L5.2,120.5 L106.6,120.5 L192.1,120.5 L211.1,120.5 L211.1,136.2 L211,136.2 Z" id="Shape_2_"></path>
            </g>
            <g id="noun_Burger_1530809_2_" transform="translate(3364.184644, 749.628885) scale(-1, 1) translate(-3364.184644, -749.628885) translate(3255.184644, 678.628885)" fill="#37485E" fill-rule="nonzero" stroke="#37485E" stroke-width="1.5">
                <path d="M214.4,115.4 L204.3,115.4 C205.9,113.5 207.1,111.2 207.6,108.7 L208.6,103.3 C209.1,100.6 208.3,97.9 206.4,95.9 C205.4,94.8 204.1,94 202.8,93.4 L202.8,85.1 C203.7,84.9 204.7,84.7 206.1,84.7 C207.4,84.7 208.6,83.8 208.8,82.5 C208.8,82.2 209.5,77.5 205.8,73.3 C209.5,71.7 212.1,68.2 212.1,64.1 L212.1,61.7 C212.1,56.7 208.1,52.5 203,51.8 L203,44.8 C204.9,44.3 206.6,43.3 207.9,41.8 C209.9,39.6 210.7,36.7 210.1,33.8 C206.2,14.2 187.9,0 166.7,0 L134.1,0 C113.5,0 95.8,13.1 91.1,32 L90.7,33.4 C90,36.3 90.7,39.3 92.6,41.6 C93.8,43.1 95.5,44.1 97.3,44.7 L97.3,51.8 C92.2,52.5 88.2,56.7 88.2,61.7 L88.2,64.1 C88.2,68.3 90.9,71.9 94.8,73.4 C91.5,77.6 91.5,81.9 91.5,82.1 C91.5,83.5 92.7,84.6 94.2,84.6 C95.4,84.6 96.3,84.7 97.1,84.9 L97.1,93.4 C95.8,94 94.7,94.8 93.8,95.8 C91.9,97.9 91.1,100.6 91.6,103.2 L92.6,108.6 C93.1,111.2 94.2,113.4 95.9,115.3 C40.9,114.8 10.1,114.8 3.4,115.3 C0.9,115.5 0.7,117.7 0.7,117.8 L0.7,138.6 C0.7,140 1.9,141.1 3.4,141.1 L214.7,141.1 C216.2,141.1 217.4,140 217.4,138.6 L217.4,117.8 C217.1,116.5 215.9,115.4 214.4,115.4 Z M156.6,92.7 C150.3,92.7 144.3,95 139.8,99.2 L134.7,104 L129.6,99.2 C125.1,95 119.2,92.7 112.8,92.7 L102.3,92.7 L102.3,87.2 C103.7,87.7 105.5,88.1 108,88.1 C112.2,88.1 114.3,87 116.2,86.1 C117.8,85.3 119.1,84.7 122,84.7 C124.8,84.7 126.1,85.3 127.8,86.1 C129.7,87 131.9,88.1 136,88.1 C140.2,88.1 142.3,87 144.2,86.1 C145.8,85.3 147.1,84.7 150,84.7 C152.9,84.7 154.1,85.3 155.7,86.1 C157.6,87 159.8,88.1 163.9,88.1 C168.1,88.1 170.2,87 172.1,86.1 C173.7,85.3 175,84.7 177.8,84.7 C180.6,84.7 181.9,85.3 183.5,86.1 C185.4,87 187.6,88.1 191.7,88.1 C194,88.1 195.6,87.8 197,87.3 L197,92.7 L156.6,92.7 Z M98.7,56.8 C98.9,56.8 99.2,56.7 99.4,56.7 C99.5,56.7 99.7,56.8 99.8,56.8 L143.6,56.8 C148.2,56.8 152.4,58.5 155.7,61.5 L163.1,68.5 C163.6,69 164.3,69.2 165,69.2 L98.7,69.2 C95.8,69.2 93.4,67 93.4,64.2 L93.4,61.8 C93.4,59 95.8,56.8 98.7,56.8 Z M186.4,51.6 C180.4,51.6 174.8,53.8 170.5,57.8 L165,63 L159.5,57.8 C155.3,53.8 149.6,51.6 143.6,51.6 L102.5,51.6 L102.5,45.3 L197.4,45.3 L197.4,51.6 L186.4,51.6 Z M203.5,38.6 C202.6,39.7 201.2,40.3 199.8,40.3 L100.5,40.3 C99,40.3 97.6,39.7 96.7,38.6 C95.8,37.5 95.4,36.1 95.8,34.7 L96.2,33.3 C100.4,16.8 115.9,5.2 133.9,5.2 L166.5,5.2 C185.1,5.2 201.1,17.7 204.6,34.9 C204.8,36.2 204.4,37.5 203.5,38.6 Z M201.2,69.1 L165.1,69.1 C165.8,69.1 166.5,68.8 167,68.4 L174.4,61.4 C177.6,58.4 181.9,56.7 186.5,56.7 L199.7,56.7 C199.8,56.7 199.9,56.8 200,56.8 L201.3,56.8 C204.2,56.8 206.6,59 206.6,61.8 L206.6,64.2 C206.5,66.9 204.1,69.1 201.2,69.1 Z M203.1,79.8 C200.7,80.1 199.1,80.9 197.7,81.6 C196.1,82.4 194.8,83 192,83 C189.2,83 187.9,82.4 186.3,81.6 C184.4,80.7 182.2,79.6 178.1,79.6 C174,79.6 171.8,80.7 169.9,81.6 C168.3,82.4 167,83 164.2,83 C161.4,83 160.1,82.4 158.5,81.6 C156.6,80.7 154.4,79.6 150.3,79.6 C146.1,79.6 144,80.7 142.1,81.6 C140.5,82.4 139.2,83 136.3,83 C133.4,83 132.2,82.4 130.5,81.6 C128.6,80.7 126.4,79.6 122.3,79.6 C118.1,79.6 116,80.7 114.1,81.6 C112.5,82.4 111.2,83 108.3,83 C105.5,83 104.2,82.4 102.5,81.6 C101.1,80.9 99.7,80.2 97.4,79.9 C97.9,78.3 99,76.2 101.5,74.3 L198.6,74.3 C198.7,74.4 198.7,74.4 198.8,74.5 C201.6,76 202.7,78.2 203.1,79.8 Z M192.7,115.4 L107.2,115.4 C102.5,115.4 98.5,112.2 97.7,107.9 L96.7,102.5 C96.5,101.3 96.8,100.1 97.7,99.2 C98.3,98.5 99.2,98 100.2,97.8 L112.8,97.8 C117.7,97.8 122.3,99.6 125.7,102.8 L132.7,109.4 C133.2,109.9 133.9,110.1 134.6,110.1 C135.3,110.1 136,109.8 136.5,109.4 L143.5,102.8 C147,99.6 151.6,97.8 156.4,97.8 L199.5,97.8 C200.5,98 201.3,98.4 202,99.2 C202.8,100.1 203.2,101.3 203,102.5 L202,107.9 C201.4,112.2 197.4,115.4 192.7,115.4 Z M211.7,136.2 L5.9,136.2 L5.9,120.5 L107.3,120.5 L192.8,120.5 L211.8,120.5 L211.8,136.2 L211.7,136.2 Z" id="Shape_3_"></path>
            </g>
            <g id="noun_Burger_1530809_3_" transform="translate(3389.709324, 621.083181) scale(-1, 1) translate(-3389.709324, -621.083181) translate(3327.709324, 560.583181)" fill="#37485E" fill-rule="nonzero" stroke="#37485E" stroke-width="1.5">
                <path d="M116.2,115.9 C117.8,114 119,111.7 119.5,109.2 L120.5,103.8 C121,101.1 120.2,98.4 118.3,96.4 C117.3,95.3 116,94.5 114.7,93.9 L114.7,85.6 C115.6,85.4 116.6,85.2 118,85.2 C119.3,85.2 120.5,84.3 120.7,83 C120.7,82.7 121.4,78 117.7,73.8 C121.4,72.2 124,68.7 124,64.6 L124,62.2 C124,57.2 120,53 114.9,52.3 L114.9,45.3 C116.8,44.8 118.5,43.8 119.8,42.3 C121.8,40.1 122.6,37.2 122,34.3 C118.1,14.7 99.8,0.5 78.6,0.5 L46,0.5 C25.4,0.5 7.7,13.6 3,32.5 L2.6,33.9 C1.9,36.8 2.6,39.8 4.5,42.1 C5.7,43.6 7.4,44.6 9.2,45.2 L9.2,52.3 C4.1,53 0.1,57.2 0.1,62.2 L0.1,64.6 C0.1,68.8 2.8,72.4 6.7,73.9 C3.4,78.1 3.4,82.4 3.4,82.6 C3.4,84 4.6,85.1 6.1,85.1 C7.3,85.1 8.2,85.2 9,85.4 L9,93.9 C7.7,94.5 6.6,95.3 5.7,96.3 C3.8,98.4 3,101.1 3.5,103.7 L4.5,109.1 C5,111.7 6.1,113.9 7.8,115.8 C9.1,117.4 9.9,118.3 10.2,118.6 C10.7,119.1 12.5,120.9 14.8,120.9 C55.7,120.9 86.7,120.9 107.7,120.9 C109.6,120.9 111.5,120.1 113.4,118.6 L116.2,115.9 Z M68.6,93.2 C62.3,93.2 56.3,95.5 51.8,99.7 L46.7,104.5 L41.6,99.7 C37.1,95.5 31.2,93.2 24.8,93.2 L14.3,93.2 L14.3,87.7 C15.7,88.2 17.5,88.6 20,88.6 C24.2,88.6 26.3,87.5 28.2,86.6 C29.8,85.8 31.1,85.2 34,85.2 C36.8,85.2 38.1,85.8 39.7,86.6 C41.6,87.5 43.8,88.6 47.9,88.6 C52.1,88.6 54.2,87.5 56.1,86.6 C57.7,85.8 59,85.2 61.9,85.2 C64.8,85.2 66,85.8 67.7,86.6 C69.6,87.5 71.8,88.6 75.9,88.6 C80.1,88.6 82.2,87.5 84.1,86.6 C85.7,85.8 87,85.2 89.8,85.2 C92.6,85.2 93.9,85.8 95.5,86.6 C97.4,87.5 99.6,88.6 103.7,88.6 C106,88.6 107.6,88.3 109,87.8 L109,93.2 L68.6,93.2 Z M10.7,57.3 C10.9,57.3 11.2,57.2 11.4,57.2 C11.5,57.2 11.7,57.3 11.8,57.3 L55.6,57.3 C60.2,57.3 64.4,59 67.7,62 L75.1,69 C75.6,69.5 76.3,69.7 77,69.7 L10.7,69.7 C7.8,69.7 5.4,67.5 5.4,64.7 L5.4,62.3 C5.4,59.6 7.8,57.3 10.7,57.3 Z M98.4,52.2 C92.4,52.2 86.8,54.4 82.5,58.4 L77,63.6 L71.5,58.4 C67.3,54.4 61.6,52.2 55.6,52.2 L14.5,52.2 L14.5,45.9 L109.4,45.9 L109.4,52.2 L98.4,52.2 Z M115.5,39.1 C114.6,40.2 113.2,40.8 111.8,40.8 L12.5,40.8 C11,40.8 9.6,40.2 8.7,39.1 C7.8,38 7.4,36.6 7.8,35.2 L8.2,33.8 C12.4,17.3 27.9,5.7 45.9,5.7 L78.5,5.7 C97.1,5.7 113.1,18.2 116.6,35.4 C116.8,36.7 116.4,38.1 115.5,39.1 Z M113.2,69.7 L77.1,69.7 C77.8,69.7 78.5,69.4 79,69 L86.4,62 C89.6,59 93.9,57.3 98.5,57.3 L111.7,57.3 C111.8,57.3 111.9,57.4 112,57.4 L113.3,57.4 C116.2,57.4 118.6,59.6 118.6,62.4 L118.6,64.8 C118.5,67.4 116.1,69.7 113.2,69.7 Z M115,80.3 C112.6,80.6 111,81.4 109.6,82.1 C108,82.9 106.7,83.5 103.9,83.5 C101.1,83.5 99.8,82.9 98.2,82.1 C96.3,81.2 94.1,80.1 90,80.1 C85.8,80.1 83.7,81.2 81.8,82.1 C80.2,82.9 78.9,83.5 76.1,83.5 C73.3,83.5 72,82.9 70.4,82.1 C68.5,81.2 66.3,80.1 62.2,80.1 C58,80.1 55.9,81.2 54,82.1 C52.4,82.9 51.1,83.5 48.2,83.5 C45.3,83.5 44.1,82.9 42.5,82.1 C40.6,81.2 38.4,80.1 34.3,80.1 C30.1,80.1 28,81.2 26.1,82.1 C24.5,82.9 23.2,83.5 20.3,83.5 C17.4,83.5 16.2,82.9 14.5,82.1 C13.1,81.4 11.7,80.7 9.4,80.4 C9.9,78.8 11,76.7 13.5,74.8 L110.6,74.8 C110.7,74.9 110.7,74.9 110.8,75 C113.6,76.5 114.7,78.7 115,80.3 Z M104.7,115.9 L19.2,115.9 C14.5,115.9 10.5,112.7 9.7,108.4 L8.7,103 C8.5,101.8 8.8,100.6 9.7,99.7 C10.3,99 11.2,98.5 12.2,98.3 L24.8,98.3 C29.7,98.3 34.3,100.1 37.7,103.3 L44.7,109.9 C45.2,110.4 45.9,110.6 46.6,110.6 C47.3,110.6 48,110.3 48.5,109.9 L55.5,103.3 C59,100.1 63.6,98.3 68.4,98.3 L111.5,98.3 C112.5,98.5 113.3,98.9 114,99.7 C114.8,100.6 115.2,101.8 115,103 L114,108.4 C113.4,112.8 109.4,115.9 104.7,115.9 Z" id="Shape_4_"></path>
            </g>
            <g id="noun_Burger_1530809_4_" transform="translate(3531.574040, 621.083181) scale(-1, 1) translate(-3531.574040, -621.083181) translate(3469.574040, 560.583181)" fill="#37485E" fill-rule="nonzero" stroke="#37485E" stroke-width="1.5">
                <path d="M116.2,115.9 C117.8,114 119,111.7 119.5,109.2 L120.5,103.8 C121,101.1 120.2,98.4 118.3,96.4 C117.3,95.3 116,94.5 114.7,93.9 L114.7,85.6 C115.6,85.4 116.6,85.2 118,85.2 C119.3,85.2 120.5,84.3 120.7,83 C120.7,82.7 121.4,78 117.7,73.8 C121.4,72.2 124,68.7 124,64.6 L124,62.2 C124,57.2 120,53 114.9,52.3 L114.9,45.3 C116.8,44.8 118.5,43.8 119.8,42.3 C121.8,40.1 122.6,37.2 122,34.3 C118.1,14.7 99.8,0.5 78.6,0.5 L46,0.5 C25.4,0.5 7.7,13.6 3,32.5 L2.6,33.9 C1.9,36.8 2.6,39.8 4.5,42.1 C5.7,43.6 7.4,44.6 9.2,45.2 L9.2,52.3 C4.1,53 0.1,57.2 0.1,62.2 L0.1,64.6 C0.1,68.8 2.8,72.4 6.7,73.9 C3.4,78.1 3.4,82.4 3.4,82.6 C3.4,84 4.6,85.1 6.1,85.1 C7.3,85.1 8.2,85.2 9,85.4 L9,93.9 C7.7,94.5 6.6,95.3 5.7,96.3 C3.8,98.4 3,101.1 3.5,103.7 L4.5,109.1 C5,111.7 6.1,113.9 7.8,115.8 C9.1,117.4 9.9,118.3 10.2,118.6 C10.7,119.1 12.5,120.9 14.8,120.9 C55.7,120.9 86.7,120.9 107.7,120.9 C109.6,120.9 111.5,120.1 113.4,118.6 L116.2,115.9 Z M68.6,93.2 C62.3,93.2 56.3,95.5 51.8,99.7 L46.7,104.5 L41.6,99.7 C37.1,95.5 31.2,93.2 24.8,93.2 L14.3,93.2 L14.3,87.7 C15.7,88.2 17.5,88.6 20,88.6 C24.2,88.6 26.3,87.5 28.2,86.6 C29.8,85.8 31.1,85.2 34,85.2 C36.8,85.2 38.1,85.8 39.7,86.6 C41.6,87.5 43.8,88.6 47.9,88.6 C52.1,88.6 54.2,87.5 56.1,86.6 C57.7,85.8 59,85.2 61.9,85.2 C64.8,85.2 66,85.8 67.7,86.6 C69.6,87.5 71.8,88.6 75.9,88.6 C80.1,88.6 82.2,87.5 84.1,86.6 C85.7,85.8 87,85.2 89.8,85.2 C92.6,85.2 93.9,85.8 95.5,86.6 C97.4,87.5 99.6,88.6 103.7,88.6 C106,88.6 107.6,88.3 109,87.8 L109,93.2 L68.6,93.2 Z M10.7,57.3 C10.9,57.3 11.2,57.2 11.4,57.2 C11.5,57.2 11.7,57.3 11.8,57.3 L55.6,57.3 C60.2,57.3 64.4,59 67.7,62 L75.1,69 C75.6,69.5 76.3,69.7 77,69.7 L10.7,69.7 C7.8,69.7 5.4,67.5 5.4,64.7 L5.4,62.3 C5.4,59.6 7.8,57.3 10.7,57.3 Z M98.4,52.2 C92.4,52.2 86.8,54.4 82.5,58.4 L77,63.6 L71.5,58.4 C67.3,54.4 61.6,52.2 55.6,52.2 L14.5,52.2 L14.5,45.9 L109.4,45.9 L109.4,52.2 L98.4,52.2 Z M115.5,39.1 C114.6,40.2 113.2,40.8 111.8,40.8 L12.5,40.8 C11,40.8 9.6,40.2 8.7,39.1 C7.8,38 7.4,36.6 7.8,35.2 L8.2,33.8 C12.4,17.3 27.9,5.7 45.9,5.7 L78.5,5.7 C97.1,5.7 113.1,18.2 116.6,35.4 C116.8,36.7 116.4,38.1 115.5,39.1 Z M113.2,69.7 L77.1,69.7 C77.8,69.7 78.5,69.4 79,69 L86.4,62 C89.6,59 93.9,57.3 98.5,57.3 L111.7,57.3 C111.8,57.3 111.9,57.4 112,57.4 L113.3,57.4 C116.2,57.4 118.6,59.6 118.6,62.4 L118.6,64.8 C118.5,67.4 116.1,69.7 113.2,69.7 Z M115,80.3 C112.6,80.6 111,81.4 109.6,82.1 C108,82.9 106.7,83.5 103.9,83.5 C101.1,83.5 99.8,82.9 98.2,82.1 C96.3,81.2 94.1,80.1 90,80.1 C85.8,80.1 83.7,81.2 81.8,82.1 C80.2,82.9 78.9,83.5 76.1,83.5 C73.3,83.5 72,82.9 70.4,82.1 C68.5,81.2 66.3,80.1 62.2,80.1 C58,80.1 55.9,81.2 54,82.1 C52.4,82.9 51.1,83.5 48.2,83.5 C45.3,83.5 44.1,82.9 42.5,82.1 C40.6,81.2 38.4,80.1 34.3,80.1 C30.1,80.1 28,81.2 26.1,82.1 C24.5,82.9 23.2,83.5 20.3,83.5 C17.4,83.5 16.2,82.9 14.5,82.1 C13.1,81.4 11.7,80.7 9.4,80.4 C9.9,78.8 11,76.7 13.5,74.8 L110.6,74.8 C110.7,74.9 110.7,74.9 110.8,75 C113.6,76.5 114.7,78.7 115,80.3 Z M104.7,115.9 L19.2,115.9 C14.5,115.9 10.5,112.7 9.7,108.4 L8.7,103 C8.5,101.8 8.8,100.6 9.7,99.7 C10.3,99 11.2,98.5 12.2,98.3 L24.8,98.3 C29.7,98.3 34.3,100.1 37.7,103.3 L44.7,109.9 C45.2,110.4 45.9,110.6 46.6,110.6 C47.3,110.6 48,110.3 48.5,109.9 L55.5,103.3 C59,100.1 63.6,98.3 68.4,98.3 L111.5,98.3 C112.5,98.5 113.3,98.9 114,99.7 C114.8,100.6 115.2,101.8 115,103 L114,108.4 C113.4,112.8 109.4,115.9 104.7,115.9 Z" id="Shape_5_"></path>
            </g>
            <g id="noun_Burger_1530809_5_" transform="translate(3464.297989, 505.500000) scale(-1, 1) translate(-3464.297989, -505.500000) translate(3402.297989, 445.000000)" fill="#37485E" fill-rule="nonzero" stroke="#37485E" stroke-width="1.5">
                <path d="M116.2,115.4 C117.8,113.5 119,111.2 119.5,108.7 L120.5,103.3 C121,100.6 120.2,97.9 118.3,95.9 C117.3,94.8 116,94 114.7,93.4 L114.7,85.1 C115.6,84.9 116.6,84.7 118,84.7 C119.3,84.7 120.5,83.8 120.7,82.5 C120.7,82.2 121.4,77.5 117.7,73.3 C121.4,71.7 124,68.2 124,64.1 L124,61.7 C124,56.7 120,52.5 114.9,51.8 L114.9,44.8 C116.8,44.3 118.5,43.3 119.8,41.8 C121.8,39.6 122.6,36.7 122,33.8 C118.1,14.2 99.8,0 78.6,0 L46,0 C25.4,0 7.7,13.1 3,32 L2.6,33.4 C1.9,36.3 2.6,39.3 4.5,41.6 C5.7,43.1 7.4,44.1 9.2,44.7 L9.2,51.8 C4.1,52.5 0.1,56.7 0.1,61.7 L0.1,64.1 C0.1,68.3 2.8,71.9 6.7,73.4 C3.4,77.6 3.4,81.9 3.4,82.1 C3.4,83.5 4.6,84.6 6.1,84.6 C7.3,84.6 8.2,84.7 9,84.9 L9,93.4 C7.7,94 6.6,94.8 5.7,95.8 C3.8,97.9 3,100.6 3.5,103.2 L4.5,108.6 C5,111.2 6.1,113.4 7.8,115.3 C9.1,116.9 9.9,117.8 10.2,118.1 C10.7,118.6 12.5,120.4 14.8,120.4 C55.7,120.4 86.7,120.4 107.7,120.4 C109.6,120.4 111.5,119.6 113.4,118.1 L116.2,115.4 Z M68.6,92.7 C62.3,92.7 56.3,95 51.8,99.2 L46.7,104 L41.6,99.2 C37.1,95 31.2,92.7 24.8,92.7 L14.3,92.7 L14.3,87.2 C15.7,87.7 17.5,88.1 20,88.1 C24.2,88.1 26.3,87 28.2,86.1 C29.8,85.3 31.1,84.7 34,84.7 C36.8,84.7 38.1,85.3 39.7,86.1 C41.6,87 43.8,88.1 47.9,88.1 C52.1,88.1 54.2,87 56.1,86.1 C57.7,85.3 59,84.7 61.9,84.7 C64.8,84.7 66,85.3 67.7,86.1 C69.6,87 71.8,88.1 75.9,88.1 C80.1,88.1 82.2,87 84.1,86.1 C85.7,85.3 87,84.7 89.8,84.7 C92.6,84.7 93.9,85.3 95.5,86.1 C97.4,87 99.6,88.1 103.7,88.1 C106,88.1 107.6,87.8 109,87.3 L109,92.7 L68.6,92.7 Z M10.7,56.8 C10.9,56.8 11.2,56.7 11.4,56.7 C11.5,56.7 11.7,56.8 11.8,56.8 L55.6,56.8 C60.2,56.8 64.4,58.5 67.7,61.5 L75.1,68.5 C75.6,69 76.3,69.2 77,69.2 L10.7,69.2 C7.8,69.2 5.4,67 5.4,64.2 L5.4,61.8 C5.4,59 7.8,56.8 10.7,56.8 Z M98.4,51.7 C92.4,51.7 86.8,53.9 82.5,57.9 L77,63.1 L71.5,57.9 C67.3,53.9 61.6,51.7 55.6,51.7 L14.5,51.7 L14.5,45.4 L109.4,45.4 L109.4,51.7 L98.4,51.7 Z M115.5,38.6 C114.6,39.7 113.2,40.3 111.8,40.3 L12.5,40.3 C11,40.3 9.6,39.7 8.7,38.6 C7.8,37.5 7.4,36.1 7.8,34.7 L8.2,33.3 C12.4,16.8 27.9,5.2 45.9,5.2 L78.5,5.2 C97.1,5.2 113.1,17.7 116.6,34.9 C116.8,36.2 116.4,37.6 115.5,38.6 Z M113.2,69.1 L77.1,69.1 C77.8,69.1 78.5,68.8 79,68.4 L86.4,61.4 C89.6,58.4 93.9,56.7 98.5,56.7 L111.7,56.7 C111.8,56.7 111.9,56.8 112,56.8 L113.3,56.8 C116.2,56.8 118.6,59 118.6,61.8 L118.6,64.2 C118.5,66.9 116.1,69.1 113.2,69.1 Z M115,79.8 C112.6,80.1 111,80.9 109.6,81.6 C108,82.4 106.7,83 103.9,83 C101.1,83 99.8,82.4 98.2,81.6 C96.3,80.7 94.1,79.6 90,79.6 C85.8,79.6 83.7,80.7 81.8,81.6 C80.2,82.4 78.9,83 76.1,83 C73.3,83 72,82.4 70.4,81.6 C68.5,80.7 66.3,79.6 62.2,79.6 C58,79.6 55.9,80.7 54,81.6 C52.4,82.4 51.1,83 48.2,83 C45.3,83 44.1,82.4 42.5,81.6 C40.6,80.7 38.4,79.6 34.3,79.6 C30.1,79.6 28,80.7 26.1,81.6 C24.5,82.4 23.2,83 20.3,83 C17.4,83 16.2,82.4 14.5,81.6 C13.1,80.9 11.7,80.2 9.4,79.9 C9.9,78.3 11,76.2 13.5,74.3 L110.6,74.3 C110.7,74.4 110.7,74.4 110.8,74.5 C113.6,76 114.7,78.2 115,79.8 Z M104.7,115.4 L19.2,115.4 C14.5,115.4 10.5,112.2 9.7,107.9 L8.7,102.5 C8.5,101.3 8.8,100.1 9.7,99.2 C10.3,98.5 11.2,98 12.2,97.8 L24.8,97.8 C29.7,97.8 34.3,99.6 37.7,102.8 L44.7,109.4 C45.2,109.9 45.9,110.1 46.6,110.1 C47.3,110.1 48,109.8 48.5,109.4 L55.5,102.8 C59,99.6 63.6,97.8 68.4,97.8 L111.5,97.8 C112.5,98 113.3,98.4 114,99.2 C114.8,100.1 115.2,101.3 115,102.5 L114,107.9 C113.4,112.2 109.4,115.4 104.7,115.4 Z" id="Shape_6_"></path>
            </g>
            <rect id="Rectangle" fill="#FFFFFF" x="3239.9" y="799.6" width="448.7" height="36.5"></rect>
            <g id="noun_House_2562746" transform="translate(3323.000000, 1533.000000)" fill="#37485E" fill-rule="nonzero" stroke="#FFFFFF" stroke-width="2">
                <path d="M56.4,342.5 L122.6,342.5 L182.6,342.5 L248.8,342.5 C252.6,342.5 255.6,339.4 255.6,335.7 L255.6,145.7 L297.4,145.7 C300.2,145.7 302.8,144 303.8,141.3 C304.8,138.7 304.1,135.7 302,133.8 L157.2,2.5 C154.6,0.2 150.6,0.1 148,2.5 L3.2,133.7 C1.1,135.6 0.4,138.6 1.4,141.2 C2.4,143.8 5,145.6 7.8,145.6 L49.6,145.6 L49.6,335.6 C49.6,339.4 52.6,342.5 56.4,342.5 Z M129.5,328.8 L129.5,244 L175.8,244 L175.8,328.8 L129.5,328.8 Z M25.5,132 L152.6,16.8 L279.7,132 L248.8,132 C245,132 242,135.1 242,138.8 L242,328.8 L189.5,328.8 L189.5,237.2 C189.5,233.4 186.4,230.4 182.7,230.4 L122.7,230.4 C118.9,230.4 115.9,233.5 115.9,237.2 L115.9,328.8 L63.3,328.8 L63.3,138.8 C63.3,135 60.2,132 56.5,132 L25.5,132 Z" id="Shape_7_"></path>
            </g>
            <g id="noun_Trash_1734102" transform="translate(12.000000, 962.000000)">
                <rect id="Rectangle_1_" x="0.1" y="0.1" width="357.8" height="357.8"></rect>
                <g id="Clipped" transform="translate(43.000000, 32.000000)" fill="#37485E" stroke="#FFFFFF" stroke-width="2">
                    <path d="M94.6,29.2 C94.4,22.9 94.4,16.6 97.1,11.4 C100.6,4.8 107.8,0.3 115.3,0.2 C129.1,0.2 142.9,0.2 156.7,0.2 C167.3,0.3 177.2,9.6 177.2,20.9 L177.2,29.2 C203.1,29.3 229,29.4 254.9,29.5 C263.2,29.7 270.7,36.8 270.9,45.5 C271,54.5 270.9,63.5 270.9,72.4 C270.8,80.7 263.8,88.4 254.9,88.6 C252.4,88.6 249.9,88.6 247.4,88.6 C247.4,149.1 247.6,209.5 247.4,270 C247.3,282.2 236.7,293.4 223.9,293.5 C165.2,293.7 106.6,293.7 47.9,293.5 C35.6,293.4 24.4,282.8 24.4,269.8 L24.4,88.6 C22,88.6 19.6,88.6 17.1,88.6 C8.7,88.5 1.1,81.4 0.9,72.6 C0.8,63.6 0.9,54.6 0.9,45.7 C1,37.3 8.1,29.7 16.9,29.5 C42.9,29.4 68.7,29.3 94.6,29.2 Z M36.7,88.6 C36.7,149.1 36.1,209.6 36.7,270 C36.8,275.9 41.9,281.3 48.1,281.3 C106.7,281.5 165.4,281.8 224,281.3 C229.9,281.2 235.3,276.1 235.3,269.9 L235.3,88.7 C169.1,89 102.9,88.7 36.7,88.6 Z M136.5,120.4 C139.5,120.8 141.9,123.4 142.1,126.5 L142.1,243.6 C142,245.3 141.8,245.8 141.3,246.7 C139.5,249.9 134.4,250.7 131.7,248 C130.8,247.1 130.2,246 130,244.7 C129.9,244.2 129.9,244.1 129.9,243.6 L129.9,126.4 C130,123 133,120.2 136.5,120.4 Z M189.2,120.4 C192.3,120.8 194.6,123.4 194.8,126.5 L194.8,243.6 C194.8,244.1 194.8,244.2 194.7,244.7 C193.9,249.4 186.2,251.6 183.4,246.7 C182.9,245.9 182.7,245.4 182.6,243.6 L182.6,126.4 C182.8,123 185.7,120.2 189.2,120.4 Z M83.8,120.4 C86.8,120.8 89.2,123.4 89.4,126.5 L89.4,243.6 C89.4,244.1 89.4,244.2 89.3,244.7 C88.5,249.5 80.7,251.4 78,246.7 C77.5,245.9 77.3,245.4 77.2,243.6 L77.2,126.4 C77.3,123 80.3,120.2 83.8,120.4 Z M242.8,76.6 C246.8,76.5 250.9,76.5 254.9,76.4 C256.9,76.3 258.7,74.6 258.8,72.5 C258.9,63.5 259,54.6 258.8,45.6 C258.7,43.6 256.9,41.8 254.9,41.7 C227.5,41.5 200.2,41.5 172.8,41.5 C172.5,41.6 172.3,41.6 172,41.7 C171.6,41.7 171.6,41.7 171.2,41.8 L100.9,41.8 C100.3,41.8 99.9,41.7 99.6,41.7 C72.2,41.8 44.7,41.8 17.3,41.8 C15.2,41.8 13.3,43.6 13.3,45.7 C13.2,54.7 13.1,63.6 13.3,72.6 C13.4,74.6 15.1,76.4 17.2,76.5 C21.3,76.6 25.4,76.7 29.5,76.7 C29.9,76.6 30.2,76.5 30.6,76.5 L241.4,76.5 L242.8,76.6 L242.8,76.6 Z M165,29.2 C165,23.9 165.8,18.2 162.5,15 C160.9,13.4 158.8,12.5 156.6,12.5 C142.9,12.5 129.2,12.5 115.4,12.5 C111,12.5 107,16.4 106.9,20.9 L106.9,29.2 C126.3,29.2 145.7,29.2 165,29.2 L165,29.2 Z" id="Shape_8_"></path>
                </g>
            </g>
            <g id="noun_dairy-product_3093061" transform="translate(0.000000, 2114.000000)" fill="#37485E" fill-rule="nonzero" stroke="#FFFFFF" stroke-width="0.5">
                <path d="M357,119.3 C357,118.9 356.9,118.6 356.9,118.2 L356.9,78.6 C356.9,78.3 356.9,78 356.8,77.8 C356.8,77.7 356.8,77.7 356.8,77.6 C356.7,77.3 356.7,77.1 356.6,76.8 C356.6,76.8 356.6,76.8 356.6,76.7 C356.5,76.5 356.5,76.4 356.4,76.2 L325.7,23.2 L325.7,13.5 C325.7,6.6 320.1,0.9 313.1,0.9 L215.4,0.9 C208.5,0.9 202.8,6.5 202.8,13.5 L202.8,23.2 L172.1,76.2 C172,76.3 172,76.5 171.9,76.6 C171.9,76.6 171.9,76.7 171.9,76.7 C171.8,76.9 171.7,77.2 171.7,77.4 C171.7,77.5 171.7,77.5 171.7,77.6 C171.7,77.9 171.6,78.1 171.6,78.4 L171.6,78.4 L171.6,119.1 L171.6,190.4 L152.8,190.4 L152.8,151.2 C152.8,140.7 148.8,130.9 141.5,123.3 C135.9,117.5 133.4,112.9 132.9,107 L132.9,107 C135.4,107 137.5,104.9 137.5,102.4 L137.5,84.9 C137.5,78.8 132.5,73.8 126.4,73.8 L93.7,73.8 C87.6,73.8 82.6,78.8 82.6,84.9 L82.6,102.4 C82.6,104.9 84.7,107 87.2,107 L87.6,107 C87.1,112.9 84.6,117.5 79,123.3 C71.7,130.8 67.7,140.7 67.7,151.2 L67.7,190.4 L50.2,190.4 C32.1,190.4 17.4,205.1 17.4,223.2 L17.4,271 L17.1,271 C7.7,271 0.1,278.6 0.1,288 L0.1,295.6 C0.1,298.1 2.2,300.2 4.7,300.2 L236.3,300.2 L236.3,300.3 L352.3,300.3 C354.8,300.3 356.9,298.2 356.9,295.7 L356.9,256 C357,255.7 357,255.3 357,254.9 L357,119.3 L357,119.3 Z M180.6,83.2 L285.1,83.2 L285.1,114.7 L180.6,114.7 L180.6,83.2 Z M321,33.7 L344.3,74 L297.6,74 L321,33.7 Z M294.3,123.8 L347.7,123.8 L347.7,250.3 L294.3,250.3 L294.3,123.8 Z M294.3,114.7 L294.3,83.2 L347.7,83.2 L347.7,114.7 L294.3,114.7 Z M211.9,13.6 C211.9,11.7 213.4,10.2 215.3,10.2 L313,10.2 C314.9,10.2 316.4,11.7 316.4,13.6 L316.4,20 L211.9,20 L211.9,13.6 Z M209.9,29.1 L313,29.1 L287,74 L183.9,74 L209.9,29.1 Z M180.6,123.8 L285.1,123.8 L285.1,250.3 L226.2,250.3 L226.2,224.2 C228.4,224.6 230.6,224.8 232.8,224.8 C253.6,224.8 270.6,207.9 270.6,187 C270.6,166.1 253.7,149.2 232.8,149.2 C211.9,149.2 195,166.1 195,187 C195,188.2 195.1,189.3 195.2,190.5 C194.6,190.5 194,190.5 193.4,190.5 L180.5,190.5 L180.5,123.8 L180.6,123.8 Z M193.5,199.7 C206.5,199.7 217.1,210.3 217.1,223.3 L217.1,271.1 L158.3,271.1 L158.3,223.3 C158.3,214 154.4,205.7 148.2,199.7 L193.5,199.7 Z M204.2,187.1 C204.2,171.3 217,158.5 232.8,158.5 C248.6,158.5 261.4,171.3 261.4,187.1 C261.4,202.9 248.6,215.7 232.8,215.7 C230.1,215.7 227.5,215.3 225,214.6 C222.2,204.4 214.6,196.2 204.7,192.6 C204.4,190.8 204.2,188.9 204.2,187.1 Z M91.8,85.1 C91.8,84.1 92.7,83.2 93.7,83.2 L126.3,83.2 C127.3,83.2 128.2,84.1 128.2,85.1 L128.2,98 L91.8,98 L91.8,85.1 Z M85.6,129.9 C91,124.3 96.1,117.6 96.8,107.3 L123.5,107.3 C124.2,117.7 129.2,124.3 134.7,129.9 C140.3,135.7 143.4,143.3 143.4,151.4 L143.4,190.6 L125.5,190.6 L77,190.6 L77,151.4 C77,143.3 80,135.7 85.6,129.9 Z M26.6,223.3 C26.6,210.3 37.2,199.7 50.2,199.7 L70.4,199.7 L125.5,199.7 C138.5,199.7 149.1,210.3 149.1,223.3 L149.1,271.1 L26.6,271.1 L26.6,223.3 Z M231.7,291.1 L9.3,291.1 L9.3,288.1 C9.3,283.8 12.8,280.3 17.1,280.3 L223.9,280.3 C228.2,280.3 231.7,283.8 231.7,288.1 L231.7,291.1 L231.7,291.1 Z M226.2,271.3 L226.2,259.5 L285.1,259.5 L285.1,291.2 L240.8,291.2 L240.8,288.1 C240.8,279.6 234.5,272.5 226.2,271.3 Z M294.3,291.2 L294.3,259.5 L347.7,259.5 L347.7,291.2 L294.3,291.2 Z" id="Shape_9_"></path>
            </g>
            <g id="noun_narrowing_983628" transform="translate(3308.000000, 2675.000000)" fill="#37485E" stroke="#37485E" stroke-width="0.25">
                <g id="Group_1_" transform="translate(0.000000, 0.813912)">
                    <path d="M174.5,0.6 C165.9,0.6 157.3,3.9 150.8,10.4 L150.8,10.4 L10.3,150.7 C-2.7,163.7 -2.7,185.1 10.3,198.2 C10.3,198.2 10.3,198.2 10.3,198.2 L150.7,338.6 L150.7,338.6 C163.7,351.6 185.1,351.6 198.2,338.6 L338.6,198.2 C351.6,185.2 351.6,163.8 338.6,150.7 L198.2,10.3 C191.7,3.8 183.1,0.6 174.5,0.6 L174.5,0.6 Z M174.5,11.1 C180.4,11.1 186.3,13.3 190.8,17.8 L331.2,158.2 C340.2,167.2 340.2,181.8 331.2,190.8 L190.7,331.1 C181.7,340.1 167.1,340.1 158.1,331.1 C158.1,331.1 158.1,331.1 158.1,331.1 L17.8,190.7 L17.8,190.7 C8.9,181.7 8.8,167.1 17.8,158.1 L17.8,158.1 L158.2,17.7 C158.2,17.7 158.2,17.7 158.2,17.7 C162.7,13.3 168.6,11.1 174.5,11.1 L174.5,11.1 Z" id="Shape_10_"></path>
                    <path d="M157.8,79.1 C154.9,79.1 152.6,81.5 152.6,84.4 L152.6,140.1 L122.4,172.6 C121.5,173.6 121,174.9 121,176.2 L121,264.5 C121,266.4 122,268.2 123.6,269.1 C125.2,270.1 127.3,270.1 128.9,269.1 C130.5,268.1 131.5,266.4 131.5,264.5 L131.5,178.3 L161.7,145.8 C162.6,144.8 163.1,143.5 163.1,142.2 L163.1,84.4 C163.1,83 162.6,81.6 161.6,80.6 C160.6,79.6 159.2,79.1 157.8,79.1 L157.8,79.1 Z" id="Path_40_"></path>
                    <path d="M190.9,79.1 C188,79.1 185.7,81.5 185.7,84.4 L185.7,142.2 C185.7,143.5 186.2,144.8 187.1,145.8 L217.3,178.3 L217.3,264.5 C217.3,266.4 218.3,268.2 219.9,269.1 C221.5,270.1 223.6,270.1 225.2,269.1 C226.8,268.1 227.8,266.4 227.8,264.5 L227.8,176.2 C227.8,174.9 227.3,173.6 226.4,172.6 L196.2,140.1 L196.2,84.4 C196.2,83 195.7,81.6 194.7,80.6 C193.7,79.6 192.3,79.1 190.9,79.1 L190.9,79.1 Z" id="Path_41_"></path>
                </g>
            </g>
            <g id="noun_Travel_2603395" transform="translate(50.000000, 3330.000000)" fill="#37485E" fill-rule="nonzero" stroke="#FFFFFF" stroke-width="2">
                <g id="Group_2_">
                    <path d="M281.9,0.5 C261.1,0.5 244.4,17.2 244.4,38 C244.4,61.3 266.9,94.7 276.9,108.8 C279.4,112.1 284.4,112.1 286.9,108.8 C297.3,94.6 319.4,61.3 319.4,38 C319.4,17.2 302.7,0.5 281.9,0.5 Z M281.9,56.3 C271.9,56.3 263.6,48 263.6,38 C263.6,28 271.9,19.7 281.9,19.7 C291.9,19.7 300.2,28 300.2,38 C300.2,48 291.9,56.3 281.9,56.3 Z" id="Shape_11_"></path>
                    <path d="M38.1,184.3 C17.3,184.3 0.6,201 0.6,221.8 C0.6,245.1 23.1,278.5 33.1,292.6 C35.6,295.9 40.6,295.9 43.1,292.6 C53.5,278.4 75.6,245.1 75.6,221.8 C75.6,200.9 59,184.3 38.1,184.3 Z M38.1,240.1 C28.1,240.1 19.8,231.8 19.8,221.8 C19.8,211.8 28.1,203.5 38.1,203.5 C48.1,203.5 56.4,211.8 56.4,221.8 C56.5,231.8 48.1,240.1 38.1,240.1 Z" id="Shape_12_"></path>
                    <path d="M81,281.3 L71,281.3 C67.2,281.3 63.9,284.6 63.9,288.4 C63.9,292.2 67.2,295.5 71,295.5 L81,295.5 C84.8,295.5 88.1,292.2 88.1,288.4 C88.1,284.6 84.8,281.3 81,281.3 Z" id="Path_42_"></path>
                    <path d="M92.3,149.3 C95.6,149.3 98.5,147.2 99,143.9 C99.4,141 100.7,138.5 101.9,136 C103.6,132.7 101.9,128.1 98.6,126.8 C95.3,125.1 91.1,126.8 89.4,130.1 C87.7,133.4 86.5,137.2 85.6,140.9 C84.7,144.6 87.3,148.4 91,149.2 C91,149.3 91.9,149.3 92.3,149.3 Z" id="Path_43_"></path>
                    <path d="M245.6,99.3 L235.6,99.3 C231.8,99.3 228.5,102.6 228.5,106.4 C228.5,110.2 231.8,113.5 235.6,113.5 L245.6,113.5 C249.4,113.5 252.7,110.2 252.7,106.4 C252.7,102.6 249.8,99.3 245.6,99.3 Z" id="Path_44_"></path>
                    <path d="M116,118.4 C117.2,118.4 118.1,118 119.3,117.6 C121.8,116.4 124.3,115.1 127.2,114.7 C131,113.9 133,109.7 132.2,105.9 C131.4,102.1 127.2,99.7 123.4,100.9 C119.6,101.7 115.9,103.4 112.6,105.1 C109.3,106.8 107.6,110.9 109.7,114.7 C111,116.8 113.5,118.4 116,118.4 Z" id="Path_45_"></path>
                    <path d="M195.6,113.4 L205.6,113.4 C209.4,113.4 212.7,110.1 212.7,106.3 C212.7,102.5 209.4,99.2 205.6,99.2 L195.6,99.2 C191.8,99.2 188.5,102.5 188.5,106.3 C188.5,110.1 191.9,113.4 195.6,113.4 Z" id="Path_46_"></path>
                    <path d="M155.2,113.4 L165.2,113.4 C169,113.4 172.3,110.1 172.3,106.3 C172.3,102.5 169,99.2 165.2,99.2 L155.2,99.2 C151.4,99.2 148.1,102.5 148.1,106.3 C148.1,110.1 151.5,113.4 155.2,113.4 Z" id="Path_47_"></path>
                    <path d="M161.5,281.3 L151.5,281.3 C147.7,281.3 144.4,284.6 144.4,288.4 C144.4,292.2 147.7,295.5 151.5,295.5 L161.5,295.5 C165.3,295.5 168.6,292.2 168.6,288.4 C168.6,284.6 165.2,281.3 161.5,281.3 Z" id="Path_48_"></path>
                    <path d="M200.2,280.5 C197.7,280.9 195.2,281.3 192.7,281.3 L191.5,281.3 C187.7,281.3 184.4,284.6 184.4,288.4 C184.4,292.2 187.7,295.5 191.5,295.5 L192.7,295.5 C196,295.5 199.4,295.1 202.7,294.7 C206.5,293.9 208.9,290.1 208.1,286.4 C207.7,282.2 204,279.7 200.2,280.5 Z" id="Path_49_"></path>
                    <path d="M218.5,197.2 C215.2,195.1 211.4,193.9 207.7,192.6 C204,191.3 200.2,193.4 198.9,197.2 C197.6,201 199.7,204.7 203.5,206 C206,206.8 208.9,208.1 211.4,209.3 C212.6,209.7 213.9,210.1 214.7,210.1 C217.2,210.1 219.7,208.9 220.9,206.3 C223.1,203.4 221.9,198.8 218.5,197.2 Z" id="Path_50_"></path>
                    <path d="M236,258 C232.7,256.3 228.5,257.6 226.4,260.9 C225.2,263.4 223.5,265.9 221.4,268 C218.9,270.9 219.3,275.5 222.2,278 C223.4,279.2 225.1,279.7 226.8,279.7 C228.9,279.7 230.6,278.9 232.2,277.2 C234.7,274.3 236.8,271 238.9,267.6 C241,264.3 239.8,259.7 236,258 Z" id="Path_51_"></path>
                    <path d="M176,190.1 L166,190.1 C162.2,190.1 158.9,193.4 158.9,197.2 C158.9,201 162.2,204.3 166,204.3 L176,204.3 C179.8,204.3 183.1,201 183.1,197.2 C183.1,193.4 179.8,190.1 176,190.1 Z" id="Path_52_"></path>
                    <path d="M231.9,218.8 C228.1,220.5 226.5,224.2 228.1,228 C229.3,230.5 230.2,233.4 230.6,235.9 C231,239.2 234.4,241.7 237.7,241.7 C238.1,241.7 238.5,241.7 238.9,241.7 C242.7,240.9 245.1,237.5 244.7,233.4 C243.9,229.6 243,225.9 241.4,222.2 C239.8,219.3 235.6,217.6 231.9,218.8 Z" id="Path_53_"></path>
                    <path d="M121.5,281.3 L111.5,281.3 C107.7,281.3 104.4,284.6 104.4,288.4 C104.4,292.2 107.7,295.5 111.5,295.5 L121.5,295.5 C125.3,295.5 128.6,292.2 128.6,288.4 C128.6,284.6 125.2,281.3 121.5,281.3 Z" id="Path_54_"></path>
                    <path d="M136,190.1 C133.1,190.1 130.2,189.7 127.7,188.9 C123.9,188.1 120.2,190.1 119.4,193.9 C118.6,197.7 120.6,201.4 124.4,202.2 C128.2,203 131.9,203.4 136.1,203.9 L136.1,203.9 C139.9,203.9 143.2,201 143.2,196.8 C142.7,193.4 139.8,190.5 136,190.1 Z" id="Path_55_"></path>
                    <path d="M106.5,175.5 C104.8,173.4 103.2,170.9 101.9,168.4 C100.2,165.1 96.1,163.4 92.3,165.1 C89,166.8 87.3,170.9 89,174.7 C90.7,178 92.8,181.4 95.2,184.7 C96.4,186.4 98.5,187.2 100.6,187.2 C102.3,187.2 103.5,186.8 104.8,185.5 C108.5,183 109,178.8 106.5,175.5 Z" id="Path_56_"></path>
                </g>
            </g>
            <g id="Group" transform="translate(502.776500, 59.565900)" fill="#1C2A40" fill-rule="nonzero" font-family="IBMPlexSerif, IBM Plex Serif" font-size="68" font-weight="normal">
                <text id="Did-you-know-that-one-kilogram-of-beef-consumes-almost-15,500-liters-of">
                    <tspan x="0.2235" y="70">Did you know that one kilogram of beef consumes almost 15,500 liters of</tspan>
                </text>
                <text id="water?-That-is-as-much-as-250-five-minute-showers">
                    <tspan x="0.2235" y="151.6">water? That is as much as 250 five-minute showers</tspan>
                </text>
                <text id="The-production-of-on">
                    <tspan x="0.2235" y="553.2">The production of one kilogram of beef produces 60kg of emissions. To compare:</tspan>
                </text>
                <text id="60-kg-is-the-weight-of-274-Mc-Donald’s-Big-Macs.">
                    <tspan x="0.2235" y="634.8">60 kg is the weight of 274 Mc Donald’s Big Macs.</tspan>
                </text>
                <text id="Did-you-know-that-the-edible-proportion-of-beef-in-Germany-is-only-37%-of">
                    <tspan x="0.2235" y="1036.4">Did you know that the edible proportion of beef in Germany is only 37% of</tspan>
                </text>
                <text id="100%?-This-is-about-the-same-as-if-you-bake-a-cake,-cut-it-into-8-equal-pieces">
                    <tspan x="0.2235" y="1118">100%? This is about the same as if you bake a cake, cut it into 8 equal pieces</tspan>
                </text>
                <text id="and-throw-5-of-them-away.">
                    <tspan x="0.2235" y="1199.6">and throw 5 of them away.</tspan>
                </text>
                <text id="Did-you-know-that-1-kg-of-beef,-when-produced-outside-the-EU,-requires-the">
                    <tspan x="0.2235" y="1601.2">Did you know that 1 kg of beef, when produced outside the EU, requires the</tspan>
                </text>
                <text id="equivalent-of-49-square-meters-of-space?-That-is-as-much-as-a-typical-1-room">
                    <tspan x="0.2235" y="1682.8">equivalent of 49 square meters of space? That is as much as a typical 1 room</tspan>
                </text>
                <text id="apartment-in-Germany.-Only-for-1-kilogram-of-beef-instead-of-one-person.">
                    <tspan x="0.2235" y="1764.4">apartment in Germany. Only for 1 kilogram of beef instead of one person.</tspan>
                </text>
                <text id="In-addition-to-meat,-one-must-of-course-not-forget-that-dairy-products-such-as">
                    <tspan x="0.2235" y="2166">In addition to meat, one must of course not forget that dairy products such as</tspan>
                </text>
                <text id="butter,-cheese,-curd-cheese-and-milk-also-come-from-animals-and-therefore">
                    <tspan x="0.2235" y="2247.6">butter, cheese, curd cheese and milk also come from animals and therefore</tspan>
                </text>
                <text id="have-a-large-CO2-impact.-They-are-no-less-problematic-compared-meat.">
                    <tspan x="0.2235" y="2329.2">have a large CO2 impact. They are no less problematic compared meat.</tspan>
                </text>
                <text id="90-percent-of-the-fresh-meat-in-Germany-comes-from-livestock-farms.-A-cow">
                    <tspan x="0.2235" y="2730.8">90 percent of the fresh meat in Germany comes from livestock farms. A cow</tspan>
                </text>
                <text id="with-over-220-kilograms-has-only-1.8-square-meters-to-live.-This-is-only-the-space">
                    <tspan x="0.2235" y="2812.4">with over 220 kilograms has only 1.8 square meters to live. This is only the space</tspan>
                </text>
                <text id="of-when-you-walk-two-steps-forward-and-one-to-the-side.">
                    <tspan x="0.2235" y="2894">of when you walk two steps forward and one to the side.</tspan>
                </text>
                <text id="Did-you-know-that-not-all-regions-are-climate-friendly?-Because-feed-that-is-often">
                    <tspan x="0.2235" y="3295.6">Did you know that not all regions are climate-friendly? Because feed that is often</tspan>
                </text>
                <text id="produced-overseas-and-then-transported-to-various-farms-around-the-world.-So,-it">
                    <tspan x="0.2235" y="3377.2">produced overseas and then transported to various farms around the world. So, it</tspan>
                </text>
                <text id="is-possible-that-meat-from-Argentinean-cattle,-which-live-exclusively-on-pastureland,">
                    <tspan x="0.2235" y="3458.8">is possible that meat from Argentinean cattle, which live exclusively on pastureland,</tspan>
                </text>
                <text id="has-a-better-ecological-balance-sheet-than-regional-beef-from-cattle-that-are-only-in">
                    <tspan x="0.2235" y="3540.4">has a better ecological balance sheet than regional beef from cattle that are only in</tspan>
                </text>
                <text id="the-barn-and-that-are-fattened-with-concentrated-feed-from-overseas.">
                    <tspan x="0.2235" y="3622">the barn and that are fattened with concentrated feed from overseas.</tspan>
                </text>
            </g>
        </g>
    </g>
</svg>