<?xml version="1.0" encoding="utf-8"?>
<!-- Generator: Adobe Illustrator 24.2.1, SVG Export Plug-In . SVG Version: 6.00 Build 0)  -->
<svg version="1.1" id="Layer_1" xmlns="http://www.w3.org/2000/svg" xmlns:xlink="http://www.w3.org/1999/xlink" x="0px" y="0px"
	 viewBox="0 0 6367 1363.6" style="enable-background:new 0 0 6367 1363.6;" xml:space="preserve">
<style type="text/css">
	.st0{fill:#FFFFFF;}
	.st1{fill:none;stroke:#FFFFFF;stroke-width:8.3043;stroke-linecap:round;stroke-linejoin:round;}
	.st2{fill:none;stroke:#FFFFFF;stroke-width:7.7691;}
	.st3{fill:#FFFFFF;stroke:#FFFFFF;stroke-width:0.5;}
	.st4{fill:none;stroke:#FFFFFF;stroke-width:8.5819;stroke-linecap:round;}
	.st5{fill:#FFFFFF;stroke:#FFFFFF;stroke-width:2;}
	.st6{fill:none;stroke:#FFFFFF;stroke-width:7;stroke-linecap:round;}
	.st7{font-family:'IBMPlexSerif-Medium';}
	.st8{font-size:101.7442px;}
	.st9{fill:none;}
	.st10{font-family:'IBMPlexSerif-Light';}
	.st11{font-size:72px;}
</style>
<text transform="matrix(1 0 0 1 286.1228 496.0427)" class="st0 st7 st8">Land Use</text>
<text transform="matrix(1 0 0 1 1137.1226 496.0427)" class="st0 st7 st8">Agriculture</text>
<text transform="matrix(1 0 0 1 2007.1226 496.0427)" class="st0 st7 st8">Animal feed</text>
<text transform="matrix(1 0 0 1 3829.1226 496.0427)" class="st0 st7 st8">Transport</text>
<text transform="matrix(1 0 0 1 4811.1226 496.0427)" class="st0 st7 st8">Retail</text>
<text transform="matrix(1 0 0 1 5594.123 496.0427)" class="st0 st7 st8">Packaging</text>
<text transform="matrix(1 0 0 1 2914.1226 496.0427)" class="st0 st7 st8">Processing</text>
<g id="noun_Factory_1474011_1_" transform="translate(2960.000000, 0.000000)">
	<g id="Group_7_">
		<path id="Shape_21_" class="st0" d="M220.7,139.5h-76.8c-2.7,0-5.1,2.1-5.1,4.8l-7.5,151.6c0,1.5,0.3,2.7,1.5,3.9
			c0.9,0.9,2.4,1.5,3.9,1.5h91.9c1.5,0,2.7-0.6,3.6-1.5c0.9-0.9,1.5-2.4,1.5-3.9l-7.5-151.6C225.8,141.6,223.7,139.5,220.7,139.5z
			 M140.2,292.3l7.2-143.8H217l7.2,143.8H140.2z"/>
		<path id="Path_21_" class="st0" d="M213.4,263.7h-60c-2.4,0-4.5,2.1-4.5,4.5c0,2.4,2.1,4.5,4.5,4.5h60c2.4,0,4.5-2.1,4.5-4.5
			C217.9,265.8,215.8,263.7,213.4,263.7z"/>
		<path id="Shape_20_" class="st0" d="M147.7,111.5c7.8,6.6,14.5,6.6,19.6,5.7c4.5,3.9,10.5,6.3,16.6,6.3c8.1,0,15.7-3.9,20.5-10.5
			c12.7-1.8,22-12.4,22-25.3c0-14.2-11.8-25.9-25.9-25.6c-4.2-6.9-11.8-10.8-20.2-10.8c-10.5,0-19.9,6.6-23.8,16.3
			c-5.1,1.2-9.6,4.2-13,8.1c-4.2,4.8-6,11.2-5.7,17.5C138.7,100,142.3,107,147.7,111.5z M150.4,81.4c2.4-3,6-4.8,9.9-5.4
			c2.1-0.3,3.6-1.8,4.2-3.6c2.1-6.9,8.4-12.1,15.7-12.1c6,0,11.5,3.3,14.5,8.7c0.9,1.5,2.7,2.4,4.5,2.4h0.6c0.6,0,0.9,0,1.5,0
			c9,0,16.6,7.5,16.6,16.6c0,8.7-6.9,16-15.7,16.3c-1.8,0-3.3,0.9-4.2,2.4c-3,5.1-8.1,7.8-14.2,7.8c-4.5,0-8.7-1.8-11.8-5.1
			c-0.9-0.9-2.4-1.5-3.6-1.5c-0.6,0-0.9,0-1.5,0.3c-4.2,1.2-8.4,0.9-13.9-3.3c-3.6-3-6-7.5-6.3-12.1C146.8,88.3,148,84.4,150.4,81.4
			z"/>
		<path id="Shape_19_" class="st0" d="M314.4,201.3c0-2.7-2.4-4.8-5.1-4.8h-47.9c-2.7,0-5.1,2.1-5.1,4.8l-4.8,94.6
			c0,1.5,0.6,2.7,1.5,3.9c0.9,0.9,2.4,1.5,3.6,1.5h57.3c1.5,0,2.7-0.6,3.9-1.5c0.9-0.9,1.5-2.4,1.5-3.9L314.4,201.3z M260.7,292.3
			l4.2-86.8h40.7l4.2,86.8H260.7z"/>
		<path id="Path_20_" class="st0" d="M300.2,274.2h-29.5c-2.4,0-4.5,2.1-4.5,4.5c0,2.4,2.1,4.5,4.5,4.5h29.5c2.4,0,4.5-2.1,4.5-4.5
			C304.7,276.3,302.6,274.2,300.2,274.2z"/>
		<path id="Shape_18_" class="st0" d="M261.9,181.4c5.4,4.5,9.9,5.1,13.6,4.5c3,2.4,6.9,3.9,10.8,3.9c5.4,0,10.5-2.4,13.9-6.9
			c8.4-1.5,14.8-8.7,14.8-17.5c0-9.6-7.5-17.5-17.2-17.8c-3.3-4.2-8.4-6.6-13.9-6.6c-6.9,0-13.3,4.2-16,10.5
			c-6,1.8-10.8,7.2-12.1,13.6C254.7,170.9,257.1,177.2,261.9,181.4z M264.7,166.6c0.6-3.6,3.6-6.3,6.9-6.9c1.8-0.3,3.6-1.8,3.9-3.6
			c1.2-3.6,4.5-6.3,8.1-6.3c3,0,6,1.8,7.5,4.5c0.9,1.5,2.7,2.4,4.5,2.4h0.3c0.3,0,0.6,0,0.6,0c4.8,0,8.7,3.9,8.7,8.7
			c0,4.5-3.6,8.4-8.1,8.7c-1.5,0-3,0.9-3.9,2.4c-1.5,2.7-4.2,4.2-7.2,4.2c-2.4,0-4.5-0.9-6-2.7c-0.9-0.9-2.4-1.5-3.6-1.5
			c-0.3,0-0.9,0-1.2,0.3c-2.1,0.6-3.9,0.9-7.5-2.1C265.6,172.4,264.4,169.4,264.7,166.6z"/>
		<path id="Shape_17_" class="st0" d="M289.6,136.4c3.3,2.8,6.1,3.2,8.3,2.8c1.8,1.5,4.2,2.4,6.6,2.4c3.3,0,6.4-1.5,8.4-4.3
			c5.1-0.9,9-5.4,9-10.8c0-6-4.6-10.8-10.5-11c-2-2.6-5.1-4.1-8.4-4.1c-4.2,0-8.1,2.6-9.7,6.5c-3.7,1.1-6.6,4.5-7.3,8.4
			C285.2,129.9,286.7,133.8,289.6,136.4z M291.8,127.4c0.4-2.1,2.1-3.7,4.1-4c1.1-0.2,2.1-1.1,2.3-2.1c0.7-2.1,2.7-3.7,4.8-3.7
			c1.8,0,3.6,1.1,4.5,2.6c0.5,0.9,1.6,1.4,2.7,1.4h0.2c0.2,0,0.4,0,0.4,0c2.9,0,5.2,2.3,5.2,5.1c0,2.6-2.1,4.9-4.8,5.1
			c-0.9,0-1.8,0.5-2.3,1.4c-0.9,1.6-2.5,2.5-4.3,2.5c-1.4,0-2.7-0.5-3.6-1.6c-0.5-0.5-1.4-0.9-2.1-0.9c-0.2,0-0.5,0-0.7,0.2
			c-1.2,0.4-2.3,0.5-4.5-1.2C292.3,130.7,291.6,128.9,291.8,127.4z"/>
		<path id="Shape_16_" class="st0" d="M207.7,52.4c5.4,4.5,9.9,5.1,13.6,4.5c3,2.4,6.9,3.9,10.8,3.9c5.4,0,10.5-2.4,13.9-6.9
			c8.4-1.5,14.8-8.7,14.8-17.5c0-9.6-7.5-17.5-17.2-17.8c-3.3-4.2-8.4-6.6-13.9-6.6c-6.9,0-13.3,4.2-16,10.5
			c-6,1.8-10.8,7.2-12.1,13.6C200.5,41.9,202.9,48.2,207.7,52.4z M210.4,37.7c0.6-3.6,3.6-6.3,6.9-6.9c1.8-0.3,3.6-1.8,3.9-3.6
			c1.2-3.6,4.5-6.3,8.1-6.3c3,0,6,1.8,7.5,4.5c0.9,1.5,2.7,2.4,4.5,2.4h0.3c0.3,0,0.6,0,0.6,0c4.8,0,8.7,3.9,8.7,8.7
			c0,4.5-3.6,8.4-8.1,8.7c-1.5,0-3,0.9-3.9,2.4c-1.5,2.7-4.2,4.2-7.2,4.2c-2.4,0-4.5-0.9-6-2.7c-0.9-0.9-2.4-1.5-3.6-1.5
			c-0.3,0-0.9,0-1.2,0.3c-2.1,0.6-3.9,0.9-7.5-2.1C211.3,43.4,210.1,40.4,210.4,37.7z"/>
	</g>
</g>
<g id="noun_Airplane_2481268_1_" transform="translate(3851.000000, 102.000000)">
	<path id="Shape_15_" class="st0" d="M301.9,40.2c1.3-3.4,2-7,2.1-10.6c0.3-5.7-2.3-11.1-6.9-14.4c-5.3-3.7-12.9-4.1-21.3-1.1
		c-0.1,0-0.2,0.1-0.3,0.1c-7.2,2.9-13.8,7.3-19.1,13l-24.6,25.4L153.4,23c-13.9-5.6-28.1-2.2-35.6,8.4c-3.3,4.6-2.3,11.1,2.3,14.5
		l68.5,51.3l-7.4,7.6c-7.4,7.7-14.5,15.7-21.2,23.9l-34.4-5c-2-0.3-4,0.9-4.6,2.9l-5,15.8c-0.6,2,0.3,4.2,2.2,5l20.6,9.5
		c-5.6,8-11,16.1-16.1,24.2c-2.2,3.4-1.7,7.9,1.2,10.8c2.9,2.9,7.4,3.4,10.8,1.2c8.1-5.1,16.2-10.5,24.1-16.1l9.5,20.6
		c0.9,1.9,3,2.9,5,2.2l15.8-5c2-0.6,3.2-2.6,2.9-4.6l-5-34.5c8-6.5,15.9-13.5,23.5-20.8l8-7.7l51.4,68.5c3.4,4.6,9.8,5.6,14.5,2.3
		c10.6-7.4,14-21.7,8.4-35.5l-29.7-78.4l25.4-24.5C294.5,54.3,299,47.6,301.9,40.2z M125.2,39.1c-0.9-0.7-1.2-2-0.5-3
		c6.3-9.1,17.7-8.6,25.7-5.4l75,28.4l-30.9,32L125.2,39.1z M285.3,165.7c3.2,7.8,3.7,19.2-5.4,25.6c-1,0.7-2.3,0.5-3-0.5l-52-69.4
		l32-30.9L285.3,165.7z M205,129c-7.9,7.6-16.1,14.9-24.5,21.6c-1.1,0.8-1.8,2.1-1.8,3.5c0,0.2,0,0.4,0,0.6l4.9,33.3l-8.9,2.8
		l-10.1-21.9c-0.5-1.1-1.5-2-2.7-2.3c-1.2-0.3-2.5-0.1-3.5,0.6c-9.2,6.6-18.6,12.9-27.9,18.8c-0.1,0.1-0.3,0.1-0.4-0.1
		c-0.1-0.1-0.1-0.3-0.1-0.4c5.9-9.3,12.2-18.7,18.8-27.9c0.7-1,1-2.3,0.6-3.5s-1.2-2.2-2.3-2.7l-21.9-10.1l2.8-8.9l33.1,4.8l0.1,0
		c1.8,0.3,3.7-0.6,4.5-2.3c6.7-8.3,14-16.5,21.5-24.4L262.3,33c4.5-4.8,10.1-8.6,16.3-11c0.1,0,0.2-0.1,0.3-0.1
		c5.6-2,10.4-1.9,13.4,0.1c2.3,1.8,3.5,4.7,3.3,7.6c-0.1,2.7-0.6,5.3-1.5,7.8c-2.4,6.2-6.2,11.8-11.1,16.3L205,129z"/>
</g>
<g id="Group-2_1_" transform="translate(4744.000000, 118.000000)">
	<polyline id="Path-14_1_" class="st1" points="100.1,12 127,12 131.6,32.5 152.6,127 264.1,127 	"/>
	<circle id="Oval_3_" class="st2" cx="173.6" cy="162.5" r="17.5"/>
	<circle id="Oval_2_" class="st2" cx="243.6" cy="162.5" r="17.5"/>
	<polygon id="Path-15_1_" class="st1" points="133.1,33 290.1,33 274.7,103 148.2,103 	"/>
</g>
<g id="noun_sausages_2556563_1_" transform="translate(5644.000000, 60.000000)">
	<g id="Group_6_" transform="translate(0.038435, 0.000000)">
		<path id="Shape_14_" class="st0" d="M138.7,12c-18.8,0-34.1,15.3-34.1,34.1v161.3c0,18.8,15.3,34.1,34.1,34.1h99.7
			c18.8,0,34.1-15.3,34.1-34.1V46.1c0-18.8-15.3-34.1-34.1-34.1H138.7z M143.9,34.5h26.9c-1.2,6.4-6.8,11.2-13.5,11.2
			C150.6,45.8,145,40.9,143.9,34.5z M177.1,84.6h-39.5V69.8c0-10.1,8.9-18.3,19.7-18.3c10.9,0,19.7,8.2,19.7,18.3V84.6L177.1,84.6z
			 M266.7,90.3v72.9H110.3V90.3H266.7z M206.3,34.5h26.9c-1.2,6.4-6.8,11.2-13.5,11.2S207.4,40.9,206.3,34.5z M239.4,84.6H200V69.8
			c0-10.1,8.9-18.3,19.7-18.3s19.7,8.2,19.7,18.3V84.6L239.4,84.6z M233.2,219.2h-26.9c1.2-6.4,6.8-11.2,13.5-11.2
			S232,212.8,233.2,219.2z M200,168.9h39.5v15c0,10.1-8.9,18.3-19.7,18.3S200,194,200,183.9V168.9L200,168.9z M170.8,219.2h-26.9
			c1.2-6.4,6.8-11.2,13.5-11.2C164,208,169.6,212.8,170.8,219.2z M137.6,168.9h39.5v15c0,10.1-8.9,18.3-19.7,18.3
			c-10.9,0-19.7-8.2-19.7-18.3V168.9L137.6,168.9z M238.4,235.8h-99.7c-15.6,0-28.4-12.7-28.4-28.4v-38.5h21.5v15
			c0,9.6,6,17.8,14.5,21.7c-5.1,3.5-8.5,9.4-8.5,16v0.4c0,1.6,1.3,2.9,2.9,2.9h33.1c1.6,0,2.9-1.3,2.9-2.9v-0.4
			c0-6.7-3.4-12.5-8.5-16c8.6-3.9,14.5-12.1,14.5-21.7v-15h11.5v15c0,9.6,6,17.8,14.5,21.7c-5.1,3.5-8.5,9.4-8.5,16v0.4
			c0,1.6,1.3,2.9,2.9,2.9h33.1c1.6,0,2.9-1.3,2.9-2.9v-0.4c0-6.7-3.4-12.5-8.5-16c8.6-3.9,14.5-12.1,14.5-21.7v-15h21.5v38.5
			C266.7,223,254,235.8,238.4,235.8z M266.7,46.1v38.5h-21.5V69.8c0-9.6-6-17.8-14.5-21.7c5.1-3.5,8.5-9.4,8.5-16v-0.4
			c0-1.6-1.3-2.9-2.9-2.9h-33.1c-1.6,0-2.9,1.3-2.9,2.9v0.4c0,6.7,3.4,12.5,8.5,16c-8.6,3.9-14.5,12.1-14.5,21.7v14.8h-11.5V69.8
			c0-9.6-6-17.8-14.5-21.7c5.1-3.5,8.5-9.4,8.5-16v-0.4c0-1.6-1.3-2.9-2.9-2.9h-33.1c-1.6,0-2.9,1.3-2.9,2.9v0.4
			c0,6.7,3.4,12.5,8.5,16c-8.6,3.9-14.5,12.1-14.5,21.7v14.8h-21.5V46.1c0-15.6,12.7-28.4,28.4-28.4h99.7
			C254,17.8,266.7,30.5,266.7,46.1z"/>
		<path id="Shape_13_" class="st0" d="M123.9,144.9h61.8c1.6,0,2.9-1.3,2.9-2.9v-32.7c0-1.6-1.3-2.9-2.9-2.9h-61.8
			c-1.6,0-2.9,1.3-2.9,2.9v32.7C121,143.7,122.3,144.9,123.9,144.9z M126.8,112.3h56.1v26.9h-56.1V112.3z"/>
		<path id="Path_19_" class="st3" d="M206.5,122.3h42.4c1.3,0,2.3-1.3,2.3-2.9s-1-2.9-2.3-2.9h-42.4c-1.3,0-2.3,1.3-2.3,2.9
			S205.2,122.3,206.5,122.3z"/>
		<path id="Path_18_" class="st3" d="M207.8,134.9h39.9c2,0,3.7-1.3,3.7-2.9s-1.6-2.9-3.7-2.9h-39.9c-2,0-3.7,1.3-3.7,2.9
			S205.8,134.9,207.8,134.9z"/>
	</g>
</g>
<g id="noun_bag_606249_1_" transform="translate(2072.000000, 50.000000)">
	<g id="Group_5_" transform="translate(0.269299, 0.000000)">
		<path id="Shape_12_" class="st0" d="M297.6,12.3c-1.3,0-2.8,0.1-4.3,0.4c-5.3,1-11.7,5-18.3,10.8H165.5c-5.7-4.9-11.4-8.3-16-9.3
			c-5.3-1.1-9.5-0.5-10.8-0.6h-0.1c0,0-0.1,0-0.1,0c-0.1,0-0.1,0-0.2,0c-1.3,0-3.1,0.2-4.9,1.5c-4.3,3.2-6,8.4-6.2,15.8
			c-0.2,6.8,2.1,15.9,7.1,25.7c-2.5,17.4-4.1,44.3-4.1,75.2s1.6,57.8,4.1,75.2c-5,9.9-7.3,18.9-7.1,25.7c0.3,7.4,1.9,12.6,6.2,15.8
			c5.8,4.3,18.1,4.1,32.2-8.4h109.5c14.1,12.5,26.4,12.6,32.2,8.4c4.4-3.2,6-8.4,6.2-15.8c0.2-6.9-2.1-15.9-7.1-25.7
			c1.3-9.3,2.4-21.2,3.1-35c0.6-12.1,1-25.7,1-40.2c0-30.9-1.6-57.8-4.1-75.3c5-9.9,7.3-18.9,7.1-25.7c-0.3-7.4-1.9-12.6-6.2-15.8
			C305,13.5,301.7,12.3,297.6,12.3z M299.5,22.4c1,0.2,1.6,0.5,1.8,0.6c-0.6-0.5,2,2.8,2.2,8.2c0.2,5.5-1.2,13.2-6.5,22.8
			c-0.5,0.9-0.7,2-0.5,3.1c2.4,16.6,4.1,43.8,4.1,74.8s-1.6,58.2-4.1,74.7c-0.2,1.1,0,2.1,0.5,3.1c5.3,9.6,6.7,17.4,6.5,22.9
			c-0.2,5.5-2.8,8.7-2.2,8.2c-0.6,0.5-8.4,4.2-21.6-8.9c-0.9-0.9-2.2-1.4-3.5-1.4H164.5c-1.3,0-2.6,0.5-3.5,1.4
			c-13.2,13-21,9.3-21.6,8.9c0.6,0.5-2-2.8-2.2-8.2c-0.2-5.5,1.2-13.3,6.5-22.9c0.5-0.9,0.7-2,0.5-3.1c-2.4-16.5-4.1-43.7-4.1-74.7
			s1.6-58.2,4.1-74.8c0.2-1.1,0-2.1-0.5-3.1c-5.3-9.6-6.7-17.4-6.5-22.8c0.2-5.1,2.3-7.7,2.1-7.7c2.8,0,5.2-0.3,8.3,0.3
			c3.5,0.7,7.9,2.6,13.5,8c0.9,0.9,2.2,1.5,3.5,1.5h111.7c1.3,0,2.6-0.5,3.5-1.5c6.6-6.5,11.9-8.8,15.5-9.5
			C297.1,22.1,298.5,22.2,299.5,22.4z M165.2,92.6c-2.8,0-5,2.2-5,4.9v59.1c0,2.7,2.2,4.9,5,4.9h110.2c2.8,0,5-2.2,5-4.9V97.5
			c0-2.7-2.2-4.9-5-4.9H165.2z M170.2,102.4h100.2v49.3H170.2V102.4z"/>
		<line id="Path-13_3_" class="st4" x1="182.8" y1="118.8" x2="242" y2="118.9"/>
		<line id="Path-13_2_" class="st4" x1="182.8" y1="135.1" x2="242.2" y2="135.1"/>
	</g>
</g>
<g id="noun_Global-Warming_2684613_1_" transform="translate(1147.000000, 40.000000)">
	<g id="Group_4_">
		<path id="Path_17_" class="st5" d="M394.5,155.6c-43.4,7.2-127,30-198.9,100.8c-1.2,1.2-1.2,3.2,0,4.4c0.6,0.6,1.4,0.9,2.2,0.9
			c0.8,0,1.6-0.3,2.2-0.9c70.7-69.6,152.9-91.9,195.6-99.1c1.7-0.3,2.9-1.9,2.6-3.6C397.8,156.5,396.2,155.3,394.5,155.6z"/>
		<path id="Path_16_" class="st5" d="M394.3,186.8c-37.2,8.7-92.8,27.9-146,69.4c-1.4,1.1-1.6,3-0.5,4.4c0.6,0.8,1.5,1.2,2.5,1.2
			c0.7,0,1.3-0.2,1.9-0.7c52.3-40.8,106.9-59.6,143.5-68.2c1.7-0.4,2.7-2.1,2.3-3.8C397.6,187.5,396,186.4,394.3,186.8z"/>
		<path id="Path_15_" class="st5" d="M398,221.5c-0.5-1.7-2.2-2.6-3.9-2.1c-29.8,8.9-58.2,21.3-84.5,36.8c-1.5,0.9-2,2.8-1.1,4.3
			c0.6,1,1.6,1.5,2.7,1.5c0.5,0,1.1-0.1,1.6-0.4c25.9-15.2,53.9-27.4,83.2-36.2C397.5,224.9,398.5,223.2,398,221.5z"/>
		<path id="Path_14_" class="st5" d="M151.1,104.2c0.7,0,69.7,4.1,144.3,46.7c-10.2,4.1-20.8,8.8-31.7,14.3
			c-44.6-23.2-85.5-33.3-112-37.8c-1.7-0.3-3.3,0.9-3.6,2.6c-0.3,1.7,0.9,3.3,2.6,3.6c25.3,4.2,63.9,13.8,106.2,35.1
			c-9.3,5-18.8,10.5-28.3,16.7c-24.6-11.6-50.4-20.6-76.7-26.8c-1.7-0.4-3.4,0.6-3.8,2.3s0.7,3.4,2.3,3.8
			c24.7,5.8,48.9,14.1,72,24.8c-8.3,5.7-16.6,11.8-24.9,18.6c-14.7-6.5-30.1-12.2-45.5-16.8c-1.7-0.5-3.4,0.4-3.9,2.1
			c-0.5,1.7,0.4,3.4,2.1,3.9c14.2,4.3,28.3,9.4,41.9,15.3c-15,12.7-29.6,27.3-43.5,44.1c-1.1,1.3-0.9,3.3,0.4,4.4
			c0.6,0.5,1.3,0.7,2,0.7c0.9,0,1.8-0.4,2.4-1.1c98.8-119.5,240.1-128.1,241.5-128.2c1.7-0.1,3-1.6,3-3.3c-0.1-1.7-1.6-3.1-3.3-3
			c-0.8,0-40.1,2.4-91.9,21.9c-77.7-45.8-150.8-50-151.5-50c-1.7-0.1-3.2,1.2-3.3,3C148,102.7,149.4,104.2,151.1,104.2z"/>
		<path id="Path_13_" class="st5" d="M250.1,35.1c0-9.8-3.9-15.1-7-19.3c-0.6-0.8-1.2-1.6-1.8-2.4c-1-1.4-2.9-1.8-4.3-0.8
			c-1.4,1-1.8,2.9-0.8,4.3c0.6,0.9,1.3,1.8,1.9,2.7c3,4,5.8,7.8,5.8,15.5c0,6.1-2,9.1-4.3,12.4c-2.5,3.7-5.4,7.9-5.4,16
			c0,8.1,2.9,12.3,5.4,16c0.6,0.9,1.6,1.4,2.6,1.4c0.6,0,1.2-0.2,1.8-0.5c1.4-1,1.8-2.9,0.8-4.3c-2.3-3.4-4.3-6.3-4.3-12.4
			c0-6.1,2-9.1,4.3-12.4C247.2,47.4,250.1,43.2,250.1,35.1z"/>
		<path id="Path_12_" class="st5" d="M281.1,35.1c0-9.8-3.9-15.1-7-19.3c-0.6-0.8-1.2-1.6-1.8-2.4c-1-1.4-2.9-1.8-4.3-0.8
			c-1.4,1-1.8,2.9-0.8,4.3c0.6,0.9,1.3,1.8,1.9,2.7c3,4,5.8,7.8,5.8,15.5c0,6.1-2,9.1-4.3,12.4c-2.5,3.7-5.4,7.9-5.4,16
			c0,8.1,2.9,12.3,5.4,16c0.6,0.9,1.6,1.4,2.6,1.4c0.6,0,1.2-0.2,1.8-0.5c1.4-1,1.8-2.9,0.8-4.3c-2.3-3.4-4.3-6.3-4.3-12.4
			c0-6.1,2-9.1,4.3-12.4C278.2,47.4,281.1,43.2,281.1,35.1z"/>
		<path id="Path_11_" class="st5" d="M312.1,35.1c0-9.8-3.9-15.1-7-19.3c-0.6-0.8-1.2-1.6-1.8-2.4c-1-1.4-2.9-1.8-4.3-0.8
			c-1.4,1-1.8,2.9-0.8,4.3c0.6,0.9,1.3,1.8,1.9,2.7c3,4,5.8,7.8,5.8,15.5c0,6.1-2,9.1-4.3,12.4c-2.5,3.7-5.4,7.9-5.4,16
			c0,8.1,2.9,12.3,5.4,16c0.6,0.9,1.6,1.4,2.6,1.4c0.6,0,1.2-0.2,1.8-0.5c1.4-1,1.8-2.9,0.8-4.3c-2.3-3.4-4.3-6.3-4.3-12.4
			c0-6.1,2-9.1,4.3-12.4C309.2,47.4,312.1,43.2,312.1,35.1z"/>
	</g>
</g>
<path id="Shape_11_" class="st0" d="M573.4,272.1c-10.2,0-19.8-5.4-25.8-14.4c10.1-9.7,16.4-22.9,17.7-37.3c0,0,0-0.1,0-0.1
	c0-0.4,0.1-0.9,0.1-1.3c0-0.1,0-0.3,0-0.4c0-0.4,0-0.7,0.1-1.1c0-0.2,0-0.5,0-0.7c0-0.3,0-0.5,0-0.8c0-0.5,0-1,0-1.5
	c0-0.6,0-1.1,0-1.7c0-0.1,0-0.2,0-0.3c0-0.5,0-1-0.1-1.5c0-0.1,0-0.1,0-0.2c-0.4-7.6-1.9-16.9-4.2-26.5c-0.1-0.3-0.1-0.6-0.2-0.9
	c-0.1-0.4-0.2-0.8-0.3-1.2c-0.1-0.5-0.2-1-0.4-1.5c0-0.2-0.1-0.4-0.1-0.6c-0.1-0.3-0.2-0.7-0.3-1c5.8-8.3,10.4-10.1,13.3-10.1
	c6.8,0,14.9,9.7,21.6,25.8c5.9,14.1,10.2,32.1,10.2,42.7C605.2,256.5,590.9,272.1,573.4,272.1L573.4,272.1z M515.6,242.1l22.6-16.3
	c1.8-1.3,2.2-3.8,0.9-5.6c-1.3-1.8-3.8-2.2-5.6-0.9l-17.9,12.9v-33.6l14.8-10.7c1.8-1.3,2.2-3.8,0.9-5.6c-1.3-1.8-3.8-2.2-5.6-0.9
	l-10.2,7.3v-20.8c0-2.2-1.8-4-4-4c-2.2,0-4,1.8-4,4v44.1L490,199.5c-1.8-1.3-4.3-0.9-5.6,0.9c-1.3,1.8-0.9,4.3,0.9,5.6l22.3,16.1
	v42.4c-21.6-2-38.9-20.3-41.7-43.4c0,0,0-0.1,0-0.1c0-0.3-0.1-0.7-0.1-1c0-0.1,0-0.3,0-0.4c0-0.3,0-0.6-0.1-0.9c0-0.2,0-0.4,0-0.6
	c0-0.2,0-0.5,0-0.7c0-0.3,0-0.5,0-0.8c0-0.2,0-0.4,0-0.5c0-0.5,0-0.9,0-1.4c0-0.4,0-0.8,0-1.2c0-0.1,0-0.3,0-0.4c0-0.3,0-0.7,0-1
	c0.4-8.7,2.4-20.3,5.7-32.5c0-0.1,0-0.1,0-0.2c2.3-8.5,5.2-17.1,8.6-25c9.9-23.6,21.4-37.1,31.7-37.1c10.3,0,21.8,13.5,31.7,37.1
	c3.3,7.9,6.2,16.5,8.6,25c0,0.1,0,0.1,0,0.2c3.3,12.2,5.3,23.8,5.7,32.5c0,0.3,0,0.7,0,1c0,0.1,0,0.3,0,0.4c0,0.4,0,0.8,0,1.2
	c0,0.5,0,0.9,0,1.4c0,0.2,0,0.4,0,0.5c0,0.3,0,0.5,0,0.8c0,0.2,0,0.5,0,0.7c0,0.2,0,0.4,0,0.6c0,0.3,0,0.6-0.1,0.9
	c0,0.1,0,0.3,0,0.4c0,0.3-0.1,0.7-0.1,1c0,0,0,0.1,0,0.1c-2.7,23.2-20.1,41.4-41.7,43.5V242.1z M449.9,272.1
	c-17.5,0-31.8-15.6-31.8-34.7c0-10.7,4.3-28.7,10.2-42.7c6.8-16.2,14.8-25.8,21.6-25.8c2.9,0,7.5,1.8,13.3,10.1
	c-0.1,0.4-0.2,0.7-0.3,1c0,0.2-0.1,0.4-0.1,0.5c-0.1,0.5-0.3,1-0.4,1.5c-0.1,0.4-0.2,0.8-0.3,1.2c-0.1,0.3-0.1,0.6-0.2,0.9
	c-2.3,9.7-3.8,18.9-4.2,26.5c0,0.1,0,0.1,0,0.2c0,0.5,0,1-0.1,1.5c0,0.1,0,0.2,0,0.3c0,0.6,0,1.1,0,1.7c0,0.5,0,1,0,1.5
	c0,0.3,0,0.5,0,0.8c0,0.2,0,0.5,0,0.7c0,0.4,0,0.7,0.1,1.1c0,0.1,0,0.3,0,0.4c0,0.4,0.1,0.9,0.1,1.3c0,0,0,0.1,0,0.1
	c1.4,14.4,7.6,27.6,17.7,37.3C469.7,266.7,460.1,272.1,449.9,272.1L449.9,272.1z M613.1,237.4c0-11.8-4.4-30.6-10.8-45.8
	c-10.6-25.4-21.6-30.7-29-30.7c-5.5,0-10.9,2.9-16,8.7c-2-6.4-4.2-12.6-6.7-18.5c-5.1-12.1-10.6-21.8-16.5-28.9
	c-7.2-8.7-14.8-13.1-22.5-13.1s-15.3,4.4-22.5,13.1c-5.9,7.1-11.5,16.8-16.5,28.9c-2.5,5.9-4.7,12.2-6.7,18.5
	c-5.1-5.7-10.5-8.7-16-8.7c-13.3,0-23.1,16.7-29,30.7c-6.3,15.2-10.8,34-10.8,45.8c0,22.1,15.7,40.3,35.8,42.4v15.2c0,2.2,1.8,4,4,4
	c2.2,0,4-1.8,4-4v-15.2c11.1-1.2,21.3-7.4,27.9-17c7.5,5.4,16.3,8.8,25.8,9.5v22.7c0,2.2,1.8,4,4,4c2.2,0,4-1.8,4-4v-22.7
	c9.5-0.7,18.3-4.2,25.8-9.5c6.7,9.6,16.8,15.8,27.9,17v15.2c0,2.2,1.8,4,4,4s4-1.8,4-4v-15.2C597.4,277.7,613.1,259.5,613.1,237.4
	L613.1,237.4z"/>
<line id="Path-2_1_" class="st6" x1="422.1" y1="308" x2="599.1" y2="308"/>
<rect x="184.2" y="640.9" class="st9" width="665.6" height="673.3"/>
<text transform="matrix(1 0 0 1 293.3821 695.4516)"><tspan x="0" y="0" class="st0 st10 st11">Aboveground </tspan><tspan x="44.7" y="86.4" class="st0 st10 st11">changes in </tspan><tspan x="-26.6" y="172.8" class="st0 st10 st11">biomass due to </tspan><tspan x="-5.7" y="259.2" class="st0 st10 st11">deforestation, </tspan><tspan x="-66.9" y="345.6" class="st0 st10 st11">and underground </tspan><tspan x="-21.6" y="432" class="st0 st10 st11">changes in soil </tspan><tspan x="107.9" y="518.4" class="st0 st10 st11">carbon</tspan></text>
<rect x="1073.3" y="640.9" class="st9" width="665.6" height="713.1"/>
<text transform="matrix(1 0 0 1 1258.5867 695.4516)"><tspan x="0" y="0" class="st0 st10 st11">methane </tspan><tspan x="-109.3" y="86.4" class="st0 st10 st11">emissions from </tspan><tspan x="-170.5" y="172.8" class="st0 st10 st11">animals, emissions </tspan><tspan x="-108.7" y="259.2" class="st0 st10 st11">from fertilizers, </tspan><tspan x="-142.4" y="345.6" class="st0 st10 st11">manure and farm </tspan><tspan x="-31.3" y="432" class="st0 st10 st11">machinery</tspan></text>
<rect x="1962.5" y="640.9" class="st9" width="665.6" height="873.6"/>
<text transform="matrix(1 0 0 1 2038.4336 695.4516)"><tspan x="0" y="0" class="st0 st10 st11">emissions from </tspan><tspan x="-8.7" y="86.4" class="st0 st10 st11">crop production </tspan><tspan x="-43.6" y="172.8" class="st0 st10 st11">and its processing </tspan><tspan x="-71.5" y="259.2" class="st0 st10 st11">into feed for farmed </tspan><tspan x="124.6" y="345.6" class="st0 st10 st11">animals</tspan></text>
<rect x="2851.7" y="640.9" class="st9" width="665.6" height="673.3"/>
<text transform="matrix(1 0 0 1 2927.6091 695.4516)"><tspan x="0" y="0" class="st0 st10 st11">emissions from </tspan><tspan x="-26.4" y="86.4" class="st0 st10 st11">energy use in the </tspan><tspan x="88.5" y="172.8" class="st0 st10 st11">process of </tspan><tspan x="8.1" y="259.2" class="st0 st10 st11">converting raw </tspan><tspan x="-45.8" y="345.6" class="st0 st10 st11">products into final </tspan><tspan x="82.5" y="432" class="st0 st10 st11">food items</tspan></text>
<rect x="3740.9" y="640.9" class="st9" width="665.6" height="488"/>
<text transform="matrix(1 0 0 1 3816.7844 695.4516)"><tspan x="0" y="0" class="st0 st10 st11">emissions from </tspan><tspan x="-26.4" y="86.4" class="st0 st10 st11">energy use in the </tspan><tspan x="-19" y="172.8" class="st0 st10 st11">transport of food </tspan><tspan x="-19.8" y="259.2" class="st0 st10 st11">items in-country </tspan><tspan x="-58.4" y="345.6" class="st0 st10 st11">and internationally</tspan></text>
<rect x="4630" y="640.9" class="st9" width="665.6" height="673.3"/>
<text transform="matrix(1 0 0 1 4705.959 695.4516)"><tspan x="0" y="0" class="st0 st10 st11">emissions from </tspan><tspan x="-26.4" y="86.4" class="st0 st10 st11">energy use in the </tspan><tspan x="26.4" y="172.8" class="st0 st10 st11">refridgeration </tspan><tspan x="3.1" y="259.2" class="st0 st10 st11">and other retail </tspan><tspan x="92.1" y="345.6" class="st0 st10 st11">processes</tspan></text>
<rect x="5519.2" y="640.9" class="st9" width="665.6" height="713.1"/>
<text transform="matrix(1 0 0 1 5533.5396 695.4516)"><tspan x="0" y="0" class="st0 st10 st11">emissions from the </tspan><tspan x="-6.2" y="86.4" class="st0 st10 st11">production of pack</tspan><tspan x="614.8" y="86.4" class="st0 st10 st11">-</tspan><tspan x="11.5" y="172.8" class="st0 st10 st11">age materials, ma</tspan><tspan x="597.1" y="172.8" class="st0 st10 st11">-</tspan><tspan x="-1.7" y="259.2" class="st0 st10 st11">terial transport and </tspan><tspan x="143.9" y="345.6" class="st0 st10 st11">end-of-life </tspan><tspan x="181.2" y="432" class="st0 st10 st11">disposal</tspan></text>
</svg>
