<?xml version="1.0" encoding="UTF-8"?>
<svg width="7701px" height="1350px" viewBox="0 0 7701 1350" version="1.1" xmlns="http://www.w3.org/2000/svg" xmlns:xlink="http://www.w3.org/1999/xlink">
    <title>icons vor sankey</title>
    <defs>
        <filter id="filter-1">
            <feColorMatrix in="SourceGraphic" type="matrix" values="0 0 0 0 1.000000 0 0 0 0 1.000000 0 0 0 0 1.000000 0 0 0 1.000000 0"></feColorMatrix>
        </filter>
        <filter id="filter-2">
            <feColorMatrix in="SourceGraphic" type="matrix" values="0 0 0 0 1.000000 0 0 0 0 1.000000 0 0 0 0 1.000000 0 0 0 1.000000 0"></feColorMatrix>
        </filter>
        <filter id="filter-3">
            <feColorMatrix in="SourceGraphic" type="matrix" values="0 0 0 0 1.000000 0 0 0 0 1.000000 0 0 0 0 1.000000 0 0 0 1.000000 0"></feColorMatrix>
        </filter>
    </defs>
    <g id="icons-vor-sankey" stroke="none" stroke-width="1" fill="none" fill-rule="evenodd">
        <text id="Land-Use" font-family="Roboto-Medium, Roboto" font-size="70" font-weight="400" fill="#FFFFFF">
            <tspan x="1858" y="767">Land Use </tspan>
        </text>
        <text id="Aboveground-changes" font-family="Roboto-Regular, Roboto" font-size="40" font-weight="normal" fill="#FFFFFF">
            <tspan x="1791.99023" y="895">Aboveground changes in </tspan>
            <tspan x="1746.72656" y="942">biomass due to deforestation, </tspan>
            <tspan x="1805.99414" y="989">as well as underground </tspan>
            <tspan x="1812.52734" y="1036">changes in soil carbon</tspan>
        </text>
        <text id="Agriculture" font-family="Roboto-Medium, Roboto" font-size="70" font-weight="400" fill="#FFFFFF">
            <tspan x="2452" y="767">Agriculture</tspan>
        </text>
        <text id="Methane-emissions-fr" font-family="Roboto-Regular, Roboto" font-size="40" font-weight="normal" fill="#FFFFFF">
            <tspan x="2403.125" y="895">Methane emissions from </tspan>
            <tspan x="2406.97266" y="942">animals, emissions from </tspan>
            <tspan x="2380.08789" y="989">fertilizers, manure and farm </tspan>
            <tspan x="2532.39258" y="1036">machinery</tspan>
        </text>
        <text id="Animal-feed" font-family="Roboto-Medium, Roboto" font-size="70" font-weight="400" fill="#FFFFFF">
            <tspan x="3051" y="767">Animal feed</tspan>
        </text>
        <text id="Emissions-from-crop" font-family="Roboto-Regular, Roboto" font-size="40" font-weight="normal" fill="#FFFFFF">
            <tspan x="3053.60547" y="895">Emissions from crop </tspan>
            <tspan x="2974.06445" y="942">production and its processing </tspan>
            <tspan x="2985.5" y="989">into feed for farmed animals</tspan>
        </text>
        <text id="Transport" font-family="Roboto-Medium, Roboto" font-size="70" font-weight="400" fill="#FFFFFF">
            <tspan x="4310" y="767">Transport</tspan>
        </text>
        <text id="Emissions-from-energ" font-family="Roboto-Regular, Roboto" font-size="40" font-weight="normal" fill="#FFFFFF">
            <tspan x="4202.06641" y="895">Emissions from energy use in </tspan>
            <tspan x="4199.0293" y="942">the transport of food items in-</tspan>
            <tspan x="4228.62891" y="989">country and internationally</tspan>
            <tspan x="4464" y="1036"></tspan>
        </text>
        <text id="Retail" font-family="Roboto-Medium, Roboto" font-size="70" font-weight="400" fill="#FFFFFF">
            <tspan x="4988" y="767">Retail</tspan>
        </text>
        <text id="Emissions-from-energ" font-family="Roboto-Regular, Roboto" font-size="40" font-weight="normal" fill="#FFFFFF">
            <tspan x="4815.06641" y="895">Emissions from energy use in </tspan>
            <tspan x="4828.93359" y="942">refrigeration and other retail </tspan>
            <tspan x="4985.00781" y="989">processes</tspan>
        </text>
        <text id="Packaging" font-family="Roboto-Medium, Roboto" font-size="70" font-weight="400" fill="#FFFFFF">
            <tspan x="5525" y="767">Packaging</tspan>
        </text>
        <text id="Emissions-from-the-p" font-family="Roboto-Regular, Roboto" font-size="40" font-weight="normal" fill="#FFFFFF">
            <tspan x="5416.37695" y="895">Emissions from the production </tspan>
            <tspan x="5421.37695" y="942">of package materials, material </tspan>
            <tspan x="5475.9082" y="989">transport and end-of-life </tspan>
            <tspan x="5614.88281" y="1036">disposal</tspan>
        </text>
        <text id="Processing" font-family="Roboto-Medium, Roboto" font-size="70" font-weight="400" fill="#FFFFFF">
            <tspan x="3675" y="767">Processing</tspan>
        </text>
        <text id="Emissions-from-energ" font-family="Roboto-Regular, Roboto" font-size="40" font-weight="normal" fill="#FFFFFF">
            <tspan x="3589.06641" y="895">Emissions from energy use in </tspan>
            <tspan x="3587.33789" y="942">the process of converting raw </tspan>
            <tspan x="3585.33594" y="989">agricultural products into final </tspan>
            <tspan x="3755.18945" y="1036">food items</tspan>
        </text>
        <g id="noun_Factory_1474011" transform="translate(3756.000000, 257.000000)" fill="#FFFFFF" fill-rule="nonzero">
            <g id="Group">
                <path d="M89.5375199,127.479361 L12.6882597,127.479361 C9.97593287,127.479361 7.56497569,129.588949 7.56497569,132.301275 L0.0307344885,283.890208 C0.0307344885,285.397057 0.332104136,286.602535 1.53758273,287.808014 C2.44169167,288.712123 3.94853991,289.314862 5.45538815,289.314862 L97.3731308,289.314862 C98.879979,289.314862 100.085458,288.712123 100.989567,287.808014 C101.893675,286.903905 102.496415,285.397057 102.496415,283.890208 L94.9621736,132.301275 C94.6608039,129.588949 92.5512164,127.479361 89.5375199,127.479361 Z M9.07182392,280.273773 L16.3046955,136.52045 L85.9210841,136.52045 L93.1539557,280.273773 L9.07182392,280.273773 Z" id="Shape"></path>
                <path d="M82.3046484,251.643656 L22.3320884,251.643656 C19.9211312,251.643656 17.8115437,253.753244 17.8115437,256.164201 C17.8115437,258.575158 19.9211312,260.684745 22.3320884,260.684745 L82.3046484,260.684745 C84.7156055,260.684745 86.8251931,258.575158 86.8251931,256.164201 C86.8251931,253.753244 84.7156055,251.643656 82.3046484,251.643656 Z" id="Path"></path>
                <path d="M16.6060651,99.4519838 C24.441676,106.082116 31.0718082,106.082116 36.1950922,105.178007 C40.715637,109.095813 46.7430299,111.50677 52.7704229,111.50677 C60.9074034,111.50677 68.4416446,107.588964 73.2635589,100.958832 C85.9210841,99.1506142 95.2635432,88.6026765 95.2635432,75.6437816 C95.2635432,61.4794082 83.510127,49.7259919 69.3457535,50.0273615 C65.1265784,43.0958596 57.5923372,39.1780542 49.1539871,39.1780542 C38.6060494,39.1780542 29.2635903,45.8081865 25.3457849,55.4520152 C20.2225009,56.6574938 15.7019562,59.6711903 12.3868901,63.5889957 C8.16771498,68.4109101 6.35949709,74.7396727 6.66086674,81.0684353 C7.56497569,87.9999372 11.1814115,94.9314391 16.6060651,99.4519838 Z M19.318392,69.315019 C21.7293491,66.3013225 25.3457849,64.4931046 29.2635903,63.8903653 C31.3731779,63.5889957 32.8800261,62.0821475 33.4827654,60.2739296 C35.5923529,53.3424277 41.9211155,48.2191437 49.1539871,48.2191437 C55.1813801,48.2191437 60.6060337,51.5342098 63.6197302,56.9588634 C64.5238391,58.4657117 66.332057,59.3698206 68.1402749,59.3698206 L68.7430142,59.3698206 C69.3457535,59.3698206 69.6471231,59.3698206 70.2498624,59.3698206 C79.2909519,59.3698206 86.8251931,66.9040618 86.8251931,75.9451513 C86.8251931,84.6848711 79.8936912,91.9177426 71.1539714,92.2191123 C69.3457535,92.2191123 67.8389053,93.1232212 66.9347963,94.6300694 C63.9210998,99.7533534 58.7978158,102.46568 52.7704229,102.46568 C48.2498781,102.46568 44.0307031,100.657462 41.0170066,97.3423963 C40.1128977,96.4382873 38.6060494,95.835548 37.4005708,95.835548 C36.7978315,95.835548 36.4964619,95.835548 35.8937226,96.1369177 C31.6745475,97.3423963 27.4553724,97.0410266 22.0307188,92.8218515 C18.414283,89.8081551 16.0033258,85.2876103 15.7019562,80.7670656 C15.7019562,76.2465209 16.9074348,72.3287155 19.318392,69.315019 Z" id="Shape"></path>
                <path d="M183.26348,189.260139 C183.26348,186.547812 180.852523,184.438225 178.140196,184.438225 L130.222422,184.438225 C127.510096,184.438225 125.099138,186.547812 125.099138,189.260139 L120.277224,283.890208 C120.277224,285.397057 120.879963,286.602535 121.784072,287.808014 C122.688181,288.712123 124.195029,289.314862 125.400508,289.314862 L182.660741,289.314862 C184.167589,289.314862 185.373068,288.712123 186.578547,287.808014 C187.482655,286.903905 188.085395,285.397057 188.085395,283.890208 L183.26348,189.260139 Z M129.619683,280.273773 L133.838858,193.479314 L174.523761,193.479314 L178.742936,280.273773 L129.619683,280.273773 Z" id="Shape"></path>
                <path d="M169.099107,262.191594 L139.564881,262.191594 C137.153924,262.191594 135.044337,264.301181 135.044337,266.712138 C135.044337,269.123096 137.153924,271.232683 139.564881,271.232683 L169.099107,271.232683 C171.510064,271.232683 173.619652,269.123096 173.619652,266.712138 C173.619652,264.301181 171.510064,262.191594 169.099107,262.191594 Z" id="Path"></path>
                <path d="M130.825162,169.369742 C136.249815,173.890287 140.77036,174.493026 144.386796,173.890287 C147.400492,176.301244 151.318298,177.808092 155.236103,177.808092 C160.660757,177.808092 165.784041,175.397135 169.099107,170.87659 C177.537457,169.369742 183.86622,162.136871 183.86622,153.397151 C183.86622,143.753322 176.331978,135.917711 166.68815,135.616342 C163.373084,131.397166 158.2498,128.986209 152.825146,128.986209 C145.893644,128.986209 139.564881,133.205384 136.852555,139.534147 C130.825162,141.342365 126.003247,146.767019 124.797769,153.095781 C123.59229,158.821804 126.003247,165.150567 130.825162,169.369742 Z M133.537488,154.602629 C134.140228,150.986194 137.153924,148.273867 140.46899,147.671127 C142.277208,147.369758 144.085426,145.86291 144.386796,144.054692 C145.592274,140.438256 148.907341,137.725929 152.523776,137.725929 C155.537473,137.725929 158.551169,139.534147 160.058018,142.246474 C160.962126,143.753322 162.770344,144.657431 164.578562,144.657431 L164.879932,144.657431 C165.181302,144.657431 165.482671,144.657431 165.482671,144.657431 C170.304586,144.657431 174.222391,148.575236 174.222391,153.397151 C174.222391,157.917695 170.605955,161.835501 166.08541,162.136871 C164.578562,162.136871 163.071714,163.04098 162.167605,164.547828 C160.660757,167.260155 157.94843,168.767003 154.934733,168.767003 C152.523776,168.767003 150.414189,167.862894 148.907341,166.054676 C148.003232,165.150567 146.496383,164.547828 145.290905,164.547828 C144.989535,164.547828 144.386796,164.547828 144.085426,164.849197 C141.975839,165.451937 140.167621,165.753306 136.551185,162.73961 C134.441597,160.328653 133.236119,157.314956 133.537488,154.602629 Z" id="Shape"></path>
                <path d="M158.491619,124.38009 C161.795652,127.17055 164.549013,127.542611 166.751702,127.17055 C168.587276,128.658795 170.973522,129.588949 173.359768,129.588949 C176.663802,129.588949 179.784277,128.100703 181.803409,125.310244 C186.943016,124.38009 190.797722,119.915355 190.797722,114.520466 C190.797722,108.567485 186.208787,103.730689 180.33495,103.544658 C178.315818,100.940229 175.195342,99.4519838 171.891309,99.4519838 C167.669489,99.4519838 163.814783,102.056413 162.162767,105.963056 C158.491619,107.07924 155.5547,110.427792 154.820471,114.334436 C154.086241,117.869018 155.5547,121.775661 158.491619,124.38009 Z M160.687883,115.310464 C161.04466,113.203803 162.828545,111.623806 164.790818,111.272696 C165.861149,111.097141 166.93148,110.219365 167.109869,109.166035 C167.823422,107.059373 169.785696,105.479377 171.926358,105.479377 C173.710242,105.479377 175.494127,106.532708 176.38607,108.112704 C176.921235,108.990479 177.991566,109.517145 179.061897,109.517145 L179.240286,109.517145 C179.418674,109.517145 179.597063,109.517145 179.597063,109.517145 C182.451278,109.517145 184.770329,111.799362 184.770329,114.608244 C184.770329,117.241571 182.629667,119.523788 179.95384,119.699343 C179.061897,119.699343 178.169955,120.226008 177.634789,121.103784 C176.742847,122.68378 175.13735,123.561556 173.353466,123.561556 C171.926358,123.561556 170.677638,123.03489 169.785696,121.981559 C169.25053,121.454894 168.358588,121.103784 167.645034,121.103784 C167.466645,121.103784 167.109869,121.103784 166.93148,121.279339 C165.682761,121.630449 164.61243,121.806004 162.471768,120.050453 C161.223048,118.646012 160.509495,116.890461 160.687883,115.310464 Z" id="Shape"></path>
                <path d="M76.5844523,40.3835328 C82.009106,44.9040775 86.5296507,45.5068168 90.1460865,44.9040775 C93.159783,47.3150347 97.0775884,48.821883 100.995394,48.821883 C106.420047,48.821883 111.543331,46.4109258 114.858398,41.8903811 C123.296748,40.3835328 129.62551,33.1506613 129.62551,24.4109415 C129.62551,14.7671127 122.091269,6.9315019 112.44744,6.63013225 C109.132374,2.41095718 104.00909,0 98.5844366,0 C91.6529347,0 85.3241721,4.21917507 82.6118453,10.5479377 C76.5844523,12.3561556 71.762538,17.7808092 70.5570594,24.1095718 C69.3515808,29.8355951 71.762538,36.1643577 76.5844523,40.3835328 Z M79.2967792,25.6164201 C79.8995185,21.9999843 82.9132149,19.2876575 86.2282811,18.6849182 C88.0364989,18.3835485 89.8447168,16.8767003 90.1460865,15.0684824 C91.3515651,11.4520466 94.6666312,8.73971979 98.283067,8.73971979 C101.296763,8.73971979 104.31046,10.5479377 105.817308,13.2602645 C106.721417,14.7671127 108.529635,15.6712217 110.337853,15.6712217 L110.639223,15.6712217 C110.940592,15.6712217 111.241962,15.6712217 111.241962,15.6712217 C116.063876,15.6712217 119.981682,19.5890271 119.981682,24.4109415 C119.981682,28.9314862 116.365246,32.8492916 111.844701,33.1506613 C110.337853,33.1506613 108.831005,34.0547702 107.926896,35.5616184 C106.420047,38.2739453 103.707721,39.7807935 100.694024,39.7807935 C98.283067,39.7807935 96.1734794,38.8766846 94.6666312,37.0684667 C93.7625223,36.1643577 92.255674,35.5616184 91.0501954,35.5616184 C90.7488258,35.5616184 90.1460865,35.5616184 89.8447168,35.8629881 C87.7351293,36.4657274 85.9269114,36.767097 82.3104756,33.7534006 C80.2008881,31.3424434 78.9954095,28.3287469 79.2967792,25.6164201 Z" id="Shape"></path>
            </g>
        </g>
        <g id="noun_Airplane_2481268" transform="translate(4370.000000, 359.000000)" fill="#FFFFFF" fill-rule="nonzero">
            <path d="M186.765303,28.1876236 C188.066432,24.7907021 188.760917,21.1916394 188.817113,17.5544444 C189.082272,11.8905067 186.499122,6.4688616 181.933593,3.10696765 C176.583809,-0.63597361 169.021115,-1.00812872 160.636466,2.05036966 C160.53245,2.08811575 160.430481,2.13093781 160.330538,2.17683054 C153.08435,5.04752998 146.553942,9.46905158 141.197402,15.1312375 L116.625254,40.5332678 L38.3157305,10.9181517 C24.4609887,5.32007484 10.1758964,8.67953925 2.75391699,19.2790457 C-0.524716309,23.9282752 0.499496535,30.343755 5.06269599,33.7408104 L73.5243699,85.0901527 L66.1250944,92.7393022 C58.7010889,100.419952 51.5850376,108.438165 44.9483163,116.602224 L10.5837937,111.595697 C8.5541297,111.301899 6.6111067,112.524058 5.99681387,114.480902 L1.04272865,130.303176 C0.414107892,132.306673 1.37129277,134.465352 3.27806985,135.344399 L23.9000752,144.8608 C18.2708886,152.883107 12.8558538,160.993231 7.76715347,169.028677 C5.59356418,172.476689 6.09709505,176.970404 8.97990025,179.851724 C11.8627055,182.733043 16.3562837,183.233862 19.802618,181.057939 C27.8568601,175.944358 35.9620867,170.524734 43.9510369,164.912369 L53.4860029,185.55762 C54.3647093,187.464291 56.5229798,188.421229 58.5257656,187.792159 L74.3466602,182.838648 C76.3050105,182.225162 77.5280405,180.280232 77.2326235,178.249229 L72.205184,143.797998 C80.2410667,137.268781 88.1300946,130.280637 95.690762,122.995705 L103.69945,115.256775 L155.080696,183.770916 C158.475958,188.337271 164.893443,189.361532 169.541195,186.078879 C180.140821,178.659319 183.497927,164.367881 177.936038,150.603699 L148.281309,72.1761656 L173.65908,47.652865 C179.415552,42.2154314 183.892154,35.5668244 186.765303,28.1876236 Z M10.0759742,27.0575388 C9.13258369,26.3559293 8.9208007,25.0299159 9.59871213,24.0693104 C15.939719,15.0056539 27.3469938,15.4932197 35.2726988,18.6976474 L110.299975,47.0721142 L79.3792378,79.0372846 L10.0759742,27.0575388 Z M170.155119,153.64699 C173.324599,161.486729 173.810007,172.891959 164.750277,179.234534 C163.789651,179.912075 162.464093,179.700326 161.762303,178.757224 L109.753452,109.406362 L141.738912,78.4983323 L170.155119,153.64699 Z M89.888111,116.98568 C82.0092967,124.577594 73.7593667,131.844186 65.3623731,138.586552 C64.2286121,139.372527 63.5519411,140.664254 63.5512417,142.043901 C63.5503142,142.255658 63.5666882,142.467137 63.6002002,142.676226 L68.4502695,175.930153 L59.5312744,178.72257 L49.4273325,156.846321 C48.9052772,155.716774 47.9069867,154.878711 46.7041743,154.560235 C45.5013618,154.241758 44.2192034,154.476012 43.206675,155.199238 C34.0204758,161.765156 24.6384842,168.091417 15.3238106,174.004622 C15.1790245,174.083421 14.9995787,174.056931 14.883731,173.939658 C14.7678832,173.822384 14.7435748,173.642613 14.8241162,173.498779 C20.7041734,164.217879 27.0247739,154.831072 33.6125577,145.599198 C34.3358704,144.586613 34.5698526,143.304129 34.250727,142.101319 C33.9316014,140.898508 33.0926341,139.900753 31.9625049,139.380013 L10.1106254,129.296565 L12.9047705,120.37677 L45.9946377,125.196676 L46.1190601,125.218108 C47.9597648,125.525924 49.7829944,124.583079 50.5959041,122.903 C57.3183029,114.568614 64.5607816,106.378027 72.1295949,98.5484814 L147.203866,20.9383696 C151.745367,16.1066973 157.30303,12.3439164 163.475538,9.92173436 C163.571409,9.88705893 163.667258,9.84728662 163.763128,9.80444367 C169.314825,7.8340645 174.187326,7.88198344 177.144701,9.95336002 C179.429912,11.7897863 180.669806,14.6299045 180.463062,17.5544444 C180.405069,20.2105816 179.883247,22.8361342 178.921161,25.3125499 C176.486576,31.50579 172.709048,37.0820359 167.860606,41.6397274 L89.888111,116.98568 Z" id="Shape"></path>
        </g>
        <g id="Group-2" transform="translate(4982.000000, 375.000000)" stroke="#FFFFFF">
            <polyline id="Path-14" stroke-width="8.304348" stroke-linecap="round" stroke-linejoin="round" points="0 0 26.9194273 0 31.4737322 20.4963344 52.4725362 115 164 115"></polyline>
            <circle id="Oval" stroke-width="7.76914" cx="73.5" cy="150.5" r="17.5"></circle>
            <circle id="Oval" stroke-width="7.76914" cx="143.5" cy="150.5" r="17.5"></circle>
            <polygon id="Path-15" stroke-width="8.304348" stroke-linecap="round" stroke-linejoin="round" points="33 21 190 21 174.577871 91 48.1131997 91"></polygon>
        </g>
        <g id="noun_sausages_2556563" transform="translate(5605.000000, 317.000000)" fill="#FFFFFF" fill-rule="nonzero">
            <g id="Group" transform="translate(0.038435, 0.000000)">
                <path d="M34.5511727,0 C15.7537687,0 0.461796135,15.2919726 0.461796135,34.087976 L0.461796135,195.368639 C0.461796135,214.164642 15.7537684,229.456615 34.5511727,229.456615 L134.243798,229.456615 C153.041202,229.456615 168.333174,214.164642 168.333174,195.368639 L168.333174,34.087976 C168.333174,15.2919726 153.041202,0 134.243797,0 L34.5511727,0 Z M39.7427964,22.489101 L66.6574524,22.489101 C65.4992455,28.8655412 59.9056803,33.7168457 53.2001245,33.7168457 C46.4945687,33.7168457 40.9010033,28.8655412 39.7427964,22.489101 Z M72.9302561,72.5496888 L33.4699926,72.5496888 L33.4699926,57.7786994 C33.4699926,47.6741495 42.3211023,39.4532611 53.2001242,39.4532611 C64.0791462,39.4532611 72.9302561,47.6741492 72.9302561,57.7786994 L72.9302561,72.5496888 L72.9302561,72.5496888 Z M162.596759,78.2861042 L162.596759,151.17051 L6.19821121,151.17051 L6.19821121,78.2861042 L162.596759,78.2861042 Z M102.137518,22.489101 L129.052174,22.489101 C127.893967,28.8655412 122.300401,33.7168457 115.594846,33.7168457 C108.88929,33.7168457 103.295725,28.8655412 102.137518,22.489101 Z M135.324977,72.5496888 L95.8647138,72.5496888 L95.8647138,57.7786994 C95.8647138,47.6741495 104.715823,39.4532611 115.594845,39.4532611 C126.473867,39.4532611 135.324977,47.6741492 135.324977,57.7786994 L135.324977,72.5496888 L135.324977,72.5496888 Z M129.052174,207.180388 L102.137518,207.180388 C103.294324,200.802548 108.88929,195.951243 115.594845,195.951243 C122.300401,195.951243 127.895367,200.802548 129.052174,207.180388 Z M95.8647138,156.906926 L135.324977,156.906926 L135.324977,171.88939 C135.324977,181.99394 126.473868,190.214828 115.594846,190.214828 C104.715824,190.214828 95.8647138,181.99394 95.8647138,171.88939 L95.8647138,156.906926 L95.8647138,156.906926 Z M66.6574524,207.180388 L39.7427964,207.180388 C40.8996028,200.802548 46.4945685,195.951243 53.2001242,195.951243 C59.90568,195.951243 65.500646,200.802548 66.6574524,207.180388 Z M33.4699926,156.906926 L72.9302561,156.906926 L72.9302561,171.88939 C72.9302561,181.99394 64.0791465,190.214828 53.2001245,190.214828 C42.3211026,190.214828 33.4699926,181.99394 33.4699926,171.88939 L33.4699926,156.906926 L33.4699926,156.906926 Z M134.243797,223.720199 L34.5511727,223.720199 C18.9174801,223.720199 6.1982115,211.002331 6.1982115,195.368639 L6.1982115,156.906926 L27.7335775,156.906926 L27.7335775,171.88939 C27.7335775,181.460352 33.6924961,189.719054 42.2761119,193.592289 C37.1559131,197.091244 33.7865042,202.972085 33.7865042,209.628448 L33.7865042,210.048596 C33.7865042,211.632552 35.0707554,212.916804 36.6547119,212.916804 L69.7455377,212.916804 C71.3294942,212.916804 72.6137454,211.632552 72.6137454,210.048596 L72.6137454,209.628448 C72.6137454,202.972085 69.2443365,197.091243 64.1241378,193.592289 C72.7077535,189.719054 78.6666721,181.460352 78.6666721,171.88939 L78.6666721,156.906926 L90.128299,156.906926 L90.128299,171.88939 C90.128299,181.460352 96.0872176,189.719054 104.670833,193.592289 C99.5506346,197.091244 96.1812257,202.972085 96.1812257,209.628448 L96.1812257,210.048596 C96.1812257,211.632552 97.4654769,212.916804 99.0494334,212.916804 L132.140259,212.916804 C133.724216,212.916804 135.008467,211.632552 135.008467,210.048596 L135.008467,209.628448 C135.008467,202.972085 131.639058,197.091243 126.518859,193.592289 C135.102475,189.719054 141.061394,181.460352 141.061394,171.88939 L141.061394,156.906926 L162.59676,156.906926 L162.59676,195.368639 C162.59676,211.002331 149.87749,223.720199 134.243797,223.720199 Z M162.596759,34.087976 L162.596759,72.5496888 L141.061393,72.5496888 L141.061393,57.7786994 C141.061393,48.2077368 135.102474,39.9490354 126.518858,36.0757997 C131.639057,32.5768453 135.008466,26.6960042 135.008466,20.0396408 L135.008466,19.6208936 C135.008466,18.0369371 133.724215,16.7526859 132.140258,16.7526859 L99.0494325,16.7526859 C97.465476,16.7526859 96.1812248,18.0369371 96.1812248,19.6208936 L96.1812248,20.0396408 C96.1812248,26.6960042 99.5506337,32.5768456 104.670832,36.0757997 C96.0872167,39.9490354 90.1282982,48.2077371 90.1282982,57.7786994 L90.1282982,72.5496888 L78.6666712,72.5496888 L78.6666712,57.7786994 C78.6666712,48.2077368 72.7077526,39.9490354 64.1241369,36.0757997 C69.2443356,32.5768453 72.6137445,26.6960042 72.6137445,20.0396408 L72.6137445,19.6208936 C72.6137445,18.0369371 71.3294934,16.7526859 69.7455369,16.7526859 L36.6547116,16.7526859 C35.0707551,16.7526859 33.7865039,18.0369371 33.7865039,19.6208936 L33.7865039,20.0396408 C33.7865039,26.6960042 37.1559128,32.5768456 42.2761116,36.0757997 C33.6924958,39.9490354 27.7335773,48.2077371 27.7335773,57.7786994 L27.7335773,72.5496888 L6.19821121,72.5496888 L6.19821121,34.087976 C6.19821121,18.4542834 18.9174801,5.73641537 34.5511727,5.73641537 L134.243798,5.73641537 C149.87749,5.73641537 162.596759,18.4542834 162.596759,34.087976 Z" id="Shape"></path>
                <path d="M19.7784531,132.900433 L81.6115766,132.900433 C83.1955331,132.900433 84.4797843,131.616182 84.4797843,130.032225 L84.4797843,97.3503431 C84.4797843,95.7663866 83.1955331,94.4821354 81.6115766,94.4821354 L19.7784531,94.4821354 C18.1944965,94.4821354 16.9102454,95.7663866 16.9102454,97.3503431 L16.9102454,130.032225 C16.9102454,131.616182 18.1944965,132.900433 19.7784531,132.900433 Z M22.6466607,100.218551 L78.7433689,100.218551 L78.7433689,127.164017 L22.6466607,127.164017 L22.6466607,100.218551 Z" id="Shape"></path>
                <path d="M102.37914,110.254393 L127.804087,110.254393 C129.097055,110.254393 130.145377,108.970142 130.145377,107.386185 C130.145377,105.802229 129.097055,104.517978 127.804087,104.517978 L102.37914,104.517978 C101.086172,104.517978 100.03785,105.802229 100.03785,107.386185 C100.03785,108.970142 101.086172,110.254393 102.37914,110.254393 Z" id="Path" stroke="#FFFFFF" stroke-width="1.64874552"></path>
                <path d="M103.711518,122.86459 L143.605251,122.86459 C145.634019,122.86459 147.278918,121.580339 147.278918,119.996383 C147.278918,118.412426 145.634019,117.128175 143.605251,117.128175 L103.711518,117.128175 C101.682749,117.128175 100.03785,118.412426 100.03785,119.996383 C100.03785,121.580339 101.682749,122.86459 103.711518,122.86459 Z" id="Path" stroke="#FFFFFF" stroke-width="1.64874552"></path>
            </g>
        </g>
        <g filter="url(#filter-1)" id="noun_bag_606249">
            <g transform="translate(3145.000000, 307.000000)">
                <g filter="url(#filter-2)" id="Group">
                    <g transform="translate(0.269299, 0.000000)">
                        <path d="M170.523109,0.262036104 C169.18046,0.262036104 167.751115,0.39974628 166.256119,0.685634834 C160.98078,1.68427313 154.587786,5.66511352 147.955026,11.5258289 L38.4225011,11.5258289 C32.7094903,6.62924802 27.0665602,3.22862338 22.4114955,2.26448888 C17.1473203,1.17416908 12.9156764,1.73569364 11.5874289,1.70611896 L11.4895583,1.70611896 C11.4438889,1.70550475 11.398213,1.70550475 11.3525435,1.70611896 C11.2807841,1.70460221 11.2089998,1.70460221 11.1372403,1.70611896 C9.85213561,1.70611896 7.99204386,1.9031849 6.24390296,3.18869757 C1.89928607,6.39064937 0.282698189,11.5609242 0.0195721069,18.9772676 C-0.223450726,25.826763 2.12052203,34.8374576 7.1247079,44.7203292 C4.62480969,62.1605168 3.01429487,89.0233152 3.01429487,119.966315 C3.01429487,150.909315 4.62458921,177.724281 7.1247079,195.193057 C2.11789638,205.080858 -0.224132192,214.08268 0.0195721069,220.936119 C0.283740431,228.363307 1.88795169,233.562229 6.24390296,236.763195 C12.0791768,241.050528 24.3015216,240.888301 38.4420832,228.406801 L147.974598,228.406801 C162.11515,240.888301 174.337505,241.050528 180.172779,236.763195 C184.52874,233.562229 186.132951,228.363307 186.397099,220.936119 C186.640824,214.08268 184.298775,205.080858 179.291974,195.193057 C180.620618,185.909582 181.697955,173.986552 182.415854,160.207146 C183.04883,148.057752 183.402377,134.4652 183.402377,119.966315 C183.402377,89.0233152 181.792173,62.17281 179.291974,44.7010761 C184.29615,34.8182045 186.640122,25.8075 186.397099,18.9580145 C186.133733,11.5337746 184.527838,6.3501715 180.172779,3.15019134 C177.846193,1.44077495 174.551034,0.262036104 170.523109,0.262036104 Z M172.402151,10.3898261 C173.421594,10.5943843 174.026135,10.9118487 174.183323,11.0252183 C173.5683,10.5717399 176.182053,13.8134992 176.375539,19.266084 C176.569056,24.7196448 175.186982,32.5067265 169.877189,42.1017379 C169.363641,43.0373684 169.171393,44.111262 169.32913,45.1631804 C171.753957,61.7338725 173.380817,88.9493193 173.380817,119.927809 C173.380817,150.906298 171.753997,178.083239 169.32913,194.653931 C169.171393,195.705849 169.363641,196.779743 169.877189,197.715373 C175.189899,207.314328 176.589189,215.112766 176.395111,220.57028 C176.201104,226.026808 173.56841,229.262653 174.183323,228.811146 C173.55457,229.274483 165.798103,232.992631 152.593906,219.954141 C151.654327,219.029757 150.379985,218.510321 149.051134,218.510069 L37.3655472,218.510069 C36.0366927,218.510318 34.7623469,219.029754 33.8227653,219.954141 C20.6185682,232.992631 12.8621012,229.273497 12.2333485,228.811146 C12.8482714,229.264624 10.2156176,226.026808 10.0215601,220.57028 C9.8275427,215.112766 11.226783,207.314328 16.5394926,197.715373 C17.0530368,196.779742 17.2452816,195.705848 17.0875417,194.653931 C14.6626548,178.110842 13.035855,150.944804 13.035855,119.966315 C13.035855,88.9878256 14.662735,61.7723788 17.0875417,45.2016867 C17.2452816,44.1497693 17.0530368,43.0758757 16.5394926,42.1402441 C11.2296892,32.5452328 9.84764595,24.7581609 10.0411322,19.3045903 C10.2224222,14.1960575 12.3106648,11.5924705 12.0963337,11.5835981 C14.8640982,11.5904988 17.2501415,11.250883 20.356294,11.8916676 C23.9039563,12.6310346 28.2966566,14.4449482 33.8227653,19.9014763 C34.7591334,20.8329278 36.0338771,21.3594533 37.3655472,21.3648018 L149.051134,21.3648018 C150.382801,21.3594507 151.657541,20.8329254 152.593906,19.9014763 C159.196,13.3822314 164.450033,11.0538072 168.115589,10.4090792 C169.948372,10.0886868 171.382708,10.1852679 172.402151,10.3898261 Z M38.0897552,80.5141578 C35.3224924,80.5141578 33.0789752,82.7211096 33.0789752,85.4432708 L33.0789752,144.592627 C33.0789752,147.314788 35.3224924,149.52174 38.0897552,149.52174 L148.326916,149.52174 C151.094179,149.52174 153.337696,147.314788 153.337696,144.592627 L153.337696,85.4432708 C153.337696,82.7211096 151.094179,80.5141578 148.326916,80.5141578 L38.0897552,80.5141578 Z M43.1005353,90.3723838 L143.316136,90.3723838 L143.316136,139.663514 L43.1005353,139.663514 L43.1005353,90.3723838 Z" id="Shape" fill="#FFFFFF" fill-rule="nonzero"></path>
                        <line x1="55.6802675" y1="106.768494" x2="90.828605" y2="106.862684" id="Path-13" stroke="#FFFFFF" stroke-width="8.58193782" stroke-linecap="round"></line>
                        <line x1="55.6802675" y1="123.009465" x2="115.072459" y2="123.009465" id="Path-13" stroke="#FFFFFF" stroke-width="8.58193782" stroke-linecap="round"></line>
                    </g>
                </g>
            </g>
        </g>
        <g filter="url(#filter-3)" id="noun_Global-Warming_2684613">
            <g transform="translate(2500.000000, 297.000000)">
                <path d="M246.359253,143.585205 C202.926636,150.83313 119.326782,173.562622 47.439575,244.3573 C46.2127684,245.568847 46.1975097,247.549438 47.4060056,248.779297 C48.0194091,249.398804 48.8250731,249.710083 49.6337887,249.710083 C50.4241941,249.710083 51.2176509,249.411011 51.8280025,248.812866 C122.485351,179.223633 204.681396,156.87561 247.390747,149.749756 C249.090576,149.465942 250.241088,147.854614 249.957275,146.151733 C249.67041,144.451904 248.065186,143.289185 246.359253,143.585205 Z" id="Path" stroke="#404756" fill="#404756" fill-rule="nonzero"></path>
                <path d="M246.160889,174.761963 C208.92334,183.496094 153.375244,202.618408 100.198364,244.119263 C98.8372803,245.181275 98.5961916,247.143555 99.6582031,248.504639 C100.274658,249.295044 101.193237,249.707031 102.124023,249.707031 C102.79541,249.707031 103.4729,249.490357 104.043579,249.0448 C156.326294,208.245849 210.961914,189.437866 247.589111,180.847168 C249.267578,180.453491 250.311279,178.771972 249.917602,177.090454 C249.520874,175.408936 247.836304,174.380493 246.160889,174.761963 Z" id="Path" stroke="#404756" fill="#404756" fill-rule="nonzero"></path>
                <path d="M249.868774,209.490967 C249.37439,207.836914 247.631836,206.900024 245.977783,207.394409 C216.192627,216.311646 187.744141,228.689575 161.428833,244.18335 C159.942627,245.059204 159.448242,246.972656 160.324097,248.461914 C160.903931,249.450684 161.947632,250 163.018799,250 C163.555908,250 164.102173,249.859619 164.602661,249.56665 C190.484619,234.329223 218.466186,222.155762 247.772217,213.381958 C249.423218,212.887573 250.363159,211.145019 249.868774,209.490967 Z" id="Path" stroke="#404756" fill="#404756" fill-rule="nonzero"></path>
                <path d="M2.96630875,92.1966553 C3.66840375,92.2325134 72.6247788,96.266365 147.301293,138.869476 C137.093926,142.940712 126.470757,147.68219 115.622711,153.182411 C71.0641863,129.98848 30.1549913,119.842529 3.64074719,115.420532 C1.94396969,115.127563 0.326538125,116.287232 0.0457765625,117.990112 C-0.238036875,119.689941 0.912475938,121.301269 2.61535656,121.585083 C27.8949738,125.800323 66.5054322,135.345459 108.797837,156.730461 C99.4754794,161.697006 90.0199894,167.233658 80.5427553,173.413658 C55.9635166,161.797523 30.1633838,152.770996 3.83911156,146.594238 C2.16064469,146.209716 0.476074375,147.24121 0.0823978125,148.922729 C-0.31127875,150.604248 0.732422188,152.285766 2.41088906,152.679443 C27.0881656,158.470153 51.2889866,166.828918 74.4363788,177.489662 C66.1149981,183.15792 57.7995303,189.324569 49.56646,196.044349 C34.8165516,189.5298 19.5068363,183.864974 4.02221719,179.229736 C2.36206094,178.735351 0.625610625,179.678344 0.131225938,181.326293 C-0.36315875,182.980346 0.5767825,184.7229 2.22778344,185.217284 C16.4699556,189.480208 30.5459978,194.653129 44.1745759,200.538253 C29.1906359,213.27095 14.5421984,227.857398 0.717163125,244.592284 C-0.384521562,245.922851 -0.1953125,247.891235 1.13525406,248.989868 C1.71813969,249.472045 2.42309594,249.707031 3.12194844,249.707031 C4.02221688,249.707031 4.91638219,249.319458 5.53283719,248.571777 C104.28772,129.034424 245.617676,120.43457 247.033691,120.361328 C248.757934,120.272827 250.082397,118.80188 249.996948,117.080688 C249.908447,115.353393 248.379517,113.989258 246.716308,114.117432 C245.964813,114.155578 206.571007,116.53595 154.791641,135.974312 C77.0864488,90.2025222 4.0145875,85.9924316 3.28369125,85.9527588 C1.54418938,85.8459472 0.0915525,87.1917725 0.0030515625,88.9160156 C-0.0823975,90.6372069 1.24206531,92.1081544 2.96630875,92.1966553 Z" id="Path" stroke="#FFFFFF" fill="#FFFFFF" fill-rule="nonzero"></path>
                <path d="M102.001953,23.098755 C102.001953,13.2568359 98.1170653,8.029175 94.9951172,3.82690438 C94.3847656,3.00598156 93.7835694,2.20336938 93.2281494,1.37939469 C92.2698975,-0.0549315625 90.3167725,-0.427245937 88.8916016,0.534057813 C87.4603272,1.49841344 87.0819091,3.43933125 88.0462647,4.87060563 C88.6535644,5.77392594 89.3096925,6.65588406 89.9780275,7.5561525 C92.9473878,11.5509034 95.7519531,15.3259278 95.7519531,23.098755 C95.7519531,29.23584 93.7438966,32.1594241 91.4184569,35.5438234 C88.8732909,39.2486575 85.9863281,43.4509278 85.9863281,51.5258791 C85.9863281,59.6069338 88.8732909,63.8061525 91.4184569,67.5109866 C92.0257566,68.3929447 93.0023191,68.8659672 93.9971922,68.8659672 C94.6075438,68.8659672 95.2239988,68.6889653 95.76416,68.3166509 C97.1862791,67.3400884 97.5463866,65.3930669 96.5698241,63.9709478 C94.2443847,60.5865484 92.2363278,57.6660163 92.2363278,51.5258794 C92.2363278,45.3918463 94.2443844,42.4682622 96.5698241,39.0838628 C99.1149903,35.3759766 102.001953,31.1767578 102.001953,23.098755 Z" id="Path" stroke="#404756" fill="#404756" fill-rule="nonzero"></path>
                <path d="M133.007812,23.098755 C133.007812,13.2568359 129.122925,8.029175 126.000977,3.82690438 C125.390625,3.00598156 124.789429,2.20336938 124.234009,1.37939469 C123.272705,-0.0549315625 121.325683,-0.427245937 119.897461,0.534057813 C118.466187,1.49841344 118.087768,3.43933125 119.052124,4.87060563 C119.659424,5.77392594 120.315552,6.65588406 120.983887,7.5561525 C123.953247,11.5509034 126.757813,15.3259278 126.757813,23.098755 C126.757813,29.23584 124.749756,32.1594241 122.424316,35.5438234 C119.87915,39.2486572 116.992188,43.4509278 116.992188,51.5258788 C116.992188,59.6069334 119.87915,63.8061522 122.424316,67.5109863 C123.031616,68.3929444 124.008178,68.8659669 125.003052,68.8659669 C125.613403,68.8659669 126.229858,68.688965 126.770019,68.3166506 C128.192138,67.3400881 128.552246,65.3930666 127.575683,63.9709475 C125.250244,60.5865478 123.242188,57.6660156 123.242188,51.5258788 C123.242188,45.3918456 125.250244,42.4682616 127.575684,39.0838622 C130.12085,35.3759766 133.007812,31.1767578 133.007812,23.098755 Z" id="Path" stroke="#404756" fill="#404756" fill-rule="nonzero"></path>
                <path d="M164.013672,23.098755 C164.013672,13.2568359 160.128784,8.029175 157.006836,3.82690438 C156.396484,3.00598156 155.795288,2.20336938 155.239868,1.37939469 C154.275512,-0.0549315625 152.328491,-0.427245937 150.90332,0.534057813 C149.472046,1.49841344 149.093628,3.43933125 150.057983,4.87060563 C150.665283,5.77392594 151.321411,6.65588406 151.989746,7.5561525 C154.959107,11.5509034 157.763672,15.3259278 157.763672,23.098755 C157.763672,29.23584 155.755615,32.1594241 153.430176,35.5438234 C150.88501,39.2486575 147.998047,43.4509278 147.998047,51.5258791 C147.998047,59.6069338 150.88501,63.8061525 153.430176,67.5109866 C154.037475,68.3929447 155.014038,68.8659672 156.008911,68.8659672 C156.619262,68.8659672 157.235717,68.6889653 157.775879,68.3166509 C159.197998,67.3400884 159.558105,65.3930669 158.581543,63.9709478 C156.256103,60.5865484 154.248047,57.6660163 154.248047,51.5258794 C154.248047,45.3918463 156.256103,42.4682622 158.581543,39.0838628 C161.126709,35.3759766 164.013672,31.1767578 164.013672,23.098755 Z" id="Path" stroke="#404756" fill="#404756" fill-rule="nonzero"></path>
            </g>
        </g>
        <g id="Group-3" transform="translate(1903.000000, 375.000000)" fill="#FFFFFF" fill-rule="nonzero">
            <g id="tree" transform="translate(0.829787, 0.000000)">
                <path d="M126.683846,162.923648 L57.1890429,163.284897 L57.1890429,92.8411917 L93.5166739,127.88242 C95.3150715,129.688669 97.8328281,129.327419 99.6312257,127.88242 C101.429623,126.076171 101.069944,123.547422 99.6312257,121.741174 L57.1890429,81.281199 L57.1890429,52.3812171 L89.9198788,84.1711972 C90.6392378,84.8936967 91.7182764,85.2549465 92.7973149,85.2549465 C93.8763534,85.2549465 94.955392,84.8936967 95.674751,83.8099474 C97.1134691,82.0036985 97.1134691,79.4749501 95.674751,77.6687012 L57.1890429,40.4599746 L57.1890429,13.7274914 L82.0069294,34.6799782 C82.7262885,35.4024778 83.805327,35.7637275 84.8843656,35.7637275 C85.9634041,35.7637275 87.4021222,35.4024778 88.1214812,34.3187285 C89.5601993,32.5124796 89.5601993,29.9837312 87.7618017,28.1774823 L55.7503248,1.44499909 C54.3116068,3.07531778e-14 51.7938502,3.07531778e-14 50.3551321,1.44499909 L18.7033348,28.5387321 C16.9049372,29.9837312 16.5452577,32.8737294 18.3436553,34.6799782 C19.7823733,36.4862271 22.6598095,36.8474769 24.458207,35.041228 L48.5567345,13.7274914 L48.5567345,40.4599746 L10.0710264,77.6687012 C8.27262885,79.1137003 8.27262885,82.0036985 10.0710264,83.8099474 C11.869424,85.6161962 14.3871806,85.6161962 16.1855782,83.8099474 L48.9164141,52.0199673 L48.9164141,80.9199492 L6.47423127,122.102423 C4.6758337,123.908672 4.6758337,126.437421 6.47423127,128.243669 C7.55326982,128.966169 8.63230836,129.327419 9.71134691,129.327419 C10.7903855,129.327419 11.869424,128.966169 12.588783,128.243669 L48.5567345,92.8411917 L48.5567345,162.923648 L4.31615418,162.923648 C2.15807709,162.923648 0,164.729897 0,167.258645 C0,169.426144 1.79839758,171.593642 4.31615418,171.593642 L126.683846,171.593642 C128.841923,171.593642 131,169.787393 131,167.258645 C131,165.091146 129.201602,162.923648 126.683846,162.923648 Z" id="Path"></path>
            </g>
            <g id="tree" transform="translate(110.829787, 0.000000)">
                <path d="M102.186027,162.923648 L57.2947717,163.284897 L57.2947717,92.8411917 L93.6895638,127.88242 C95.4912862,129.688669 98.0136975,129.327419 99.8154199,127.88242 C101.617142,126.076171 101.256798,123.547422 99.8154199,121.741174 L57.2947717,81.281199 L57.2947717,52.3812171 L90.086119,84.1711972 C90.806808,84.8936967 91.8878414,85.2549465 92.9688748,85.2549465 C94.0499082,85.2549465 95.1309417,84.8936967 95.8516306,83.8099474 C97.2930085,82.0036985 97.2930085,79.4749501 95.8516306,77.6687012 L57.2947717,40.4599746 L57.2947717,13.7274914 L82.1585405,34.6799782 C82.8792295,35.4024778 83.9602629,35.7637275 85.0412963,35.7637275 C86.1223298,35.7637275 87.5637077,35.4024778 88.2843966,34.3187285 C89.7257745,32.5124796 89.7257745,29.9837312 87.9240522,28.1774823 L55.8533938,1.44499909 C54.4120159,3.65263375e-14 51.8896046,3.65263375e-14 50.4482266,1.44499909 L18.7379128,28.5387321 C16.9361904,29.9837312 16.5758459,32.8737294 18.3775683,34.6799782 C19.8189462,36.4862271 22.701702,36.8474769 24.5034244,35.041228 L48.6465043,13.7274914 L48.6465043,40.4599746 L10.0896453,77.6687012 C8.28792295,79.1137003 8.28792295,82.0036985 10.0896453,83.8099474 C11.8913677,85.6161962 14.413779,85.6161962 16.2155014,83.8099474 L49.0068487,52.0199673 L49.0068487,80.9199492 L6.48620057,122.102423 C4.68447819,123.908672 4.68447819,126.437421 6.48620057,128.243669 C7.567234,128.966169 8.64826743,129.327419 9.72930085,129.327419 C10.8103343,129.327419 11.8913677,128.966169 12.6120567,128.243669 L48.6465043,92.8411917 L48.6465043,162.923648 L4.32413371,162.923648 C2.16206686,162.923648 0,164.729897 0,167.258645 C0,169.426144 1.80172238,171.593642 4.32413371,171.593642 L102.186027,171.593642 C104.348094,171.593642 106.510161,169.787393 106.510161,167.258645 C106.510161,165.091146 104.708438,162.923648 102.186027,162.923648 Z" id="Path"></path>
            </g>
        </g>
    </g>
</svg>