<?xml version="1.0" encoding="utf-8"?>
<!-- Generator: Adobe Illustrator 23.1.1, SVG Export Plug-In . SVG Version: 6.00 Build 0)  -->
<svg version="1.1" id="Ebene_1" xmlns="http://www.w3.org/2000/svg" xmlns:xlink="http://www.w3.org/1999/xlink" x="0px" y="0px"
	 viewBox="0 0 1366 276" style="enable-background:new 0 0 1366 276;" xml:space="preserve">
<style type="text/css">
	.st0{fill:#5C6A7D;}
	.st1{fill:#36485E;}
	.st2{fill-rule:evenodd;clip-rule:evenodd;fill:#253854;}
	.st3{fill-rule:evenodd;clip-rule:evenodd;fill:#1C2A40;}
	.st4{opacity:0.1;fill:#5C6A7D;}
	.st5{stroke:#FFFFFF;stroke-width:1.1226;stroke-miterlimit:10;}
	.st6{stroke:#FFFFFF;stroke-width:2;}
	.st7{fill:none;stroke:#000000;stroke-width:2.2451;}
	.st8{stroke:#FFFFFF;stroke-width:2.2451;}
	.st9{stroke:#FFFFFF;stroke-width:0.3996;}
	.st10{stroke:#000000;stroke-width:2;stroke-miterlimit:10;}
	.st11{fill:none;stroke:#000000;stroke-width:1.5576;stroke-miterlimit:10;}
	.st12{fill:none;stroke:#000000;stroke-width:2.4921;stroke-miterlimit:10;}
	.st13{fill:#FFFFFF;}
	.st14{fill:none;stroke:#000000;stroke-width:2;stroke-miterlimit:10;}
	.st15{stroke:#FFFFFF;stroke-width:0.8419;stroke-miterlimit:10;}
	.st16{stroke:#FFFFFF;stroke-width:0.9022;stroke-miterlimit:10;}
	.st17{fill:#1C2A40;}
	.st18{fill:#1C2A40;stroke:#FFFFFF;stroke-width:0.75;stroke-miterlimit:10;}
	.st19{stroke:#FFFFFF;stroke-width:1.8698;}
	.st20{fill:none;stroke:#1C2A40;stroke-width:2.2451;stroke-miterlimit:10;}
	.st21{fill:#37485E;}
	.st22{fill:#253854;}
	.st23{opacity:0.7;}
	.st24{fill:none;stroke:#1C2A40;stroke-width:0.293;stroke-linecap:round;stroke-linejoin:round;}
	.st25{fill:none;stroke:#1C2A40;stroke-width:0.2791;}
	.st26{opacity:0.8;}
	.st27{fill:none;stroke:#1C2A40;stroke-width:0.2707;stroke-linecap:round;stroke-linejoin:round;}
	.st28{fill:none;stroke:#1C2A40;stroke-width:0.2579;}
	.st29{opacity:0.9;}
	.st30{fill:none;stroke:#1C2A40;stroke-width:0.2637;stroke-linecap:round;stroke-linejoin:round;}
	.st31{fill:none;stroke:#1C2A40;stroke-width:0.2512;}
	.st32{fill:none;stroke:#1C2A40;stroke-width:0.2822;stroke-miterlimit:10;}
	.st33{fill-rule:evenodd;clip-rule:evenodd;fill:#5C6A7D;}
	.st34{fill-rule:evenodd;clip-rule:evenodd;fill:#36485E;}
	.st35{fill:#38485E;}
	.st36{fill:#FFFFFF;stroke:#FFFFFF;stroke-miterlimit:10;}
	.st37{fill:#FFFFFF;stroke:#FFFFFF;stroke-width:3.3656;stroke-miterlimit:10;}
	.st38{fill:#FFFFFF;stroke:#FFFFFF;stroke-width:2.9414;stroke-miterlimit:10;}
	.st39{fill:none;stroke:#FFFFFF;stroke-width:6.6037;stroke-miterlimit:10;}
</style>
<g>
	<path class="st0" d="M794.6,151.9c-39.7,6.5-116,27-181.9,91.4c-1.1,1.1-1.1,2.9,0,4c0.6,0.6,1.3,0.9,2,0.9c0.7,0,1.4-0.3,2-0.8
		c64.7-63.3,139.8-83.4,178.8-89.8c1.6-0.3,2.6-1.7,2.4-3.3C797.6,152.7,796.1,151.6,794.6,151.9z"/>
	<path class="st0" d="M794.3,180.4c-34,7.9-84.8,25.1-133.4,62.8c-1.2,1-1.5,2.8-0.5,4c0.6,0.7,1.4,1.1,2.2,1.1
		c0.6,0,1.2-0.2,1.8-0.6c47.8-37.1,97.8-54.1,131.2-61.8c1.5-0.4,2.5-1.9,2.1-3.4C797.4,181,795.8,180,794.3,180.4z"/>
	<path class="st0" d="M797.6,212.1c-0.4-1.5-2-2.4-3.5-1.9c-27.2,8-53.2,19.3-77.3,33.3c-1.4,0.8-1.8,2.5-1,3.9
		c0.5,0.9,1.5,1.4,2.5,1.4c0.5,0,1-0.1,1.4-0.4c23.7-13.8,49.2-24.9,76-32.8C797.2,215.2,798,213.6,797.6,212.1z"/>
	<path class="st0" d="M572.6,104.2c0.6,0,63.6,3.9,131.6,43c-9.3,3.7-19,8-29,13c-40.6-21.3-77.9-30.7-102.1-34.8
		c-1.5-0.3-3,0.8-3.3,2.3c-0.3,1.6,0.8,3,2.3,3.3c23.1,3.9,58.3,12.8,96.8,32.4c-8.5,4.5-17.2,9.5-25.8,15.1
		c-22.4-10.7-45.9-19-69.9-24.7c-1.5-0.4-3.1,0.6-3.4,2.1c-0.4,1.5,0.6,3.1,2.1,3.4c22.5,5.4,44.6,13.1,65.7,22.9
		c-7.6,5.1-15.2,10.8-22.8,16.9c-13.4-6-27.4-11.2-41.5-15.5c-1.5-0.5-3.1,0.4-3.6,1.9c-0.5,1.5,0.4,3.1,1.9,3.6
		c13,3.9,25.8,8.7,38.2,14.1c-13.7,11.6-27.1,24.8-39.8,40.1c-1,1.2-0.8,3,0.4,4c0.5,0.4,1.2,0.7,1.8,0.7c0.8,0,1.6-0.3,2.2-1
		C665,138.2,794,130.8,795.3,130.7c1.6-0.1,2.8-1.4,2.7-3c-0.1-1.6-1.5-2.8-3-2.7c-0.7,0-36.6,2.1-84,19.7
		c-70.8-42-137.5-46.1-138.1-46.1c-1.6-0.1-2.9,1.1-3,2.7C569.8,102.8,571,104.2,572.6,104.2z"/>
	<path class="st0" d="M663.2,41.5c0-9-3.5-13.8-6.3-17.6c-0.6-0.8-1.1-1.5-1.6-2.2c-0.9-1.3-2.7-1.7-4-0.8c-1.3,0.9-1.7,2.6-0.8,4
		c0.6,0.8,1.1,1.6,1.8,2.5c2.7,3.7,5.2,7.1,5.2,14.2c0,5.6-1.9,8.3-4,11.3c-2.3,3.4-5,7.2-5,14.6c0,7.4,2.6,11.2,4.9,14.6
		c0.6,0.8,1.4,1.2,2.3,1.2c0.6,0,1.1-0.2,1.6-0.5c1.3-0.9,1.6-2.7,0.7-4c-2.1-3.1-3.9-5.8-3.9-11.4c0-5.6,1.9-8.3,4-11.3
		C660.5,52.7,663.2,48.9,663.2,41.5z"/>
	<path class="st0" d="M691.5,41.6c0-9-3.5-13.8-6.3-17.6c-0.6-0.8-1.1-1.5-1.6-2.2c-0.9-1.3-2.6-1.7-4-0.8c-1.3,0.9-1.7,2.6-0.8,4
		c0.6,0.8,1.1,1.6,1.8,2.5c2.7,3.7,5.2,7.1,5.2,14.2c0,5.6-1.9,8.3-4,11.3c-2.3,3.4-5,7.2-5,14.6c0,7.4,2.6,11.2,4.9,14.6
		c0.6,0.8,1.4,1.2,2.3,1.2c0.6,0,1.1-0.2,1.6-0.5c1.3-0.9,1.6-2.7,0.7-4c-2.1-3.1-3.9-5.8-3.9-11.4c0-5.6,1.9-8.3,4-11.3
		C688.8,52.8,691.5,49,691.5,41.6z"/>
	<path class="st0" d="M719.8,41.7c0-9-3.5-13.8-6.3-17.6c-0.6-0.8-1.1-1.5-1.6-2.2c-0.9-1.3-2.7-1.7-4-0.8c-1.3,0.9-1.7,2.6-0.8,4
		c0.6,0.8,1.1,1.6,1.8,2.5c2.7,3.7,5.2,7.1,5.2,14.2c0,5.6-1.9,8.3-4,11.3c-2.3,3.4-5,7.2-5,14.6c0,7.4,2.6,11.2,4.9,14.6
		c0.6,0.8,1.4,1.2,2.3,1.2c0.6,0,1.1-0.2,1.6-0.5c1.3-0.9,1.6-2.7,0.7-4c-2.1-3.1-3.9-5.8-3.9-11.4c0-5.6,1.9-8.3,4-11.3
		C717.1,52.9,719.8,49.1,719.8,41.7z"/>
</g>
</svg>
