<?xml version="1.0" encoding="utf-8"?>
<!-- Generator: Adobe Illustrator 24.2.1, SVG Export Plug-In . SVG Version: 6.00 Build 0)  -->
<svg version="1.1" id="Ebene_1" xmlns="http://www.w3.org/2000/svg" xmlns:xlink="http://www.w3.org/1999/xlink" x="0px" y="0px"
	 viewBox="0 0 638.3 810" style="enable-background:new 0 0 638.3 810;" xml:space="preserve">
<style type="text/css">
	.st0{opacity:0.3;}
	.st1{fill:#7D3558;}
	.st2{opacity:0.4;}
	.st3{opacity:0.5;fill:#7D3558;}
	.st4{opacity:0.6;}
	.st5{opacity:0.7;}
	.st6{opacity:0.8;}
	.st7{fill:#7ABDB4;}
	.st8{fill:#DDA04D;}
	.st9{fill:#D05632;}
	.st10{opacity:0.9;}
	.st11{opacity:0.5;fill:#7ABDB4;}
	.st12{opacity:0.6;fill:#D05632;}
	.st13{opacity:0.5;}
	.st14{opacity:0.5;fill:#DDA04D;}
	.st15{fill:#A12C2C;}
	.st16{fill:#EF7D81;}
	.st17{fill:#E9AEAD;}
	.st18{fill:#4F1112;}
	.st19{opacity:0.5;fill:#4F1112;}
	.st20{opacity:0.5;fill:#A12C2C;}
	.st21{opacity:0.6;fill:#EF7D81;}
	.st22{opacity:0.5;fill:#E9AEAD;}
	.st23{opacity:0.6;fill:#E9AEAD;}
	.st24{opacity:0.9;fill:#E9AEAD;}
	.st25{opacity:0.4;fill:#E9AEAD;}
	.st26{opacity:0.7;fill:#E9AEAD;}
	.st27{fill:#4F1211;}
	.st28{fill:none;stroke:#4F1112;stroke-width:0.5;stroke-miterlimit:10;}
	.st29{fill:none;stroke:#E9AEAD;stroke-miterlimit:10;}
	.st30{fill:none;stroke:#A12C2C;stroke-miterlimit:10;}
	.st31{fill:#1C2A40;}
	.st32{opacity:0.9;fill:#1C2A40;}
	.st33{opacity:0.8;fill:#1C2A40;}
	.st34{opacity:0.7;fill:#1C2A40;}
	.st35{opacity:0.6;fill:#1C2A40;}
	.st36{opacity:0.4;fill:#1C2A40;}
	.st37{fill:none;stroke:#493F92;stroke-width:0.25;}
	.st38{fill-rule:evenodd;clip-rule:evenodd;fill:#1C2A40;}
	.st39{fill:#1C2A40;stroke:#FFFFFF;stroke-width:0.3238;stroke-linecap:round;}
	.st40{fill:#1C2A40;stroke:#FFFFFF;stroke-width:0.2941;stroke-linecap:round;}
	.st41{fill:#1C2A40;stroke:#FFFFFF;stroke-width:0.3338;stroke-linecap:round;}
	.st42{fill:#1C2A40;stroke:#FFFFFF;stroke-width:0.2445;stroke-linecap:round;}
	.st43{fill:none;stroke:#1D2A40;stroke-width:0.2398;stroke-linecap:round;stroke-linejoin:round;}
	.st44{fill:none;stroke:#1D2A40;stroke-width:0.2285;}
	.st45{fill:#020203;}
	.st46{fill:#FFFFFF;}
	.st47{fill-rule:evenodd;clip-rule:evenodd;fill:#FAFAFA;}
	.st48{fill:#37485E;}
	.st49{fill:#5C697C;}
	.st50{fill-rule:evenodd;clip-rule:evenodd;fill:#253854;}
	.st51{fill:#253854;}
	.st52{fill:none;stroke:#1D2A40;stroke-width:0.2216;stroke-linecap:round;stroke-linejoin:round;}
	.st53{fill:none;stroke:#1D2A40;stroke-width:0.2111;}
	.st54{fill:none;stroke:#1D2A40;stroke-width:0.2158;stroke-linecap:round;stroke-linejoin:round;}
	.st55{fill:none;stroke:#1D2A40;stroke-width:0.2056;}
	.st56{fill:none;stroke:#1C2A40;stroke-width:0.231;stroke-miterlimit:10;}
	.st57{fill:#1C2A40;stroke:#FFFFFF;stroke-width:0.2555;stroke-linecap:round;}
	.st58{opacity:0.7;fill:#5C697C;}
	.st59{fill:none;stroke:#5C697C;stroke-width:0.25;stroke-miterlimit:10;}
	.st60{fill:#1C2A40;stroke:#FFFFFF;stroke-width:0.29;stroke-linecap:round;}
	.st61{fill:none;stroke:#37485E;stroke-width:0.2;stroke-miterlimit:10;}
	.st62{fill:#1C2A40;stroke:#FFFFFF;stroke-width:0.2723;stroke-linecap:round;}
	.st63{fill:none;stroke:#1D2A40;stroke-miterlimit:10;}
	.st64{fill:none;stroke:#E30613;stroke-miterlimit:10;}
	.st65{fill:none;stroke:#1D2A40;stroke-width:0.293;stroke-linecap:round;stroke-linejoin:round;}
	.st66{fill:none;stroke:#1D2A40;stroke-width:0.2791;}
	.st67{fill:none;stroke:#1D2A40;stroke-width:0.2707;stroke-linecap:round;stroke-linejoin:round;}
	.st68{fill:none;stroke:#1D2A40;stroke-width:0.2579;}
	.st69{fill:none;stroke:#1D2A40;stroke-width:0.2637;stroke-linecap:round;stroke-linejoin:round;}
	.st70{fill:none;stroke:#1D2A40;stroke-width:0.2512;}
	.st71{fill:none;stroke:#1C2A40;stroke-width:0.2822;stroke-miterlimit:10;}
	.st72{fill-rule:evenodd;clip-rule:evenodd;fill:#5C697C;}
	.st73{fill:#5C697C;stroke:#FFFFFF;stroke-width:0.1;stroke-miterlimit:10;}
	.st74{fill:#5C697C;stroke:#5C697C;stroke-width:0.1;stroke-miterlimit:10;}
	.st75{fill:#39495E;}
	.st76{fill:#192A40;}
	.st77{fill:#233854;}
	.st78{font-family:'IBMPlexSerif-Light';}
	.st79{font-size:7px;}
	.st80{font-family:'Roboto-Light';}
	.st81{fill:none;}
	.st82{font-family:'IBMPlexSerif';}
	.st83{font-size:40px;}
	.st84{font-size:24px;}
	.st85{font-size:13px;}
	.st86{font-size:10px;}
	.st87{font-size:9px;}
	.st88{font-size:19px;}
	.st89{font-size:18px;}
</style>
<image style="overflow:visible;" width="4800" height="580" xlink:href="../../../../../../../../../../Downloads/sankeymatic_4800x580.png"  transform="matrix(-1.262805e-11 9.375659e-02 -9.375659e-02 -1.262805e-11 90.0784 281.7841)">
</image>
<image style="overflow:visible;" width="4800" height="960" xlink:href="../../../../../../../../../../Downloads/sankeymatic_4800x960.png"  transform="matrix(-1.262805e-11 9.375659e-02 -9.375659e-02 -1.262805e-11 331.6055 281.2202)">
</image>
<image style="overflow:visible;" width="4800" height="2400" xlink:href="../../../../../../../../../../Downloads/sankeymatic_4800x2400 (1).png"  transform="matrix(-1.262805e-11 9.375659e-02 -9.375659e-02 -1.262805e-11 608.1764 281.2202)">
</image>
<image style="overflow:visible;" width="4800" height="600" xlink:href="../../../../../../../../../../Downloads/sankeymatic_4800x600.png"  transform="matrix(-1.262808e-11 9.375675e-02 -9.375675e-02 -1.262808e-11 190.9472 281.7837)">
</image>
<path class="st49" d="M55.4,768.9c0-0.1,0.1-0.3,0.1-0.4c0-0.2-0.1-0.4-0.3-0.5c-0.2-0.1-0.5-0.2-0.8,0c0,0,0,0,0,0
	c-0.3,0.1-0.5,0.3-0.7,0.5l-0.9,0.9l-2.9-1.1c-0.5-0.2-1-0.1-1.3,0.3c-0.1,0.2-0.1,0.4,0.1,0.5l2.5,1.9l-0.3,0.3
	c-0.3,0.3-0.5,0.6-0.8,0.9l-1.3-0.2c-0.1,0-0.1,0-0.2,0.1l-0.2,0.6c0,0.1,0,0.2,0.1,0.2l0.8,0.4c-0.2,0.3-0.4,0.6-0.6,0.9
	c-0.1,0.2,0,0.3,0.1,0.4c0.1,0.1,0.2,0.1,0.3,0c0.3-0.2,0.6-0.4,0.9-0.6l0.4,0.8c0,0.1,0.1,0.1,0.2,0.1l0.6-0.2
	c0.1,0,0.1-0.1,0.1-0.2l-0.2-1.3c0.3-0.2,0.6-0.5,0.9-0.8l0.3-0.3l1.9,2.5c0.1,0.2,0.4,0.2,0.5,0.1c0.4-0.3,0.5-0.8,0.3-1.3
	l-1.1-2.9l0.9-0.9C55.2,769.4,55.3,769.2,55.4,768.9z M48.9,768.9c0,0,0-0.1,0-0.1c0.2-0.3,0.7-0.3,0.9-0.2l2.8,1l-1.1,1.2
	L48.9,768.9z M54.8,773.5c0.1,0.3,0.1,0.7-0.2,0.9c0,0-0.1,0-0.1,0l-1.9-2.6l1.2-1.1L54.8,773.5z M51.9,772.2
	c-0.3,0.3-0.6,0.5-0.9,0.8c0,0-0.1,0.1-0.1,0.1c0,0,0,0,0,0l0.2,1.2l-0.3,0.1l-0.4-0.8c0-0.1-0.1-0.1-0.2-0.1c0,0,0,0,0,0
	c-0.3,0.2-0.7,0.5-1,0.7c0,0,0,0,0,0c0,0,0,0,0,0c0.2-0.3,0.4-0.7,0.7-1c0-0.1,0-0.2,0-0.2c0,0,0,0,0,0l-0.8-0.4l0.1-0.3l1.2,0.2
	l0,0c0.1,0,0.1,0,0.2-0.1c0.2-0.3,0.5-0.6,0.8-0.9l2.8-2.9c0.2-0.2,0.4-0.3,0.6-0.4c0,0,0,0,0,0c0.2-0.1,0.4-0.1,0.5,0
	c0.1,0.1,0.1,0.2,0.1,0.3c0,0.1,0,0.2-0.1,0.3c-0.1,0.2-0.2,0.4-0.4,0.6L51.9,772.2z"/>
<text transform="matrix(-2.100000e-04 1 -1 -2.100000e-04 86.4016 737.3625)" class="st31 st78 st79">2,50 kg</text>
<text transform="matrix(-2.100000e-04 1 -1 -2.100000e-04 66.6197 737.1636)" class="st31 st78 st79">1,80 kg</text>
<text transform="matrix(-2.100000e-04 1 -1 -2.100000e-04 76.4156 736.868)" class="st31 st78 st79">0,75 kg</text>
<text transform="matrix(-2.100000e-04 1 -1 -2.100000e-04 57.4835 737.213)" class="st31 st78 st79">0,30 kg</text>
<text transform="matrix(-2.100000e-04 1 -1 -2.100000e-04 49.2941 737.161)" class="st31 st78 st79">0,25 kg</text>
<text transform="matrix(-2.100000e-04 1 -1 -2.100000e-04 41.7453 737.2341)" class="st31 st78 st79">0,20 kg</text>
<text transform="matrix(-2.100000e-04 1 -1 -2.100000e-04 34.0448 737.161)" class="st31 st78 st79">0,20 kg</text>
<g id="Animals_331_">
	<g>
		<g id="Artboard_384_" transform="translate(-3113.000000, -1056.000000)">
			<g id="noun_bag_606249_82_">
				<g transform="translate(3113.000000, 1056.000000)">
					<g id="Group_232_">
						<g transform="translate(0.215533, 0.000000)">
							<path id="Shape_243_" class="st49" d="M70.2,768.6c0,0-0.1,0-0.1,0c-0.1,0-0.3,0.1-0.5,0.3l-3.1,0c-0.2-0.1-0.3-0.2-0.4-0.3
								c-0.1,0-0.3,0-0.3,0h0c0,0,0,0,0,0c0,0,0,0,0,0c0,0-0.1,0-0.1,0c-0.1,0.1-0.2,0.2-0.2,0.4c0,0.2,0.1,0.4,0.2,0.7
								c-0.1,0.5-0.1,1.2-0.1,2.1c0,0.9,0,1.6,0.1,2.1c-0.1,0.3-0.2,0.5-0.2,0.7c0,0.2,0.1,0.4,0.2,0.4c0.2,0.1,0.5,0.1,0.9-0.2
								l3.1,0c0.4,0.4,0.7,0.4,0.9,0.2c0.1-0.1,0.2-0.2,0.2-0.4c0-0.2-0.1-0.4-0.2-0.7c0.1-0.5,0.1-1.2,0.1-2.1c0-0.9,0-1.6-0.1-2.1
								c0.1-0.3,0.2-0.5,0.2-0.7c0-0.2-0.1-0.4-0.2-0.4C70.4,768.6,70.3,768.6,70.2,768.6z M70.2,768.9
								C70.2,768.9,70.3,768.9,70.2,768.9c0,0,0.1,0.1,0.1,0.2c0,0.2,0,0.4-0.2,0.6c0,0,0,0.1,0,0.1c0.1,0.5,0.1,1.2,0.1,2.1
								c0,0.9,0,1.6-0.1,2.1c0,0,0,0.1,0,0.1c0.1,0.3,0.2,0.5,0.2,0.6c0,0.2-0.1,0.2-0.1,0.2c0,0-0.2,0.1-0.6-0.2c0,0-0.1,0-0.1,0
								l-3.1,0c0,0-0.1,0-0.1,0c-0.4,0.4-0.6,0.3-0.6,0.2c0,0-0.1-0.1-0.1-0.2c0-0.2,0-0.4,0.2-0.6c0,0,0-0.1,0-0.1
								c-0.1-0.5-0.1-1.2-0.1-2.1c0-0.9,0-1.6,0.1-2.1c0,0,0-0.1,0-0.1c-0.1-0.3-0.2-0.5-0.2-0.6c0-0.1,0.1-0.2,0.1-0.2
								c0.1,0,0.1,0,0.2,0c0.1,0,0.2,0.1,0.4,0.2c0,0,0.1,0,0.1,0l3.1,0c0,0,0.1,0,0.1,0c0.2-0.2,0.3-0.2,0.4-0.3
								C70.1,768.9,70.2,768.9,70.2,768.9z M66.4,770.8c-0.1,0-0.1,0.1-0.1,0.1l0,1.7c0,0.1,0.1,0.1,0.1,0.1l3.1,0
								c0.1,0,0.1-0.1,0.1-0.1l0-1.7c0-0.1-0.1-0.1-0.1-0.1L66.4,770.8z M66.6,771.1l2.8,0l0,1.4l-2.8,0L66.6,771.1z"/>
						</g>
					</g>
				</g>
			</g>
		</g>
	</g>
</g>
<g id="Animals_330_" class="st5">
	<g id="Artboard_375_" transform="translate(-3112.000000, -1227.000000)">
		<g id="Group-2_55_" transform="translate(3113.000000, 1228.000000)">
			<polyline id="Path-14_60_" class="st65" points="38.9,766.9 40,766.9 40.1,767.7 41,771.6 45.3,771.6 			"/>
			<ellipse id="Oval_60_" class="st66" cx="41.8" cy="773.1" rx="0.7" ry="0.7"/>
			<ellipse class="st66" cx="44.5" cy="773.1" rx="0.7" ry="0.7"/>
			<polygon id="Path-15_60_" class="st65" points="40.1,767.7 46.2,767.7 45.6,770.6 40.7,770.6 			"/>
		</g>
	</g>
</g>
<g id="Animals_328_">
	<g>
		<g id="Artboard_383_" transform="translate(-3118.000000, -1138.000000)">
			<g id="noun_Factory_1474011_81_" transform="translate(3118.000000, 1138.000000)">
				<g id="Group_231_">
					<path id="Shape_242_" class="st49" d="M59.4,770.9h-2.2c-0.1,0-0.1,0.1-0.1,0.1l-0.2,3.9c0,0,0,0.1,0,0.1c0,0,0.1,0,0.1,0h2.6
						c0,0,0.1,0,0.1,0c0,0,0-0.1,0-0.1l-0.2-3.9C59.5,770.9,59.5,770.9,59.4,770.9z M57.1,774.8l0.2-3.7h2l0.2,3.7H57.1z"/>
					<path class="st49" d="M57.3,770.1c0.2,0.2,0.4,0.2,0.6,0.1c0.1,0.1,0.3,0.2,0.5,0.2c0.2,0,0.4-0.1,0.6-0.3
						c0.4,0,0.6-0.3,0.6-0.7c0-0.4-0.3-0.7-0.7-0.7c-0.1-0.2-0.3-0.3-0.6-0.3c-0.3,0-0.6,0.2-0.7,0.4c-0.1,0-0.3,0.1-0.4,0.2
						c-0.1,0.1-0.2,0.3-0.2,0.5C57.1,769.9,57.2,770,57.3,770.1z M57.4,769.4c0.1-0.1,0.2-0.1,0.3-0.1c0.1,0,0.1,0,0.1-0.1
						c0.1-0.2,0.2-0.3,0.4-0.3c0.2,0,0.3,0.1,0.4,0.2c0,0,0.1,0.1,0.1,0.1h0c0,0,0,0,0,0c0.3,0,0.5,0.2,0.5,0.4
						c0,0.2-0.2,0.4-0.4,0.4c-0.1,0-0.1,0-0.1,0.1c-0.1,0.1-0.2,0.2-0.4,0.2c-0.1,0-0.2,0-0.3-0.1c0,0-0.1,0-0.1,0c0,0,0,0,0,0
						c-0.1,0-0.2,0-0.4-0.1c-0.1-0.1-0.2-0.2-0.2-0.3C57.3,769.5,57.3,769.4,57.4,769.4z"/>
					<path class="st49" d="M62,772.5c0-0.1-0.1-0.1-0.1-0.1h-1.3c-0.1,0-0.1,0.1-0.1,0.1l-0.1,2.4c0,0,0,0.1,0,0.1c0,0,0.1,0,0.1,0
						H62c0,0,0.1,0,0.1,0c0,0,0-0.1,0-0.1L62,772.5z M60.5,774.8l0.1-2.2h1.1l0.1,2.2H60.5z"/>
					<path class="st49" d="M60.5,772c0.2,0.1,0.3,0.1,0.4,0.1c0.1,0.1,0.2,0.1,0.3,0.1c0.2,0,0.3-0.1,0.4-0.2c0.2,0,0.4-0.2,0.4-0.5
						c0-0.2-0.2-0.5-0.5-0.5c-0.1-0.1-0.2-0.2-0.4-0.2c-0.2,0-0.4,0.1-0.4,0.3c-0.2,0-0.3,0.2-0.3,0.4
						C60.3,771.7,60.4,771.8,60.5,772z M60.6,771.6c0-0.1,0.1-0.2,0.2-0.2c0.1,0,0.1,0,0.1-0.1c0-0.1,0.1-0.2,0.2-0.2
						c0.1,0,0.2,0,0.2,0.1c0,0,0.1,0.1,0.1,0.1h0c0,0,0,0,0,0c0.1,0,0.2,0.1,0.2,0.2c0,0.1-0.1,0.2-0.2,0.2c0,0-0.1,0-0.1,0.1
						c0,0.1-0.1,0.1-0.2,0.1c-0.1,0-0.1,0-0.2-0.1c0,0-0.1,0-0.1,0c0,0,0,0,0,0c-0.1,0-0.1,0-0.2-0.1
						C60.6,771.7,60.6,771.6,60.6,771.6z"/>
					<path class="st49" d="M61.3,770.8c0.1,0.1,0.2,0.1,0.2,0.1c0.1,0,0.1,0.1,0.2,0.1c0.1,0,0.2,0,0.2-0.1c0.1,0,0.3-0.1,0.3-0.3
						c0-0.2-0.1-0.3-0.3-0.3c-0.1-0.1-0.1-0.1-0.2-0.1c-0.1,0-0.2,0.1-0.3,0.2c-0.1,0-0.2,0.1-0.2,0.2
						C61.2,770.6,61.2,770.7,61.3,770.8z M61.4,770.6c0-0.1,0.1-0.1,0.1-0.1c0,0,0.1,0,0.1-0.1c0-0.1,0.1-0.1,0.1-0.1
						c0.1,0,0.1,0,0.1,0.1c0,0,0,0,0.1,0h0c0,0,0,0,0,0c0.1,0,0.1,0.1,0.1,0.1c0,0.1-0.1,0.1-0.1,0.1c0,0-0.1,0-0.1,0
						c0,0-0.1,0.1-0.1,0.1c0,0-0.1,0-0.1,0c0,0,0,0-0.1,0c0,0,0,0,0,0c0,0-0.1,0-0.1,0C61.4,770.6,61.4,770.6,61.4,770.6z"/>
					<path class="st49" d="M59,768.6c0.2,0.1,0.3,0.1,0.4,0.1c0.1,0.1,0.2,0.1,0.3,0.1c0.2,0,0.3-0.1,0.4-0.2c0.2,0,0.4-0.2,0.4-0.5
						c0-0.2-0.2-0.5-0.5-0.5c-0.1-0.1-0.2-0.2-0.4-0.2c-0.2,0-0.4,0.1-0.4,0.3c-0.2,0-0.3,0.2-0.3,0.4
						C58.8,768.3,58.9,768.5,59,768.6z M59.1,768.2c0-0.1,0.1-0.2,0.2-0.2c0.1,0,0.1,0,0.1-0.1c0-0.1,0.1-0.2,0.2-0.2
						c0.1,0,0.2,0,0.2,0.1c0,0,0.1,0.1,0.1,0.1h0c0,0,0,0,0,0c0.1,0,0.2,0.1,0.2,0.2c0,0.1-0.1,0.2-0.2,0.2c0,0-0.1,0-0.1,0.1
						c0,0.1-0.1,0.1-0.2,0.1c-0.1,0-0.1,0-0.2-0.1c0,0-0.1,0-0.1,0c0,0,0,0,0,0c-0.1,0-0.1,0-0.2-0.1
						C59.1,768.4,59.1,768.3,59.1,768.2z"/>
				</g>
			</g>
		</g>
	</g>
</g>
<g id="Animals_326_">
	<g>
		<g id="Artboard_382_" transform="translate(-3118.000000, -1364.000000)">
			<g id="noun_sausages_2556563_81_" transform="translate(3118.000000, 1364.000000)">
				<g id="Group_230_" transform="translate(0.336231, 0.000000)">
					<path id="Shape_241_" class="st49" d="M33.9,767.9c-0.6,0-1.1,0.5-1.1,1v4.9c0,0.6,0.5,1,1.1,1h3.2c0.6,0,1.1-0.5,1.1-1v-4.9
						c0-0.6-0.5-1-1.1-1H33.9z M34,768.5h0.9c0,0.2-0.2,0.3-0.4,0.3S34.1,768.7,34,768.5z M35.1,770h-1.3v-0.4
						c0-0.3,0.3-0.6,0.6-0.6s0.6,0.2,0.6,0.6V770L35.1,770z M38,770.2v2.2h-5.1v-2.2H38z M36.1,768.5h0.9c0,0.2-0.2,0.3-0.4,0.3
						S36.1,768.7,36.1,768.5z M37.1,770h-1.3v-0.4c0-0.3,0.3-0.6,0.6-0.6s0.6,0.2,0.6,0.6V770L37.1,770z M36.9,774.1h-0.9
						c0-0.2,0.2-0.3,0.4-0.3S36.9,773.9,36.9,774.1z M35.9,772.6h1.3v0.5c0,0.3-0.3,0.6-0.6,0.6s-0.6-0.2-0.6-0.6V772.6L35.9,772.6z
						 M34.9,774.1H34c0-0.2,0.2-0.3,0.4-0.3S34.9,773.9,34.9,774.1z M33.8,772.6h1.3v0.5c0,0.3-0.3,0.6-0.6,0.6s-0.6-0.2-0.6-0.6
						V772.6L33.8,772.6z M37.1,774.6h-3.2c-0.5,0-0.9-0.4-0.9-0.9v-1.2h0.7v0.5c0,0.3,0.2,0.5,0.5,0.7c-0.2,0.1-0.3,0.3-0.3,0.5v0
						c0,0,0,0.1,0.1,0.1H35c0.1,0,0.1,0,0.1-0.1v0c0-0.2-0.1-0.4-0.3-0.5c0.3-0.1,0.5-0.4,0.5-0.7v-0.5h0.4v0.5
						c0,0.3,0.2,0.5,0.5,0.7c-0.2,0.1-0.3,0.3-0.3,0.5v0c0,0,0,0.1,0.1,0.1H37c0.1,0,0.1,0,0.1-0.1v0c0-0.2-0.1-0.4-0.3-0.5
						c0.3-0.1,0.5-0.4,0.5-0.7v-0.5H38v1.2C38,774.2,37.6,774.6,37.1,774.6z M38,768.9v1.2h-0.7v-0.4c0-0.3-0.2-0.5-0.5-0.7
						c0.2-0.1,0.3-0.3,0.3-0.5v0c0,0,0-0.1-0.1-0.1H36c-0.1,0-0.1,0-0.1,0.1v0c0,0.2,0.1,0.4,0.3,0.5c-0.3,0.1-0.5,0.4-0.5,0.7v0.4
						h-0.4v-0.4c0-0.3-0.2-0.5-0.5-0.7c0.2-0.1,0.3-0.3,0.3-0.5v0c0,0,0-0.1-0.1-0.1h-1.1c-0.1,0-0.1,0-0.1,0.1v0
						c0,0.2,0.1,0.4,0.3,0.5c-0.3,0.1-0.5,0.4-0.5,0.7v0.4h-0.7v-1.2c0-0.5,0.4-0.9,0.9-0.9h3.2C37.6,768,38,768.4,38,768.9z"/>
				</g>
			</g>
		</g>
	</g>
</g>
<g>
	<g>
		<path class="st72" d="M80.7,773.9c-0.4,0-0.8-0.2-1-0.6c0.4-0.4,0.7-0.9,0.7-1.5c0,0,0,0,0,0c0,0,0,0,0-0.1c0,0,0,0,0,0
			c0,0,0,0,0,0c0,0,0,0,0,0c0,0,0,0,0,0c0,0,0,0,0-0.1c0,0,0,0,0-0.1c0,0,0,0,0,0c0,0,0,0,0-0.1c0,0,0,0,0,0c0-0.3-0.1-0.7-0.2-1.1
			c0,0,0,0,0,0c0,0,0,0,0,0c0,0,0,0,0-0.1c0,0,0,0,0,0c0,0,0,0,0,0c0.2-0.3,0.4-0.4,0.5-0.4c0.3,0,0.6,0.4,0.9,1
			c0.2,0.6,0.4,1.3,0.4,1.7C82,773.3,81.4,773.9,80.7,773.9L80.7,773.9z M78.4,772.7l0.9-0.7c0.1-0.1,0.1-0.2,0-0.2
			c-0.1-0.1-0.2-0.1-0.2,0l-0.7,0.5v-1.4l0.6-0.4c0.1-0.1,0.1-0.2,0-0.2c-0.1-0.1-0.2-0.1-0.2,0l-0.4,0.3v-0.8
			c0-0.1-0.1-0.2-0.2-0.2c-0.1,0-0.2,0.1-0.2,0.2v1.8l-0.7-0.5c-0.1-0.1-0.2,0-0.2,0c-0.1,0.1,0,0.2,0,0.2l0.9,0.6v1.7
			c-0.9-0.1-1.6-0.8-1.7-1.8c0,0,0,0,0,0c0,0,0,0,0,0c0,0,0,0,0,0c0,0,0,0,0,0c0,0,0,0,0,0c0,0,0,0,0,0c0,0,0,0,0,0c0,0,0,0,0,0
			c0,0,0,0,0-0.1c0,0,0,0,0-0.1c0,0,0,0,0,0c0,0,0,0,0,0c0-0.4,0.1-0.8,0.2-1.3c0,0,0,0,0,0c0.1-0.3,0.2-0.7,0.3-1
			c0.4-1,0.9-1.5,1.3-1.5c0.4,0,0.9,0.5,1.3,1.5c0.1,0.3,0.3,0.7,0.3,1c0,0,0,0,0,0c0.1,0.5,0.2,1,0.2,1.3c0,0,0,0,0,0c0,0,0,0,0,0
			c0,0,0,0,0,0.1c0,0,0,0,0,0.1c0,0,0,0,0,0c0,0,0,0,0,0c0,0,0,0,0,0c0,0,0,0,0,0c0,0,0,0,0,0c0,0,0,0,0,0c0,0,0,0,0,0c0,0,0,0,0,0
			c-0.1,0.9-0.8,1.7-1.7,1.8V772.7z M75.8,773.9c-0.7,0-1.3-0.6-1.3-1.4c0-0.4,0.2-1.2,0.4-1.7c0.3-0.7,0.6-1,0.9-1
			c0.1,0,0.3,0.1,0.5,0.4c0,0,0,0,0,0c0,0,0,0,0,0c0,0,0,0,0,0.1c0,0,0,0,0,0c0,0,0,0,0,0c-0.1,0.4-0.2,0.8-0.2,1.1c0,0,0,0,0,0
			c0,0,0,0,0,0.1c0,0,0,0,0,0c0,0,0,0,0,0.1c0,0,0,0,0,0.1c0,0,0,0,0,0c0,0,0,0,0,0c0,0,0,0,0,0c0,0,0,0,0,0c0,0,0,0,0,0.1
			c0,0,0,0,0,0c0.1,0.6,0.3,1.1,0.7,1.5C76.6,773.7,76.2,773.9,75.8,773.9L75.8,773.9z M82.3,772.5c0-0.5-0.2-1.2-0.4-1.9
			c-0.4-1-0.9-1.2-1.2-1.2c-0.2,0-0.4,0.1-0.6,0.3c-0.1-0.3-0.2-0.5-0.3-0.7c-0.2-0.5-0.4-0.9-0.7-1.2c-0.3-0.4-0.6-0.5-0.9-0.5
			s-0.6,0.2-0.9,0.5c-0.2,0.3-0.5,0.7-0.7,1.2c-0.1,0.2-0.2,0.5-0.3,0.7c-0.2-0.2-0.4-0.3-0.6-0.3c-0.5,0-0.9,0.7-1.2,1.2
			c-0.3,0.6-0.4,1.4-0.4,1.9c0,0.9,0.6,1.6,1.4,1.7v0.6c0,0.1,0.1,0.2,0.2,0.2c0.1,0,0.2-0.1,0.2-0.2v-0.6c0.4,0,0.9-0.3,1.1-0.7
			c0.3,0.2,0.7,0.4,1,0.4v0.9c0,0.1,0.1,0.2,0.2,0.2c0.1,0,0.2-0.1,0.2-0.2v-0.9c0.4,0,0.7-0.2,1-0.4c0.3,0.4,0.7,0.6,1.1,0.7v0.6
			c0,0.1,0.1,0.2,0.2,0.2c0.1,0,0.2-0.1,0.2-0.2v-0.6C81.7,774.1,82.3,773.4,82.3,772.5L82.3,772.5z"/>
	</g>
</g>
<g>
	<g>
		<path class="st74" d="M91.5,771.7c-1.2,0.2-3.5,0.8-5.5,2.8c0,0,0,0.1,0,0.1c0,0,0,0,0.1,0c0,0,0,0,0.1,0c2-1.9,4.2-2.5,5.4-2.7
			C91.6,771.8,91.6,771.8,91.5,771.7C91.6,771.7,91.6,771.7,91.5,771.7z"/>
		<path class="st74" d="M91.5,772.5c-1,0.2-2.6,0.8-4,1.9c0,0,0,0.1,0,0.1c0,0,0,0,0.1,0c0,0,0,0,0.1,0c1.4-1.1,3-1.6,4-1.9
			c0,0,0.1-0.1,0.1-0.1C91.6,772.5,91.6,772.5,91.5,772.5z"/>
		<path class="st74" d="M91.6,773.5c0,0-0.1-0.1-0.1-0.1c-0.8,0.2-1.6,0.6-2.3,1c0,0-0.1,0.1,0,0.1c0,0,0,0,0.1,0c0,0,0,0,0,0
			c0.7-0.4,1.5-0.8,2.3-1C91.6,773.6,91.6,773.5,91.6,773.5z"/>
		<path class="st74" d="M84.8,770.2c0,0,1.9,0.1,4,1.3c-0.3,0.1-0.6,0.2-0.9,0.4c-1.2-0.6-2.4-0.9-3.1-1.1c0,0-0.1,0-0.1,0.1
			c0,0,0,0.1,0.1,0.1c0.7,0.1,1.8,0.4,2.9,1c-0.3,0.1-0.5,0.3-0.8,0.5c-0.7-0.3-1.4-0.6-2.1-0.7c0,0-0.1,0-0.1,0.1
			c0,0,0,0.1,0.1,0.1c0.7,0.2,1.4,0.4,2,0.7c-0.2,0.2-0.5,0.3-0.7,0.5c-0.4-0.2-0.8-0.3-1.3-0.5c0,0-0.1,0-0.1,0.1
			c0,0,0,0.1,0.1,0.1c0.4,0.1,0.8,0.3,1.2,0.4c-0.4,0.4-0.8,0.8-1.2,1.2c0,0,0,0.1,0,0.1c0,0,0,0,0.1,0c0,0,0,0,0.1,0
			c2.7-3.3,6.7-3.5,6.7-3.5c0,0,0.1,0,0.1-0.1c0,0,0-0.1-0.1-0.1c0,0-1.1,0.1-2.5,0.6c-2.1-1.3-4.2-1.4-4.2-1.4
			C84.8,770,84.7,770.1,84.8,770.2C84.7,770.2,84.8,770.2,84.8,770.2z"/>
		<path class="st74" d="M87.5,768.3c0-0.3-0.1-0.4-0.2-0.5c0,0,0,0,0-0.1c0,0-0.1-0.1-0.1,0c0,0-0.1,0.1,0,0.1c0,0,0,0,0.1,0.1
			c0.1,0.1,0.2,0.2,0.2,0.4c0,0.2-0.1,0.3-0.1,0.3c-0.1,0.1-0.2,0.2-0.2,0.4c0,0.2,0.1,0.3,0.1,0.4c0,0,0,0,0.1,0c0,0,0,0,0,0
			c0,0,0-0.1,0-0.1c-0.1-0.1-0.1-0.2-0.1-0.3c0-0.2,0.1-0.3,0.1-0.3C87.5,768.7,87.5,768.5,87.5,768.3z"/>
		<path class="st74" d="M88.4,768.3c0-0.3-0.1-0.4-0.2-0.5c0,0,0,0,0-0.1c0,0-0.1-0.1-0.1,0c0,0-0.1,0.1,0,0.1c0,0,0,0,0.1,0.1
			c0.1,0.1,0.2,0.2,0.2,0.4c0,0.2-0.1,0.3-0.1,0.3c-0.1,0.1-0.2,0.2-0.2,0.4c0,0.2,0.1,0.3,0.1,0.4c0,0,0,0,0.1,0c0,0,0,0,0,0
			c0,0,0-0.1,0-0.1c-0.1-0.1-0.1-0.2-0.1-0.3c0-0.2,0.1-0.3,0.1-0.3C88.3,768.7,88.4,768.5,88.4,768.3z"/>
		<path class="st74" d="M89.3,768.3c0-0.3-0.1-0.4-0.2-0.5c0,0,0,0,0-0.1c0,0-0.1-0.1-0.1,0c0,0-0.1,0.1,0,0.1c0,0,0,0,0.1,0.1
			c0.1,0.1,0.2,0.2,0.2,0.4c0,0.2-0.1,0.3-0.1,0.3c-0.1,0.1-0.2,0.2-0.2,0.4c0,0.2,0.1,0.3,0.1,0.4c0,0,0,0,0.1,0c0,0,0,0,0,0
			c0,0,0-0.1,0-0.1c-0.1-0.1-0.1-0.2-0.1-0.3c0-0.2,0.1-0.3,0.1-0.3C89.2,768.7,89.3,768.5,89.3,768.3z"/>
	</g>
</g>
<path class="st49" d="M155.1,768.9c0-0.1,0.1-0.3,0.1-0.4c0-0.2-0.1-0.4-0.3-0.5c-0.2-0.1-0.5-0.2-0.8,0c0,0,0,0,0,0
	c-0.3,0.1-0.5,0.3-0.7,0.5l-0.9,0.9l-2.9-1.1c-0.5-0.2-1-0.1-1.3,0.3c-0.1,0.2-0.1,0.4,0.1,0.5l2.5,1.9l-0.3,0.3
	c-0.3,0.3-0.5,0.6-0.8,0.9l-1.3-0.2c-0.1,0-0.1,0-0.2,0.1l-0.2,0.6c0,0.1,0,0.2,0.1,0.2l0.8,0.4c-0.2,0.3-0.4,0.6-0.6,0.9
	c-0.1,0.2,0,0.3,0.1,0.4c0.1,0.1,0.2,0.1,0.3,0c0.3-0.2,0.6-0.4,0.9-0.6l0.4,0.8c0,0.1,0.1,0.1,0.2,0.1l0.6-0.2
	c0.1,0,0.1-0.1,0.1-0.2l-0.2-1.3c0.3-0.2,0.6-0.5,0.9-0.8l0.3-0.3l1.9,2.5c0.1,0.2,0.4,0.2,0.5,0.1c0.4-0.3,0.5-0.8,0.3-1.3
	l-1.1-2.9l0.9-0.9C154.8,769.4,155,769.2,155.1,768.9z M148.5,768.9c0,0,0-0.1,0-0.1c0.2-0.3,0.7-0.3,0.9-0.2l2.8,1l-1.1,1.2
	L148.5,768.9z M154.4,773.5c0.1,0.3,0.1,0.7-0.2,0.9c0,0-0.1,0-0.1,0l-1.9-2.6l1.2-1.1L154.4,773.5z M151.5,772.2
	c-0.3,0.3-0.6,0.5-0.9,0.8c0,0-0.1,0.1-0.1,0.1c0,0,0,0,0,0l0.2,1.2l-0.3,0.1l-0.4-0.8c0-0.1-0.1-0.1-0.2-0.1c0,0,0,0,0,0
	c-0.3,0.2-0.7,0.5-1,0.7c0,0,0,0,0,0c0,0,0,0,0,0c0.2-0.3,0.4-0.7,0.7-1c0-0.1,0-0.2,0-0.2c0,0,0,0,0,0l-0.8-0.4l0.1-0.3l1.2,0.2
	l0,0c0.1,0,0.1,0,0.2-0.1c0.2-0.3,0.5-0.6,0.8-0.9l2.8-2.9c0.2-0.2,0.4-0.3,0.6-0.4c0,0,0,0,0,0c0.2-0.1,0.4-0.1,0.5,0
	c0.1,0.1,0.1,0.2,0.1,0.3c0,0.1,0,0.2-0.1,0.3c-0.1,0.2-0.2,0.4-0.4,0.6L151.5,772.2z"/>
<g id="Animals_324_">
	<g>
		<g id="Artboard_381_" transform="translate(-3113.000000, -1056.000000)">
			<g id="noun_bag_606249_81_">
				<g transform="translate(3113.000000, 1056.000000)">
					<g id="Group_229_">
						<g transform="translate(0.215533, 0.000000)">
							<path id="Shape_240_" class="st49" d="M171.3,768.6c0,0-0.1,0-0.1,0c-0.1,0-0.3,0.1-0.5,0.3l-3.1,0c-0.2-0.1-0.3-0.2-0.4-0.3
								c-0.1,0-0.3,0-0.3,0h0c0,0,0,0,0,0c0,0,0,0,0,0c0,0-0.1,0-0.1,0c-0.1,0.1-0.2,0.2-0.2,0.4c0,0.2,0.1,0.4,0.2,0.7
								c-0.1,0.5-0.1,1.2-0.1,2.1s0,1.6,0.1,2.1c-0.1,0.3-0.2,0.5-0.2,0.7c0,0.2,0.1,0.4,0.2,0.4c0.2,0.1,0.5,0.1,0.9-0.2l3.1,0
								c0.4,0.4,0.7,0.4,0.9,0.2c0.1-0.1,0.2-0.2,0.2-0.4c0-0.2-0.1-0.4-0.2-0.7c0.1-0.5,0.1-1.2,0.1-2.1c0-0.9,0-1.6-0.1-2.1
								c0.1-0.3,0.2-0.5,0.2-0.7c0-0.2-0.1-0.4-0.2-0.4C171.5,768.6,171.4,768.6,171.3,768.6z M171.3,768.9
								C171.3,768.9,171.4,768.9,171.3,768.9c0,0,0.1,0.1,0.1,0.2c0,0.2,0,0.4-0.2,0.6c0,0,0,0.1,0,0.1c0.1,0.5,0.1,1.2,0.1,2.1
								c0,0.9,0,1.6-0.1,2.1c0,0,0,0.1,0,0.1c0.1,0.3,0.2,0.5,0.2,0.6c0,0.2-0.1,0.2-0.1,0.2c0,0-0.2,0.1-0.6-0.2c0,0-0.1,0-0.1,0
								l-3.1,0c0,0-0.1,0-0.1,0c-0.4,0.4-0.6,0.3-0.6,0.2c0,0-0.1-0.1-0.1-0.2c0-0.2,0-0.4,0.2-0.6c0,0,0-0.1,0-0.1
								c-0.1-0.5-0.1-1.2-0.1-2.1c0-0.9,0-1.6,0.1-2.1c0,0,0-0.1,0-0.1c-0.1-0.3-0.2-0.5-0.2-0.6c0-0.1,0.1-0.2,0.1-0.2
								c0.1,0,0.1,0,0.2,0c0.1,0,0.2,0.1,0.4,0.2c0,0,0.1,0,0.1,0l3.1,0c0,0,0.1,0,0.1,0c0.2-0.2,0.3-0.2,0.4-0.3
								C171.2,768.9,171.3,768.9,171.3,768.9z M167.5,770.8c-0.1,0-0.1,0.1-0.1,0.1l0,1.7c0,0.1,0.1,0.1,0.1,0.1l3.1,0
								c0.1,0,0.1-0.1,0.1-0.1l0-1.7c0-0.1-0.1-0.1-0.1-0.1L167.5,770.8z M167.7,771.1l2.8,0l0,1.4l-2.8,0L167.7,771.1z"/>
						</g>
					</g>
				</g>
			</g>
		</g>
	</g>
</g>
<g id="Animals_323_" class="st5">
	<g id="Artboard_368_" transform="translate(-3112.000000, -1227.000000)">
		<g id="Group-2_51_" transform="translate(3113.000000, 1228.000000)">
			<polyline id="Path-14_56_" class="st65" points="138.3,766.9 139.4,766.9 139.5,767.7 140.3,771.6 144.7,771.6 			"/>
			<ellipse id="Oval_56_" class="st66" cx="141.2" cy="773.1" rx="0.7" ry="0.7"/>
			<ellipse class="st66" cx="143.9" cy="773.1" rx="0.7" ry="0.7"/>
			<polygon id="Path-15_56_" class="st65" points="139.5,767.7 145.6,767.7 145,770.6 140.1,770.6 			"/>
		</g>
	</g>
</g>
<g id="Animals_321_">
	<g>
		<g id="Artboard_380_" transform="translate(-3118.000000, -1138.000000)">
			<g id="noun_Factory_1474011_80_" transform="translate(3118.000000, 1138.000000)">
				<g id="Group_228_">
					<path id="Shape_239_" class="st49" d="M159.2,770.9h-2.2c-0.1,0-0.1,0.1-0.1,0.1l-0.2,3.9c0,0,0,0.1,0,0.1c0,0,0.1,0,0.1,0h2.6
						c0,0,0.1,0,0.1,0c0,0,0-0.1,0-0.1l-0.2-3.9C159.4,770.9,159.3,770.9,159.2,770.9z M157,774.8l0.2-3.7h2l0.2,3.7H157z"/>
					<path class="st49" d="M157.2,770.2c0.2,0.2,0.4,0.2,0.6,0.1c0.1,0.1,0.3,0.2,0.5,0.2c0.2,0,0.4-0.1,0.6-0.3
						c0.4,0,0.6-0.3,0.6-0.7c0-0.4-0.3-0.7-0.7-0.7c-0.1-0.2-0.3-0.3-0.6-0.3c-0.3,0-0.6,0.2-0.7,0.4c-0.1,0-0.3,0.1-0.4,0.2
						c-0.1,0.1-0.2,0.3-0.2,0.5C156.9,769.9,157,770,157.2,770.2z M157.3,769.4c0.1-0.1,0.2-0.1,0.3-0.1c0.1,0,0.1,0,0.1-0.1
						c0.1-0.2,0.2-0.3,0.4-0.3c0.2,0,0.3,0.1,0.4,0.2c0,0,0.1,0.1,0.1,0.1h0c0,0,0,0,0,0c0.3,0,0.5,0.2,0.5,0.4
						c0,0.2-0.2,0.4-0.4,0.4c-0.1,0-0.1,0-0.1,0.1c-0.1,0.1-0.2,0.2-0.4,0.2c-0.1,0-0.2,0-0.3-0.1c0,0-0.1,0-0.1,0c0,0,0,0,0,0
						c-0.1,0-0.2,0-0.4-0.1c-0.1-0.1-0.2-0.2-0.2-0.3C157.2,769.6,157.2,769.5,157.3,769.4z"/>
					<path class="st49" d="M161.9,772.5c0-0.1-0.1-0.1-0.1-0.1h-1.3c-0.1,0-0.1,0.1-0.1,0.1l-0.1,2.4c0,0,0,0.1,0,0.1
						c0,0,0.1,0,0.1,0h1.6c0,0,0.1,0,0.1,0c0,0,0-0.1,0-0.1L161.9,772.5z M160.4,774.8l0.1-2.2h1.1l0.1,2.2H160.4z"/>
					<path class="st49" d="M160.4,772c0.2,0.1,0.3,0.1,0.4,0.1c0.1,0.1,0.2,0.1,0.3,0.1c0.2,0,0.3-0.1,0.4-0.2
						c0.2,0,0.4-0.2,0.4-0.5c0-0.2-0.2-0.5-0.5-0.5c-0.1-0.1-0.2-0.2-0.4-0.2c-0.2,0-0.4,0.1-0.4,0.3c-0.2,0-0.3,0.2-0.3,0.4
						C160.2,771.7,160.3,771.9,160.4,772z M160.5,771.6c0-0.1,0.1-0.2,0.2-0.2c0.1,0,0.1,0,0.1-0.1c0-0.1,0.1-0.2,0.2-0.2
						c0.1,0,0.2,0,0.2,0.1c0,0,0.1,0.1,0.1,0.1h0c0,0,0,0,0,0c0.1,0,0.2,0.1,0.2,0.2c0,0.1-0.1,0.2-0.2,0.2c0,0-0.1,0-0.1,0.1
						c0,0.1-0.1,0.1-0.2,0.1c-0.1,0-0.1,0-0.2-0.1c0,0-0.1,0-0.1,0c0,0,0,0,0,0c-0.1,0-0.1,0-0.2-0.1
						C160.5,771.7,160.5,771.7,160.5,771.6z"/>
					<path class="st49" d="M161.2,770.8c0.1,0.1,0.2,0.1,0.2,0.1c0.1,0,0.1,0.1,0.2,0.1c0.1,0,0.2,0,0.2-0.1c0.1,0,0.3-0.1,0.3-0.3
						c0-0.2-0.1-0.3-0.3-0.3c-0.1-0.1-0.1-0.1-0.2-0.1c-0.1,0-0.2,0.1-0.3,0.2c-0.1,0-0.2,0.1-0.2,0.2
						C161.1,770.6,161.1,770.7,161.2,770.8z M161.2,770.6c0-0.1,0.1-0.1,0.1-0.1c0,0,0.1,0,0.1-0.1c0-0.1,0.1-0.1,0.1-0.1
						c0.1,0,0.1,0,0.1,0.1c0,0,0,0,0.1,0h0c0,0,0,0,0,0c0.1,0,0.1,0.1,0.1,0.1c0,0.1-0.1,0.1-0.1,0.1c0,0-0.1,0-0.1,0
						c0,0-0.1,0.1-0.1,0.1c0,0-0.1,0-0.1,0c0,0,0,0-0.1,0c0,0,0,0,0,0c0,0-0.1,0-0.1,0C161.3,770.7,161.2,770.6,161.2,770.6z"/>
					<path class="st49" d="M158.9,768.6c0.2,0.1,0.3,0.1,0.4,0.1c0.1,0.1,0.2,0.1,0.3,0.1c0.2,0,0.3-0.1,0.4-0.2
						c0.2,0,0.4-0.2,0.4-0.5c0-0.2-0.2-0.5-0.5-0.5c-0.1-0.1-0.2-0.2-0.4-0.2c-0.2,0-0.4,0.1-0.4,0.3c-0.2,0-0.3,0.2-0.3,0.4
						C158.7,768.4,158.7,768.5,158.9,768.6z M159,768.2c0-0.1,0.1-0.2,0.2-0.2c0.1,0,0.1,0,0.1-0.1c0-0.1,0.1-0.2,0.2-0.2
						c0.1,0,0.2,0,0.2,0.1c0,0,0.1,0.1,0.1,0.1h0c0,0,0,0,0,0c0.1,0,0.2,0.1,0.2,0.2c0,0.1-0.1,0.2-0.2,0.2c0,0-0.1,0-0.1,0.1
						c0,0.1-0.1,0.1-0.2,0.1c-0.1,0-0.1,0-0.2-0.1c0,0-0.1,0-0.1,0c0,0,0,0,0,0c-0.1,0-0.1,0-0.2-0.1C159,768.4,159,768.3,159,768.2
						z"/>
				</g>
			</g>
		</g>
	</g>
</g>
<g id="Animals_319_">
	<g>
		<g id="Artboard_379_" transform="translate(-3118.000000, -1364.000000)">
			<g id="noun_sausages_2556563_80_" transform="translate(3118.000000, 1364.000000)">
				<g id="Group_227_" transform="translate(0.336231, 0.000000)">
					<path id="Shape_238_" class="st49" d="M133,767.7c-0.6,0-1.1,0.5-1.1,1v4.9c0,0.6,0.5,1,1.1,1h3.2c0.6,0,1.1-0.5,1.1-1v-4.9
						c0-0.6-0.5-1-1.1-1H133z M133.2,768.4h0.9c0,0.2-0.2,0.3-0.4,0.3S133.2,768.6,133.2,768.4z M134.3,769.9H133v-0.4
						c0-0.3,0.3-0.6,0.6-0.6s0.6,0.2,0.6,0.6V769.9L134.3,769.9z M137.2,770v2.2h-5.1V770H137.2z M135.2,768.4h0.9
						c0,0.2-0.2,0.3-0.4,0.3C135.5,768.7,135.3,768.6,135.2,768.4z M136.3,769.9H135v-0.4c0-0.3,0.3-0.6,0.6-0.6
						c0.4,0,0.6,0.2,0.6,0.6V769.9L136.3,769.9z M136.1,773.9h-0.9c0-0.2,0.2-0.3,0.4-0.3C135.9,773.6,136.1,773.7,136.1,773.9z
						 M135,772.4h1.3v0.5c0,0.3-0.3,0.6-0.6,0.6c-0.4,0-0.6-0.2-0.6-0.6V772.4L135,772.4z M134.1,773.9h-0.9c0-0.2,0.2-0.3,0.4-0.3
						S134,773.7,134.1,773.9z M133,772.4h1.3v0.5c0,0.3-0.3,0.6-0.6,0.6s-0.6-0.2-0.6-0.6V772.4L133,772.4z M136.3,774.4H133
						c-0.5,0-0.9-0.4-0.9-0.9v-1.2h0.7v0.5c0,0.3,0.2,0.5,0.5,0.7c-0.2,0.1-0.3,0.3-0.3,0.5v0c0,0,0,0.1,0.1,0.1h1.1
						c0.1,0,0.1,0,0.1-0.1v0c0-0.2-0.1-0.4-0.3-0.5c0.3-0.1,0.5-0.4,0.5-0.7v-0.5h0.4v0.5c0,0.3,0.2,0.5,0.5,0.7
						c-0.2,0.1-0.3,0.3-0.3,0.5v0c0,0,0,0.1,0.1,0.1h1.1c0.1,0,0.1,0,0.1-0.1v0c0-0.2-0.1-0.4-0.3-0.5c0.3-0.1,0.5-0.4,0.5-0.7v-0.5
						h0.7v1.2C137.2,774.1,136.8,774.4,136.3,774.4z M137.2,768.7v1.2h-0.7v-0.4c0-0.3-0.2-0.5-0.5-0.7c0.2-0.1,0.3-0.3,0.3-0.5v0
						c0,0,0-0.1-0.1-0.1h-1.1c-0.1,0-0.1,0-0.1,0.1v0c0,0.2,0.1,0.4,0.3,0.5c-0.3,0.1-0.5,0.4-0.5,0.7v0.4h-0.4v-0.4
						c0-0.3-0.2-0.5-0.5-0.7c0.2-0.1,0.3-0.3,0.3-0.5v0c0,0,0-0.1-0.1-0.1h-1.1c-0.1,0-0.1,0-0.1,0.1v0c0,0.2,0.1,0.4,0.3,0.5
						c-0.3,0.1-0.5,0.4-0.5,0.7v0.4h-0.7v-1.2c0-0.5,0.4-0.9,0.9-0.9h3.2C136.8,767.9,137.2,768.2,137.2,768.7z"/>
				</g>
			</g>
		</g>
	</g>
</g>
<g>
	<g>
		<path class="st72" d="M182.1,773.9c-0.4,0-0.8-0.2-1-0.6c0.4-0.4,0.7-0.9,0.7-1.5c0,0,0,0,0,0c0,0,0,0,0-0.1c0,0,0,0,0,0
			c0,0,0,0,0,0c0,0,0,0,0,0c0,0,0,0,0,0c0,0,0,0,0-0.1c0,0,0,0,0-0.1c0,0,0,0,0,0c0,0,0,0,0-0.1c0,0,0,0,0,0c0-0.3-0.1-0.7-0.2-1.1
			c0,0,0,0,0,0c0,0,0,0,0,0c0,0,0,0,0-0.1c0,0,0,0,0,0c0,0,0,0,0,0c0.2-0.3,0.4-0.4,0.5-0.4c0.3,0,0.6,0.4,0.9,1
			c0.2,0.6,0.4,1.3,0.4,1.7C183.4,773.3,182.8,773.9,182.1,773.9L182.1,773.9z M179.8,772.7l0.9-0.7c0.1-0.1,0.1-0.2,0-0.2
			c-0.1-0.1-0.2-0.1-0.2,0l-0.7,0.5v-1.4l0.6-0.4c0.1-0.1,0.1-0.2,0-0.2c-0.1-0.1-0.2-0.1-0.2,0l-0.4,0.3v-0.8
			c0-0.1-0.1-0.2-0.2-0.2c-0.1,0-0.2,0.1-0.2,0.2v1.8l-0.7-0.5c-0.1-0.1-0.2,0-0.2,0c-0.1,0.1,0,0.2,0,0.2l0.9,0.6v1.7
			c-0.9-0.1-1.6-0.8-1.7-1.8c0,0,0,0,0,0c0,0,0,0,0,0c0,0,0,0,0,0c0,0,0,0,0,0c0,0,0,0,0,0c0,0,0,0,0,0c0,0,0,0,0,0c0,0,0,0,0,0
			c0,0,0,0,0-0.1c0,0,0,0,0-0.1c0,0,0,0,0,0c0,0,0,0,0,0c0-0.4,0.1-0.8,0.2-1.3c0,0,0,0,0,0c0.1-0.3,0.2-0.7,0.3-1
			c0.4-1,0.9-1.5,1.3-1.5c0.4,0,0.9,0.5,1.3,1.5c0.1,0.3,0.3,0.7,0.3,1c0,0,0,0,0,0c0.1,0.5,0.2,1,0.2,1.3c0,0,0,0,0,0c0,0,0,0,0,0
			c0,0,0,0,0,0.1c0,0,0,0,0,0.1c0,0,0,0,0,0c0,0,0,0,0,0c0,0,0,0,0,0c0,0,0,0,0,0c0,0,0,0,0,0c0,0,0,0,0,0c0,0,0,0,0,0c0,0,0,0,0,0
			c-0.1,0.9-0.8,1.7-1.7,1.8V772.7z M177.1,773.9c-0.7,0-1.3-0.6-1.3-1.4c0-0.4,0.2-1.2,0.4-1.7c0.3-0.7,0.6-1,0.9-1
			c0.1,0,0.3,0.1,0.5,0.4c0,0,0,0,0,0c0,0,0,0,0,0c0,0,0,0,0,0.1c0,0,0,0,0,0c0,0,0,0,0,0c-0.1,0.4-0.2,0.8-0.2,1.1c0,0,0,0,0,0
			c0,0,0,0,0,0.1c0,0,0,0,0,0c0,0,0,0,0,0.1c0,0,0,0,0,0.1c0,0,0,0,0,0c0,0,0,0,0,0c0,0,0,0,0,0c0,0,0,0,0,0c0,0,0,0,0,0.1
			c0,0,0,0,0,0c0.1,0.6,0.3,1.1,0.7,1.5C177.9,773.7,177.5,773.9,177.1,773.9L177.1,773.9z M183.7,772.5c0-0.5-0.2-1.2-0.4-1.9
			c-0.4-1-0.9-1.2-1.2-1.2c-0.2,0-0.4,0.1-0.6,0.3c-0.1-0.3-0.2-0.5-0.3-0.7c-0.2-0.5-0.4-0.9-0.7-1.2c-0.3-0.4-0.6-0.5-0.9-0.5
			s-0.6,0.2-0.9,0.5c-0.2,0.3-0.5,0.7-0.7,1.2c-0.1,0.2-0.2,0.5-0.3,0.7c-0.2-0.2-0.4-0.3-0.6-0.3c-0.5,0-0.9,0.7-1.2,1.2
			c-0.3,0.6-0.4,1.4-0.4,1.9c0,0.9,0.6,1.6,1.4,1.7v0.6c0,0.1,0.1,0.2,0.2,0.2c0.1,0,0.2-0.1,0.2-0.2v-0.6c0.4,0,0.9-0.3,1.1-0.7
			c0.3,0.2,0.7,0.4,1,0.4v0.9c0,0.1,0.1,0.2,0.2,0.2c0.1,0,0.2-0.1,0.2-0.2v-0.9c0.4,0,0.7-0.2,1-0.4c0.3,0.4,0.7,0.6,1.1,0.7v0.6
			c0,0.1,0.1,0.2,0.2,0.2c0.1,0,0.2-0.1,0.2-0.2v-0.6C183.1,774.1,183.7,773.4,183.7,772.5L183.7,772.5z"/>
	</g>
</g>
<g>
	<g>
		<path class="st74" d="M193.1,771.1c-1.2,0.2-3.5,0.8-5.5,2.8c0,0,0,0.1,0,0.1c0,0,0,0,0.1,0c0,0,0,0,0.1,0c2-1.9,4.2-2.5,5.4-2.7
			C193.2,771.3,193.2,771.2,193.1,771.1C193.2,771.1,193.2,771.1,193.1,771.1z"/>
		<path class="st74" d="M193.1,772c-1,0.2-2.6,0.8-4,1.9c0,0,0,0.1,0,0.1c0,0,0,0,0.1,0c0,0,0,0,0.1,0c1.4-1.1,3-1.6,4-1.9
			c0,0,0.1-0.1,0.1-0.1C193.2,772,193.1,771.9,193.1,772z"/>
		<path class="st74" d="M193.2,772.9c0,0-0.1-0.1-0.1-0.1c-0.8,0.2-1.6,0.6-2.3,1c0,0-0.1,0.1,0,0.1c0,0,0,0,0.1,0c0,0,0,0,0,0
			c0.7-0.4,1.5-0.8,2.3-1C193.2,773,193.2,773,193.2,772.9z"/>
		<path class="st74" d="M186.4,769.6c0,0,1.9,0.1,4,1.3c-0.3,0.1-0.6,0.2-0.9,0.4c-1.2-0.6-2.4-0.9-3.1-1.1c0,0-0.1,0-0.1,0.1
			c0,0,0,0.1,0.1,0.1c0.7,0.1,1.8,0.4,2.9,1c-0.3,0.1-0.5,0.3-0.8,0.5c-0.7-0.3-1.4-0.6-2.1-0.7c0,0-0.1,0-0.1,0.1
			c0,0,0,0.1,0.1,0.1c0.7,0.2,1.4,0.4,2,0.7c-0.2,0.2-0.5,0.3-0.7,0.5c-0.4-0.2-0.8-0.3-1.3-0.5c0,0-0.1,0-0.1,0.1
			c0,0,0,0.1,0.1,0.1c0.4,0.1,0.8,0.3,1.2,0.4c-0.4,0.4-0.8,0.8-1.2,1.2c0,0,0,0.1,0,0.1c0,0,0,0,0.1,0c0,0,0,0,0.1,0
			c2.7-3.3,6.7-3.5,6.7-3.5c0,0,0.1,0,0.1-0.1c0,0,0-0.1-0.1-0.1c0,0-1.1,0.1-2.5,0.6c-2.1-1.3-4.2-1.4-4.2-1.4
			C186.3,769.5,186.3,769.5,186.4,769.6C186.3,769.6,186.3,769.6,186.4,769.6z"/>
		<path class="st74" d="M189.1,767.7c0-0.3-0.1-0.4-0.2-0.5c0,0,0,0,0-0.1c0,0-0.1-0.1-0.1,0c0,0-0.1,0.1,0,0.1c0,0,0,0,0.1,0.1
			c0.1,0.1,0.2,0.2,0.2,0.4c0,0.2-0.1,0.3-0.1,0.3c-0.1,0.1-0.2,0.2-0.2,0.4c0,0.2,0.1,0.3,0.1,0.4c0,0,0,0,0.1,0c0,0,0,0,0,0
			c0,0,0-0.1,0-0.1c-0.1-0.1-0.1-0.2-0.1-0.3c0-0.2,0.1-0.3,0.1-0.3C189,768.1,189.1,768,189.1,767.7z"/>
		<path class="st74" d="M190,767.7c0-0.3-0.1-0.4-0.2-0.5c0,0,0,0,0-0.1c0,0-0.1-0.1-0.1,0c0,0-0.1,0.1,0,0.1c0,0,0,0,0.1,0.1
			c0.1,0.1,0.2,0.2,0.2,0.4c0,0.2-0.1,0.3-0.1,0.3c-0.1,0.1-0.2,0.2-0.2,0.4c0,0.2,0.1,0.3,0.1,0.4c0,0,0,0,0.1,0c0,0,0,0,0,0
			c0,0,0-0.1,0-0.1c-0.1-0.1-0.1-0.2-0.1-0.3c0-0.2,0.1-0.3,0.1-0.3C189.9,768.1,190,768,190,767.7z"/>
		<path class="st74" d="M190.8,767.7c0-0.3-0.1-0.4-0.2-0.5c0,0,0,0,0-0.1c0,0-0.1-0.1-0.1,0c0,0-0.1,0.1,0,0.1c0,0,0,0,0.1,0.1
			c0.1,0.1,0.2,0.2,0.2,0.4c0,0.2-0.1,0.3-0.1,0.3c-0.1,0.1-0.2,0.2-0.2,0.4c0,0.2,0.1,0.3,0.1,0.4c0,0,0,0,0.1,0c0,0,0,0,0,0
			c0,0,0-0.1,0-0.1c-0.1-0.1-0.1-0.2-0.1-0.3c0-0.2,0.1-0.3,0.1-0.3C190.8,768.1,190.8,768,190.8,767.7z"/>
	</g>
</g>
<text transform="matrix(-2.100000e-04 1 -1 -2.100000e-04 178.139 737.1898)" class="st31 st78 st79">1,50 kg</text>
<text transform="matrix(-2.100000e-04 1 -1 -2.100000e-04 167.0114 737.553)" class="st31 st78 st79">3,00 kg</text>
<text transform="matrix(-2.100000e-04 1 -1 -2.100000e-04 187.6726 737.5375)" class="st31 st78 st79">1,50 kg</text>
<text transform="matrix(-2.100000e-04 1 -1 -2.100000e-04 141.1601 737.5439)" class="st31 st78 st79">0,20 kg</text>
<text transform="matrix(-2.100000e-04 1 -1 -2.100000e-04 156.9165 737.497)" class="st31 st78 st79">0,25 kg</text>
<text transform="matrix(-2.100000e-04 1 -1 -2.100000e-04 132.8764 737.5405)" class="st31 st78 st79">0,25 kg</text>
<text transform="matrix(-2.100000e-04 1 -1 -2.100000e-04 148.9353 737.5532)" class="st31 st78 st79">0,30 kg</text>
<g>
	<text transform="matrix(-2.100000e-04 1 -1 -2.100000e-04 256.4212 737.8464)" class="st51 st78 st79">0,50 kg</text>
</g>
<g>
	<text transform="matrix(-2.100000e-04 1 -1 -2.100000e-04 329.1428 737.9362)" class="st51 st78 st79">0,50 kg</text>
</g>
<g>
	<text transform="matrix(-2.100000e-04 1 -1 -2.100000e-04 303.4907 737.9377)" class="st51 st78 st79">18,8 kg</text>
</g>
<g>
	<text transform="matrix(-2.100000e-04 1 -1 -2.100000e-04 276.2719 737.9379)" class="st51 st78 st79">2,50 kg</text>
</g>
<g>
	<text transform="matrix(-2.100000e-04 1 -1 -2.100000e-04 265.6341 737.8479)" class="st51 st78 st79">1,20 kg</text>
</g>
<g>
	<text transform="matrix(-2.100000e-04 1 -1 -2.100000e-04 239.8643 737.9359)" class="st51 st78 st79">0,30 kg</text>
</g>
<g>
	<text transform="matrix(-2.100000e-04 1 -1 -2.100000e-04 248.2847 737.9375)" class="st51 st78 st79">0,20 kg</text>
</g>
<path class="st49" d="M262,769.4c0-0.1,0.1-0.3,0.1-0.4c0-0.2-0.1-0.4-0.3-0.5c-0.2-0.1-0.5-0.2-0.8,0c0,0,0,0,0,0
	c-0.3,0.1-0.5,0.3-0.7,0.5l-0.9,0.9l-2.9-1.1c-0.5-0.2-1-0.1-1.3,0.3c-0.1,0.2-0.1,0.4,0.1,0.5l2.5,1.9l-0.3,0.3
	c-0.3,0.3-0.5,0.6-0.8,0.9l-1.3-0.2c-0.1,0-0.1,0-0.2,0.1l-0.2,0.6c0,0.1,0,0.2,0.1,0.2l0.8,0.4c-0.2,0.3-0.4,0.6-0.6,0.9
	c-0.1,0.2,0,0.3,0.1,0.4c0.1,0.1,0.2,0.1,0.3,0c0.3-0.2,0.6-0.4,0.9-0.6l0.4,0.8c0,0.1,0.1,0.1,0.2,0.1l0.6-0.2
	c0.1,0,0.1-0.1,0.1-0.2l-0.2-1.3c0.3-0.2,0.6-0.5,0.9-0.8l0.3-0.3l1.9,2.5c0.1,0.2,0.4,0.2,0.5,0.1c0.4-0.3,0.5-0.8,0.3-1.3
	l-1.1-2.9l0.9-0.9C261.8,769.9,261.9,769.7,262,769.4z M255.5,769.4c0,0,0-0.1,0-0.1c0.2-0.3,0.7-0.3,0.9-0.2l2.8,1l-1.1,1.2
	L255.5,769.4z M261.4,774c0.1,0.3,0.1,0.7-0.2,0.9c0,0-0.1,0-0.1,0l-1.9-2.6l1.2-1.1L261.4,774z M258.5,772.7
	c-0.3,0.3-0.6,0.5-0.9,0.8c0,0-0.1,0.1-0.1,0.1c0,0,0,0,0,0l0.2,1.2l-0.3,0.1l-0.4-0.8c0-0.1-0.1-0.1-0.2-0.1c0,0,0,0,0,0
	c-0.3,0.2-0.7,0.5-1,0.7c0,0,0,0,0,0c0,0,0,0,0,0c0.2-0.3,0.4-0.7,0.7-1c0-0.1,0-0.2,0-0.2c0,0,0,0,0,0l-0.8-0.4l0.1-0.3l1.2,0.2
	l0,0c0.1,0,0.1,0,0.2-0.1c0.2-0.3,0.5-0.6,0.8-0.9l2.8-2.9c0.2-0.2,0.4-0.3,0.6-0.4c0,0,0,0,0,0c0.2-0.1,0.4-0.1,0.5,0
	c0.1,0.1,0.1,0.2,0.1,0.3c0,0.1,0,0.2-0.1,0.3c-0.1,0.2-0.2,0.4-0.4,0.6L258.5,772.7z"/>
<g id="Animals_317_">
	<g>
		<g id="Artboard_378_" transform="translate(-3113.000000, -1056.000000)">
			<g id="noun_bag_606249_80_">
				<g transform="translate(3113.000000, 1056.000000)">
					<g id="Group_226_">
						<g transform="translate(0.215533, 0.000000)">
							<path id="Shape_237_" class="st49" d="M280.2,769c0,0-0.1,0-0.1,0c-0.1,0-0.3,0.1-0.5,0.3l-3.1,0c-0.2-0.1-0.3-0.2-0.4-0.3
								c-0.1,0-0.3,0-0.3,0h0c0,0,0,0,0,0c0,0,0,0,0,0c0,0-0.1,0-0.1,0c-0.1,0.1-0.2,0.2-0.2,0.4c0,0.2,0.1,0.4,0.2,0.7
								c-0.1,0.5-0.1,1.2-0.1,2.1c0,0.9,0,1.6,0.1,2.1c-0.1,0.3-0.2,0.5-0.2,0.7c0,0.2,0.1,0.4,0.2,0.4c0.2,0.1,0.5,0.1,0.9-0.2
								l3.1,0c0.4,0.4,0.7,0.4,0.9,0.2c0.1-0.1,0.2-0.2,0.2-0.4c0-0.2-0.1-0.4-0.2-0.7c0.1-0.5,0.1-1.2,0.1-2.1s0-1.6-0.1-2.1
								c0.1-0.3,0.2-0.5,0.2-0.7c0-0.2-0.1-0.4-0.2-0.4C280.4,769,280.3,769,280.2,769z M280.3,769.2
								C280.3,769.2,280.3,769.3,280.3,769.2c0,0,0.1,0.1,0.1,0.2c0,0.2,0,0.4-0.2,0.6c0,0,0,0.1,0,0.1c0.1,0.5,0.1,1.2,0.1,2.1
								c0,0.9,0,1.6-0.1,2.1c0,0,0,0.1,0,0.1c0.1,0.3,0.2,0.5,0.2,0.6c0,0.2-0.1,0.2-0.1,0.2c0,0-0.2,0.1-0.6-0.2c0,0-0.1,0-0.1,0
								l-3.1,0c0,0-0.1,0-0.1,0c-0.4,0.4-0.6,0.3-0.6,0.2c0,0-0.1-0.1-0.1-0.2c0-0.2,0-0.4,0.2-0.6c0,0,0-0.1,0-0.1
								c-0.1-0.5-0.1-1.2-0.1-2.1c0-0.9,0-1.6,0.1-2.1c0,0,0-0.1,0-0.1c-0.1-0.3-0.2-0.5-0.2-0.6c0-0.1,0.1-0.2,0.1-0.2
								c0.1,0,0.1,0,0.2,0c0.1,0,0.2,0.1,0.4,0.2c0,0,0.1,0,0.1,0l3.1,0c0,0,0.1,0,0.1,0c0.2-0.2,0.3-0.2,0.4-0.3
								C280.2,769.2,280.3,769.2,280.3,769.2z M276.5,771.2c-0.1,0-0.1,0.1-0.1,0.1l0,1.7c0,0.1,0.1,0.1,0.1,0.1l3.1,0
								c0.1,0,0.1-0.1,0.1-0.1l0-1.7c0-0.1-0.1-0.1-0.1-0.1L276.5,771.2z M276.7,771.5l2.8,0l0,1.4l-2.8,0L276.7,771.5z"/>
						</g>
					</g>
				</g>
			</g>
		</g>
	</g>
</g>
<g id="Animals_316_" class="st5">
	<g id="Artboard_361_" transform="translate(-3112.000000, -1227.000000)">
		<g id="Group-2_50_" transform="translate(3113.000000, 1228.000000)">
			<polyline id="Path-14_55_" class="st65" points="244.6,767.4 245.7,767.4 245.8,768.2 246.6,772.1 251,772.1 			"/>
			<ellipse id="Oval_55_" class="st66" cx="247.5" cy="773.6" rx="0.7" ry="0.7"/>
			<ellipse class="st66" cx="250.2" cy="773.6" rx="0.7" ry="0.7"/>
			<polygon id="Path-15_55_" class="st65" points="245.8,768.2 251.9,768.2 251.3,771.1 246.4,771.1 			"/>
		</g>
	</g>
</g>
<g id="Animals_314_">
	<g>
		<g id="Artboard_376_" transform="translate(-3118.000000, -1138.000000)">
			<g id="noun_Factory_1474011_79_" transform="translate(3118.000000, 1138.000000)">
				<g id="Group_224_">
					<path id="Shape_235_" class="st49" d="M267.3,770.8h-2.2c-0.1,0-0.1,0.1-0.1,0.1l-0.2,3.9c0,0,0,0.1,0,0.1c0,0,0.1,0,0.1,0h2.6
						c0,0,0.1,0,0.1,0s0-0.1,0-0.1l-0.2-3.9C267.5,770.9,267.4,770.8,267.3,770.8z M265.1,774.8l0.2-3.7h2l0.2,3.7H265.1z"/>
					<path class="st49" d="M265.3,770.1c0.2,0.2,0.4,0.2,0.6,0.1c0.1,0.1,0.3,0.2,0.5,0.2c0.2,0,0.4-0.1,0.6-0.3
						c0.4,0,0.6-0.3,0.6-0.7c0-0.4-0.3-0.7-0.7-0.7c-0.1-0.2-0.3-0.3-0.6-0.3c-0.3,0-0.6,0.2-0.7,0.4c-0.1,0-0.3,0.1-0.4,0.2
						c-0.1,0.1-0.2,0.3-0.2,0.5C265,769.8,265.1,770,265.3,770.1z M265.4,769.3c0.1-0.1,0.2-0.1,0.3-0.1c0.1,0,0.1,0,0.1-0.1
						c0.1-0.2,0.2-0.3,0.4-0.3c0.2,0,0.3,0.1,0.4,0.2c0,0,0.1,0.1,0.1,0.1h0c0,0,0,0,0,0c0.3,0,0.5,0.2,0.5,0.4
						c0,0.2-0.2,0.4-0.4,0.4c-0.1,0-0.1,0-0.1,0.1c-0.1,0.1-0.2,0.2-0.4,0.2c-0.1,0-0.2,0-0.3-0.1c0,0-0.1,0-0.1,0c0,0,0,0,0,0
						c-0.1,0-0.2,0-0.4-0.1c-0.1-0.1-0.2-0.2-0.2-0.3C265.3,769.5,265.3,769.4,265.4,769.3z"/>
					<path class="st49" d="M270,772.4c0-0.1-0.1-0.1-0.1-0.1h-1.3c-0.1,0-0.1,0.1-0.1,0.1l-0.1,2.4c0,0,0,0.1,0,0.1c0,0,0.1,0,0.1,0
						h1.6c0,0,0.1,0,0.1,0c0,0,0-0.1,0-0.1L270,772.4z M268.5,774.8l0.1-2.2h1.1l0.1,2.2H268.5z"/>
					<path class="st49" d="M268.5,771.9c0.2,0.1,0.3,0.1,0.4,0.1c0.1,0.1,0.2,0.1,0.3,0.1c0.2,0,0.3-0.1,0.4-0.2
						c0.2,0,0.4-0.2,0.4-0.5c0-0.2-0.2-0.5-0.5-0.5c-0.1-0.1-0.2-0.2-0.4-0.2c-0.2,0-0.4,0.1-0.4,0.3c-0.2,0-0.3,0.2-0.3,0.4
						C268.3,771.6,268.4,771.8,268.5,771.9z M268.6,771.5c0-0.1,0.1-0.2,0.2-0.2c0.1,0,0.1,0,0.1-0.1c0-0.1,0.1-0.2,0.2-0.2
						c0.1,0,0.2,0,0.2,0.1c0,0,0.1,0.1,0.1,0.1h0c0,0,0,0,0,0c0.1,0,0.2,0.1,0.2,0.2c0,0.1-0.1,0.2-0.2,0.2c0,0-0.1,0-0.1,0.1
						c0,0.1-0.1,0.1-0.2,0.1c-0.1,0-0.1,0-0.2-0.1c0,0-0.1,0-0.1,0c0,0,0,0,0,0c-0.1,0-0.1,0-0.2-0.1
						C268.6,771.7,268.6,771.6,268.6,771.5z"/>
					<path class="st49" d="M269.3,770.7c0.1,0.1,0.2,0.1,0.2,0.1c0.1,0,0.1,0.1,0.2,0.1c0.1,0,0.2,0,0.2-0.1c0.1,0,0.3-0.1,0.3-0.3
						c0-0.2-0.1-0.3-0.3-0.3c-0.1-0.1-0.1-0.1-0.2-0.1c-0.1,0-0.2,0.1-0.3,0.2c-0.1,0-0.2,0.1-0.2,0.2
						C269.2,770.6,269.2,770.7,269.3,770.7z M269.3,770.5c0-0.1,0.1-0.1,0.1-0.1c0,0,0.1,0,0.1-0.1c0-0.1,0.1-0.1,0.1-0.1
						c0.1,0,0.1,0,0.1,0.1c0,0,0,0,0.1,0h0c0,0,0,0,0,0c0.1,0,0.1,0.1,0.1,0.1c0,0.1-0.1,0.1-0.1,0.1c0,0-0.1,0-0.1,0
						c0,0-0.1,0.1-0.1,0.1c0,0-0.1,0-0.1,0c0,0,0,0-0.1,0c0,0,0,0,0,0c0,0-0.1,0-0.1,0C269.4,770.6,269.3,770.6,269.3,770.5z"/>
					<path class="st49" d="M267,768.6c0.2,0.1,0.3,0.1,0.4,0.1c0.1,0.1,0.2,0.1,0.3,0.1c0.2,0,0.3-0.1,0.4-0.2
						c0.2,0,0.4-0.2,0.4-0.5c0-0.2-0.2-0.5-0.5-0.5c-0.1-0.1-0.2-0.2-0.4-0.2c-0.2,0-0.4,0.1-0.4,0.3c-0.2,0-0.3,0.2-0.3,0.4
						C266.8,768.3,266.8,768.5,267,768.6z M267.1,768.2c0-0.1,0.1-0.2,0.2-0.2c0.1,0,0.1,0,0.1-0.1c0-0.1,0.1-0.2,0.2-0.2
						c0.1,0,0.2,0,0.2,0.1c0,0,0.1,0.1,0.1,0.1h0c0,0,0,0,0,0c0.1,0,0.2,0.1,0.2,0.2c0,0.1-0.1,0.2-0.2,0.2c0,0-0.1,0-0.1,0.1
						c0,0.1-0.1,0.1-0.2,0.1c-0.1,0-0.1,0-0.2-0.1c0,0-0.1,0-0.1,0c0,0,0,0,0,0c-0.1,0-0.1,0-0.2-0.1
						C267.1,768.3,267,768.3,267.1,768.2z"/>
				</g>
			</g>
		</g>
	</g>
</g>
<g id="Animals_312_">
	<g>
		<g id="Artboard_373_" transform="translate(-3118.000000, -1364.000000)">
			<g id="noun_sausages_2556563_79_" transform="translate(3118.000000, 1364.000000)">
				<g id="Group_222_" transform="translate(0.336231, 0.000000)">
					<path id="Shape_233_" class="st49" d="M239.6,768.4c-0.6,0-1.1,0.5-1.1,1v4.9c0,0.6,0.5,1,1.1,1h3.2c0.6,0,1.1-0.5,1.1-1v-4.9
						c0-0.6-0.5-1-1.1-1H239.6z M239.8,769h0.9c0,0.2-0.2,0.3-0.4,0.3C240,769.4,239.8,769.2,239.8,769z M240.9,770.6h-1.3v-0.4
						c0-0.3,0.3-0.6,0.6-0.6c0.4,0,0.6,0.2,0.6,0.6V770.6L240.9,770.6z M243.8,770.7v2.2h-5.1v-2.2H243.8z M241.8,769h0.9
						c0,0.2-0.2,0.3-0.4,0.3C242.1,769.4,241.9,769.2,241.8,769z M242.9,770.6h-1.3v-0.4c0-0.3,0.3-0.6,0.6-0.6
						c0.4,0,0.6,0.2,0.6,0.6V770.6L242.9,770.6z M242.7,774.6h-0.9c0-0.2,0.2-0.3,0.4-0.3C242.5,774.3,242.7,774.4,242.7,774.6z
						 M241.6,773.1h1.3v0.5c0,0.3-0.3,0.6-0.6,0.6c-0.4,0-0.6-0.2-0.6-0.6V773.1L241.6,773.1z M240.7,774.6h-0.9
						c0-0.2,0.2-0.3,0.4-0.3C240.5,774.3,240.6,774.4,240.7,774.6z M239.6,773.1h1.3v0.5c0,0.3-0.3,0.6-0.6,0.6
						c-0.4,0-0.6-0.2-0.6-0.6V773.1L239.6,773.1z M242.9,775.1h-3.2c-0.5,0-0.9-0.4-0.9-0.9v-1.2h0.7v0.5c0,0.3,0.2,0.5,0.5,0.7
						c-0.2,0.1-0.3,0.3-0.3,0.5v0c0,0,0,0.1,0.1,0.1h1.1c0.1,0,0.1,0,0.1-0.1v0c0-0.2-0.1-0.4-0.3-0.5c0.3-0.1,0.5-0.4,0.5-0.7v-0.5
						h0.4v0.5c0,0.3,0.2,0.5,0.5,0.7c-0.2,0.1-0.3,0.3-0.3,0.5v0c0,0,0,0.1,0.1,0.1h1.1c0.1,0,0.1,0,0.1-0.1v0
						c0-0.2-0.1-0.4-0.3-0.5c0.3-0.1,0.5-0.4,0.5-0.7v-0.5h0.7v1.2C243.8,774.7,243.4,775.1,242.9,775.1z M243.8,769.4v1.2h-0.7
						v-0.4c0-0.3-0.2-0.5-0.5-0.7c0.2-0.1,0.3-0.3,0.3-0.5v0c0,0,0-0.1-0.1-0.1h-1.1c-0.1,0-0.1,0-0.1,0.1v0c0,0.2,0.1,0.4,0.3,0.5
						c-0.3,0.1-0.5,0.4-0.5,0.7v0.4h-0.4v-0.4c0-0.3-0.2-0.5-0.5-0.7c0.2-0.1,0.3-0.3,0.3-0.5v0c0,0,0-0.1-0.1-0.1h-1.1
						c-0.1,0-0.1,0-0.1,0.1v0c0,0.2,0.1,0.4,0.3,0.5c-0.3,0.1-0.5,0.4-0.5,0.7v0.4h-0.7v-1.2c0-0.5,0.4-0.9,0.9-0.9h3.2
						C243.4,768.5,243.8,768.9,243.8,769.4z"/>
				</g>
			</g>
		</g>
	</g>
</g>
<g>
	<g>
		<path class="st72" d="M308.2,774.2c-0.4,0-0.8-0.2-1-0.6c0.4-0.4,0.7-0.9,0.7-1.5c0,0,0,0,0,0c0,0,0,0,0-0.1c0,0,0,0,0,0
			c0,0,0,0,0,0c0,0,0,0,0,0c0,0,0,0,0,0c0,0,0,0,0-0.1c0,0,0,0,0-0.1c0,0,0,0,0,0c0,0,0,0,0-0.1c0,0,0,0,0,0c0-0.3-0.1-0.7-0.2-1.1
			c0,0,0,0,0,0c0,0,0,0,0,0c0,0,0,0,0-0.1c0,0,0,0,0,0c0,0,0,0,0,0c0.2-0.3,0.4-0.4,0.5-0.4c0.3,0,0.6,0.4,0.9,1
			c0.2,0.6,0.4,1.3,0.4,1.7C309.4,773.6,308.9,774.2,308.2,774.2L308.2,774.2z M305.8,773l0.9-0.7c0.1-0.1,0.1-0.2,0-0.2
			s-0.2-0.1-0.2,0l-0.7,0.5v-1.4l0.6-0.4c0.1-0.1,0.1-0.2,0-0.2c-0.1-0.1-0.2-0.1-0.2,0l-0.4,0.3V770c0-0.1-0.1-0.2-0.2-0.2
			c-0.1,0-0.2,0.1-0.2,0.2v1.8l-0.7-0.5c-0.1-0.1-0.2,0-0.2,0c-0.1,0.1,0,0.2,0,0.2l0.9,0.6v1.7c-0.9-0.1-1.6-0.8-1.7-1.8
			c0,0,0,0,0,0c0,0,0,0,0,0c0,0,0,0,0,0c0,0,0,0,0,0c0,0,0,0,0,0c0,0,0,0,0,0c0,0,0,0,0,0c0,0,0,0,0,0c0,0,0,0,0-0.1c0,0,0,0,0-0.1
			c0,0,0,0,0,0c0,0,0,0,0,0c0-0.4,0.1-0.8,0.2-1.3c0,0,0,0,0,0c0.1-0.3,0.2-0.7,0.3-1c0.4-1,0.9-1.5,1.3-1.5c0.4,0,0.9,0.5,1.3,1.5
			c0.1,0.3,0.3,0.7,0.3,1c0,0,0,0,0,0c0.1,0.5,0.2,1,0.2,1.3c0,0,0,0,0,0c0,0,0,0,0,0c0,0,0,0,0,0.1c0,0,0,0,0,0.1c0,0,0,0,0,0
			c0,0,0,0,0,0c0,0,0,0,0,0c0,0,0,0,0,0c0,0,0,0,0,0c0,0,0,0,0,0c0,0,0,0,0,0c0,0,0,0,0,0c-0.1,0.9-0.8,1.7-1.7,1.8V773z
			 M303.2,774.2c-0.7,0-1.3-0.6-1.3-1.4c0-0.4,0.2-1.2,0.4-1.7c0.3-0.7,0.6-1,0.9-1c0.1,0,0.3,0.1,0.5,0.4c0,0,0,0,0,0c0,0,0,0,0,0
			c0,0,0,0,0,0.1c0,0,0,0,0,0c0,0,0,0,0,0c-0.1,0.4-0.2,0.8-0.2,1.1c0,0,0,0,0,0c0,0,0,0,0,0.1c0,0,0,0,0,0c0,0,0,0,0,0.1
			c0,0,0,0,0,0.1c0,0,0,0,0,0s0,0,0,0c0,0,0,0,0,0c0,0,0,0,0,0c0,0,0,0,0,0.1c0,0,0,0,0,0c0.1,0.6,0.3,1.1,0.7,1.5
			C304,774,303.6,774.2,303.2,774.2L303.2,774.2z M309.8,772.8c0-0.5-0.2-1.2-0.4-1.9c-0.4-1-0.9-1.2-1.2-1.2
			c-0.2,0-0.4,0.1-0.6,0.3c-0.1-0.3-0.2-0.5-0.3-0.7c-0.2-0.5-0.4-0.9-0.7-1.2c-0.3-0.4-0.6-0.5-0.9-0.5c-0.3,0-0.6,0.2-0.9,0.5
			c-0.2,0.3-0.5,0.7-0.7,1.2c-0.1,0.2-0.2,0.5-0.3,0.7c-0.2-0.2-0.4-0.3-0.6-0.3c-0.5,0-0.9,0.7-1.2,1.2c-0.3,0.6-0.4,1.4-0.4,1.9
			c0,0.9,0.6,1.6,1.4,1.7v0.6c0,0.1,0.1,0.2,0.2,0.2c0.1,0,0.2-0.1,0.2-0.2v-0.6c0.4,0,0.9-0.3,1.1-0.7c0.3,0.2,0.7,0.4,1,0.4v0.9
			c0,0.1,0.1,0.2,0.2,0.2c0.1,0,0.2-0.1,0.2-0.2v-0.9c0.4,0,0.7-0.2,1-0.4c0.3,0.4,0.7,0.6,1.1,0.7v0.6c0,0.1,0.1,0.2,0.2,0.2
			s0.2-0.1,0.2-0.2v-0.6C309.1,774.5,309.8,773.7,309.8,772.8L309.8,772.8z"/>
	</g>
</g>
<g>
	<g>
		<path class="st74" d="M335,772c-1.2,0.2-3.5,0.8-5.5,2.8c0,0,0,0.1,0,0.1c0,0,0,0,0.1,0c0,0,0,0,0.1,0c2-1.9,4.2-2.5,5.4-2.7
			C335,772.2,335.1,772.1,335,772C335.1,772,335,772,335,772z"/>
		<path class="st74" d="M335,772.9c-1,0.2-2.6,0.8-4,1.9c0,0,0,0.1,0,0.1c0,0,0,0,0.1,0c0,0,0,0,0.1,0c1.4-1.1,3-1.6,4-1.9
			c0,0,0.1-0.1,0.1-0.1C335,772.9,335,772.8,335,772.9z"/>
		<path class="st74" d="M335.1,773.8c0,0-0.1-0.1-0.1-0.1c-0.8,0.2-1.6,0.6-2.3,1c0,0-0.1,0.1,0,0.1c0,0,0,0,0.1,0c0,0,0,0,0,0
			c0.7-0.4,1.5-0.8,2.3-1C335,773.9,335.1,773.9,335.1,773.8z"/>
		<path class="st74" d="M328.2,770.5c0,0,1.9,0.1,4,1.3c-0.3,0.1-0.6,0.2-0.9,0.4c-1.2-0.6-2.4-0.9-3.1-1.1c0,0-0.1,0-0.1,0.1
			c0,0,0,0.1,0.1,0.1c0.7,0.1,1.8,0.4,2.9,1c-0.3,0.1-0.5,0.3-0.8,0.5c-0.7-0.3-1.4-0.6-2.1-0.7c0,0-0.1,0-0.1,0.1
			c0,0,0,0.1,0.1,0.1c0.7,0.2,1.4,0.4,2,0.7c-0.2,0.2-0.5,0.3-0.7,0.5c-0.4-0.2-0.8-0.3-1.3-0.5c0,0-0.1,0-0.1,0.1
			c0,0,0,0.1,0.1,0.1c0.4,0.1,0.8,0.3,1.2,0.4c-0.4,0.4-0.8,0.8-1.2,1.2c0,0,0,0.1,0,0.1c0,0,0,0,0.1,0c0,0,0,0,0.1,0
			c2.7-3.3,6.7-3.5,6.7-3.5c0,0,0.1,0,0.1-0.1c0,0,0-0.1-0.1-0.1c0,0-1.1,0.1-2.5,0.6c-2.1-1.3-4.2-1.4-4.2-1.4
			C328.2,770.4,328.2,770.4,328.2,770.5C328.2,770.5,328.2,770.5,328.2,770.5z"/>
		<path class="st74" d="M331,768.6c0-0.3-0.1-0.4-0.2-0.5c0,0,0,0,0-0.1c0,0-0.1-0.1-0.1,0c0,0-0.1,0.1,0,0.1c0,0,0,0,0.1,0.1
			c0.1,0.1,0.2,0.2,0.2,0.4c0,0.2-0.1,0.3-0.1,0.3c-0.1,0.1-0.2,0.2-0.2,0.4c0,0.2,0.1,0.3,0.1,0.4c0,0,0,0,0.1,0c0,0,0,0,0,0
			c0,0,0-0.1,0-0.1c-0.1-0.1-0.1-0.2-0.1-0.3c0-0.2,0.1-0.3,0.1-0.3C330.9,769,331,768.9,331,768.6z"/>
		<path class="st74" d="M331.8,768.6c0-0.3-0.1-0.4-0.2-0.5c0,0,0,0,0-0.1c0,0-0.1-0.1-0.1,0c0,0-0.1,0.1,0,0.1c0,0,0,0,0.1,0.1
			c0.1,0.1,0.2,0.2,0.2,0.4c0,0.2-0.1,0.3-0.1,0.3c-0.1,0.1-0.2,0.2-0.2,0.4c0,0.2,0.1,0.3,0.1,0.4c0,0,0,0,0.1,0c0,0,0,0,0,0
			c0,0,0-0.1,0-0.1c-0.1-0.1-0.1-0.2-0.1-0.3c0-0.2,0.1-0.3,0.1-0.3C331.8,769,331.8,768.9,331.8,768.6z"/>
		<path class="st74" d="M332.7,768.6c0-0.3-0.1-0.4-0.2-0.5c0,0,0,0,0-0.1c0,0-0.1-0.1-0.1,0c0,0-0.1,0.1,0,0.1c0,0,0,0,0.1,0.1
			c0.1,0.1,0.2,0.2,0.2,0.4c0,0.2-0.1,0.3-0.1,0.3c-0.1,0.1-0.2,0.2-0.2,0.4c0,0.2,0.1,0.3,0.1,0.4c0,0,0,0,0.1,0c0,0,0,0,0,0
			c0,0,0-0.1,0-0.1c-0.1-0.1-0.1-0.2-0.1-0.3c0-0.2,0.1-0.3,0.1-0.3C332.6,769,332.7,768.9,332.7,768.6z"/>
	</g>
</g>
<text transform="matrix(-2.100000e-04 1 -1 -2.100000e-04 489.5872 738.1096)" class="st31 st78 st79">39,0 kg</text>
<text transform="matrix(-2.100000e-04 1 -1 -2.100000e-04 582.0639 737.7654)" class="st31 st80 st79">16,0 kg</text>
<text transform="matrix(-2.100000e-04 1 -1 -2.100000e-04 423.8371 737.7721)" class="st31 st78 st79">1,75 kg</text>
<text transform="matrix(-2.100000e-04 1 -1 -2.100000e-04 411.5347 737.7676)" class="st31 st78 st79">1,25 kg</text>
<text transform="matrix(-2.100000e-04 1 -1 -2.100000e-04 400.6488 737.7656)" class="st31 st78 st79">1,00 kg</text>
<text transform="matrix(-2.100000e-04 1 -1 -2.100000e-04 391.0471 738.1093)" class="st31 st78 st79">0,50 kg</text>
<text transform="matrix(-2.100000e-04 1 -1 -2.100000e-04 381.7628 738.0587)" class="st31 st78 st79">0,50 kg</text>
<path class="st49" d="M405.9,768.7c0-0.1,0.1-0.3,0.1-0.4c0-0.2-0.1-0.4-0.3-0.5c-0.2-0.1-0.5-0.2-0.8,0c0,0,0,0,0,0
	c-0.3,0.1-0.5,0.3-0.7,0.5l-0.9,0.9l-2.9-1.1c-0.5-0.2-1-0.1-1.3,0.3c-0.1,0.2-0.1,0.4,0.1,0.5l2.5,1.9l-0.3,0.3
	c-0.3,0.3-0.5,0.6-0.8,0.9l-1.3-0.2c-0.1,0-0.1,0-0.2,0.1l-0.2,0.6c0,0.1,0,0.2,0.1,0.2l0.8,0.4c-0.2,0.3-0.4,0.6-0.6,0.9
	c-0.1,0.2,0,0.3,0.1,0.4c0.1,0.1,0.2,0.1,0.3,0c0.3-0.2,0.6-0.4,0.9-0.6l0.4,0.8c0,0.1,0.1,0.1,0.2,0.1l0.6-0.2
	c0.1,0,0.1-0.1,0.1-0.2l-0.2-1.3c0.3-0.2,0.6-0.5,0.9-0.8l0.3-0.3l1.9,2.5c0.1,0.2,0.4,0.2,0.5,0.1c0.4-0.3,0.5-0.8,0.3-1.3
	l-1.1-2.9l0.9-0.9C405.7,769.3,405.8,769,405.9,768.7z M399.4,768.7c0,0,0-0.1,0-0.1c0.2-0.3,0.7-0.3,0.9-0.2l2.8,1l-1.1,1.2
	L399.4,768.7z M405.3,773.4c0.1,0.3,0.1,0.7-0.2,0.9c0,0-0.1,0-0.1,0l-1.9-2.6l1.2-1.1L405.3,773.4z M402.4,772
	c-0.3,0.3-0.6,0.5-0.9,0.8c0,0-0.1,0.1-0.1,0.1c0,0,0,0,0,0l0.2,1.2l-0.3,0.1l-0.4-0.8c0-0.1-0.1-0.1-0.2-0.1c0,0,0,0,0,0
	c-0.3,0.2-0.7,0.5-1,0.7c0,0,0,0,0,0c0,0,0,0,0,0c0.2-0.3,0.4-0.7,0.7-1c0-0.1,0-0.2,0-0.2c0,0,0,0,0,0l-0.8-0.4l0.1-0.3l1.2,0.2
	l0,0c0.1,0,0.1,0,0.2-0.1c0.2-0.3,0.5-0.6,0.8-0.9l2.8-2.9c0.2-0.2,0.4-0.3,0.6-0.4c0,0,0,0,0,0c0.2-0.1,0.4-0.1,0.5,0
	c0.1,0.1,0.1,0.2,0.1,0.3c0,0.1,0,0.2-0.1,0.3c-0.1,0.2-0.2,0.4-0.4,0.6L402.4,772z"/>
<g id="Animals_310_">
	<g>
		<g id="Artboard_371_" transform="translate(-3113.000000, -1056.000000)">
			<g id="noun_bag_606249_79_">
				<g transform="translate(3113.000000, 1056.000000)">
					<g id="Group_220_">
						<g transform="translate(0.215533, 0.000000)">
							<path id="Shape_231_" class="st49" d="M427.7,767.7c0,0-0.1,0-0.1,0c-0.1,0-0.3,0.1-0.5,0.3l-3.1,0c-0.2-0.1-0.3-0.2-0.4-0.3
								c-0.1,0-0.3,0-0.3,0h0c0,0,0,0,0,0c0,0,0,0,0,0c0,0-0.1,0-0.1,0c-0.1,0.1-0.2,0.2-0.2,0.4c0,0.2,0.1,0.4,0.2,0.7
								c-0.1,0.5-0.1,1.2-0.1,2.1c0,0.9,0,1.6,0.1,2.1c-0.1,0.3-0.2,0.5-0.2,0.7c0,0.2,0.1,0.4,0.2,0.4c0.2,0.1,0.5,0.1,0.9-0.2
								l3.1,0c0.4,0.4,0.7,0.4,0.9,0.2c0.1-0.1,0.2-0.2,0.2-0.4c0-0.2-0.1-0.4-0.2-0.7c0.1-0.5,0.1-1.2,0.1-2.1c0-0.9,0-1.6-0.1-2.1
								c0.1-0.3,0.2-0.5,0.2-0.7c0-0.2-0.1-0.4-0.2-0.4C427.9,767.8,427.8,767.7,427.7,767.7z M427.8,768
								C427.8,768,427.8,768,427.8,768c0,0,0.1,0.1,0.1,0.2s0,0.4-0.2,0.6c0,0,0,0.1,0,0.1c0.1,0.5,0.1,1.2,0.1,2.1
								c0,0.9,0,1.6-0.1,2.1c0,0,0,0.1,0,0.1c0.1,0.3,0.2,0.5,0.2,0.6c0,0.2-0.1,0.2-0.1,0.2c0,0-0.2,0.1-0.6-0.2c0,0-0.1,0-0.1,0
								l-3.1,0c0,0-0.1,0-0.1,0c-0.4,0.4-0.6,0.3-0.6,0.2c0,0-0.1-0.1-0.1-0.2c0-0.2,0-0.4,0.2-0.6c0,0,0-0.1,0-0.1
								c-0.1-0.5-0.1-1.2-0.1-2.1c0-0.9,0-1.6,0.1-2.1c0,0,0-0.1,0-0.1c-0.1-0.3-0.2-0.5-0.2-0.6c0-0.1,0.1-0.2,0.1-0.2
								c0.1,0,0.1,0,0.2,0c0.1,0,0.2,0.1,0.4,0.2c0,0,0.1,0,0.1,0l3.1,0c0,0,0.1,0,0.1,0c0.2-0.2,0.3-0.2,0.4-0.3
								C427.7,768,427.7,768,427.8,768z M424,770c-0.1,0-0.1,0.1-0.1,0.1l0,1.7c0,0.1,0.1,0.1,0.1,0.1l3.1,0c0.1,0,0.1-0.1,0.1-0.1
								l0-1.7c0-0.1-0.1-0.1-0.1-0.1L424,770z M424.1,770.3l2.8,0l0,1.4l-2.8,0L424.1,770.3z"/>
						</g>
					</g>
				</g>
			</g>
		</g>
	</g>
</g>
<g id="Animals_309_" class="st5">
	<g id="Artboard_354_" transform="translate(-3112.000000, -1227.000000)">
		<g id="Group-2_49_" transform="translate(3113.000000, 1228.000000)">
			<polyline id="Path-14_54_" class="st65" points="387.4,766.7 388.5,766.7 388.6,767.6 389.4,771.5 393.8,771.5 			"/>
			<ellipse id="Oval_54_" class="st66" cx="390.2" cy="772.9" rx="0.7" ry="0.7"/>
			<ellipse class="st66" cx="392.9" cy="772.9" rx="0.7" ry="0.7"/>
			<polygon id="Path-15_54_" class="st65" points="388.6,767.6 394.7,767.6 394.1,770.5 389.2,770.5 			"/>
		</g>
	</g>
</g>
<g id="Animals_307_">
	<g>
		<g id="Artboard_369_" transform="translate(-3118.000000, -1138.000000)">
			<g id="noun_Factory_1474011_78_" transform="translate(3118.000000, 1138.000000)">
				<g id="Group_218_">
					<path id="Shape_229_" class="st49" d="M412.9,770.2h-2.2c-0.1,0-0.1,0.1-0.1,0.1l-0.2,3.9c0,0,0,0.1,0,0.1c0,0,0.1,0,0.1,0h2.6
						c0,0,0.1,0,0.1,0c0,0,0-0.1,0-0.1l-0.2-3.9C413.1,770.3,413,770.2,412.9,770.2z M410.6,774.2l0.2-3.7h2l0.2,3.7H410.6z"/>
					<path class="st49" d="M410.9,769.5c0.2,0.2,0.4,0.2,0.6,0.1c0.1,0.1,0.3,0.2,0.5,0.2c0.2,0,0.4-0.1,0.6-0.3
						c0.4,0,0.6-0.3,0.6-0.7c0-0.4-0.3-0.7-0.7-0.7c-0.1-0.2-0.3-0.3-0.6-0.3c-0.3,0-0.6,0.2-0.7,0.4c-0.1,0-0.3,0.1-0.4,0.2
						c-0.1,0.1-0.2,0.3-0.2,0.5C410.6,769.2,410.7,769.4,410.9,769.5z M410.9,768.7c0.1-0.1,0.2-0.1,0.3-0.1c0.1,0,0.1,0,0.1-0.1
						c0.1-0.2,0.2-0.3,0.4-0.3c0.2,0,0.3,0.1,0.4,0.2c0,0,0.1,0.1,0.1,0.1h0c0,0,0,0,0,0c0.3,0,0.5,0.2,0.5,0.4
						c0,0.2-0.2,0.4-0.4,0.4c-0.1,0-0.1,0-0.1,0.1c-0.1,0.1-0.2,0.2-0.4,0.2c-0.1,0-0.2,0-0.3-0.1c0,0-0.1,0-0.1,0c0,0,0,0,0,0
						c-0.1,0-0.2,0-0.4-0.1c-0.1-0.1-0.2-0.2-0.2-0.3C410.8,768.9,410.9,768.8,410.9,768.7z"/>
					<path class="st49" d="M415.5,771.8c0-0.1-0.1-0.1-0.1-0.1h-1.3c-0.1,0-0.1,0.1-0.1,0.1l-0.1,2.4c0,0,0,0.1,0,0.1
						c0,0,0.1,0,0.1,0h1.6c0,0,0.1,0,0.1,0c0,0,0-0.1,0-0.1L415.5,771.8z M414,774.2l0.1-2.2h1.1l0.1,2.2H414z"/>
					<path class="st49" d="M414.1,771.3c0.2,0.1,0.3,0.1,0.4,0.1c0.1,0.1,0.2,0.1,0.3,0.1c0.2,0,0.3-0.1,0.4-0.2
						c0.2,0,0.4-0.2,0.4-0.5c0-0.2-0.2-0.5-0.5-0.5c-0.1-0.1-0.2-0.2-0.4-0.2c-0.2,0-0.4,0.1-0.4,0.3c-0.2,0-0.3,0.2-0.3,0.4
						C413.9,771,413.9,771.2,414.1,771.3z M414.1,770.9c0-0.1,0.1-0.2,0.2-0.2c0.1,0,0.1,0,0.1-0.1c0-0.1,0.1-0.2,0.2-0.2
						c0.1,0,0.2,0,0.2,0.1c0,0,0.1,0.1,0.1,0.1h0c0,0,0,0,0,0c0.1,0,0.2,0.1,0.2,0.2c0,0.1-0.1,0.2-0.2,0.2c0,0-0.1,0-0.1,0.1
						c0,0.1-0.1,0.1-0.2,0.1c-0.1,0-0.1,0-0.2-0.1c0,0-0.1,0-0.1,0c0,0,0,0,0,0c-0.1,0-0.1,0-0.2-0.1
						C414.2,771.1,414.1,771,414.1,770.9z"/>
					<path class="st49" d="M414.8,770.1c0.1,0.1,0.2,0.1,0.2,0.1c0.1,0,0.1,0.1,0.2,0.1c0.1,0,0.2,0,0.2-0.1c0.1,0,0.3-0.1,0.3-0.3
						c0-0.2-0.1-0.3-0.3-0.3c-0.1-0.1-0.1-0.1-0.2-0.1c-0.1,0-0.2,0.1-0.3,0.2c-0.1,0-0.2,0.1-0.2,0.2
						C414.7,770,414.8,770.1,414.8,770.1z M414.9,769.9c0-0.1,0.1-0.1,0.1-0.1c0,0,0.1,0,0.1-0.1c0-0.1,0.1-0.1,0.1-0.1
						c0.1,0,0.1,0,0.1,0.1c0,0,0,0,0.1,0h0c0,0,0,0,0,0c0.1,0,0.1,0.1,0.1,0.1c0,0.1-0.1,0.1-0.1,0.1c0,0-0.1,0-0.1,0
						c0,0-0.1,0.1-0.1,0.1c0,0-0.1,0-0.1,0c0,0,0,0-0.1,0c0,0,0,0,0,0c0,0-0.1,0-0.1,0C414.9,770,414.9,769.9,414.9,769.9z"/>
					<path class="st49" d="M412.5,768c0.2,0.1,0.3,0.1,0.4,0.1c0.1,0.1,0.2,0.1,0.3,0.1c0.2,0,0.3-0.1,0.4-0.2
						c0.2,0,0.4-0.2,0.4-0.5c0-0.2-0.2-0.5-0.5-0.5c-0.1-0.1-0.2-0.2-0.4-0.2c-0.2,0-0.4,0.1-0.4,0.3c-0.2,0-0.3,0.2-0.3,0.4
						C412.3,767.7,412.4,767.9,412.5,768z M412.6,767.6c0-0.1,0.1-0.2,0.2-0.2c0.1,0,0.1,0,0.1-0.1c0-0.1,0.1-0.2,0.2-0.2
						c0.1,0,0.2,0,0.2,0.1c0,0,0.1,0.1,0.1,0.1h0c0,0,0,0,0,0c0.1,0,0.2,0.1,0.2,0.2c0,0.1-0.1,0.2-0.2,0.2c0,0-0.1,0-0.1,0.1
						c0,0.1-0.1,0.1-0.2,0.1c-0.1,0-0.1,0-0.2-0.1c0,0-0.1,0-0.1,0c0,0,0,0,0,0c-0.1,0-0.1,0-0.2-0.1
						C412.6,767.7,412.6,767.7,412.6,767.6z"/>
				</g>
			</g>
		</g>
	</g>
</g>
<g id="Animals_75_">
	<g>
		<g id="Artboard_366_" transform="translate(-3118.000000, -1364.000000)">
			<g id="noun_sausages_2556563_78_" transform="translate(3118.000000, 1364.000000)">
				<g id="Group_216_" transform="translate(0.336231, 0.000000)">
					<path id="Shape_227_" class="st49" d="M382.3,768.2c-0.6,0-1.1,0.5-1.1,1v4.9c0,0.6,0.5,1,1.1,1h3.2c0.6,0,1.1-0.5,1.1-1v-4.9
						c0-0.6-0.5-1-1.1-1H382.3z M382.5,768.8h0.9c0,0.2-0.2,0.3-0.4,0.3C382.7,769.2,382.5,769,382.5,768.8z M383.6,770.3h-1.3v-0.4
						c0-0.3,0.3-0.6,0.6-0.6s0.6,0.2,0.6,0.6V770.3L383.6,770.3z M386.5,770.5v2.2h-5.1v-2.2H386.5z M384.5,768.8h0.9
						c0,0.2-0.2,0.3-0.4,0.3S384.6,769,384.5,768.8z M385.6,770.3h-1.3v-0.4c0-0.3,0.3-0.6,0.6-0.6s0.6,0.2,0.6,0.6V770.3
						L385.6,770.3z M385.4,774.4h-0.9c0-0.2,0.2-0.3,0.4-0.3S385.4,774.2,385.4,774.4z M384.3,772.9h1.3v0.5c0,0.3-0.3,0.6-0.6,0.6
						s-0.6-0.2-0.6-0.6V772.9L384.3,772.9z M383.4,774.4h-0.9c0-0.2,0.2-0.3,0.4-0.3C383.2,774.1,383.3,774.2,383.4,774.4z
						 M382.3,772.9h1.3v0.5c0,0.3-0.3,0.6-0.6,0.6s-0.6-0.2-0.6-0.6V772.9L382.3,772.9z M385.6,774.9h-3.2c-0.5,0-0.9-0.4-0.9-0.9
						v-1.2h0.7v0.5c0,0.3,0.2,0.5,0.5,0.7c-0.2,0.1-0.3,0.3-0.3,0.5v0c0,0,0,0.1,0.1,0.1h1.1c0.1,0,0.1,0,0.1-0.1v0
						c0-0.2-0.1-0.4-0.3-0.5c0.3-0.1,0.5-0.4,0.5-0.7v-0.5h0.4v0.5c0,0.3,0.2,0.5,0.5,0.7c-0.2,0.1-0.3,0.3-0.3,0.5v0
						c0,0,0,0.1,0.1,0.1h1.1c0.1,0,0.1,0,0.1-0.1v0c0-0.2-0.1-0.4-0.3-0.5c0.3-0.1,0.5-0.4,0.5-0.7v-0.5h0.7v1.2
						C386.5,774.5,386.1,774.9,385.6,774.9z M386.5,769.2v1.2h-0.7v-0.4c0-0.3-0.2-0.5-0.5-0.7c0.2-0.1,0.3-0.3,0.3-0.5v0
						c0,0,0-0.1-0.1-0.1h-1.1c-0.1,0-0.1,0-0.1,0.1v0c0,0.2,0.1,0.4,0.3,0.5c-0.3,0.1-0.5,0.4-0.5,0.7v0.4h-0.4v-0.4
						c0-0.3-0.2-0.5-0.5-0.7c0.2-0.1,0.3-0.3,0.3-0.5v0c0,0,0-0.1-0.1-0.1h-1.1c-0.1,0-0.1,0-0.1,0.1v0c0,0.2,0.1,0.4,0.3,0.5
						c-0.3,0.1-0.5,0.4-0.5,0.7v0.4h-0.7v-1.2c0-0.5,0.4-0.9,0.9-0.9h3.2C386.1,768.3,386.5,768.7,386.5,769.2z"/>
				</g>
			</g>
		</g>
	</g>
</g>
<g>
	<g>
		<path class="st72" d="M494.2,773.9c-0.4,0-0.8-0.2-1-0.6c0.4-0.4,0.7-0.9,0.7-1.5c0,0,0,0,0,0c0,0,0,0,0-0.1c0,0,0,0,0,0
			c0,0,0,0,0,0c0,0,0,0,0,0c0,0,0,0,0,0c0,0,0,0,0-0.1c0,0,0,0,0-0.1c0,0,0,0,0,0c0,0,0,0,0-0.1c0,0,0,0,0,0c0-0.3-0.1-0.7-0.2-1.1
			c0,0,0,0,0,0c0,0,0,0,0,0c0,0,0,0,0-0.1c0,0,0,0,0,0c0,0,0,0,0,0c0.2-0.3,0.4-0.4,0.5-0.4c0.3,0,0.6,0.4,0.9,1
			c0.2,0.6,0.4,1.3,0.4,1.7C495.4,773.3,494.9,773.9,494.2,773.9L494.2,773.9z M491.8,772.7l0.9-0.7c0.1-0.1,0.1-0.2,0-0.2
			c-0.1-0.1-0.2-0.1-0.2,0l-0.7,0.5V771l0.6-0.4c0.1-0.1,0.1-0.2,0-0.2c-0.1-0.1-0.2-0.1-0.2,0l-0.4,0.3v-0.8c0-0.1-0.1-0.2-0.2-0.2
			s-0.2,0.1-0.2,0.2v1.8l-0.7-0.5c-0.1-0.1-0.2,0-0.2,0s0,0.2,0,0.2l0.9,0.6v1.7c-0.9-0.1-1.6-0.8-1.7-1.8c0,0,0,0,0,0c0,0,0,0,0,0
			c0,0,0,0,0,0c0,0,0,0,0,0c0,0,0,0,0,0c0,0,0,0,0,0c0,0,0,0,0,0c0,0,0,0,0,0c0,0,0,0,0-0.1c0,0,0,0,0-0.1c0,0,0,0,0,0c0,0,0,0,0,0
			c0-0.4,0.1-0.8,0.2-1.3c0,0,0,0,0,0c0.1-0.3,0.2-0.7,0.3-1c0.4-1,0.9-1.5,1.3-1.5s0.9,0.5,1.3,1.5c0.1,0.3,0.3,0.7,0.3,1
			c0,0,0,0,0,0c0.1,0.5,0.2,1,0.2,1.3c0,0,0,0,0,0c0,0,0,0,0,0c0,0,0,0,0,0.1c0,0,0,0,0,0.1c0,0,0,0,0,0c0,0,0,0,0,0c0,0,0,0,0,0
			c0,0,0,0,0,0c0,0,0,0,0,0c0,0,0,0,0,0c0,0,0,0,0,0c0,0,0,0,0,0c-0.1,0.9-0.8,1.7-1.7,1.8V772.7z M489.2,773.9
			c-0.7,0-1.3-0.6-1.3-1.4c0-0.4,0.2-1.2,0.4-1.7c0.3-0.7,0.6-1,0.9-1c0.1,0,0.3,0.1,0.5,0.4c0,0,0,0,0,0c0,0,0,0,0,0c0,0,0,0,0,0.1
			c0,0,0,0,0,0c0,0,0,0,0,0c-0.1,0.4-0.2,0.8-0.2,1.1c0,0,0,0,0,0c0,0,0,0,0,0.1c0,0,0,0,0,0c0,0,0,0,0,0.1c0,0,0,0,0,0.1
			c0,0,0,0,0,0c0,0,0,0,0,0c0,0,0,0,0,0c0,0,0,0,0,0c0,0,0,0,0,0.1c0,0,0,0,0,0c0.1,0.6,0.3,1.1,0.7,1.5
			C490,773.7,489.6,773.9,489.2,773.9L489.2,773.9z M495.7,772.5c0-0.5-0.2-1.2-0.4-1.9c-0.4-1-0.9-1.2-1.2-1.2
			c-0.2,0-0.4,0.1-0.6,0.3c-0.1-0.3-0.2-0.5-0.3-0.7c-0.2-0.5-0.4-0.9-0.7-1.2c-0.3-0.4-0.6-0.5-0.9-0.5c-0.3,0-0.6,0.2-0.9,0.5
			c-0.2,0.3-0.5,0.7-0.7,1.2c-0.1,0.2-0.2,0.5-0.3,0.7c-0.2-0.2-0.4-0.3-0.6-0.3c-0.5,0-0.9,0.7-1.2,1.2c-0.3,0.6-0.4,1.4-0.4,1.9
			c0,0.9,0.6,1.6,1.4,1.7v0.6c0,0.1,0.1,0.2,0.2,0.2s0.2-0.1,0.2-0.2v-0.6c0.4,0,0.9-0.3,1.1-0.7c0.3,0.2,0.7,0.4,1,0.4v0.9
			c0,0.1,0.1,0.2,0.2,0.2s0.2-0.1,0.2-0.2v-0.9c0.4,0,0.7-0.2,1-0.4c0.3,0.4,0.7,0.6,1.1,0.7v0.6c0,0.1,0.1,0.2,0.2,0.2
			s0.2-0.1,0.2-0.2v-0.6C495.1,774.2,495.7,773.4,495.7,772.5L495.7,772.5z"/>
	</g>
</g>
<g>
	<g>
		<path class="st74" d="M587.5,771.2c-1.2,0.2-3.5,0.8-5.5,2.8c0,0,0,0.1,0,0.1c0,0,0,0,0.1,0c0,0,0,0,0.1,0c2-1.9,4.2-2.5,5.4-2.7
			C587.5,771.3,587.6,771.3,587.5,771.2C587.6,771.2,587.5,771.2,587.5,771.2z"/>
		<path class="st74" d="M587.5,772c-1,0.2-2.6,0.8-4,1.9c0,0,0,0.1,0,0.1c0,0,0,0,0.1,0c0,0,0,0,0.1,0c1.4-1.1,3-1.6,4-1.9
			c0,0,0.1-0.1,0.1-0.1C587.6,772,587.5,772,587.5,772z"/>
		<path class="st74" d="M587.6,773c0,0-0.1-0.1-0.1-0.1c-0.8,0.2-1.6,0.6-2.3,1c0,0-0.1,0.1,0,0.1c0,0,0,0,0.1,0c0,0,0,0,0,0
			c0.7-0.4,1.5-0.8,2.3-1C587.5,773.1,587.6,773,587.6,773z"/>
		<path class="st74" d="M580.7,769.7c0,0,1.9,0.1,4,1.3c-0.3,0.1-0.6,0.2-0.9,0.4c-1.2-0.6-2.4-0.9-3.1-1.1c0,0-0.1,0-0.1,0.1
			c0,0,0,0.1,0.1,0.1c0.7,0.1,1.8,0.4,2.9,1c-0.3,0.1-0.5,0.3-0.8,0.5c-0.7-0.3-1.4-0.6-2.1-0.7c0,0-0.1,0-0.1,0.1s0,0.1,0.1,0.1
			c0.7,0.2,1.4,0.4,2,0.7c-0.2,0.2-0.5,0.3-0.7,0.5c-0.4-0.2-0.8-0.3-1.3-0.5c0,0-0.1,0-0.1,0.1c0,0,0,0.1,0.1,0.1
			c0.4,0.1,0.8,0.3,1.2,0.4c-0.4,0.4-0.8,0.8-1.2,1.2c0,0,0,0.1,0,0.1c0,0,0,0,0.1,0c0,0,0,0,0.1,0c2.7-3.3,6.7-3.5,6.7-3.5
			c0,0,0.1,0,0.1-0.1c0,0,0-0.1-0.1-0.1c0,0-1.1,0.1-2.5,0.6c-2.1-1.3-4.2-1.4-4.2-1.4C580.7,769.5,580.7,769.6,580.7,769.7
			C580.7,769.7,580.7,769.7,580.7,769.7z"/>
		<path class="st74" d="M583.5,767.8c0-0.3-0.1-0.4-0.2-0.5c0,0,0,0,0-0.1c0,0-0.1-0.1-0.1,0c0,0-0.1,0.1,0,0.1c0,0,0,0,0.1,0.1
			c0.1,0.1,0.2,0.2,0.2,0.4c0,0.2-0.1,0.3-0.1,0.3c-0.1,0.1-0.2,0.2-0.2,0.4c0,0.2,0.1,0.3,0.1,0.4c0,0,0,0,0.1,0c0,0,0,0,0,0
			c0,0,0-0.1,0-0.1c-0.1-0.1-0.1-0.2-0.1-0.3c0-0.2,0.1-0.3,0.1-0.3C583.4,768.2,583.5,768,583.5,767.8z"/>
		<path class="st74" d="M584.3,767.8c0-0.3-0.1-0.4-0.2-0.5c0,0,0,0,0-0.1c0,0-0.1-0.1-0.1,0c0,0-0.1,0.1,0,0.1c0,0,0,0,0.1,0.1
			c0.1,0.1,0.2,0.2,0.2,0.4c0,0.2-0.1,0.3-0.1,0.3c-0.1,0.1-0.2,0.2-0.2,0.4c0,0.2,0.1,0.3,0.1,0.4c0,0,0,0,0.1,0c0,0,0,0,0,0
			c0,0,0-0.1,0-0.1c-0.1-0.1-0.1-0.2-0.1-0.3c0-0.2,0.1-0.3,0.1-0.3C584.3,768.2,584.3,768,584.3,767.8z"/>
		<path class="st74" d="M585.2,767.8c0-0.3-0.1-0.4-0.2-0.5c0,0,0,0,0-0.1c0,0-0.1-0.1-0.1,0c0,0-0.1,0.1,0,0.1c0,0,0,0,0.1,0.1
			c0.1,0.1,0.2,0.2,0.2,0.4c0,0.2-0.1,0.3-0.1,0.3c-0.1,0.1-0.2,0.2-0.2,0.4c0,0.2,0.1,0.3,0.1,0.4c0,0,0,0,0.1,0c0,0,0,0,0,0
			c0,0,0-0.1,0-0.1c-0.1-0.1-0.1-0.2-0.1-0.3c0-0.2,0.1-0.3,0.1-0.3C585.1,768.2,585.2,768.1,585.2,767.8z"/>
	</g>
</g>
<g id="Page-1_36_">
	<g id="Artboard_334_" transform="translate(-2658.000000, -963.000000)">
		<g transform="translate(2658.000000, 963.000000)">
			<path id="Shape_197_" class="st49" d="M92.3,199.8c0.5-1.6-1.2-1.2-1.2-1.2c0.5-1.4-1.7-1-3,0.8c-1.2,1.8-3.4,3.9-6.7,4.3
				c-3.4,0.4-5.6,1.2-7.5-1.5c-2-3.8-4.5-4.5-5.3-4.6l0-0.1c0.1,0,0.7-0.5,0.3-1c-0.3-0.5-0.9,0-1.1-0.1c-0.1,0-0.1-0.6-0.7-0.6
				c-0.6,0-0.4,0.6-0.6,0.6c-0.2,0-1.1-0.3-1.5,0.4c-0.4,0.6,0.4,1.3,0.4,1.4c0.1,0.3-0.2,0.8-0.2,0.8c-1.1,0.8-1.2,2.2-1.2,2.2
				c0.9-0.4,1.6-0.5,1.6-0.5c-0.6,1.3-0.2,1.9,0.2,1.8c0.4,0,0.5-0.4,0.5-0.8l0.1,0.1c0,0.7-0.4,2.7,0,4.8c0.4,2.3,1.5,4.7,2.8,7.1
				c1,1.9,2.4,3.8,3.8,5c1.4,1.2,2.6,1.7,2.9,1.7c0.1,0,0.3,0,0.4,0.1c-0.2,0.6-0.6,2-0.8,2.6c-0.2,0.7-1.9,1.3-2.7,1.5
				c-0.8,0.1-0.7,0.1-1.1,0.3s-0.6,0.3-0.2,0.3c0.4,0,1.6-0.1,1.8-0.1c0.2,0-1.4,0.8-1.1,0.9c0.3,0.1,1.3-0.5,2.7-1.1
				c1.4-0.5,1.9,0.2,2.4,0.4c0.5,0.2,0.9,0.1,0.5-0.2c-0.4-0.3-0.6-0.6-0.6-0.6c0.4-0.4,1.1-0.4,1.7-0.3c0.6,0.2,1.6,0.6,1.4,0.1
				c-0.2-0.5-1.6-0.4-1.6-0.9c0-0.6,0.4-2.3,0.6-2.7c0.1-0.2,0.4-0.3,0.6-0.4c0.6-0.1,1.2-0.3,1.8-0.6c1.9-0.5,3.1-1.6,5-4.7
				c0.7-1.1,2.2-3.2,3.2-5c0.6-1,0.9-2.1,0.9-2.1c2.4-1,0.8-2.6,0.8-2.6c2.3-1.5,0.2-2.4,0.2-2.4c2.2-0.2,0.8-1.8,0.8-1.8
				C93.9,200.2,92.3,199.8,92.3,199.8z M77.3,223.6c-0.8,0.6-1,0.1-0.8-0.7c0.2-0.7,0.8-1.9,1-2.3c0.3,0,0.6,0,0.9,0
				C78.4,221.3,78.2,222.9,77.3,223.6z"/>
		</g>
	</g>
</g>
<g id="Page-1_35_">
	<g id="Artboard_333_" transform="translate(-6946.000000, -917.000000)">
		<path id="Combined-Shape_10_" class="st38" d="M7356.9,989.7c0.9,0-0.3,1,1.7,3.2c0.9,1,3.5,2.6,5.2,3.9c1.6,1.2,2.3,2.2,2.7,2.9
			c0.6,0.9-0.3,2.6,0,2.7c0.4,0,0.6-0.2,1.6-0.9c0.3-0.3,2.7-1.8,5.1-2c2.5-0.2,5,0.7,5.2,1c0.4,0.4-0.9,3.2-2.8,5
			c-1.1,1-3.2,1.3-3.2,1.6c0,0.7,0.3,1,2,1c1.2,0.2,6.4,1,10.4,1.3c0.9,0.1,1.9,0.1,2.8,0.2c0.3,0,0.6,0,0.9,0c0.1,0,0.3,0,0.4,0
			l0,0c0.9,0,1.7,0.1,2.4,0.1c9.4,0.4,29.2,1.5,36.1,2.3c6.5,0.7,15.1,1.8,22,2.6c6.9,0.7,10.5,0.7,17,0.8c6.1,0,21.6-0.6,26.3-1.7
			c6.9-0.7,15.5-1,19.5-1.4c4-0.3,10.5-0.7,13.3,1.1c3.2,1.8,7.6,4.9,9.3,8.2c1.8,3.6,3.4,9.3,3.8,11.3c0.2,1.2,1.2,7.2,1.5,13.5
			c0.3,7.1,0,15.8,0.7,19.5c0,0.2,2.8,2.8,4.4,5.9c0.8,1.6,2,7.2,1.7,11.3c-0.3,4.9-1.8,11.1-2.2,9.7c-0.4-1.4-2.7-4.3-4.7-8.3
			c-1.6-3.2-3-7.7-3.2-8.6c-0.2-1.3-0.4-3,0-5c0.4-1.9,1.3-4,1.1-4.8c-0.4-1.8-1.1-9-1.1-10.8c0-1.8-1-17.2-1.4-19
			c-0.4-2.1-2.9-8.8-1.8-5.7c1.1,3.1,0,11.1,0,13.6l0,12.9c-0.4,2.5,0.3,8.2-1.1,10.8c-1.4,2.9-2.2,3.9-2.2,3.9
			c-0.7,1.2-1,1.8-0.7,1.8c0.4,0,4.7,4.7,5.7,5.8c0.7,1.1,1.8,2.9,1.1,5.4c-1.1,2.5-2.6,15.8-2.6,18.6c0,2.9,0.3,12.6,0.3,13.3
			c0,1.1,0.4,1.8,0.4,2.5c-0.4,0.4-3,3.3-3.2,5.4c-0.1,1,0,2.9,0.4,5.8l-14.9-0.1c0.5-1.9,0.9-3.3,1.3-4c1-1.9,2.5-3,3.1-3.6
			c1.1-1.4,2.6-9,2.6-15.4c0-6.1-2.1-15.1-6.8-20.8c-6.9,12.5-8.8,24-8.4,31.5c-2.9,0.3-4.3,2.1-5.4,4.6c-0.2,0.3-0.5,1.5-1,3.6
			l-13,0c0.5-1.6,1-2.8,1.5-3.6c4.3-6.6,7.9-10.6,8.5-11.8c1.1-2.1,2.2-6.8,2.2-8.6l0-0.1c0-2.2,0-7.4-2.5-7.8
			c-0.7-0.2-0.5,3.6-2,3.6c-1.5,0-1.2-2.8-2.6-2.6c-1.4,0.2-0.8,2.4-2.4,2.4c-1.9-0.4-0.9-2.3-2.2-2.6c-0.5-0.1-1.1-0.1-1.6,0.2
			c-0.6,0.5-0.3,1.4-1.8,1.4c-1.4,0-1.9-2.3-1.9-2.9c-4.3-2.5-6.9-4.8-7.6-5.9c-1.1-1.1-4-4.3-4-4.3c-5,0.3-10.5,0.7-12.2,0.7
			c-2.2,0-7.6-0.4-9.7-0.4c-2.5,0-5,0.3-7.9,0.3c-2.5,0-6.5-0.7-7.9-1.1c-1.1-0.4-1.5-0.4-2.5,0c-1.5,0.4-4,6.1-4,7.9l0,3.9
			c0.4,0.7,2.1,4.7,2.1,5.7c0,1.1-1.8,2.2-2.5,3.6c-0.7,1.8-2.9,5-2.6,9c0,3.6,0.7,5,0.7,7.2c0,1.1,0.5,3.2-1.3,3.2
			c-0.7,0.1-2,1.3-2.7,2.9c-0.4,0.9-0.7,2.2-0.9,3.9l-12.5,0c0.5-2.2,1.2-3.6,2.2-4.3c1.8-1.1,2.5-1.1,2.9-2.5
			c0.7-1.8,1.8-6.8,2.2-8.2c0.4-1.8,0.7-8.6,0.8-10c0-1.8,0-4.7-0.3-6.5c-0.7-1.4-1.4-5.7-1.4-5.7c-0.7,4-2.9,11.1-3.6,11.5
			c-1.1,0.7-1.8,1.4-2.2,2.5c-0.3,0.7-1.1,6.8-1.8,9c-0.4,1.8-0.8,8.6-1.1,9.3c-0.7,0.3-2.2,0.3-2.9,1.1c-0.7,0.5-1.2,1.8-1.5,3.9
			l-11.9,0c0.5-1.4,1.1-2.3,1.6-2.9c1.8-1.7,3.5-2.7,3.8-3.2c0.3-1.1,2.9-5.7,3.3-7.2c0.4-1.4,3.3-11.8,3.3-13.3
			c0-1.4-0.7-2.9-1.1-4.7c0-1.8-0.3-7.4-0.3-9.6l0-0.2c0-1.7,0-2.4-1.8-2.4l-0.2,0c-1.4,0-3.4,0-4.4-0.4c-1.1-0.7-2.9-2.5-3.9-4
			c-1.4-2.9-2.5-4.7-2.9-5.7c-0.4-1.4-2.9-8.6-3.9-11.5c-1.4-2.5-5-9-6.8-11.5c-1.8-2.1-5-5.7-6.8-7.5l0,0c0,0-0.1,0-0.1-0.1
			c-1.7-2-1.2-1.6-2.9-3.3c-1.7-1.7-3.6-2-5.6-2.7c-2-0.3-5.4,0.3-8,0c-3-0.7-5.7-1-7.3-1.7c-1.7-0.7-5.3-2.4-7-2.7
			c-1.7-0.3-5.7,0.3-6.4-0.4c-0.6-0.7-1-1.7-1.6-2.7c-0.7-1.3-2.7-4.7-1.6-6c1.7-2,12.1-11.3,13.4-12.6c1-1.3,6.7-7,8.1-8
			c1-1,6.2-3.6,5-3.6c-1.2,0-5-1.4-6.8-3.8c-2.2-2.9-1.3-6.6-0.7-6.6c0.5,0,0.6,2.7,2.6,4.3c1.1,0.9,4.5,1.8,5.7,1.8
			c1.9,0,1.5,0.2,2.1,0.2c0.6,0-1-0.4-2-2.5C7355.4,993.8,7355.9,989.7,7356.9,989.7z"/>
	</g>
</g>
<g id="Page-1_34_">
	<g id="Artboard_332_" transform="translate(-6946.000000, -3567.000000)">
		<g id="Sheep_10_">
			
				<g transform="translate(7410.500000, 3912.000000) scale(-1, 1) translate(-7410.500000, -3912.000000) translate(6946.000000, 3567.000000)">
				<path id="Path_34_" class="st50" d="M590.4,186.5l0,5.9c0,0.6,0.3,1.9,0.4,2.2c0.1,0.4,0.9,1.8,1.6,2.9c0.9,1,0.3,1.8,0.2,2.5
					c-0.3,0.7-0.4,1.9-0.4,2.7l0,8.3c0,0.4,0,0.9,0.4,0.9c0.3,0,0.4,0.6,0.3,1.8c0.5,0,1.8,0,4,0c-0.1-0.7-0.3-1.1-0.4-1.3
					c-0.3-0.6-0.7-1-1-1.1c-0.4-0.2-0.1-0.6-0.1-0.6c0.1-2.5,0.4-5,0.7-7.5c0,0,0-1,0.7-1.6c0.7-0.6,2.1-1.5,2.1-1.5
					s0.4-0.4,0.7-0.2c0.3,0.2,0.3,0.4,0.3,0.7c0.2,0.3,1.1,5.6,1.1,5.6s0.9,3.8,1,4.3c0.2,0.4,0.2,0.4,0.6,0.4
					c0.5,0.2,0.7,0,0.9,0.4c0.1,0.4,0.3,1.2,0.3,1.2l0,1.2l3.4,0c0.1-0.4,0-0.8-0.1-1.2c-0.2-0.6-1.3-1.3-1.4-1.5l0-0.4
					c-0.3-1.6-0.6-3.4-1.1-5.2c0-1.8,0.1-3.7,0-5.6c-0.1-1.9-0.3-3.1,1.9-4.3c1.9-0.9,2.7,0,4.2,0.3c1.6,0.3,6.1,1.5,13.1,1.5
					c7,0,7.7-0.9,9.1-0.6c0.9,0.3,1.6,1.5,2.5,2.4c0.9,1,0.9,1.9,0.9,2.4c0,0.4-0.6,3.5-0.7,4.1c-0.4,1.3-0.7,5-0.4,5.2
					c0.3,0.2,1.2,0,1.2,0.6c0,0.4,0,1.2,0,2.4l4,0c0-0.5-0.1-0.8-0.2-1.2c-0.3-1.1-1.1-2.3-1.2-2.5c-0.3-0.6-0.1-0.7-0.1-0.9
					c0,0,0-1.8,0.1-2.4c0-0.4,0.6-3.1,0.7-3.7c0.3-0.6,0.7-2.2,1.3-3c0.7-0.6,1.5-0.9,1.5-0.9c0.3,2.8-0.1,10.9-0.1,11.6
					c0,0.6,0.6,0.9,0.9,1c0.4,0.2,0.5,1,0.6,1.8l4,0c0.1-0.6,0.1-1.1,0-1.5c-0.1-0.5-0.5-1.2-0.5-1.2s-1.3-2-1.3-2.1
					c-0.2-0.1-0.2-0.6-0.2-0.7c0.2,0,1-7.2,1-7.5c0-0.3,0.3-2.4,0.9-3.1c0.6-0.7,1.8-1.2,2.4-1.5c0.4-0.3,2.8-1.8,3.4-2.7
					c0.7-0.9,2.1-2.8,3-4.7c0.7-1.8,2.2-5.3,2.7-7.1c0.4-1.8,1.3-5,1.3-6c0.1-1,0.4-4,0.4-4.6c0-0.6,0.3-1.5,0.7-1.8
					c0.6-0.3,1-0.5,1.8-0.3c0.8,0.2,5.7,1.7,6.7,1.7c1,0,1.4-0.8,1.8-0.9c0.4-0.2,1.2-0.2,1.6-0.5c0.4-0.3,0.5-0.9,0.5-1.3
					c0-0.3-0.3-1.8-0.6-2.4c-0.7-1.2-2.4-3.4-3.1-4.1c-0.6-0.9-3.1-3.7-3.9-4.3c-0.7-0.6-2.2-1.8-3.4-2.5c-1.2-0.7-1.7-0.7-2.9-1
					c-1.2-0.3-1.6-0.3-1.6-0.3s0-0.5-0.8-1.4s-1.2-1.3-1.8-1.8c-0.6-0.4-1.3-0.7-1.8-0.4c-0.4,0.4-0.4,1.1-0.1,1.9
					c0.3,0.7,0.5,1.5,0.5,1.5s-4.3,2.5-5.3,3.3c-3.4,2.2-5.8,5.6-7.7,5.9c-1.9,0.3-3,0.2-4.3,0.2c-8.9-0.4-27.6-1.3-30.2-1.3
					c-2.7,0-5.2-0.1-6.7,0.3c-1.5,0.6-6.2,2.2-8.8,5.6c-2.5,3.3-4,6.8-3.8,9.6c0.3,2.8,1,3.7,1.2,4.3c0.2,0.6,0.9,1.5,0.9,3.2
					L590.4,186.5z"/>
			</g>
		</g>
	</g>
</g>
<g id="hopefully-final_1_">
	<g transform="translate(-2411.000000, -730.000000)">
		<g id="Page-1_33_" transform="translate(2411.000000, 730.000000)">
			<g id="Artboard_330_" transform="translate(0.495177, 0.000000)">
				<path id="Path_27_" class="st75" d="M146.6,199c-0.5-0.5-0.9-0.9-1.3-1.5c-0.4-1.4-0.3-2.9,0.4-4.2c0.4-0.3,0.8,0,1.6,0.8
					c0-0.5,0.1-1,0.4-1.5c0.4-0.6,2.3,1.5,3.7,3.4c1-0.4,2.1-0.7,3.2-0.9c11.3-2.1,22.7-3.4,34.1-3.8c5.2-0.6,10.5,0.8,14.7,3.8
					c0.3,0.2,3.3,3.3,5,3c1.7-0.3,2.6-0.5,1.4,0.3c-1.4,0.7-3.1,0.7-4.6,0c0.6,1.5,1,3.1,1.2,4.8c0.5,6.4-3.4,9.2-1.5,11.2
					c2.5,2.5-0.6,3.7-0.4,6c0.2,2.3,0,2.6-0.5,2.6c-0.5-0.1-1.1-0.2-1.6,1.3c-0.1,0.4-0.3,0.8-0.6,1.1H199c-0.3,0-0.6-0.3-0.6-0.6
					c-0.1-0.1-0.1-0.3,0-0.4c1.3-1.6,2.3-3.5,2.7-5.5c0.2-2.5-1-4.9-3.2-6.2h-0.6c0.4,1.1,0.1,2.4-0.8,3.2c-0.7,2.1-1.1,4.4-1,6.7
					c0,0.6-1.2-0.3-1.3,0.5c-0.1,0.8-0.4,1.6-0.7,2.4h-2.9c-0.3,0-0.5-0.2-0.5-0.5c0-0.1,0-0.2,0-0.3c0.8-1,1.5-2.2,2-3.4
					c0.6-2.1,0.3-4.4-0.9-6.3l-0.7-0.6c-0.6,0.2-1.2,0.4-1.7,0.6c-0.7,0.2-1.5,0.4-2.4,0.8c-5.2,1.4-10.8,1-15.8-1
					c-0.3,1.7-0.5,3.4-0.6,5.1c0.3,1.3,0.3,2.6,0,3.9c-0.3,0.3-0.8,0-0.9,0c0,0.2,0,0.5,0,0.8c-0.1,0.4-0.3,0.7-0.5,1
					c-2.1,0.2-3.3,0.2-3.6,0c-0.5-0.3,0-0.6,0.3-0.8c0.7-0.7,1.2-1.5,1.4-2.4c0.3-2.6-0.2-5.2-1.4-7.5c-0.9,2.4-1.6,4.8-2.2,7.3
					c0,0.6-0.2,1.1-0.5,1.6c0,0-0.3,0-0.4,0c-0.1,0-0.5,0.3-0.4,1c-0.1,0.4-0.2,0.8-0.5,1.2h-3.1c-0.5,0-1.2-0.2-1.2-0.7
					c-0.1-0.2,0.3-0.5,0.3-0.7c0.8-0.9,1.5-2,1.9-3.2c0.4-2.5,0.3-5.1-0.3-7.7c-4.2,0-5.8-2.4-8.4-2.6c-1.4,0-3.3,0-4.8-0.3
					c-3.7-0.8-6.3-1.2-6.8-2.6c-0.2-0.7-1.6-0.8-1.4-0.8c-0.4-2.5-0.4-3.8,0-3.8c2.5,0.5,5.1-0.3,6.8-2.2
					C145,200.5,145.8,199.7,146.6,199z"/>
			</g>
		</g>
	</g>
</g>
<rect x="436.9" y="38.3" class="st81" width="152.2" height="80.6"/>
<text transform="matrix(1 0 0 1 436.9307 68.691)" class="st31 st82 st83">1 kg of </text>
<rect x="412.5" y="221.9" class="st81" width="195.7" height="83.2"/>
<text transform="matrix(1 0 0 1 424.178 240.096)"><tspan x="0" y="0" class="st31 st82 st84">produces 60 kg </tspan><tspan x="-5.9" y="28" class="st76 st82 st84">CO-Equivalents</tspan></text>
<rect x="239.6" y="234.8" class="st81" width="124.2" height="83.2"/>
<text transform="matrix(1 0 0 1 255.0735 244.6677)"><tspan x="0" y="0" class="st31 st82 st85">produces 24 kg </tspan><tspan x="-3.2" y="24" class="st76 st82 st85">CO-Equivalents</tspan></text>
<rect x="264.8" y="118.8" class="st81" width="94.1" height="35.5"/>
<text transform="matrix(1 0 0 1 264.7877 137.0477)" class="st31 st82 st84">1 kg of </text>
<rect x="130.4" y="244.2" class="st81" width="89.5" height="36.6"/>
<text transform="matrix(1 0 0 1 142.2443 251.7681)"><tspan x="0" y="0" class="st31 st82 st86">produces 7 kg </tspan><tspan x="-5.5" y="17" class="st76 st82 st86">CO-Equivalents</tspan></text>
<rect x="29.4" y="246.6" class="st81" width="97.8" height="50"/>
<text transform="matrix(1 0 0 1 48.685 253.4814)"><tspan x="0" y="0" class="st31 st82 st87">produces 6 kg </tspan><tspan x="-4.9" y="15" class="st76 st82 st87">CO-Equivalents</tspan></text>
<rect x="146.7" y="158.7" class="st81" width="94.1" height="35.5"/>
<text transform="matrix(1 0 0 1 146.739 173.0932)" class="st31 st82 st88">1 kg of </text>
<rect x="54" y="167.1" class="st81" width="94.1" height="35.5"/>
<text transform="matrix(1 0 0 1 53.9946 180.8291)" class="st31 st82 st89">1 kg of </text>
<rect x="475.6" y="75.6" transform="matrix(-1 -1.224647e-16 1.224647e-16 -1 956.999 287.655)" class="st46" width="5.7" height="136.4"/>
<rect x="287.5" y="149.4" class="st46" width="4.3" height="64.4"/>
<polygon class="st46" points="169,225.7 164.4,225.6 164.4,184.9 168.7,184.9 "/>
<polygon class="st46" points="74.6,220.5 70.9,216.7 70.9,195.9 74.6,195.9 "/>
<rect x="475.3" y="74.2" transform="matrix(-1 -1.224647e-16 1.224647e-16 -1 956.655 169.0889)" class="st76" width="6.1" height="20.8"/>
<rect x="287.5" y="144.8" class="st77" width="4.3" height="17.4"/>
<polygon class="st75" points="168.6,193.2 164.4,193.5 164.4,178.2 168.6,178.2 "/>
<polygon class="st49" points="74.6,203 70.9,198.3 70.9,187.5 74.6,187.5 "/>
</svg>
