<svg id="Ebene_1" data-name="Ebene 1" xmlns="http://www.w3.org/2000/svg" viewBox="0 0 1366 768"><defs><style>.cls-1,.cls-10{fill:#5c6a7d;}.cls-2,.cls-9{fill:#36485e;}.cls-11,.cls-3{fill:#253854;}.cls-3,.cls-4{fill-rule:evenodd;}.cls-4,.cls-5{fill:#1c2a40;}.cls-10,.cls-11,.cls-5,.cls-9{font-size:21.73px;font-family:Roboto-Medium, Roboto;font-weight:500;}.cls-6{font-family:Roboto-Light, Roboto;font-weight:300;}.cls-7{letter-spacing:-0.01em;}.cls-8{letter-spacing:-0.01em;}</style></defs><title>tiere03</title><g id="Page-1"><g id="Artboard"><path id="Shape" class="cls-1" d="M254.48,259.27c2.39-8.28-6.32-6.09-6.32-6.09,2.6-7.2-8.95-5.22-15.26,4.16s-17.19,19.86-34.4,21.84-28.54,6.14-38.37-7.79C150,251.82,137.24,248.54,133.25,248l-.18-.35c.32,0,3.39-2.42,1.63-4.87s-4.78-.2-5.59-.32-.76-2.95-3.7-2.84-1.85,2.92-2.83,3.18-5.57-1.34-7.51,1.91,1.83,6.62,2,7.1c.4,1.5-1,3.95-1,3.95-5.39,4.26-6.23,11.17-6.23,11.17a24.47,24.47,0,0,1,8.19-2.67c-3.2,6.52-1.11,9.47.91,9.27,2.21-.21,2.72-2,2.52-4.06l.3.46c-.11,3.38-1.88,13.63,0,24.71,2,11.53,7.8,24.06,14.49,36.49,5.1,9.49,12.49,19.39,19.56,25.61,6.91,6.08,13.55,8.59,14.65,8.8.65.12,1.43.23,2.29.32-.9,2.84-3.28,10.31-4.2,13.07-1.14,3.43-9.82,6.88-13.71,7.57s-3.66.69-5.49,1.38-3,1.6-.91,1.6,8-.47,9.15-.47-7.08,4-5.49,4.58,6.63-2.75,14-5.51,9.84.9,12.35,2c2.33,1.06,4.58.68,2.75-.92s-3.21-3-3.21-3c1.83-1.83,5.72-2.29,8.69-1.38s8.24,3,7.1.45-8-1.82-8-4.79,1.81-11.67,3.18-13.73a6.88,6.88,0,0,1,3-2.22,48.51,48.51,0,0,0,9-3c9.77-2.3,15.66-8.28,25.51-24.07,3.47-5.56,11.29-16.58,16.35-25.4a64.79,64.79,0,0,0,4.7-10.74c12.42-5.25,4.13-13.3,4.13-13.3,11.54-7.86,1.07-12.43,1.07-12.43,11.11-1.1,4.13-9.16,4.13-9.16C263,261.22,254.48,259.27,254.48,259.27ZM177.74,381.19c-3.88,2.93-5.26.69-3.89-3.42a112,112,0,0,1,5.34-11.68c1.41,0,2.91-.1,4.46-.24C183.54,369.29,182.72,377.45,177.74,381.19Z"/></g></g><g id="Page-1-2" data-name="Page-1"><g id="Artboard-2" data-name="Artboard"><path id="Path" class="cls-2" d="M402.26,291.35a54.72,54.72,0,0,1,7.45-7.4,53.85,53.85,0,0,1-4.35-4.74c-1.7-3.09-.52-12.12,1.41-13.56,1.2-.95,2.65.47,5.07,2.37a8.29,8.29,0,0,1,1.19-4.76c1.2-1.91,7.25,4.73,12.1,10.9a40.85,40.85,0,0,1,10.12-2.88c10.85-1.46,62.2-12.06,110-12.2,21.95-.06,35,2.75,47.56,12.47,1,.71,10.64,10.43,16.19,9.7,3.61-.49,8.37-1.46,4.51.92-4.57,2.87-10.29,1.37-14.63-.29,1,3.33,3.88,11.28,3.89,15.32,1.51,20.44-11,29.75-5,35.92,8.22,8.06-1.9,11.89-1.4,19.26.5,5.94.51,8.56-1.42,8.33-3.62-.71-3.62-.71-5.3,4.29a9.32,9.32,0,0,1-1.89,3.57l-9,0a2,2,0,0,1-1.59-3.3h0c3.34-4.15,7.17-9.44,8.87-17.65s-3.94-14.73-10.23-19.94h-1.89c.49,3.09,1.22,5.46-2.63,10.23-2.64,3.1-2.84,16.41-3.31,21.41-.24,1.9-3.87-.94-4.1,1.43a35.2,35.2,0,0,1-2.22,7.62l-9.81,0a1.8,1.8,0,0,1-1.48-2.82h0c2.61-3.74,5.61-7.46,6.5-11,2.38-9,.2-14.74-3-20.2l-2.23-2.08a49.31,49.31,0,0,0-5.49,1.86c-2.41.72-5.06,1.44-7.71,2.4-12.53,4.08-30.34,4.13-51.1-3.18-.95,6.18-2.18,14-1.93,16.41.5,2.43,1.11,11.38,0,12.6-1,1-2.41-.23-2.89.49a7,7,0,0,1-.48,2.38,13.28,13.28,0,0,1-1.79,3.33l-12.76,0a.43.43,0,0,1-.43-.43.41.41,0,0,1,.09-.26c.57-.75,1.26-1.64,2.07-2.65,1.68-2.1,4.24-5,4.6-7.62,1.19-7.61-.57-16.88-4.69-24.24A234.22,234.22,0,0,0,462.24,357c-.16,1.5-.78,4.31-1.71,5.17-.34.32-1.14-.22-1.38-.33-.91-.39-1.45,1.2-1.44,3.34a10.54,10.54,0,0,1-1.35,3.81l-9.92,0a2.67,2.67,0,0,1-2.69-2.67,2.72,2.72,0,0,1,.56-1.65h0c2.34-3,5.17-6.26,6.13-10.19.95-4.28,1.37-15.16-.83-24.66-13.27,0-18.91-7.67-26.39-8.36-4.59-.47-10.76.11-15.35-.83-11.83-2.34-20.26-3.78-22-8.29-.73-2.14-5.31-2.37-4.59-2.37q-2.16-12.12,0-12.12C383.42,297.82,394.56,300.17,402.26,291.35Z"/></g></g><g id="Page-1-3" data-name="Page-1"><g id="Artboard-3" data-name="Artboard"><g id="Sheep"><path id="Path-2" data-name="Path" class="cls-3" d="M920.77,326.71l0,14.05a19.94,19.94,0,0,1-1.07,5.25,52.46,52.46,0,0,1-3.91,7c-2.12,2.46-.72,4.22-.36,6a19.69,19.69,0,0,1,1,6.33l0,19.67c0,1,0,2.12-1.06,2.12-.71,0-1,1.39-.72,4.18l-9.55,0a18.72,18.72,0,0,1,.91-3.2,5.74,5.74,0,0,1,2.28-2.74c1.06-.36.35-1.41.35-1.41-.33-6-1-12-1.72-17.91a5.4,5.4,0,0,0-1.76-3.87c-1.77-1.41-5-3.52-5-3.52s-1.06-1-1.77-.37c-.7.36-.7,1.07-.7,1.78-.37.68-2.52,13.33-2.52,13.33s-2.14,9.12-2.49,10.19-.36,1-1.41,1c-1.08.36-1.78,0-2.14,1s-.7,2.83-.7,2.83v2.79l-8.21,0a6,6,0,0,1,.27-2.78c.46-1.37,3-3.15,3.34-3.51v-1.06c.73-3.87,1.43-8.08,2.52-12.28,0-4.21-.32-8.79,0-13.36s.71-7.36-4.6-10.18c-4.59-2.11-6.36,0-9.9.69a140.33,140.33,0,0,1-31.15,3.46c-16.63,0-18.4-2.16-21.58-1.46-2.12.71-3.91,3.51-6,5.61A7.86,7.86,0,0,0,811,362c0,1.05,1.4,8.43,1.74,9.82,1.07,3.16,1.76,11.91,1,12.27s-2.83,0-2.83,1.41l0,5.62-9.58,0a9.64,9.64,0,0,1,.36-2.79,28.77,28.77,0,0,1,2.87-6,2.6,2.6,0,0,0,.36-2.1,40,40,0,0,0-.34-5.62c0-1.06-1.41-7.36-1.76-8.78-.71-1.42-1.76-5.28-3.16-7a16.38,16.38,0,0,0-3.54-2.09c-.73,6.65.33,26,.32,27.73,0,1.41-1.41,2.1-2.12,2.46-1.06.36-1.08,2.45-1.44,4.19l-9.56,0a10.08,10.08,0,0,1,0-3.5,14.61,14.61,0,0,1,1.1-2.79s3.07-4.72,3.07-5.06c.37-.35.37-1.4.38-1.76-.37,0-2.38-17.06-2.37-17.77s-.7-5.62-2.11-7.38-4.23-2.82-5.66-3.51c-1.06-.71-6.71-4.24-8.13-6.34a57.76,57.76,0,0,1-7-11.26c-1.78-4.21-5.29-12.64-6.34-16.85s-3.18-11.93-3.17-14.38c-.35-2.49-1.05-9.5-1-10.92s-.71-3.5-1.76-4.2a5.08,5.08,0,0,0-4.23-.66c-1.87.48-13.56,4.12-16,4.12s-3.24-1.9-4.29-2.24-2.83-.49-3.7-1.28a4.37,4.37,0,0,1-1.19-3.15,21.49,21.49,0,0,1,1.43-5.62,76.22,76.22,0,0,1,7.46-9.81A82.16,82.16,0,0,1,739,256.52a65.76,65.76,0,0,1,8.08-6c3-1.67,4-1.72,6.8-2.42a38,38,0,0,1,3.84-.82s.09-1.12,1.83-3.37a18.5,18.5,0,0,1,4.24-4.2c1.43-1.05,3.21-1.75,4.26-1,1.06,1.05.94,2.71.22,4.47s-1.29,3.58-1.29,3.58,10.25,6,12.72,7.76c8.12,5.27,13.77,13.35,18.37,14.07s7.07.37,10.26.38c21.22-1,65.82-3.05,71.84-3,6.38,0,12.38-.33,15.92.76C899.64,268,911,271.94,917,280c6,7.76,9.52,16.17,9.14,22.84-.7,6.65-2.48,8.77-2.84,10.18s-2.13,3.5-2.14,7.72Z"/></g></g></g><g id="Page-1-4" data-name="Page-1"><g id="Artboard-4" data-name="Artboard"><path id="Combined-Shape" class="cls-4" d="M1053.26,216c1.06,0-.34,1.16,1.93,3.71,1,1.17,4,3,6,4.48a12,12,0,0,1,3.17,3.39c.65,1-.29,3,0,3.17.44,0,.72-.28,1.9-1.05a13,13,0,0,1,5.89-2.3c2.91-.29,5.83.82,6,1.21.49.49-1,3.71-3.2,5.75-1.29,1.19-3.74,1.47-3.74,1.89,0,.78.39,1.17,2.3,1.17,1.43.29,7.43,1.12,12,1.55l3.22.24,1,0a2.24,2.24,0,0,1,.46,0h0c1,.06,2,.09,2.76.09,10.85.44,33.75,1.77,41.68,2.64,7.48.84,17.5,2.13,25.39,3a158.5,158.5,0,0,0,19.6.89c7.08,0,25-.73,30.42-2,7.93-.8,17.91-1.17,22.51-1.57s12.09-.79,15.42,1.3c3.73,2.09,8.73,5.68,10.78,9.43a65.32,65.32,0,0,1,4.4,13.06,136.65,136.65,0,0,1,1.69,15.65c.39,8.25.06,18.31.78,22.49,0,.24,3.22,3.22,5.07,6.85,1,1.88,2.27,8.28,2,13.07-.32,5.7-2.14,12.8-2.58,11.19s-3.12-5-5.44-9.56a52.76,52.76,0,0,1-3.66-9.9,16.31,16.31,0,0,1,0-5.76c.44-2.21,1.49-4.67,1.29-5.5-.41-2.07-1.23-10.37-1.23-12.45s-1.16-19.91-1.57-22c-.4-2.48-3.29-10.12-2-6.56s0,12.78-.06,15.69l0,14.93c-.43,2.9.36,9.53-1.3,12.44a46.64,46.64,0,0,1-2.52,4.54q-1.26,2.07-.84,2.07c.42,0,5.39,5.42,6.65,6.66a7.11,7.11,0,0,1,1.22,6.24c-1.25,2.9-3,18.24-3,21.55s.36,14.52.36,15.35c0,1.25.41,2.06.41,2.9-.42.41-3.48,3.85-3.69,6.22a39.49,39.49,0,0,0,.41,6.7l-17.17-.06a21.62,21.62,0,0,1,1.48-4.62,15.67,15.67,0,0,1,3.53-4.14c1.27-1.65,3-10.36,3-17.82,0-7.06-2.42-17.43-7.81-24.09-8,14.49-10.12,27.76-9.72,36.47-3.34.39-5,2.46-6.27,5.36a24.81,24.81,0,0,0-1.1,4.15l-15-.05a16.59,16.59,0,0,1,1.69-4.15c5-7.62,9.15-12.24,9.87-13.66a31.8,31.8,0,0,0,2.53-9.93v-.16c0-2.59,0-8.56-2.88-9-.85-.21-.61,4.15-2.31,4.14s-1.35-3.27-3-3.05-1,2.74-2.75,2.73c-2.16-.41-1.06-2.69-2.54-3a2.1,2.1,0,0,0-1.79.27c-.75.56-.39,1.62-2,1.62s-2.17-2.7-2.17-3.38c-5-2.93-8-5.61-8.78-6.86-1.27-1.25-4.59-5-4.59-5-5.83.4-12.08.78-14.15.77-2.5,0-8.75-.44-11.25-.44-2.91,0-5.83.38-9.17.37a48.87,48.87,0,0,1-9.16-1.27,3.58,3.58,0,0,0-2.92,0c-1.68.41-4.62,7-4.63,9.1l0,4.56c.43.84,2.48,5.42,2.47,6.65s-2.08,2.49-2.93,4.14c-.82,2.07-3.36,5.8-3,10.35,0,4.16.82,5.81.82,8.31,0,1.24.6,3.73-1.5,3.73-.76.15-2.26,1.48-3.15,3.3a13.87,13.87,0,0,0-1,4.56l-14.41-.05c.58-2.49,1.44-4.14,2.56-5,2.09-1.24,2.92-1.23,3.35-2.89.82-2.06,2.1-7.87,2.53-9.53.42-2.07.86-9.95.87-11.61a46.7,46.7,0,0,0-.38-7.47c-.83-1.66-1.66-6.64-1.66-6.64-.85,4.57-3.39,12.85-4.2,13.26a5.59,5.59,0,0,0-2.53,2.9c-.4.83-1.26,7.87-2.11,10.36-.44,2.07-.88,9.94-1.29,10.77-.83.41-2.51.4-3.33,1.23q-1.26.82-1.69,4.56l-13.74-.05a10,10,0,0,1,1.83-3.32c2-2,4-3.13,4.44-3.7.4-1.26,3.34-6.62,3.76-8.29s3.82-13.67,3.82-15.33-.83-3.33-1.23-5.4c0-2.06-.37-8.59-.37-11.12v-.2c0-2,0-2.78-2.09-2.79h-.28a19.66,19.66,0,0,1-5.12-.44,23.25,23.25,0,0,1-4.57-4.58c-1.67-3.32-2.89-5.39-3.31-6.63-.41-1.67-3.3-10-4.55-13.3-1.64-2.91-5.78-10.39-7.85-13.3-2.07-2.47-5.73-6.57-7.83-8.67h0l-.09-.08a32.67,32.67,0,0,0-3.38-3.76c-1.91-1.93-4.21-2.33-6.52-3.1-2.32-.4-6.19.36-9.28,0-3.49-.78-6.57-1.18-8.48-2s-6.17-2.72-8.1-3.1-6.56.35-7.34-.41a23.58,23.58,0,0,1-1.91-3.09c-.78-1.55-3.07-5.4-1.89-6.94,1.93-2.3,13.94-13,15.47-14.57a109.45,109.45,0,0,1,9.31-9.22c1.17-1.15,7.2-4.2,5.81-4.21a13.25,13.25,0,0,1-7.89-4.35c-2.52-3.31-1.45-7.67-.86-7.67s.74,3.08,3,5c1.29,1.08,5.16,2.07,6.59,2.08a12.22,12.22,0,0,1,2.43.23c.7,0-1.14-.47-2.27-2.84C1051.54,220.76,1052,216,1053.26,216Z"/></g></g><text class="cls-5" transform="translate(1053.23 525.3)">Cattle: <tspan class="cls-6"><tspan x="0" y="26.07">cattle and cow of all ages, </tspan><tspan x="0" y="52.14">bred for meat p</tspan><tspan class="cls-7" x="146.29" y="52.14">r</tspan><tspan x="153.39" y="52.14">oduction,</tspan><tspan x="0" y="78.21">e</tspan><tspan class="cls-8" x="11.22" y="78.21">x</tspan><tspan x="21.58" y="78.21">cluded are dairy cows</tspan></tspan></text><text class="cls-9" transform="translate(435.49 525.3)">Pig:  <tspan class="cls-6"><tspan x="0" y="26.07">representing pork</tspan></tspan></text><text class="cls-10" transform="translate(94.06 525.3)">Chicken: <tspan class="cls-6"><tspan x="0" y="26.07">used as an umbrella term </tspan><tspan x="0" y="52.14">for poultry: chicken, duck, </tspan><tspan x="0" y="78.21">turkey and geese</tspan></tspan></text><text class="cls-11" transform="translate(738.92 525.3)">Sheep: <tspan class="cls-6"><tspan x="0" y="26.07">includes goats and sheep </tspan><tspan x="0" y="52.14">of all ages, </tspan><tspan x="0" y="78.21">as these are very often </tspan><tspan x="0" y="104.28">combined in the statistics.</tspan></tspan></text></svg>