<svg id="Ebene_1" data-name="Ebene 1" xmlns="http://www.w3.org/2000/svg" viewBox="0 0 1366 768"><defs><style>.cls-1,.cls-9{fill:#5c6a7d;}.cls-2,.cls-8{fill:#36485e;}.cls-10,.cls-3{fill:#253854;}.cls-3,.cls-4{fill-rule:evenodd;}.cls-4,.cls-5{fill:#1c2a40;}.cls-10,.cls-5,.cls-8,.cls-9{font-size:19.18px;font-family:Roboto-Medium, Roboto;font-weight:500;}.cls-6{font-family:Roboto-Light, Roboto;font-weight:300;}.cls-7{letter-spacing:-0.01em;}</style></defs><title>tiere01</title><g id="Page-1"><g id="Artboard"><path id="Shape" class="cls-1" d="M254.9,356.12c1.79-6.21-4.74-4.57-4.74-4.57,2-5.39-6.71-3.91-11.44,3.12S225.84,369.55,212.94,371s-21.39,4.6-28.76-5.84C176.55,350.53,167,348.08,164,347.67l-.13-.27c.24,0,2.54-1.81,1.22-3.65s-3.58-.15-4.19-.24-.57-2.21-2.77-2.12-1.39,2.18-2.12,2.37-4.18-1-5.63,1.44,1.37,5,1.46,5.32c.3,1.12-.7,3-.7,3a13.79,13.79,0,0,0-4.67,8.37,18.41,18.41,0,0,1,6.13-2c-2.4,4.88-.83,7.1.69,6.95s2-1.49,1.89-3.05l.22.35c-.09,2.53-1.41,10.21,0,18.52,1.49,8.64,5.84,18,10.85,27.35,3.83,7.11,9.37,14.53,14.67,19.19a31.72,31.72,0,0,0,11,6.6c.49.09,1.07.17,1.72.24-.68,2.12-2.46,7.73-3.15,9.79-.85,2.58-7.36,5.16-10.28,5.68a14.58,14.58,0,0,0-4.11,1c-1.37.52-2.23,1.2-.68,1.2s6-.35,6.85-.35-5.3,3-4.11,3.43,5-2.06,10.46-4.13,7.37.68,9.26,1.53,3.43.51,2.05-.68-2.4-2.23-2.4-2.23c1.37-1.38,4.28-1.72,6.51-1s6.18,2.22,5.32.34-6-1.37-6-3.59,1.35-8.75,2.38-10.29a5.26,5.26,0,0,1,2.28-1.67,36.49,36.49,0,0,0,6.77-2.23c7.32-1.73,11.73-6.21,19.12-18,2.6-4.17,8.46-12.43,12.26-19a48.63,48.63,0,0,0,3.52-8.06c9.3-3.93,3.09-10,3.09-10,8.65-5.9.8-9.32.8-9.32,8.33-.82,3.1-6.86,3.1-6.86C261.27,357.58,254.9,356.12,254.9,356.12ZM197.38,447.5c-2.91,2.19-3.94.52-2.92-2.57a83.93,83.93,0,0,1,4-8.75c1.05,0,2.17-.07,3.34-.18C201.72,438.58,201.11,444.69,197.38,447.5Z"/></g></g><g id="Page-1-2" data-name="Page-1"><g id="Artboard-2" data-name="Artboard"><path id="Path" class="cls-2" d="M266.57,324.52a89.34,89.34,0,0,1,12.21-12.11,87.7,87.7,0,0,1-7.13-7.76c-2.78-5.06-.85-19.86,2.31-22.2,2-1.56,4.34.77,8.3,3.87a13.51,13.51,0,0,1,1.95-7.79c2-3.12,11.88,7.75,19.8,17.85a66.7,66.7,0,0,1,16.58-4.72c17.77-2.38,101.85-19.75,180.05-20,36-.11,57.29,4.51,77.87,20.41,1.59,1.16,17.43,17.08,26.51,15.89,5.92-.8,13.7-2.4,7.39,1.51-7.49,4.69-16.84,2.23-24-.48,1.6,5.45,6.36,18.46,6.38,25.08,2.46,33.47-18,48.71-8.13,58.81,13.46,13.2-3.11,19.47-2.28,31.54.81,9.73.83,14-2.33,13.63-5.93-1.15-5.93-1.15-8.67,7q-.28,2-3.11,5.85l-14.81,0a3.32,3.32,0,0,1-2.6-5.4h0c5.46-6.79,11.74-15.45,14.51-28.89,2.73-13.24-6.45-24.12-16.74-32.65h-3.1c.8,5.06,2,8.95-4.3,16.76-4.33,5.07-4.66,26.87-5.43,35.05-.38,3.12-6.32-1.54-6.71,2.35a57.34,57.34,0,0,1-3.63,12.47l-16.07.05a2.94,2.94,0,0,1-2.41-4.62h0c4.27-6.11,9.18-12.21,10.63-18,3.91-14.81.33-24.14-4.83-33.08l-3.67-3.41a80.14,80.14,0,0,0-9,3.05c-3.95,1.18-8.29,2.36-12.63,3.93-20.52,6.68-49.67,6.76-83.68-5.21-1.55,10.13-3.56,23-3.16,26.87.82,4,1.83,18.64.06,20.63-1.57,1.57-3.95-.37-4.73.8a11.53,11.53,0,0,1-.78,3.89,22.36,22.36,0,0,1-2.93,5.46l-20.91.06a.7.7,0,0,1-.7-.7.66.66,0,0,1,.15-.42c.94-1.24,2.07-2.68,3.39-4.34,2.76-3.44,6.95-8.18,7.53-12.48,1.94-12.46-.92-27.64-7.67-39.69-5.88,16.37-11.18,37-11.34,38.45-.26,2.45-1.27,7.05-2.8,8.47-.55.52-1.87-.37-2.26-.54-1.48-.64-2.37,1.95-2.36,5.45q0,1.82-2.21,6.24l-16.24.05a4.4,4.4,0,0,1-3.48-7.09h0c3.83-4.93,8.46-10.24,10-16.68,1.56-7,2.24-24.81-1.36-40.38-21.72.07-31-12.55-43.21-13.69-7.51-.75-17.62.19-25.13-1.34-19.36-3.84-33.17-6.2-35.95-13.59-1.2-3.5-8.7-3.87-7.52-3.87q-3.54-19.85,0-19.86C235.73,335.11,254,339,266.57,324.52Z"/></g></g><g id="Page-1-3" data-name="Page-1"><g id="Artboard-3" data-name="Artboard"><g id="Sheep"><path id="Path-2" data-name="Path" class="cls-3" d="M840.57,368.83l0,20.86a29.54,29.54,0,0,1-1.59,7.8c-.52,1.59-3.17,6.24-5.8,10.41-3.15,3.65-1.07,6.27-.54,8.85a29.7,29.7,0,0,1,1.54,9.4l-.06,29.21c0,1.57,0,3.16-1.56,3.15q-1.59,0-1.08,6.22l-14.17,0a26.68,26.68,0,0,1,1.34-4.75,8.41,8.41,0,0,1,3.4-4.07c1.57-.54.51-2.1.51-2.1C822,444.92,821,436,820,427.18c0,0,0-3.66-2.61-5.74S810,416.2,810,416.2s-1.58-1.54-2.63-.54c-1,.53-1,1.58-1,2.64-.54,1-3.73,19.8-3.73,19.8s-3.18,13.54-3.7,15.13-.54,1.53-2.1,1.52c-1.6.54-2.64,0-3.18,1.56s-1,4.2-1,4.2v4.14l-12.2,0a9,9,0,0,1,.4-4.14c.68-2,4.46-4.68,5-5.22v-1.56c1.07-5.76,2.12-12,3.74-18.25,0-6.24-.48-13,0-19.84s1.05-10.92-6.83-15.11c-6.82-3.14-9.46,0-14.71,1-5.79,1-21.57,5.18-46.27,5.13s-27.32-3.2-32-2.16c-3.15,1.05-5.8,5.22-9,8.33a11.67,11.67,0,0,0-3.16,8.34c0,1.57,2.08,12.53,2.59,14.6,1.58,4.69,2.61,17.69,1.55,18.22s-4.2.05-4.21,2.1v8.35l-14.24,0a14.51,14.51,0,0,1,.53-4.14,42,42,0,0,1,4.28-8.87c1-2.1.52-2.61.52-3.12,0,0,0-6.28-.5-8.35,0-1.56-2.1-10.93-2.61-13-1.06-2.1-2.62-7.84-4.7-10.45a24.2,24.2,0,0,0-5.26-3.1c-1.08,9.87.49,38.57.48,41.18,0,2.1-2.1,3.12-3.15,3.66-1.58.53-1.6,3.63-2.13,6.21l-14.21,0a14.56,14.56,0,0,1,0-5.2,21.52,21.52,0,0,1,1.63-4.14s4.56-7,4.56-7.52c.55-.51.55-2.07.55-2.61-.54,0-3.52-25.34-3.52-26.39s-1-8.35-3.12-11-6.29-4.19-8.41-5.22c-1.57-1.05-10-6.29-12.07-9.41a85.42,85.42,0,0,1-10.47-16.72c-2.63-6.25-7.85-18.78-9.41-25s-4.72-17.73-4.71-21.36c-.51-3.7-1.55-14.12-1.54-16.21s-1.05-5.2-2.61-6.25c-2.1-1.06-3.5-1.7-6.28-1s-20.15,6.13-23.71,6.12-4.8-2.81-6.38-3.32-4.19-.72-5.48-1.9a6.46,6.46,0,0,1-1.77-4.68,31.58,31.58,0,0,1,2.12-8.34c2.63-4.17,8.42-12,11.07-14.57,2.11-3.15,11.06-13,13.68-15.08s7.62-6.43,12-8.91,5.89-2.55,10.1-3.59,5.7-1.23,5.7-1.23.13-1.65,2.72-5a27.66,27.66,0,0,1,6.3-6.23c2.12-1.56,4.76-2.6,6.33-1.55,1.57,1.56,1.38,4,.32,6.64s-1.92,5.31-1.92,5.31,15.22,8.91,18.9,11.53c12.06,7.83,20.45,19.83,27.28,20.89s10.5.57,15.24.57c31.52-1.52,97.76-4.52,106.7-4.5,9.47,0,18.39-.51,23.64,1.12,5.26,2.05,22.07,7.85,31,19.84,8.9,11.52,14.14,24,13.58,33.93-1,9.87-3.69,13-4.22,15.12s-3.17,5.19-3.18,11.46Z"/></g></g></g><g id="Page-1-4" data-name="Page-1"><g id="Artboard-4" data-name="Artboard"><path id="Combined-Shape" class="cls-4" d="M772.38,119.44c2.2,0-.71,2.42,4,7.74,2.16,2.44,8.33,6.19,12.42,9.34a24.86,24.86,0,0,1,6.61,7c1.35,2.21-.61,6.32,0,6.61.91,0,1.49-.58,4-2.18a27.39,27.39,0,0,1,12.28-4.8c6.06-.6,12.15,1.7,12.56,2.53,1,1-2.07,7.73-6.66,12-2.68,2.48-7.8,3.07-7.8,3.95,0,1.61.82,2.42,4.81,2.44,3,.6,15.48,2.33,25.12,3.22,2.26.19,4.54.36,6.71.5.78,0,1.5.06,2.12.06a5.75,5.75,0,0,1,1,.11h0c2.18.11,4.15.18,5.76.18,22.62.92,70.35,3.7,86.89,5.49,15.6,1.77,36.47,4.45,52.93,6.25s25.21,1.8,40.85,1.85c14.78.06,52.13-1.52,63.43-4.08,16.52-1.67,37.33-2.45,46.92-3.28s25.2-1.64,32.13,2.72c7.78,4.34,18.21,11.84,22.49,19.64,4.32,8.65,8.23,22.41,9.16,27.24a284.64,284.64,0,0,1,3.53,32.62c.8,17.21.12,38.16,1.62,46.87.08.51,6.73,6.72,10.57,14.28,2,3.93,4.74,17.27,4.19,27.26-.66,11.89-4.45,26.68-5.38,23.32s-6.49-10.32-11.33-19.92c-3.91-7.75-7.3-18.49-7.64-20.65a34.11,34.11,0,0,1,.05-12c.9-4.62,3.11-9.75,2.68-11.47-.86-4.32-2.56-21.62-2.55-26s-2.42-41.5-3.27-45.84c-.86-5.16-6.88-21.1-4.29-13.67s-.1,26.65-.12,32.7l-.11,31.12c-.89,6.05.75,19.87-2.71,25.94a95.46,95.46,0,0,1-5.24,9.47q-2.62,4.31-1.75,4.31c.87,0,11.22,11.3,13.85,13.88,1.73,2.61,4.29,7,2.55,13-2.62,6-6.24,38-6.27,44.92s.77,30.26.76,32c0,2.6.86,4.31.85,6.05-.87.86-7.24,8-7.69,13q-.33,3.64.86,14l-35.8-.13a46.08,46.08,0,0,1,3.09-9.64c2.41-4.52,5.9-7.18,7.36-8.64,2.66-3.43,6.16-21.58,6.22-37.14,0-14.71-5.06-36.33-16.29-50.21-16.65,30.2-21.09,57.86-20.26,76-7,.81-10.44,5.14-13.07,11.18q-.65,1.13-2.3,8.65l-31.24-.11a34.2,34.2,0,0,1,3.53-8.64c10.38-15.88,19.08-25.52,20.57-28.47,2.58-5.15,5.26-16.4,5.28-20.72V391c0-5.4-.06-17.85-6-18.74-1.78-.45-1.27,8.65-4.81,8.63s-2.83-6.82-6.26-6.36-2,5.71-5.73,5.69c-4.52-.85-2.22-5.61-5.3-6.3a4.42,4.42,0,0,0-3.74.56c-1.56,1.18-.8,3.39-4.26,3.38s-4.53-5.63-4.52-7.05c-10.42-6.1-16.59-11.68-18.32-14.29-2.63-2.61-9.55-10.41-9.55-10.41-12.17.83-25.2,1.63-29.51,1.61-5.2,0-18.24-.91-23.44-.93-6.08,0-12.17.8-19.12.78A101.31,101.31,0,0,1,960.6,345a7.41,7.41,0,0,0-6.08,0c-3.52.85-9.65,14.65-9.66,19l0,9.51c.89,1.74,5.17,11.28,5.16,13.85s-4.34,5.19-6.11,8.64c-1.71,4.31-7,12.08-6.17,21.58,0,8.66,1.73,12.1,1.71,17.31,0,2.58,1.27,7.79-3.12,7.77-1.58.31-4.7,3.08-6.57,6.88-1,2.07-1.73,5.24-2.13,9.51l-30-.11q1.82-7.77,5.33-10.34c4.35-2.59,6.09-2.58,7-6,1.71-4.31,4.39-16.42,5.27-19.87.89-4.31,1.8-20.75,1.81-24.2,0-4.34,0-11.26-.79-15.57-1.73-3.47-3.46-13.85-3.46-13.85-1.76,9.52-7.05,26.78-8.75,27.64-2.62,1.73-4.39,3.43-5.27,6-.83,1.73-2.63,16.41-4.4,21.61-.91,4.31-1.84,20.72-2.69,22.45-1.73.84-5.23.83-6.94,2.56q-2.62,1.72-3.52,9.5l-28.66-.1c1.3-3.36,2.57-5.66,3.83-6.91,4.23-4.22,8.44-6.54,9.25-7.73.83-2.62,7-13.8,7.84-17.27s8-28.5,8-32-1.75-6.93-2.58-11.24c0-4.29-.77-17.91-.76-23.18V360c0-4.15-.07-5.8-4.36-5.81h-.59c-3.42,0-8.21-.07-10.67-.92a48.15,48.15,0,0,1-9.51-9.54c-3.49-6.94-6-11.25-6.9-13.84-.86-3.47-6.89-20.8-9.5-27.71-3.41-6.07-12.05-21.67-16.37-27.73-4.31-5.14-11.94-13.69-16.32-18.08h0a.67.67,0,0,1-.2-.18,69,69,0,0,0-7-7.83c-4-4-8.78-4.86-13.6-6.47-4.82-.82-12.9.76-19.34-.07-7.26-1.64-13.69-2.47-17.68-4.09s-12.86-5.67-16.87-6.47-13.69.74-15.32-.86-2.36-4-4-6.43c-1.63-3.24-6.4-11.26-3.94-14.47,4-4.8,29.06-27.19,32.26-30.37,2.45-3.22,16.18-16.81,19.4-19.21,2.43-2.41,15-8.77,12.1-8.78s-12.11-3.4-16.43-9.08c-5.26-6.9-3-16-1.81-16s1.54,6.4,6.23,10.34c2.68,2.27,10.75,4.33,13.72,4.34,4.57,0,3.6.48,5.07.49s-2.37-1-4.72-5.93C768.8,129.36,769.81,119.4,772.38,119.44Z"/></g></g><text class="cls-5" transform="translate(983.95 522.63)">Cattle: <tspan class="cls-6"><tspan x="0" y="23.02">cattle and cow of all ages, </tspan><tspan x="0" y="46.04">bred for meat p</tspan><tspan class="cls-7" x="129.18" y="46.04">r</tspan><tspan x="135.45" y="46.04">oduction,</tspan><tspan x="0" y="69.06">e</tspan><tspan class="cls-7" x="9.91" y="69.06">x</tspan><tspan x="19.05" y="69.06">cluded are dairy cows</tspan></tspan></text><text class="cls-8" transform="translate(443.76 522.63)">Pig:  <tspan class="cls-6"><tspan x="0" y="23.02">representing pork</tspan></tspan></text><text class="cls-9" transform="translate(136.96 522.63)">Chicken: <tspan class="cls-6"><tspan x="0" y="23.02">used as an umbrella term </tspan><tspan x="0" y="46.04">for poultry: chicken, duck, </tspan><tspan x="0" y="69.06">turkey and geese</tspan></tspan></text><text class="cls-10" transform="translate(680.23 522.63)">Sheep: <tspan class="cls-6"><tspan x="0" y="23.02">includes goats and sheep </tspan><tspan x="0" y="46.04">of all ages, </tspan><tspan x="0" y="69.06">as these are very often </tspan><tspan x="0" y="92.08">combined in the statistics.</tspan></tspan></text></svg>