<svg id="Ebene_1" data-name="Ebene 1" xmlns="http://www.w3.org/2000/svg" viewBox="0 0 1366 768"><defs><style>.cls-1,.cls-9{fill:#5c6a7d;}.cls-2,.cls-8{fill:#36485e;}.cls-10,.cls-3{fill:#253854;}.cls-3,.cls-4{fill-rule:evenodd;}.cls-4,.cls-5{fill:#1c2a40;}.cls-10,.cls-5,.cls-8,.cls-9{font-size:20.04px;font-family:Roboto-Medium, Roboto;font-weight:500;}.cls-6{font-family:Roboto-Light, Roboto;font-weight:300;}.cls-7{letter-spacing:-0.01em;}</style></defs><title>tiere02</title><g id="Page-1"><g id="Artboard"><path id="Shape" class="cls-1" d="M337.08,254c3.37-11.84-8.93-8.71-8.93-8.71,3.68-10.28-12.62-7.45-21.52,5.95s-24.26,28.37-48.55,31.2-40.27,8.77-54.14-11.13c-14.36-28-32.29-32.64-37.93-33.42l-.25-.51c.45,0,4.79-3.45,2.3-6.95s-6.74-.3-7.89-.46-1.06-4.22-5.21-4-2.62,4.17-4,4.53-7.86-1.91-10.6,2.73,2.58,9.47,2.76,10.15c.57,2.14-1.33,5.64-1.33,5.64C134.18,255.09,133,265,133,265a34.51,34.51,0,0,1,11.55-3.81c-4.51,9.31-1.57,13.54,1.29,13.25,3.12-.31,3.83-2.84,3.56-5.81l.42.66c-.16,4.83-2.66,19.47.05,35.3,2.81,16.47,11,34.38,20.43,52.14,7.2,13.56,17.63,27.69,27.61,36.58,9.75,8.68,19.12,12.27,20.67,12.57.92.17,2,.33,3.23.46-1.27,4.05-4.63,14.73-5.92,18.67-1.61,4.9-13.87,9.82-19.36,10.81s-5.16,1-7.74,2-4.2,2.3-1.29,2.29,11.3-.67,12.91-.67-10,5.75-7.74,6.55S202,442,212.35,438s13.88,1.29,17.44,2.92c3.28,1.51,6.46,1,3.87-1.31s-4.53-4.24-4.53-4.24c2.59-2.63,8.07-3.29,12.27-2s11.62,4.24,10,.65-11.3-2.6-11.31-6.85,2.56-16.67,4.49-19.61a9.86,9.86,0,0,1,4.3-3.17,69.59,69.59,0,0,0,12.74-4.26c13.78-3.29,22.09-11.83,36-34.39,4.9-8,15.93-23.69,23.07-36.29a93.23,93.23,0,0,0,6.63-15.35c17.52-7.5,5.82-19,5.82-19,16.28-11.23,1.51-17.75,1.51-17.75,15.68-1.58,5.83-13.09,5.83-13.09C349.08,256.82,337.08,254,337.08,254ZM228.8,428.21c-5.49,4.18-7.42,1-5.5-4.89,1.6-4.86,6-13.74,7.55-16.67,2,0,4.09-.15,6.29-.35C237,411.22,235.82,422.87,228.8,428.21Z"/></g></g><g id="Page-1-2" data-name="Page-1"><g id="Artboard-2" data-name="Artboard"><path id="Path" class="cls-2" d="M308.18,301.29a101.62,101.62,0,0,1,13.73-13.78,99.8,99.8,0,0,1-8-8.84c-3.12-5.75-.95-22.6,2.6-25.27,2.21-1.78,4.89.87,9.34,4.4a15.54,15.54,0,0,1,2.19-8.87c2.21-3.55,13.35,8.83,22.27,20.33a73.51,73.51,0,0,1,18.64-5.37c20-2.72,114.53-22.49,202.48-22.75,40.42-.11,64.42,5.14,87.57,23.24,1.78,1.33,19.59,19.45,29.81,18.09,6.66-.9,15.4-2.73,8.31,1.73-8.43,5.34-19,2.53-27-.55,1.79,6.2,7.15,21,7.17,28.55,2.77,38.11-20.28,55.47-9.14,67,15.14,15-3.49,22.17-2.56,35.91.91,11.08.93,16-2.63,15.52-6.66-1.31-6.66-1.31-9.75,8q-.32,2.26-3.49,6.66l-16.65,0a3.76,3.76,0,0,1-3.75-3.77,3.88,3.88,0,0,1,.82-2.38h0c6.14-7.73,13.2-17.58,16.32-32.89,3.07-15.08-7.25-27.46-18.83-37.18h-3.48c.9,5.76,2.25,10.19-4.83,19.08-4.87,5.77-5.25,30.59-6.11,39.91-.44,3.54-7.11-1.76-7.54,2.68A66.72,66.72,0,0,1,601.61,445l-18.07.05a3.32,3.32,0,0,1-3.31-3.33,3.36,3.36,0,0,1,.6-1.92h0c4.8-7,10.32-13.9,11.95-20.48,4.4-16.86.37-27.48-5.43-37.66l-4.12-3.89a88.85,88.85,0,0,0-10.1,3.49c-4.44,1.34-9.32,2.68-14.2,4.47-23.07,7.6-55.86,7.69-94.09-5.94-1.75,11.53-4,26.17-3.56,30.6.92,4.52,2.05,21.22.07,23.49-1.77,1.78-4.45-.43-5.33.9a13.07,13.07,0,0,1-.88,4.44,24.89,24.89,0,0,1-3.29,6.21l-23.51.07a.81.81,0,0,1-.79-.8.78.78,0,0,1,.17-.48c1-1.4,2.33-3.05,3.82-4.94,3.09-3.91,7.81-9.31,8.46-14.2,2.18-14.19-1-31.47-8.63-45.19-6.61,18.63-12.56,42.07-12.74,43.77-.29,2.79-1.43,8-3.15,9.64-.63.59-2.11-.42-2.55-.61-1.66-.73-2.66,2.22-2.65,6.21,0,1.38-.83,3.74-2.49,7.1l-18.26.05a5,5,0,0,1-4.95-5,5,5,0,0,1,1-3.08h0c4.3-5.62,9.52-11.67,11.28-19,1.76-8,2.52-28.25-1.53-46-24.43.07-34.82-14.29-48.59-15.58-8.45-.86-19.82.21-28.26-1.54-21.78-4.37-37.3-7.05-40.43-15.46-1.35-4-9.79-4.41-8.45-4.41q-4-22.61-.07-22.61C273.5,313.36,294,317.73,308.18,301.29Z"/></g></g><g id="Page-1-3" data-name="Page-1"><g id="Artboard-3" data-name="Artboard"><g id="Sheep"><path id="Path-2" data-name="Path" class="cls-3" d="M913.69,353l0,20.17a29.51,29.51,0,0,1-1.52,7.54c-.5,1.54-3,6-5.54,10.06-3,3.54-1,6.07-.52,8.56a29.14,29.14,0,0,1,1.47,9.09l0,28.24c0,1.51,0,3-1.5,3q-1.51,0-1,6l-13.54,0a26.67,26.67,0,0,1,1.28-4.6,8.21,8.21,0,0,1,3.24-3.93c1.51-.52.5-2,.5-2C896,426.59,895,418,894,409.44a7.76,7.76,0,0,0-2.49-5.55c-2.51-2-7-5.06-7-5.06s-1.52-1.49-2.52-.53c-1,.52-1,1.53-1,2.55-.52,1-3.56,19.15-3.56,19.15s-3,13.09-3.54,14.62-.51,1.48-2,1.48c-1.53.52-2.52,0-3,1.5s-1,4.06-1,4.06v4l-11.65,0a8.77,8.77,0,0,1,.38-4c.65-2,4.26-4.52,4.74-5v-1.51c1-5.57,2-11.61,3.58-17.64,0-6-.46-12.62,0-19.18s1-10.57-6.51-14.61c-6.51-3-9,0-14,1-5.53,1-20.6,5-44.18,5s-26.08-3.1-30.59-2.09c-3,1-5.54,5-8.56,8.05a11.4,11.4,0,0,0-3,8.06c0,1.52,2,12.11,2.48,14.11,1.5,4.53,2.49,17.1,1.48,17.62s-4,.05-4,2v8.07l-13.6,0a14,14,0,0,1,.51-4,41.19,41.19,0,0,1,4.08-8.58,3.72,3.72,0,0,0,.5-3,56.69,56.69,0,0,0-.48-8.06c0-1.51-2-10.57-2.49-12.6-1-2-2.5-7.58-4.49-10.11a22.72,22.72,0,0,0-5-3c-1,9.55.47,37.29.46,39.81,0,2-2,3-3,3.54-1.51.51-1.52,3.5-2,6l-13.56,0a14.31,14.31,0,0,1,0-5,21,21,0,0,1,1.55-4s4.36-6.78,4.36-7.27c.53-.5.53-2,.53-2.52-.52,0-3.36-24.5-3.36-25.52s-1-8.07-3-10.6-6-4.05-8-5c-1.5-1-9.52-6.08-11.53-9.1a82.66,82.66,0,0,1-10-16.16c-2.52-6-7.5-18.15-9-24.19s-4.5-17.14-4.5-20.65c-.48-3.57-1.48-13.64-1.47-15.67s-1-5-2.49-6c-2-1-3.34-1.65-6-.95s-19.23,5.92-22.63,5.91-4.59-2.72-6.09-3.21-4-.7-5.24-1.83a6.32,6.32,0,0,1-1.69-4.53,31,31,0,0,1,2-8.07c2.51-4,8.05-11.59,10.58-14.08,2-3,10.56-12.6,13.06-14.57s7.27-6.22,11.46-8.62,5.62-2.46,9.64-3.47a55.42,55.42,0,0,1,5.45-1.19s.12-1.6,2.59-4.83a26.66,26.66,0,0,1,6-6c2-1.5,4.55-2.51,6-1.49,1.5,1.51,1.32,3.89.3,6.41s-1.83,5.14-1.83,5.14,14.53,8.62,18,11.15c11.52,7.57,19.53,19.17,26.05,20.19s10,.55,14.55.55c30.1-1.47,93.34-4.37,101.88-4.36,9.05,0,17.56-.48,22.57,1.09,5,2,21.08,7.59,29.58,19.19,8.51,11.13,13.51,23.21,13,32.79-1,9.55-3.52,12.59-4,14.62s-3,5-3,11.08Z"/></g></g></g><g id="Page-1-4" data-name="Page-1"><g id="Artboard-4" data-name="Artboard"><path id="Combined-Shape" class="cls-4" d="M889.8,186c1.65,0-.53,1.83,3,5.87,1.62,1.85,6.25,4.7,9.31,7.08a19,19,0,0,1,5,5.35c1,1.68-.46,4.8,0,5,.67,0,1.11-.44,2.95-1.66a20.43,20.43,0,0,1,9.21-3.63c4.54-.46,9.1,1.29,9.41,1.91.77.77-1.56,5.87-5,9.09-2,1.88-5.84,2.33-5.84,3,0,1.22.61,1.83,3.61,1.84,2.22.46,11.59,1.77,18.81,2.45,1.69.14,3.4.27,5,.38.59,0,1.12,0,1.59,0a3.93,3.93,0,0,1,.72.09h0c1.63.09,3.11.14,4.32.14,17,.7,52.71,2.81,65.1,4.17,11.68,1.34,27.32,3.37,39.65,4.74s18.89,1.36,30.61,1.4c11.07,0,39-1.15,47.52-3.09,12.37-1.27,28-1.86,35.15-2.49s18.88-1.25,24.08,2.06c5.83,3.3,13.63,9,16.84,14.9a103.59,103.59,0,0,1,6.86,20.66,217.13,217.13,0,0,1,2.65,24.75c.6,13,.09,28.94,1.21,35.55.07.38,5,5.09,7.93,10.83,1.49,3,3.55,13.1,3.13,20.68-.49,9-3.33,20.23-4,17.69s-4.86-7.83-8.49-15.12a83.91,83.91,0,0,1-5.72-15.66,26.3,26.3,0,0,1,0-9.09c.68-3.5,2.33-7.4,2-8.71-.64-3.27-1.92-16.39-1.91-19.69s-1.81-31.47-2.45-34.77c-.64-3.91-5.15-16-3.21-10.37s-.07,20.22-.09,24.81l-.08,23.6c-.67,4.6.56,15.08-2,19.68a70.37,70.37,0,0,1-3.93,7.18c-1.31,2.18-1.75,3.27-1.31,3.27.65,0,8.41,8.58,10.38,10.53a11.36,11.36,0,0,1,1.9,9.87c-2,4.59-4.67,28.84-4.69,34.07s.57,23,.57,24.27c0,2,.64,3.27.64,4.59-.66.66-5.43,6.09-5.77,9.84a64.24,64.24,0,0,0,.65,10.6l-26.82-.1a35.26,35.26,0,0,1,2.31-7.31,24.92,24.92,0,0,1,5.52-6.55c2-2.61,4.61-16.37,4.65-28.18,0-11.16-3.78-27.56-12.2-38.08-12.47,22.91-15.8,43.89-15.18,57.66-5.21.62-7.82,3.9-9.79,8.48a39.8,39.8,0,0,0-1.72,6.57l-23.41-.09a25.66,25.66,0,0,1,2.65-6.56c7.77-12,14.29-19.35,15.41-21.59,1.93-3.91,3.94-12.44,4-15.72V392c0-4.09,0-13.54-4.5-14.22-1.33-.33-1,6.56-3.6,6.55s-2.12-5.17-4.69-4.82-1.48,4.33-4.29,4.32c-3.39-.65-1.67-4.26-4-4.79a3.31,3.31,0,0,0-2.8.43c-1.17.89-.59,2.57-3.19,2.56s-3.39-4.27-3.39-5.35c-7.8-4.62-12.42-8.85-13.72-10.83-2-2-7.16-7.9-7.16-7.9-9.11.63-18.88,1.23-22.11,1.22-3.89,0-13.66-.69-17.56-.7-4.55,0-9.11.61-14.32.59a75.89,75.89,0,0,1-14.31-2,5.5,5.5,0,0,0-4.56,0c-2.63.65-7.22,11.11-7.24,14.4l0,7.21c.66,1.32,3.87,8.56,3.86,10.51s-3.25,3.93-4.58,6.55c-1.28,3.27-5.24,9.16-4.62,16.37,0,6.57,1.3,9.18,1.28,13.13,0,2,.95,5.91-2.33,5.9-1.19.23-3.53,2.33-4.92,5.21a21.92,21.92,0,0,0-1.6,7.22l-22.51-.09q1.36-5.9,4-7.84c3.26-2,4.57-2,5.23-4.58,1.28-3.26,3.29-12.45,4-15.06.67-3.28,1.35-15.74,1.36-18.36,0-3.29,0-8.54-.6-11.81-1.29-2.64-2.59-10.51-2.59-10.51-1.31,7.22-5.28,20.32-6.55,21a8.78,8.78,0,0,0-4,4.58c-.63,1.31-2,12.45-3.29,16.39-.69,3.27-1.39,15.72-2,17-1.3.64-3.92.63-5.2,1.94-1.31.87-2.19,3.28-2.64,7.21l-21.47-.08a15.78,15.78,0,0,1,2.87-5.24c3.17-3.2,6.32-5,6.93-5.86.62-2,5.21-10.47,5.88-13.1s5.95-21.62,6-24.25-1.3-5.26-1.93-8.53c0-3.26-.57-13.59-.57-17.58v-.32c0-3.14-.05-4.4-3.26-4.41h-.45c-2.56,0-6.15-.06-8-.7a36.34,36.34,0,0,1-7.13-7.24c-2.61-5.26-4.52-8.53-5.17-10.49-.64-2.64-5.15-15.78-7.11-21-2.56-4.61-9-16.44-12.26-21-3.24-3.9-9-10.39-12.24-13.71h0a.37.37,0,0,1-.15-.13,51,51,0,0,0-5.28-5.94c-3-3-6.58-3.69-10.19-4.91-3.61-.62-9.66.58-14.48-.05-5.45-1.24-10.26-1.87-13.25-3.11s-9.63-4.3-12.64-4.9-10.26.56-11.48-.65-1.77-3.06-3-4.89c-1.21-2.45-4.78-8.53-2.94-11,3-3.64,21.77-20.62,24.16-23a169.43,169.43,0,0,1,14.54-14.57c1.82-1.82,11.24-6.65,9.07-6.66s-9.08-2.57-12.32-6.88C871.45,197.9,873.12,191,874,191s1.15,4.86,4.66,7.85c2,1.71,8.06,3.28,10.29,3.29,3.42,0,2.69.36,3.79.37s-1.77-.76-3.53-4.5C887.12,193.52,887.88,186,889.8,186Z"/></g></g><text class="cls-5" transform="translate(1019.97 528.44) scale(0.99 1)">Cattle: <tspan class="cls-6"><tspan x="0" y="24.05">cattle and cow of all ages, </tspan><tspan x="0" y="48.1">bred for meat p</tspan><tspan class="cls-7" x="134.95" y="48.1">r</tspan><tspan x="141.5" y="48.1">oduction,</tspan><tspan x="0" y="72.15">e</tspan><tspan class="cls-7" x="10.35" y="72.15">x</tspan><tspan x="19.9" y="72.15">cluded are dairy cows</tspan></tspan></text><text class="cls-8" transform="translate(462.6 528.44) scale(0.99 1)">Pig:  <tspan class="cls-6"><tspan x="0" y="24.05">representing pork</tspan></tspan></text><text class="cls-9" transform="translate(146.05 528.44) scale(0.99 1)">Chicken: <tspan class="cls-6"><tspan x="0" y="24.05">used as an umbrella term </tspan><tspan x="0" y="48.1">for poultry: chicken, duck, </tspan><tspan x="0" y="72.15">turkey and geese</tspan></tspan></text><text class="cls-10" transform="translate(744.53 528.44) scale(0.99 1)">Sheep: <tspan class="cls-6"><tspan x="0" y="24.05">includes goats and sheep </tspan><tspan x="0" y="48.1">of all ages, </tspan><tspan x="0" y="72.15">as these are very often </tspan><tspan x="0" y="96.2">combined in the statistics.</tspan></tspan></text></svg>