<?xml version="1.0" encoding="UTF-8"?>
<svg width="1118px" height="674px" viewBox="0 0 1118 674" version="1.1" xmlns="http://www.w3.org/2000/svg" xmlns:xlink="http://www.w3.org/1999/xlink">
    <title>tiere04Roboto</title>
    <g id="tiere04Roboto" stroke="none" stroke-width="1" fill="none" fill-rule="evenodd">
        <g id="tiere04" transform="translate(30.000000, 29.000000)">
            <g id="Page-1_8_" transform="translate(41.000000, 317.000000)" fill="#5C6A7D" fill-rule="nonzero">
                <g id="Group">
                    <path d="M108.9,15.1 C110.7,8.9 104.2,10.5 104.2,10.5 C106.2,5.1 97.5,6.6 92.8,13.6 C88.1,20.6 79.9,28.5 67,30 C54.1,31.5 45.6,34.6 38.2,24.2 C30.6,9.5 21,7.1 18.1,6.7 L18,6.4 C18.2,6.4 20.5,4.6 19.2,2.8 C17.9,1 15.6,2.6 15,2.6 C14.4,2.5 14.4,0.4 12.2,0.5 C10,0.6 10.8,2.7 10.1,2.9 C9.4,3.1 5.9,1.9 4.5,4.3 C3,6.7 5.9,9.3 6,9.6 C6.3,10.7 5.3,12.6 5.3,12.6 C1.3,15.8 0.6,21 0.6,21 C4,19.3 6.6,19 6.7,19 C4.3,23.9 5.9,26.1 7.4,26 C9.1,25.8 9.4,24.5 9.3,23 L9.5,23.3 C9.4,25.8 8.1,33.5 9.5,41.8 C11,50.4 15.3,59.8 20.4,69.2 C24.2,76.3 29.8,83.7 35.1,88.4 C40.3,93 45.3,94.8 46.1,95 C46.6,95.1 47.2,95.2 47.8,95.2 C47.1,97.3 45.3,102.9 44.7,105 C43.8,107.6 37.3,110.2 34.4,110.7 C31.5,111.2 31.7,111.2 30.3,111.7 C28.9,112.2 28.1,112.9 29.6,112.9 C31.1,112.9 35.6,112.5 36.5,112.5 C37.4,112.5 31.2,115.5 32.4,115.9 C33.6,116.3 37.4,113.8 42.9,111.8 C48.4,109.7 50.3,112.5 52.2,113.3 C53.9,114.1 55.6,113.8 54.3,112.6 C52.9,111.4 51.9,110.4 51.9,110.4 C53.3,109 56.2,108.7 58.4,109.4 C60.6,110.1 64.6,111.6 63.7,109.7 C62.8,107.8 57.7,108.3 57.7,106.1 C57.7,103.9 59.1,97.4 60.1,95.8 C60.6,95 61.5,94.5 62.4,94.1 C64.7,93.6 67,92.9 69.2,91.9 C76.5,90.2 80.9,85.7 88.3,73.9 C90.9,69.7 96.8,61.5 100.6,54.9 C102.7,51.2 104.1,46.8 104.1,46.8 C113.4,42.9 107.2,36.8 107.2,36.8 C115.8,30.9 108,27.5 108,27.5 C116.3,26.7 111.1,20.6 111.1,20.6 C115.3,16.6 108.9,15.1 108.9,15.1 Z M51.4,106.5 C48.5,108.7 47.5,107 48.5,103.9 C49.3,101.3 51.7,96.7 52.5,95.2 C53.6,95.2 54.7,95.1 55.8,95 C55.7,97.6 55.1,103.7 51.4,106.5 Z" id="Shape_2_"></path>
                </g>
            </g>
            <g id="pig" transform="translate(107.000000, 252.000000)" fill="#37485E" fill-rule="nonzero">
                <path d="M49.6816921,40.8524124 C47.1903039,38.4448454 44.8519095,35.8833825 42.6802386,33.1830632 C40.3701308,25.8883329 41.1614965,17.9627826 44.8681928,11.270637 C46.8373516,9.73676716 49.2441013,11.270637 53.1824189,15.2148737 C53.0502504,12.5179114 53.7367713,9.84409531 55.1515777,7.54552453 C57.1207365,4.25866059 66.9665307,15.2148737 74.6243702,25.2945897 C79.9504692,23.0154494 85.534656,21.3965447 91.2528225,20.473856 C150.236437,9.26175827 210.002492,2.66808716 270.008684,0.752672393 C297.345739,-2.16966866 324.808148,4.99843023 347.243468,20.9121045 C348.775036,22.0077259 364.528306,38.003797 373.498919,36.6890514 C382.469531,35.3743058 387.064235,34.2786845 380.937963,38.2229213 C373.399688,41.8447598 364.627537,41.8447598 357.089262,38.2229213 C360.048469,46.3114222 362.174537,54.6816291 363.434329,63.2030873 C365.841079,96.5099751 345.493105,111.629549 355.338899,121.709265 C368.68542,134.637597 352.275763,140.9922 353.150945,153.044035 C354.026126,165.095869 353.150945,166.848863 350.744195,166.410615 C348.337445,165.972366 344.836719,165.314993 342.211174,173.422591 C341.549197,175.561301 340.511935,177.564742 339.148037,179.338946 L324.051153,179.338946 C322.238592,179.338946 320.769222,177.867367 320.769222,176.052082 C320.488414,175.424788 320.488414,174.707259 320.769222,174.079964 C327.801501,165.832909 332.687221,155.971505 334.990925,145.374686 C336.073515,132.215073 329.635061,119.573341 318.362472,112.72517 L315.299336,112.72517 C317.201764,118.615926 315.588796,125.077495 311.142223,129.378615 C307.381988,140.603077 305.532919,152.380835 305.672338,164.219372 C305.672338,167.506236 299.546065,162.685502 299.108475,166.629739 C298.333468,170.918004 297.086004,175.106967 295.388953,179.119822 L280.292069,179.119822 C278.721182,179.119822 277.447728,177.844454 277.447728,176.271207 C277.228043,175.707585 277.228043,175.081834 277.447728,174.518212 C281.86125,169.11299 285.404684,163.050526 287.949908,156.550023 C291.165424,145.412095 289.410025,133.42548 283.136409,123.681384 L279.416887,120.394519 C276.363362,121.220999 273.366818,122.245747 270.446274,123.462259 C266.726752,124.557881 262.350844,125.653502 257.974935,127.406496 C230.485101,134.596706 201.416081,132.753157 175.05147,122.147514 C173.34086,130.97173 172.244245,139.904274 171.769539,148.880673 C173.079559,155.610176 173.079559,162.529728 171.769539,169.25923 C170.019175,170.7931 167.831221,169.25923 166.956039,169.25923 C167.180593,170.564359 167.180593,171.898338 166.956039,173.203467 C166.351408,175.122054 165.38595,176.907118 164.111699,178.462449 C153.281152,179.463312 146.989567,179.463312 145.236945,178.462449 C142.608013,176.961155 145.42734,175.473569 146.608064,174.079964 C150.125039,170.631349 152.688256,166.327731 154.047109,161.589881 C155.734052,147.987226 153.133082,134.196689 146.608064,122.147514 C142.147823,134.721441 138.350138,147.521323 135.230703,160.49426 C135.056056,163.477186 134.072682,166.355984 132.386362,168.820982 C132.386362,168.820982 130.635999,168.820982 130.198408,168.820982 C129.760817,168.820982 127.791658,170.573976 128.010454,174.079964 C127.61915,176.332213 126.80229,178.488989 125.603704,180.434567 L109.631638,180.434567 C107.214891,180.434567 103.457588,179.251375 103.457588,176.830995 C103.138431,175.983639 104.936573,174.269947 105.25573,173.422591 C109.59587,168.532065 113.006795,162.888154 115.320319,156.769147 C117.341113,143.42554 116.821442,129.819421 113.788751,116.669407 C91.9092086,116.669407 83.1573919,104.179324 70.0296663,103.083703 C62.5906221,103.083703 52.5260326,103.083703 45.0869882,101.768957 C25.832991,97.8247206 12.2676747,95.6334779 9.42333419,88.183253 C8.32935708,84.6772647 0.890312701,84.2390164 1.98428982,84.2390164 C-0.349528029,71.0915605 -0.349528029,64.5178328 1.98428982,64.5178328 C15.086137,67.2309793 28.6448637,62.8156877 37.6479439,52.9042468 C41.2089395,48.4600182 45.244133,44.41876 49.6816921,40.8524124 Z" id="Path"></path>
            </g>
            <g id="Page-1_6_" transform="translate(407.000000, 204.000000)" fill="#253854">
                <g id="Group" transform="translate(152.500000, 114.000000) scale(-1, 1) translate(-152.500000, -114.000000) ">
                    <path d="M8.4,131.8 L8.4,152.7 C8.4,154.8 9.5,159.5 10,160.5 C10.5,162.1 13.2,166.7 15.8,170.9 C19,174.6 16.9,177.2 16.3,179.8 C15.3,182.4 14.8,186.6 14.8,189.2 L14.9,218.4 C14.9,220 14.9,221.6 16.5,221.5 C17.6,221.5 17.9,223.6 17.6,227.7 C19.3,227.7 24.1,227.7 31.8,227.7 C31.3,225.4 30.8,223.8 30.5,222.9 C29.5,220.6 28,219.3 27.1,218.8 C25.5,218.3 26.6,216.7 26.6,216.7 C27,207.9 28,199 29,190.2 C29,190.2 29,186.5 31.6,184.5 C34.2,182.4 38.9,179.3 38.9,179.3 C38.9,179.3 40.5,177.8 41.5,178.8 C42.5,179.3 42.5,180.4 42.5,181.4 C43,182.4 46.2,201.2 46.2,201.2 C46.2,201.2 49.4,214.7 49.9,216.3 C50.4,217.8 50.4,217.8 52,217.8 C53.6,218.3 54.6,217.8 55.2,219.4 C55.7,221 56.2,223.6 56.2,223.6 L56.2,227.7 L68.4,227.7 C68.6,226.3 68.5,224.9 68,223.6 C67.3,221.6 63.5,218.9 63,218.4 L63,216.8 C61.9,211 60.9,204.8 59.3,198.6 C59.3,192.4 59.8,185.5 59.3,178.8 C58.8,172 58.2,167.9 66.1,163.7 C72.9,160.6 75.6,163.7 80.8,164.7 C86.6,165.7 102.4,169.9 127.1,169.8 C151.8,169.8 154.4,166.6 159.1,167.6 C162.3,168.6 164.9,172.8 168.1,175.9 C171.3,179.5 171.3,182.7 171.3,184.2 C171.3,185.8 169.2,196.7 168.7,198.8 C167.1,203.5 166.1,216.5 167.1,217 C168.2,217.5 171.3,217 171.3,219.1 C171.3,220.5 171.3,223.2 171.3,227.4 L185.5,227.4 C185.5,225.8 185.3,224.4 185,223.3 C183.8,219.5 181.2,215.2 180.7,214.4 C179.7,212.3 180.2,211.8 180.2,211.3 C180.2,211.3 180.2,205 180.7,203 C180.7,201.4 182.8,192.1 183.3,190 C184.4,187.9 185.9,182.2 188,179.5 C190.6,177.5 193.3,176.4 193.3,176.4 C194.4,186.3 192.8,215 192.8,217.6 C192.8,219.7 194.9,220.7 196,221.3 C197.6,221.8 197.6,224.9 198.1,227.5 L212.3,227.5 C212.6,225.3 212.6,223.5 212.3,222.3 C211.8,220.4 210.7,218.2 210.7,218.2 C210.7,218.2 206.1,211.2 206.1,210.7 C205.6,210.2 205.6,208.6 205.5,208.1 C206,208.1 209,182.8 209,181.7 C209,180.6 210,173.4 212.1,170.7 C214.2,168.1 218.4,166.5 220.5,165.5 C222.1,164.4 230.5,159.2 232.6,156.1 C235.2,153 239.9,146.2 243.1,139.4 C245.7,133.1 251,120.6 252.5,114.4 C254.1,108.1 257.2,96.7 257.2,93 C257.7,89.3 258.7,78.9 258.7,76.8 C258.7,74.7 259.7,71.6 261.3,70.6 C263.4,69.5 264.8,68.9 267.6,69.6 C270.4,70.3 287.7,75.7 291.3,75.7 C294.9,75.7 296.1,72.9 297.7,72.4 C299.3,71.9 301.9,71.7 303.2,70.5 C304.5,69.3 305,67.3 305,65.8 C305,64.8 303.9,59.5 302.9,57.5 C300.3,53.3 294.5,45.5 291.8,42.9 C289.7,39.8 280.7,29.9 278.1,27.8 C275.4,25.7 270.5,21.4 266.1,18.9 C261.7,16.4 260.2,16.4 256,15.3 C251.8,14.3 250.3,14.1 250.3,14.1 C250.3,14.1 250.2,12.4 247.6,9.1 C245,5.8 243.4,4.4 241.3,2.9 C239.2,1.3 236.5,0.3 235,1.4 C233.4,3 233.6,5.4 234.7,8 C235.8,10.6 236.6,13.3 236.6,13.3 C236.6,13.3 221.4,22.2 217.7,24.8 C205.6,32.6 197.2,44.6 190.4,45.7 C183.6,46.8 179.9,46.3 175.2,46.3 C143.7,44.8 77.4,41.8 68.5,41.8 C59,41.8 50.1,41.3 44.9,42.9 C39.6,45 22.8,50.7 13.9,62.7 C5,74.2 -0.2,86.7 0.3,96.6 C1.3,106.5 4,109.6 4.5,111.7 C5,113.8 7.7,116.9 7.7,123.2 L8.4,131.8 Z" id="Path_3_"></path>
                </g>
            </g>
            <g id="Artboard_5_" transform="translate(532.000000, 92.000000)" fill="#1C2A40">
                <path d="M68.4,0.4 C70.6,0.4 67.7,2.8 72.4,8.1 C74.6,10.5 80.7,14.3 84.8,17.4 C88.6,20.3 90.3,22.6 91.4,24.5 C92.7,26.7 90.8,30.8 91.4,31.1 C92.3,31.1 92.9,30.5 95.3,28.9 C96.1,28.1 101.8,24.7 107.6,24.1 C113.7,23.5 119.8,25.8 120.2,26.6 C121.2,27.6 118.1,34.3 113.5,38.6 C110.8,41.1 105.7,41.7 105.7,42.5 C105.7,44.1 106.5,44.9 110.5,44.9 C113.5,45.5 126,47.2 135.6,48.1 C137.9,48.3 140.1,48.5 142.3,48.6 C143.1,48.6 143.8,48.7 144.4,48.7 C144.7,48.7 145.1,48.8 145.4,48.8 L145.4,48.8 C147.6,48.9 149.5,49 151.2,49 C173.8,49.9 221.5,52.7 238.1,54.5 C253.7,56.3 274.6,58.9 291,60.7 C307.5,62.5 316.2,62.5 331.8,62.6 C346.6,62.7 383.9,61.1 395.2,58.5 C411.7,56.8 432.5,56.1 442.1,55.2 C451.6,54.4 467.3,53.6 474.2,57.9 C482,62.2 492.4,69.7 496.7,77.5 C501,86.1 504.9,99.9 505.9,104.7 C506.4,107.5 508.7,122 509.4,137.3 C510.2,154.5 509.5,175.5 511,184.2 C511.1,184.7 517.7,190.9 521.6,198.5 C523.6,202.4 526.3,215.8 525.8,225.8 C525.1,237.7 521.4,252.5 520.4,249.1 C519.4,245.7 513.9,238.8 509.1,229.2 C505.2,221.4 501.8,210.7 501.5,208.6 C501,205.4 500.6,201.3 501.5,196.6 C502.4,192 504.6,186.9 504.2,185.1 C503.3,180.8 501.6,163.5 501.7,159.1 C501.7,154.8 499.3,117.6 498.4,113.3 C497.5,108.1 491.5,92.2 494.1,99.6 C496.7,107 494,126.2 494,132.3 L493.9,163.4 C493,169.5 494.7,183.3 491.2,189.3 C487.7,196.2 486,198.8 486,198.8 C484.2,201.7 483.7,203.1 484.2,203.1 C485.1,203.1 495.4,214.4 498.1,217 C499.8,219.6 502.4,224 500.6,230 C498,236 494.4,268 494.3,274.9 C494.3,281.8 495.1,305.2 495.1,306.9 C495.1,309.5 496,311.2 495.9,312.9 C495,313.8 488.7,320.9 488.2,325.9 C488,328.3 488.3,333 489.1,339.9 L453.3,339.8 C454.4,335.1 455.5,331.9 456.4,330.2 C458.8,325.7 462.3,323 463.8,321.6 C466.5,318.2 470,300 470,284.5 C470.1,269.8 464.9,248.2 453.7,234.3 C437,264.5 432.6,292.2 433.4,310.3 C426.4,311.1 423,315.4 420.3,321.5 C419.9,322.2 419.1,325.1 418,330.2 L386.8,330.1 C387.9,326.2 389.1,323.3 390.3,321.5 C400.7,305.6 409.4,296 410.9,293 C413.5,287.9 416.2,276.6 416.2,272.3 L416.2,272 C416.2,266.6 416.1,254.1 410.2,253.3 C408.4,252.9 408.9,261.9 405.4,261.9 C401.9,261.9 402.6,255.1 399.1,255.5 C395.7,256 397.1,261.2 393.4,261.2 C388.9,260.3 391.2,255.6 388.1,254.9 C386.8,254.6 385.4,254.6 384.4,255.5 C382.8,256.7 383.6,258.9 380.1,258.9 C376.6,258.9 375.6,253.3 375.6,251.9 C365.2,245.8 359,240.2 357.3,237.6 C354.7,235 347.7,227.2 347.7,227.2 C335.5,228 322.5,228.8 318.2,228.8 C313,228.8 300,227.9 294.8,227.9 C288.7,227.9 282.6,228.7 275.7,228.7 C269.6,228.7 260,226.9 256.6,226 C254,225.1 253.1,225.1 250.5,226 C247,226.9 240.9,240.6 240.8,245 L240.8,254.5 C241.7,256.2 246,265.8 246,268.4 C246,271 241.7,273.6 239.9,277 C238.2,281.3 232.9,289.1 233.7,298.6 C233.7,307.3 235.4,310.7 235.4,315.9 C235.4,318.5 236.7,323.7 232.3,323.7 C230.7,324 227.6,326.8 225.7,330.6 C224.7,332.7 224,335.8 223.6,340.1 L193.6,340 C194.8,334.8 196.6,331.4 198.9,329.7 C203.2,327.1 205,327.1 205.9,323.7 C207.6,319.4 210.3,307.3 211.2,303.8 C212.1,299.5 213,283 213,279.6 C213,275.3 213,268.3 212.2,264 C210.5,260.5 208.7,250.1 208.7,250.1 C206.9,259.6 201.6,276.9 199.9,277.7 C197.3,279.4 195.5,281.1 194.6,283.7 C193.8,285.4 192,300.1 190.2,305.3 C189.3,309.6 188.4,326 187.5,327.8 C185.8,328.6 182.3,328.6 180.6,330.4 C178.9,331.6 177.7,334.7 177.1,339.9 L148.4,339.8 C149.7,336.4 151,334.1 152.2,332.9 C156.4,328.7 160.6,326.4 161.5,325.2 C162.3,322.6 168.5,311.4 169.3,307.9 C170.2,304.4 177.3,279.4 177.3,275.9 C177.3,272.4 175.6,269 174.7,264.7 C174.7,260.4 173.9,246.8 173.9,241.5 L173.9,241.1 C173.9,237 173.8,235.3 169.5,235.3 L168.9,235.3 C165.5,235.3 160.7,235.2 158.2,234.4 C155.6,232.7 151.2,228.3 148.7,224.9 C145.2,218 142.7,213.6 141.8,211.1 C140.9,207.6 134.9,190.3 132.3,183.4 C128.9,177.3 120.3,161.7 115.9,155.7 C111.6,150.6 104,142 99.6,137.6 L99.6,137.6 C99.5,137.6 99.5,137.5 99.4,137.4 C95.4,132.6 96.4,133.6 92.4,129.6 C88.4,125.6 83.6,124.7 78.8,123.1 C74,122.3 65.9,123.9 59.5,123 C52.2,121.4 45.8,120.5 41.8,118.9 C37.8,117.3 28.9,113.2 24.9,112.4 C20.8,111.6 11.2,113.1 9.6,111.5 C8,109.9 7.2,107.5 5.6,105.1 C4,101.9 -0.8,93.8 1.7,90.6 C5.7,85.8 30.8,63.4 34,60.2 C36.5,57 50.2,43.4 53.4,41 C55.8,38.6 68.4,32.2 65.5,32.2 C62.6,32.2 53.4,28.8 49.1,23.1 C43.8,16.2 46.1,7.1 47.3,7.1 C48.5,7.1 48.8,13.5 53.5,17.4 C56.2,19.7 64.3,21.7 67.2,21.7 C71.8,21.7 70.8,22.2 72.3,22.2 C73.8,22.2 69.9,21.2 67.6,16.3 C64.8,10.4 65.8,0.4 68.4,0.4 Z" id="Combined-Shape_2_"></path>
            </g>
            <g id="Group" transform="translate(0.000000, 462.000000)" fill="#5C6A7D" fill-rule="nonzero">
                <rect id="Rectangle" opacity="0.1" x="0" y="0" width="235" height="111"></rect>
                <g transform="translate(9.963900, 7.633800)" font-family="Roboto-Regular, Roboto" font-size="19.1843" font-weight="normal">
                    <text id="Chicken:">
                        <tspan x="0" y="18">Chicken:</tspan>
                    </text>
                    <text id="used-as-an-umbrella-term">
                        <tspan x="0" y="41">used as an umbrella term</tspan>
                    </text>
                    <text id="for-poultry:-chicken,-duck,">
                        <tspan x="0" y="64">for poultry: chicken, duck,</tspan>
                    </text>
                    <text id="turkey-and-geese">
                        <tspan x="0" y="87.1">turkey and geese</tspan>
                    </text>
                </g>
            </g>
            <g id="Group" transform="translate(777.000000, 0.000000)" fill-rule="nonzero">
                <g transform="translate(8.952100, 8.633800)" fill="#1C2A40" font-family="Roboto-Regular, Roboto" font-size="19.1843" font-weight="normal">
                    <text id="Cattle:">
                        <tspan x="0" y="18">Cattle:</tspan>
                    </text>
                    <text id="cattle-and-cow-of-all-ages,">
                        <tspan x="0" y="41">cattle and cow of all ages,</tspan>
                    </text>
                    <text id="bred-for-meat-production,">
                        <tspan x="0" y="64">bred for meat production,</tspan>
                    </text>
                    <text id="excluded-are-dairy-cows">
                        <tspan x="0" y="87.1">excluded are dairy cows</tspan>
                    </text>
                </g>
                <rect id="Rectangle" fill="#5C6A7D" opacity="0.1" x="0" y="0" width="239" height="111"></rect>
            </g>
            <g id="Group" transform="translate(488.000000, 482.000000)" fill-rule="nonzero">
                <g transform="translate(10.000000, 9.000000)" fill="#253854" font-family="Roboto-Regular, Roboto" font-size="19.1843" font-weight="normal">
                    <text id="Sheep:">
                        <tspan x="0" y="18">Sheep:</tspan>
                    </text>
                    <text id="includes-goats-and-sheep">
                        <tspan x="0" y="41">includes goats and sheep</tspan>
                    </text>
                    <text id="of-all-ages,">
                        <tspan x="0" y="64">of all ages,</tspan>
                    </text>
                    <text id="as-these-are-very-often">
                        <tspan x="0" y="87.1">as these are very often</tspan>
                    </text>
                    <text id="combined-in-the-statistics">
                        <tspan x="0" y="110.1">combined in the statistics</tspan>
                    </text>
                </g>
                <rect id="Rectangle" fill="#5C6A7D" opacity="0.1" x="0" y="0" width="237" height="135"></rect>
            </g>
            <g id="Group" transform="translate(197.000000, 140.000000)" fill-rule="nonzero">
                <g transform="translate(8.756300, 8.633800)" fill="#36485E" font-family="Roboto-Regular, Roboto" font-size="19.1843" font-weight="normal">
                    <text id="Pig:">
                        <tspan x="0" y="18">Pig:</tspan>
                    </text>
                    <text id="representing-pork">
                        <tspan x="0" y="41">representing pork</tspan>
                    </text>
                </g>
                <rect id="Rectangle" fill="#5C6A7D" opacity="0.1" x="0" y="0" width="168" height="65"></rect>
            </g>
        </g>
    </g>
</svg>