<?xml version="1.0" encoding="utf-8"?>
<!-- Generator: Adobe Illustrator 23.1.1, SVG Export Plug-In . SVG Version: 6.00 Build 0)  -->
<svg version="1.1" id="Ebene_1" xmlns="http://www.w3.org/2000/svg" xmlns:xlink="http://www.w3.org/1999/xlink" x="0px" y="0px"
	 viewBox="0 0 1366 768" style="enable-background:new 0 0 1366 768;" xml:space="preserve">
<style type="text/css">
	.st0{fill:#5C6A7D;}
	.st1{fill:#36485E;}
	.st2{fill-rule:evenodd;clip-rule:evenodd;fill:#253854;}
	.st3{fill-rule:evenodd;clip-rule:evenodd;fill:#1C2A40;}
	.st4{opacity:0.1;fill:#5C6A7D;}
	.st5{font-family:'Roboto-Medium';}
	.st6{font-size:19.1843px;}
	.st7{font-family:'Roboto-Light';}
	.st8{fill:none;stroke:#000000;stroke-width:2.5;}
	.st9{fill:#1C2A40;}
	.st10{fill:#253854;}
</style>
<g id="Page-1_8_">
	<g id="Artboard_8_" transform="translate(-2658.000000, -963.000000)">
		<g transform="translate(2658.000000, 963.000000)">
			<path id="Shape_2_" class="st0" d="M289.9,393.1c1.8-6.2-4.7-4.6-4.7-4.6c2-5.4-6.7-3.9-11.4,3.1c-4.7,7-12.9,14.9-25.8,16.4
				c-12.9,1.5-21.4,4.6-28.8-5.8c-7.6-14.7-17.2-17.1-20.1-17.5l-0.1-0.3c0.2,0,2.5-1.8,1.2-3.6c-1.3-1.8-3.6-0.2-4.2-0.2
				c-0.6-0.1-0.6-2.2-2.8-2.1c-2.2,0.1-1.4,2.2-2.1,2.4c-0.7,0.2-4.2-1-5.6,1.4c-1.5,2.4,1.4,5,1.5,5.3c0.3,1.1-0.7,3-0.7,3
				c-4,3.2-4.7,8.4-4.7,8.4c3.4-1.7,6-2,6.1-2c-2.4,4.9-0.8,7.1,0.7,7c1.7-0.2,2-1.5,1.9-3l0.2,0.3c-0.1,2.5-1.4,10.2,0,18.5
				c1.5,8.6,5.8,18,10.9,27.4c3.8,7.1,9.4,14.5,14.7,19.2c5.2,4.6,10.2,6.4,11,6.6c0.5,0.1,1.1,0.2,1.7,0.2
				c-0.7,2.1-2.5,7.7-3.1,9.8c-0.9,2.6-7.4,5.2-10.3,5.7c-2.9,0.5-2.7,0.5-4.1,1c-1.4,0.5-2.2,1.2-0.7,1.2s6-0.4,6.9-0.4
				c0.9,0-5.3,3-4.1,3.4c1.2,0.4,5-2.1,10.5-4.1c5.5-2.1,7.4,0.7,9.3,1.5c1.7,0.8,3.4,0.5,2.1-0.7c-1.4-1.2-2.4-2.2-2.4-2.2
				c1.4-1.4,4.3-1.7,6.5-1c2.2,0.7,6.2,2.2,5.3,0.3c-0.9-1.9-6-1.4-6-3.6s1.4-8.7,2.4-10.3c0.5-0.8,1.4-1.3,2.3-1.7
				c2.3-0.5,4.6-1.2,6.8-2.2c7.3-1.7,11.7-6.2,19.1-18c2.6-4.2,8.5-12.4,12.3-19c2.1-3.7,3.5-8.1,3.5-8.1c9.3-3.9,3.1-10,3.1-10
				c8.6-5.9,0.8-9.3,0.8-9.3c8.3-0.8,3.1-6.9,3.1-6.9C296.3,394.6,289.9,393.1,289.9,393.1z M232.4,484.5c-2.9,2.2-3.9,0.5-2.9-2.6
				c0.8-2.6,3.2-7.2,4-8.7c1.1,0,2.2-0.1,3.3-0.2C236.7,475.6,236.1,481.7,232.4,484.5z"/>
		</g>
	</g>
</g>
<g id="Page-1_7_">
	<g id="Artboard_7_" transform="translate(-2270.000000, -3826.000000)">
		<path id="Path_4_" class="st1" d="M2571.6,4187.5c3.9-4.7,7.9-8.6,12.2-12.1c-3.2-3.1-5.9-6.2-7.1-7.8c-2.8-5.1-0.8-19.9,2.3-22.2
			c2-1.6,4.3,0.8,8.3,3.9c0-2.7,0.4-5.5,2-7.8c2-3.1,11.9,7.8,19.8,17.9c5.5-2.4,11-3.9,16.6-4.7c17.8-2.4,101.8-19.8,180.1-20
			c35.9-0.1,57.3,4.5,77.9,20.4c1.6,1.2,17.4,17.1,26.5,15.9c5.9-0.8,13.7-2.4,7.4,1.5c-7.5,4.7-16.8,2.2-24-0.5
			c1.6,5.4,6.4,18.5,6.4,25.1c2.5,33.5-18,48.7-8.1,58.8c13.5,13.2-3.1,19.5-2.3,31.5c0.8,9.7,0.8,14-2.3,13.6
			c-5.9-1.2-5.9-1.2-8.7,7c-0.2,1.3-1.2,3.3-3.1,5.8l-14.8,0c-1.8,0-3.3-1.5-3.3-3.3c0-0.8,0.3-1.5,0.7-2.1l0,0
			c5.5-6.8,11.7-15.4,14.5-28.9c2.7-13.2-6.5-24.1-16.7-32.7c-1,0-2.1,0-3.1,0c0.8,5.1,2,8.9-4.3,16.8c-4.3,5.1-4.7,26.9-5.4,35.1
			c-0.4,3.1-6.3-1.5-6.7,2.4c-0.8,4.4-2,8.6-3.6,12.5l-16.1,0c-1.6,0-2.9-1.3-2.9-2.9c0-0.6,0.2-1.2,0.5-1.7l0,0
			c4.3-6.1,9.2-12.2,10.6-18c3.9-14.8,0.3-24.1-4.8-33.1c-2.4-2.3-3.7-3.4-3.7-3.4c-2.1,0.5-5.1,1.5-9,3.1
			c-3.9,1.2-8.3,2.4-12.6,3.9c-20.5,6.7-49.7,6.8-83.7-5.2c-1.6,10.1-3.6,23-3.2,26.9c0.8,4,1.8,18.6,0.1,20.6
			c-1.6,1.6-4-0.4-4.7,0.8c0,1.6-0.4,2.7-0.8,3.9c-0.3,1.1-1.3,2.9-2.9,5.5l-20.9,0.1c-0.4,0-0.7-0.3-0.7-0.7c0-0.2,0-0.3,0.1-0.4
			c0.9-1.2,2.1-2.7,3.4-4.3c2.8-3.4,6.9-8.2,7.5-12.5c1.9-12.5-0.9-27.6-7.7-39.7c-5.9,16.4-11.2,37-11.3,38.4
			c-0.3,2.4-1.3,7-2.8,8.5c-0.6,0.5-1.9-0.4-2.3-0.5c-1.5-0.6-2.4,2-2.4,5.5c0,1.2-0.7,3.3-2.2,6.2l-16.2,0c-2.4,0-4.4-2-4.4-4.4
			c0-1,0.3-1.9,0.9-2.7l0,0c3.8-4.9,8.5-10.2,10-16.7c1.6-7,2.2-24.8-1.4-40.4c-21.7,0.1-31-12.6-43.2-13.7
			c-7.5-0.8-17.6,0.2-25.1-1.3c-19.4-3.8-33.2-6.2-36-13.6c-1.2-3.5-8.7-3.9-7.5-3.9c-2.4-13.2-2.4-19.8-0.1-19.9
			C2540.7,4198.1,2559,4202,2571.6,4187.5z"/>
	</g>
</g>
<g id="Page-1_6_">
	<g id="Artboard_6_" transform="translate(-6946.000000, -3567.000000)">
		<g id="Sheep_2_">
			
				<g transform="translate(7410.500000, 3912.000000) scale(-1, 1) translate(-7410.500000, -3912.000000) translate(6946.000000, 3567.000000)">
				<path id="Path_3_" class="st2" d="M53.4,405.8l0,20.9c0,2.1,1.1,6.8,1.6,7.8c0.5,1.6,3.2,6.2,5.8,10.4c3.2,3.7,1.1,6.3,0.5,8.9
					c-1,2.6-1.5,6.8-1.5,9.4l0.1,29.2c0,1.6,0,3.2,1.6,3.1c1.1,0,1.4,2.1,1.1,6.2c1.7,0,6.5,0,14.2,0c-0.5-2.3-1-3.9-1.3-4.8
					c-1-2.3-2.5-3.6-3.4-4.1c-1.6-0.5-0.5-2.1-0.5-2.1C72,481.9,73,473,74,464.2c0,0,0-3.7,2.6-5.7c2.6-2.1,7.3-5.2,7.3-5.2
					s1.6-1.5,2.6-0.5c1,0.5,1,1.6,1,2.6c0.5,1,3.7,19.8,3.7,19.8s3.2,13.5,3.7,15.1c0.5,1.5,0.5,1.5,2.1,1.5c1.6,0.5,2.6,0,3.2,1.6
					c0.5,1.6,1,4.2,1,4.2l0,4.1l12.2,0c0.2-1.4,0.1-2.8-0.4-4.1c-0.7-2-4.5-4.7-5-5.2l0-1.6c-1.1-5.8-2.1-12-3.7-18.2
					c0-6.2,0.5-13.1,0-19.8c-0.5-6.8-1.1-10.9,6.8-15.1c6.8-3.1,9.5,0,14.7,1c5.8,1,21.6,5.2,46.3,5.1c24.7,0,27.3-3.2,32-2.2
					c3.2,1,5.8,5.2,9,8.3c3.2,3.6,3.2,6.8,3.2,8.3c0,1.6-2.1,12.5-2.6,14.6c-1.6,4.7-2.6,17.7-1.6,18.2c1.1,0.5,4.2,0,4.2,2.1
					c0,1.4,0,4.1,0,8.3l14.2,0c0-1.6-0.2-3-0.5-4.1c-1.2-3.8-3.8-8.1-4.3-8.9c-1-2.1-0.5-2.6-0.5-3.1c0,0,0-6.3,0.5-8.3
					c0-1.6,2.1-10.9,2.6-13c1.1-2.1,2.6-7.8,4.7-10.5c2.6-2,5.3-3.1,5.3-3.1c1.1,9.9-0.5,38.6-0.5,41.2c0,2.1,2.1,3.1,3.2,3.7
					c1.6,0.5,1.6,3.6,2.1,6.2l14.2,0c0.3-2.2,0.3-4,0-5.2c-0.5-1.9-1.6-4.1-1.6-4.1s-4.6-7-4.6-7.5c-0.5-0.5-0.5-2.1-0.6-2.6
					c0.5,0,3.5-25.3,3.5-26.4c0-1.1,1-8.3,3.1-11c2.1-2.6,6.3-4.2,8.4-5.2c1.6-1.1,10-6.3,12.1-9.4c2.6-3.1,7.3-9.9,10.5-16.7
					c2.6-6.3,7.9-18.8,9.4-25c1.6-6.3,4.7-17.7,4.7-21.4c0.5-3.7,1.5-14.1,1.5-16.2c0-2.1,1-5.2,2.6-6.2c2.1-1.1,3.5-1.7,6.3-1
					c2.8,0.7,20.1,6.1,23.7,6.1c3.6,0,4.8-2.8,6.4-3.3c1.6-0.5,4.2-0.7,5.5-1.9c1.3-1.2,1.8-3.2,1.8-4.7c0-1-1.1-6.3-2.1-8.3
					c-2.6-4.2-8.4-12-11.1-14.6c-2.1-3.1-11.1-13-13.7-15.1c-2.7-2.1-7.6-6.4-12-8.9c-4.4-2.5-5.9-2.5-10.1-3.6
					c-4.2-1-5.7-1.2-5.7-1.2s-0.1-1.7-2.7-5c-2.6-3.3-4.2-4.7-6.3-6.2c-2.1-1.6-4.8-2.6-6.3-1.5c-1.6,1.6-1.4,4-0.3,6.6
					c1.1,2.6,1.9,5.3,1.9,5.3s-15.2,8.9-18.9,11.5c-12.1,7.8-20.5,19.8-27.3,20.9c-6.8,1.1-10.5,0.6-15.2,0.6
					c-31.5-1.5-97.8-4.5-106.7-4.5c-9.5,0-18.4-0.5-23.6,1.1c-5.3,2.1-22.1,7.8-31,19.8c-8.9,11.5-14.1,24-13.6,33.9
					c1,9.9,3.7,13,4.2,15.1c0.5,2.1,3.2,5.2,3.2,11.5L53.4,405.8z"/>
			</g>
		</g>
	</g>
</g>
<g id="Page-1_5_">
	<g id="Artboard_5_" transform="translate(-6946.000000, -917.000000)">
		<path id="Combined-Shape_2_" class="st3" d="M7753.4,1073.4c2.2,0-0.7,2.4,4,7.7c2.2,2.4,8.3,6.2,12.4,9.3
			c3.8,2.9,5.5,5.2,6.6,7.1c1.3,2.2-0.6,6.3,0,6.6c0.9,0,1.5-0.6,3.9-2.2c0.8-0.8,6.5-4.2,12.3-4.8c6.1-0.6,12.2,1.7,12.6,2.5
			c1,1-2.1,7.7-6.7,12c-2.7,2.5-7.8,3.1-7.8,3.9c0,1.6,0.8,2.4,4.8,2.4c3,0.6,15.5,2.3,25.1,3.2c2.3,0.2,4.5,0.4,6.7,0.5
			c0.8,0,1.5,0.1,2.1,0.1c0.3,0,0.7,0.1,1,0.1l0,0c2.2,0.1,4.1,0.2,5.8,0.2c22.6,0.9,70.3,3.7,86.9,5.5c15.6,1.8,36.5,4.4,52.9,6.2
			c16.5,1.8,25.2,1.8,40.8,1.9c14.8,0.1,52.1-1.5,63.4-4.1c16.5-1.7,37.3-2.4,46.9-3.3c9.5-0.8,25.2-1.6,32.1,2.7
			c7.8,4.3,18.2,11.8,22.5,19.6c4.3,8.6,8.2,22.4,9.2,27.2c0.5,2.8,2.8,17.3,3.5,32.6c0.8,17.2,0.1,38.2,1.6,46.9
			c0.1,0.5,6.7,6.7,10.6,14.3c2,3.9,4.7,17.3,4.2,27.3c-0.7,11.9-4.4,26.7-5.4,23.3s-6.5-10.3-11.3-19.9c-3.9-7.8-7.3-18.5-7.6-20.6
			c-0.5-3.2-0.9-7.3,0-12c0.9-4.6,3.1-9.7,2.7-11.5c-0.9-4.3-2.6-21.6-2.5-26c0-4.3-2.4-41.5-3.3-45.8c-0.9-5.2-6.9-21.1-4.3-13.7
			c2.6,7.4-0.1,26.6-0.1,32.7l-0.1,31.1c-0.9,6.1,0.8,19.9-2.7,25.9c-3.5,6.9-5.2,9.5-5.2,9.5c-1.8,2.9-2.3,4.3-1.8,4.3
			c0.9,0,11.2,11.3,13.9,13.9c1.7,2.6,4.3,7,2.5,13c-2.6,6-6.2,38-6.3,44.9c0,6.9,0.8,30.3,0.8,32c0,2.6,0.9,4.3,0.8,6
			c-0.9,0.9-7.2,8-7.7,13c-0.2,2.4,0.1,7.1,0.9,14l-35.8-0.1c1.1-4.7,2.2-7.9,3.1-9.6c2.4-4.5,5.9-7.2,7.4-8.6
			c2.7-3.4,6.2-21.6,6.2-37.1c0.1-14.7-5.1-36.3-16.3-50.2c-16.7,30.2-21.1,57.9-20.3,76c-7,0.8-10.4,5.1-13.1,11.2
			c-0.4,0.7-1.2,3.6-2.3,8.7l-31.2-0.1c1.1-3.9,2.3-6.8,3.5-8.6c10.4-15.9,19.1-25.5,20.6-28.5c2.6-5.1,5.3-16.4,5.3-20.7l0-0.3
			c0-5.4-0.1-17.9-6-18.7c-1.8-0.4-1.3,8.6-4.8,8.6c-3.5,0-2.8-6.8-6.3-6.4c-3.4,0.5-2,5.7-5.7,5.7c-4.5-0.9-2.2-5.6-5.3-6.3
			c-1.3-0.3-2.7-0.3-3.7,0.6c-1.6,1.2-0.8,3.4-4.3,3.4c-3.5,0-4.5-5.6-4.5-7c-10.4-6.1-16.6-11.7-18.3-14.3
			c-2.6-2.6-9.6-10.4-9.6-10.4c-12.2,0.8-25.2,1.6-29.5,1.6c-5.2,0-18.2-0.9-23.4-0.9c-6.1,0-12.2,0.8-19.1,0.8
			c-6.1,0-15.7-1.8-19.1-2.7c-2.6-0.9-3.5-0.9-6.1,0c-3.5,0.9-9.6,14.6-9.7,19l0,9.5c0.9,1.7,5.2,11.3,5.2,13.9
			c0,2.6-4.3,5.2-6.1,8.6c-1.7,4.3-7,12.1-6.2,21.6c0,8.7,1.7,12.1,1.7,17.3c0,2.6,1.3,7.8-3.1,7.8c-1.6,0.3-4.7,3.1-6.6,6.9
			c-1,2.1-1.7,5.2-2.1,9.5l-30-0.1c1.2-5.2,3-8.6,5.3-10.3c4.3-2.6,6.1-2.6,7-6c1.7-4.3,4.4-16.4,5.3-19.9
			c0.9-4.3,1.8-20.8,1.8-24.2c0-4.3,0-11.3-0.8-15.6c-1.7-3.5-3.5-13.9-3.5-13.9c-1.8,9.5-7.1,26.8-8.8,27.6c-2.6,1.7-4.4,3.4-5.3,6
			c-0.8,1.7-2.6,16.4-4.4,21.6c-0.9,4.3-1.8,20.7-2.7,22.5c-1.7,0.8-5.2,0.8-6.9,2.6c-1.7,1.2-2.9,4.3-3.5,9.5l-28.7-0.1
			c1.3-3.4,2.6-5.7,3.8-6.9c4.2-4.2,8.4-6.5,9.3-7.7c0.8-2.6,7-13.8,7.8-17.3c0.9-3.5,8-28.5,8-32c0-3.5-1.7-6.9-2.6-11.2
			c0-4.3-0.8-17.9-0.8-23.2l0-0.4c0-4.1-0.1-5.8-4.4-5.8l-0.6,0c-3.4,0-8.2-0.1-10.7-0.9c-2.6-1.7-7-6.1-9.5-9.5
			c-3.5-6.9-6-11.3-6.9-13.8c-0.9-3.5-6.9-20.8-9.5-27.7c-3.4-6.1-12-21.7-16.4-27.7c-4.3-5.1-11.9-13.7-16.3-18.1l0,0
			c-0.1,0-0.1-0.1-0.2-0.2c-4-4.8-3-3.8-7-7.8c-4-4-8.8-4.9-13.6-6.5c-4.8-0.8-12.9,0.8-19.3-0.1c-7.3-1.6-13.7-2.5-17.7-4.1
			c-4-1.6-12.9-5.7-16.9-6.5c-4.1-0.8-13.7,0.7-15.3-0.9c-1.6-1.6-2.4-4-4-6.4c-1.6-3.2-6.4-11.3-3.9-14.5
			c4-4.8,29.1-27.2,32.3-30.4c2.5-3.2,16.2-16.8,19.4-19.2c2.4-2.4,15-8.8,12.1-8.8c-2.9,0-12.1-3.4-16.4-9.1c-5.3-6.9-3-16-1.8-16
			c1.2,0,1.5,6.4,6.2,10.3c2.7,2.3,10.8,4.3,13.7,4.3c4.6,0,3.6,0.5,5.1,0.5c1.5,0-2.4-1-4.7-5.9
			C7749.8,1083.4,7750.8,1073.4,7753.4,1073.4z"/>
	</g>
</g>
<g>
	<rect x="141" y="523" class="st4" width="234" height="111"/>
	<text transform="matrix(1 0 0 1 150.9639 548.6338)"><tspan x="0" y="0" class="st0 st5 st6">Chicken: </tspan><tspan x="0" y="23" class="st0 st7 st6">used as an umbrella term </tspan><tspan x="0" y="46" class="st0 st7 st6">for poultry: chicken, duck, </tspan><tspan x="0" y="69.1" class="st0 st7 st6">turkey and geese</tspan></text>
</g>
<g>
	<text transform="matrix(1 0 0 1 955.9521 87.6338)"><tspan x="0" y="0" class="st9 st5 st6">Cattle: </tspan><tspan x="0" y="23" class="st9 st7 st6">cattle and cow of all ages, </tspan><tspan x="0" y="46" class="st9 st7 st6">bred for meat production,</tspan><tspan x="0" y="69.1" class="st9 st7 st6">excluded are dairy cows</tspan></text>
	<rect x="947" y="63" class="st4" width="234" height="111"/>
</g>
<g>
	<text transform="matrix(1 0 0 1 645.2285 569.6338)"><tspan x="0" y="0" class="st10 st5 st6">Sheep: </tspan><tspan x="0" y="23" class="st10 st7 st6">includes goats and sheep </tspan><tspan x="0" y="46" class="st10 st7 st6">of all ages, </tspan><tspan x="0" y="69.1" class="st10 st7 st6">as these are very often </tspan><tspan x="0" y="92.1" class="st10 st7 st6">combined in the statistics</tspan></text>
	<rect x="636" y="548" class="st4" width="234" height="125"/>
</g>
<g>
	<text transform="matrix(1 0 0 1 361.7563 231.6338)"><tspan x="0" y="0" class="st1 st5 st6">Pig:  </tspan><tspan x="0" y="23" class="st1 st7 st6">representing pork</tspan></text>
	<rect x="354" y="206" class="st4" width="234" height="62"/>
</g>
</svg>
