<?xml version="1.0" encoding="utf-8"?>
<!-- Generator: Adobe Illustrator 23.1.1, SVG Export Plug-In . SVG Version: 6.00 Build 0)  -->
<svg version="1.1" id="Ebene_1" xmlns="http://www.w3.org/2000/svg" xmlns:xlink="http://www.w3.org/1999/xlink" x="0px" y="0px"
	 viewBox="0 0 444 276" style="enable-background:new 0 0 444 276;" xml:space="preserve">
<style type="text/css">
	.st0{fill:#5C6A7D;}
	.st1{fill:#36485E;}
	.st2{fill-rule:evenodd;clip-rule:evenodd;fill:#253854;}
	.st3{fill-rule:evenodd;clip-rule:evenodd;fill:#1C2A40;}
	.st4{opacity:0.1;fill:#5C6A7D;}
	.st5{stroke:#FFFFFF;stroke-width:1.1226;stroke-miterlimit:10;}
	.st6{stroke:#FFFFFF;stroke-width:2;}
	.st7{fill:none;stroke:#000000;stroke-width:2.2451;}
	.st8{stroke:#FFFFFF;stroke-width:2.2451;}
	.st9{stroke:#FFFFFF;stroke-width:0.3996;}
	.st10{stroke:#000000;stroke-width:2;stroke-miterlimit:10;}
	.st11{fill:none;stroke:#000000;stroke-width:1.5576;stroke-miterlimit:10;}
	.st12{fill:none;stroke:#000000;stroke-width:2.4921;stroke-miterlimit:10;}
	.st13{fill:#FFFFFF;}
	.st14{fill:none;stroke:#000000;stroke-width:2;stroke-miterlimit:10;}
	.st15{stroke:#FFFFFF;stroke-width:0.8419;stroke-miterlimit:10;}
	.st16{stroke:#FFFFFF;stroke-width:0.9022;stroke-miterlimit:10;}
	.st17{fill:#1C2A40;}
	.st18{fill:#1C2A40;stroke:#FFFFFF;stroke-width:0.75;stroke-miterlimit:10;}
	.st19{stroke:#FFFFFF;stroke-width:1.8698;}
	.st20{fill:none;stroke:#1C2A40;stroke-width:2.2451;stroke-miterlimit:10;}
	.st21{fill:#37485E;}
	.st22{fill:#253854;}
	.st23{opacity:0.7;}
	.st24{fill:none;stroke:#1C2A40;stroke-width:0.293;stroke-linecap:round;stroke-linejoin:round;}
	.st25{fill:none;stroke:#1C2A40;stroke-width:0.2791;}
	.st26{opacity:0.8;}
	.st27{fill:none;stroke:#1C2A40;stroke-width:0.2707;stroke-linecap:round;stroke-linejoin:round;}
	.st28{fill:none;stroke:#1C2A40;stroke-width:0.2579;}
	.st29{opacity:0.9;}
	.st30{fill:none;stroke:#1C2A40;stroke-width:0.2637;stroke-linecap:round;stroke-linejoin:round;}
	.st31{fill:none;stroke:#1C2A40;stroke-width:0.2512;}
	.st32{fill:none;stroke:#1C2A40;stroke-width:0.2822;stroke-miterlimit:10;}
	.st33{fill-rule:evenodd;clip-rule:evenodd;fill:#5C6A7D;}
	.st34{fill-rule:evenodd;clip-rule:evenodd;fill:#36485E;}
	.st35{fill:#38485E;}
	.st36{fill:#FFFFFF;stroke:#FFFFFF;stroke-miterlimit:10;}
	.st37{fill:#FFFFFF;stroke:#FFFFFF;stroke-width:3.3656;stroke-miterlimit:10;}
	.st38{fill:#FFFFFF;stroke:#FFFFFF;stroke-width:2.9414;stroke-miterlimit:10;}
	.st39{fill:none;stroke:#FFFFFF;stroke-width:6.6037;stroke-miterlimit:10;}
	.st40{fill:#5C6A7D;stroke:#FFFFFF;stroke-width:1.8473;stroke-miterlimit:10;}
	.st41{fill:#5C6A7D;stroke:#FFFFFF;stroke-width:0.9375;stroke-miterlimit:10;}
	.st42{fill-rule:evenodd;clip-rule:evenodd;fill:#5C6A7D;stroke:#FFFFFF;stroke-width:2;stroke-miterlimit:10;}
	.st43{fill:none;}
	.st44{font-family:'Mathlete-Bulky';}
	.st45{font-size:81.8507px;}
	.st46{enable-background:new    ;}
	.st47{font-size:116px;}
</style>
<g>
	<path class="st17" d="M73.4,149.3c-0.8,4.8-2,13,0.4,12.6c3.4-0.5,97.9,75.7,102,80.3c4.1,4.6,4.7-6.2,4.6-9.7
		c-0.5-2,0-99.8,2-104.9c2-5.1,2-11.3-6.1-11.3c-8.2,0-86-62.4-95.2-69.6S74,53.9,74,69.3c0,12.2,0,53.2,0,69.7"/>
	<path class="st17" d="M248.5,104.6c24.1-1,137.6-20.5,146.3-17.9c6.5-0.1,10.7-2-6.7-8.7c-17.4-6.7-45.5-24-48.6-24.6
		c-3.1-0.5-71.6-34.8-73.7-32.7c-2-1.3-9.5,1.8-14.3,2.6c-4.9,0.8-38.1,3.8-43,4.6c-4.9,0.8-38.1,2.6-46.6,5.6
		c-10.7,1.1-77.5-0.4-78.3,2c-1.2,0.5,0,1,0,1s85.7,70.6,103,74.7S224.4,105.6,248.5,104.6z"/>
	<path class="st17" d="M323.8,217.6 M288.9,225.3 M370,209.5c1.3-0.8,9.5-2,14.3-2.8c4.9-0.8,12.1-1.4,16.9-7.2
		c5.6-10.5,2.3-104.9,2.3-104.9c-0.1-3.3-22.5,0.8-23.5,0c-1-0.8-51.4,6.7-53.5,6.9s-37.1,5.4-44.8,6.7c-7.7,1.3-41.4,4.1-41.4,4.1
		c-4.6,0.3-24.8,3.8-30.4,5.6s-12.8,0.8-15.1,0.8c-2.3,0-2,7.9-3.6,10c-1.5,2-2,96.2-1.4,98.8c0.6,2.6-2.3,14.4-1.1,14.8
		c4.9,1.8,36.8-5.6,38.1-6.1c1.3-0.5,8.9-3.1,13.3-2.6 M334,216.3c0.1,0,0.1,0,0.1,0.1"/>
</g>
<rect x="-25.7" y="-18.6" transform="matrix(2.754643e-02 -0.9996 0.9996 2.754643e-02 -100.7519 177.8033)" class="st43" width="133.5" height="318.6"/>
<text transform="matrix(1.0165 -0.1431 0.1394 0.9902 170.3249 96.9679)" class="st13 st44 st45">Plants</text>
<g>
	<g>
		<g class="st46">
			<path class="st13" d="M103.2,104.1c-0.7-0.5-1.1-0.7-1.2-0.5l-1.8,2.2c-0.3,0.5-0.8,1-1.3,1.6c-0.5,0.6-0.9,1.1-1.2,1.5
				c-0.3,0.4-0.6,0.7-0.7,0.8c-1.3,1.5-2.6,3.2-4,5c-0.6,0.7-0.4,1.4,0.2,1.8c0.4,0.2,0.9,0.5,1.4,0.9c0.6,0.4,0.6,1.3,0.2,1.9
				c-0.5,0.6-1.3,0.8-1.9,0.4s-1.1-0.7-1.6-1c-0.7-0.4-1.3-0.1-1.8,0.6c-0.5,0.7-1.2,1.6-2.1,2.9c-5.6,8.1-8.7,12.5-9.1,13.2
				s-1.3,0.8-1.9,0.4c-0.6-0.4-0.6-1.3-0.2-1.9c0.5-0.6,3.5-5,9.1-13.1c3.7-5.4,6.9-9.6,9.7-12.9c0.1-0.1,0.3-0.4,0.6-0.8
				c0.3-0.4,0.7-0.9,1.2-1.5c0.5-0.6,0.9-1.1,1.2-1.6c0.8-1,1.5-1.8,1.9-2.3c0.3-0.4,0.6-0.7,0.8-0.9c0-0.1,0.2-0.1,0.2-0.2
				c0.1-0.1,0.6-0.4,0.9-0.5l0.1,0l0.6,0l0.3,0.2c0.1,0.1,0.2,0.1,0.4,0.2l1,0.7c1.5,1,6.8,4.6,8.1,5.6c0.6,0.4,0.6,1.3,0.2,1.9
				c-0.5,0.6-1.3,0.8-1.9,0.4c-1.3-0.9-6.5-4.5-8-5.5L103.2,104.1z"/>
			<path class="st13" d="M116.7,112.4c-2.6,3-5.8,7.4-9.8,13.4c-4.7,7-8,11.6-9.8,13.8c-1.7,2.2-2.8,3.8-3.2,5
				c-0.5,1.5-0.4,2.4,1.1,3.1c1.6,0.8,3.2,0.3,5.5-1.6c1.2-1,2.7-2.7,3.5-3.8c0.4-0.6,1-1.4,1.8-2.4c0.7-1.1,1.3-1.8,1.6-2.3
				c0.6-0.9,2.4-3.2,5.4-7.1c2.9-3.9,4.6-6.3,5.2-7.2c0.3-0.6,1-1.6,2-3.2c0.8-1.4,1.6-2.6,2.2-3.4c0.5-0.6,1.3-0.8,1.9-0.4
				c0.6,0.4,0.6,1.3,0.2,1.9c-0.5,0.8-1.2,1.8-2,3.1c-1,1.7-1.7,2.7-2.1,3.4c-0.5,0.9-2.3,3.3-5.2,7.3c-3,3.9-4.8,6.3-5.5,7.2
				c-0.3,0.3-0.8,1-1.5,2.2c-0.8,1.1-1.4,1.9-1.9,2.5c-0.9,1.3-2.6,3.3-4.1,4.4c-2.8,2.3-5.4,3.4-8.3,2c-2.7-1.3-3.2-3.7-2.2-6.4
				c0.5-1.5,1.8-3.5,3.7-5.9c1.6-1.9,4.8-6.5,9.6-13.6c4.1-6,7.4-10.6,10.1-13.7c0.5-0.6,1.3-0.7,1.9-0.2
				C117.2,110.9,117.2,111.7,116.7,112.4z"/>
			<path class="st13" d="M139.1,129c-0.5,0.6-1.3,0.9-1.9,0.5c-1-0.6-2.4-1.7-4.2-3.1c-0.7-0.6-1.3-0.3-1.8,0.4
				c-0.8,1.3-1.7,2.7-3.1,4.4c-0.9,1.2-1.5,1.9-1.7,2.3c-1.1,1.6-3,3.9-5.6,7.3c-5.2,6.6-8.9,11.7-11.4,16.3c-0.4,0.7-1.2,1-1.8,0.7
				c-0.6-0.4-0.9-1.2-0.5-1.8c2.6-4.7,6.5-10.1,11.8-16.8c2.6-3.3,4.4-5.7,5.4-7.1c0.4-0.5,1-1.3,1.9-2.5c0.8-1,1.4-1.8,1.9-2.4
				c-1.1,1.6,0.5-1.4,1-2c0.5-0.8,0.5-1.4-0.2-1.9c-1-0.7-1.9-1.4-2.8-1.9c-0.7-0.4-0.8-1.2-0.3-1.9c0.4-0.7,1.2-0.9,1.8-0.5
				c1.5,0.9,3.3,2.3,5.7,4.1c2.5,2,4.3,3.3,5.5,4.1C139.4,127.5,139.5,128.4,139.1,129z"/>
			<path class="st13" d="M143.5,131.9c-2.6,3-5.8,7.4-9.8,13.4c-4.7,7-8,11.6-9.8,13.8c-1.7,2.2-2.8,3.8-3.2,5
				c-0.5,1.5-0.4,2.4,1.1,3.1c1.6,0.8,3.2,0.3,5.5-1.6c1.2-1,2.7-2.7,3.5-3.8c0.4-0.6,1-1.4,1.8-2.4c0.7-1.1,1.3-1.8,1.6-2.3
				c0.6-0.9,2.4-3.2,5.4-7.1c2.9-3.9,4.6-6.3,5.2-7.2c0.3-0.6,1-1.6,2-3.2c0.8-1.4,1.6-2.6,2.2-3.4c0.5-0.6,1.3-0.8,1.9-0.4
				c0.6,0.4,0.6,1.3,0.2,1.9c-0.5,0.8-1.2,1.8-2,3.1c-1,1.7-1.7,2.7-2.1,3.4c-0.5,0.9-2.3,3.3-5.2,7.3c-3,3.9-4.8,6.3-5.5,7.2
				c-0.3,0.3-0.8,1-1.5,2.2c-0.8,1.1-1.4,1.9-1.9,2.5c-0.9,1.3-2.6,3.3-4.1,4.4c-2.8,2.3-5.4,3.4-8.3,2c-2.7-1.3-3.2-3.7-2.2-6.4
				c0.5-1.5,1.8-3.5,3.7-5.9c1.6-1.9,4.8-6.5,9.6-13.6c4.1-6,7.4-10.6,10.1-13.7c0.5-0.6,1.3-0.7,1.9-0.2
				C144,130.5,144,131.3,143.5,131.9z"/>
			<path class="st13" d="M137.1,164.5c1.1-1.4,1.8-2.3,2.2-2.8c6.3-7.9,11.4-15.1,15.3-21.3c0-0.2,0.1-0.3,0.1-0.5
				c0.3-0.7,1-1.1,1.7-0.9c4.9,1.8,7.3,5.4,7,9.7c-0.2,4.1-3.4,8.2-8.1,9.8c-2.4,0.8-4.7,1.1-7,1c-0.8-0.1-1.3,0.3-1.5,1.3
				c-0.3,1.9-0.9,4.2-1.6,6.9c-0.1,0.7-0.8,2.8-1.9,6.3c-0.8,2.5-1.3,4.5-1.6,6.1c-0.1,0.9-0.7,1.3-1.5,1.3c-0.8,0-1.2-0.7-1.1-1.4
				c0.3-1.8,0.8-3.9,1.6-6.5c1.6-5,2.5-8,3.1-10.9c0.3-1.4,1-3.9-1.5-0.5c-0.3,0.5-0.7,0.9-1,1.3c-0.4,0.5-1.1,1.4-2.2,2.8
				c-1.1,1.3-1.9,2.4-2.4,3c-1.1,1.3-2.8,3.8-4,5.7c-0.4,0.7-1.2,1-1.8,0.6s-0.8-1.2-0.4-1.9c1.2-2,3.1-4.6,4.2-6L137.1,164.5z
				 M146.9,156.3L146.9,156.3c0.5,0.3,0.8,0.4,1.5,0.5c4.2,0.5,8.6-1.3,10.7-3.8c1.1-1.3,1.7-2.7,1.6-4c0.2-2.4-0.9-4.6-3.2-6.2
				c-0.7-0.5-1.3-0.2-1.9,0.5c-2.2,3.4-4.8,7.2-8,11.6C147.1,155.6,146.8,156.2,146.9,156.3z"/>
			<path class="st13" d="M171.7,152.5c-0.6-0.4-0.9-0.6-0.9-0.6c-0.3,0.2-0.6,0.5-1,0.9c-1.5,1.7-3,4-5,7.3c-1,1.5-1.6,2.5-1.8,2.8
				c-0.3,0.3-0.7,1-1.4,2c-0.6,0.8-0.6,1.4,0.1,1.9c0.5,0.4,0.9,0.7,1.4,0.9c0.6,0.4,0.7,1.2,0.3,1.9c-0.5,0.6-1.3,0.9-1.9,0.5
				c-0.4-0.2-1-0.6-1.6-1.1c-0.7-0.5-1.3-0.3-1.9,0.4c-4,5.2-7.4,9.6-9.5,12.9c-0.7,1-1.2,1.8-1.4,2.4c0,0.1-0.1,0.2-0.1,0.3
				c-0.1,0.1,0,0.5,0.5,1c0.9,1,2.3,1.7,3.9,2.7c0.8,0.5,1.4,0.8,1.8,1.1c0.6,0.4,0.6,1.3,0.2,1.9c-0.5,0.6-1.3,0.8-1.9,0.4
				c-0.3-0.2-0.9-0.5-1.6-1c-1-0.6-1.7-1-2-1.3c-1.8-1.1-2.9-2.2-3.4-3.3c-0.5-0.8-0.2-1.7,0.3-2.7c0.3-0.7,0.8-1.7,1.6-2.8
				c2.4-3.7,6.1-8.6,9.1-12.3c1.4-1.9,2.6-3.4,3.7-4.7c1-1.2,1.6-2.1,2-2.6c0.2-0.2,0.7-1.1,1.6-2.5c2.1-3.4,3.8-6,5.3-7.7
				c1-1.1,2.1-2.1,3.2-2.1c0.3,0,0.7,0.1,1.1,0.4l3.3,2.4c2.4,1.9,3.6,2.9,3.9,3c0.7,0.4,0.8,1.2,0.4,1.9c-0.2,0.4-0.5,0.6-0.8,0.7
				c-0.4,0.1-0.7,0-1-0.1c-0.3-0.1-1.7-1.2-4.1-3.2L171.7,152.5L171.7,152.5z"/>
		</g>
	</g>
</g>
<rect x="324.8" y="27.3" transform="matrix(2.180127e-02 -0.9998 0.9998 2.180127e-02 204.3979 519.2473)" class="st43" width="85.5" height="255.7"/>
<text transform="matrix(0.9929 -0.1193 0.1193 0.9929 204.8685 215.5654)" class="st13 st44 st47">Climate</text>
</svg>
