<?xml version="1.0" encoding="utf-8"?>
<!-- Generator: Adobe Illustrator 23.1.1, SVG Export Plug-In . SVG Version: 6.00 Build 0)  -->
<svg version="1.1" id="Ebene_1" xmlns="http://www.w3.org/2000/svg" xmlns:xlink="http://www.w3.org/1999/xlink" x="0px" y="0px"
	 viewBox="0 0 1366 276" style="enable-background:new 0 0 1366 276;" xml:space="preserve">
<style type="text/css">
	.st0{fill:#5C6A7D;}
	.st1{fill:#36485E;}
	.st2{fill-rule:evenodd;clip-rule:evenodd;fill:#253854;}
	.st3{fill-rule:evenodd;clip-rule:evenodd;fill:#1C2A40;}
	.st4{opacity:0.1;fill:#5C6A7D;}
	.st5{stroke:#FFFFFF;stroke-width:1.1226;stroke-miterlimit:10;}
	.st6{stroke:#FFFFFF;stroke-width:2;}
	.st7{fill:none;stroke:#000000;stroke-width:2.2451;}
	.st8{stroke:#FFFFFF;stroke-width:2.2451;}
	.st9{stroke:#FFFFFF;stroke-width:0.3996;}
	.st10{stroke:#000000;stroke-width:2;stroke-miterlimit:10;}
	.st11{fill:none;stroke:#000000;stroke-width:1.5576;stroke-miterlimit:10;}
	.st12{fill:none;stroke:#000000;stroke-width:2.4921;stroke-miterlimit:10;}
	.st13{fill:#FFFFFF;}
	.st14{fill:none;stroke:#000000;stroke-width:2;stroke-miterlimit:10;}
	.st15{stroke:#FFFFFF;stroke-width:0.8419;stroke-miterlimit:10;}
	.st16{stroke:#FFFFFF;stroke-width:0.9022;stroke-miterlimit:10;}
	.st17{fill:#1C2A40;}
	.st18{fill:#1C2A40;stroke:#FFFFFF;stroke-width:0.75;stroke-miterlimit:10;}
	.st19{stroke:#FFFFFF;stroke-width:1.8698;}
	.st20{fill:none;stroke:#1C2A40;stroke-width:2.2451;stroke-miterlimit:10;}
	.st21{fill:#37485E;}
	.st22{fill:#253854;}
	.st23{opacity:0.7;}
	.st24{fill:none;stroke:#1C2A40;stroke-width:0.293;stroke-linecap:round;stroke-linejoin:round;}
	.st25{fill:none;stroke:#1C2A40;stroke-width:0.2791;}
	.st26{opacity:0.8;}
	.st27{fill:none;stroke:#1C2A40;stroke-width:0.2707;stroke-linecap:round;stroke-linejoin:round;}
	.st28{fill:none;stroke:#1C2A40;stroke-width:0.2579;}
	.st29{opacity:0.9;}
	.st30{fill:none;stroke:#1C2A40;stroke-width:0.2637;stroke-linecap:round;stroke-linejoin:round;}
	.st31{fill:none;stroke:#1C2A40;stroke-width:0.2512;}
	.st32{fill:none;stroke:#1C2A40;stroke-width:0.2822;stroke-miterlimit:10;}
	.st33{fill-rule:evenodd;clip-rule:evenodd;fill:#5C6A7D;}
	.st34{fill-rule:evenodd;clip-rule:evenodd;fill:#36485E;}
	.st35{fill:#38485E;}
	.st36{fill:#FFFFFF;stroke:#FFFFFF;stroke-miterlimit:10;}
	.st37{fill:#FFFFFF;stroke:#FFFFFF;stroke-width:3.3656;stroke-miterlimit:10;}
	.st38{fill:#FFFFFF;stroke:#FFFFFF;stroke-width:2.9414;stroke-miterlimit:10;}
	.st39{fill:none;stroke:#FFFFFF;stroke-width:6.6037;stroke-miterlimit:10;}
	.st40{fill:#5C6A7D;stroke:#FFFFFF;stroke-width:1.8473;stroke-miterlimit:10;}
	.st41{fill:#5C6A7D;stroke:#FFFFFF;stroke-width:0.9375;stroke-miterlimit:10;}
	.st42{fill-rule:evenodd;clip-rule:evenodd;fill:#5C6A7D;stroke:#FFFFFF;stroke-width:2;stroke-miterlimit:10;}
</style>
<g>
	<g>
		<path class="st42" d="M755.5,213.9c-11.8,0-23-6.3-29.9-16.7c11.7-11.3,19-26.7,20.5-43.5c0,0,0-0.1,0-0.1c0-0.5,0.1-1,0.1-1.6
			c0-0.2,0-0.3,0-0.5c0-0.4,0.1-0.8,0.1-1.3c0-0.3,0-0.6,0-0.9c0-0.3,0-0.6,0-0.9c0-0.6,0-1.2,0-1.8c0-0.6,0-1.3,0-2
			c0-0.1,0-0.2,0-0.4c0-0.6,0-1.2-0.1-1.8c0-0.1,0-0.1,0-0.2c-0.4-8.9-2.2-19.6-4.8-30.9c-0.1-0.3-0.2-0.7-0.2-1
			c-0.1-0.5-0.2-1-0.3-1.4c-0.1-0.6-0.3-1.2-0.4-1.7c-0.1-0.2-0.1-0.4-0.2-0.6c-0.1-0.4-0.2-0.8-0.3-1.2c6.7-9.7,12-11.8,15.4-11.8
			c7.9,0,17.2,11.2,25.1,30.1c6.8,16.4,11.8,37.3,11.8,49.8C792.4,195.8,775.9,213.9,755.5,213.9L755.5,213.9z M688.5,179l26.2-19
			c2.1-1.5,2.5-4.4,1.1-6.5c-1.5-2.1-4.4-2.6-6.4-1.1l-20.8,15.1v-39.2l17.2-12.5c2.1-1.5,2.5-4.4,1.1-6.5c-1.5-2.1-4.4-2.6-6.4-1.1
			l-11.8,8.6V92.7c0-2.6-2.1-4.6-4.6-4.6c-2.5,0-4.6,2.1-4.6,4.6v51.4l-20.5-14.8c-2.1-1.5-5-1-6.4,1.1c-1.5,2.1-1,5,1.1,6.5
			l25.9,18.7v49.3c-25-2.4-45.1-23.6-48.3-50.6c0-0.1,0-0.1,0-0.2c0-0.4-0.1-0.8-0.1-1.2c0-0.2,0-0.3,0-0.5c0-0.3-0.1-0.7-0.1-1
			c0-0.2,0-0.5,0-0.7c0-0.3,0-0.6,0-0.8c0-0.3,0-0.6,0-0.9c0-0.2,0-0.4,0-0.6c0-0.5,0-1.1,0-1.6c0-0.5,0-1,0-1.5c0-0.1,0-0.3,0-0.4
			c0-0.4,0-0.8,0-1.2c0.4-10.1,2.8-23.7,6.6-37.9c0-0.1,0-0.2,0-0.2c2.7-9.9,6.1-19.9,9.9-29.1C658.6,49,672,33.3,683.9,33.3
			c11.9,0,25.3,15.7,36.8,43.2c3.8,9.2,7.2,19.3,9.9,29.1c0,0.1,0,0.2,0,0.2c3.8,14.2,6.2,27.7,6.6,37.9c0,0.4,0,0.8,0,1.2
			c0,0.1,0,0.3,0,0.4c0,0.5,0,1,0,1.5c0,0.5,0,1.1,0,1.6c0,0.2,0,0.4,0,0.6c0,0.3,0,0.6,0,0.9c0,0.3,0,0.6,0,0.8c0,0.2,0,0.5,0,0.7
			c0,0.3-0.1,0.7-0.1,1c0,0.2,0,0.3,0,0.5c0,0.4-0.1,0.8-0.1,1.2c0,0.1,0,0.1,0,0.2c-3.2,27-23.3,48.3-48.3,50.6V179z M612.3,213.9
			c-20.3,0-36.9-18.1-36.9-40.4c0-12.5,5-33.4,11.8-49.8c7.8-18.8,17.2-30.1,25.1-30.1c3.4,0,8.8,2.1,15.4,11.8
			c-0.1,0.4-0.2,0.8-0.3,1.2c-0.1,0.2-0.1,0.4-0.2,0.6c-0.1,0.6-0.3,1.2-0.4,1.7c-0.1,0.5-0.2,1-0.3,1.4c-0.1,0.3-0.2,0.7-0.2,1
			c-2.7,11.3-4.4,22-4.8,30.9c0,0.1,0,0.1,0,0.2c0,0.6-0.1,1.2-0.1,1.8c0,0.1,0,0.2,0,0.4c0,0.7,0,1.3,0,2c0,0.6,0,1.2,0,1.8
			c0,0.3,0,0.6,0,0.9c0,0.3,0,0.6,0,0.9c0,0.4,0,0.8,0.1,1.3c0,0.2,0,0.3,0,0.5c0,0.5,0.1,1,0.1,1.6c0,0,0,0.1,0,0.1
			c1.6,16.8,8.8,32.2,20.5,43.5C635.3,207.6,624.1,213.9,612.3,213.9L612.3,213.9z M801.6,173.5c0-13.7-5.1-35.7-12.5-53.4
			c-12.3-29.6-25.1-35.8-33.6-35.8c-6.4,0-12.7,3.4-18.6,10.1c-2.3-7.4-4.9-14.7-7.8-21.6c-5.9-14.1-12.3-25.4-19.1-33.6
			C701.7,29.1,692.9,24,683.9,24c-8.9,0-17.7,5.1-26.1,15.2c-6.8,8.2-13.3,19.6-19.1,33.6c-2.9,6.9-5.5,14.2-7.8,21.6
			c-5.9-6.7-12.2-10.1-18.6-10.1c-15.4,0-26.8,19.5-33.6,35.8c-7.4,17.7-12.5,39.6-12.5,53.4c0,25.7,18.2,46.9,41.5,49.4v17.7
			c0,2.6,2.1,4.6,4.6,4.6c2.6,0,4.6-2.1,4.6-4.6v-17.7c12.9-1.4,24.7-8.7,32.4-19.8c8.7,6.3,19,10.2,30,11.1v26.4
			c0,2.6,2.1,4.6,4.6,4.6c2.6,0,4.6-2.1,4.6-4.6v-26.4c11-0.9,21.3-4.8,30-11.1c7.7,11.2,19.5,18.4,32.4,19.8v17.7
			c0,2.6,2.1,4.6,4.6,4.6s4.6-2.1,4.6-4.6v-17.7C783.4,220.4,801.6,199.2,801.6,173.5L801.6,173.5z"/>
	</g>
</g>
</svg>
