<?xml version="1.0" encoding="utf-8"?>
<!-- Generator: Adobe Illustrator 24.2.1, SVG Export Plug-In . SVG Version: 6.00 Build 0)  -->
<svg version="1.1" id="Ebene_1" xmlns="http://www.w3.org/2000/svg" xmlns:xlink="http://www.w3.org/1999/xlink" x="0px" y="0px"
	 viewBox="0 0 1366 768" style="enable-background:new 0 0 1366 768;" xml:space="preserve">
<style type="text/css">
	.st0{opacity:0.1;fill:#5C6A7D;enable-background:new    ;}
	.st1{fill:#38485E;}
	.st2{fill:none;}
	.st3{fill:#1C2A40;}
	.st4{font-family:'IBMPlexSerif-Bold';}
	.st5{font-size:17px;}
	.st6{font-family:'IBMPlexSerif-SemiBold';}
	.st7{font-family:'IBMPlexSerif-Text';}
	.st8{fill-rule:evenodd;clip-rule:evenodd;fill:#253854;}
</style>
<rect x="31.6" y="60.5" class="st0" width="598.2" height="88.6"/>
<rect x="28.5" y="406.4" class="st0" width="598" height="107.3"/>
<rect x="738.6" y="228.2" class="st0" width="599" height="92.2"/>
<g>
	<path class="st1" d="M818.9,449.3h-3.7l4.7-19.8c0.1-0.5-0.2-1.1-0.7-1.2l-4-1c-0.5-0.1-1.1,0.2-1.2,0.7l-5.8,21.3h-2.3
		c0.7-0.9,1-1.9,1-3v-3h-3c-2.4,0-4.5,1.7-4.9,4.1c-1.6-2.2-4.6-2.8-6.9-1.3c-0.1,0.1-0.2,0.1-0.3,0.2c2-8.8,2-8.9,2-9.1
		c0-2.2-1.8-4-4-4c-0.1,0-0.2,0-0.4,0c-1.1-3.1-4.5-4.8-7.6-3.7c-1.7,0.6-3.1,2-3.7,3.7c-2.2-0.2-4.1,1.4-4.3,3.6c0,0.1,0,0.2,0,0.3
		c0,0.3,0,0.7,1.7,6.1c-0.2,0-0.5-0.1-0.7-0.1h-3v3c0,1.1,0.4,2.1,1,3h-4c-0.6,0-1,0.4-1,1c0,9.3,8.7,15.2,11,16.6v3.4
		c0,0.6,0.4,1,1,1h28c0.6,0,1-0.4,1-1v-3.2c2.3-1.4,11-7.3,11-16.6C819.9,449.8,819.5,449.3,818.9,449.3z M815.6,429.5l2.1,0.5
		l-4.6,19.3h-2.8L815.6,429.5z M800.9,448.3c0-1.7,1.3-3,3-3h1v1c0,1.7-1.3,3-3,3h-1V448.3z M794.9,447.3c1.3,0,2.4,0.8,2.8,2H792
		C792.5,448.1,793.7,447.3,794.9,447.3z M789.8,449.3h-5.7c0.6-1.6,2.3-2.4,3.8-1.8C788.8,447.8,789.5,448.5,789.8,449.3z
		 M775.9,437.3c0-1.1,0.8-2,1.9-2c0.3,0,0.5,0,0.8,0.2c0.5,0.2,1.1-0.1,1.3-0.6c0-0.1,0-0.1,0.1-0.2c0.3-2.2,2.4-3.7,4.5-3.3
		c1.7,0.3,3.1,1.6,3.3,3.3c0.1,0.5,0.6,0.9,1.1,0.8c0.1,0,0.1,0,0.2-0.1c1-0.4,2.2,0.1,2.6,1.1c0.1,0.2,0.1,0.5,0.2,0.7
		c-0.1,0.7-1.3,5.7-2.1,9c-0.8-0.6-1.9-1-2.9-1c-2.4,0-4.4,1.7-4.9,4h-2.1v-1c0-1.5-0.7-2.9-1.9-3.9
		C776.2,438.7,776,437.5,775.9,437.3z M773.9,446.3v-1h1c1.7,0,3,1.3,3,3v1h-1C775.3,449.3,773.9,448,773.9,446.3z M807.7,465.3H803
		v2h4v2h-26v-2h13v-2h-13.7c-1.1-0.7-6.8-4.3-9.2-10h11v-2h-11.8c-0.2-0.7-0.3-1.3-0.3-2h47.9c-0.1,0.7-0.2,1.3-0.3,2H796v2h21
		C814.5,461,808.8,464.7,807.7,465.3z"/>
	<rect x="783.9" y="453.3" class="st1" width="2" height="2"/>
	<rect x="787.9" y="453.3" class="st1" width="2" height="2"/>
	<rect x="791.9" y="453.3" class="st1" width="2" height="2"/>
	<path class="st1" d="M792.4,426.7c-0.3,0.6-0.3,1.2-0.2,1.8c0.4,2,2.8,4.1,5.4,4.8c2,0.6,4.1,0.9,6.2,1l0,0c0.6,0,1-0.4,1-1
		c0-0.2-0.1-0.4-0.2-0.6c0,0-1.1-1.6-3-4c-0.8-1.1-3.1-3.7-5.6-4c-0.8-0.1-1.6,0.1-2.3,0.4c-1.1-0.5-1.9-1.6-1.9-2.9h-2
		C789.9,424.1,790.9,425.8,792.4,426.7z M795.6,426.7c0.1,0,0.2,0,0.2,0c1.2,0.1,2.9,1.4,4.3,3.2c0.6,0.8,1.2,1.6,1.6,2.2
		c-1.2-0.2-2.4-0.4-3.6-0.7c-2.1-0.6-3.7-2.1-4-3.3c-0.1-0.4,0-0.8,0.4-1C794.9,426.9,795.2,426.7,795.6,426.7L795.6,426.7z"/>
	<rect x="779.9" y="439.3" class="st1" width="2" height="2"/>
	<rect x="784.9" y="441.3" class="st1" width="2" height="2"/>
	<path class="st1" d="M772.9,427.3c0.3,0,1.2,0.1,2.5,0.1c2.5,0,6.2-0.2,8.1-1.2c1.2-0.7,2.2-1.9,2.6-3.3c0.5-1.3,0.4-2.8-0.2-4.1
		c-1.2-2.3-5-2.7-7.4-1.4c-2.9,1.5-6.1,7.7-6.4,8.4c-0.3,0.5-0.1,1.1,0.4,1.3C772.6,427.3,772.7,427.3,772.9,427.3z M778.7,421.8
		l-3,1.8c0.5-0.7,1-1.5,1.5-2.2L778.7,421.8z M779.9,423.4v1.7c-1.1,0.1-2.2,0.2-3.4,0.3L779.9,423.4z M784.1,422.3
		c-0.2,0.9-0.8,1.7-1.6,2.1c-0.2,0.1-0.4,0.2-0.5,0.2v-2.4l2.4-1.4C784.3,421.3,784.2,421.8,784.1,422.3L784.1,422.3z M783.3,419.1
		l-2.1,1.2l0,0l-2.5-0.6c0.2-0.2,0.5-0.4,0.7-0.5C780.6,418.6,782.1,418.6,783.3,419.1L783.3,419.1z"/>
	<path class="st1" d="M806.9,419.3h2c0.6,0,1-0.4,1-1c0-3.9-3.1-7-7-7h-2c-0.6,0-1,0.4-1,1C799.9,416.2,803.1,419.3,806.9,419.3z
		 M802.9,413.3c2.4,0,4.4,1.7,4.9,4h-0.9c-2.4,0-4.4-1.7-4.9-4H802.9z"/>
	<path class="st1" d="M794.9,419.3c1.7,0,3-1.3,3-3s-1.3-3-3-3s-3,1.3-3,3S793.3,419.3,794.9,419.3z M794.9,415.3c0.6,0,1,0.4,1,1
		s-0.4,1-1,1s-1-0.4-1-1S794.4,415.3,794.9,415.3z"/>
	<path class="st1" d="M805.9,425.3c0,1.7,1.3,3,3,3s3-1.3,3-3s-1.3-3-3-3C807.3,422.3,805.9,423.7,805.9,425.3z M809.9,425.3
		c0,0.6-0.4,1-1,1s-1-0.4-1-1s0.4-1,1-1C809.5,424.3,809.9,424.8,809.9,425.3z"/>
	<rect x="798.9" y="438.3" class="st1" width="2" height="2"/>
	<rect x="801.9" y="421.3" class="st1" width="2" height="2"/>
	<rect x="785.9" y="412.3" class="st1" width="2" height="2"/>
	<rect x="806.9" y="434.3" class="st1" width="2" height="2"/>
</g>
<g>
	<path class="st1" d="M554.1,254.7c-0.8-0.1-6.9-0.4-10.5,2.9c-1.7,1.6-2.6,3.8-2.5,6.1c-0.2,2,1.2,3.8,3.2,4c0.3,0,0.5,0,0.8,0
		c2.6,0,4-1.5,4-3s0-2,5-2s5,0.5,5,2s1.4,3,4,3c2,0.2,3.8-1.2,4-3.2c0-0.3,0-0.5,0-0.8c0.1-2.3-0.8-4.5-2.5-6.1
		C561,254.4,554.9,254.7,554.1,254.7z M563.1,265.7c-1.3,0-2-0.5-2-1c0-3-1-4-7-4s-7,1-7,4c0,0.5-0.7,1-2,1c-1.4,0-2-0.6-2-2
		c-0.1-1.7,0.6-3.4,1.9-4.6c0.8-0.7,1.7-1.2,2.6-1.5c-0.3,0.7-0.5,1.4-0.5,2.1h2c0-1.3,0.8-2.4,2-2.9c0.6-0.1,1.3-0.1,2-0.1v2h2v-2
		c0.7,0,1.3,0,1.9,0.1c1.2,0.5,2,1.6,2.1,2.9h2c0-0.7-0.2-1.5-0.5-2.2c1,0.3,1.9,0.9,2.6,1.5c1.3,1.2,1.9,2.9,1.9,4.6
		C565.1,265.2,564.5,265.7,563.1,265.7z"/>
	<path class="st1" d="M553.1,280.9l-2-0.3l-1,7c-0.1,0.5,0.3,1.1,0.8,1.1h0.1h4v-2h-2.8L553.1,280.9z"/>
	<path class="st1" d="M588.5,267c-6.3-3.1-10.6-3.1-16.9,0c-0.7,0.4-1.4,0.8-2,1.2c0.9-1.3,1.4-2.9,1.4-4.5c0-5.5-4.4-10.6-8.6-12.7
		c-6.3-3.1-10.6-3.1-16.9,0c-4.2,2.1-8.6,7.4-8.6,12.7c0,4.4,3.6,8,8,8c1.1,0,2.2-0.3,3.2-0.8l-2.2,15.6c-0.2,1.6,0.3,3.2,1.3,4.4
		c0.9,1.1,2.3,1.7,3.7,1.8h6c1.4,0,2.8-0.7,3.7-1.8c1-1.2,1.5-2.8,1.3-4.4l-2.2-15.6c1,0.5,2.1,0.8,3.2,0.8c1.4,0,2.7-0.3,3.9-1
		c-2.3,2.4-3.7,5.6-3.9,9c0,4.4,3.6,8,8,8c1.1,0,2.2-0.3,3.2-0.8l-2.2,15.6c-0.2,1.6,0.3,3.2,1.3,4.4c0.9,1.1,2.3,1.7,3.7,1.8h6
		c1.4,0,2.8-0.7,3.7-1.8c1-1.2,1.5-2.8,1.3-4.4l-2.2-15.6c1,0.5,2.1,0.8,3.2,0.8c4.4,0,8-3.6,8-8C597.1,274.2,592.7,269.1,588.5,267
		z M560.1,286.9c0.1,1-0.2,2-0.9,2.8c-0.5,0.7-1.3,1.1-2.2,1.1h-6c-0.8,0-1.6-0.4-2.2-1.1c-0.7-0.8-1-1.8-0.8-2.8l2.5-17.6
		c0.4-0.5,0.8-1,1.1-1.5h4.8c0.3,0.5,0.7,1.1,1.1,1.5L560.1,286.9z M563.1,269.7c-2.2,0-4.2-1.4-5.1-3.4c-0.2-0.3-0.5-0.6-0.9-0.6
		h-6c-0.4,0-0.7,0.2-0.9,0.6c-0.9,2.1-2.9,3.4-5.1,3.4c-3.3,0-6-2.7-6-6c0-4.5,3.8-9.1,7.4-10.9c5.7-2.8,9.4-2.8,15.1,0
		c3.7,1.8,7.4,6.4,7.4,10.9C569.1,267,566.4,269.7,563.1,269.7z M586.1,302.9c0.1,1-0.2,2-0.8,2.8c-0.5,0.7-1.3,1.1-2.2,1.1h-6
		c-0.8,0-1.6-0.4-2.2-1.1c-0.7-0.8-1-1.8-0.8-2.8l2.5-17.6c0.4-0.5,0.8-1,1.1-1.5h4.8c0.3,0.5,0.7,1.1,1.1,1.5L586.1,302.9z
		 M589.1,285.7c-2.2,0-4.2-1.4-5.1-3.4c-0.2-0.3-0.5-0.6-0.9-0.6h-6c-0.4,0-0.7,0.2-0.9,0.6c-0.9,2.1-2.9,3.4-5.1,3.4
		c-3.3,0-6-2.7-6-6c0-4.5,3.8-9.1,7.4-10.9c5.7-2.8,9.4-2.8,15.1,0c3.7,1.8,7.4,6.4,7.4,10.9C595.1,283,592.4,285.7,589.1,285.7z"/>
	<path class="st1" d="M580.1,270.7c-0.8-0.1-6.9-0.4-10.5,2.9c-1.7,1.6-2.6,3.8-2.5,6.1c-0.2,2,1.2,3.8,3.2,4c0.3,0,0.5,0,0.8,0
		c2.6,0,4-1.5,4-3s0-2,5-2s5,0.5,5,2s1.4,3,4,3c2,0.2,3.8-1.2,4-3.2c0-0.3,0-0.5,0-0.8c0.1-2.3-0.8-4.5-2.5-6.1
		C587,270.4,580.9,270.7,580.1,270.7z M589.1,281.7c-1.3,0-2-0.5-2-1c0-3-1-4-7-4s-7,1-7,4c0,0.5-0.7,1-2,1c-1.4,0-2-0.6-2-2
		c-0.1-1.7,0.6-3.4,1.9-4.6c0.8-0.7,1.7-1.2,2.6-1.5c-0.3,0.7-0.5,1.4-0.5,2.1h2c0-1.3,0.8-2.5,2-2.9c0.6-0.1,1.3-0.1,2-0.1v2h2v-2
		c0.7,0,1.3,0,1.9,0.1c1.2,0.5,2,1.6,2.1,2.9h2c0-0.7-0.2-1.5-0.5-2.2c1,0.3,1.9,0.9,2.6,1.5c1.3,1.2,1.9,2.9,1.9,4.6
		C591.1,281.2,590.5,281.7,589.1,281.7z"/>
	<path class="st1" d="M579.1,296.9l-2-0.3l-1,7c-0.1,0.5,0.3,1.1,0.8,1.1h0.1h4v-2h-2.8L579.1,296.9z"/>
	<rect x="581.1" y="297.7" class="st1" width="2" height="2"/>
	<rect x="578.1" y="290.7" class="st1" width="2" height="2"/>
	<rect x="554.1" y="275.7" class="st1" width="2" height="2"/>
</g>
<g>
	<path class="st1" d="M337.1,275.4c-0.3-0.3-0.4-0.7-0.4-1.1h-1h-1c0,1,0.5,2,1.3,2.7c0.5,0.3,1,0.5,1.6,0.5c0.5,0,1-0.1,1.4-0.3
		l-0.6-1.9C338,275.5,337.4,275.6,337.1,275.4z"/>
	<path class="st1" d="M384.7,269.3c-1.1,0-2.2,0.3-3.1,0.9c-0.3-0.4-0.7-0.7-1.1-1c1.4-1.6,2.2-3.7,2.2-5.9c0-3.4-2-6.6-5.1-8.1
		c0.1-0.3,0.1-0.6,0.1-0.9c0-3.3-2.7-6-6-6c-1.1,0-2.2,0.3-3.1,0.9c-1.9-2.5-4.8-3.9-7.9-3.9c-4.4,0-8.2,2.9-9.5,7
		c-3.2-0.3-6,2.1-6.4,5.3c-3.7,1.1-5.8,4.9-4.8,8.6c0.3,1,0.8,1.9,1.4,2.6c-0.6,0.3-1.2,0.8-1.6,1.3c-0.9-0.6-2-0.9-3.1-0.9
		c-3.3,0-6,2.7-6,6c0,2,1,3.8,2.6,4.9c-0.4,0.6-0.6,1.3-0.6,2.1c0,2.2,1.8,4,4,4c1.5,0,2.9-0.9,3.6-2.2c0.5,0.1,0.9,0.2,1.4,0.2
		c0.2,0,0.4,0,0.6-0.1c3.9,2.2,12.4,8.3,12.4,20.1c0,0.6,0.4,1,1,1h10c0.5,0,1-0.4,1-0.9c0-0.1,0.9-14.4,11-20.5
		c0.6,0.3,1.3,0.4,2,0.4c0.5,0,1-0.1,1.4-0.2c1,2,3.4,2.8,5.3,1.8c1.4-0.7,2.2-2.1,2.2-3.6c0-0.7-0.2-1.4-0.6-2.1
		c2.7-1.9,3.4-5.6,1.5-8.4C388.5,270.3,386.6,269.3,384.7,269.3z M345.9,259.4c0.5-0.1,0.8-0.5,0.8-1v-0.1c0-2.2,1.8-4,4-4
		c0.3,0,0.6,0,0.9,0.1s0.5,0,0.8-0.1c0.2-0.1,0.4-0.4,0.5-0.6c0.8-3.7,4-6.4,7.8-6.4c2.8,0,5.4,1.4,6.8,3.8c0.3,0.5,0.9,0.6,1.4,0.3
		c0.1,0,0.1-0.1,0.1-0.1c0.7-0.7,1.7-1,2.7-1c2.2,0,4,1.8,4,4c0,0.4-0.1,0.8-0.2,1.2c-0.2,0.5,0.1,1.1,0.6,1.2
		c2.8,1,4.6,3.6,4.6,6.6c0,1.9-0.8,3.8-2.2,5.1c-0.3,0-0.5-0.1-0.8-0.1c-2.7,0-5,2.2-5,5c0,0.2,0,0.4,0,0.6
		c-1.4,1.7-3.9,1.9-5.6,0.5c-0.4-0.3-1.1-0.3-1.4,0.1c0,0,0,0.1-0.1,0.1c-1.8,2.8-5.5,3.5-8.3,1.7c-0.7-0.4-1.3-1-1.7-1.7
		c-0.3-0.5-0.9-0.6-1.4-0.3c0,0-0.1,0-0.1,0.1c-1.7,1.4-4.2,1.2-5.6-0.5c0.3-2.7-1.6-5.2-4.3-5.6c-0.2,0-0.4,0-0.6,0
		c-2.2-1.6-2.7-4.8-1-7C343.4,260.3,344.6,259.6,345.9,259.4L345.9,259.4z M375,277.5C375,277.6,375,277.6,375,277.5
		c-4.4,1.9-8,5-10.6,9l0.9-8.7c0.5-0.4,1-0.8,1.4-1.3c0.9,0.5,1.9,0.8,2.9,0.8c1.4,0,2.7-0.5,3.8-1.4
		C373.9,276.6,374.4,277.1,375,277.5z M357.4,289.1c-2.6-4.4-6.3-8-10.8-10.4c0-0.4-0.1-0.7-0.3-1.1c0.6-0.4,1.2-0.9,1.6-1.6
		c1.1,0.9,2.4,1.3,3.8,1.3c1,0,2-0.3,2.9-0.8c0.6,0.7,1.4,1.4,2.3,1.8L357.4,289.1z M341.7,282.3c-0.5,0-1.1-0.2-1.5-0.4
		c-0.5-0.3-1.1-0.1-1.4,0.3c-0.1,0.1-0.1,0.2-0.1,0.4c-0.1,1.1-1.1,1.9-2.2,1.7c-1-0.1-1.8-1-1.8-2c0-0.6,0.3-1.2,0.8-1.6
		c0.4-0.3,0.5-1,0.2-1.4c-0.1-0.1-0.3-0.2-0.4-0.3c-2.1-0.8-3.1-3.1-2.3-5.2c0.8-2.1,3.1-3.1,5.2-2.3c0.5,0.2,0.9,0.5,1.3,0.8
		c0.4,0.4,1,0.3,1.4-0.1c0.1-0.1,0.1-0.2,0.2-0.3c0.7-1.5,2.5-2.2,4-1.5s2.2,2.5,1.5,4c-0.3,0.7-1,1.3-1.8,1.6
		c-0.5,0.2-0.8,0.8-0.6,1.3c0,0.1,0.1,0.2,0.1,0.2c0.9,1.4,0.6,3.2-0.8,4.2C342.9,282.1,342.3,282.3,341.7,282.3z M364.8,303.3h-8.1
		c-0.4-10.9-7.6-17.2-12-20c0.8-0.6,1.5-1.5,1.8-2.5c5.3,3.1,9.3,8,11.3,13.8c0.1,0.4,0.5,0.7,1,0.7c0.1,0,0.1,0,0.2,0
		c0.5-0.1,0.9-0.5,0.8-1l-0.8-15.1c1.4,0.3,2.9,0.2,4.3-0.2l-1.5,14.3c-0.1,0.5,0.3,1,0.8,1.1c0.1,0,0.1,0,0.2,0
		c0.5,0,0.9-0.3,1-0.8c1.4-6,5.5-11,11.1-13.6c0.1,1,0.5,2,1.2,2.7C367,288.5,365.1,299.9,364.8,303.3z M386.2,279
		c-0.5,0.2-0.8,0.8-0.6,1.3c0.1,0.2,0.2,0.3,0.3,0.4c0.9,0.7,1,1.9,0.4,2.8c-0.4,0.5-1,0.8-1.6,0.8c-1,0-1.8-0.7-2-1.7
		c0-0.3-0.3-0.6-0.6-0.8c-0.1-0.1-0.3-0.1-0.4-0.1c-0.2,0-0.4,0-0.5,0.1c-0.5,0.3-1,0.4-1.5,0.4c-1.7,0-3-1.3-3-3
		c0-0.6,0.2-1.2,0.5-1.7s0.2-1.1-0.3-1.4c-0.1,0-0.1-0.1-0.2-0.1c-1.6-0.5-2.4-2.2-1.8-3.8c0.5-1.6,2.2-2.4,3.8-1.8
		c0.8,0.3,1.4,0.8,1.7,1.6c0.2,0.5,0.8,0.7,1.3,0.5c0.1,0,0.2-0.1,0.3-0.2c1.6-1.5,4.1-1.4,5.6,0.2s1.4,4.1-0.2,5.6
		C387,278.6,386.6,278.9,386.2,279L386.2,279z"/>
	<path class="st1" d="M384.3,275.4c-0.3,0.2-0.9,0.1-1.3,0l-0.6,1.9c0.5,0.2,0.9,0.2,1.4,0.3c0.6,0,1.1-0.2,1.6-0.5
		c0.8-0.7,1.3-1.7,1.3-2.7h-2C384.7,274.7,384.5,275.1,384.3,275.4z"/>
	<path class="st1" d="M360.7,251.3v-2c-3.2-0.1-5.9,2.4-6,5.6c0,0.1,0,0.3,0,0.4h2c-0.1-2.1,1.6-3.9,3.7-4
		C360.5,251.3,360.6,251.3,360.7,251.3z"/>
	<path class="st1" d="M352.7,258.3v-2c-2.1-0.1-3.9,1.6-4,3.8c0,0.1,0,0.2,0,0.2h2c-0.1-1,0.7-1.9,1.8-2
		C352.5,258.3,352.6,258.3,352.7,258.3z"/>
	<path class="st1" d="M371.7,255.3h2c0-1.6-1.2-3-2.8-3c-0.1,0-0.1,0-0.2,0v2c0.5-0.1,1,0.3,1,0.8
		C371.7,255.2,371.7,255.3,371.7,255.3z"/>
	<path class="st1" d="M377.5,266.9c1.6-2.1,1.6-5.1,0-7.2l-1.6,1.2c1,1.4,1,3.4,0,4.8L377.5,266.9z"/>
	<path class="st1" d="M368.7,268.3c2.2,0,4-1.8,4-4h-2c0,1.1-0.9,2-2,2s-2-0.9-2-2h-2C364.7,266.5,366.5,268.3,368.7,268.3z"/>
	<path class="st1" d="M355.7,271.3c2.2,0,4-1.8,4-4h-2c0,1.1-0.9,2-2,2s-2-0.9-2-2h-2C351.7,269.5,353.5,271.3,355.7,271.3z"/>
	<path class="st1" d="M357.7,259.3h-2c0,2.2,1.8,4,4,4s4-1.8,4-4h-2c0,1.1-0.9,2-2,2C358.6,261.3,357.7,260.4,357.7,259.3z"/>
	<rect x="347.7" y="263.3" class="st1" width="2" height="2"/>
	<rect x="363.7" y="269.3" class="st1" width="2" height="2"/>
	<rect x="367.7" y="255.3" class="st1" width="2" height="2"/>
	<rect x="358.7" y="299.3" class="st1" width="2" height="2"/>
	<rect x="361.7" y="296.3" class="st1" width="2" height="2"/>
</g>
<g>
	<path class="st1" d="M1097,455.1c0,0.6,0.4,1,1,1h4c0.6,0,1-0.4,1-1c0-1.3,0.8-2.4,2-2.8v5.8h-5c-0.6,0-1,0.4-1,1
		c0,3.5,2.6,6.4,6,6.9v2.2c-2.1,0.6-3.4,2.7-2.9,4.9c0.6,2.1,2.7,3.4,4.9,2.9s3.4-2.7,2.9-4.9c-0.4-1.4-1.5-2.5-2.9-2.9v-2.1h5
		c0.6,0,1-0.4,1-1c0-3.5-2.6-6.4-6-6.9v-5.9c1.2,0.4,2,1.6,2,2.8c0,0.6,0.4,1,1,1h4c0.6,0,1-0.4,1-1c0-2.7-1.2-5.3-3.4-7h0.4
		c1.7,0,3-1.3,3-3v-6c0-1.7-1.3-3-3-3h-1.1c2.8-2.7,2.8-7.1,0.1-9.9c-0.4-0.4-0.8-0.7-1.2-1c3.2-1.5,5.2-4.7,5.2-8.1
		c0-0.6-0.4-1-1-1h-4c-0.6,0-1,0.4-1,1c0,1.3-0.8,2.4-2,2.8v-2.8c0-0.6-0.4-1-1-1s-1,0.4-1,1v2.8c-1.2-0.4-2-1.5-2-2.8
		c0-0.6-0.4-1-1-1h-4c-0.6,0-1,0.4-1,1c0,3.5,2,6.7,5.2,8.1c-3.2,2.1-4.2,6.4-2.1,9.7c0.3,0.4,0.6,0.8,1,1.2h-1.1c-1.7,0-3,1.3-3,3
		v6c0,1.7,1.3,3,3,3h0.4C1098.2,449.8,1097,452.4,1097,455.1z M1108,472.1c0,1.1-0.9,2-2,2s-2-0.9-2-2s0.9-2,2-2
		S1108,471,1108,472.1z M1110.9,464.1h-4.9c-2.4,0-4.4-1.7-4.9-4h4.9C1108.4,460.1,1110.4,461.8,1110.9,464.1z M1099.1,418.1h2
		c0.5,2.7,3.2,4.5,5.9,3.9c2-0.4,3.5-1.9,3.9-3.9h2c-0.5,3.8-4.1,6.5-7.9,5.9C1101.9,423.6,1099.5,421.2,1099.1,418.1z M1101,431.1
		c0-2.8,2.2-5,5-5s5,2.2,5,5s-2.2,5-5,5C1103.2,436.1,1101,433.9,1101,431.1z M1100,438.1h12c0.6,0,1,0.4,1,1v1.1
		c-0.7,0.2-1.2,0.6-1.7,1.1s-0.7,0.7-1.3,0.7c-0.6,0-0.8-0.2-1.3-0.7c-1.2-1.5-3.4-1.7-4.9-0.5c-0.2,0.2-0.4,0.3-0.5,0.5
		c-0.5,0.5-0.7,0.7-1.3,0.7c-0.6,0-0.8-0.2-1.3-0.7s-1-0.9-1.7-1.1v-1.1C1099,438.5,1099.4,438.1,1100,438.1z M1100,446.1
		c-0.6,0-1-0.4-1-1v-2.6c0.1,0.1,0.2,0.2,0.3,0.3c1.2,1.5,3.4,1.7,4.9,0.5c0.2-0.2,0.4-0.3,0.5-0.5c0.5-0.5,0.7-0.7,1.3-0.7
		c0.6,0,0.8,0.2,1.3,0.7c1.2,1.5,3.4,1.7,4.9,0.5c0.2-0.2,0.4-0.3,0.5-0.5c0.1-0.1,0.2-0.2,0.3-0.3v2.6c0,0.6-0.4,1-1,1H1100z
		 M1112.9,454.1h-2c-0.5-2.7-3.2-4.5-5.9-3.9c-2,0.4-3.5,1.9-3.9,3.9h-2c0.5-3.8,4.1-6.5,7.9-5.9
		C1110.1,448.6,1112.5,451,1112.9,454.1L1112.9,454.1z"/>
	<path class="st1" d="M1106,432.1c-0.6,0-1-0.4-1-1h-2c0,1.7,1.3,3,3,3s3-1.3,3-3h-2C1107,431.7,1106.5,432.1,1106,432.1z"/>
	<path class="st1" d="M1125,448.1h-2c0,1.7,1.3,3,3,3s3-1.3,3-3h-2c0,0.6-0.4,1-1,1S1125,448.7,1125,448.1z"/>
	<path class="st1" d="M1132,428.1c0.6,0,1-0.4,1-1c0-3.5-2.6-6.4-6-6.9v-3.1c0-0.6-0.4-1-1-1s-1,0.4-1,1v3h-5c-0.6,0-1,0.4-1,1
		c0,3.5,2.6,6.4,6,6.9v2.1c-4.6,0.5-8,4.4-8,8.9c0,0.6,0.4,1,1,1h4c0.6,0,1-0.4,1-1c0-1.3,0.8-2.4,2-2.8v4.9
		c-3.8,0.5-6.5,4.1-5.9,7.9c0.2,1.5,0.9,2.9,2,4h-1.1c-1.7,0-3,1.3-3,3v6c0,1.7,1.3,3,3,3h5v3.1c-2.1,0.6-3.4,2.7-2.9,4.9
		c0.6,2.1,2.7,3.4,4.9,2.9s3.4-2.7,2.9-4.9c-0.4-1.4-1.5-2.5-2.9-2.9V465h5c1.7,0,3-1.3,3-3v-6c0-1.7-1.3-3-3-3h-1.1
		c2.8-2.7,2.8-7.1,0.1-9.9c-1.1-1.1-2.5-1.8-4-2v-4.9c1.2,0.4,2,1.6,2,2.8c0,0.6,0.4,1,1,1h4c0.6,0,1-0.4,1-1c0-4.6-3.4-8.4-8-8.9
		V428h5V428.1z M1128,472.1c0,1.1-0.9,2-2,2s-2-0.9-2-2s0.9-2,2-2S1128,471,1128,472.1z M1121.1,422.1h4.9c2.4,0,4.4,1.7,4.9,4h-4.9
		C1123.6,426.1,1121.6,424.4,1121.1,422.1z M1132,463.1h-12c-0.6,0-1-0.4-1-1v-2.6c0.1,0.1,0.2,0.2,0.3,0.3c1.2,1.5,3.4,1.7,4.9,0.5
		c0.2-0.2,0.4-0.3,0.5-0.5c0.5-0.5,0.7-0.7,1.3-0.7c0.6,0,0.8,0.2,1.3,0.7c1.2,1.5,3.4,1.7,4.9,0.5c0.2-0.2,0.4-0.3,0.5-0.5
		c0.1-0.1,0.2-0.2,0.3-0.3v2.6C1133,462.7,1132.5,463.1,1132,463.1L1132,463.1z M1132,455.1c0.6,0,1,0.4,1,1v1.1
		c-0.7,0.2-1.2,0.6-1.7,1.1s-0.7,0.7-1.3,0.7s-0.8-0.2-1.3-0.7c-1.2-1.5-3.4-1.7-4.9-0.5c-0.2,0.2-0.4,0.3-0.5,0.5
		c-0.5,0.5-0.7,0.7-1.3,0.7s-0.8-0.2-1.3-0.7s-1-0.9-1.7-1.1v-1.1c0-0.6,0.4-1,1-1H1132z M1131,448.1c0,2.8-2.2,5-5,5s-5-2.2-5-5
		s2.2-5,5-5S1131,445.3,1131,448.1z M1132.9,438.1h-2c-0.5-2.7-3.2-4.5-5.9-3.9c-2,0.4-3.5,1.9-3.9,3.9h-2c0.5-3.8,4.1-6.5,7.9-5.9
		C1130.1,432.6,1132.5,435,1132.9,438.1L1132.9,438.1z"/>
</g>
<g>
	<path class="st1" d="M484,258c0-0.1-0.1-0.1-0.1-0.2l-3.8-5.7v-5.7c0-0.6-0.4-1-1-1h-26c-0.6,0-1,0.4-1,1v5.7l-3.8,5.7
		c0,0.1-0.1,0.1-0.1,0.2c0,0.1-0.1,0.2-0.1,0.4v46c0,0.6,0.4,1,1,1h34c0.6,0,1-0.4,1-1v-46C484.1,258.2,484.1,258.1,484,258z
		 M482.1,295.3h-6v-24h6V295.3z M474.1,271.3v2.4c-5.1,2.7-7.2,1.8-9.6,0.9c-1.7-0.8-3.5-1.2-5.4-1.3c-3.3,0.1-6.5,1.4-9,3.6v-5.6
		H474.1z M474.1,269.3h-20v-6h4v-2h-5c-0.6,0-1,0.4-1,1v7h-2v-10h24V269.3z M450.1,279.7c0.9-1,4.3-4.4,9-4.4c1.6,0,3.2,0.4,4.6,1.1
		c2.5,1,5.1,2.1,10.4-0.5v19.4h-24V279.7z M476.1,269.3v-10h6v10H476.1z M477,257.3l2.1-3.2l2.1,3.2H477z M454.1,247.3h2v2h2v-2h12
		v2h2v-2h2v2h2v-2h2v4h-24V247.3z M453.6,253.3h23.6l-2.7,4h-23.6L453.6,253.3z M450.1,297.3h24v6h-24V297.3z M476.1,303.3v-6h6v6
		H476.1z"/>
	<path class="st1" d="M467.1,279.3c-2,0-4.3,3-4.9,5.1c-1.5-1.7-3.6-3.1-5.1-3.1c-0.7,0-1.3,0.3-1.8,0.7c-1.2,1.3-1.2,3.7-1.2,5.7
		v0.5c0,2.8,2.2,5,5,5c2.6,0,4.8-2,5-4.6c1.9,1.1,4.3,0.5,5.5-1.3c0.4-0.6,0.6-1.4,0.6-2.1C470.1,283.9,469.9,279.3,467.1,279.3z
		 M459.1,291.3c-1.7,0-3-1.3-3-3v-0.5c0-1,0-2,0.1-3l2,3.9l1.8-0.9l-2.2-4.4c1.7,0.7,4.3,3.4,4.3,4.8
		C462.1,290,460.7,291.3,459.1,291.3z M466.1,287.3c-1.1,0-2-0.9-2-2c0-1.3,2-4,3-4c0.4,0,1,1.7,1,4
		C468.1,286.4,467.2,287.3,466.1,287.3z"/>
	<rect x="459.1" y="277.3" class="st1" width="2" height="2"/>
	<rect x="469.1" y="291.3" class="st1" width="2" height="2"/>
	<rect x="453.1" y="299.3" class="st1" width="2" height="2"/>
</g>
<g>
	<path class="st1" d="M704.1,291.4h-4v-19c0-0.6-0.4-1-1-1h-11v-19c0-0.6-0.4-1-1-1h-10.2c0.8-2,0.3-4.2-1.1-5.7l-3-3
		c-0.4-0.4-1-0.4-1.4,0c-1.9,2.1-1.9,5.3,0,7.4l1.3,1.3h-7.6c-0.6,0-1,0.4-1,1v19h-9c-0.6,0-1,0.4-1,1v19h-8c-0.6,0-1,0.4-1,1v4
		c0,0.6,0.4,1,1,1h5.6l5.7,4.8c0.2,0.1,0.4,0.2,0.6,0.2h34c0.2,0,0.5-0.1,0.6-0.2l5.7-4.8h5.6c0.6,0,1-0.4,1-1v-4
		C705.1,291.8,704.6,291.4,704.1,291.4z M672.2,244.9l2.2,2.2c0.9,1,1.2,2.5,0.6,3.7l-2.2-2.2C671.9,247.6,671.6,246.2,672.2,244.9z
		 M698.1,291.4h-20v-18h20V291.4z M666.1,253.4h20v18h-20V253.4z M656.1,273.4h20v18h-20V273.4z M691.7,300.4h-33.3l-3.6-3h40.5
		L691.7,300.4z M703.1,295.4h-56v-2h56V295.4z"/>
	<path class="st1" d="M672.1,259.4c-1.7,0-3,1.3-3,3h2c0-0.6,0.4-1,1-1s1,0.4,1,1h2C675.1,260.7,673.7,259.4,672.1,259.4z"/>
	<path class="st1" d="M682.1,279.4c0,1.7,1.3,3,3,3s3-1.3,3-3s-1.3-3-3-3S682.1,277.7,682.1,279.4z M686.1,279.4c0,0.6-0.4,1-1,1
		s-1-0.4-1-1s0.4-1,1-1S686.1,278.8,686.1,279.4z"/>
	<path class="st1" d="M693.1,287.4c0.6,0,1,0.4,1,1h2c0-1.7-1.3-3-3-3s-3,1.3-3,3h2C692.1,287.8,692.5,287.4,693.1,287.4z"/>
	<path class="st1" d="M668.1,280.4c-0.6,0-1-0.4-1-1h-2c0,1.7,1.3,3,3,3s3-1.3,3-3h-2C669.1,279.9,668.6,280.4,668.1,280.4z"/>
	<path class="st1" d="M682.1,261.4h2v-5c0-0.6-0.4-1-1-1h-4v2h3V261.4z"/>
	<path class="st1" d="M660.1,282.4h-2v6c0,0.6,0.4,1,1,1h5v-2h-4V282.4z"/>
	<rect x="666.1" y="287.4" class="st1" width="4" height="2"/>
	<rect x="676.1" y="265.4" class="st1" width="4" height="2"/>
	<rect x="660.1" y="276.4" class="st1" width="4" height="2"/>
	<rect x="691.1" y="277.4" class="st1" width="4" height="2"/>
	<rect x="680.1" y="284.4" class="st1" width="4" height="2"/>
</g>
<g>
	<g>
		<path class="st1" d="M930,458.9h-3.6c-0.5-9.1-8.3-13.6-23.8-13.6s-23.2,4.5-23.8,13.6h-3.6c-0.5,0-1,0.4-1,0.9
			c0,0.3-0.3,7.6,12.9,11.4c0.1,0,0.2,0,0.3,0h30.4c0.1,0,0.2,0,0.3,0c13.2-3.8,12.9-11,12.9-11.4C931,459.3,930.5,458.9,930,458.9z
			 M902.6,447.3c14.3,0,21.3,3.7,21.8,11.6h-2.5c-0.8-8.7-12.8-8.7-19.3-8.7s-18.5,0-19.3,8.7h-2.5
			C881.4,451,888.3,447.3,902.6,447.3z M916.4,458.9c-0.5-3.8-7.2-4.3-13.8-4.3s-13.3,0.5-13.8,4.3h-3.5c0.7-5.5,7.4-6.7,17.3-6.7
			s16.6,1.2,17.3,6.7H916.4z M914.3,458.9h-23.4c0.5-1.2,3-2.3,11.7-2.3S913.9,457.8,914.3,458.9z M917.7,469.3h-30.2
			c-8.8-2.6-10.8-6.6-11.2-8.4h52.6C928.5,462.7,926.5,466.7,917.7,469.3z"/>
	</g>
	<g>
		<path class="st1" d="M917.8,463.2c-1,0.9-2.5,1.6-4.4,2.2c-0.5,0.2-0.8,0.7-0.7,1.2c0.2,0.5,0.7,0.8,1.2,0.7
			c2.2-0.7,3.9-1.5,5.1-2.5c0.4-0.4,0.5-1,0.1-1.4C918.9,462.9,918.2,462.8,917.8,463.2z"/>
	</g>
	<g>
		<path class="st1" d="M933.6,406.4c-4.4-1-33.4,13.3-33.7,13.4c-0.7,0.3-1.2-0.2-1.3-0.3c-0.8-0.6-1.9-0.7-2.9-0.3l-16.2,6.7
			c-0.6,0.2-0.8,0.8-0.6,1.3s0.8,0.8,1.3,0.5l11.4-4.7l0.8,1.8c-0.1,0.1-12.1,5-11.4,4.7c-0.5,0.2-0.8,0.8-0.5,1.3
			c0.2,0.4,0.5,0.6,0.9,0.6c0.1,0,0.3,0,0.4-0.1l0.6-0.3c-0.3,0.5-0.5,1.2-0.1,2.1c0,0.1,0.1,0.1,0.1,0.2c-0.4,0.3-0.5,0.7-0.4,1.2
			c0.5,1.1,1.7,0.4,2.3,0.1c1.1,0.3,1.2,0.3,0.7,1.2c-1.2,2-0.6,3.6,1.7,4.2c0.6,0.1,0.7,0.2,0.8,0.4c0.2,0.5-1.5,1.7-0.8,3.4
			c0.2,0.4,0.5,0.6,0.9,0.6c0.1,0,0.3,0,0.4-0.1c0.5-0.2,0.8-0.8,0.5-1.3c-0.1-0.2,0-0.3,0.3-0.8c0.4-0.6,0.9-1.5,0.4-2.6
			c-0.9-2.3-3.8-0.9-2.6-2.7c0.7-1.1,0.9-2.2,0.1-3.2l3.1-1.3c0.5,0.1,0.9,0.2,1,0.4c0.2,0.5-1.5,1.7-0.8,3.4
			c0.7,1.8,2.7,1.4,2.9,1.9s-1.5,1.7-0.7,3.4c0.2,0.5,0.8,0.8,1.3,0.5c0.5-0.2,0.8-0.8,0.5-1.3c-0.2-0.5,1.5-1.7,0.7-3.4
			c-1-2.3-3.8-0.8-2.6-2.7c0.7-1.1,0.9-2.2,0.1-3.2l7.3-3c2.5-1,1.3-3.3,2.6-3.7c0.3-0.1,30.8-10.5,33.2-14.2
			C936.1,409.1,935.1,406.7,933.6,406.4z M893.9,428.6l-4.2,1.7c-0.5-0.4,0.7-1.2,0.8-2.5l2.6-1.1L893.9,428.6z M887.9,428.9
			c-0.4,0.8-0.4,1.4-0.1,2.2l-3.7,1.5c-0.5-0.4,0.8-1.2,0.8-2.5L887.9,428.9z M933.6,409.4c-1.3,2.1-21.7,10-32.2,13.4
			c-2.7,0.9-1.5,3.2-2.7,3.7l-3,1.2l-2.3-5.5l3-1.2c0.7-0.3,1.1,0.3,1.3,0.3c0.9,0.7,2.1,0.7,3.1,0.2c9.9-5,29.9-13.9,32.3-13.3
			C933.4,408.4,933.7,409.2,933.6,409.4z"/>
	</g>
</g>
<g>
	<path class="st1" d="M992.5,445.5c-0.6,0-1,0.4-1,1c0,0.4,0.2,0.8,0.6,0.9c4.9,2,12.2,3.1,19.9,3.1c12.6,0,26-3.2,26-9
		c0-5.7-13.1-8.9-25.5-9l0,0c-0.6,0-1,0.4-1,1c0,0.4,0.2,0.8,0.6,0.9c3.1,1.2,4.9,2.7,4.9,4.1c0,1-0.5,2-1.2,2.7
		C1011.8,445,999.3,445.7,992.5,445.5L992.5,445.5z M1017.2,442.6c1.2-1.1,1.8-2.6,1.8-4.1c0-1.1-0.5-2.4-2.3-3.9
		c11.6,0.7,19.3,4,19.3,6.9c0,3.3-9.9,7-24,7c-4.2,0-8.4-0.3-12.5-1.1C1005.6,447.1,1013.6,446,1017.2,442.6L1017.2,442.6z"/>
	<path class="st1" d="M989.5,438.5c0,0.1,0,0.2,0,0.3c-1.5,0.6-2.5,2.1-2.5,3.7c0,0.3,0.1,0.6,0.4,0.8c1,0.7,2.1,1.2,3.3,1.6
		c0.1,0,0.2,0.1,0.3,0.1c0.6,0,1-0.4,1-1c0-0.4-0.3-0.8-0.7-0.9c-0.8-0.3-1.5-0.6-2.3-1c0.2-0.8,0.9-1.4,1.7-1.5
		c0.5-0.1,0.9-0.5,0.9-1.1c0-0.1,0-0.2-0.1-0.2c-0.2-0.5-0.2-1,0.1-1.5c0.3-0.6,1-1.1,1.7-1.2c0.5-0.1,0.9-0.6,0.8-1.2v-0.1
		c-0.1-0.3-0.2-0.7-0.1-1c0.2-0.8,0.8-1.5,1.7-1.7c0.5-0.1,0.8-0.5,0.8-1v-0.1c0-1.1,0.9-2,2-2l0,0h0.1c0.3,0,0.6-0.1,0.8-0.3
		c0.7-0.8,2-0.9,2.8-0.1c0.1,0,0.1,0.1,0.1,0.1c0.2,0.2,0.5,0.4,0.8,0.3h0.2c1.1,0,2,0.9,2,2v0.1c0,0.5,0.3,0.9,0.8,1
		c0.8,0.2,1.5,0.8,1.7,1.7c0.1,0.3,0,0.7-0.1,1c-0.2,0.5,0.1,1.1,0.6,1.3h0.1c0.7,0.1,1.4,0.5,1.7,1.2c0.2,0.5,0.2,1,0.1,1.5
		c-0.2,0.5,0.1,1.1,0.6,1.3c0.1,0,0.2,0,0.2,0.1c0.4,0.1,0.8,0.3,1.1,0.6c0.4,0.4,1,0.4,1.4,0.1c0.4-0.4,0.4-1,0.1-1.4l0,0
		c-0.3-0.4-0.8-0.7-1.3-1c0-0.1,0-0.2,0-0.3c0-1.6-1-3.1-2.5-3.7c0-0.1,0-0.2,0-0.3c0-1.7-1-3.1-2.6-3.7c-0.3-1.8-1.9-3.2-3.8-3.3
		c-1.5-1.3-3.8-1.3-5.3,0c-1.9,0.1-3.5,1.4-3.8,3.3c-1.5,0.6-2.6,2.1-2.6,3.7c0,0.1,0,0.2,0,0.3
		C990.5,435.4,989.5,436.8,989.5,438.5z"/>
	<path class="st1" d="M1027,443.5c1.7,0,3-1.3,3-3s-1.3-3-3-3s-3,1.3-3,3C1024,442.1,1025.3,443.5,1027,443.5z M1027,439.5
		c0.6,0,1,0.4,1,1s-0.4,1-1,1s-1-0.4-1-1S1026.4,439.5,1027,439.5z"/>
	<path class="st1" d="M1016.7,446.4l3,1c0.1,0,0.2,0.1,0.3,0.1c0.2,0,0.3,0,0.4-0.1l4-2c0.5-0.2,0.7-0.8,0.4-1.3
		c-0.1-0.2-0.3-0.4-0.4-0.4l-4-2c-0.4-0.2-0.8-0.1-1.2,0.2l-3,3c-0.4,0.4-0.4,1,0,1.4C1016.4,446.3,1016.5,446.4,1016.7,446.4z
		 M1020.2,443.7l1.6,0.8l-1.8,0.9l-1.1-0.4L1020.2,443.7z"/>
	<rect x="1021" y="437.5" class="st1" width="2" height="2"/>
	<rect x="999" y="431.5" class="st1" width="2" height="2"/>
	<rect x="1003" y="434.5" class="st1" width="2" height="2"/>
	<rect x="1006" y="439.5" class="st1" width="2" height="2"/>
	<rect x="1000" y="438.5" class="st1" width="2" height="2"/>
	<rect x="996" y="435.5" class="st1" width="2" height="2"/>
	<rect x="994" y="439.5" class="st1" width="2" height="2"/>
	<rect x="1032" y="440.5" class="st1" width="2" height="2"/>
	<rect x="1013" y="445.5" class="st1" width="2" height="2"/>
	<path class="st1" d="M1043.9,442.4c0-0.2,0.1-0.9,0.1-0.9c0-7.9-14.1-14-32-14c-0.3,0-0.7,0-1,0c-0.7,0-1.4,0-2,0s-1,0.5-1,1l0,0
		c0,0.5,0.5,1,1,1l0,0c0.6,0,1.3,0,1.9,0c0.3,0,0.7,0,1,0c16.3,0,30,5.5,30,12c0,0.2,0,0.6,0,0.6c-0.9,6.2-14.2,11.4-30,11.4
		c-16.3,0-30-5.5-30-12c0-3.3,3.7-6.9,9.4-9.1c0.5-0.2,0.8-0.8,0.6-1.3c-0.2-0.5-0.8-0.8-1.3-0.6c-6.6,2.5-10.6,6.7-10.6,10.9
		c0,0,0,0.8,0.1,0.9c0.4,3.3,2.9,14.6,18.9,18.6v3.2c0,0.5,0.3,0.9,0.8,1c4,0.9,8.1,1.3,12.2,1.2c4.1,0,8.2-0.4,12.2-1.2
		c0.5-0.1,0.8-0.5,0.8-1v-3.2C1041,457,1043.5,445.7,1043.9,442.4z M1023,463.4c-3.6,0.7-7.3,1.1-11,1c-3.7,0-7.4-0.3-11-1v-2
		c3.6,0.7,7.3,1,11,1s7.4-0.3,11-1V463.4z M1012,460.5c-17.9,0-25.1-6.7-28-12.2c5.4,4.3,15.8,7.2,28,7.2c12.1,0,22.4-2.8,27.9-7
		C1036.8,453.9,1029.6,460.5,1012,460.5z"/>
</g>
<g>
	<g>
		<path class="st1" d="M708.4,619.4h-1v-1c0-2.8-2.2-5-5-5h-8c-0.6,0-1,0.4-1,1s0.4,1,1,1h8c1.7,0,3,1.3,3,3v1h-35c-0.6,0-1,0.4-1,1
			s0.4,1,1,1h38c0.6,0,1,0.4,1,1v1h-54v-1c0-0.6,0.4-1,1-1h10c0.6,0,1-0.4,1-1s-0.4-1-1-1h-7v-1c0-1.7,1.3-3,3-3h28c0.6,0,1-0.4,1-1
			s-0.4-1-1-1h-28c-2.8,0-5,2.2-5,5v1h-1c-1.7,0-3,1.3-3,3v8c0,2.8,2.2,5,5,5c1.6,0,3.1-0.7,4-2c1.6,2.2,4.7,2.7,6.9,1.1
			c0.4-0.3,0.8-0.7,1.1-1.1c1.6,2.2,4.7,2.7,6.9,1.1c0.4-0.3,0.8-0.7,1.1-1.1c1.6,2.2,4.7,2.7,6.9,1.1c0.4-0.3,0.8-0.7,1.1-1.1
			c1.6,2.2,4.7,2.7,6.9,1.1c0.4-0.3,0.8-0.7,1.1-1.1c0.9,1.3,2.4,2,4,2c0.6,0,1-0.4,1-1s-0.4-1-1-1c-1.7,0-3-1.3-3-3v-5h6v5
			c0,2.8,2.2,5,5,5c1.1,0,2.1-0.4,3-1v21H694c2.2-1.2,3.5-3.5,3.4-6c0-0.3,0-0.7-0.1-1h2.1c0.6,0,1-0.4,1-1c0-1.1,0.9-2,2-2
			s2,0.9,2,2c0,0.5-0.2,1-0.5,1.3c-0.3,0.4-0.3,1,0,1.3c0.3,0.4,0.5,0.8,0.5,1.3c0,1.1-0.9,2-2,2s-2-0.9-2-2c0-0.6-0.4-1-1-1
			s-1,0.4-1,1c0,2.2,1.8,4,4,4s4-1.8,4-4c0-0.7-0.2-1.4-0.5-2c0.4-0.6,0.5-1.3,0.5-2c0-2.2-1.8-4-4-4c-1.8,0-3.4,1.2-3.9,3h-1.8
			c-2.1-4.6-9-5-11.4-5c-1.9,0-3.8,0.7-5.2,1.9c-0.3-0.1-0.6-0.4-0.8-0.6c-2-2.5-5.1-3.7-8.3-3.2c-0.6,0.1-1.2,0.2-1.7,0.4
			c-4.7-1.7-9.8,0.8-11.5,5.5c-1.1,3.1-0.4,6.5,1.8,9c0.3,0.4,0.7,0.7,1.1,1h-5.4v-18c0-0.6-0.4-1-1-1s-1,0.4-1,1v35
			c0,0.6,0.4,1,1,1s1-0.4,1-1v-11h54v11c0,0.6,0.4,1,1,1s1-0.4,1-1v-50C711.4,620.8,710.1,619.4,708.4,619.4z M658.4,633.4
			c-1.7,0-3-1.3-3-3v-5h6v5C661.4,632.1,660.1,633.4,658.4,633.4z M666.4,633.4c-1.7,0-3-1.3-3-3v-5h6v5
			C669.4,632.1,668.1,633.4,666.4,633.4z M674.4,633.4c-1.7,0-3-1.3-3-3v-5h6v5C677.4,632.1,676.1,633.4,674.4,633.4z M682.4,633.4
			c-1.7,0-3-1.3-3-3v-5h6v5C685.4,632.1,684.1,633.4,682.4,633.4z M690.4,633.4c-1.7,0-3-1.3-3-3v-5h6v5
			C693.4,632.1,692.1,633.4,690.4,633.4z M706.4,633.4c-1.7,0-3-1.3-3-3v-5h6v5C709.4,632.1,708.1,633.4,706.4,633.4z M695.4,649.4
			c0,4.4-4.7,5.6-8,5.9c0.1-0.1,0.2-0.2,0.2-0.2c2.6-2.9,2.3-7.3-0.5-9.9c-0.9-0.8-2-1.4-3.1-1.6c0.5-0.1,1-0.2,1.5-0.2
			C688.4,643.4,695.4,644,695.4,649.4z M671.4,641.5c2.4-0.4,4.9,0.6,6.4,2.5c0.9,1.1,2.3,1.7,3.7,1.5c0.6-0.1,1.2-0.1,1.8,0
			c2.7,0.5,4.5,3.2,3.9,5.9c-0.5,2.3-2.5,4-4.9,4h-10c-3.9,0-7-3.1-7-7C665.4,645,667.9,642,671.4,641.5z M661.2,653.1
			c-1.3-1.5-2-3.5-1.7-5.5c0.4-3.1,2.8-5.6,5.9-6.1c0.5-0.1,0.9-0.1,1.4,0c-3.9,3.1-4.5,8.7-1.4,12.5c0.4,0.5,0.9,1,1.5,1.5h-0.4
			C664.4,655.4,662.5,654.6,661.2,653.1L661.2,653.1z M655.4,659.4v-2h54v2H655.4z"/>
		<path class="st1" d="M672.4,653.4h6c0.6,0,1-0.4,1-1s-0.4-1-1-1h-6c-1.7,0-3-1.3-3-3c0-0.1,0-0.3,0-0.4c0.2-1.3,1.2-2.4,2.5-2.6
			c1.1-0.2,2.1,0.2,2.8,1.1c1.8,2.3,4.7,3.4,7.5,2.9c0.1,0,0.3,0,0.4,0c0.4,0.1,0.7,0.4,0.8,0.8v0.1c0,0.6-0.4,1-1,1s-1,0.4-1,1
			s0.4,1,1,1c1.7,0,3-1.3,3-3c0-0.1,0-0.2,0-0.4c-0.2-1.3-1.1-2.3-2.4-2.6c-0.4-0.1-0.7-0.1-1.1,0c-2.1,0.3-4.3-0.5-5.6-2.2
			c-1.1-1.4-2.9-2-4.6-1.8c-2.2,0.4-3.9,2.1-4.2,4.3c0,0.2,0,0.4,0,0.6C667.4,651.2,669.6,653.4,672.4,653.4z"/>
		<circle class="st1" cx="672.4" cy="648.4" r="1"/>
		<path class="st1" d="M678.4,663.4h-20c-0.6,0-1,0.4-1,1v8c0,0.6,0.4,1,1,1s1-0.4,1-1v-7h18v7c0,0.6,0.4,1,1,1s1-0.4,1-1v-8
			C679.4,663.9,678.9,663.4,678.4,663.4z"/>
		<path class="st1" d="M706.4,663.4h-20c-0.6,0-1,0.4-1,1v8c0,0.6,0.4,1,1,1s1-0.4,1-1v-7h18v7c0,0.6,0.4,1,1,1s1-0.4,1-1v-8
			C707.4,663.9,706.9,663.4,706.4,663.4z"/>
	</g>
</g>
<path class="st1" d="M916.2,100.2c0,1.2,0.8,2.2,1.8,2.2l39.4,0.1l-11.5,13.7c-0.7,0.8-0.7,2.2,0,3.1c0.7,0.8,1.9,0.9,2.6,0
	l14.7-17.4l0,0c0.1-0.1,0.2-0.2,0.2-0.3c0-0.1,0.1-0.1,0.1-0.2s0.1-0.1,0.1-0.2s0-0.1,0.1-0.2c0-0.1,0-0.1,0-0.2c0-0.3,0-0.6,0-0.9
	c0-0.1,0-0.1,0-0.2s0-0.2-0.1-0.2c0-0.1-0.1-0.1-0.1-0.2s0-0.1-0.1-0.2s-0.1-0.2-0.2-0.3l0,0l-14.5-17.5c-0.7-0.9-1.9-0.9-2.6,0
	c-0.7,0.8-0.7,2.2,0,3.1l11.4,13.7L918.1,98C917,98.1,916.2,99,916.2,100.2z"/>
<g>
	<g>
		<path class="st1" d="M705.6,123.6c-2.8,3.5-7.1,5.4-11.5,5.1c-7.6-0.5-13.5-6.8-13.3-14.4V98.7c0-0.6-0.4-1-1-1s-1,0.4-1,1v15.6
			c0,6,3.2,11.5,8.3,14.4h-17c-0.1,0-0.2,0-0.2,0c-7.5-0.6-13.2-6.9-13.1-14.4V98.2c0-0.6-0.4-1-1-1s-1,0.4-1,1v16.1
			c-0.1,8.4,6.3,15.5,14.6,16.4c0.1,0,0.2,0.1,0.4,0.1h25c4.8,0,9.4-2.2,12.4-5.9c0.4-0.4,0.3-1-0.1-1.4
			C706.7,123.1,706,123.2,705.6,123.6C705.7,123.6,705.6,123.6,705.6,123.6L705.6,123.6z"/>
		<path class="st1" d="M703.9,101.6c-2-1.4-3.1-3.7-3.1-6.1v-0.1c-0.2-4.8-3.4-8.9-8-10.2v-3c0-3.4,0.7-6.8,1.9-10
			c0.2-0.5,0-1.1-0.6-1.3c-0.1,0-0.2-0.1-0.4-0.1h-6c-0.4,0-0.8,0.2-0.9,0.6c-1.4,3.4-2.1,7.1-2.1,10.8v2.6h-3v-2.6
			c0-3.4,0.7-6.8,1.9-10c0.2-0.5,0-1.1-0.6-1.3c-0.1,0-0.2-0.1-0.4-0.1h-6c-0.4,0-0.8,0.2-0.9,0.6c-1.4,3.4-2.1,7.1-2.1,10.8
			c0,0.6,0.4,1,1,1s1-0.4,1-1c0-3.2,0.6-6.4,1.7-9.4h3.9c-1,3-1.6,6.2-1.6,9.4v2.6h-9v-2.6c0-3.4,0.7-6.8,1.9-10
			c0.2-0.5,0-1.1-0.6-1.3c-0.1,0-0.2-0.1-0.4-0.1h-6c-0.4,0-0.8,0.2-0.9,0.6c-1.4,3.4-2.1,7.1-2.1,10.8v3c-4.3,1.2-7.5,5-7.9,9.5
			c-0.1,0.5,0.3,1,0.9,1.1l0,0h0.1c0.5,0,0.9-0.4,1-0.9c0.4-4.3,3.8-7.6,8.1-8c0.1,0,0.2,0,0.2-0.1h18.4c-2.6,1.8-4.3,4.7-4.6,7.9
			c-0.1,0.5,0.3,1,0.9,1.1c0.5,0.1,1-0.3,1.1-0.9l0,0c0.5-4.8,4.6-8.3,9.4-8.1c4.6,0.3,8.3,4,8.6,8.7v0.1c0,3,1.5,5.9,4,7.7
			c3.8,2.6,6.1,6.9,6,11.5c0,2-0.4,3.9-1.2,5.7c-0.2,0.5,0,1.1,0.5,1.3c0.1,0.1,0.3,0.1,0.4,0.1c0.4,0,0.8-0.2,0.9-0.6
			c0.9-2,1.4-4.2,1.4-6.5C710.8,109.5,708.3,104.6,703.9,101.6z M686.8,82.2c0-3.2,0.6-6.4,1.7-9.4h3.9c-1,3-1.6,6.2-1.6,9.4v2.7
			c-0.2,0-0.3,0-0.5,0s-3.5,0-3.5,0L686.8,82.2L686.8,82.2z M664.8,84.8v-2.6c0-3.2,0.6-6.4,1.7-9.4h3.9c-1,3-1.6,6.2-1.6,9.4v2.6
			H664.8z"/>
		<path class="st1" d="M684.9,91.5c-0.3,0-0.7,0.2-0.9,0.4c-0.6,0.9-1,2-1.2,3.2v0.3v0.1v6.4c0,0.4,0.3,0.8,0.7,1l0.6,0.2
			c4.4,1.4,6.8,6,5.5,10.4c-0.2,0.7-0.5,1.3-0.9,1.9l-3.4,5.5c-0.2,0.4-0.2,0.8,0.1,1.1c2.1,2.9,5.3,4.6,8.9,4.8c0.2,0,0.4,0,0.6,0
			c1.3,0,2.6-0.2,3.9-0.7c0.5-0.2,0.8-0.7,0.6-1.3c0-0.1-0.1-0.3-0.2-0.4l-1.5-1.5c-3.2-3.2-3.3-8.5,0-11.7c1.5-1.5,3.6-2.4,5.7-2.4
			c0.6,0,1-0.5,1-1c0-0.6-0.5-1-1-1c-5.7,0.1-10.2,4.8-10.1,10.5c0.1,2.7,1.1,5.2,3,7.1l0.3,0.3c-3.4,0.6-6.9-0.7-9.1-3.4l3-4.9
			c3-4.8,1.5-11.2-3.3-14.2c-0.7-0.4-1.5-0.8-2.3-1v-5.6v-0.2c0-0.2,0.1-0.4,0.1-0.6l1.1,2c1.8,3.2,5.3,5.3,9,5.3
			c0.4,0,0.9,0,1.3-0.1c0.7,1.4,1.7,2.7,2.9,3.8c0.4,0.4,1,0.3,1.4-0.1s0.3-1-0.1-1.4c-1.2-1.1-2.1-2.4-2.7-3.8
			c-0.2-0.4-0.7-0.7-1.1-0.6c-3.6,0.8-7.2-0.9-9-4.1l-2.1-3.7C685.5,91.7,685.2,91.5,684.9,91.5z"/>
		<path class="st1" d="M695.1,97.9c0.3,0,0.7,0,1-0.1c0.5-0.1,0.9-0.6,0.8-1.1c0-0.4-0.1-0.8-0.1-1.2c-0.2-3.6-3-6.5-6.6-6.8
			c-0.8,0-1.6,0.1-2.4,0.3c-0.5,0.2-0.8,0.7-0.7,1.2c0,0.1,0.1,0.1,0.1,0.2l2.3,4.2C690.7,96.7,692.8,97.9,695.1,97.9z M690.1,90.8
			c2.6,0.2,4.6,2.2,4.7,4.8c0,0.1,0,0.2,0,0.3c-1.5-0.1-2.8-0.9-3.5-2.2l-1.7-2.9C689.8,90.8,689.9,90.8,690.1,90.8z"/>
		<path class="st1" d="M701.9,123.3c0.4,0.4,1,0.4,1.4,0c3.1-3.1,4.3-7.6,3-11.8c-0.1-0.4-0.5-0.7-1-0.7h-1.9
			c-3.5,0-6.3,2.8-6.3,6.3c0,1.7,0.7,3.3,1.8,4.5c0.4,0.4,1,0.4,1.4,0s0.4-1,0-1.4c-1.7-1.7-1.7-4.4,0-6.1c0.8-0.8,1.9-1.3,3.1-1.3
			h1.1c0.1,0.7,0.2,1.3,0.2,2c0,2.7-1,5.2-2.9,7.1C701.5,122.2,701.5,122.9,701.9,123.3z"/>
		<path class="st1" d="M682.8,110.4c0,0.6,0.4,1,1,1s1-0.4,1-1v-2.3c1.3,1.4,1.5,3.5,0.5,5.2l-2,3.3c-0.3,0.5-0.2,1.1,0.3,1.4
			c0.5,0.3,1.1,0.2,1.4-0.3l0,0l2-3.3c1.8-3,0.9-6.9-2-8.7c-0.2-0.1-0.5-0.3-0.7-0.4c-0.5-0.2-1.1,0-1.3,0.5
			c-0.1,0.1-0.1,0.3-0.1,0.4v4.2H682.8z"/>
		<path class="st1" d="M672.8,93.8c-0.6,0-1,0.4-1,1v19.6c0,4.1,1.5,8,4.2,11.1c0.4,0.4,1,0.4,1.4,0.1c0.4-0.4,0.4-1,0.1-1.4
			c-2.4-2.7-3.7-6.2-3.7-9.8V94.8C673.8,94.2,673.4,93.8,672.8,93.8z"/>
		<path class="st1" d="M663.8,93.8c-0.6,0-1,0.4-1,1v19.6c0,4.1,1.5,8,4.2,11.1c0.4,0.4,1,0.4,1.4,0.1c0.4-0.4,0.4-1,0.1-1.4
			c-2.4-2.7-3.7-6.2-3.7-9.8V94.8C664.8,94.2,664.4,93.8,663.8,93.8z"/>
	</g>
</g>
<g>
	<g>
		<path class="st1" d="M804.3,126.9l-2.5-1.4c2.7-5,1.8-11.3-2.2-15.3l0,0l0,0l0,0l-3.5-3.5c-0.4-0.4-1-0.4-1.4,0s-0.4,1,0,1.4
			l3.1,3.1c-0.5,1.4-1,2.7-1.7,3.9l-4.5-4.5c0.9-2,1.4-4.2,1.5-6.5c0-0.3-0.1-0.6-0.3-0.8l-3.8-3.8l0,0c-0.8-0.8-2.3-1.5-5.1-0.6
			c-0.5,0.2-0.8,0.7-0.7,1.3s0.7,0.8,1.3,0.7l0,0c1.4-0.4,2.5-0.4,3.1,0.1l0,0l0,0c1,1,0.2,4.1-2.3,7.5c-0.3-0.3-0.8-0.4-1.1-0.2
			c-0.2,0.1-0.5,0.1-0.8,0c-0.2-0.1-0.3-0.2-0.4-0.4c0.5-1,0.3-2.3-0.5-3.1c-1.2-1.2-3.4-0.9-4.9,0.7s-1.9,3.8-0.7,4.9
			c0.5,0.5,1.2,0.7,1.9,0.7c0.2,0,0.5,0,0.7-0.1c0.9-0.2,1.8-0.7,2.4-1.4c0,0,0-0.1,0.1-0.1c0.5,0.5,1.2,0.7,1.9,0.7
			c-0.4,0.4-0.7,0.8-1.1,1.2c-1.9,2-4.2,3.6-6.7,4.7c-0.6,0.3-1.3,0.5-2,0.6c0.6-1,1.6-1.8,2.7-2.3c0.5-0.2,0.8-0.8,0.6-1.3
			s-0.8-0.8-1.3-0.6l0,0c-1.7,0.7-3.2,2-4,3.6c-0.5-0.7-0.4-2.1,0.3-3.7c1.1-2.5,2.8-4.8,4.7-6.7c1.3-1.3,2.7-2.4,4.2-3.4
			c0.5-0.3,0.6-0.9,0.3-1.4s-0.9-0.6-1.4-0.3c-1.6,1.1-3.2,2.3-4.5,3.7c-2.2,2.1-3.9,4.6-5.2,7.4c-1.1,2.7-1,4.8,0.2,6.1l10.6,10.6
			l0,0l0,0l0,0c4.1,4,10.3,4.9,15.3,2.2l1.4,2.5c0.3,0.5,0.9,0.6,1.4,0.4c0.1,0,0.1-0.1,0.2-0.2l5-5c0.4-0.4,0.4-1,0-1.4
			C804.4,127,804.3,126.9,804.3,126.9L804.3,126.9z M778.9,109.1c-0.2,0.1-0.5,0-0.7-0.1c-0.3-0.3-0.2-1.3,0.7-2.1
			c0.9-0.9,1.8-1,2.1-0.7s0.2,1.3-0.7,2.1C779.9,108.7,779.4,109,778.9,109.1z M799.2,112.8c1.7,2.4,2.4,5.4,1.9,8.4
			c-0.3-1-0.9-1.9-1.6-2.6l-2.1-2.1C798.1,115.3,798.7,114.1,799.2,112.8z M791,104.4c-0.1,1.6-0.5,3.1-1,4.6l-1.7-1.7
			c0.7-1.3,1.3-2.7,1.5-4.1L791,104.4z M784,112.9c1.2-1.2,2.3-2.5,3.2-3.8l1.9,1.9c-1.6,3-4,5.5-7.1,7.1l-1.9-1.9
			C781.5,115.2,782.8,114.1,784,112.9L784,112.9z M776.6,118.1c0.6-0.3,1.2-0.5,1.8-0.9l1.7,1.7c-1.5,0.6-3,0.9-4.6,1l-1.2-1.2
			C775.1,118.7,775.9,118.4,776.6,118.1z M777.2,121.7c1.7-0.3,3.4-0.8,5-1.5l0,0l0,0l0,0c3.5-1.6,6.4-4.3,8.3-7.7l4.4,4.4
			c-0.9,1.4-2,2.7-3.2,3.9c-0.5,0.5-1.1,1-1.6,1.5c-0.4,0.4-0.5,1-0.1,1.4s1,0.5,1.4,0.1c0.6-0.5,1.2-1,1.7-1.6
			c1.2-1.2,2.3-2.5,3.2-3.9l1.8,1.8c2,1.9,2,5.1,0,7.1c-1.9,2-5.1,2-7.1,0l0,0l-5.8-5.8c-0.4-0.4-1-0.4-1.4,0s-0.4,1,0,1.4l0,0
			l2.2,2.2c-1.3,0.7-2.6,1.3-3.9,1.7L777.2,121.7z M783.9,128.2c1.3-0.5,2.5-1.1,3.7-1.8l2.1,2.1c0.7,0.7,1.6,1.3,2.6,1.6
			C789.3,130.6,786.3,129.9,783.9,128.2z M799,131.1l-0.8-1.5c1-0.7,1.8-1.6,2.5-2.5l1.5,0.8L799,131.1z"/>
		<path class="st1" d="M785.4,104.5c0.4-0.4,0.4-1,0-1.4s-1-0.4-1.4,0s-0.4,1,0,1.4C784.4,104.8,785,104.8,785.4,104.5L785.4,104.5z
			"/>
		<path class="st1" d="M772.3,97.4c-0.9,0.2-1.8,0.7-2.4,1.4c-1.6,1.6-1.9,3.8-0.7,5c0.5,0.5,1.2,0.7,1.8,0.7
			c1.2-0.1,2.3-0.6,3.1-1.4c2.2-2.1,3.9-4.6,5.2-7.4c1.1-2.7,1-4.8-0.2-6.1L768.5,79l0,0l0,0l0,0c-3.9-3.8-9.7-4.8-14.6-2.5
			l-1.1-2.1c-0.2-0.4-0.7-0.6-1.1-0.5l-5,1c-0.4,0.1-0.7,0.4-0.8,0.7l-1,4c-0.1,0.4,0.1,0.9,0.5,1.1l2.5,1.4
			c-2.7,5-1.8,11.2,2.2,15.3l0,0l0.1,0.1l0,0l0,0l1.6,1.6c0.4,0.4,1,0.4,1.4,0s0.4-1,0-1.4l-1.2-1.2c0.5-1.4,1-2.7,1.7-3.9l4.5,4.5
			c-0.6,1.4-1,2.9-1.3,4.4l-0.9-0.9c-0.4-0.4-1-0.4-1.4,0s-0.4,1,0,1.4l0,0l6.1,6.1c0.7,0.7,1.7,1,2.7,1c1.8-0.1,3.6-0.7,5.1-1.6
			c0.5-0.3,0.7-0.9,0.4-1.4s-0.9-0.7-1.4-0.4l0,0c-2.4,1.3-4.4,1.7-5.3,1.1c1.6-0.8,2.9-2.3,3.6-4c0.2-0.5,0-1.1-0.6-1.3
			c-0.5-0.2-1.1,0-1.3,0.6l0,0c-0.4,1.1-1.2,2.1-2.3,2.7c0.3-2.1,2.1-5.5,5.4-8.8l0.1-0.1l-0.7-0.7l-0.8-0.6
			c-1.2,1.2-2.3,2.5-3.2,3.8l-1.9-1.9c1.6-3,4-5.5,7.1-7.1l1.9,1.9c-0.2,0.1-0.4,0.3-0.6,0.4c-0.4,0.3-0.5,1-0.2,1.4s1,0.5,1.4,0.2
			l0,0c3.7-2.7,6.7-3.3,7.6-2.4c0.6,0.6,0.5,2.1-0.2,3.9c-0.6,1.3-1.3,2.6-2.2,3.8c-0.1-0.2-0.3-0.4-0.4-0.6
			C774.1,97.4,773.2,97.2,772.3,97.4z M772.3,85.7c-1.5,0.3-3,0.7-4.4,1.3l-4.5-4.5c1.3-0.7,2.6-1.3,3.9-1.7L772.3,85.7z
			 M765.7,79.3c-1.3,0.5-2.5,1.1-3.7,1.8l-2.1-2.1c-0.7-0.7-1.6-1.3-2.6-1.6C760.3,76.9,763.3,77.6,765.7,79.3z M746.9,79.3l0.7-2.7
			l3.6-0.7l0.8,1.5c-0.7,0.5-1.4,1-2,1.6c-0.4,0.4-0.8,0.9-1.2,1.4L746.9,79.3z M750.3,94.6c-1.7-2.4-2.4-5.4-1.9-8.3
			c0.3,1,0.9,1.9,1.6,2.6l2.1,2.1C751.4,92.1,750.8,93.4,750.3,94.6z M759.7,104.3l-1.2-1.2c0.1-1.6,0.5-3.1,1-4.6l1.7,1.7
			C760.5,101.4,760,102.8,759.7,104.3L759.7,104.3z M762,91c-1.2,1.2-2.2,2.6-3,4l-4.4-4.4c0.9-1.4,2-2.7,3.2-3.9
			c0.5-0.5,1-0.9,1.5-1.3c0.4-0.4,0.5-1,0.1-1.4s-1-0.5-1.4-0.1c-0.5,0.5-1.1,1-1.6,1.5c-1.2,1.2-2.3,2.5-3.2,3.9l-1.7-1.8
			c-2-1.9-2-5.1-0.1-7.1s5.1-2,7.1-0.1l0.1,0.1l7.6,7.6C764.6,88.8,763.2,89.8,762,91L762,91z M771.2,90.2l-1.7-1.7
			c1.5-0.6,3-0.9,4.6-1l1.1,1.1C773.8,89,772.4,89.5,771.2,90.2L771.2,90.2z M772.7,101.6c-0.9,0.9-1.8,1-2.1,0.7s-0.2-1.3,0.7-2.1
			c0.4-0.4,0.9-0.7,1.4-0.8c0.1,0,0.2,0,0.3,0c0.2,0,0.3,0,0.4,0.1C773.7,99.8,773.5,100.8,772.7,101.6L772.7,101.6z"/>
		<path class="st1" d="M766.3,98.1c-0.4,0.4-0.4,1,0,1.4s1,0.4,1.4,0s0.4-1,0-1.4l0,0C767.3,97.7,766.7,97.7,766.3,98.1z"/>
		<path class="st1" d="M774.8,95.3c0.4-0.4,0.4-1,0-1.4s-1-0.4-1.4,0s-0.4,1,0,1.4l0,0C773.8,95.6,774.4,95.6,774.8,95.3z"/>
	</g>
</g>
<g>
	<g>
		<circle class="st1" cx="568.6" cy="637.4" r="1"/>
		<circle class="st1" cx="576.6" cy="637.4" r="1"/>
		<path class="st1" d="M585.6,669.4c-0.6,0-1,0.4-1,1v5c0,0.6,0.4,1,1,1c0.6,0,1-0.4,1-1v-5C586.6,669.8,586.1,669.4,585.6,669.4z"
			/>
		<path class="st1" d="M579.6,666.4h-14c-0.6,0-1,0.4-1,1v8c0,0.6,0.4,1,1,1c0.6,0,1-0.4,1-1v-7h12v7c0,0.6,0.4,1,1,1
			c0.6,0,1-0.4,1-1v-8C580.6,666.8,580.1,666.4,579.6,666.4z"/>
		<path class="st1" d="M584.6,648.4h-6v-1.3c0.2-0.2,0.5-0.4,0.7-0.7h1.3c0.6,0,1-0.4,1-1c0-0.7-0.2-1.5-0.5-2.1
			c0.3-0.9,0.5-1.9,0.5-2.9v-1h1c1.7,0,3-1.3,3-3v-2c0-1.4-0.9-2.5-2.2-2.9c0.6-1.5-0.1-3.3-1.6-3.9c-0.4-0.1-0.7-0.2-1.1-0.2h-15
			v-1c0-2.8,2.2-5,5-5h4c2.1,0,4,1.3,4.7,3.3c0.2,0.5,0.7,0.8,1.3,0.6c0.5-0.2,0.8-0.7,0.6-1.3c0,0,0,0,0-0.1
			c-1-2.8-3.6-4.7-6.6-4.7h-4c-3.9,0-7,3.1-7,7v1.2c-1.6,0.5-2.4,2.2-1.8,3.8c0,0.1,0,0.1,0.1,0.1c-1.3,0.4-2.2,1.5-2.2,2.9v2
			c0,1.7,1.3,3,3,3h1v1c0,1,0.2,2,0.5,2.9c-0.3,0.7-0.5,1.4-0.5,2.1c0,0.6,0.4,1,1,1h1.3c0.2,0.2,0.4,0.5,0.7,0.7v1.3h-6
			c-5,0-9,4-9,9c0,0.6,0.4,1,1,1c0.6,0,1-0.4,1-1c0-3.9,3.1-7,7-7h2v8h-1c-0.6,0-1,0.4-1,1c0,3.2-0.6,6.3-1.8,9.3l-0.3,0.5
			c0,0.1-0.1,0.2-0.1,0.4v6c0,0.6,0.4,1,1,1c0.6,0,1-0.4,1-1v-5.8l0.1-0.2c1.2-2.9,1.8-5.9,1.9-9h20c0.1,2.2,0.4,4.3,1,6.4
			c0.2,0.5,0.7,0.8,1.2,0.7c0.5-0.2,0.8-0.7,0.7-1.2c-0.6-2.2-1-4.5-1-6.9c0-0.6-0.4-1-1-1h-1v-5c0-0.6-0.4-1-1-1c-0.6,0-1,0.4-1,1
			v5h-2v-8h6c3.9,0,7,3.1,7,7v18c0,0.6,0.4,1,1,1c0.6,0,1-0.4,1-1v-18C593.6,652.4,589.6,648.4,584.6,648.4z M565.6,640.4v-7h14v7
			c0,0.3,0,0.6-0.1,1c-0.8-0.6-1.9-1-2.9-1h-8c-1.1,0-2.1,0.3-2.9,1C565.6,641,565.6,640.7,565.6,640.4z M576.6,644.4
			c-1.3,0-2.4-0.8-2.8-2h2.8c1.3,0,2.4,0.8,2.8,2H576.6z M568.6,642.4h2.8c-0.4,1.2-1.6,2-2.8,2h-2.8
			C566.2,643.2,567.3,642.4,568.6,642.4z M572.6,644.3c0.9,1.2,2.2,1.9,3.7,2c-2.2,1.4-5.1,1.4-7.3,0
			C570.4,646.2,571.7,645.5,572.6,644.3z M583.6,636.4c0,0.6-0.4,1-1,1h-1v-4h1c0.6,0,1,0.4,1,1V636.4z M564.6,629.4h16
			c0.6,0,1,0.4,1,1s-0.4,1-1,1h-16c-0.6,0-1-0.4-1-1S564,629.4,564.6,629.4z M562.6,637.4c-0.6,0-1-0.4-1-1v-2c0-0.6,0.4-1,1-1h1v4
			H562.6z M572.6,649.4c1.4,0,2.8-0.3,4-0.9v1.9c0,2.2-1.8,4-4,4s-4-1.8-4-4v-1.9C569.8,649.1,571.2,649.4,572.6,649.4z
			 M564.6,658.4v-8h2v8H564.6z M568.6,658.4v-3.5c2.3,2.1,5.7,2.1,8,0v3.5H568.6z"/>
		<path class="st1" d="M554.6,668.4h-1.3c1.9-2.3,1.6-5.8-0.7-7.7c-1.2-1-2.9-1.5-4.4-1.2c-0.2,0-0.3,0-0.5,0l1.7-3
			c0.8-1.4,0.3-3.3-1.1-4.1l0,0l-0.8-0.4l3.1-4.3c1.1-1.5,0.8-3.6-0.7-4.7c-1.5-1.1-3.6-0.8-4.7,0.7c-0.1,0.1-0.1,0.2-0.2,0.3
			l-3.3,5.7l0,0l-5,8.7c-2.7,2.6-2.9,6.9-0.4,9.7c0.1,0.1,0.2,0.2,0.3,0.3h-2.1c-0.6,0-1,0.4-1,1v6c0,0.6,0.4,1,1,1c0.6,0,1-0.4,1-1
			v-5h18v5c0,0.6,0.4,1,1,1c0.6,0,1-0.4,1-1v-6C555.6,668.8,555.1,668.4,554.6,668.4z M547.7,655.4l-1.5,2.7
			c-0.5-0.4-1.1-0.8-1.7-1.1l2-3.5l0.9,0.5C547.8,654.3,548,654.9,547.7,655.4L547.7,655.4z M546.8,644.9c0.4-0.7,1.2-0.9,1.9-0.5
			c0.7,0.4,0.9,1.2,0.5,1.9l-0.1,0.1l-3.3,4.4l-1.8-1.1L546.8,644.9z M543,651.5l1.7,1l-2.3,3.9c-0.6-0.1-1.3-0.1-1.9,0
			c-0.2,0-0.3,0.1-0.5,0.1L543,651.5z M548.6,668.4v-1.6l1.7-1.7c0.4-0.4,0.4-1,0-1.4c-0.4-0.4-1-0.4-1.4,0l-1.3,1.3l-0.3-0.3
			c-0.4-0.4-1-0.4-1.4,0c-0.4,0.4-0.4,1,0,1.4l0.7,0.7v1.6h-5c-2.8,0-5-2.2-5-5s2.2-5,5-5c1.5,0,2.9,0.7,3.9,1.8
			c0.7,0.9,1.9,1.4,3,1.2c1.9-0.3,3.7,0.9,4,2.9c0,0.1,0,0.1,0,0.2c0.2,1.9-1.2,3.7-3.1,3.9c-0.1,0-0.3,0-0.4,0L548.6,668.4
			L548.6,668.4z"/>
		<path class="st1" d="M541.6,660.4c-1.7,0-3,1.3-3,3s1.3,3,3,3s3-1.3,3-3S543.2,660.4,541.6,660.4z M541.6,664.4c-0.6,0-1-0.4-1-1
			s0.4-1,1-1c0.6,0,1,0.4,1,1S542.1,664.4,541.6,664.4z"/>
	</g>
</g>
<g>
	<g>
		<path class="st1" d="M270.2,661.5c-0.5,0.3-0.6,0.9-0.4,1.4s0.9,0.6,1.4,0.4c0.5-0.3,0.6-0.9,0.4-1.4l0,0
			C271.3,661.4,270.7,661.2,270.2,661.5z"/>
		<path class="st1" d="M273.2,666.7c-0.5,0.3-0.6,0.9-0.4,1.4c0.3,0.5,0.9,0.6,1.4,0.4c0.5-0.3,0.6-0.9,0.4-1.4l0,0
			C274.3,666.6,273.7,666.4,273.2,666.7z"/>
		<circle class="st1" cx="276.7" cy="672.8" r="1"/>
		<path class="st1" d="M250.2,635.1c1.6,0.4,3.2-0.5,3.7-2.1c0.4-1.6-0.5-3.2-2.1-3.7c-1.6-0.4-3.2,0.5-3.7,2.1
			c-0.2,0.8-0.1,1.6,0.3,2.3C248.8,634.3,249.5,634.8,250.2,635.1z M250.1,631.9c0.1-0.5,0.7-0.8,1.2-0.7s0.8,0.7,0.7,1.2
			c-0.1,0.3-0.2,0.5-0.5,0.6c-0.2,0.1-0.5,0.2-0.8,0.1C250.2,633,249.9,632.4,250.1,631.9L250.1,631.9z"/>
		<path class="st1" d="M285.9,676.7l-7.4-12.8c-0.3-0.5-0.9-0.6-1.4-0.4c-0.5,0.3-0.6,0.9-0.4,1.4l0,0l6.9,11.9l-8.7,5
			c-1,0.6-2.2,0.2-2.7-0.7s-0.2-2.2,0.7-2.7l0,0c0.4-0.2,0.6-0.7,0.5-1.1c-0.8-2.8-2.2-5.3-4.2-7.3c-1.8-1.8-3.1-4.1-3.8-6.5
			c-0.2-0.7-0.5-1.4-0.7-2l7-5.2l3.1,5.3c0.3,0.5,0.9,0.6,1.4,0.4c0.5-0.3,0.6-0.9,0.4-1.4l-3.6-6.2c0-0.1,0-0.1-0.1-0.2l-15.3-26.5
			c-1.8-3.1-5.6-4.3-8.8-2.9l-6.5,2.8c-0.5,0.2-0.7,0.8-0.5,1.3s0.8,0.7,1.3,0.5l6.5-2.8c2.3-1,5-0.1,6.3,2.1l14.9,25.8L251.2,669
			c-8.7-10.2-15.4-21.9-19.9-34.5l4.5-2c4.2,11.4,10.2,22,17.7,31.5c0.3,0.4,1,0.5,1.4,0.2s0.5-1,0.2-1.4l0,0
			c-7.5-9.4-13.4-19.9-17.5-31.1l1.7-0.7c0.5-0.2,0.7-0.8,0.4-1.3c-0.2-0.5-0.8-0.7-1.2-0.5l-8.9,3.9c-0.5,0.2-0.7,0.8-0.5,1.2
			c4.7,13.5,11.9,25.9,21.2,36.7c0.3,0.4,0.9,0.5,1.4,0.1l11.4-8.5c0.2,0.5,0.3,0.9,0.5,1.4c0.8,2.8,2.2,5.3,4.2,7.3
			c1.6,1.7,2.8,3.7,3.6,5.8c-1.6,1.5-1.8,4-0.3,5.6c1.3,1.4,3.3,1.8,5,0.8l9.5-5.5C286,677.8,286.2,677.2,285.9,676.7z"/>
	</g>
</g>
<g>
	<path class="st1" d="M714.2,447.8c0.6,0,1-0.4,1-1v-4c0-3.9-3.1-7-7-7h-46c-3.9,0-7,3.1-7,7v4c0,0.6,0.4,1,1,1h4v2.1
		c-2.3,0.5-4,2.5-4,4.9v2c0,2,1.2,3.8,3,4.6v2.4h-3c-0.6,0-1,0.4-1,1v4c0,2.8,2.2,5,5,5h50c2.8,0,5-2.2,5-5v-4c0-0.6-0.4-1-1-1h-3
		v-2.4c1.8-0.8,3-2.6,3-4.6v-2c0-2.4-1.7-4.4-4-4.9v-2.1H714.2z M657.2,442.8c0-2.8,2.2-5,5-5h46c2.8,0,5,2.2,5,5v3h-56V442.8z
		 M699.2,449.8H692c0.1-0.3,0.2-0.7,0.2-1v-1h7V449.8z M670.2,447.8h2v3c0,0.6-0.4,1-1,1s-1-0.4-1-1V447.8z M674.2,447.8h12v1
		c0,0.3,0.1,0.7,0.2,1h-12.2V447.8z M688.2,448.8v-1h2v1c0,0.6-0.4,1-1,1S688.2,449.3,688.2,448.8z M701.2,447.8h2v3
		c0,0.6-0.4,1-1,1s-1-0.4-1-1V447.8z M668.2,447.8v2h-6v-2H668.2z M713.2,468.8c0,1.7-1.3,3-3,3h-50c-1.7,0-3-1.3-3-3v-3h6.6
		l4.7,3.8c0.2,0.1,0.4,0.2,0.6,0.2c0.1,0,0.2,0,0.3-0.1l10.5-3.8l4.6,3.6c0.4,0.3,0.9,0.3,1.2,0l4.6-3.6l10.5,3.8
		c0.1,0,0.2,0.1,0.3,0.1c0.2,0,0.4-0.1,0.6-0.2l4.7-3.8h6.6v3H713.2z M667,465.8h7.5l-5.1,1.9L667,465.8z M683,465.8h4.3l-2.2,1.7
		L683,465.8z M695.9,465.8h7.5l-2.3,1.9L695.9,465.8z M709.2,463.8h-48v-2h48V463.8z M709.2,459.8h-48c-1.7,0-3-1.3-3-3v-1h3
		c1.3,0,2.5,0.3,3.6,0.9c1.4,0.7,2.9,1.1,4.5,1.1s3.1-0.3,4.5-1.1c1.1-0.6,2.4-0.9,3.6-0.9c1.3,0,2.5,0.3,3.7,0.9
		c1.4,0.7,2.9,1.1,4.5,1.1s3.1-0.3,4.5-1.1c2.3-1.2,5-1.2,7.3,0c2.8,1.4,6.2,1.4,9,0c1.1-0.6,2.4-0.9,3.7-0.9h2v1
		C712.2,458.4,710.8,459.8,709.2,459.8z M712,453.8h-1.8c-1.6,0-3.1,0.3-4.5,1.1c-2.3,1.2-5,1.2-7.3,0c-2.8-1.4-6.2-1.4-9,0
		c-1.1,0.6-2.4,0.9-3.7,0.9s-2.5-0.3-3.7-0.9c-1.4-0.7-2.9-1.1-4.5-1.1s-3.1,0.3-4.5,1.1c-1.1,0.6-2.4,0.9-3.7,0.9s-2.5-0.3-3.6-0.9
		c-1.4-0.7-2.9-1.1-4.5-1.1h-2.8c0.4-1.2,1.5-2,2.8-2h7.2c0.5,1.6,2.2,2.4,3.8,1.8c0.9-0.3,1.5-1,1.8-1.8h25.4
		c0.5,1.6,2.2,2.4,3.8,1.8c0.9-0.3,1.5-1,1.8-1.8h4.2C710.5,451.8,711.6,452.6,712,453.8z M708.2,449.8h-3v-2h3V449.8z"/>
	<rect x="666.2" y="441.8" class="st1" width="2" height="2"/>
	<rect x="672.2" y="439.8" class="st1" width="2" height="2"/>
	<rect x="661.2" y="440.8" class="st1" width="2" height="2"/>
	<rect x="678.2" y="441.8" class="st1" width="2" height="2"/>
	<rect x="702.2" y="441.8" class="st1" width="2" height="2"/>
	<rect x="696.2" y="439.8" class="st1" width="2" height="2"/>
	<rect x="707.2" y="440.8" class="st1" width="2" height="2"/>
	<rect x="690.2" y="441.8" class="st1" width="2" height="2"/>
	<rect x="684.2" y="439.8" class="st1" width="2" height="2"/>
</g>
<g>
	<g>
		<path class="st1" d="M374.6,650.8c-4.5,4.6-10.6,7.1-17.1,7.1c-5.7,0-11.2-2-15.5-5.7c-0.4-0.4-1.1-0.3-1.4,0.1
			c-0.4,0.4-0.3,1.1,0.1,1.4l0,0c1.9,1.6,4.1,3,6.5,4l-0.5,8.3c-0.1,2,0,4,0.4,5.9c0.6,3.5,2.8,6.5,6,8v4c0,0.6,0.4,1,1,1s1-0.4,1-1
			v-3.3c0,0,0,0,0.1,0c0.8,0.2,1.6,0.3,2.4,0.3c0.8,0,1.7-0.1,2.5-0.3v3.3c0,0.6,0.4,1,1,1s1-0.4,1-1v-4c3.1-1.5,5.3-4.3,5.9-7.7
			l0.1-0.3c0.4-2,0.5-4,0.4-5.9l-0.3-5.4c0-0.6-0.5-1-1.1-0.9c-0.6,0-1,0.5-0.9,1.1l0.3,5.4c0.1,1.8,0,3.7-0.3,5.5l-0.1,0.3
			c-0.9,4.7-5.3,7.8-10,6.9c-0.1,0-0.3-0.1-0.4-0.1c-3.4-0.9-6-3.7-6.5-7.1c-0.3-1.8-0.4-3.6-0.3-5.5l0.4-7.6
			c0.3,0.1,0.6,0.2,0.9,0.3l0.5,8.2c0.1,1.7,1.6,3,3.3,2.9c1.6-0.1,2.8-1.4,2.9-2.9l0.4-7.1c0.2,0,0.3,0,0.5,0c0.2,0,0.3,0,0.5,0
			l0.4,7.1c0.1,1.7,1.6,3,3.3,2.9c1.6-0.1,2.8-1.4,2.9-2.9l0.5-8.2c4.1-1.3,7.9-3.5,10.9-6.6c0.4-0.4,0.4-1,0-1.4
			C375.6,650.4,375,650.4,374.6,650.8L374.6,650.8z M354.7,666.9c0,0.6-0.6,1.1-1.2,1c-0.6,0-1-0.5-1-1l-0.4-7.6c1,0.2,2,0.4,3,0.5
			L354.7,666.9z M362.7,666.9c0,0.6-0.6,1.1-1.2,1c-0.6,0-1-0.5-1-1l-0.4-7.1c1-0.1,2-0.3,3-0.5L362.7,666.9z"/>
		<path class="st1" d="M387.6,632.7l-1-5c-0.1-0.5-0.6-0.9-1.1-0.8l-5.6,0.9l-3.7-2.7c-0.4-0.3-1.1-0.2-1.4,0.2
			c-0.1,0.2-0.2,0.4-0.2,0.6v7.2c-2.2,0.6-3.9,2.2-4.5,4.3c-2,6.9-9.2,10.9-16.1,8.9c-4.3-1.2-7.7-4.6-8.9-8.9
			c-1.1-3.4-4.7-5.4-8.1-4.3c-1.3,0.4-2.4,1.2-3.2,2.2l-4.1-2.9l0.7-3.4l5,0.8c0.3,0,0.5,0,0.8-0.2l2.4-1.8v2.1c0,0.6,0.4,1,1,1
			s1-0.4,1-1v-4.1c0-0.6-0.4-1-1-1c-0.2,0-0.4,0.1-0.6,0.2l-3.7,2.7l-5.6-0.7c-0.5-0.1-1,0.3-1.1,0.8l-1,5c-0.1,0.4,0.1,0.8,0.4,1
			l4.8,3.4c-0.5,1.3-0.6,2.7-0.2,4.1c1,3.5,2.8,6.8,5.2,9.6c0.4,0.4,1,0.5,1.4,0.1s0.5-1,0.1-1.4c-2.2-2.6-3.8-5.6-4.8-8.8
			c-0.4-1.3-0.1-2.8,0.7-3.9c0.8-1.1,2.2-1.8,3.6-1.8c2,0,3.7,1.3,4.3,3.1c0.1,0.2,0.1,0.4,0.2,0.6l-2.9,1.7
			c-1.4,0.8-1.9,2.7-1.1,4.1c0.8,1.4,2.7,1.9,4.1,1.1l2.9-1.7c0.4,0.5,0.8,0.9,1.3,1.3l-1.7,2.9c-0.8,1.4-0.3,3.3,1.1,4.1
			c1.4,0.8,3.3,0.3,4.1-1.1l1.7-2.9c0.6,0.2,1.2,0.3,1.7,0.5v3.3c0,1.7,1.3,3,3,3c1.7,0,3-1.3,3-3l0,0v-3.3c0.6-0.1,1.2-0.3,1.7-0.5
			l1.7,2.9c0.8,1.4,2.7,1.9,4.1,1.1c1.4-0.8,1.9-2.7,1.1-4.1l0,0l-1.7-2.9c0.4-0.4,0.9-0.8,1.3-1.3l2.9,1.7c1.4,0.8,3.3,0.3,4.1-1.1
			c0.8-1.4,0.3-3.3-1.1-4.1l0,0l-2.9-1.7c0.1-0.2,0.1-0.4,0.2-0.6c0.6-1.9,2.3-3.2,4.3-3.1c1.4,0,2.8,0.7,3.6,1.8
			c0.8,1.1,1.1,2.6,0.7,3.9c-0.8,2.6-1.9,5-3.5,7.2c-0.3,0.4-0.2,1.1,0.2,1.4s1.1,0.2,1.4-0.2c1.7-2.4,3-5,3.8-7.8
			c0.4-1.3,0.3-2.8-0.2-4.1l4.8-3.4C387.5,633.5,387.6,633.1,387.6,632.7z M342.5,643.8c-0.5,0.3-1.1,0.1-1.4-0.4l0,0
			c-0.3-0.5-0.1-1.1,0.4-1.4l0,0l2.6-1.5c0.3,0.6,0.6,1.2,1,1.7L342.5,643.8z M349.4,650c-0.3,0.5-0.9,0.6-1.4,0.4
			c-0.5-0.3-0.6-0.9-0.4-1.4l0,0l1.5-2.6c0.6,0.4,1.1,0.7,1.7,1L349.4,650z M358.6,651.9c0,0.6-0.4,1-1,1s-1-0.4-1-1v-3
			c0.3,0,0.7,0,1,0c0.3,0,0.7,0,1,0V651.9z M367.4,649c0.3,0.5,0.1,1.1-0.4,1.4l0,0c-0.5,0.3-1.1,0.1-1.4-0.4l0,0l-1.5-2.6
			c0.6-0.3,1.2-0.6,1.7-1L367.4,649z M373.7,642.1c0.5,0.3,0.6,0.9,0.4,1.4c-0.3,0.5-0.9,0.6-1.4,0.4l-2.6-1.5
			c0.4-0.6,0.7-1.1,1-1.7L373.7,642.1z M381.4,635.4c-1.2-1.5-2.9-2.4-4.8-2.5v-5l2.4,1.8c0.2,0.2,0.5,0.2,0.8,0.2l5-0.8l0.7,3.4
			L381.4,635.4z"/>
	</g>
</g>
<g>
	<g>
		<path class="st1" d="M852.2,80.2c-1.7,2.1-3.6,4-5.7,5.6l-0.4,0.3c-1.8,1.4-3.4,3-4.8,4.8l-0.5,0.6c-0.3,0.4-0.3,1.1,0.2,1.4
			c0.4,0.3,1.1,0.3,1.4-0.2l0.5-0.6c1.3-1.7,2.8-3.1,4.4-4.4l0.4-0.3c2.2-1.7,4.3-3.8,6-6c0.3-0.4,0.3-1.1-0.2-1.4
			C853.2,79.7,852.6,79.8,852.2,80.2z"/>
		<path class="st1" d="M847.7,97.3l-0.5,0.6c-0.4,0.4-0.3,1.1,0.1,1.4c0.4,0.4,1.1,0.3,1.4-0.1l0,0l0.5-0.6c1.3-1.7,2.8-3.2,4.4-4.4
			l0.4-0.3c2.2-1.7,4.3-3.8,6-6c0.3-0.4,0.3-1.1-0.2-1.4c-0.4-0.3-1.1-0.3-1.4,0.2c-1.7,2.1-3.6,4-5.7,5.7l-0.4,0.3
			C850.7,93.9,849.1,95.5,847.7,97.3z"/>
		<path class="st1" d="M849.4,105c0.1,0,0.2,0,0.3,0c1.4-0.1,2.6-0.8,3.5-1.8c1.5-1.9,3.2-3.6,5.1-5.1l0.4-0.3
			c2-1.6,3.9-3.4,5.5-5.5c0.9-1.2,2.7-1.4,3.9-0.5c0.1,0.1,0.2,0.1,0.3,0.2l1.6,1.6l0.7,1c0.2,0.2,0.4,0.4,0.7,0.4
			c0.3,0,0.6-0.1,0.8-0.3l2.3-2.3c1.2-1.2,1.2-3.1,0-4.2l0,0c-1.2-1.1-3.1-1.1-4.2,0l-1.5,1.5c-0.8-0.5-1.7-0.7-2.6-0.6
			c-0.1,0-0.2,0-0.4,0.1c0.1-0.7,0-1.3-0.1-2l1.9-1.9c1.2-1.2,1.2-3.1,0-4.2l0,0c-1.2-1.1-3.1-1.1-4.2,0l-1.6,1.6
			c-2-1.2-4.7-0.7-6.1,1.2c-0.9,1.1-1.9,2.2-2.9,3.2c-0.4,0.4-0.4,1,0,1.4s1,0.4,1.4,0l0,0c1.1-1.1,2.2-2.2,3.1-3.4
			c0.9-1.2,2.7-1.4,3.9-0.5c0.1,0.1,0.2,0.1,0.2,0.2l0,0l0,0l1.7,1.7c0.2,0.2,0.4,0.5,0.5,0.8c0,0,0,0,0,0.1c0.4,0.9,0.3,2-0.3,2.8
			l0,0l0,0l-0.3,0.4l0,0c-0.1,0.1-0.2,0.1-0.2,0.2c-1.5,1.9-3.2,3.6-5.1,5.1l-0.4,0.3c-2.1,1.6-3.9,3.4-5.5,5.5
			c-0.9,1.2-2.7,1.4-3.9,0.5c-0.1-0.1-0.2-0.1-0.3-0.2l-1.7-1.7l0,0l0,0c-1-1-1.1-2.6-0.2-3.7l0.6-0.7c1.5-1.9,3.2-3.6,5.1-5.1
			c0.4-0.3,0.5-1,0.2-1.4s-1-0.5-1.4-0.2l0,0c-2.1,1.6-3.9,3.4-5.5,5.5l-0.6,0.7c-0.2,0.3-0.4,0.6-0.6,1c-0.8,0.1-1.7-0.2-2.3-0.8
			l-1.7-1.7l0,0l0,0c-1-1-1.1-2.6-0.2-3.7l0.6-0.7c1.5-1.9,3.2-3.6,5.1-5.1l0.4-0.3c2.1-1.6,3.9-3.4,5.5-5.5
			c0.9-1.2,2.7-1.4,3.9-0.5c0.1,0.1,0.2,0.1,0.3,0.2l0,0l0,0l1,1c0.4,0.4,1,0.4,1.4,0s0.4-1,0-1.4l-0.5-0.5l1.4-1.4
			c0.4-0.4,1-0.4,1.4,0s0.4,1,0,1.4l-1.2,1.2c-0.4,0.4-0.4,1,0,1.4s1,0.4,1.4,0l0,0l1.2-1.2c1.2-1.2,1.2-3.1,0-4.2s-3.1-1.1-4.2,0
			l-1.6,1.5c-2.1-1.2-4.7-0.7-6.1,1.2c-1.5,1.9-3.2,3.6-5.1,5.1l-0.4,0.3c-2,1.6-3.9,3.4-5.5,5.5l-0.6,0.7c-1.2,1.5-1.3,3.6-0.4,5.2
			l-1.6,1.6c-1.2,1.1-1.3,3-0.2,4.2c1.1,1.2,3,1.3,4.2,0.2c0.1-0.1,0.1-0.1,0.2-0.2l1.8-1.8c0.4,0.1,0.8,0.2,1.3,0.2
			c0,0.8,0.2,1.5,0.6,2.2l-1.6,1.6c-1.2,1.2-1.2,3.1,0,4.2s3.1,1.2,4.2,0l1.8-1.8C848.5,104.9,849,105,849.4,105z M871.7,89.6
			c0.4-0.4,1-0.4,1.4,0s0.4,1,0,1.4l0,0l-1.4,1.4l-0.1-0.1l-0.1-0.1l-1.2-1.2L871.7,89.6z M866.1,82.6c0.4,0.4,0.4,1,0,1.4l0,0
			l-1.4,1.4c-0.1-0.1-0.1-0.2-0.2-0.3l-1.2-1.2l1.4-1.4C865,82.2,865.7,82.2,866.1,82.6z M838.5,98.8c-0.4,0.4-1,0.4-1.4,0
			s-0.4-1,0-1.4l0,0l1.4-1.4l1.2,1.2c0.1,0.1,0.1,0.1,0.2,0.2L838.5,98.8z M844.8,105.2c-0.4,0.4-1,0.4-1.4,0s-0.4-1,0-1.4l0,0
			l1.4-1.4l1.2,1.2c0.1,0.1,0.1,0.1,0.2,0.2L844.8,105.2z"/>
		<path class="st1" d="M865.7,93.6c-1.7,2.1-3.6,4-5.7,5.6l-0.4,0.3c-1.8,1.4-3.4,3-4.8,4.8l-0.5,0.6c-0.3,0.4-0.3,1.1,0.2,1.4
			s1.1,0.3,1.4-0.2l0.5-0.6c1.3-1.7,2.8-3.1,4.4-4.4l0.4-0.3c2.2-1.7,4.3-3.8,6-6c0.4-0.4,0.3-1.1-0.1-1.4S866,93.2,865.7,93.6
			L865.7,93.6z"/>
		<path class="st1" d="M867.8,108.2l0.4-0.3c2.4-1.6,4.5-3.5,6.4-5.6c0.4-0.4,0.4-1,0-1.4s-1-0.4-1.4,0c0,0,0,0-0.1,0.1
			c-1.8,2-3.8,3.7-6.1,5.2l-0.4,0.3c-1.9,1.3-3.6,2.8-5.1,4.4l-0.5,0.6c-0.4,0.4-0.3,1,0.1,1.4s1,0.3,1.4-0.1l0,0l0.5-0.6
			C864.5,110.7,866.1,109.4,867.8,108.2z"/>
		<path class="st1" d="M879.6,109.3c-2,1.8-4.1,3.4-6.5,4.7l-0.4,0.2c-2,1.1-3.8,2.5-5.4,4l-0.5,0.5c-0.4,0.4-0.4,1,0,1.4
			s1,0.4,1.4,0l0,0l0.5-0.5c1.5-1.4,3.2-2.7,5.1-3.7l0.4-0.2c2.5-1.4,4.8-3.1,6.9-5c0.4-0.4,0.4-1,0-1.4S880,109,879.6,109.3z"/>
		<path class="st1" d="M894.5,116.4c-0.5-1-1.6-1.7-2.7-1.7c-0.5,0-0.9,0.1-1.3,0.3l-2,1c-1.6-1.8-4.2-2.1-6.2-0.8
			c-1.2,0.8-2.5,1.5-3.9,2.1c-0.5,0.2-0.7,0.8-0.5,1.3s0.8,0.7,1.3,0.5l0,0c1.4-0.7,2.8-1.4,4.2-2.3c1.3-0.8,3-0.5,3.8,0.8
			c0.1,0.1,0.1,0.2,0.2,0.3l1,2.1c0.6,1.3,0.2,2.8-1,3.5l-0.8,0.5c-2,1.3-4.2,2.4-6.5,3.2l-0.5,0.2c-2.5,0.8-4.8,2-7,3.4
			c-1.3,0.8-3,0.5-3.8-0.8c-0.1-0.1-0.1-0.2-0.2-0.3l-1-2.1c-0.6-1.3-0.2-2.8,1-3.5l0.8-0.5c2-1.3,4.2-2.4,6.5-3.2
			c0.5-0.2,0.8-0.7,0.6-1.3s-0.7-0.8-1.3-0.6l0,0c-2.5,0.8-4.8,2-7,3.4l-0.8,0.5c-0.4,0.3-0.7,0.6-1,1c-0.1-0.1-0.2-0.2-0.3-0.3
			l-1.4-1.9c-0.8-1.1-0.7-2.7,0.3-3.7l0.7-0.7c1.8-1.7,3.7-3.1,5.9-4.3l0.4-0.2c2.3-1.3,4.4-2.8,6.2-4.6c0.6-0.6,1.4-0.8,2.2-0.8
			c0.8,0.1,1.5,0.5,2,1.1l1.4,1.9c0.4,0.5,0.6,1.2,0.5,1.8c0,0.6,0.4,1,0.9,1.1c0.5,0,1-0.4,1.1-0.9l0,0c0-0.3,0-0.6,0-0.9l2.1-1.5
			c1.3-1,1.6-2.9,0.6-4.2c-0.6-0.8-1.5-1.2-2.4-1.2c-0.6,0-1.3,0.2-1.8,0.6L883,106c-0.9-0.8-2.1-1.1-3.3-1c0.4-0.9,0.5-1.9,0.3-2.8
			l2-1.7c1.2-1.1,1.4-3,0.3-4.2s-3-1.4-4.2-0.3l-1.7,1.4c-0.8-0.5-1.7-0.8-2.6-0.8l0,0c-1.4,0-2.6,0.6-3.6,1.6
			c-1.6,1.8-3.5,3.4-5.5,4.8l-0.4,0.3c-2.2,1.5-4.1,3.2-5.9,5.1l-0.6,0.7c-0.2,0.3-0.4,0.6-0.6,0.9c-1,0.3-2.1,0.1-2.8-0.6l-1.7-1.7
			l-0.2-0.2c-0.2-0.2-0.4-0.3-0.7-0.3c-0.3,0-0.5,0.1-0.7,0.3l-2.1,2.1c-1.2,1.2-1.2,3.1,0,4.2c0.6,0.6,1.3,0.9,2.1,0.9
			c0.8,0,1.6-0.3,2.1-0.9l1.8-1.8c0.5,0.2,1.1,0.2,1.6,0.2c0,0.7,0.1,1.5,0.4,2.2l-1.7,1.4c-1.3,1.1-1.4,3-0.3,4.2
			c0.6,0.7,1.4,1,2.3,1c0.7,0,1.4-0.3,2-0.7l2-1.7c0.3,0.1,0.6,0.2,0.9,0.2c-0.2,0.8-0.1,1.7,0.2,2.5l-1.8,1.3
			c-1.3,1-1.6,2.8-0.7,4.2l0,0c1,1.3,2.9,1.6,4.2,0.6l0,0l1-0.8c0,0.2,0,0.5,0.1,0.7l-2,1c-0.7,0.4-1.3,1-1.5,1.7
			c-0.3,0.7-0.2,1.6,0.1,2.3c0.5,1,1.6,1.7,2.7,1.7c0.5,0,0.9-0.1,1.3-0.3l2.3-1.1c1.6,1.2,3.7,1.2,5.4,0.1c2-1.3,4.2-2.4,6.5-3.2
			l0.5-0.2c2.5-0.8,4.8-2,7-3.4l0.8-0.5c1.3-0.8,2.1-2.2,2.1-3.7l2.4-1.2C894.6,119.7,895.2,117.9,894.5,116.4L894.5,116.4z
			 M886.2,106.3c0.4-0.3,1.1-0.2,1.4,0.2c0.3,0.4,0.2,1.1-0.2,1.4l-1.6,1.2c-0.1-0.1-0.1-0.2-0.2-0.3l-1-1.3L886.2,106.3z
			 M851.9,112.3c-0.4,0.4-1,0.4-1.4,0c-0.4-0.4-0.4-1,0-1.4l0,0l1.4-1.4l1.2,1.2c0.1,0.1,0.1,0.1,0.2,0.2L851.9,112.3z M879.5,97.4
			c0.4-0.4,1-0.3,1.4,0.1s0.3,1-0.1,1.4l-1.5,1.3c-0.1-0.1-0.1-0.2-0.2-0.3l-1.1-1.3L879.5,97.4z M858.2,118.7
			c-0.4,0.3-1,0.3-1.4-0.1c-0.4-0.4-0.3-1,0.1-1.4l0,0l1.5-1.3l1.1,1.3c0.1,0.1,0.1,0.1,0.2,0.2L858.2,118.7z M861,115.8l-1.6-1.8
			c-0.9-1.1-0.9-2.6,0-3.7l0.6-0.7c1.6-1.8,3.5-3.4,5.5-4.8l0.4-0.3c2.2-1.5,4.1-3.2,5.9-5.1c0.5-0.6,1.3-0.9,2.1-0.9
			c0.8,0,1.6,0.4,2.1,1l1.6,1.8c0.9,1.1,0.9,2.6,0,3.7l-0.6,0.7c-1.5,1.6-3.1,3.1-4.9,4.3c-0.3,0.2-0.6,0.4-0.9,0.6l-0.4,0.2
			c-2.3,1.3-4.4,2.8-6.2,4.6l-0.7,0.7c-0.2,0.2-0.4,0.4-0.6,0.7C862.4,116.8,861.6,116.4,861,115.8L861,115.8z M863.2,125.7
			c-0.5,0.3-1.1,0.2-1.4-0.2s-0.2-1.1,0.2-1.4l0,0l1.6-1.2l1,1.4c0.1,0.1,0.1,0.1,0.2,0.2L863.2,125.7z M865.2,131.8
			c-0.5,0.2-1.1,0-1.3-0.5c-0.1-0.2-0.1-0.5,0-0.8s0.3-0.5,0.5-0.6l1.8-0.9l0.8,1.5c0,0.1,0.1,0.2,0.1,0.2L865.2,131.8z
			 M892.7,118.1c-0.1,0.3-0.3,0.5-0.5,0.6l-1.8,0.9c0-0.1-0.1-0.2-0.1-0.3l-0.7-1.5l1.8-0.9c0.5-0.2,1.1,0,1.3,0.5
			C892.8,117.5,892.8,117.8,892.7,118.1z"/>
		<path class="st1" d="M870.5,125.3l-0.6,0.4c-0.5,0.3-0.6,0.9-0.3,1.4s0.9,0.6,1.4,0.3c0,0,0,0,0.1,0l0.6-0.4
			c1.8-1.1,3.6-2.1,5.6-2.8l0.5-0.2c2.7-0.9,5.3-2.2,7.6-3.7c0.5-0.3,0.6-0.9,0.3-1.4c-0.3-0.5-0.9-0.6-1.4-0.3l0,0
			c-2.3,1.4-4.7,2.6-7.2,3.5l-0.5,0.2C874.5,123,872.4,124,870.5,125.3z"/>
	</g>
</g>
<g>
	<g>
		<path class="st1" d="M1041.1,121.3c-5,6.6-14.3,8-21,3c-0.6-0.4-1.1-0.9-1.6-1.4c-3.4-3.6-5.5-8.2-6-13.1c-0.3-4.2-2.9-8-6.8-9.6
			l-2.6-2.6c-0.8-0.8-0.9-2-0.2-2.9c0.7-0.8,2-0.9,2.8-0.2c0,0,0.1,0,0.1,0.1c0.4,0.4,1,0.4,1.4,0s0.4-1,0-1.4c-0.8-0.8-0.8-2,0-2.8
			s2-0.8,2.8,0c0.4,0.4,1,0.4,1.4,0s0.4-1,0-1.4c-0.8-0.8-0.8-2,0-2.8c0,0,0,0,0.1-0.1c0.9-0.7,2.1-0.6,2.9,0.2c0.4,0.4,1,0.4,1.4,0
			s0.4-1,0-1.4l0,0c-1.5-1.6-4-1.7-5.6-0.3c-0.3,0.3-0.6,0.6-0.8,1l-6.6-6.6c2-2.5,1.6-6.2-0.9-8.2c-2.5-2.1-6.3-1.8-8.4,0.7
			c-0.5,0.6-0.9,1.3-1.1,2c-0.3,0.9-0.4,1.9-0.2,2.9c-1.2,0-2.4,0.4-3.3,1.1c-1.7,1.1-2.8,3-2.8,5.1c0.1,3.3,2.8,5.9,6.2,5.8
			c1.5,0,3-0.7,4.1-1.7l4.5,4.5c0.4,0.4,1,0.4,1.4,0s0.4-1,0-1.4l-5.3-5.3c-0.4-0.4-1-0.4-1.4,0l-0.1,0.1c-1.2,1.8-3.7,2.3-5.6,1.1
			c-1.1-0.7-1.7-1.9-1.8-3.2c0-1.4,0.7-2.6,1.9-3.4c1-0.7,2.2-0.9,3.4-0.5c0.5,0.2,1.1-0.1,1.3-0.6c0.1-0.3,0.1-0.5-0.1-0.8
			c-0.5-0.9-0.6-2-0.3-3c0.5-1.4,1.6-2.4,3.1-2.7c2.2-0.4,4.2,1,4.6,3.2c0.2,1.4-0.2,2.8-1.3,3.7c-0.4,0.4-0.4,1-0.1,1.4l0,0
			l8.1,8.1l0,0c-1.1-0.1-2.3,0.4-3.1,1.2c-0.8,0.7-1.2,1.8-1.2,2.8c0,0.1,0,0.2,0,0.3c-0.1,0-0.2,0-0.4,0c-1.1,0-2.1,0.5-2.9,1.3
			c-1.4,1.6-1.3,4.1,0.3,5.6l2.6,2.6c0.2,0.2,0.4,0.3,0.6,0.4c3.2,1.4,5.4,4.5,5.6,8c0.6,5.4,2.9,10.4,6.6,14.4
			c6.5,6.6,17.2,6.7,23.9,0.2c0.6-0.6,1.2-1.3,1.7-2c0.3-0.4,0.2-1.1-0.2-1.4C1042,120.7,1041.4,120.8,1041.1,121.3L1041.1,121.3z"
			/>
		<path class="st1" d="M1041.1,100.2c-3.9-3.7-9-6.1-14.4-6.6c-3.5-0.2-6.6-2.4-8-5.6c-0.2-0.5-0.8-0.8-1.3-0.5s-0.8,0.8-0.5,1.3
			c1.7,3.9,5.4,6.6,9.6,6.8c4.9,0.5,9.5,2.6,13.1,6c4.3,4.3,5.6,10.8,3.2,16.4c-0.2,0.5,0,1.1,0.5,1.3c0.1,0,0.3,0.1,0.4,0.1
			c0.4,0,0.8-0.2,0.9-0.6C1047.5,112.4,1046,105.1,1041.1,100.2z"/>
		<circle class="st1" cx="1024.1" cy="118.3" r="1"/>
		<circle class="st1" cx="1020.1" cy="120.3" r="1"/>
		<circle class="st1" cx="1035.1" cy="122.3" r="1"/>
		<circle class="st1" cx="1033.1" cy="117.3" r="1"/>
		<circle class="st1" cx="1039.1" cy="114.3" r="1"/>
		<circle class="st1" cx="1024.1" cy="123.3" r="1"/>
		<circle class="st1" cx="1030.1" cy="120.3" r="1"/>
		<circle class="st1" cx="1039.1" cy="118.3" r="1"/>
		<circle class="st1" cx="1028.1" cy="117.3" r="1"/>
		<circle class="st1" cx="1022.1" cy="114.3" r="1"/>
		<circle class="st1" cx="1030.1" cy="124.3" r="1"/>
		<circle class="st1" cx="1018.1" cy="115.3" r="1"/>
		<circle class="st1" cx="1014.1" cy="103.3" r="1"/>
		<circle class="st1" cx="1016.1" cy="110.3" r="1"/>
	</g>
</g>
<g>
	<g>
		<path class="st1" d="M490.5,662.7l-2-4c-0.2-0.3-0.5-0.6-0.9-0.6h-4v-2h1c1.7,0,3-1.3,3-3v-2c0-0.6-0.4-1-1-1H469
			c-0.6,0-1,0.4-1,1s0.4,1,1,1h16.6v1c0,0.6-0.4,1-1,1h-48c-0.6,0-1-0.4-1-1v-1h13c0.1,0,0.1,0,0.2,0c0.3,0,0.5,0,0.8,0h3.7
			c5.6,0,11.2-1.3,16.3-3.8l0.4-0.2c3.7-1.8,5.5-6,4.4-10h2.5c0.4,0,0.8-0.3,0.9-0.7c0.4-1,1.5-1.6,2.5-1.2c0.8,0.3,1.3,1,1.3,1.9
			c0,0.5-0.2,1-0.5,1.3c-0.3,0.4-0.3,1,0,1.3c0.3,0.4,0.5,0.8,0.5,1.3c0,1.1-0.9,2-2,2c-0.8,0-1.6-0.5-1.9-1.3
			c-0.2-0.5-0.8-0.8-1.3-0.6s-0.8,0.8-0.6,1.3c0.7,2.1,3,3.2,5.1,2.4c1.6-0.6,2.7-2.1,2.7-3.8c0-0.7-0.2-1.4-0.5-2
			c0.4-0.6,0.5-1.3,0.5-2c0-2.2-1.8-4-4-4c-1.4,0-2.8,0.8-3.5,2h-2.7c-0.3-0.6-0.7-1.1-1.2-1.6l0,0c-0.5-0.6-1.2-1.1-1.8-1.5
			c-2.1-1.2-4.2-2.2-6.5-3l0,0c-3.8-1.3-7.8-2-11.8-2h-2.4c-0.3,0-0.7,0-1,0c-0.6,0-1,0.5-0.9,1.1c0,0.5,0.5,1,1.1,0.9
			c0.3,0,0.6,0,0.8,0c3.7,0,7,2,8.8,5.2l-1.8,1.7c-1.7,1.6-2.1,4.1-1,6.1c0.3,0.5,0.9,0.6,1.4,0.3c0.4-0.3,0.6-0.8,0.4-1.3
			c-0.7-1.2-0.4-2.7,0.6-3.7l1.2-1.2c1.2,4.1-0.3,8.5-3.8,10.9l-3.2-2.6c-2.7-2.2-6.6-2.7-9.7-1.1l-1.5,0.7
			c-0.1-0.1-0.1-0.2-0.2-0.3l2.3-4.2c1.4-2.6,1.3-5.7-0.3-8.1c0.7-0.6,1.5-1.2,2.4-1.6c0.5-0.2,0.7-0.8,0.5-1.3s-0.8-0.7-1.3-0.5
			c-6,2.9-8.5,10-5.6,16c0.9,1.9,2.4,3.6,4.2,4.8h-8.4c-0.6,0-1,0.4-1,1v2c0,1.7,1.3,3,3,3h1v2h-4c-0.4,0-0.7,0.2-0.9,0.6l-2,4
			c-0.1,0.1-0.1,0.3-0.1,0.4v12c0,0.6,0.4,1,1,1h30c0.6,0,1-0.4,1-1s-0.4-1-1-1h-29v-10.8l1.6-3.2h52.8l1.6,3.2v10.8h-23
			c-0.6,0-1,0.4-1,1s0.4,1,1,1h24c0.6,0,1-0.4,1-1v-12C490.6,663,490.6,662.8,490.5,662.7z M470.2,635.4c-1.1,1.8-2.5,3.3-4.2,4.6
			c0.2-2.4,0-4.8-0.7-7.2c1.4,0.6,2.8,1.3,4.1,2C469.6,635,469.9,635.2,470.2,635.4z M461.6,640.1c0-3.8-1.8-7.4-4.9-9.7
			c2.1,0.3,4.1,0.8,6.1,1.4c1.4,3.2,1.7,6.7,0.8,10c-0.1,0.5,0.2,1.1,0.7,1.2c0.3,0.1,0.6,0,0.8-0.1l1.6-1.1c1.9-1.3,3.5-3,4.7-4.9
			c2,3,1.1,7-1.9,9c-0.2,0.1-0.4,0.3-0.7,0.4l-0.4,0.2c-3.8,1.9-7.9,3.1-12.2,3.5C459.7,647.7,461.6,644,461.6,640.1z M441.5,634.3
			c0.9,1.8,0.9,3.8-0.1,5.6l-1.5,2.7C439.2,639.8,439.7,636.7,441.5,634.3z M442.3,646.9l1.1-0.6c2.5-1.2,5.4-0.9,7.6,0.8l2.6,2.1
			C449.7,651,445.1,650,442.3,646.9L442.3,646.9z M477.6,656.1v2h-34v-2H477.6z M439.6,658.1v-2h2v2H439.6z M479.6,658.1v-2h2v2
			H479.6z"/>
		<path class="st1" d="M461.6,662.1h-6c-0.6,0-1,0.4-1,1s0.4,1,1,1h5v6h-23v-6h14c0.6,0,1-0.4,1-1s-0.4-1-1-1h-15c-0.6,0-1,0.4-1,1
			v8c0,0.6,0.4,1,1,1h25c0.6,0,1-0.4,1-1v-8C462.6,662.6,462.2,662.1,461.6,662.1z"/>
		<path class="st1" d="M472.6,672.1c0.6,0,1-0.4,1-1v-8c0-0.6-0.4-1-1-1h-4c-0.6,0-1,0.4-1,1v8c0,0.6,0.4,1,1,1H472.6z M471.6,670.1
			h-2v-2h2V670.1z M469.6,664.1h2v2h-2V664.1z"/>
		<path class="st1" d="M481.6,672.1c0.6,0,1-0.4,1-1v-8c0-0.6-0.4-1-1-1h-4c-0.6,0-1,0.4-1,1v8c0,0.6,0.4,1,1,1H481.6z M480.6,670.1
			h-2v-2h2V670.1z M478.6,664.1h2v2h-2V664.1z"/>
		<circle class="st1" cx="440.6" cy="667.1" r="1"/>
		<circle class="st1" cx="444.6" cy="667.1" r="1"/>
		<circle class="st1" cx="448.6" cy="667.1" r="1"/>
		<circle class="st1" cx="456.6" cy="667.1" r="1"/>
		<path class="st1" d="M449.6,640.1c2.2,0,4-1.8,4-4s-1.8-4-4-4s-4,1.8-4,4S447.4,640.1,449.6,640.1z M449.6,634.1c1.1,0,2,0.9,2,2
			s-0.9,2-2,2s-2-0.9-2-2S448.5,634.1,449.6,634.1z"/>
	</g>
</g>
<path class="st1" d="M256.4,270.4c-1.2-1.7-2.7-2.5-4.1-2.5c-3.2,0.2-5.3,4.9-5.1,7.4c0.1,1.4,0.7,2.6,1.8,3.5
	c0.8,0.7,1.8,1.1,2.8,1.2c0.4,0.1,0.7,0.1,1.1,0.1c1.4,0,2.8-0.6,3.8-1.6s1.5-2.3,1.5-3.6C257.9,273.2,257.3,271.7,256.4,270.4z
	 M255.6,277.5c-0.6,0.6-1.4,1-2.3,1.1c-0.1,0-0.1-0.1-0.2-0.1c-0.2-0.3-0.7-1.5-0.8-3.5c-0.1-1.2,0-2.4,0.4-3.5
	c0.2-0.4,0-0.8-0.4-0.9l0,0c-0.4-0.2-0.8,0-0.9,0.4l0,0c-0.4,1.3-0.6,2.7-0.5,4.1c0,1.2,0.3,2.4,0.6,3.5c-0.6-0.1-1.3-0.4-1.8-0.8
	c-0.8-0.6-1.2-1.5-1.3-2.5c-0.1-2.2,1.7-5.8,3.8-5.9c0.1,0,0.2,0,0.3,0c1,0.3,2,0.9,2.5,1.9c0.8,1.1,1.3,2.3,1.4,3.7l0,0
	C256.7,275.9,256.3,276.8,255.6,277.5L255.6,277.5z M251.1,260.3c0.8,0.8,1.9,1.2,3,1.4c1.6,0.3,3.3-0.3,4.4-1.5l0,0
	c1-1.3,1.6-2.8,1.8-4.4c0.3-2-0.1-3.7-1.2-4.6c-2.4-2.1-7.1-0.2-8.8,1.7C248.5,255,248.9,258.3,251.1,260.3z M251.4,253.8
	c1.5-1.5,3.5-2.2,5.6-2.1c0.5,0.1,0.9,0.2,1.3,0.5c0.7,0.6,1,1.8,0.8,3.3c-0.2,1.3-0.7,2.6-1.5,3.6c-1.3,1.4-3.5,1.5-5,0.3
	c0-0.1,0-0.1-0.1-0.2c0.1-0.4,0.6-1.6,1.9-3.1c0.7-0.9,1.6-1.7,2.7-2.2c0.4-0.1,0.6-0.5,0.4-0.9s-0.5-0.6-0.9-0.4c0,0,0,0-0.1,0
	c-1.2,0.6-2.3,1.5-3.2,2.6c-0.8,0.9-1.5,1.9-2,3C250.3,257,250.4,255.1,251.4,253.8z M271.2,278.8c-1.1-0.9-2.8-1.2-4.7-0.7
	c-1.6,0.4-3,1.2-4.1,2.4c-1.8,2.1-1.5,5.4,0.8,7.4c0.8,0.8,1.9,1.2,3,1.4c1.6,0.3,3.3-0.3,4.4-1.5
	C272.3,285.9,273.6,280.9,271.2,278.8z M269.5,286.8c-1.3,1.4-3.5,1.5-5,0.3c0-0.1,0-0.1-0.1-0.2c0.1-0.4,0.6-1.6,1.9-3.1
	c0.7-0.9,1.6-1.7,2.7-2.2c0.3-0.2,0.5-0.6,0.3-1c-0.2-0.3-0.5-0.4-0.8-0.3c-1.2,0.6-2.3,1.5-3.2,2.6c-0.7,0.8-1.3,1.7-1.8,2.6
	c-0.1,0.1-0.1,0.2-0.2,0.3c-1-1.4-0.9-3.2,0.1-4.5c1-0.9,2.1-1.6,3.4-1.9c0.7-0.2,1.4-0.3,2.2-0.2c0.5,0,0.9,0.2,1.3,0.5
	C271.9,281.2,271,285.2,269.5,286.8z M275.6,260.5c-0.8-2.7-3.8-4.1-6.7-3.3c-2.9,0.8-4.6,3.7-3.9,6.3l0,0c0.6,2,3.1,5.1,5.8,5.4
	c0.5,0.1,1,0,1.5-0.1c1.4-0.4,2.5-1.7,3.1-3.6C275.9,263.7,276,262.1,275.6,260.5L275.6,260.5z M274.1,264.8
	c-0.5,1.5-1.2,2.4-2.1,2.7c-2,0.6-4.9-2.3-5.5-4.4c-0.4-1.8,0.6-3.7,2.3-4.4c0.1,0,0.1,0,0.2,0c0.3,0.2,1,1.3,1.6,3.3
	c0.4,1.1,0.5,2.3,0.5,3.5c-0.1,0.4,0.2,0.7,0.6,0.8l0,0c0.4,0.1,0.7-0.2,0.8-0.6c0.1-1.4-0.1-2.8-0.5-4.1c-0.3-1-0.7-2-1.2-3
	c-0.1-0.1-0.1-0.2-0.2-0.3c1.7-0.1,3.2,0.9,3.7,2.5C274.6,262.2,274.5,263.5,274.1,264.8L274.1,264.8z M235.9,277
	c-1.9,1.6-4.1,6.3-2.1,8.8c0.7,0.8,1.6,1.3,2.7,1.4c2.2,0.2,4.5-0.3,6.3-1.6c2.1-1.7,2.3-5.1,0.4-7.4
	C241.3,275.8,238,275.3,235.9,277L235.9,277z M241.9,284.4c-1.7,1.4-5.7,2.1-7,0.4c-1.3-1.6,0.2-5.4,1.9-6.8
	c0.7-0.6,1.7-0.8,2.6-0.7c0.9,0.1,1.7,0.5,2.3,1.2c0,0.1,0,0.1,0,0.2c-0.1,0.4-0.8,1.4-2.4,2.7c-0.9,0.8-1.9,1.4-3,1.8
	c-0.4,0.1-0.6,0.5-0.5,0.8s0.3,0.5,0.6,0.5c0.1,0,0.2,0,0.3,0c1.3-0.4,2.5-1.1,3.6-2.1c0.9-0.7,1.7-1.6,2.4-2.6
	C243.5,281.5,243.1,283.3,241.9,284.4L241.9,284.4z M241.1,272.1c2.5-1.7,3.2-5,1.6-7.2c-1-1.3-2.3-2.2-3.8-2.8
	c-1.9-0.8-3.6-0.7-4.8,0.1s-1.8,2.4-1.7,4.4c0,1.6,0.5,3.2,1.4,4.6c0.8,1.1,2,1.8,3.3,2C238.5,273.2,240,272.9,241.1,272.1z
	 M233.9,266.5c0-1.5,0.4-2.7,1.1-3.2c0.6-0.4,1.3-0.5,2-0.3c0.5,0.1,1,0.2,1.4,0.4c1.2,0.5,2.3,1.3,3.2,2.3c1,1.6,0.6,3.7-0.8,4.9
	c-0.1,0-0.1,0-0.2,0c-0.4-0.1-1.4-0.9-2.5-2.6c-0.7-0.9-1.2-2-1.5-3.1c-0.1-0.4-0.4-0.7-0.8-0.6l0,0c-0.4,0.1-0.7,0.4-0.6,0.8l0,0
	c0.3,1.3,0.9,2.6,1.8,3.7c0.7,1,1.5,1.9,2.4,2.6c-1.5,0.6-3.3,0.2-4.3-1.2C234.2,269.1,233.9,267.8,233.9,266.5z"/>
<path class="st1" d="M274.9,282.4c-2-0.3-3.7,0.1-4.6,1.2c-2.2,2.4-0.2,7.2,1.6,8.9c1,0.9,2.4,1.3,3.7,1.2c1-0.1,2-0.5,2.8-1.1
	c0.3-0.2,0.6-0.5,0.8-0.8c1-1,1.5-2.4,1.5-3.8s-0.6-2.7-1.6-3.6C278,283.3,276.5,282.6,274.9,282.4z M279.4,287.9
	c0,0.9-0.3,1.7-0.8,2.4c-0.1,0-0.1,0-0.2,0.1c-0.4,0-1.6-0.6-3.1-2c-0.9-0.7-1.7-1.7-2.2-2.7c-0.1-0.4-0.6-0.5-0.9-0.4l0,0
	c-0.4,0.1-0.5,0.6-0.4,0.9l0,0c0.6,1.2,1.5,2.4,2.6,3.2c0.9,0.8,1.9,1.5,2.9,2c-0.5,0.4-1.2,0.6-1.8,0.7c-1,0.1-1.9-0.2-2.6-0.8
	c-1.6-1.4-2.9-5.3-1.5-6.8c0.1-0.1,0.2-0.2,0.3-0.2c0.9-0.6,2-0.7,3.1-0.5c1.3,0.2,2.6,0.7,3.6,1.5l0,0
	C279,286,279.4,286.9,279.4,287.9L279.4,287.9z M264,279c1.1-0.1,2.2-0.5,3.1-1.2c1.3-1,2.1-2.6,2-4.2l0,0c-0.2-1.6-0.8-3.1-1.8-4.4
	c-1.2-1.6-2.7-2.5-4.1-2.4c-3.2,0.2-5.1,5-5,7.5C258.4,277.1,261,279.2,264,279z M259.6,274.3c0-2.1,0.9-4.1,2.4-5.5
	c0.4-0.3,0.8-0.5,1.3-0.5c0.9-0.1,2,0.6,2.9,1.8c0.8,1.1,1.4,2.3,1.5,3.6c0,1.9-1.4,3.5-3.3,3.8c-0.1,0-0.1,0-0.2-0.1
	c-0.2-0.3-0.7-1.5-0.8-3.5c-0.1-1.2,0-2.4,0.3-3.5c0.2-0.4,0-0.8-0.3-0.9c-0.3-0.1-0.8,0-0.9,0.3c0,0,0,0,0,0.1
	c-0.4,1.3-0.6,2.7-0.4,4.1c0.1,1.2,0.3,2.4,0.7,3.5C261.1,277.2,259.8,275.9,259.6,274.3z M287.3,273.7c-1.4,0.1-2.8,1.1-3.8,2.9
	c-0.8,1.4-1.2,3-1.2,4.6c0.2,2.8,2.8,4.8,5.8,4.6c1.1-0.1,2.2-0.5,3.1-1.2c1.3-1,2.1-2.6,2-4.2C293.1,277.9,290.5,273.5,287.3,273.7
	z M291.8,280.5c0,1.9-1.4,3.5-3.3,3.8c-0.1,0-0.1,0-0.2-0.1c-0.2-0.3-0.7-1.5-0.8-3.5c-0.1-1.2,0-2.4,0.3-3.5
	c0.1-0.4-0.1-0.8-0.5-0.9c-0.3-0.1-0.7,0-0.8,0.3c-0.4,1.3-0.6,2.7-0.4,4.1c0.1,1.1,0.2,2.1,0.6,3.1c0,0.1,0.1,0.2,0.1,0.4
	c-1.7-0.2-2.9-1.6-3.1-3.2c0-1.3,0.4-2.6,1-3.8c0.3-0.6,0.8-1.2,1.4-1.7c0.4-0.3,0.8-0.5,1.3-0.5
	C289.5,274.9,291.7,278.4,291.8,280.5z M281.4,261.7c-2.4-1.3-5.6-0.2-7,2.4c-1.5,2.7-0.6,5.9,1.8,7.2l0,0c1.9,1,5.8,1.3,7.9-0.3
	c0.4-0.3,0.7-0.7,1-1.1c0.7-1.3,0.5-2.9-0.4-4.7C283.8,263.7,282.7,262.5,281.4,261.7L281.4,261.7z M283.3,265.8
	c0.7,1.3,0.9,2.6,0.4,3.4c-1,1.8-5.1,1.9-7,0.9c-1.6-1-2.2-3-1.5-4.7c0.1,0,0.1-0.1,0.2-0.1c0.4,0,1.7,0.2,3.4,1.2
	c1.1,0.5,2,1.2,2.8,2.1c0.2,0.3,0.7,0.4,1,0.1l0,0c0.3-0.2,0.4-0.7,0.1-1c-0.9-1.1-2-1.9-3.3-2.5c-0.9-0.5-1.9-0.9-3-1.2
	c-0.1,0-0.2-0.1-0.3-0.1c1.1-1.3,2.9-1.6,4.4-0.9C281.8,263.6,282.7,264.6,283.3,265.8L283.3,265.8z M260.2,298.6
	c-0.2,2.5,1.6,7.3,4.8,7.6c1,0.1,2.1-0.3,2.9-0.9c1.7-1.4,2.9-3.4,3.3-5.6c0.3-2.8-2-5.2-5-5.5C263.1,293.9,260.5,295.9,260.2,298.6
	L260.2,298.6z M269.7,299.5c-0.2,2.1-2.5,5.5-4.6,5.3s-3.7-3.9-3.5-6.1c0.1-0.9,0.6-1.8,1.4-2.4c0.7-0.5,1.6-0.8,2.5-0.8
	c0.1,0,0.1,0.1,0.2,0.1c0.2,0.3,0.4,1.6,0.3,3.6c-0.1,1.2-0.3,2.3-0.8,3.4c-0.2,0.3-0.1,0.8,0.2,1c0.2,0.2,0.6,0.1,0.8,0
	c0.1-0.1,0.1-0.1,0.2-0.2c0.6-1.2,1-2.6,1-4c0.1-1.2,0.1-2.4-0.1-3.5C268.7,296.4,269.8,297.9,269.7,299.5L269.7,299.5z M259,288.1
	c0.5-3-1.3-5.8-4-6.2c-1.6-0.2-3.2,0.1-4.7,0.7c-1.9,0.8-3,2-3.3,3.5c-0.2,1.4,0.5,2.9,1.9,4.4c1.2,1.1,2.6,1.9,4.2,2.2
	c1.3,0.2,2.7-0.1,3.7-1C258,290.8,258.7,289.5,259,288.1z M249.9,289.3c-1.1-1-1.7-2.2-1.5-3.1c0.2-0.7,0.6-1.3,1.2-1.7
	c0.4-0.3,0.8-0.5,1.3-0.7c1.2-0.5,2.6-0.8,3.9-0.6c1.8,0.4,3.1,2.2,2.9,4c0,0-0.1,0.1-0.1,0.2c-0.3,0.2-1.6,0.3-3.6,0
	c-1.2-0.1-2.3-0.5-3.3-1.1c-0.3-0.2-0.8-0.2-1,0.2l0,0c-0.2,0.3-0.2,0.8,0.2,1l0,0c1.2,0.7,2.5,1.2,3.9,1.3c1.2,0.2,2.4,0.3,3.6,0.2
	c-0.6,1.5-2.2,2.5-3.9,2.3C252,290.9,250.9,290.2,249.9,289.3z"/>
<rect x="738" y="574" class="st0" width="599" height="133"/>
<rect x="44.8" y="76" class="st2" width="589.9" height="66.2"/>
<text transform="matrix(1 0 0 1 44.8428 88.8797)"><tspan x="0" y="0" class="st3 st4 st5">Make your own rules:</tspan><tspan x="180.2" y="0" class="st3 st6 st5"> </tspan><tspan x="184.1" y="0" class="st3 st7 st5">e.g. a once a day/week rule, changing from </tspan><tspan x="0" y="20.4" class="st3 st7 st5">larger to smaller quantities. And take the pressure off: every reduction </tspan><tspan x="0" y="40.8" class="st3 st7 st5">is great!</tspan></text>
<rect x="752.4" y="592.5" class="st2" width="598.2" height="107.7"/>
<text transform="matrix(1 0 0 1 752.3762 605.4063)"><tspan x="0" y="0" class="st3 st4 st5">If you eat meat, </tspan><tspan x="132.1" y="0" class="st3 st7 st5">then it should be organic and from species-</tspan><tspan x="0" y="20.4" class="st3 st7 st5">appropriate, regional production, preferably from the direct marketer. </tspan><tspan x="0" y="40.8" class="st3 st7 st5">Find out whether there are suppliers of organic meat in your region. </tspan><tspan x="0" y="61.2" class="st3 st7 st5">Make sure the animal feed is not coming from overseas. And you just </tspan><tspan x="0" y="81.6" class="st3 st7 st5">learned which animals cause the least CO2 equivalents!</tspan></text>
<rect x="46.7" y="422.2" class="st2" width="580.4" height="95.9"/>
<text transform="matrix(1 0 0 1 46.6851 435.114)"><tspan x="0" y="0" class="st3 st4 st5">If you miss the taste of meat,</tspan><tspan x="237.9" y="0" class="st3 st7 st5"> you are well served with strongly spiced </tspan><tspan x="0" y="20.4" class="st3 st7 st5">dishes like curries. Also as if versions, for example noodles with soy </tspan><tspan x="0" y="40.8" class="st3 st7 st5">Bolognese sauce or sliced meat with seitan, are a good </tspan><tspan x="0" y="61.2" class="st3 st7 st5">alternative for some people.</tspan></text>
<rect x="752.4" y="228.7" class="st2" width="580.4" height="87.4"/>
<text transform="matrix(1 0 0 1 752.3758 258.9626)"><tspan x="0" y="0" class="st3 st4 st5">If you fear protein deficiency </tspan><tspan x="245.6" y="0" class="st3 st7 st5">by eating less meat, do not worry! </tspan><tspan x="0" y="20.4" class="st3 st7 st5">You can still follow a healthy, balanced diet: Legumes, cereals and dairy </tspan><tspan x="0" y="40.8" class="st3 st7 st5">products are high-quality sources of protein.</tspan></text>
</svg>
