<?xml version="1.0" encoding="utf-8"?>
<!-- Generator: Adobe Illustrator 24.2.1, SVG Export Plug-In . SVG Version: 6.00 Build 0)  -->
<svg version="1.1" id="Ebene_1" xmlns="http://www.w3.org/2000/svg" xmlns:xlink="http://www.w3.org/1999/xlink" x="0px" y="0px"
	 viewBox="0 0 1366 768" style="enable-background:new 0 0 1366 768;" xml:space="preserve">
<style type="text/css">
	.st0{opacity:0.1;fill:#5C6A7D;enable-background:new    ;}
	.st1{fill:#38485E;}
	.st2{fill-rule:evenodd;clip-rule:evenodd;fill:#253854;}
	.st3{opacity:0.2;fill:#8AE3FF;enable-background:new    ;}
	.st4{fill:none;}
	.st5{fill:#1C2A40;}
	.st6{font-family:'IBMPlexSerif-Bold';}
	.st7{font-size:17px;}
	.st8{font-family:'IBMPlexSerif-SemiBold';}
	.st9{font-family:'IBMPlexSerif-Text';}
</style>
<rect x="29.2" y="67.7" class="st3" width="598.2" height="88.6"/>
<rect x="26.1" y="413.6" class="st3" width="598" height="107.3"/>
<rect x="736.1" y="235.4" class="st3" width="599" height="92.2"/>
<g>
	<path class="st1" d="M816.4,456.6h-3.7l4.7-19.8c0.1-0.5-0.2-1.1-0.7-1.2l-4-1c-0.5-0.1-1.1,0.2-1.2,0.7l-5.8,21.3h-2.3
		c0.7-0.9,1-1.9,1-3v-3h-3c-2.4,0-4.5,1.7-4.9,4.1c-1.6-2.2-4.6-2.8-6.9-1.3c-0.1,0.1-0.2,0.1-0.3,0.2c2-8.8,2-8.9,2-9.1
		c0-2.2-1.8-4-4-4c-0.1,0-0.2,0-0.4,0c-1.1-3.1-4.5-4.8-7.6-3.7c-1.7,0.6-3.1,2-3.7,3.7c-2.2-0.2-4.1,1.4-4.3,3.6c0,0.1,0,0.2,0,0.3
		c0,0.3,0,0.7,1.7,6.1c-0.2,0-0.5-0.1-0.7-0.1h-3v3c0,1.1,0.4,2.1,1,3h-4c-0.6,0-1,0.4-1,1c0,9.3,8.7,15.2,11,16.6v3.4
		c0,0.6,0.4,1,1,1h28c0.6,0,1-0.4,1-1v-3.2c2.3-1.4,11-7.3,11-16.6C817.4,457.1,817,456.6,816.4,456.6z M813.1,436.8l2.1,0.5
		l-4.6,19.3h-2.8L813.1,436.8z M798.4,455.6c0-1.7,1.3-3,3-3h1v1c0,1.7-1.3,3-3,3h-1V455.6z M792.4,454.6c1.3,0,2.4,0.8,2.8,2h-5.7
		C790,455.4,791.2,454.6,792.4,454.6z M787.3,456.6h-5.7c0.6-1.6,2.3-2.4,3.8-1.8C786.3,455.1,787,455.8,787.3,456.6z M773.4,444.6
		c0-1.1,0.8-2,1.9-2c0.3,0,0.5,0,0.8,0.2c0.5,0.2,1.1-0.1,1.3-0.6c0-0.1,0-0.1,0.1-0.2c0.3-2.2,2.4-3.7,4.5-3.3
		c1.7,0.3,3.1,1.6,3.3,3.3c0.1,0.5,0.6,0.9,1.1,0.8c0.1,0,0.1,0,0.2-0.1c1-0.4,2.2,0.1,2.6,1.1c0.1,0.2,0.1,0.5,0.2,0.7
		c-0.1,0.7-1.3,5.7-2.1,9c-0.8-0.6-1.9-1-2.9-1c-2.4,0-4.4,1.7-4.9,4h-2.1v-1c0-1.5-0.7-2.9-1.9-3.9
		C773.7,446,773.5,444.8,773.4,444.6z M771.4,453.6v-1h1c1.7,0,3,1.3,3,3v1h-1C772.8,456.6,771.4,455.3,771.4,453.6z M805.2,472.6
		h-4.7v2h4v2h-26v-2h13v-2h-13.7c-1.1-0.7-6.8-4.3-9.2-10h11v-2h-11.8c-0.2-0.7-0.3-1.3-0.3-2h47.9c-0.1,0.7-0.2,1.3-0.3,2h-21.6v2
		h21C812,468.3,806.3,472,805.2,472.6z"/>
	<rect x="781.4" y="460.6" class="st1" width="2" height="2"/>
	<rect x="785.4" y="460.6" class="st1" width="2" height="2"/>
	<rect x="789.4" y="460.6" class="st1" width="2" height="2"/>
	<path class="st1" d="M789.9,434c-0.3,0.6-0.3,1.2-0.2,1.8c0.4,2,2.8,4.1,5.4,4.8c2,0.6,4.1,0.9,6.2,1l0,0c0.6,0,1-0.4,1-1
		c0-0.2-0.1-0.4-0.2-0.6c0,0-1.1-1.6-3-4c-0.8-1.1-3.1-3.7-5.6-4c-0.8-0.1-1.6,0.1-2.3,0.4c-1.1-0.5-1.9-1.6-1.9-2.9h-2
		C787.4,431.4,788.4,433.1,789.9,434z M793.1,434c0.1,0,0.2,0,0.2,0c1.2,0.1,2.9,1.4,4.3,3.2c0.6,0.8,1.2,1.6,1.6,2.2
		c-1.2-0.2-2.4-0.4-3.6-0.7c-2.1-0.6-3.7-2.1-4-3.3c-0.1-0.4,0-0.8,0.4-1C792.4,434.2,792.7,434,793.1,434L793.1,434z"/>
	<rect x="777.4" y="446.6" class="st1" width="2" height="2"/>
	<rect x="782.4" y="448.6" class="st1" width="2" height="2"/>
	<path class="st1" d="M770.4,434.6c0.3,0,1.2,0.1,2.5,0.1c2.5,0,6.2-0.2,8.1-1.2c1.2-0.7,2.2-1.9,2.6-3.3c0.5-1.3,0.4-2.8-0.2-4.1
		c-1.2-2.3-5-2.7-7.4-1.4c-2.9,1.5-6.1,7.7-6.4,8.4c-0.3,0.5-0.1,1.1,0.4,1.3C770.1,434.6,770.2,434.6,770.4,434.6z M776.2,429.1
		l-3,1.8c0.5-0.7,1-1.5,1.5-2.2L776.2,429.1z M777.4,430.7v1.7c-1.1,0.1-2.2,0.2-3.4,0.3L777.4,430.7z M781.6,429.6
		c-0.2,0.9-0.8,1.7-1.6,2.1c-0.2,0.1-0.4,0.2-0.5,0.2v-2.4l2.4-1.4C781.8,428.6,781.7,429.1,781.6,429.6L781.6,429.6z M780.8,426.4
		l-2.1,1.2l0,0l-2.5-0.6c0.2-0.2,0.5-0.4,0.7-0.5C778.1,425.9,779.6,425.9,780.8,426.4L780.8,426.4z"/>
	<path class="st1" d="M804.4,426.6h2c0.6,0,1-0.4,1-1c0-3.9-3.1-7-7-7h-2c-0.6,0-1,0.4-1,1C797.4,423.5,800.6,426.6,804.4,426.6z
		 M800.4,420.6c2.4,0,4.4,1.7,4.9,4h-0.9c-2.4,0-4.4-1.7-4.9-4H800.4z"/>
	<path class="st1" d="M792.4,426.6c1.7,0,3-1.3,3-3s-1.3-3-3-3s-3,1.3-3,3S790.8,426.6,792.4,426.6z M792.4,422.6c0.6,0,1,0.4,1,1
		s-0.4,1-1,1s-1-0.4-1-1S791.9,422.6,792.4,422.6z"/>
	<path class="st1" d="M803.4,432.6c0,1.7,1.3,3,3,3s3-1.3,3-3s-1.3-3-3-3C804.8,429.6,803.4,431,803.4,432.6z M807.4,432.6
		c0,0.6-0.4,1-1,1s-1-0.4-1-1s0.4-1,1-1C807,431.6,807.4,432.1,807.4,432.6z"/>
	<rect x="796.4" y="445.6" class="st1" width="2" height="2"/>
	<rect x="799.4" y="428.6" class="st1" width="2" height="2"/>
	<rect x="783.4" y="419.6" class="st1" width="2" height="2"/>
	<rect x="804.4" y="441.6" class="st1" width="2" height="2"/>
</g>
<g>
	<path class="st1" d="M551.7,261.9c-0.8-0.1-6.9-0.4-10.5,2.9c-1.7,1.6-2.6,3.8-2.5,6.1c-0.2,2,1.2,3.8,3.2,4c0.3,0,0.5,0,0.8,0
		c2.6,0,4-1.5,4-3s0-2,5-2s5,0.5,5,2s1.4,3,4,3c2,0.2,3.8-1.2,4-3.2c0-0.3,0-0.5,0-0.8c0.1-2.3-0.8-4.5-2.5-6.1
		C558.6,261.6,552.5,261.9,551.7,261.9z M560.7,272.9c-1.3,0-2-0.5-2-1c0-3-1-4-7-4s-7,1-7,4c0,0.5-0.7,1-2,1c-1.4,0-2-0.6-2-2
		c-0.1-1.7,0.6-3.4,1.9-4.6c0.8-0.7,1.7-1.2,2.6-1.5c-0.3,0.7-0.5,1.4-0.5,2.1h2c0-1.3,0.8-2.4,2-2.9c0.6-0.1,1.3-0.1,2-0.1v2h2v-2
		c0.7,0,1.3,0,1.9,0.1c1.2,0.5,2,1.6,2.1,2.9h2c0-0.7-0.2-1.5-0.5-2.2c1,0.3,1.9,0.9,2.6,1.5c1.3,1.2,1.9,2.9,1.9,4.6
		C562.7,272.4,562.1,272.9,560.7,272.9z"/>
	<path class="st1" d="M550.7,288.1l-2-0.3l-1,7c-0.1,0.5,0.3,1.1,0.8,1.1h0.1h4v-2h-2.8L550.7,288.1z"/>
	<path class="st1" d="M586.1,274.2c-6.3-3.1-10.6-3.1-16.9,0c-0.7,0.4-1.4,0.8-2,1.2c0.9-1.3,1.4-2.9,1.4-4.5
		c0-5.5-4.4-10.6-8.6-12.7c-6.3-3.1-10.6-3.1-16.9,0c-4.2,2.1-8.6,7.4-8.6,12.7c0,4.4,3.6,8,8,8c1.1,0,2.2-0.3,3.2-0.8l-2.2,15.6
		c-0.2,1.6,0.3,3.2,1.3,4.4c0.9,1.1,2.3,1.7,3.7,1.8h6c1.4,0,2.8-0.7,3.7-1.8c1-1.2,1.5-2.8,1.3-4.4l-2.2-15.6
		c1,0.5,2.1,0.8,3.2,0.8c1.4,0,2.7-0.3,3.9-1c-2.3,2.4-3.7,5.6-3.9,9c0,4.4,3.6,8,8,8c1.1,0,2.2-0.3,3.2-0.8l-2.2,15.6
		c-0.2,1.6,0.3,3.2,1.3,4.4c0.9,1.1,2.3,1.7,3.7,1.8h6c1.4,0,2.8-0.7,3.7-1.8c1-1.2,1.5-2.8,1.3-4.4l-2.2-15.6
		c1,0.5,2.1,0.8,3.2,0.8c4.4,0,8-3.6,8-8C594.7,281.4,590.3,276.3,586.1,274.2z M557.7,294.1c0.1,1-0.2,2-0.9,2.8
		c-0.5,0.7-1.3,1.1-2.2,1.1h-6c-0.8,0-1.6-0.4-2.2-1.1c-0.7-0.8-1-1.8-0.8-2.8l2.5-17.6c0.4-0.5,0.8-1,1.1-1.5h4.8
		c0.3,0.5,0.7,1.1,1.1,1.5L557.7,294.1z M560.7,276.9c-2.2,0-4.2-1.4-5.1-3.4c-0.2-0.3-0.5-0.6-0.9-0.6h-6c-0.4,0-0.7,0.2-0.9,0.6
		c-0.9,2.1-2.9,3.4-5.1,3.4c-3.3,0-6-2.7-6-6c0-4.5,3.8-9.1,7.4-10.9c5.7-2.8,9.4-2.8,15.1,0c3.7,1.8,7.4,6.4,7.4,10.9
		C566.7,274.2,564,276.9,560.7,276.9z M583.7,310.1c0.1,1-0.2,2-0.8,2.8c-0.5,0.7-1.3,1.1-2.2,1.1h-6c-0.8,0-1.6-0.4-2.2-1.1
		c-0.7-0.8-1-1.8-0.8-2.8l2.5-17.6c0.4-0.5,0.8-1,1.1-1.5h4.8c0.3,0.5,0.7,1.1,1.1,1.5L583.7,310.1z M586.7,292.9
		c-2.2,0-4.2-1.4-5.1-3.4c-0.2-0.3-0.5-0.6-0.9-0.6h-6c-0.4,0-0.7,0.2-0.9,0.6c-0.9,2.1-2.9,3.4-5.1,3.4c-3.3,0-6-2.7-6-6
		c0-4.5,3.8-9.1,7.4-10.9c5.7-2.8,9.4-2.8,15.1,0c3.7,1.8,7.4,6.4,7.4,10.9C592.7,290.2,590,292.9,586.7,292.9z"/>
	<path class="st1" d="M577.7,277.9c-0.8-0.1-6.9-0.4-10.5,2.9c-1.7,1.6-2.6,3.8-2.5,6.1c-0.2,2,1.2,3.8,3.2,4c0.3,0,0.5,0,0.8,0
		c2.6,0,4-1.5,4-3s0-2,5-2s5,0.5,5,2s1.4,3,4,3c2,0.2,3.8-1.2,4-3.2c0-0.3,0-0.5,0-0.8c0.1-2.3-0.8-4.5-2.5-6.1
		C584.6,277.6,578.5,277.9,577.7,277.9z M586.7,288.9c-1.3,0-2-0.5-2-1c0-3-1-4-7-4s-7,1-7,4c0,0.5-0.7,1-2,1c-1.4,0-2-0.6-2-2
		c-0.1-1.7,0.6-3.4,1.9-4.6c0.8-0.7,1.7-1.2,2.6-1.5c-0.3,0.7-0.5,1.4-0.5,2.1h2c0-1.3,0.8-2.5,2-2.9c0.6-0.1,1.3-0.1,2-0.1v2h2v-2
		c0.7,0,1.3,0,1.9,0.1c1.2,0.5,2,1.6,2.1,2.9h2c0-0.7-0.2-1.5-0.5-2.2c1,0.3,1.9,0.9,2.6,1.5c1.3,1.2,1.9,2.9,1.9,4.6
		C588.7,288.4,588.1,288.9,586.7,288.9z"/>
	<path class="st1" d="M576.7,304.1l-2-0.3l-1,7c-0.1,0.5,0.3,1.1,0.8,1.1h0.1h4v-2h-2.8L576.7,304.1z"/>
	<rect x="578.7" y="304.9" class="st1" width="2" height="2"/>
	<rect x="575.7" y="297.9" class="st1" width="2" height="2"/>
	<rect x="551.7" y="282.9" class="st1" width="2" height="2"/>
</g>
<g>
	<path class="st1" d="M334.7,282.6c-0.3-0.3-0.4-0.7-0.4-1.1h-1h-1c0,1,0.5,2,1.3,2.7c0.5,0.3,1,0.5,1.6,0.5c0.5,0,1-0.1,1.4-0.3
		l-0.6-1.9C335.6,282.7,335,282.8,334.7,282.6z"/>
	<path class="st1" d="M382.3,276.5c-1.1,0-2.2,0.3-3.1,0.9c-0.3-0.4-0.7-0.7-1.1-1c1.4-1.6,2.2-3.7,2.2-5.9c0-3.4-2-6.6-5.1-8.1
		c0.1-0.3,0.1-0.6,0.1-0.9c0-3.3-2.7-6-6-6c-1.1,0-2.2,0.3-3.1,0.9c-1.9-2.5-4.8-3.9-7.9-3.9c-4.4,0-8.2,2.9-9.5,7
		c-3.2-0.3-6,2.1-6.4,5.3c-3.7,1.1-5.8,4.9-4.8,8.6c0.3,1,0.8,1.9,1.4,2.6c-0.6,0.3-1.2,0.8-1.6,1.3c-0.9-0.6-2-0.9-3.1-0.9
		c-3.3,0-6,2.7-6,6c0,2,1,3.8,2.6,4.9c-0.4,0.6-0.6,1.3-0.6,2.1c0,2.2,1.8,4,4,4c1.5,0,2.9-0.9,3.6-2.2c0.5,0.1,0.9,0.2,1.4,0.2
		c0.2,0,0.4,0,0.6-0.1c3.9,2.2,12.4,8.3,12.4,20.1c0,0.6,0.4,1,1,1h10c0.5,0,1-0.4,1-0.9c0-0.1,0.9-14.4,11-20.5
		c0.6,0.3,1.3,0.4,2,0.4c0.5,0,1-0.1,1.4-0.2c1,2,3.4,2.8,5.3,1.8c1.4-0.7,2.2-2.1,2.2-3.6c0-0.7-0.2-1.4-0.6-2.1
		c2.7-1.9,3.4-5.6,1.5-8.4C386.1,277.5,384.2,276.5,382.3,276.5z M343.5,266.6c0.5-0.1,0.8-0.5,0.8-1v-0.1c0-2.2,1.8-4,4-4
		c0.3,0,0.6,0,0.9,0.1s0.5,0,0.8-0.1c0.2-0.1,0.4-0.4,0.5-0.6c0.8-3.7,4-6.4,7.8-6.4c2.8,0,5.4,1.4,6.8,3.8c0.3,0.5,0.9,0.6,1.4,0.3
		c0.1,0,0.1-0.1,0.1-0.1c0.7-0.7,1.7-1,2.7-1c2.2,0,4,1.8,4,4c0,0.4-0.1,0.8-0.2,1.2c-0.2,0.5,0.1,1.1,0.6,1.2
		c2.8,1,4.6,3.6,4.6,6.6c0,1.9-0.8,3.8-2.2,5.1c-0.3,0-0.5-0.1-0.8-0.1c-2.7,0-5,2.2-5,5c0,0.2,0,0.4,0,0.6
		c-1.4,1.7-3.9,1.9-5.6,0.5c-0.4-0.3-1.1-0.3-1.4,0.1c0,0,0,0.1-0.1,0.1c-1.8,2.8-5.5,3.5-8.3,1.7c-0.7-0.4-1.3-1-1.7-1.7
		c-0.3-0.5-0.9-0.6-1.4-0.3c0,0-0.1,0-0.1,0.1c-1.7,1.4-4.2,1.2-5.6-0.5c0.3-2.7-1.6-5.2-4.3-5.6c-0.2,0-0.4,0-0.6,0
		c-2.2-1.6-2.7-4.8-1-7C341,267.5,342.2,266.8,343.5,266.6L343.5,266.6z M372.6,284.7C372.6,284.8,372.6,284.8,372.6,284.7
		c-4.4,1.9-8,5-10.6,9l0.9-8.7c0.5-0.4,1-0.8,1.4-1.3c0.9,0.5,1.9,0.8,2.9,0.8c1.4,0,2.7-0.5,3.8-1.4
		C371.5,283.8,372,284.3,372.6,284.7z M355,296.3c-2.6-4.4-6.3-8-10.8-10.4c0-0.4-0.1-0.7-0.3-1.1c0.6-0.4,1.2-0.9,1.6-1.6
		c1.1,0.9,2.4,1.3,3.8,1.3c1,0,2-0.3,2.9-0.8c0.6,0.7,1.4,1.4,2.3,1.8L355,296.3z M339.3,289.5c-0.5,0-1.1-0.2-1.5-0.4
		c-0.5-0.3-1.1-0.1-1.4,0.3c-0.1,0.1-0.1,0.2-0.1,0.4c-0.1,1.1-1.1,1.9-2.2,1.7c-1-0.1-1.8-1-1.8-2c0-0.6,0.3-1.2,0.8-1.6
		c0.4-0.3,0.5-1,0.2-1.4c-0.1-0.1-0.3-0.2-0.4-0.3c-2.1-0.8-3.1-3.1-2.3-5.2c0.8-2.1,3.1-3.1,5.2-2.3c0.5,0.2,0.9,0.5,1.3,0.8
		c0.4,0.4,1,0.3,1.4-0.1c0.1-0.1,0.1-0.2,0.2-0.3c0.7-1.5,2.5-2.2,4-1.5s2.2,2.5,1.5,4c-0.3,0.7-1,1.3-1.8,1.6
		c-0.5,0.2-0.8,0.8-0.6,1.3c0,0.1,0.1,0.2,0.1,0.2c0.9,1.4,0.6,3.2-0.8,4.2C340.5,289.3,339.9,289.5,339.3,289.5z M362.4,310.5h-8.1
		c-0.4-10.9-7.6-17.2-12-20c0.8-0.6,1.5-1.5,1.8-2.5c5.3,3.1,9.3,8,11.3,13.8c0.1,0.4,0.5,0.7,1,0.7c0.1,0,0.1,0,0.2,0
		c0.5-0.1,0.9-0.5,0.8-1l-0.8-15.1c1.4,0.3,2.9,0.2,4.3-0.2l-1.5,14.3c-0.1,0.5,0.3,1,0.8,1.1c0.1,0,0.1,0,0.2,0
		c0.5,0,0.9-0.3,1-0.8c1.4-6,5.5-11,11.1-13.6c0.1,1,0.5,2,1.2,2.7C364.6,295.7,362.7,307.1,362.4,310.5z M383.8,286.2
		c-0.5,0.2-0.8,0.8-0.6,1.3c0.1,0.2,0.2,0.3,0.3,0.4c0.9,0.7,1,1.9,0.4,2.8c-0.4,0.5-1,0.8-1.6,0.8c-1,0-1.8-0.7-2-1.7
		c0-0.3-0.3-0.6-0.6-0.8c-0.1-0.1-0.3-0.1-0.4-0.1c-0.2,0-0.4,0-0.5,0.1c-0.5,0.3-1,0.4-1.5,0.4c-1.7,0-3-1.3-3-3
		c0-0.6,0.2-1.2,0.5-1.7s0.2-1.1-0.3-1.4c-0.1,0-0.1-0.1-0.2-0.1c-1.6-0.5-2.4-2.2-1.8-3.8c0.5-1.6,2.2-2.4,3.8-1.8
		c0.8,0.3,1.4,0.8,1.7,1.6c0.2,0.5,0.8,0.7,1.3,0.5c0.1,0,0.2-0.1,0.3-0.2c1.6-1.5,4.1-1.4,5.6,0.2s1.4,4.1-0.2,5.6
		C384.6,285.8,384.2,286.1,383.8,286.2L383.8,286.2z"/>
	<path class="st1" d="M381.9,282.6c-0.3,0.2-0.9,0.1-1.3,0l-0.6,1.9c0.5,0.2,0.9,0.2,1.4,0.3c0.6,0,1.1-0.2,1.6-0.5
		c0.8-0.7,1.3-1.7,1.3-2.7h-2C382.3,281.9,382.1,282.3,381.9,282.6z"/>
	<path class="st1" d="M358.3,258.5v-2c-3.2-0.1-5.9,2.4-6,5.6c0,0.1,0,0.3,0,0.4h2c-0.1-2.1,1.6-3.9,3.7-4
		C358.1,258.5,358.2,258.5,358.3,258.5z"/>
	<path class="st1" d="M350.3,265.5v-2c-2.1-0.1-3.9,1.6-4,3.8c0,0.1,0,0.2,0,0.2h2c-0.1-1,0.7-1.9,1.8-2
		C350.1,265.5,350.2,265.5,350.3,265.5z"/>
	<path class="st1" d="M369.3,262.5h2c0-1.6-1.2-3-2.8-3c-0.1,0-0.1,0-0.2,0v2c0.5-0.1,1,0.3,1,0.8
		C369.3,262.4,369.3,262.5,369.3,262.5z"/>
	<path class="st1" d="M375.1,274.1c1.6-2.1,1.6-5.1,0-7.2l-1.6,1.2c1,1.4,1,3.4,0,4.8L375.1,274.1z"/>
	<path class="st1" d="M366.3,275.5c2.2,0,4-1.8,4-4h-2c0,1.1-0.9,2-2,2s-2-0.9-2-2h-2C362.3,273.7,364.1,275.5,366.3,275.5z"/>
	<path class="st1" d="M353.3,278.5c2.2,0,4-1.8,4-4h-2c0,1.1-0.9,2-2,2s-2-0.9-2-2h-2C349.3,276.7,351.1,278.5,353.3,278.5z"/>
	<path class="st1" d="M355.3,266.5h-2c0,2.2,1.8,4,4,4s4-1.8,4-4h-2c0,1.1-0.9,2-2,2C356.2,268.5,355.3,267.6,355.3,266.5z"/>
	<rect x="345.3" y="270.5" class="st1" width="2" height="2"/>
	<rect x="361.3" y="276.5" class="st1" width="2" height="2"/>
	<rect x="365.3" y="262.5" class="st1" width="2" height="2"/>
	<rect x="356.3" y="306.5" class="st1" width="2" height="2"/>
	<rect x="359.3" y="303.5" class="st1" width="2" height="2"/>
</g>
<g>
	<path class="st1" d="M1094.5,462.4c0,0.6,0.4,1,1,1h4c0.6,0,1-0.4,1-1c0-1.3,0.8-2.4,2-2.8v5.8h-5c-0.6,0-1,0.4-1,1
		c0,3.5,2.6,6.4,6,6.9v2.2c-2.1,0.6-3.4,2.7-2.9,4.9c0.6,2.1,2.7,3.4,4.9,2.9s3.4-2.7,2.9-4.9c-0.4-1.4-1.5-2.5-2.9-2.9v-2.1h5
		c0.6,0,1-0.4,1-1c0-3.5-2.6-6.4-6-6.9v-5.9c1.2,0.4,2,1.6,2,2.8c0,0.6,0.4,1,1,1h4c0.6,0,1-0.4,1-1c0-2.7-1.2-5.3-3.4-7h0.4
		c1.7,0,3-1.3,3-3v-6c0-1.7-1.3-3-3-3h-1.1c2.8-2.7,2.8-7.1,0.1-9.9c-0.4-0.4-0.8-0.7-1.2-1c3.2-1.5,5.2-4.7,5.2-8.1
		c0-0.6-0.4-1-1-1h-4c-0.6,0-1,0.4-1,1c0,1.3-0.8,2.4-2,2.8v-2.8c0-0.6-0.4-1-1-1s-1,0.4-1,1v2.8c-1.2-0.4-2-1.5-2-2.8
		c0-0.6-0.4-1-1-1h-4c-0.6,0-1,0.4-1,1c0,3.5,2,6.7,5.2,8.1c-3.2,2.1-4.2,6.4-2.1,9.7c0.3,0.4,0.6,0.8,1,1.2h-1.1c-1.7,0-3,1.3-3,3
		v6c0,1.7,1.3,3,3,3h0.4C1095.7,457.1,1094.5,459.7,1094.5,462.4z M1105.5,479.4c0,1.1-0.9,2-2,2s-2-0.9-2-2s0.9-2,2-2
		S1105.5,478.3,1105.5,479.4z M1108.4,471.4h-4.9c-2.4,0-4.4-1.7-4.9-4h4.9C1105.9,467.4,1107.9,469.1,1108.4,471.4z M1096.6,425.4
		h2c0.5,2.7,3.2,4.5,5.9,3.9c2-0.4,3.5-1.9,3.9-3.9h2c-0.5,3.8-4.1,6.5-7.9,5.9C1099.4,430.9,1097,428.5,1096.6,425.4z
		 M1098.5,438.4c0-2.8,2.2-5,5-5s5,2.2,5,5s-2.2,5-5,5C1100.7,443.4,1098.5,441.2,1098.5,438.4z M1097.5,445.4h12c0.6,0,1,0.4,1,1
		v1.1c-0.7,0.2-1.2,0.6-1.7,1.1s-0.7,0.7-1.3,0.7c-0.6,0-0.8-0.2-1.3-0.7c-1.2-1.5-3.4-1.7-4.9-0.5c-0.2,0.2-0.4,0.3-0.5,0.5
		c-0.5,0.5-0.7,0.7-1.3,0.7c-0.6,0-0.8-0.2-1.3-0.7s-1-0.9-1.7-1.1v-1.1C1096.5,445.8,1096.9,445.4,1097.5,445.4z M1097.5,453.4
		c-0.6,0-1-0.4-1-1v-2.6c0.1,0.1,0.2,0.2,0.3,0.3c1.2,1.5,3.4,1.7,4.9,0.5c0.2-0.2,0.4-0.3,0.5-0.5c0.5-0.5,0.7-0.7,1.3-0.7
		c0.6,0,0.8,0.2,1.3,0.7c1.2,1.5,3.4,1.7,4.9,0.5c0.2-0.2,0.4-0.3,0.5-0.5c0.1-0.1,0.2-0.2,0.3-0.3v2.6c0,0.6-0.4,1-1,1H1097.5z
		 M1110.4,461.4h-2c-0.5-2.7-3.2-4.5-5.9-3.9c-2,0.4-3.5,1.9-3.9,3.9h-2c0.5-3.8,4.1-6.5,7.9-5.9
		C1107.6,455.9,1110,458.3,1110.4,461.4L1110.4,461.4z"/>
	<path class="st1" d="M1103.5,439.4c-0.6,0-1-0.4-1-1h-2c0,1.7,1.3,3,3,3s3-1.3,3-3h-2C1104.5,439,1104,439.4,1103.5,439.4z"/>
	<path class="st1" d="M1122.5,455.4h-2c0,1.7,1.3,3,3,3s3-1.3,3-3h-2c0,0.6-0.4,1-1,1S1122.5,456,1122.5,455.4z"/>
	<path class="st1" d="M1129.5,435.4c0.6,0,1-0.4,1-1c0-3.5-2.6-6.4-6-6.9v-3.1c0-0.6-0.4-1-1-1s-1,0.4-1,1v3h-5c-0.6,0-1,0.4-1,1
		c0,3.5,2.6,6.4,6,6.9v2.1c-4.6,0.5-8,4.4-8,8.9c0,0.6,0.4,1,1,1h4c0.6,0,1-0.4,1-1c0-1.3,0.8-2.4,2-2.8v4.9
		c-3.8,0.5-6.5,4.1-5.9,7.9c0.2,1.5,0.9,2.9,2,4h-1.1c-1.7,0-3,1.3-3,3v6c0,1.7,1.3,3,3,3h5v3.1c-2.1,0.6-3.4,2.7-2.9,4.9
		c0.6,2.1,2.7,3.4,4.9,2.9s3.4-2.7,2.9-4.9c-0.4-1.4-1.5-2.5-2.9-2.9v-3.1h5c1.7,0,3-1.3,3-3v-6c0-1.7-1.3-3-3-3h-1.1
		c2.8-2.7,2.8-7.1,0.1-9.9c-1.1-1.1-2.5-1.8-4-2v-4.9c1.2,0.4,2,1.6,2,2.8c0,0.6,0.4,1,1,1h4c0.6,0,1-0.4,1-1c0-4.6-3.4-8.4-8-8.9
		v-2.1h5V435.4z M1125.5,479.4c0,1.1-0.9,2-2,2s-2-0.9-2-2s0.9-2,2-2S1125.5,478.3,1125.5,479.4z M1118.6,429.4h4.9
		c2.4,0,4.4,1.7,4.9,4h-4.9C1121.1,433.4,1119.1,431.7,1118.6,429.4z M1129.5,470.4h-12c-0.6,0-1-0.4-1-1v-2.6
		c0.1,0.1,0.2,0.2,0.3,0.3c1.2,1.5,3.4,1.7,4.9,0.5c0.2-0.2,0.4-0.3,0.5-0.5c0.5-0.5,0.7-0.7,1.3-0.7c0.6,0,0.8,0.2,1.3,0.7
		c1.2,1.5,3.4,1.7,4.9,0.5c0.2-0.2,0.4-0.3,0.5-0.5c0.1-0.1,0.2-0.2,0.3-0.3v2.6C1130.5,470,1130,470.4,1129.5,470.4L1129.5,470.4z
		 M1129.5,462.4c0.6,0,1,0.4,1,1v1.1c-0.7,0.2-1.2,0.6-1.7,1.1s-0.7,0.7-1.3,0.7s-0.8-0.2-1.3-0.7c-1.2-1.5-3.4-1.7-4.9-0.5
		c-0.2,0.2-0.4,0.3-0.5,0.5c-0.5,0.5-0.7,0.7-1.3,0.7s-0.8-0.2-1.3-0.7s-1-0.9-1.7-1.1v-1.1c0-0.6,0.4-1,1-1H1129.5z M1128.5,455.4
		c0,2.8-2.2,5-5,5s-5-2.2-5-5s2.2-5,5-5S1128.5,452.6,1128.5,455.4z M1130.4,445.4h-2c-0.5-2.7-3.2-4.5-5.9-3.9
		c-2,0.4-3.5,1.9-3.9,3.9h-2c0.5-3.8,4.1-6.5,7.9-5.9C1127.6,439.9,1130,442.3,1130.4,445.4L1130.4,445.4z"/>
</g>
<g>
	<path class="st1" d="M481.6,265.2c0-0.1-0.1-0.1-0.1-0.2l-3.8-5.7v-5.7c0-0.6-0.4-1-1-1h-26c-0.6,0-1,0.4-1,1v5.7l-3.8,5.7
		c0,0.1-0.1,0.1-0.1,0.2s-0.1,0.2-0.1,0.4v46c0,0.6,0.4,1,1,1h34c0.6,0,1-0.4,1-1v-46C481.7,265.4,481.7,265.3,481.6,265.2z
		 M479.7,302.5h-6v-24h6V302.5z M471.7,278.5v2.4c-5.1,2.7-7.2,1.8-9.6,0.9c-1.7-0.8-3.5-1.2-5.4-1.3c-3.3,0.1-6.5,1.4-9,3.6v-5.6
		H471.7z M471.7,276.5h-20v-6h4v-2h-5c-0.6,0-1,0.4-1,1v7h-2v-10h24V276.5z M447.7,286.9c0.9-1,4.3-4.4,9-4.4c1.6,0,3.2,0.4,4.6,1.1
		c2.5,1,5.1,2.1,10.4-0.5v19.4h-24V286.9z M473.7,276.5v-10h6v10H473.7z M474.6,264.5l2.1-3.2l2.1,3.2H474.6z M451.7,254.5h2v2h2v-2
		h12v2h2v-2h2v2h2v-2h2v4h-24V254.5z M451.2,260.5h23.6l-2.7,4h-23.6L451.2,260.5z M447.7,304.5h24v6h-24V304.5z M473.7,310.5v-6h6
		v6H473.7z"/>
	<path class="st1" d="M464.7,286.5c-2,0-4.3,3-4.9,5.1c-1.5-1.7-3.6-3.1-5.1-3.1c-0.7,0-1.3,0.3-1.8,0.7c-1.2,1.3-1.2,3.7-1.2,5.7
		v0.5c0,2.8,2.2,5,5,5c2.6,0,4.8-2,5-4.6c1.9,1.1,4.3,0.5,5.5-1.3c0.4-0.6,0.6-1.4,0.6-2.1C467.7,291.1,467.5,286.5,464.7,286.5z
		 M456.7,298.5c-1.7,0-3-1.3-3-3V295c0-1,0-2,0.1-3l2,3.9l1.8-0.9l-2.2-4.4c1.7,0.7,4.3,3.4,4.3,4.8
		C459.7,297.2,458.3,298.5,456.7,298.5z M463.7,294.5c-1.1,0-2-0.9-2-2c0-1.3,2-4,3-4c0.4,0,1,1.7,1,4
		C465.7,293.6,464.8,294.5,463.7,294.5z"/>
	<rect x="456.7" y="284.5" class="st1" width="2" height="2"/>
	<rect x="466.7" y="298.5" class="st1" width="2" height="2"/>
	<rect x="450.7" y="306.5" class="st1" width="2" height="2"/>
</g>
<g>
	<path class="st1" d="M701.7,298.6h-4v-19c0-0.6-0.4-1-1-1h-11v-19c0-0.6-0.4-1-1-1h-10.2c0.8-2,0.3-4.2-1.1-5.7l-3-3
		c-0.4-0.4-1-0.4-1.4,0c-1.9,2.1-1.9,5.3,0,7.4l1.3,1.3h-7.6c-0.6,0-1,0.4-1,1v19h-9c-0.6,0-1,0.4-1,1v19h-8c-0.6,0-1,0.4-1,1v4
		c0,0.6,0.4,1,1,1h5.6l5.7,4.8c0.2,0.1,0.4,0.2,0.6,0.2h34c0.2,0,0.5-0.1,0.6-0.2l5.7-4.8h5.6c0.6,0,1-0.4,1-1v-4
		C702.7,299,702.2,298.6,701.7,298.6z M669.8,252.1l2.2,2.2c0.9,1,1.2,2.5,0.6,3.7l-2.2-2.2C669.5,254.8,669.2,253.4,669.8,252.1z
		 M695.7,298.6h-20v-18h20V298.6z M663.7,260.6h20v18h-20V260.6z M653.7,280.6h20v18h-20V280.6z M689.3,307.6H656l-3.6-3h40.5
		L689.3,307.6z M700.7,302.6h-56v-2h56V302.6z"/>
	<path class="st1" d="M669.7,266.6c-1.7,0-3,1.3-3,3h2c0-0.6,0.4-1,1-1s1,0.4,1,1h2C672.7,267.9,671.3,266.6,669.7,266.6z"/>
	<path class="st1" d="M679.7,286.6c0,1.7,1.3,3,3,3s3-1.3,3-3s-1.3-3-3-3S679.7,284.9,679.7,286.6z M683.7,286.6c0,0.6-0.4,1-1,1
		s-1-0.4-1-1s0.4-1,1-1S683.7,286,683.7,286.6z"/>
	<path class="st1" d="M690.7,294.6c0.6,0,1,0.4,1,1h2c0-1.7-1.3-3-3-3s-3,1.3-3,3h2C689.7,295,690.1,294.6,690.7,294.6z"/>
	<path class="st1" d="M665.7,287.6c-0.6,0-1-0.4-1-1h-2c0,1.7,1.3,3,3,3s3-1.3,3-3h-2C666.7,287.1,666.2,287.6,665.7,287.6z"/>
	<path class="st1" d="M679.7,268.6h2v-5c0-0.6-0.4-1-1-1h-4v2h3V268.6z"/>
	<path class="st1" d="M657.7,289.6h-2v6c0,0.6,0.4,1,1,1h5v-2h-4V289.6z"/>
	<rect x="663.7" y="294.6" class="st1" width="4" height="2"/>
	<rect x="673.7" y="272.6" class="st1" width="4" height="2"/>
	<rect x="657.7" y="283.6" class="st1" width="4" height="2"/>
	<rect x="688.7" y="284.6" class="st1" width="4" height="2"/>
	<rect x="677.7" y="291.6" class="st1" width="4" height="2"/>
</g>
<g>
	<g>
		<path class="st1" d="M927.5,466.2h-3.6c-0.5-9.1-8.3-13.6-23.8-13.6s-23.2,4.5-23.8,13.6h-3.6c-0.5,0-1,0.4-1,0.9
			c0,0.3-0.3,7.6,12.9,11.4c0.1,0,0.2,0,0.3,0h30.4c0.1,0,0.2,0,0.3,0c13.2-3.8,12.9-11,12.9-11.4
			C928.5,466.6,928,466.2,927.5,466.2z M900.1,454.6c14.3,0,21.3,3.7,21.8,11.6h-2.5c-0.8-8.7-12.8-8.7-19.3-8.7s-18.5,0-19.3,8.7
			h-2.5C878.9,458.3,885.8,454.6,900.1,454.6z M913.9,466.2c-0.5-3.8-7.2-4.3-13.8-4.3s-13.3,0.5-13.8,4.3h-3.5
			c0.7-5.5,7.4-6.7,17.3-6.7s16.6,1.2,17.3,6.7H913.9z M911.8,466.2h-23.4c0.5-1.2,3-2.3,11.7-2.3S911.4,465.1,911.8,466.2z
			 M915.2,476.6H885c-8.8-2.6-10.8-6.6-11.2-8.4h52.6C926,470,924,474,915.2,476.6z"/>
	</g>
	<g>
		<path class="st1" d="M915.3,470.5c-1,0.9-2.5,1.6-4.4,2.2c-0.5,0.2-0.8,0.7-0.7,1.2c0.2,0.5,0.7,0.8,1.2,0.7
			c2.2-0.7,3.9-1.5,5.1-2.5c0.4-0.4,0.5-1,0.1-1.4C916.4,470.2,915.7,470.1,915.3,470.5z"/>
	</g>
	<g>
		<path class="st1" d="M931.1,413.7c-4.4-1-33.4,13.3-33.7,13.4c-0.7,0.3-1.2-0.2-1.3-0.3c-0.8-0.6-1.9-0.7-2.9-0.3l-16.2,6.7
			c-0.6,0.2-0.8,0.8-0.6,1.3s0.8,0.8,1.3,0.5l11.4-4.7l0.8,1.8c-0.1,0.1-12.1,5-11.4,4.7c-0.5,0.2-0.8,0.8-0.5,1.3
			c0.2,0.4,0.5,0.6,0.9,0.6c0.1,0,0.3,0,0.4-0.1l0.6-0.3c-0.3,0.5-0.5,1.2-0.1,2.1c0,0.1,0.1,0.1,0.1,0.2c-0.4,0.3-0.5,0.7-0.4,1.2
			c0.5,1.1,1.7,0.4,2.3,0.1c1.1,0.3,1.2,0.3,0.7,1.2c-1.2,2-0.6,3.6,1.7,4.2c0.6,0.1,0.7,0.2,0.8,0.4c0.2,0.5-1.5,1.7-0.8,3.4
			c0.2,0.4,0.5,0.6,0.9,0.6c0.1,0,0.3,0,0.4-0.1c0.5-0.2,0.8-0.8,0.5-1.3c-0.1-0.2,0-0.3,0.3-0.8c0.4-0.6,0.9-1.5,0.4-2.6
			c-0.9-2.3-3.8-0.9-2.6-2.7c0.7-1.1,0.9-2.2,0.1-3.2l3.1-1.3c0.5,0.1,0.9,0.2,1,0.4c0.2,0.5-1.5,1.7-0.8,3.4
			c0.7,1.8,2.7,1.4,2.9,1.9s-1.5,1.7-0.7,3.4c0.2,0.5,0.8,0.8,1.3,0.5c0.5-0.2,0.8-0.8,0.5-1.3c-0.2-0.5,1.5-1.7,0.7-3.4
			c-1-2.3-3.8-0.8-2.6-2.7c0.7-1.1,0.9-2.2,0.1-3.2l7.3-3c2.5-1,1.3-3.3,2.6-3.7c0.3-0.1,30.8-10.5,33.2-14.2
			C933.6,416.4,932.6,414,931.1,413.7z M891.4,435.9l-4.2,1.7c-0.5-0.4,0.7-1.2,0.8-2.5l2.6-1.1L891.4,435.9z M885.4,436.2
			c-0.4,0.8-0.4,1.4-0.1,2.2l-3.7,1.5c-0.5-0.4,0.8-1.2,0.8-2.5L885.4,436.2z M931.1,416.7c-1.3,2.1-21.7,10-32.2,13.4
			c-2.7,0.9-1.5,3.2-2.7,3.7l-3,1.2l-2.3-5.5l3-1.2c0.7-0.3,1.1,0.3,1.3,0.3c0.9,0.7,2.1,0.7,3.1,0.2c9.9-5,29.9-13.9,32.3-13.3
			C930.9,415.7,931.2,416.5,931.1,416.7z"/>
	</g>
</g>
<g>
	<path class="st1" d="M990,452.8c-0.6,0-1,0.4-1,1c0,0.4,0.2,0.8,0.6,0.9c4.9,2,12.2,3.1,19.9,3.1c12.6,0,26-3.2,26-9
		c0-5.7-13.1-8.9-25.5-9l0,0c-0.6,0-1,0.4-1,1c0,0.4,0.2,0.8,0.6,0.9c3.1,1.2,4.9,2.7,4.9,4.1c0,1-0.5,2-1.2,2.7
		C1009.3,452.3,996.8,453,990,452.8L990,452.8z M1014.7,449.9c1.2-1.1,1.8-2.6,1.8-4.1c0-1.1-0.5-2.4-2.3-3.9
		c11.6,0.7,19.3,4,19.3,6.9c0,3.3-9.9,7-24,7c-4.2,0-8.4-0.3-12.5-1.1C1003.1,454.4,1011.1,453.3,1014.7,449.9L1014.7,449.9z"/>
	<path class="st1" d="M987,445.8c0,0.1,0,0.2,0,0.3c-1.5,0.6-2.5,2.1-2.5,3.7c0,0.3,0.1,0.6,0.4,0.8c1,0.7,2.1,1.2,3.3,1.6
		c0.1,0,0.2,0.1,0.3,0.1c0.6,0,1-0.4,1-1c0-0.4-0.3-0.8-0.7-0.9c-0.8-0.3-1.5-0.6-2.3-1c0.2-0.8,0.9-1.4,1.7-1.5
		c0.5-0.1,0.9-0.5,0.9-1.1c0-0.1,0-0.2-0.1-0.2c-0.2-0.5-0.2-1,0.1-1.5c0.3-0.6,1-1.1,1.7-1.2c0.5-0.1,0.9-0.6,0.8-1.2v-0.1
		c-0.1-0.3-0.2-0.7-0.1-1c0.2-0.8,0.8-1.5,1.7-1.7c0.5-0.1,0.8-0.5,0.8-1v-0.1c0-1.1,0.9-2,2-2l0,0h0.1c0.3,0,0.6-0.1,0.8-0.3
		c0.7-0.8,2-0.9,2.8-0.1c0.1,0,0.1,0.1,0.1,0.1c0.2,0.2,0.5,0.4,0.8,0.3h0.2c1.1,0,2,0.9,2,2v0.1c0,0.5,0.3,0.9,0.8,1
		c0.8,0.2,1.5,0.8,1.7,1.7c0.1,0.3,0,0.7-0.1,1c-0.2,0.5,0.1,1.1,0.6,1.3h0.1c0.7,0.1,1.4,0.5,1.7,1.2c0.2,0.5,0.2,1,0.1,1.5
		c-0.2,0.5,0.1,1.1,0.6,1.3c0.1,0,0.2,0,0.2,0.1c0.4,0.1,0.8,0.3,1.1,0.6c0.4,0.4,1,0.4,1.4,0.1c0.4-0.4,0.4-1,0.1-1.4l0,0
		c-0.3-0.4-0.8-0.7-1.3-1c0-0.1,0-0.2,0-0.3c0-1.6-1-3.1-2.5-3.7c0-0.1,0-0.2,0-0.3c0-1.7-1-3.1-2.6-3.7c-0.3-1.8-1.9-3.2-3.8-3.3
		c-1.5-1.3-3.8-1.3-5.3,0c-1.9,0.1-3.5,1.4-3.8,3.3c-1.5,0.6-2.6,2.1-2.6,3.7c0,0.1,0,0.2,0,0.3C988,442.7,987,444.1,987,445.8z"/>
	<path class="st1" d="M1024.5,450.8c1.7,0,3-1.3,3-3s-1.3-3-3-3s-3,1.3-3,3C1021.5,449.4,1022.8,450.8,1024.5,450.8z M1024.5,446.8
		c0.6,0,1,0.4,1,1s-0.4,1-1,1s-1-0.4-1-1S1023.9,446.8,1024.5,446.8z"/>
	<path class="st1" d="M1014.2,453.7l3,1c0.1,0,0.2,0.1,0.3,0.1c0.2,0,0.3,0,0.4-0.1l4-2c0.5-0.2,0.7-0.8,0.4-1.3
		c-0.1-0.2-0.3-0.4-0.4-0.4l-4-2c-0.4-0.2-0.8-0.1-1.2,0.2l-3,3c-0.4,0.4-0.4,1,0,1.4C1013.9,453.6,1014,453.7,1014.2,453.7z
		 M1017.7,451l1.6,0.8l-1.8,0.9l-1.1-0.4L1017.7,451z"/>
	<rect x="1018.5" y="444.8" class="st1" width="2" height="2"/>
	<rect x="996.5" y="438.8" class="st1" width="2" height="2"/>
	<rect x="1000.5" y="441.8" class="st1" width="2" height="2"/>
	<rect x="1003.5" y="446.8" class="st1" width="2" height="2"/>
	<rect x="997.5" y="445.8" class="st1" width="2" height="2"/>
	<rect x="993.5" y="442.8" class="st1" width="2" height="2"/>
	<rect x="991.5" y="446.8" class="st1" width="2" height="2"/>
	<rect x="1029.5" y="447.8" class="st1" width="2" height="2"/>
	<rect x="1010.5" y="452.8" class="st1" width="2" height="2"/>
	<path class="st1" d="M1041.4,449.7c0-0.2,0.1-0.9,0.1-0.9c0-7.9-14.1-14-32-14c-0.3,0-0.7,0-1,0c-0.7,0-1.4,0-2,0s-1,0.5-1,1l0,0
		c0,0.5,0.5,1,1,1l0,0c0.6,0,1.3,0,1.9,0c0.3,0,0.7,0,1,0c16.3,0,30,5.5,30,12c0,0.2,0,0.6,0,0.6c-0.9,6.2-14.2,11.4-30,11.4
		c-16.3,0-30-5.5-30-12c0-3.3,3.7-6.9,9.4-9.1c0.5-0.2,0.8-0.8,0.6-1.3c-0.2-0.5-0.8-0.8-1.3-0.6c-6.6,2.5-10.6,6.7-10.6,10.9
		c0,0,0,0.8,0.1,0.9c0.4,3.3,2.9,14.6,18.9,18.6v3.2c0,0.5,0.3,0.9,0.8,1c4,0.9,8.1,1.3,12.2,1.2c4.1,0,8.2-0.4,12.2-1.2
		c0.5-0.1,0.8-0.5,0.8-1v-3.2C1038.5,464.3,1041,453,1041.4,449.7z M1020.5,470.7c-3.6,0.7-7.3,1.1-11,1c-3.7,0-7.4-0.3-11-1v-2
		c3.6,0.7,7.3,1,11,1s7.4-0.3,11-1V470.7z M1009.5,467.8c-17.9,0-25.1-6.7-28-12.2c5.4,4.3,15.8,7.2,28,7.2c12.1,0,22.4-2.8,27.9-7
		C1034.3,461.2,1027.1,467.8,1009.5,467.8z"/>
</g>
<g>
	<g>
		<path class="st1" d="M705.9,626.6h-1v-1c0-2.8-2.2-5-5-5h-8c-0.6,0-1,0.4-1,1s0.4,1,1,1h8c1.7,0,3,1.3,3,3v1h-35c-0.6,0-1,0.4-1,1
			s0.4,1,1,1h38c0.6,0,1,0.4,1,1v1h-54v-1c0-0.6,0.4-1,1-1h10c0.6,0,1-0.4,1-1s-0.4-1-1-1h-7v-1c0-1.7,1.3-3,3-3h28c0.6,0,1-0.4,1-1
			s-0.4-1-1-1h-28c-2.8,0-5,2.2-5,5v1h-1c-1.7,0-3,1.3-3,3v8c0,2.8,2.2,5,5,5c1.6,0,3.1-0.7,4-2c1.6,2.2,4.7,2.7,6.9,1.1
			c0.4-0.3,0.8-0.7,1.1-1.1c1.6,2.2,4.7,2.7,6.9,1.1c0.4-0.3,0.8-0.7,1.1-1.1c1.6,2.2,4.7,2.7,6.9,1.1c0.4-0.3,0.8-0.7,1.1-1.1
			c1.6,2.2,4.7,2.7,6.9,1.1c0.4-0.3,0.8-0.7,1.1-1.1c0.9,1.3,2.4,2,4,2c0.6,0,1-0.4,1-1s-0.4-1-1-1c-1.7,0-3-1.3-3-3v-5h6v5
			c0,2.8,2.2,5,5,5c1.1,0,2.1-0.4,3-1v21h-15.4c2.2-1.2,3.5-3.5,3.4-6c0-0.3,0-0.7-0.1-1h2.1c0.6,0,1-0.4,1-1c0-1.1,0.9-2,2-2
			s2,0.9,2,2c0,0.5-0.2,1-0.5,1.3c-0.3,0.4-0.3,1,0,1.3c0.3,0.4,0.5,0.8,0.5,1.3c0,1.1-0.9,2-2,2s-2-0.9-2-2c0-0.6-0.4-1-1-1
			s-1,0.4-1,1c0,2.2,1.8,4,4,4s4-1.8,4-4c0-0.7-0.2-1.4-0.5-2c0.4-0.6,0.5-1.3,0.5-2c0-2.2-1.8-4-4-4c-1.8,0-3.4,1.2-3.9,3h-1.8
			c-2.1-4.6-9-5-11.4-5c-1.9,0-3.8,0.7-5.2,1.9c-0.3-0.1-0.6-0.4-0.8-0.6c-2-2.5-5.1-3.7-8.3-3.2c-0.6,0.1-1.2,0.2-1.7,0.4
			c-4.7-1.7-9.8,0.8-11.5,5.5c-1.1,3.1-0.4,6.5,1.8,9c0.3,0.4,0.7,0.7,1.1,1h-5.4v-18c0-0.6-0.4-1-1-1s-1,0.4-1,1v35
			c0,0.6,0.4,1,1,1s1-0.4,1-1v-11h54v11c0,0.6,0.4,1,1,1s1-0.4,1-1v-50C708.9,628,707.6,626.6,705.9,626.6z M655.9,640.6
			c-1.7,0-3-1.3-3-3v-5h6v5C658.9,639.3,657.6,640.6,655.9,640.6z M663.9,640.6c-1.7,0-3-1.3-3-3v-5h6v5
			C666.9,639.3,665.6,640.6,663.9,640.6z M671.9,640.6c-1.7,0-3-1.3-3-3v-5h6v5C674.9,639.3,673.6,640.6,671.9,640.6z M679.9,640.6
			c-1.7,0-3-1.3-3-3v-5h6v5C682.9,639.3,681.6,640.6,679.9,640.6z M687.9,640.6c-1.7,0-3-1.3-3-3v-5h6v5
			C690.9,639.3,689.6,640.6,687.9,640.6z M703.9,640.6c-1.7,0-3-1.3-3-3v-5h6v5C706.9,639.3,705.6,640.6,703.9,640.6z M692.9,656.6
			c0,4.4-4.7,5.6-8,5.9c0.1-0.1,0.2-0.2,0.2-0.2c2.6-2.9,2.3-7.3-0.5-9.9c-0.9-0.8-2-1.4-3.1-1.6c0.5-0.1,1-0.2,1.5-0.2
			C685.9,650.6,692.9,651.2,692.9,656.6z M668.9,648.7c2.4-0.4,4.9,0.6,6.4,2.5c0.9,1.1,2.3,1.7,3.7,1.5c0.6-0.1,1.2-0.1,1.8,0
			c2.7,0.5,4.5,3.2,3.9,5.9c-0.5,2.3-2.5,4-4.9,4h-10c-3.9,0-7-3.1-7-7C662.9,652.2,665.4,649.2,668.9,648.7z M658.7,660.3
			c-1.3-1.5-2-3.5-1.7-5.5c0.4-3.1,2.8-5.6,5.9-6.1c0.5-0.1,0.9-0.1,1.4,0c-3.9,3.1-4.5,8.7-1.4,12.5c0.4,0.5,0.9,1,1.5,1.5H664
			C661.9,662.6,660,661.8,658.7,660.3L658.7,660.3z M652.9,666.6v-2h54v2H652.9z"/>
		<path class="st1" d="M669.9,660.6h6c0.6,0,1-0.4,1-1s-0.4-1-1-1h-6c-1.7,0-3-1.3-3-3c0-0.1,0-0.3,0-0.4c0.2-1.3,1.2-2.4,2.5-2.6
			c1.1-0.2,2.1,0.2,2.8,1.1c1.8,2.3,4.7,3.4,7.5,2.9c0.1,0,0.3,0,0.4,0c0.4,0.1,0.7,0.4,0.8,0.8v0.1c0,0.6-0.4,1-1,1s-1,0.4-1,1
			s0.4,1,1,1c1.7,0,3-1.3,3-3c0-0.1,0-0.2,0-0.4c-0.2-1.3-1.1-2.3-2.4-2.6c-0.4-0.1-0.7-0.1-1.1,0c-2.1,0.3-4.3-0.5-5.6-2.2
			c-1.1-1.4-2.9-2-4.6-1.8c-2.2,0.4-3.9,2.1-4.2,4.3c0,0.2,0,0.4,0,0.6C664.9,658.4,667.1,660.6,669.9,660.6z"/>
		<circle class="st1" cx="669.9" cy="655.6" r="1"/>
		<path class="st1" d="M675.9,670.6h-20c-0.6,0-1,0.4-1,1v8c0,0.6,0.4,1,1,1s1-0.4,1-1v-7h18v7c0,0.6,0.4,1,1,1s1-0.4,1-1v-8
			C676.9,671.1,676.4,670.6,675.9,670.6z"/>
		<path class="st1" d="M703.9,670.6h-20c-0.6,0-1,0.4-1,1v8c0,0.6,0.4,1,1,1s1-0.4,1-1v-7h18v7c0,0.6,0.4,1,1,1s1-0.4,1-1v-8
			C704.9,671.1,704.4,670.6,703.9,670.6z"/>
	</g>
</g>
<path class="st1" d="M952.8,107.5c0,1.2,0.8,2.2,1.8,2.2l39.4,0.1l-11.5,13.7c-0.7,0.8-0.7,2.2,0,3.1c0.7,0.8,1.9,0.9,2.6,0
	l14.7-17.4l0,0c0.1-0.1,0.2-0.2,0.2-0.3c0-0.1,0.1-0.1,0.1-0.2s0.1-0.1,0.1-0.2s0-0.1,0.1-0.2c0-0.1,0-0.1,0-0.2c0-0.3,0-0.6,0-0.9
	c0-0.1,0-0.1,0-0.2s0-0.2-0.1-0.2c0-0.1-0.1-0.1-0.1-0.2s0-0.1-0.1-0.2s-0.1-0.2-0.2-0.3l0,0l-14.5-17.5c-0.7-0.9-1.9-0.9-2.6,0
	c-0.7,0.8-0.7,2.2,0,3.1l11.4,13.7l-39.4-0.1C953.6,105.4,952.8,106.3,952.8,107.5z"/>
<g>
	<g>
		<path class="st1" d="M703.2,130.9c-2.8,3.5-7.1,5.4-11.5,5.1c-7.6-0.5-13.5-6.8-13.3-14.4V106c0-0.6-0.4-1-1-1s-1,0.4-1,1v15.6
			c0,6,3.2,11.5,8.3,14.4h-17c-0.1,0-0.2,0-0.2,0c-7.5-0.6-13.2-6.9-13.1-14.4v-16.1c0-0.6-0.4-1-1-1s-1,0.4-1,1v16.1
			c-0.1,8.4,6.3,15.5,14.6,16.4c0.1,0,0.2,0.1,0.4,0.1h25c4.8,0,9.4-2.2,12.4-5.9c0.4-0.4,0.3-1-0.1-1.4
			C704.3,130.4,703.6,130.5,703.2,130.9C703.3,130.9,703.2,130.9,703.2,130.9L703.2,130.9z"/>
		<path class="st1" d="M701.5,108.9c-2-1.4-3.1-3.7-3.1-6.1v-0.1c-0.2-4.8-3.4-8.9-8-10.2v-3c0-3.4,0.7-6.8,1.9-10
			c0.2-0.5,0-1.1-0.6-1.3c-0.1,0-0.2-0.1-0.4-0.1h-6c-0.4,0-0.8,0.2-0.9,0.6c-1.4,3.4-2.1,7.1-2.1,10.8v2.6h-3v-2.6
			c0-3.4,0.7-6.8,1.9-10c0.2-0.5,0-1.1-0.6-1.3c-0.1,0-0.2-0.1-0.4-0.1h-6c-0.4,0-0.8,0.2-0.9,0.6c-1.4,3.4-2.1,7.1-2.1,10.8
			c0,0.6,0.4,1,1,1s1-0.4,1-1c0-3.2,0.6-6.4,1.7-9.4h3.9c-1,3-1.6,6.2-1.6,9.4v2.6h-9v-2.6c0-3.4,0.7-6.8,1.9-10
			c0.2-0.5,0-1.1-0.6-1.3c-0.1,0-0.2-0.1-0.4-0.1h-6c-0.4,0-0.8,0.2-0.9,0.6c-1.4,3.4-2.1,7.1-2.1,10.8v3c-4.3,1.2-7.5,5-7.9,9.5
			c-0.1,0.5,0.3,1,0.9,1.1l0,0h0.1c0.5,0,0.9-0.4,1-0.9c0.4-4.3,3.8-7.6,8.1-8c0.1,0,0.2,0,0.2-0.1h18.4c-2.6,1.8-4.3,4.7-4.6,7.9
			c-0.1,0.5,0.3,1,0.9,1.1c0.5,0.1,1-0.3,1.1-0.9l0,0c0.5-4.8,4.6-8.3,9.4-8.1c4.6,0.3,8.3,4,8.6,8.7v0.1c0,3,1.5,5.9,4,7.7
			c3.8,2.6,6.1,6.9,6,11.5c0,2-0.4,3.9-1.2,5.7c-0.2,0.5,0,1.1,0.5,1.3c0.1,0.1,0.3,0.1,0.4,0.1c0.4,0,0.8-0.2,0.9-0.6
			c0.9-2,1.4-4.2,1.4-6.5C708.4,116.8,705.9,111.9,701.5,108.9z M684.4,89.5c0-3.2,0.6-6.4,1.7-9.4h3.9c-1,3-1.6,6.2-1.6,9.4v2.7
			c-0.2,0-0.3,0-0.5,0s-3.5,0-3.5,0L684.4,89.5L684.4,89.5z M662.4,92.1v-2.6c0-3.2,0.6-6.4,1.7-9.4h3.9c-1,3-1.6,6.2-1.6,9.4v2.6
			H662.4z"/>
		<path class="st1" d="M682.5,98.8c-0.3,0-0.7,0.2-0.9,0.4c-0.6,0.9-1,2-1.2,3.2v0.3v0.1v6.4c0,0.4,0.3,0.8,0.7,1l0.6,0.2
			c4.4,1.4,6.8,6,5.5,10.4c-0.2,0.7-0.5,1.3-0.9,1.9l-3.4,5.5c-0.2,0.4-0.2,0.8,0.1,1.1c2.1,2.9,5.3,4.6,8.9,4.8c0.2,0,0.4,0,0.6,0
			c1.3,0,2.6-0.2,3.9-0.7c0.5-0.2,0.8-0.7,0.6-1.3c0-0.1-0.1-0.3-0.2-0.4l-1.5-1.5c-3.2-3.2-3.3-8.5,0-11.7c1.5-1.5,3.6-2.4,5.7-2.4
			c0.6,0,1-0.5,1-1c0-0.6-0.5-1-1-1c-5.7,0.1-10.2,4.8-10.1,10.5c0.1,2.7,1.1,5.2,3,7.1l0.3,0.3c-3.4,0.6-6.9-0.7-9.1-3.4l3-4.9
			c3-4.8,1.5-11.2-3.3-14.2c-0.7-0.4-1.5-0.8-2.3-1v-5.6v-0.2c0-0.2,0.1-0.4,0.1-0.6l1.1,2c1.8,3.2,5.3,5.3,9,5.3
			c0.4,0,0.9,0,1.3-0.1c0.7,1.4,1.7,2.7,2.9,3.8c0.4,0.4,1,0.3,1.4-0.1s0.3-1-0.1-1.4c-1.2-1.1-2.1-2.4-2.7-3.8
			c-0.2-0.4-0.7-0.7-1.1-0.6c-3.6,0.8-7.2-0.9-9-4.1l-2.1-3.7C683.1,99,682.8,98.8,682.5,98.8z"/>
		<path class="st1" d="M692.7,105.2c0.3,0,0.7,0,1-0.1c0.5-0.1,0.9-0.6,0.8-1.1c0-0.4-0.1-0.8-0.1-1.2c-0.2-3.6-3-6.5-6.6-6.8
			c-0.8,0-1.6,0.1-2.4,0.3c-0.5,0.2-0.8,0.7-0.7,1.2c0,0.1,0.1,0.1,0.1,0.2l2.3,4.2C688.3,104,690.4,105.2,692.7,105.2z M687.7,98.1
			c2.6,0.2,4.6,2.2,4.7,4.8c0,0.1,0,0.2,0,0.3c-1.5-0.1-2.8-0.9-3.5-2.2l-1.7-2.9C687.4,98.1,687.5,98.1,687.7,98.1z"/>
		<path class="st1" d="M699.5,130.6c0.4,0.4,1,0.4,1.4,0c3.1-3.1,4.3-7.6,3-11.8c-0.1-0.4-0.5-0.7-1-0.7H701c-3.5,0-6.3,2.8-6.3,6.3
			c0,1.7,0.7,3.3,1.8,4.5c0.4,0.4,1,0.4,1.4,0s0.4-1,0-1.4c-1.7-1.7-1.7-4.4,0-6.1c0.8-0.8,1.9-1.3,3.1-1.3h1.1
			c0.1,0.7,0.2,1.3,0.2,2c0,2.7-1,5.2-2.9,7.1C699.1,129.5,699.1,130.2,699.5,130.6z"/>
		<path class="st1" d="M680.4,117.7c0,0.6,0.4,1,1,1s1-0.4,1-1v-2.3c1.3,1.4,1.5,3.5,0.5,5.2l-2,3.3c-0.3,0.5-0.2,1.1,0.3,1.4
			c0.5,0.3,1.1,0.2,1.4-0.3l0,0l2-3.3c1.8-3,0.9-6.9-2-8.7c-0.2-0.1-0.5-0.3-0.7-0.4c-0.5-0.2-1.1,0-1.3,0.5
			c-0.1,0.1-0.1,0.3-0.1,0.4v4.2H680.4z"/>
		<path class="st1" d="M670.4,101.1c-0.6,0-1,0.4-1,1v19.6c0,4.1,1.5,8,4.2,11.1c0.4,0.4,1,0.4,1.4,0.1c0.4-0.4,0.4-1,0.1-1.4
			c-2.4-2.7-3.7-6.2-3.7-9.8v-19.6C671.4,101.5,671,101.1,670.4,101.1z"/>
		<path class="st1" d="M661.4,101.1c-0.6,0-1,0.4-1,1v19.6c0,4.1,1.5,8,4.2,11.1c0.4,0.4,1,0.4,1.4,0.1c0.4-0.4,0.4-1,0.1-1.4
			c-2.4-2.7-3.7-6.2-3.7-9.8v-19.6C662.4,101.5,662,101.1,661.4,101.1z"/>
	</g>
</g>
<g>
	<g>
		<path class="st1" d="M812.9,134.2l-2.5-1.4c2.7-5,1.8-11.3-2.2-15.3l0,0l0,0l0,0l-3.5-3.5c-0.4-0.4-1-0.4-1.4,0s-0.4,1,0,1.4
			l3.1,3.1c-0.5,1.4-1,2.7-1.7,3.9l-4.5-4.5c0.9-2,1.4-4.2,1.5-6.5c0-0.3-0.1-0.6-0.3-0.8l-3.8-3.8l0,0c-0.8-0.8-2.3-1.5-5.1-0.6
			c-0.5,0.2-0.8,0.7-0.7,1.3s0.7,0.8,1.3,0.7l0,0c1.4-0.4,2.5-0.4,3.1,0.1l0,0l0,0c1,1,0.2,4.1-2.3,7.5c-0.3-0.3-0.8-0.4-1.1-0.2
			c-0.2,0.1-0.5,0.1-0.8,0c-0.2-0.1-0.3-0.2-0.4-0.4c0.5-1,0.3-2.3-0.5-3.1c-1.2-1.2-3.4-0.9-4.9,0.7s-1.9,3.8-0.7,4.9
			c0.5,0.5,1.2,0.7,1.9,0.7c0.2,0,0.5,0,0.7-0.1c0.9-0.2,1.8-0.7,2.4-1.4c0,0,0-0.1,0.1-0.1c0.5,0.5,1.2,0.7,1.9,0.7
			c-0.4,0.4-0.7,0.8-1.1,1.2c-1.9,2-4.2,3.6-6.7,4.7c-0.6,0.3-1.3,0.5-2,0.6c0.6-1,1.6-1.8,2.7-2.3c0.5-0.2,0.8-0.8,0.6-1.3
			s-0.8-0.8-1.3-0.6l0,0c-1.7,0.7-3.2,2-4,3.6c-0.5-0.7-0.4-2.1,0.3-3.7c1.1-2.5,2.8-4.8,4.7-6.7c1.3-1.3,2.7-2.4,4.2-3.4
			c0.5-0.3,0.6-0.9,0.3-1.4s-0.9-0.6-1.4-0.3c-1.6,1.1-3.2,2.3-4.5,3.7c-2.2,2.1-3.9,4.6-5.2,7.4c-1.1,2.7-1,4.8,0.2,6.1l10.6,10.6
			l0,0l0,0l0,0c4.1,4,10.3,4.9,15.3,2.2l1.4,2.5c0.3,0.5,0.9,0.6,1.4,0.4c0.1,0,0.1-0.1,0.2-0.2l5-5c0.4-0.4,0.4-1,0-1.4
			C813,134.3,812.9,134.2,812.9,134.2L812.9,134.2z M787.5,116.4c-0.2,0.1-0.5,0-0.7-0.1c-0.3-0.3-0.2-1.3,0.7-2.1
			c0.9-0.9,1.8-1,2.1-0.7s0.2,1.3-0.7,2.1C788.5,116,788,116.3,787.5,116.4z M807.8,120.1c1.7,2.4,2.4,5.4,1.9,8.4
			c-0.3-1-0.9-1.9-1.6-2.6l-2.1-2.1C806.7,122.6,807.3,121.4,807.8,120.1z M799.6,111.7c-0.1,1.6-0.5,3.1-1,4.6l-1.7-1.7
			c0.7-1.3,1.3-2.7,1.5-4.1L799.6,111.7z M792.6,120.2c1.2-1.2,2.3-2.5,3.2-3.8l1.9,1.9c-1.6,3-4,5.5-7.1,7.1l-1.9-1.9
			C790.1,122.5,791.4,121.4,792.6,120.2L792.6,120.2z M785.2,125.4c0.6-0.3,1.2-0.5,1.8-0.9l1.7,1.7c-1.5,0.6-3,0.9-4.6,1l-1.2-1.2
			C783.7,126,784.5,125.7,785.2,125.4z M785.8,129c1.7-0.3,3.4-0.8,5-1.5l0,0l0,0l0,0c3.5-1.6,6.4-4.3,8.3-7.7l4.4,4.4
			c-0.9,1.4-2,2.7-3.2,3.9c-0.5,0.5-1.1,1-1.6,1.5c-0.4,0.4-0.5,1-0.1,1.4s1,0.5,1.4,0.1c0.6-0.5,1.2-1,1.7-1.6
			c1.2-1.2,2.3-2.5,3.2-3.9l1.8,1.8c2,1.9,2,5.1,0,7.1c-1.9,2-5.1,2-7.1,0l0,0l-5.8-5.8c-0.4-0.4-1-0.4-1.4,0s-0.4,1,0,1.4l0,0
			l2.2,2.2c-1.3,0.7-2.6,1.3-3.9,1.7L785.8,129z M792.5,135.5c1.3-0.5,2.5-1.1,3.7-1.8l2.1,2.1c0.7,0.7,1.6,1.3,2.6,1.6
			C797.9,137.9,794.9,137.2,792.5,135.5z M807.6,138.4l-0.8-1.5c1-0.7,1.8-1.6,2.5-2.5l1.5,0.8L807.6,138.4z"/>
		<path class="st1" d="M794,111.8c0.4-0.4,0.4-1,0-1.4s-1-0.4-1.4,0s-0.4,1,0,1.4C793,112.1,793.6,112.1,794,111.8L794,111.8z"/>
		<path class="st1" d="M780.9,104.7c-0.9,0.2-1.8,0.7-2.4,1.4c-1.6,1.6-1.9,3.8-0.7,5c0.5,0.5,1.2,0.7,1.8,0.7
			c1.2-0.1,2.3-0.6,3.1-1.4c2.2-2.1,3.9-4.6,5.2-7.4c1.1-2.7,1-4.8-0.2-6.1l-10.6-10.6l0,0l0,0l0,0c-3.9-3.8-9.7-4.8-14.6-2.5
			l-1.1-2.1c-0.2-0.4-0.7-0.6-1.1-0.5l-5,1c-0.4,0.1-0.7,0.4-0.8,0.7l-1,4c-0.1,0.4,0.1,0.9,0.5,1.1l2.5,1.4
			c-2.7,5-1.8,11.2,2.2,15.3l0,0l0.1,0.1l0,0l0,0l1.6,1.6c0.4,0.4,1,0.4,1.4,0s0.4-1,0-1.4l-1.2-1.2c0.5-1.4,1-2.7,1.7-3.9l4.5,4.5
			c-0.6,1.4-1,2.9-1.3,4.4l-0.9-0.9c-0.4-0.4-1-0.4-1.4,0s-0.4,1,0,1.4l0,0l6.1,6.1c0.7,0.7,1.7,1,2.7,1c1.8-0.1,3.6-0.7,5.1-1.6
			c0.5-0.3,0.7-0.9,0.4-1.4s-0.9-0.7-1.4-0.4l0,0c-2.4,1.3-4.4,1.7-5.3,1.1c1.6-0.8,2.9-2.3,3.6-4c0.2-0.5,0-1.1-0.6-1.3
			c-0.5-0.2-1.1,0-1.3,0.6l0,0c-0.4,1.1-1.2,2.1-2.3,2.7c0.3-2.1,2.1-5.5,5.4-8.8l0.1-0.1l-0.7-0.7l-0.8-0.6
			c-1.2,1.2-2.3,2.5-3.2,3.8l-1.9-1.9c1.6-3,4-5.5,7.1-7.1l1.9,1.9c-0.2,0.1-0.4,0.3-0.6,0.4c-0.4,0.3-0.5,1-0.2,1.4s1,0.5,1.4,0.2
			l0,0c3.7-2.7,6.7-3.3,7.6-2.4c0.6,0.6,0.5,2.1-0.2,3.9c-0.6,1.3-1.3,2.6-2.2,3.8c-0.1-0.2-0.3-0.4-0.4-0.6
			C782.7,104.7,781.8,104.5,780.9,104.7z M780.9,93c-1.5,0.3-3,0.7-4.4,1.3l-4.5-4.5c1.3-0.7,2.6-1.3,3.9-1.7L780.9,93z M774.3,86.6
			c-1.3,0.5-2.5,1.1-3.7,1.8l-2.1-2.1c-0.7-0.7-1.6-1.3-2.6-1.6C768.9,84.2,771.9,84.9,774.3,86.6z M755.5,86.6l0.7-2.7l3.6-0.7
			l0.8,1.5c-0.7,0.5-1.4,1-2,1.6c-0.4,0.4-0.8,0.9-1.2,1.4L755.5,86.6z M758.9,101.9c-1.7-2.4-2.4-5.4-1.9-8.3
			c0.3,1,0.9,1.9,1.6,2.6l2.1,2.1C760,99.4,759.4,100.7,758.9,101.9z M768.3,111.6l-1.2-1.2c0.1-1.6,0.5-3.1,1-4.6l1.7,1.7
			C769.1,108.7,768.6,110.1,768.3,111.6L768.3,111.6z M770.6,98.3c-1.2,1.2-2.2,2.6-3,4l-4.4-4.4c0.9-1.4,2-2.7,3.2-3.9
			c0.5-0.5,1-0.9,1.5-1.3c0.4-0.4,0.5-1,0.1-1.4s-1-0.5-1.4-0.1c-0.5,0.5-1.1,1-1.6,1.5c-1.2,1.2-2.3,2.5-3.2,3.9l-1.7-1.8
			c-2-1.9-2-5.1-0.1-7.1s5.1-2,7.1-0.1l0.1,0.1l7.6,7.6C773.2,96.1,771.8,97.1,770.6,98.3L770.6,98.3z M779.8,97.5l-1.7-1.7
			c1.5-0.6,3-0.9,4.6-1l1.1,1.1C782.4,96.3,781,96.8,779.8,97.5L779.8,97.5z M781.3,108.9c-0.9,0.9-1.8,1-2.1,0.7s-0.2-1.3,0.7-2.1
			c0.4-0.4,0.9-0.7,1.4-0.8c0.1,0,0.2,0,0.3,0c0.2,0,0.3,0,0.4,0.1C782.3,107.1,782.1,108.1,781.3,108.9L781.3,108.9z"/>
		<path class="st1" d="M774.9,105.4c-0.4,0.4-0.4,1,0,1.4s1,0.4,1.4,0s0.4-1,0-1.4l0,0C775.9,105,775.3,105,774.9,105.4z"/>
		<path class="st1" d="M783.4,102.6c0.4-0.4,0.4-1,0-1.4s-1-0.4-1.4,0s-0.4,1,0,1.4l0,0C782.4,102.9,783,102.9,783.4,102.6z"/>
	</g>
</g>
<g>
	<g>
		<circle class="st1" cx="566.1" cy="644.6" r="1"/>
		<circle class="st1" cx="574.1" cy="644.6" r="1"/>
		<path class="st1" d="M583.1,676.6c-0.6,0-1,0.4-1,1v5c0,0.6,0.4,1,1,1c0.6,0,1-0.4,1-1v-5C584.1,677,583.6,676.6,583.1,676.6z"/>
		<path class="st1" d="M577.1,673.6h-14c-0.6,0-1,0.4-1,1v8c0,0.6,0.4,1,1,1c0.6,0,1-0.4,1-1v-7h12v7c0,0.6,0.4,1,1,1
			c0.6,0,1-0.4,1-1v-8C578.1,674,577.6,673.6,577.1,673.6z"/>
		<path class="st1" d="M582.1,655.6h-6v-1.3c0.2-0.2,0.5-0.4,0.7-0.7h1.3c0.6,0,1-0.4,1-1c0-0.7-0.2-1.5-0.5-2.1
			c0.3-0.9,0.5-1.9,0.5-2.9v-1h1c1.7,0,3-1.3,3-3v-2c0-1.4-0.9-2.5-2.2-2.9c0.6-1.5-0.1-3.3-1.6-3.9c-0.4-0.1-0.7-0.2-1.1-0.2h-15
			v-1c0-2.8,2.2-5,5-5h4c2.1,0,4,1.3,4.7,3.3c0.2,0.5,0.7,0.8,1.3,0.6c0.5-0.2,0.8-0.7,0.6-1.3c0,0,0,0,0-0.1
			c-1-2.8-3.6-4.7-6.6-4.7h-4c-3.9,0-7,3.1-7,7v1.2c-1.6,0.5-2.4,2.2-1.8,3.8c0,0.1,0,0.1,0.1,0.1c-1.3,0.4-2.2,1.5-2.2,2.9v2
			c0,1.7,1.3,3,3,3h1v1c0,1,0.2,2,0.5,2.9c-0.3,0.7-0.5,1.4-0.5,2.1c0,0.6,0.4,1,1,1h1.3c0.2,0.2,0.4,0.5,0.7,0.7v1.3h-6
			c-5,0-9,4-9,9c0,0.6,0.4,1,1,1c0.6,0,1-0.4,1-1c0-3.9,3.1-7,7-7h2v8h-1c-0.6,0-1,0.4-1,1c0,3.2-0.6,6.3-1.8,9.3l-0.3,0.5
			c0,0.1-0.1,0.2-0.1,0.4v6c0,0.6,0.4,1,1,1c0.6,0,1-0.4,1-1v-5.8l0.1-0.2c1.2-2.9,1.8-5.9,1.9-9h20c0.1,2.2,0.4,4.3,1,6.4
			c0.2,0.5,0.7,0.8,1.2,0.7c0.5-0.2,0.8-0.7,0.7-1.2c-0.6-2.2-1-4.5-1-6.9c0-0.6-0.4-1-1-1h-1v-5c0-0.6-0.4-1-1-1c-0.6,0-1,0.4-1,1
			v5h-2v-8h6c3.9,0,7,3.1,7,7v18c0,0.6,0.4,1,1,1c0.6,0,1-0.4,1-1v-18C591.1,659.6,587.1,655.6,582.1,655.6z M563.1,647.6v-7h14v7
			c0,0.3,0,0.6-0.1,1c-0.8-0.6-1.9-1-2.9-1h-8c-1.1,0-2.1,0.3-2.9,1C563.1,648.2,563.1,647.9,563.1,647.6z M574.1,651.6
			c-1.3,0-2.4-0.8-2.8-2h2.8c1.3,0,2.4,0.8,2.8,2H574.1z M566.1,649.6h2.8c-0.4,1.2-1.6,2-2.8,2h-2.8
			C563.7,650.4,564.8,649.6,566.1,649.6z M570.1,651.5c0.9,1.2,2.2,1.9,3.7,2c-2.2,1.4-5.1,1.4-7.3,0
			C567.9,653.4,569.2,652.7,570.1,651.5z M581.1,643.6c0,0.6-0.4,1-1,1h-1v-4h1c0.6,0,1,0.4,1,1V643.6z M562.1,636.6h16
			c0.6,0,1,0.4,1,1s-0.4,1-1,1h-16c-0.6,0-1-0.4-1-1S561.5,636.6,562.1,636.6z M560.1,644.6c-0.6,0-1-0.4-1-1v-2c0-0.6,0.4-1,1-1h1
			v4H560.1z M570.1,656.6c1.4,0,2.8-0.3,4-0.9v1.9c0,2.2-1.8,4-4,4s-4-1.8-4-4v-1.9C567.3,656.3,568.7,656.6,570.1,656.6z
			 M562.1,665.6v-8h2v8H562.1z M566.1,665.6v-3.5c2.3,2.1,5.7,2.1,8,0v3.5H566.1z"/>
		<path class="st1" d="M552.1,675.6h-1.3c1.9-2.3,1.6-5.8-0.7-7.7c-1.2-1-2.9-1.5-4.4-1.2c-0.2,0-0.3,0-0.5,0l1.7-3
			c0.8-1.4,0.3-3.3-1.1-4.1l0,0l-0.8-0.4l3.1-4.3c1.1-1.5,0.8-3.6-0.7-4.7c-1.5-1.1-3.6-0.8-4.7,0.7c-0.1,0.1-0.1,0.2-0.2,0.3
			l-3.3,5.7l0,0l-5,8.7c-2.7,2.6-2.9,6.9-0.4,9.7c0.1,0.1,0.2,0.2,0.3,0.3H532c-0.6,0-1,0.4-1,1v6c0,0.6,0.4,1,1,1c0.6,0,1-0.4,1-1
			v-5h18v5c0,0.6,0.4,1,1,1c0.6,0,1-0.4,1-1v-6C553.1,676,552.6,675.6,552.1,675.6z M545.2,662.6l-1.5,2.7c-0.5-0.4-1.1-0.8-1.7-1.1
			l2-3.5l0.9,0.5C545.3,661.5,545.5,662.1,545.2,662.6L545.2,662.6z M544.3,652.1c0.4-0.7,1.2-0.9,1.9-0.5s0.9,1.2,0.5,1.9l-0.1,0.1
			l-3.3,4.4l-1.8-1.1L544.3,652.1z M540.5,658.7l1.7,1l-2.3,3.9c-0.6-0.1-1.3-0.1-1.9,0c-0.2,0-0.3,0.1-0.5,0.1L540.5,658.7z
			 M546.1,675.6V674l1.7-1.7c0.4-0.4,0.4-1,0-1.4c-0.4-0.4-1-0.4-1.4,0l-1.3,1.3l-0.3-0.3c-0.4-0.4-1-0.4-1.4,0
			c-0.4,0.4-0.4,1,0,1.4l0.7,0.7v1.6h-5c-2.8,0-5-2.2-5-5s2.2-5,5-5c1.5,0,2.9,0.7,3.9,1.8c0.7,0.9,1.9,1.4,3,1.2
			c1.9-0.3,3.7,0.9,4,2.9c0,0.1,0,0.1,0,0.2c0.2,1.9-1.2,3.7-3.1,3.9c-0.1,0-0.3,0-0.4,0L546.1,675.6L546.1,675.6z"/>
		<path class="st1" d="M539.1,667.6c-1.7,0-3,1.3-3,3s1.3,3,3,3s3-1.3,3-3S540.7,667.6,539.1,667.6z M539.1,671.6c-0.6,0-1-0.4-1-1
			s0.4-1,1-1c0.6,0,1,0.4,1,1S539.6,671.6,539.1,671.6z"/>
	</g>
</g>
<g>
	<g>
		<path class="st1" d="M267.7,668.7c-0.5,0.3-0.6,0.9-0.4,1.4s0.9,0.6,1.4,0.4c0.5-0.3,0.6-0.9,0.4-1.4l0,0
			C268.8,668.6,268.2,668.4,267.7,668.7z"/>
		<path class="st1" d="M270.7,673.9c-0.5,0.3-0.6,0.9-0.4,1.4c0.3,0.5,0.9,0.6,1.4,0.4c0.5-0.3,0.6-0.9,0.4-1.4l0,0
			C271.8,673.8,271.2,673.6,270.7,673.9z"/>
		<circle class="st1" cx="274.2" cy="680" r="1"/>
		<path class="st1" d="M247.7,642.3c1.6,0.4,3.2-0.5,3.7-2.1c0.4-1.6-0.5-3.2-2.1-3.7c-1.6-0.4-3.2,0.5-3.7,2.1
			c-0.2,0.8-0.1,1.6,0.3,2.3C246.3,641.5,247,642,247.7,642.3z M247.6,639.1c0.1-0.5,0.7-0.8,1.2-0.7s0.8,0.7,0.7,1.2
			c-0.1,0.3-0.2,0.5-0.5,0.6c-0.2,0.1-0.5,0.2-0.8,0.1C247.7,640.2,247.4,639.6,247.6,639.1L247.6,639.1z"/>
		<path class="st1" d="M283.4,683.9l-7.4-12.8c-0.3-0.5-0.9-0.6-1.4-0.4c-0.5,0.3-0.6,0.9-0.4,1.4l0,0l6.9,11.9l-8.7,5
			c-1,0.6-2.2,0.2-2.7-0.7s-0.2-2.2,0.7-2.7l0,0c0.4-0.2,0.6-0.7,0.5-1.1c-0.8-2.8-2.2-5.3-4.2-7.3c-1.8-1.8-3.1-4.1-3.8-6.5
			c-0.2-0.7-0.5-1.4-0.7-2l7-5.2l3.1,5.3c0.3,0.5,0.9,0.6,1.4,0.4c0.5-0.3,0.6-0.9,0.4-1.4l-3.6-6.2c0-0.1,0-0.1-0.1-0.2l-15.3-26.5
			c-1.8-3.1-5.6-4.3-8.8-2.9l-6.5,2.8c-0.5,0.2-0.7,0.8-0.5,1.3s0.8,0.7,1.3,0.5l6.5-2.8c2.3-1,5-0.1,6.3,2.1l14.9,25.8l-19.6,14.5
			c-8.7-10.2-15.4-21.9-19.9-34.5l4.5-2c4.2,11.4,10.2,22,17.7,31.5c0.3,0.4,1,0.5,1.4,0.2s0.5-1,0.2-1.4l0,0
			c-7.5-9.4-13.4-19.9-17.5-31.1l1.7-0.7c0.5-0.2,0.7-0.8,0.4-1.3c-0.2-0.5-0.8-0.7-1.2-0.5l-8.9,3.9c-0.5,0.2-0.7,0.8-0.5,1.2
			c4.7,13.5,11.9,25.9,21.2,36.7c0.3,0.4,0.9,0.5,1.4,0.1l11.4-8.5c0.2,0.5,0.3,0.9,0.5,1.4c0.8,2.8,2.2,5.3,4.2,7.3
			c1.6,1.7,2.8,3.7,3.6,5.8c-1.6,1.5-1.8,4-0.3,5.6c1.3,1.4,3.3,1.8,5,0.8l9.5-5.5C283.5,685,283.7,684.4,283.4,683.9z"/>
	</g>
</g>
<g>
	<path class="st1" d="M711.7,455.1c0.6,0,1-0.4,1-1v-4c0-3.9-3.1-7-7-7h-46c-3.9,0-7,3.1-7,7v4c0,0.6,0.4,1,1,1h4v2.1
		c-2.3,0.5-4,2.5-4,4.9v2c0,2,1.2,3.8,3,4.6v2.4h-3c-0.6,0-1,0.4-1,1v4c0,2.8,2.2,5,5,5h50c2.8,0,5-2.2,5-5v-4c0-0.6-0.4-1-1-1h-3
		v-2.4c1.8-0.8,3-2.6,3-4.6v-2c0-2.4-1.7-4.4-4-4.9v-2.1H711.7z M654.7,450.1c0-2.8,2.2-5,5-5h46c2.8,0,5,2.2,5,5v3h-56V450.1z
		 M696.7,457.1h-7.2c0.1-0.3,0.2-0.7,0.2-1v-1h7V457.1z M667.7,455.1h2v3c0,0.6-0.4,1-1,1s-1-0.4-1-1V455.1z M671.7,455.1h12v1
		c0,0.3,0.1,0.7,0.2,1h-12.2V455.1z M685.7,456.1v-1h2v1c0,0.6-0.4,1-1,1S685.7,456.6,685.7,456.1z M698.7,455.1h2v3
		c0,0.6-0.4,1-1,1s-1-0.4-1-1V455.1z M665.7,455.1v2h-6v-2H665.7z M710.7,476.1c0,1.7-1.3,3-3,3h-50c-1.7,0-3-1.3-3-3v-3h6.6
		l4.7,3.8c0.2,0.1,0.4,0.2,0.6,0.2c0.1,0,0.2,0,0.3-0.1l10.5-3.8l4.6,3.6c0.4,0.3,0.9,0.3,1.2,0l4.6-3.6l10.5,3.8
		c0.1,0,0.2,0.1,0.3,0.1c0.2,0,0.4-0.1,0.6-0.2l4.7-3.8h6.6v3H710.7z M664.5,473.1h7.5l-5.1,1.9L664.5,473.1z M680.5,473.1h4.3
		l-2.2,1.7L680.5,473.1z M693.4,473.1h7.5l-2.3,1.9L693.4,473.1z M706.7,471.1h-48v-2h48V471.1z M706.7,467.1h-48c-1.7,0-3-1.3-3-3
		v-1h3c1.3,0,2.5,0.3,3.6,0.9c1.4,0.7,2.9,1.1,4.5,1.1s3.1-0.3,4.5-1.1c1.1-0.6,2.4-0.9,3.6-0.9c1.3,0,2.5,0.3,3.7,0.9
		c1.4,0.7,2.9,1.1,4.5,1.1s3.1-0.3,4.5-1.1c2.3-1.2,5-1.2,7.3,0c2.8,1.4,6.2,1.4,9,0c1.1-0.6,2.4-0.9,3.7-0.9h2v1
		C709.7,465.7,708.3,467.1,706.7,467.1z M709.5,461.1h-1.8c-1.6,0-3.1,0.3-4.5,1.1c-2.3,1.2-5,1.2-7.3,0c-2.8-1.4-6.2-1.4-9,0
		c-1.1,0.6-2.4,0.9-3.7,0.9s-2.5-0.3-3.7-0.9c-1.4-0.7-2.9-1.1-4.5-1.1s-3.1,0.3-4.5,1.1c-1.1,0.6-2.4,0.9-3.7,0.9s-2.5-0.3-3.6-0.9
		c-1.4-0.7-2.9-1.1-4.5-1.1h-2.8c0.4-1.2,1.5-2,2.8-2h7.2c0.5,1.6,2.2,2.4,3.8,1.8c0.9-0.3,1.5-1,1.8-1.8h25.4
		c0.5,1.6,2.2,2.4,3.8,1.8c0.9-0.3,1.5-1,1.8-1.8h4.2C708,459.1,709.1,459.9,709.5,461.1z M705.7,457.1h-3v-2h3V457.1z"/>
	<rect x="663.7" y="449.1" class="st1" width="2" height="2"/>
	<rect x="669.7" y="447.1" class="st1" width="2" height="2"/>
	<rect x="658.7" y="448.1" class="st1" width="2" height="2"/>
	<rect x="675.7" y="449.1" class="st1" width="2" height="2"/>
	<rect x="699.7" y="449.1" class="st1" width="2" height="2"/>
	<rect x="693.7" y="447.1" class="st1" width="2" height="2"/>
	<rect x="704.7" y="448.1" class="st1" width="2" height="2"/>
	<rect x="687.7" y="449.1" class="st1" width="2" height="2"/>
	<rect x="681.7" y="447.1" class="st1" width="2" height="2"/>
</g>
<g>
	<g>
		<path class="st1" d="M372.1,658c-4.5,4.6-10.6,7.1-17.1,7.1c-5.7,0-11.2-2-15.5-5.7c-0.4-0.4-1.1-0.3-1.4,0.1
			c-0.4,0.4-0.3,1.1,0.1,1.4l0,0c1.9,1.6,4.1,3,6.5,4l-0.5,8.3c-0.1,2,0,4,0.4,5.9c0.6,3.5,2.8,6.5,6,8v4c0,0.6,0.4,1,1,1s1-0.4,1-1
			v-3.3c0,0,0,0,0.1,0c0.8,0.2,1.6,0.3,2.4,0.3c0.8,0,1.7-0.1,2.5-0.3v3.3c0,0.6,0.4,1,1,1s1-0.4,1-1v-4c3.1-1.5,5.3-4.3,5.9-7.7
			l0.1-0.3c0.4-2,0.5-4,0.4-5.9l-0.3-5.4c0-0.6-0.5-1-1.1-0.9c-0.6,0-1,0.5-0.9,1.1l0.3,5.4c0.1,1.8,0,3.7-0.3,5.5l-0.1,0.3
			c-0.9,4.7-5.3,7.8-10,6.9c-0.1,0-0.3-0.1-0.4-0.1c-3.4-0.9-6-3.7-6.5-7.1c-0.3-1.8-0.4-3.6-0.3-5.5l0.4-7.6
			c0.3,0.1,0.6,0.2,0.9,0.3l0.5,8.2c0.1,1.7,1.6,3,3.3,2.9c1.6-0.1,2.8-1.4,2.9-2.9l0.4-7.1c0.2,0,0.3,0,0.5,0c0.2,0,0.3,0,0.5,0
			l0.4,7.1c0.1,1.7,1.6,3,3.3,2.9c1.6-0.1,2.8-1.4,2.9-2.9l0.5-8.2c4.1-1.3,7.9-3.5,10.9-6.6c0.4-0.4,0.4-1,0-1.4
			C373.1,657.6,372.5,657.6,372.1,658L372.1,658z M352.2,674.1c0,0.6-0.6,1.1-1.2,1c-0.6,0-1-0.5-1-1l-0.4-7.6c1,0.2,2,0.4,3,0.5
			L352.2,674.1z M360.2,674.1c0,0.6-0.6,1.1-1.2,1c-0.6,0-1-0.5-1-1l-0.4-7.1c1-0.1,2-0.3,3-0.5L360.2,674.1z"/>
		<path class="st1" d="M385.1,639.9l-1-5c-0.1-0.5-0.6-0.9-1.1-0.8l-5.6,0.9l-3.7-2.7c-0.4-0.3-1.1-0.2-1.4,0.2
			c-0.1,0.2-0.2,0.4-0.2,0.6v7.2c-2.2,0.6-3.9,2.2-4.5,4.3c-2,6.9-9.2,10.9-16.1,8.9c-4.3-1.2-7.7-4.6-8.9-8.9
			c-1.1-3.4-4.7-5.4-8.1-4.3c-1.3,0.4-2.4,1.2-3.2,2.2l-4.1-2.9l0.7-3.4l5,0.8c0.3,0,0.5,0,0.8-0.2l2.4-1.8v2.1c0,0.6,0.4,1,1,1
			s1-0.4,1-1V633c0-0.6-0.4-1-1-1c-0.2,0-0.4,0.1-0.6,0.2l-3.7,2.7l-5.6-0.7c-0.5-0.1-1,0.3-1.1,0.8l-1,5c-0.1,0.4,0.1,0.8,0.4,1
			l4.8,3.4c-0.5,1.3-0.6,2.7-0.2,4.1c1,3.5,2.8,6.8,5.2,9.6c0.4,0.4,1,0.5,1.4,0.1s0.5-1,0.1-1.4c-2.2-2.6-3.8-5.6-4.8-8.8
			c-0.4-1.3-0.1-2.8,0.7-3.9c0.8-1.1,2.2-1.8,3.6-1.8c2,0,3.7,1.3,4.3,3.1c0.1,0.2,0.1,0.4,0.2,0.6l-2.9,1.7
			c-1.4,0.8-1.9,2.7-1.1,4.1c0.8,1.4,2.7,1.9,4.1,1.1l2.9-1.7c0.4,0.5,0.8,0.9,1.3,1.3l-1.7,2.9c-0.8,1.4-0.3,3.3,1.1,4.1
			c1.4,0.8,3.3,0.3,4.1-1.1l1.7-2.9c0.6,0.2,1.2,0.3,1.7,0.5v3.3c0,1.7,1.3,3,3,3c1.7,0,3-1.3,3-3l0,0V656c0.6-0.1,1.2-0.3,1.7-0.5
			l1.7,2.9c0.8,1.4,2.7,1.9,4.1,1.1c1.4-0.8,1.9-2.7,1.1-4.1l0,0l-1.7-2.9c0.4-0.4,0.9-0.8,1.3-1.3l2.9,1.7c1.4,0.8,3.3,0.3,4.1-1.1
			c0.8-1.4,0.3-3.3-1.1-4.1l0,0l-2.9-1.7c0.1-0.2,0.1-0.4,0.2-0.6c0.6-1.9,2.3-3.2,4.3-3.1c1.4,0,2.8,0.7,3.6,1.8
			c0.8,1.1,1.1,2.6,0.7,3.9c-0.8,2.6-1.9,5-3.5,7.2c-0.3,0.4-0.2,1.1,0.2,1.4s1.1,0.2,1.4-0.2c1.7-2.4,3-5,3.8-7.8
			c0.4-1.3,0.3-2.8-0.2-4.1l4.8-3.4C385,640.7,385.1,640.3,385.1,639.9z M340,651c-0.5,0.3-1.1,0.1-1.4-0.4l0,0
			c-0.3-0.5-0.1-1.1,0.4-1.4l0,0l2.6-1.5c0.3,0.6,0.6,1.2,1,1.7L340,651z M346.9,657.2c-0.3,0.5-0.9,0.6-1.4,0.4
			c-0.5-0.3-0.6-0.9-0.4-1.4l0,0l1.5-2.6c0.6,0.4,1.1,0.7,1.7,1L346.9,657.2z M356.1,659.1c0,0.6-0.4,1-1,1s-1-0.4-1-1v-3
			c0.3,0,0.7,0,1,0c0.3,0,0.7,0,1,0V659.1z M364.9,656.2c0.3,0.5,0.1,1.1-0.4,1.4l0,0c-0.5,0.3-1.1,0.1-1.4-0.4l0,0l-1.5-2.6
			c0.6-0.3,1.2-0.6,1.7-1L364.9,656.2z M371.2,649.3c0.5,0.3,0.6,0.9,0.4,1.4c-0.3,0.5-0.9,0.6-1.4,0.4l-2.6-1.5
			c0.4-0.6,0.7-1.1,1-1.7L371.2,649.3z M378.9,642.6c-1.2-1.5-2.9-2.4-4.8-2.5v-5l2.4,1.8c0.2,0.2,0.5,0.2,0.8,0.2l5-0.8l0.7,3.4
			L378.9,642.6z"/>
	</g>
</g>
<g>
	<g>
		<path class="st1" d="M880.8,87.5c-1.7,2.1-3.6,4-5.7,5.6l-0.4,0.3c-1.8,1.4-3.4,3-4.8,4.8l-0.5,0.6c-0.3,0.4-0.3,1.1,0.2,1.4
			c0.4,0.3,1.1,0.3,1.4-0.2l0.5-0.6c1.3-1.7,2.8-3.1,4.4-4.4l0.4-0.3c2.2-1.7,4.3-3.8,6-6c0.3-0.4,0.3-1.1-0.2-1.4
			C881.8,87,881.2,87.1,880.8,87.5z"/>
		<path class="st1" d="M876.3,104.6l-0.5,0.6c-0.4,0.4-0.3,1.1,0.1,1.4c0.4,0.4,1.1,0.3,1.4-0.1l0,0l0.5-0.6
			c1.3-1.7,2.8-3.2,4.4-4.4l0.4-0.3c2.2-1.7,4.3-3.8,6-6c0.3-0.4,0.3-1.1-0.2-1.4c-0.4-0.3-1.1-0.3-1.4,0.2c-1.7,2.1-3.6,4-5.7,5.7
			l-0.4,0.3C879.3,101.2,877.7,102.8,876.3,104.6z"/>
		<path class="st1" d="M878,112.3c0.1,0,0.2,0,0.3,0c1.4-0.1,2.6-0.8,3.5-1.8c1.5-1.9,3.2-3.6,5.1-5.1l0.4-0.3
			c2-1.6,3.9-3.4,5.5-5.5c0.9-1.2,2.7-1.4,3.9-0.5c0.1,0.1,0.2,0.1,0.3,0.2l1.6,1.6l0.7,1c0.2,0.2,0.4,0.4,0.7,0.4
			c0.3,0,0.6-0.1,0.8-0.3l2.3-2.3c1.2-1.2,1.2-3.1,0-4.2l0,0c-1.2-1.1-3.1-1.1-4.2,0l-1.5,1.5c-0.8-0.5-1.7-0.7-2.6-0.6
			c-0.1,0-0.2,0-0.4,0.1c0.1-0.7,0-1.3-0.1-2l1.9-1.9c1.2-1.2,1.2-3.1,0-4.2l0,0c-1.2-1.1-3.1-1.1-4.2,0l-1.6,1.6
			c-2-1.2-4.7-0.7-6.1,1.2c-0.9,1.1-1.9,2.2-2.9,3.2c-0.4,0.4-0.4,1,0,1.4s1,0.4,1.4,0l0,0c1.1-1.1,2.2-2.2,3.1-3.4
			c0.9-1.2,2.7-1.4,3.9-0.5c0.1,0.1,0.2,0.1,0.2,0.2l0,0l0,0l1.7,1.7c0.2,0.2,0.4,0.5,0.5,0.8c0,0,0,0,0,0.1c0.4,0.9,0.3,2-0.3,2.8
			l0,0l0,0l-0.3,0.4l0,0c-0.1,0.1-0.2,0.1-0.2,0.2c-1.5,1.9-3.2,3.6-5.1,5.1l-0.4,0.3c-2.1,1.6-3.9,3.4-5.5,5.5
			c-0.9,1.2-2.7,1.4-3.9,0.5c-0.1-0.1-0.2-0.1-0.3-0.2l-1.7-1.7l0,0l0,0c-1-1-1.1-2.6-0.2-3.7l0.6-0.7c1.5-1.9,3.2-3.6,5.1-5.1
			c0.4-0.3,0.5-1,0.2-1.4s-1-0.5-1.4-0.2l0,0c-2.1,1.6-3.9,3.4-5.5,5.5l-0.6,0.7c-0.2,0.3-0.4,0.6-0.6,1c-0.8,0.1-1.7-0.2-2.3-0.8
			l-1.7-1.7l0,0l0,0c-1-1-1.1-2.6-0.2-3.7l0.6-0.7c1.5-1.9,3.2-3.6,5.1-5.1l0.4-0.3c2.1-1.6,3.9-3.4,5.5-5.5
			c0.9-1.2,2.7-1.4,3.9-0.5c0.1,0.1,0.2,0.1,0.3,0.2l0,0l0,0l1,1c0.4,0.4,1,0.4,1.4,0s0.4-1,0-1.4l-0.5-0.5l1.4-1.4
			c0.4-0.4,1-0.4,1.4,0s0.4,1,0,1.4l-1.2,1.2c-0.4,0.4-0.4,1,0,1.4s1,0.4,1.4,0l0,0l1.2-1.2c1.2-1.2,1.2-3.1,0-4.2s-3.1-1.1-4.2,0
			l-1.6,1.5c-2.1-1.2-4.7-0.7-6.1,1.2c-1.5,1.9-3.2,3.6-5.1,5.1l-0.4,0.3c-2,1.6-3.9,3.4-5.5,5.5l-0.6,0.7c-1.2,1.5-1.3,3.6-0.4,5.2
			l-1.6,1.6c-1.2,1.1-1.3,3-0.2,4.2c1.1,1.2,3,1.3,4.2,0.2c0.1-0.1,0.1-0.1,0.2-0.2l1.8-1.8c0.4,0.1,0.8,0.2,1.3,0.2
			c0,0.8,0.2,1.5,0.6,2.2l-1.6,1.6c-1.2,1.2-1.2,3.1,0,4.2s3.1,1.2,4.2,0l1.8-1.8C877.1,112.2,877.6,112.3,878,112.3z M900.3,96.9
			c0.4-0.4,1-0.4,1.4,0s0.4,1,0,1.4l0,0l-1.4,1.4l-0.1-0.1l-0.1-0.1l-1.2-1.2L900.3,96.9z M894.7,89.9c0.4,0.4,0.4,1,0,1.4l0,0
			l-1.4,1.4c-0.1-0.1-0.1-0.2-0.2-0.3l-1.2-1.2l1.4-1.4C893.6,89.5,894.3,89.5,894.7,89.9z M867.1,106.1c-0.4,0.4-1,0.4-1.4,0
			s-0.4-1,0-1.4l0,0l1.4-1.4l1.2,1.2c0.1,0.1,0.1,0.1,0.2,0.2L867.1,106.1z M873.4,112.5c-0.4,0.4-1,0.4-1.4,0s-0.4-1,0-1.4l0,0
			l1.4-1.4l1.2,1.2c0.1,0.1,0.1,0.1,0.2,0.2L873.4,112.5z"/>
		<path class="st1" d="M894.3,100.9c-1.7,2.1-3.6,4-5.7,5.6l-0.4,0.3c-1.8,1.4-3.4,3-4.8,4.8l-0.5,0.6c-0.3,0.4-0.3,1.1,0.2,1.4
			s1.1,0.3,1.4-0.2l0.5-0.6c1.3-1.7,2.8-3.1,4.4-4.4l0.4-0.3c2.2-1.7,4.3-3.8,6-6c0.4-0.4,0.3-1.1-0.1-1.4S894.6,100.5,894.3,100.9
			L894.3,100.9z"/>
		<path class="st1" d="M896.4,115.5l0.4-0.3c2.4-1.6,4.5-3.5,6.4-5.6c0.4-0.4,0.4-1,0-1.4s-1-0.4-1.4,0c0,0,0,0-0.1,0.1
			c-1.8,2-3.8,3.7-6.1,5.2l-0.4,0.3c-1.9,1.3-3.6,2.8-5.1,4.4l-0.5,0.6c-0.4,0.4-0.3,1,0.1,1.4s1,0.3,1.4-0.1l0,0l0.5-0.6
			C893.1,118,894.7,116.7,896.4,115.5z"/>
		<path class="st1" d="M908.2,116.6c-2,1.8-4.1,3.4-6.5,4.7l-0.4,0.2c-2,1.1-3.8,2.5-5.4,4l-0.5,0.5c-0.4,0.4-0.4,1,0,1.4
			s1,0.4,1.4,0l0,0l0.5-0.5c1.5-1.4,3.2-2.7,5.1-3.7l0.4-0.2c2.5-1.4,4.8-3.1,6.9-5c0.4-0.4,0.4-1,0-1.4S908.6,116.3,908.2,116.6z"
			/>
		<path class="st1" d="M923.1,123.7c-0.5-1-1.6-1.7-2.7-1.7c-0.5,0-0.9,0.1-1.3,0.3l-2,1c-1.6-1.8-4.2-2.1-6.2-0.8
			c-1.2,0.8-2.5,1.5-3.9,2.1c-0.5,0.2-0.7,0.8-0.5,1.3s0.8,0.7,1.3,0.5l0,0c1.4-0.7,2.8-1.4,4.2-2.3c1.3-0.8,3-0.5,3.8,0.8
			c0.1,0.1,0.1,0.2,0.2,0.3l1,2.1c0.6,1.3,0.2,2.8-1,3.5l-0.8,0.5c-2,1.3-4.2,2.4-6.5,3.2l-0.5,0.2c-2.5,0.8-4.8,2-7,3.4
			c-1.3,0.8-3,0.5-3.8-0.8c-0.1-0.1-0.1-0.2-0.2-0.3l-1-2.1c-0.6-1.3-0.2-2.8,1-3.5l0.8-0.5c2-1.3,4.2-2.4,6.5-3.2
			c0.5-0.2,0.8-0.7,0.6-1.3s-0.7-0.8-1.3-0.6l0,0c-2.5,0.8-4.8,2-7,3.4l-0.8,0.5c-0.4,0.3-0.7,0.6-1,1c-0.1-0.1-0.2-0.2-0.3-0.3
			l-1.4-1.9c-0.8-1.1-0.7-2.7,0.3-3.7l0.7-0.7c1.8-1.7,3.7-3.1,5.9-4.3l0.4-0.2c2.3-1.3,4.4-2.8,6.2-4.6c0.6-0.6,1.4-0.8,2.2-0.8
			c0.8,0.1,1.5,0.5,2,1.1l1.4,1.9c0.4,0.5,0.6,1.2,0.5,1.8c0,0.6,0.4,1,0.9,1.1c0.5,0,1-0.4,1.1-0.9l0,0c0-0.3,0-0.6,0-0.9l2.1-1.5
			c1.3-1,1.6-2.9,0.6-4.2c-0.6-0.8-1.5-1.2-2.4-1.2c-0.6,0-1.3,0.2-1.8,0.6l-1.8,1.3c-0.9-0.8-2.1-1.1-3.3-1
			c0.4-0.9,0.5-1.9,0.3-2.8l2-1.7c1.2-1.1,1.4-3,0.3-4.2s-3-1.4-4.2-0.3l-1.7,1.4c-0.8-0.5-1.7-0.8-2.6-0.8l0,0
			c-1.4,0-2.6,0.6-3.6,1.6c-1.6,1.8-3.5,3.4-5.5,4.8l-0.4,0.3c-2.2,1.5-4.1,3.2-5.9,5.1l-0.6,0.7c-0.2,0.3-0.4,0.6-0.6,0.9
			c-1,0.3-2.1,0.1-2.8-0.6l-1.7-1.7l-0.2-0.2c-0.2-0.2-0.4-0.3-0.7-0.3c-0.3,0-0.5,0.1-0.7,0.3l-2.1,2.1c-1.2,1.2-1.2,3.1,0,4.2
			c0.6,0.6,1.3,0.9,2.1,0.9c0.8,0,1.6-0.3,2.1-0.9l1.8-1.8c0.5,0.2,1.1,0.2,1.6,0.2c0,0.7,0.1,1.5,0.4,2.2l-1.7,1.4
			c-1.3,1.1-1.4,3-0.3,4.2c0.6,0.7,1.4,1,2.3,1c0.7,0,1.4-0.3,2-0.7l2-1.7c0.3,0.1,0.6,0.2,0.9,0.2c-0.2,0.8-0.1,1.7,0.2,2.5
			l-1.8,1.3c-1.3,1-1.6,2.8-0.7,4.2l0,0c1,1.3,2.9,1.6,4.2,0.6l0,0l1-0.8c0,0.2,0,0.5,0.1,0.7l-2,1c-0.7,0.4-1.3,1-1.5,1.7
			c-0.3,0.7-0.2,1.6,0.1,2.3c0.5,1,1.6,1.7,2.7,1.7c0.5,0,0.9-0.1,1.3-0.3l2.3-1.1c1.6,1.2,3.7,1.2,5.4,0.1c2-1.3,4.2-2.4,6.5-3.2
			l0.5-0.2c2.5-0.8,4.8-2,7-3.4l0.8-0.5c1.3-0.8,2.1-2.2,2.1-3.7l2.4-1.2C923.2,127,923.8,125.2,923.1,123.7L923.1,123.7z
			 M914.8,113.6c0.4-0.3,1.1-0.2,1.4,0.2c0.3,0.4,0.2,1.1-0.2,1.4l-1.6,1.2c-0.1-0.1-0.1-0.2-0.2-0.3l-1-1.3L914.8,113.6z
			 M880.5,119.6c-0.4,0.4-1,0.4-1.4,0c-0.4-0.4-0.4-1,0-1.4l0,0l1.4-1.4l1.2,1.2c0.1,0.1,0.1,0.1,0.2,0.2L880.5,119.6z M908.1,104.7
			c0.4-0.4,1-0.3,1.4,0.1s0.3,1-0.1,1.4l-1.5,1.3c-0.1-0.1-0.1-0.2-0.2-0.3l-1.1-1.3L908.1,104.7z M886.8,126
			c-0.4,0.3-1,0.3-1.4-0.1c-0.4-0.4-0.3-1,0.1-1.4l0,0l1.5-1.3l1.1,1.3c0.1,0.1,0.1,0.1,0.2,0.2L886.8,126z M889.6,123.1l-1.6-1.8
			c-0.9-1.1-0.9-2.6,0-3.7l0.6-0.7c1.6-1.8,3.5-3.4,5.5-4.8l0.4-0.3c2.2-1.5,4.1-3.2,5.9-5.1c0.5-0.6,1.3-0.9,2.1-0.9
			c0.8,0,1.6,0.4,2.1,1l1.6,1.8c0.9,1.1,0.9,2.6,0,3.7l-0.6,0.7c-1.5,1.6-3.1,3.1-4.9,4.3c-0.3,0.2-0.6,0.4-0.9,0.6l-0.4,0.2
			c-2.3,1.3-4.4,2.8-6.2,4.6l-0.7,0.7c-0.2,0.2-0.4,0.4-0.6,0.7C891,124.1,890.2,123.7,889.6,123.1L889.6,123.1z M891.8,133
			c-0.5,0.3-1.1,0.2-1.4-0.2s-0.2-1.1,0.2-1.4l0,0l1.6-1.2l1,1.4c0.1,0.1,0.1,0.1,0.2,0.2L891.8,133z M893.8,139.1
			c-0.5,0.2-1.1,0-1.3-0.5c-0.1-0.2-0.1-0.5,0-0.8s0.3-0.5,0.5-0.6l1.8-0.9l0.8,1.5c0,0.1,0.1,0.2,0.1,0.2L893.8,139.1z
			 M921.3,125.4c-0.1,0.3-0.3,0.5-0.5,0.6l-1.8,0.9c0-0.1-0.1-0.2-0.1-0.3l-0.7-1.5l1.8-0.9c0.5-0.2,1.1,0,1.3,0.5
			C921.4,124.8,921.4,125.1,921.3,125.4z"/>
		<path class="st1" d="M899.1,132.6l-0.6,0.4c-0.5,0.3-0.6,0.9-0.3,1.4s0.9,0.6,1.4,0.3c0,0,0,0,0.1,0l0.6-0.4
			c1.8-1.1,3.6-2.1,5.6-2.8l0.5-0.2c2.7-0.9,5.3-2.2,7.6-3.7c0.5-0.3,0.6-0.9,0.3-1.4c-0.3-0.5-0.9-0.6-1.4-0.3l0,0
			c-2.3,1.4-4.7,2.6-7.2,3.5l-0.5,0.2C903.1,130.3,901,131.3,899.1,132.6z"/>
	</g>
</g>
<g>
	<g>
		<path class="st1" d="M1083.7,128.6c-5,6.6-14.3,8-21,3c-0.6-0.4-1.1-0.9-1.6-1.4c-3.4-3.6-5.5-8.2-6-13.1c-0.3-4.2-2.9-8-6.8-9.6
			l-2.6-2.6c-0.8-0.8-0.9-2-0.2-2.9c0.7-0.8,2-0.9,2.8-0.2c0,0,0.1,0,0.1,0.1c0.4,0.4,1,0.4,1.4,0s0.4-1,0-1.4c-0.8-0.8-0.8-2,0-2.8
			s2-0.8,2.8,0c0.4,0.4,1,0.4,1.4,0s0.4-1,0-1.4c-0.8-0.8-0.8-2,0-2.8c0,0,0,0,0.1-0.1c0.9-0.7,2.1-0.6,2.9,0.2c0.4,0.4,1,0.4,1.4,0
			s0.4-1,0-1.4l0,0c-1.5-1.6-4-1.7-5.6-0.3c-0.3,0.3-0.6,0.6-0.8,1l-6.6-6.6c2-2.5,1.6-6.2-0.9-8.2c-2.5-2.1-6.3-1.8-8.4,0.7
			c-0.5,0.6-0.9,1.3-1.1,2c-0.3,0.9-0.4,1.9-0.2,2.9c-1.2,0-2.4,0.4-3.3,1.1c-1.7,1.1-2.8,3-2.8,5.1c0.1,3.3,2.8,5.9,6.2,5.8
			c1.5,0,3-0.7,4.1-1.7l4.5,4.5c0.4,0.4,1,0.4,1.4,0s0.4-1,0-1.4l-5.3-5.3c-0.4-0.4-1-0.4-1.4,0l-0.1,0.1c-1.2,1.8-3.7,2.3-5.6,1.1
			c-1.1-0.7-1.7-1.9-1.8-3.2c0-1.4,0.7-2.6,1.9-3.4c1-0.7,2.2-0.9,3.4-0.5c0.5,0.2,1.1-0.1,1.3-0.6c0.1-0.3,0.1-0.5-0.1-0.8
			c-0.5-0.9-0.6-2-0.3-3c0.5-1.4,1.6-2.4,3.1-2.7c2.2-0.4,4.2,1,4.6,3.2c0.2,1.4-0.2,2.8-1.3,3.7c-0.4,0.4-0.4,1-0.1,1.4l0,0
			l8.1,8.1l0,0c-1.1-0.1-2.3,0.4-3.1,1.2c-0.8,0.7-1.2,1.8-1.2,2.8c0,0.1,0,0.2,0,0.3c-0.1,0-0.2,0-0.4,0c-1.1,0-2.1,0.5-2.9,1.3
			c-1.4,1.6-1.3,4.1,0.3,5.6l2.6,2.6c0.2,0.2,0.4,0.3,0.6,0.4c3.2,1.4,5.4,4.5,5.6,8c0.6,5.4,2.9,10.4,6.6,14.4
			c6.5,6.6,17.2,6.7,23.9,0.2c0.6-0.6,1.2-1.3,1.7-2c0.3-0.4,0.2-1.1-0.2-1.4C1084.6,128,1084,128.1,1083.7,128.6L1083.7,128.6z"/>
		<path class="st1" d="M1083.7,107.5c-3.9-3.7-9-6.1-14.4-6.6c-3.5-0.2-6.6-2.4-8-5.6c-0.2-0.5-0.8-0.8-1.3-0.5s-0.8,0.8-0.5,1.3
			c1.7,3.9,5.4,6.6,9.6,6.8c4.9,0.5,9.5,2.6,13.1,6c4.3,4.3,5.6,10.8,3.2,16.4c-0.2,0.5,0,1.1,0.5,1.3c0.1,0,0.3,0.1,0.4,0.1
			c0.4,0,0.8-0.2,0.9-0.6C1090.1,119.7,1088.6,112.4,1083.7,107.5z"/>
		<circle class="st1" cx="1066.7" cy="125.6" r="1"/>
		<circle class="st1" cx="1062.7" cy="127.6" r="1"/>
		<circle class="st1" cx="1077.7" cy="129.6" r="1"/>
		<circle class="st1" cx="1075.7" cy="124.6" r="1"/>
		<circle class="st1" cx="1081.7" cy="121.6" r="1"/>
		<circle class="st1" cx="1066.7" cy="130.6" r="1"/>
		<circle class="st1" cx="1072.7" cy="127.6" r="1"/>
		<circle class="st1" cx="1081.7" cy="125.6" r="1"/>
		<circle class="st1" cx="1070.7" cy="124.6" r="1"/>
		<circle class="st1" cx="1064.7" cy="121.6" r="1"/>
		<circle class="st1" cx="1072.7" cy="131.6" r="1"/>
		<circle class="st1" cx="1060.7" cy="122.6" r="1"/>
		<circle class="st1" cx="1056.7" cy="110.6" r="1"/>
		<circle class="st1" cx="1058.7" cy="117.6" r="1"/>
	</g>
</g>
<g>
	<g>
		<path class="st1" d="M488,669.9l-2-4c-0.2-0.3-0.5-0.6-0.9-0.6h-4v-2h1c1.7,0,3-1.3,3-3v-2c0-0.6-0.4-1-1-1h-17.6
			c-0.6,0-1,0.4-1,1s0.4,1,1,1h16.6v1c0,0.6-0.4,1-1,1h-48c-0.6,0-1-0.4-1-1v-1h13c0.1,0,0.1,0,0.2,0c0.3,0,0.5,0,0.8,0h3.7
			c5.6,0,11.2-1.3,16.3-3.8l0.4-0.2c3.7-1.8,5.5-6,4.4-10h2.5c0.4,0,0.8-0.3,0.9-0.7c0.4-1,1.5-1.6,2.5-1.2c0.8,0.3,1.3,1,1.3,1.9
			c0,0.5-0.2,1-0.5,1.3c-0.3,0.4-0.3,1,0,1.3c0.3,0.4,0.5,0.8,0.5,1.3c0,1.1-0.9,2-2,2c-0.8,0-1.6-0.5-1.9-1.3
			c-0.2-0.5-0.8-0.8-1.3-0.6s-0.8,0.8-0.6,1.3c0.7,2.1,3,3.2,5.1,2.4c1.6-0.6,2.7-2.1,2.7-3.8c0-0.7-0.2-1.4-0.5-2
			c0.4-0.6,0.5-1.3,0.5-2c0-2.2-1.8-4-4-4c-1.4,0-2.8,0.8-3.5,2h-2.7c-0.3-0.6-0.7-1.1-1.2-1.6l0,0c-0.5-0.6-1.2-1.1-1.8-1.5
			c-2.1-1.2-4.2-2.2-6.5-3l0,0c-3.8-1.3-7.8-2-11.8-2h-2.4c-0.3,0-0.7,0-1,0c-0.6,0-1,0.5-0.9,1.1c0,0.5,0.5,1,1.1,0.9
			c0.3,0,0.6,0,0.8,0c3.7,0,7,2,8.8,5.2l-1.8,1.7c-1.7,1.6-2.1,4.1-1,6.1c0.3,0.5,0.9,0.6,1.4,0.3c0.4-0.3,0.6-0.8,0.4-1.3
			c-0.7-1.2-0.4-2.7,0.6-3.7l1.2-1.2c1.2,4.1-0.3,8.5-3.8,10.9l-3.2-2.6c-2.7-2.2-6.6-2.7-9.7-1.1l-1.5,0.7
			c-0.1-0.1-0.1-0.2-0.2-0.3l2.3-4.2c1.4-2.6,1.3-5.7-0.3-8.1c0.7-0.6,1.5-1.2,2.4-1.6c0.5-0.2,0.7-0.8,0.5-1.3s-0.8-0.7-1.3-0.5
			c-6,2.9-8.5,10-5.6,16c0.9,1.9,2.4,3.6,4.2,4.8h-8.4c-0.6,0-1,0.4-1,1v2c0,1.7,1.3,3,3,3h1v2h-4c-0.4,0-0.7,0.2-0.9,0.6l-2,4
			c-0.1,0.1-0.1,0.3-0.1,0.4v12c0,0.6,0.4,1,1,1h30c0.6,0,1-0.4,1-1s-0.4-1-1-1h-29v-10.8l1.6-3.2h52.8l1.6,3.2v10.8h-23
			c-0.6,0-1,0.4-1,1s0.4,1,1,1h24c0.6,0,1-0.4,1-1v-12C488.1,670.2,488.1,670,488,669.9z M467.7,642.6c-1.1,1.8-2.5,3.3-4.2,4.6
			c0.2-2.4,0-4.8-0.7-7.2c1.4,0.6,2.8,1.3,4.1,2C467.1,642.2,467.4,642.4,467.7,642.6z M459.1,647.3c0-3.8-1.8-7.4-4.9-9.7
			c2.1,0.3,4.1,0.8,6.1,1.4c1.4,3.2,1.7,6.7,0.8,10c-0.1,0.5,0.2,1.1,0.7,1.2c0.3,0.1,0.6,0,0.8-0.1l1.6-1.1c1.9-1.3,3.5-3,4.7-4.9
			c2,3,1.1,7-1.9,9c-0.2,0.1-0.4,0.3-0.7,0.4l-0.4,0.2c-3.8,1.9-7.9,3.1-12.2,3.5C457.2,654.9,459.1,651.2,459.1,647.3z M439,641.5
			c0.9,1.8,0.9,3.8-0.1,5.6l-1.5,2.7C436.7,647,437.2,643.9,439,641.5z M439.8,654.1l1.1-0.6c2.5-1.2,5.4-0.9,7.6,0.8l2.6,2.1
			C447.2,658.2,442.6,657.2,439.8,654.1L439.8,654.1z M475.1,663.3v2h-34v-2H475.1z M437.1,665.3v-2h2v2H437.1z M477.1,665.3v-2h2v2
			H477.1z"/>
		<path class="st1" d="M459.1,669.3h-6c-0.6,0-1,0.4-1,1s0.4,1,1,1h5v6h-23v-6h14c0.6,0,1-0.4,1-1s-0.4-1-1-1h-15c-0.6,0-1,0.4-1,1
			v8c0,0.6,0.4,1,1,1h25c0.6,0,1-0.4,1-1v-8C460.1,669.8,459.7,669.3,459.1,669.3z"/>
		<path class="st1" d="M470.1,679.3c0.6,0,1-0.4,1-1v-8c0-0.6-0.4-1-1-1h-4c-0.6,0-1,0.4-1,1v8c0,0.6,0.4,1,1,1H470.1z M469.1,677.3
			h-2v-2h2V677.3z M467.1,671.3h2v2h-2V671.3z"/>
		<path class="st1" d="M479.1,679.3c0.6,0,1-0.4,1-1v-8c0-0.6-0.4-1-1-1h-4c-0.6,0-1,0.4-1,1v8c0,0.6,0.4,1,1,1H479.1z M478.1,677.3
			h-2v-2h2V677.3z M476.1,671.3h2v2h-2V671.3z"/>
		<circle class="st1" cx="438.1" cy="674.3" r="1"/>
		<circle class="st1" cx="442.1" cy="674.3" r="1"/>
		<circle class="st1" cx="446.1" cy="674.3" r="1"/>
		<circle class="st1" cx="454.1" cy="674.3" r="1"/>
		<path class="st1" d="M447.1,647.3c2.2,0,4-1.8,4-4s-1.8-4-4-4s-4,1.8-4,4S444.9,647.3,447.1,647.3z M447.1,641.3c1.1,0,2,0.9,2,2
			s-0.9,2-2,2s-2-0.9-2-2S446,641.3,447.1,641.3z"/>
	</g>
</g>
<path class="st1" d="M254,277.6c-1.2-1.7-2.7-2.5-4.1-2.5c-3.2,0.2-5.3,4.9-5.1,7.4c0.1,1.4,0.7,2.6,1.8,3.5
	c0.8,0.7,1.8,1.1,2.8,1.2c0.4,0.1,0.7,0.1,1.1,0.1c1.4,0,2.8-0.6,3.8-1.6s1.5-2.3,1.5-3.6C255.5,280.4,254.9,278.9,254,277.6z
	 M253.2,284.7c-0.6,0.6-1.4,1-2.3,1.1c-0.1,0-0.1-0.1-0.2-0.1c-0.2-0.3-0.7-1.5-0.8-3.5c-0.1-1.2,0-2.4,0.4-3.5
	c0.2-0.4,0-0.8-0.4-0.9l0,0c-0.4-0.2-0.8,0-0.9,0.4l0,0c-0.4,1.3-0.6,2.7-0.5,4.1c0,1.2,0.3,2.4,0.6,3.5c-0.6-0.1-1.3-0.4-1.8-0.8
	c-0.8-0.6-1.2-1.5-1.3-2.5c-0.1-2.2,1.7-5.8,3.8-5.9c0.1,0,0.2,0,0.3,0c1,0.3,2,0.9,2.5,1.9c0.8,1.1,1.3,2.3,1.4,3.7l0,0
	C254.3,283.1,253.9,284,253.2,284.7L253.2,284.7z M248.7,267.5c0.8,0.8,1.9,1.2,3,1.4c1.6,0.3,3.3-0.3,4.4-1.5l0,0
	c1-1.3,1.6-2.8,1.8-4.4c0.3-2-0.1-3.7-1.2-4.6c-2.4-2.1-7.1-0.2-8.8,1.7C246.1,262.2,246.5,265.5,248.7,267.5z M249,261
	c1.5-1.5,3.5-2.2,5.6-2.1c0.5,0.1,0.9,0.2,1.3,0.5c0.7,0.6,1,1.8,0.8,3.3c-0.2,1.3-0.7,2.6-1.5,3.6c-1.3,1.4-3.5,1.5-5,0.3
	c0-0.1,0-0.1-0.1-0.2c0.1-0.4,0.6-1.6,1.9-3.1c0.7-0.9,1.6-1.7,2.7-2.2c0.4-0.1,0.6-0.5,0.4-0.9s-0.5-0.6-0.9-0.4c0,0,0,0-0.1,0
	c-1.2,0.6-2.3,1.5-3.2,2.6c-0.8,0.9-1.5,1.9-2,3C247.9,264.2,248,262.3,249,261z M268.8,286c-1.1-0.9-2.8-1.2-4.7-0.7
	c-1.6,0.4-3,1.2-4.1,2.4c-1.8,2.1-1.5,5.4,0.8,7.4c0.8,0.8,1.9,1.2,3,1.4c1.6,0.3,3.3-0.3,4.4-1.5
	C269.9,293.1,271.2,288.1,268.8,286z M267.1,294c-1.3,1.4-3.5,1.5-5,0.3c0-0.1,0-0.1-0.1-0.2c0.1-0.4,0.6-1.6,1.9-3.1
	c0.7-0.9,1.6-1.7,2.7-2.2c0.3-0.2,0.5-0.6,0.3-1c-0.2-0.3-0.5-0.4-0.8-0.3c-1.2,0.6-2.3,1.5-3.2,2.6c-0.7,0.8-1.3,1.7-1.8,2.6
	c-0.1,0.1-0.1,0.2-0.2,0.3c-1-1.4-0.9-3.2,0.1-4.5c1-0.9,2.1-1.6,3.4-1.9c0.7-0.2,1.4-0.3,2.2-0.2c0.5,0,0.9,0.2,1.3,0.5
	C269.5,288.4,268.6,292.4,267.1,294z M273.2,267.7c-0.8-2.7-3.8-4.1-6.7-3.3c-2.9,0.8-4.6,3.7-3.9,6.3l0,0c0.6,2,3.1,5.1,5.8,5.4
	c0.5,0.1,1,0,1.5-0.1c1.4-0.4,2.5-1.7,3.1-3.6C273.5,270.9,273.6,269.3,273.2,267.7L273.2,267.7z M271.7,272
	c-0.5,1.5-1.2,2.4-2.1,2.7c-2,0.6-4.9-2.3-5.5-4.4c-0.4-1.8,0.6-3.7,2.3-4.4c0.1,0,0.1,0,0.2,0c0.3,0.2,1,1.3,1.6,3.3
	c0.4,1.1,0.5,2.3,0.5,3.5c-0.1,0.4,0.2,0.7,0.6,0.8l0,0c0.4,0.1,0.7-0.2,0.8-0.6c0.1-1.4-0.1-2.8-0.5-4.1c-0.3-1-0.7-2-1.2-3
	c-0.1-0.1-0.1-0.2-0.2-0.3c1.7-0.1,3.2,0.9,3.7,2.5C272.2,269.4,272.1,270.7,271.7,272L271.7,272z M233.5,284.2
	c-1.9,1.6-4.1,6.3-2.1,8.8c0.7,0.8,1.6,1.3,2.7,1.4c2.2,0.2,4.5-0.3,6.3-1.6c2.1-1.7,2.3-5.1,0.4-7.4
	C238.9,283,235.6,282.5,233.5,284.2L233.5,284.2z M239.5,291.6c-1.7,1.4-5.7,2.1-7,0.4c-1.3-1.6,0.2-5.4,1.9-6.8
	c0.7-0.6,1.7-0.8,2.6-0.7c0.9,0.1,1.7,0.5,2.3,1.2c0,0.1,0,0.1,0,0.2c-0.1,0.4-0.8,1.4-2.4,2.7c-0.9,0.8-1.9,1.4-3,1.8
	c-0.4,0.1-0.6,0.5-0.5,0.8s0.3,0.5,0.6,0.5c0.1,0,0.2,0,0.3,0c1.3-0.4,2.5-1.1,3.6-2.1c0.9-0.7,1.7-1.6,2.4-2.6
	C241.1,288.7,240.7,290.5,239.5,291.6L239.5,291.6z M238.7,279.3c2.5-1.7,3.2-5,1.6-7.2c-1-1.3-2.3-2.2-3.8-2.8
	c-1.9-0.8-3.6-0.7-4.8,0.1c-1.2,0.8-1.8,2.4-1.7,4.4c0,1.6,0.5,3.2,1.4,4.6c0.8,1.1,2,1.8,3.3,2
	C236.1,280.4,237.6,280.1,238.7,279.3z M231.5,273.7c0-1.5,0.4-2.7,1.1-3.2c0.6-0.4,1.3-0.5,2-0.3c0.5,0.1,1,0.2,1.4,0.4
	c1.2,0.5,2.3,1.3,3.2,2.3c1,1.6,0.6,3.7-0.8,4.9c-0.1,0-0.1,0-0.2,0c-0.4-0.1-1.4-0.9-2.5-2.6c-0.7-0.9-1.2-2-1.5-3.1
	c-0.1-0.4-0.4-0.7-0.8-0.6l0,0c-0.4,0.1-0.7,0.4-0.6,0.8l0,0c0.3,1.3,0.9,2.6,1.8,3.7c0.7,1,1.5,1.9,2.4,2.6
	c-1.5,0.6-3.3,0.2-4.3-1.2C231.8,276.3,231.5,275,231.5,273.7z"/>
<path class="st1" d="M272.5,289.6c-2-0.3-3.7,0.1-4.6,1.2c-2.2,2.4-0.2,7.2,1.6,8.9c1,0.9,2.4,1.3,3.7,1.2c1-0.1,2-0.5,2.8-1.1
	c0.3-0.2,0.6-0.5,0.8-0.8c1-1,1.5-2.4,1.5-3.8s-0.6-2.7-1.6-3.6C275.6,290.5,274.1,289.8,272.5,289.6z M277,295.1
	c0,0.9-0.3,1.7-0.8,2.4c-0.1,0-0.1,0-0.2,0.1c-0.4,0-1.6-0.6-3.1-2c-0.9-0.7-1.7-1.7-2.2-2.7c-0.1-0.4-0.6-0.5-0.9-0.4l0,0
	c-0.4,0.1-0.5,0.6-0.4,0.9l0,0c0.6,1.2,1.5,2.4,2.6,3.2c0.9,0.8,1.9,1.5,2.9,2c-0.5,0.4-1.2,0.6-1.8,0.7c-1,0.1-1.9-0.2-2.6-0.8
	c-1.6-1.4-2.9-5.3-1.5-6.8c0.1-0.1,0.2-0.2,0.3-0.2c0.9-0.6,2-0.7,3.1-0.5c1.3,0.2,2.6,0.7,3.6,1.5l0,0
	C276.6,293.2,277,294.1,277,295.1L277,295.1z M261.6,286.2c1.1-0.1,2.2-0.5,3.1-1.2c1.3-1,2.1-2.6,2-4.2l0,0
	c-0.2-1.6-0.8-3.1-1.8-4.4c-1.2-1.6-2.7-2.5-4.1-2.4c-3.2,0.2-5.1,5-5,7.5C256,284.3,258.6,286.4,261.6,286.2z M257.2,281.5
	c0-2.1,0.9-4.1,2.4-5.5c0.4-0.3,0.8-0.5,1.3-0.5c0.9-0.1,2,0.6,2.9,1.8c0.8,1.1,1.4,2.3,1.5,3.6c0,1.9-1.4,3.5-3.3,3.8
	c-0.1,0-0.1,0-0.2-0.1c-0.2-0.3-0.7-1.5-0.8-3.5c-0.1-1.2,0-2.4,0.3-3.5c0.2-0.4,0-0.8-0.3-0.9c-0.3-0.1-0.8,0-0.9,0.3
	c0,0,0,0,0,0.1c-0.4,1.3-0.6,2.7-0.4,4.1c0.1,1.2,0.3,2.4,0.7,3.5C258.7,284.4,257.4,283.1,257.2,281.5z M284.9,280.9
	c-1.4,0.1-2.8,1.1-3.8,2.9c-0.8,1.4-1.2,3-1.2,4.6c0.2,2.8,2.8,4.8,5.8,4.6c1.1-0.1,2.2-0.5,3.1-1.2c1.3-1,2.1-2.6,2-4.2
	C290.7,285.1,288.1,280.7,284.9,280.9z M289.4,287.7c0,1.9-1.4,3.5-3.3,3.8c-0.1,0-0.1,0-0.2-0.1c-0.2-0.3-0.7-1.5-0.8-3.5
	c-0.1-1.2,0-2.4,0.3-3.5c0.1-0.4-0.1-0.8-0.5-0.9c-0.3-0.1-0.7,0-0.8,0.3c-0.4,1.3-0.6,2.7-0.4,4.1c0.1,1.1,0.2,2.1,0.6,3.1
	c0,0.1,0.1,0.2,0.1,0.4c-1.7-0.2-2.9-1.6-3.1-3.2c0-1.3,0.4-2.6,1-3.8c0.3-0.6,0.8-1.2,1.4-1.7c0.4-0.3,0.8-0.5,1.3-0.5
	C287.1,282.1,289.3,285.6,289.4,287.7z M279,268.9c-2.4-1.3-5.6-0.2-7,2.4c-1.5,2.7-0.6,5.9,1.8,7.2l0,0c1.9,1,5.8,1.3,7.9-0.3
	c0.4-0.3,0.7-0.7,1-1.1c0.7-1.3,0.5-2.9-0.4-4.7C281.4,270.9,280.3,269.7,279,268.9L279,268.9z M280.9,273c0.7,1.3,0.9,2.6,0.4,3.4
	c-1,1.8-5.1,1.9-7,0.9c-1.6-1-2.2-3-1.5-4.7c0.1,0,0.1-0.1,0.2-0.1c0.4,0,1.7,0.2,3.4,1.2c1.1,0.5,2,1.2,2.8,2.1
	c0.2,0.3,0.7,0.4,1,0.1l0,0c0.3-0.2,0.4-0.7,0.1-1c-0.9-1.1-2-1.9-3.3-2.5c-0.9-0.5-1.9-0.9-3-1.2c-0.1,0-0.2-0.1-0.3-0.1
	c1.1-1.3,2.9-1.6,4.4-0.9C279.4,270.8,280.3,271.8,280.9,273L280.9,273z M257.8,305.8c-0.2,2.5,1.6,7.3,4.8,7.6
	c1,0.1,2.1-0.3,2.9-0.9c1.7-1.4,2.9-3.4,3.3-5.6c0.3-2.8-2-5.2-5-5.5C260.7,301.1,258.1,303.1,257.8,305.8L257.8,305.8z
	 M267.3,306.7c-0.2,2.1-2.5,5.5-4.6,5.3s-3.7-3.9-3.5-6.1c0.1-0.9,0.6-1.8,1.4-2.4c0.7-0.5,1.6-0.8,2.5-0.8c0.1,0,0.1,0.1,0.2,0.1
	c0.2,0.3,0.4,1.6,0.3,3.6c-0.1,1.2-0.3,2.3-0.8,3.4c-0.2,0.3-0.1,0.8,0.2,1c0.2,0.2,0.6,0.1,0.8,0c0.1-0.1,0.1-0.1,0.2-0.2
	c0.6-1.2,1-2.6,1-4c0.1-1.2,0.1-2.4-0.1-3.5C266.3,303.6,267.4,305.1,267.3,306.7L267.3,306.7z M256.6,295.3c0.5-3-1.3-5.8-4-6.2
	c-1.6-0.2-3.2,0.1-4.7,0.7c-1.9,0.8-3,2-3.3,3.5c-0.2,1.4,0.5,2.9,1.9,4.4c1.2,1.1,2.6,1.9,4.2,2.2c1.3,0.2,2.7-0.1,3.7-1
	C255.6,298,256.3,296.7,256.6,295.3z M247.5,296.5c-1.1-1-1.7-2.2-1.5-3.1c0.2-0.7,0.6-1.3,1.2-1.7c0.4-0.3,0.8-0.5,1.3-0.7
	c1.2-0.5,2.6-0.8,3.9-0.6c1.8,0.4,3.1,2.2,2.9,4c0,0-0.1,0.1-0.1,0.2c-0.3,0.2-1.6,0.3-3.6,0c-1.2-0.1-2.3-0.5-3.3-1.1
	c-0.3-0.2-0.8-0.2-1,0.2l0,0c-0.2,0.3-0.2,0.8,0.2,1l0,0c1.2,0.7,2.5,1.2,3.9,1.3c1.2,0.2,2.4,0.3,3.6,0.2c-0.6,1.5-2.2,2.5-3.9,2.3
	C249.6,298.1,248.5,297.4,247.5,296.5z"/>
<rect x="735.6" y="581.2" class="st3" width="599" height="133"/>
<rect x="42.4" y="83.2" class="st4" width="589.9" height="66.2"/>
<text transform="matrix(1 0 0 1 42.4155 96.1197)"><tspan x="0" y="0" class="st5 st6 st7">Make your own rules:</tspan><tspan x="180.2" y="0" class="st5 st8 st7"> </tspan><tspan x="184.1" y="0" class="st5 st9 st7">e.g. a once a day/week rule, changing from </tspan><tspan x="0" y="20.4" class="st5 st9 st7">larger to smaller quantities. And take the pressure off: every reduction </tspan><tspan x="0" y="40.8" class="st5 st9 st7">is great!</tspan></text>
<rect x="749.9" y="599.7" class="st4" width="598.2" height="107.7"/>
<text transform="matrix(1 0 0 1 749.9488 612.6463)"><tspan x="0" y="0" class="st5 st6 st7">If you eat meat, </tspan><tspan x="132.1" y="0" class="st5 st9 st7">then it should be organic and from species-</tspan><tspan x="0" y="20.4" class="st5 st9 st7">appropriate, regional production, preferably from the direct marketer. </tspan><tspan x="0" y="40.8" class="st5 st9 st7">Find out whether there are suppliers of organic meat in your region. </tspan><tspan x="0" y="61.2" class="st5 st9 st7">Make sure the animal feed is not coming from overseas. And you just </tspan><tspan x="0" y="81.6" class="st5 st9 st7">learned which animals cause the least CO2 equivalents!</tspan></text>
<rect x="44.3" y="429.4" class="st4" width="580.4" height="95.9"/>
<text transform="matrix(1 0 0 1 44.2578 442.354)"><tspan x="0" y="0" class="st5 st6 st7">If you miss the taste of meat,</tspan><tspan x="237.9" y="0" class="st5 st9 st7"> you are well served with strongly spiced </tspan><tspan x="0" y="20.4" class="st5 st9 st7">dishes like curries. Also as if versions, for example noodles with soy </tspan><tspan x="0" y="40.8" class="st5 st9 st7">Bolognese sauce or sliced meat with seitan, are a good </tspan><tspan x="0" y="61.2" class="st5 st9 st7">alternative for some people.</tspan></text>
<rect x="749.9" y="235.9" class="st4" width="580.4" height="87.4"/>
<text transform="matrix(1 0 0 1 749.9484 266.2026)"><tspan x="0" y="0" class="st5 st6 st7">If you fear protein deficiency </tspan><tspan x="245.6" y="0" class="st5 st9 st7">by eating less meat, do not worry! </tspan><tspan x="0" y="20.4" class="st5 st9 st7">You can still follow a healthy, balanced diet: Legumes, cereals and dairy </tspan><tspan x="0" y="40.8" class="st5 st9 st7">products are high-quality sources of protein.</tspan></text>
</svg>
