<?xml version="1.0" encoding="utf-8"?>
<!-- Generator: Adobe Illustrator 23.1.1, SVG Export Plug-In . SVG Version: 6.00 Build 0)  -->
<svg version="1.1" id="Ebene_1" xmlns="http://www.w3.org/2000/svg" xmlns:xlink="http://www.w3.org/1999/xlink" x="0px" y="0px"
	 viewBox="0 0 1366 768" style="enable-background:new 0 0 1366 768;" xml:space="preserve">
<style type="text/css">
	.st0{fill:#5C6A7D;}
	.st1{fill:#36485E;}
	.st2{fill-rule:evenodd;clip-rule:evenodd;fill:#253854;}
	.st3{fill-rule:evenodd;clip-rule:evenodd;fill:#1C2A40;}
	.st4{opacity:0.1;fill:#5C6A7D;}
	.st5{stroke:#FFFFFF;stroke-width:1.1226;stroke-miterlimit:10;}
	.st6{stroke:#FFFFFF;stroke-width:2;}
	.st7{fill:none;stroke:#000000;stroke-width:2.2451;}
	.st8{stroke:#FFFFFF;stroke-width:2.2451;}
	.st9{stroke:#FFFFFF;stroke-width:0.3996;}
	.st10{stroke:#000000;stroke-width:2;stroke-miterlimit:10;}
	.st11{fill:none;stroke:#000000;stroke-width:1.5576;stroke-miterlimit:10;}
	.st12{fill:none;stroke:#000000;stroke-width:2.4921;stroke-miterlimit:10;}
	.st13{fill:#FFFFFF;}
	.st14{fill:none;stroke:#000000;stroke-width:2;stroke-miterlimit:10;}
	.st15{stroke:#FFFFFF;stroke-width:0.8419;stroke-miterlimit:10;}
	.st16{stroke:#FFFFFF;stroke-width:0.9022;stroke-miterlimit:10;}
	.st17{fill:#1C2A40;}
	.st18{fill:#1C2A40;stroke:#FFFFFF;stroke-width:0.75;stroke-miterlimit:10;}
	.st19{stroke:#FFFFFF;stroke-width:1.8698;}
	.st20{fill:none;stroke:#1C2A40;stroke-width:2.2451;stroke-miterlimit:10;}
</style>
<g>
	<path class="st5" d="M1060,501.4l-1.4-0.4c-2.7-0.7-5.5-1.2-8.5-1.4c-3-0.2-5.9-0.2-8.6,0.2l-1.5,0.2l-0.6-1.4
		c-1.9-4.5-2.6-10.2-2.2-16c1-13.1,7.5-23.1,15.2-23.1c0.2,0,0.4,0,0.6,0c7.9,0.6,13.3,11.6,12.3,25.1c-0.4,5.8-2,11.3-4.5,15.5
		L1060,501.4z M1046.5,495.6c1.3,0,2.6,0,3.9,0.1c2.7,0.2,5.3,0.6,7.7,1.1c1.8-3.5,2.9-7.9,3.3-12.5c0.8-10.9-3.2-20.4-8.6-20.8
		c-0.1,0-0.2,0-0.4,0c-4.7,0-10.4,7.8-11.2,19.4c-0.3,4.6,0.2,9.1,1.4,12.9C1043.8,495.6,1045.1,495.6,1046.5,495.6z"/>
</g>
<g>
	<path class="st5" d="M1050.9,527.6c-5.8,0-10.5-7.4-10.8-16.8c0-0.9,0-1.8,0-2.7l0.1-1.8l20.4-0.7l0.2,1.8c0.1,0.9,0.2,1.8,0.2,2.7
		c0.3,9.6-4,17.3-9.9,17.5L1050.9,527.6z M1044,510.2c0,0.2,0,0.3,0,0.5c0.3,7.7,3.8,13,6.9,13l0.1,0c3.1-0.1,6.3-5.6,6.1-13.4
		c0-0.2,0-0.3,0-0.5L1044,510.2z"/>
</g>
<g>
	<path class="st5" d="M1075.1,455.4l-0.8-1.3c-2.5-4.2-4.1-9.7-4.5-15.5c-1-13.5,4.4-24.5,12.3-25.1c0.2,0,0.4,0,0.6,0
		c7.7,0,14.2,9.9,15.2,23.1c0.4,5.8-0.4,11.5-2.2,16l-0.6,1.4l-1.5-0.2c-2.7-0.3-5.7-0.4-8.6-0.2c-3,0.2-5.8,0.7-8.5,1.4
		L1075.1,455.4z M1082.7,417.5c-0.1,0-0.2,0-0.3,0c-5.5,0.4-9.4,9.9-8.6,20.8c0.3,4.6,1.5,9,3.3,12.5c2.5-0.6,5-1,7.7-1.1
		c2.6-0.2,5.3-0.2,7.8,0c1.3-3.7,1.8-8.2,1.4-12.9C1093.1,425.2,1087.4,417.5,1082.7,417.5z"/>
</g>
<g>
	<path class="st5" d="M1084.2,481.6l-0.2,0c-5.9-0.2-10.2-7.9-9.9-17.5c0-0.9,0.1-1.8,0.2-2.7l0.2-1.8l20.4,0.7l0.1,1.8
		c0.1,0.9,0.1,1.8,0,2.7C1094.7,474.2,1089.9,481.6,1084.2,481.6z M1078,463.7c0,0.2,0,0.3,0,0.5c-0.3,7.8,3,13.3,6.1,13.4l0.1,0
		c3,0,6.6-5.3,6.9-13c0-0.2,0-0.3,0-0.5L1078,463.7z"/>
</g>
<g>
	<g>
		<path d="M274.6,415.6c0.8,0.8,1.2,1.9,1.2,3.1c0,2.4-2,4.4-4.4,4.4h-14.2v-1.9h14.2c1.3,0,2.5-1.1,2.5-2.5c0-0.7-0.3-1.2-0.8-1.7
			s-1.1-0.8-1.7-0.8H219c-1.3,0-2.5,1.1-2.5,2.5c0,0.7,0.3,1.1,0.8,1.6c0.5,0.5,1.1,0.8,1.7,0.8h31.3v1.9h-31.4
			c-1.1,0-2.3-0.5-3.1-1.2s-1.2-1.9-1.2-3.1c0-2.4,2-4.4,4.4-4.4h52.4C272.6,414.3,273.7,414.7,274.6,415.6z"/>
	</g>
	<g>
		<path d="M273.7,411.3v5h-56.9v-5c0-2.1,1.7-3.8,3.8-3.8h49.2C271.9,407.5,273.6,409.1,273.7,411.3z M271.8,414.3v-3.1
			c0-1.1-0.9-1.9-1.9-1.9h-49.3c-1.1,0-1.9,0.9-1.9,1.9v3.1H271.8z"/>
	</g>
	<g>
		<path d="M273.6,425.6c0,5.9-3.7,11.1-9.4,12.9c-10.8,3.4-27.2,3.4-38.1,0c-5.6-1.7-9.4-7-9.4-12.9v-4.5h33.7v1.9h-31.7v2.6
			c0,5.1,3.3,9.6,8,11.1c10.5,3.3,26.4,3.3,36.9,0c4.8-1.5,8-5.9,8-11.1v-2.6h-14.5v-1.9h16.4V425.6z"/>
	</g>
	<g>
		<path d="M254.5,418l3.4,3.4c0.4,0.4,0.4,1,0,1.3c-0.4,0.4-1,0.4-1.3,0l-2.8-2.8l-2.8,2.8c-0.4,0.4-1,0.4-1.3,0
			c-0.4-0.4-0.4-1,0-1.3l3.4-3.4c0.2-0.2,0.4-0.3,0.7-0.3S254.3,417.8,254.5,418z"/>
	</g>
	<g>
		<g>
			<path d="M253.9,433.4c0.1,0.1,0.2,0.2,0.2,0.3c0.1,0.1,0.1,0.3,0.1,0.4c0,0.3-0.1,0.5-0.3,0.7c-0.2,0.3-0.6,0.4-0.9,0.3
				c-0.1,0-0.1-0.1-0.2-0.1c-0.1,0-0.1-0.1-0.2-0.1c-0.1,0-0.2-0.1-0.2-0.1c-0.2-0.2-0.3-0.4-0.3-0.7c0-0.1,0.1-0.3,0.1-0.4
				c0-0.1,0.1-0.2,0.2-0.3c0.2-0.2,0.4-0.3,0.7-0.3S253.6,433.2,253.9,433.4z"/>
		</g>
		<g>
			<g>
				<path d="M230.6,431.3c0.1,0,0.2,0.1,0.3,0.2c0,0.1,0,0.2,0.1,0.3c0.1,0.1,0.1,0.3,0.1,0.4c0,0.1,0,0.1,0,0.2c0,0.1,0,0.1,0,0.2
					s-0.1,0.2-0.1,0.2c0,0.1-0.1,0.2-0.1,0.2c-0.4,0.4-1,0.4-1.3,0c0-0.1-0.1-0.1-0.1-0.2c0-0.1-0.1-0.1-0.1-0.2
					c-0.1-0.1-0.1-0.1-0.1-0.2c0-0.1,0-0.1,0-0.2c0-0.1,0.1-0.3,0.1-0.4c0-0.1,0.1-0.2,0.2-0.3s0.2-0.1,0.3-0.2
					c0.1-0.1,0.3-0.1,0.4-0.1S230.5,431.3,230.6,431.3z"/>
			</g>
			<g>
				<path d="M223.7,428.6c0.1,0.1,0.2,0.2,0.2,0.3c0.1,0.1,0.1,0.3,0.1,0.4c0,0.1-0.1,0.3-0.1,0.4s-0.1,0.2-0.2,0.3
					c-0.4,0.4-1,0.4-1.3,0c-0.1-0.1-0.2-0.2-0.2-0.3c-0.1-0.1-0.1-0.3-0.1-0.4c0-0.1,0.1-0.3,0.1-0.4s0.1-0.2,0.2-0.3
					c0.2-0.2,0.4-0.3,0.7-0.3C223.2,428.3,223.5,428.4,223.7,428.6z"/>
			</g>
			<g>
				<path d="M268.2,428.6c0,0.1,0.2,0.2,0.3,0.3s0.1,0.3,0.1,0.4c0,0.1-0.1,0.3-0.1,0.4s-0.1,0.2-0.2,0.3c-0.1,0-0.2,0.1-0.2,0.1
					c-0.1,0.1-0.1,0.1-0.2,0.1c-0.1,0.1-0.1,0.1-0.2,0.1c-0.2,0-0.4,0-0.6-0.1c-0.1,0-0.2-0.1-0.3-0.2c-0.1-0.1-0.2-0.2-0.2-0.3
					c-0.1-0.1-0.1-0.3-0.1-0.4c0-0.1,0.1-0.3,0.1-0.4c0-0.1,0.1-0.2,0.2-0.3c0.1-0.1,0.2-0.1,0.3-0.2c0.1-0.1,0.3-0.1,0.4-0.1
					C267.7,428.3,268,428.4,268.2,428.6z"/>
			</g>
			<g>
				<path d="M234.7,428.6c0,0.1,0.2,0.2,0.3,0.3c0.1,0.1,0.1,0.3,0.1,0.4c0,0.3-0.1,0.5-0.3,0.7c-0.1,0-0.2,0.1-0.2,0.1
					c-0.1,0.1-0.1,0.1-0.2,0.1c-0.1,0.1-0.1,0.1-0.2,0.1c-0.3,0-0.7-0.1-0.9-0.3c-0.1-0.1-0.2-0.2-0.2-0.3c-0.1-0.1-0.1-0.3-0.1-0.4
					c0-0.3,0.1-0.5,0.3-0.7c0.1-0.1,0.2-0.1,0.3-0.2s0.3-0.1,0.4-0.1C234.2,428.3,234.5,428.4,234.7,428.6z"/>
			</g>
			<g>
				<path d="M239,431.8c0.1,0.1,0.1,0.2,0.2,0.3c0.1,0.1,0.1,0.3,0.1,0.4c0,0.2-0.1,0.5-0.3,0.7c-0.4,0.4-1,0.4-1.3,0
					c-0.1-0.1-0.2-0.2-0.2-0.3c-0.1-0.1-0.1-0.3-0.1-0.4c0-0.1,0.1-0.3,0.1-0.4c0-0.1,0.1-0.2,0.2-0.3c0.1-0.1,0.2-0.1,0.3-0.2
					c0.1-0.1,0.3-0.1,0.4-0.1C238.5,431.5,238.8,431.6,239,431.8z"/>
			</g>
			<g>
				<path d="M256.2,429.6c0.2,0.2,0.3,0.4,0.3,0.7c0,0.1-0.1,0.3-0.1,0.4c0,0.1-0.1,0.2-0.2,0.3c-0.4,0.4-1,0.4-1.3,0
					c-0.1-0.1-0.2-0.2-0.2-0.3c-0.1-0.1-0.1-0.3-0.1-0.4c0-0.3,0.1-0.5,0.3-0.7c0.1-0.1,0.2-0.1,0.3-0.2c0.1-0.1,0.3-0.1,0.4-0.1
					C255.7,429.3,256,429.4,256.2,429.6z"/>
			</g>
			<g>
				<path d="M262.4,430.5c0,0.1,0.2,0.2,0.3,0.3c0.1,0.1,0.1,0.3,0.1,0.4c0,0.3-0.1,0.5-0.3,0.7c-0.1,0-0.2,0.1-0.2,0.1
					c-0.1,0.1-0.1,0.1-0.2,0.1c-0.1,0.1-0.1,0.1-0.2,0.1c-0.3,0-0.7-0.1-0.9-0.3c-0.2-0.2-0.3-0.4-0.3-0.7c0-0.1,0.1-0.3,0.1-0.4
					c0-0.1,0.1-0.2,0.2-0.3c0.1-0.1,0.2-0.1,0.3-0.2c0.1-0.1,0.3-0.1,0.4-0.1C262,430.2,262.2,430.3,262.4,430.5z"/>
			</g>
			<g>
				<path d="M250,427.5c0.1,0,0.2,0.1,0.3,0.2c0.1,0.1,0.1,0.2,0.2,0.3c0.1,0.1,0.1,0.3,0.1,0.4c0,0.3-0.1,0.5-0.3,0.7
					c-0.1,0.1-0.2,0.2-0.3,0.2c-0.4,0.2-0.8,0.1-1.1-0.2c-0.2-0.2-0.3-0.4-0.3-0.7c0-0.1,0.1-0.3,0.1-0.4c0-0.1,0.1-0.2,0.2-0.3
					s0.2-0.2,0.3-0.2c0.1-0.1,0.3-0.1,0.4-0.1S249.8,427.4,250,427.5z"/>
			</g>
			<g>
				<path d="M246,430.4c0.1,0,0.2,0.1,0.3,0.2c0.2,0.2,0.3,0.4,0.3,0.7s-0.1,0.5-0.3,0.7c-0.1,0-0.2,0.1-0.2,0.1
					c-0.1,0-0.1,0.1-0.2,0.1s-0.1,0-0.2,0c-0.2,0.1-0.4,0.1-0.6,0c-0.1,0-0.2-0.1-0.3-0.2c-0.2-0.2-0.3-0.4-0.3-0.7s0.1-0.5,0.3-0.7
					c0.1-0.1,0.2-0.1,0.3-0.2s0.3-0.1,0.4-0.1S245.9,430.4,246,430.4z"/>
			</g>
		</g>
	</g>
</g>
<g>
	<g>
		<g transform="translate(-1719.000000, -1852.000000)">
			<g transform="translate(1710.002768, 1855.000000)">
				<g>
					<path class="st7" d="M75.6,412c0,0-16.7,36.2,0,36.2S75.6,412,75.6,412z"/>
				</g>
				<g>
					<path class="st7" d="M105.3,430c0,0-16.7,36.2,0,36.2S105.3,430,105.3,430z"/>
				</g>
				<g>
					<path class="st7" d="M81.9,457.8c0,0-16.7,36.2,0,36.2S81.9,457.8,81.9,457.8z"/>
				</g>
			</g>
		</g>
	</g>
</g>
<path class="st8" d="M164.1,305.8c-3.3,0-6.6,1.4-9,3.7l-0.7,0.7l-0.8-0.8c-0.8-0.8-1.9-1-2.9-0.7l-8.4,2.8c-0.9,0.3-1.6,1.1-1.8,2
	c-0.2,0.9,0.1,1.9,0.7,2.6l11.2,11.2c0.5,0.5,1.2,0.8,2,0.8c0.2,0,0.4,0,0.6-0.1c0.9-0.2,1.7-0.9,2-1.8l2.8-8.4
	c0.3-1,0.1-2.1-0.7-2.9l-0.8-0.8l0.7-0.7c1.3-1.3,3.2-2.1,5-2.1c3.9,0,7.1,3.2,7.1,7.1v35H78.6c-1.6,0-2.8,1.3-2.8,2.8v7.3
	c0,7.3,1,14.6,2.9,21.7c1.4,5,5.5,8.8,10.4,9.9l-2,8.1c-0.4,1.5,0.5,3,2,3.4c0.2,0.1,0.5,0.1,0.7,0.1c1.3,0,2.4-0.9,2.7-2.1l2.3-9.1
	h63l2.3,9.1c0.3,1.3,1.5,2.1,2.7,2.1c0.2,0,0.5,0,0.7-0.1c1.5-0.4,2.4-1.9,2-3.4l-2-8.1c4.9-1.1,9-4.9,10.4-9.9
	c2-7.1,2.9-14.3,2.9-21.7v-45.1C176.9,311.5,171.2,305.8,164.1,305.8z M153.2,320.2l-4.8-4.8l2.5-0.8l3.2,3.2L153.2,320.2z
	 M171.3,363.6c0,6.8-0.9,13.6-2.7,20.2c-1,3.6-4.3,6.2-8.1,6.2H92.3c-3.8,0-7.1-2.5-8.1-6.2c-1.8-6.6-2.7-13.4-2.7-20.2v-4.5h89.8
	V363.6z"/>
<path class="st8" d="M1283,269.5c-1.5-1.7-3.9-2.1-5.8-0.9c-0.3,0.2-0.8,0.6-1.5,1c-2.3,1.7-7.2,5.2-10.2,5c-0.1,0-0.1,0-0.2,0
	c1.3-1.7,2.5-3.3,2.2-5.4c-0.3-2-1.9-3.2-3-4c-3.6-2.5-6.9-4.2-10.7-4.8c-1.7-0.2-2-0.8-2.8-2.3c-0.7-1.3-1.7-2.9-3.7-4.2
	c-2.2-1.4-3.9-2-5.6-2c-1.3,0-2.3,0.3-3.3,0.7c-0.3,0.1-0.7,0.2-1,0.3c-1.7,0.5-3.3-0.4-4.7-1.3c-1-0.6-2-1.2-3.2-1.3
	c0,0-0.1,0-0.2,0c-4.3,0-6.1,5.3-6.5,8.1c-0.4,3-1.4,4.3-2.5,5.7c-1.3,1.6-2.8,3.5-2.6,7.2c0.3,5.7-0.9,7.9-2.1,10.2
	c-1.2,2.2-2.5,4.7-2.5,9.5c0,0.9-0.3,1.8-0.6,2.7c-0.4,1.4-0.9,2.9-0.8,4.9c0.2,2.8,1.3,5.1,2.2,7.1c0.7,1.4,1.3,2.7,1.4,3.7
	c0.3,2.9-0.4,5.5-1.1,8.2c-0.9,3.4-2,7.3-1.1,12.3c0.4,2.1,0.1,3.5-0.3,5.5c-0.4,1.9-0.9,4.4-0.8,8.1c0.1,6.9,1.5,10.3,2.6,12.9
	c0.5,1.1,0.8,1.9,1,2.8c1.4,8.7-0.1,15.4-1,19.4c-0.2,1.1-0.4,2-0.5,2.7c-0.5,4.1,0.6,7.9,3,10.7c1.9,2.2,4.5,3.4,7.1,3.5
	c1.5,0,2.8,0,3.9,0c0.4,0,0.8,0,1.1,0v10c0,1.4,1.1,2.5,2.5,2.5h12.9c0.7,0,1.4-0.3,1.9-0.8c0.5-0.5,0.7-1.2,0.7-1.9
	c0-0.4-0.4-3.8-5.1-5.7c-2.7-1.1-3.4-2-4.9-4.2c-1.5-2.3-3.1-3.7-3.7-4.3c-0.4-0.6-1.1-1.6-1.2-2.4c-0.1-0.8,0.4-1.4,2.2-3.2
	c2.3-2.2,5.5-5.3,6-11.2c0.3-3.5-1.3-6.3-4.7-8c-1.4-0.7-1.9-1.5-1.9-1.9c0-0.6,0.6-1.4,1.6-2.2l0.8-0.6c3.4-2.5,8.1-5.9,8.4-11
	c0.1-1.6-1-2.8-2.2-4c-0.6-0.6-2.1-2.1-2-2.7c0,0,0.1-0.2,0.4-0.4c0.3-0.2,1.3-0.2,2-0.3c2.2-0.1,5.4-0.3,7-3.4
	c1.2-2.4,1.2-4.5,0.9-6.2c0.1,0,0.1,0,0.2,0c3.7,0.2,8.8-1,11.9-2.3c3.5-1.4,6.4-4.6,7.2-7.9c0.6-2.3,0.1-4.5-1.3-6.2
	c-0.9-1.1-1.1-1.9-1.4-2.8c-0.4-1.4-1-3.2-3.5-4.8c-0.2-0.1-0.4-0.3-0.5-0.3c0.1-0.2,0.2-0.4,0.3-0.6c0.3-0.8,0.8-1.9,1.2-3.4
	c1.3-4.3,1.4-7.2,1.5-9.3c0-0.6,0.1-1.1,0.1-1.6c0.1-0.7,0.4-1.2,1.6-2.6c0.6-0.7,1.3-1.5,2.1-2.5c0.9-1.1,2.9-2.6,4.8-4
	c4.1-3,8.4-6.2,9-10.3C1284.7,272.9,1284.2,270.9,1283,269.5z M1234.4,399.9c0.9,1.2,1.9,2.2,3.4,3.1h-3.4V399.9z M1279.3,274.3
	c-0.3,2.1-4.2,5-7.1,7.1c-2.3,1.7-4.5,3.3-5.8,5c-0.7,0.9-1.3,1.6-1.9,2.2c-1.4,1.5-2.7,3-2.9,5.5c-0.1,0.6-0.1,1.1-0.1,1.8
	c-0.1,2.1-0.2,4.4-1.3,8.1c-0.4,1.3-0.8,2.2-1.1,3c-1.3,3.1-1.2,5,2.3,7.2c1,0.6,1,0.9,1.4,1.9c0.3,1.1,0.8,2.7,2.4,4.5
	c0.1,0.2,0.5,0.6,0.3,1.7c-0.4,1.8-2.2,3.7-4.3,4.5c-2.6,1-6.8,2.1-9.7,1.9c-0.2,0-0.6-0.1-0.9-0.2c-0.6-0.1-1.4-0.3-2.1-0.3
	c-1.6,0-2.4,0.8-2.7,1.3c-0.3,0.5-0.9,1.5-0.4,3l0.2,0.5c0.5,1.6,0.9,2.8,0,4.6c-0.2,0.5-1.3,0.6-2.8,0.6c-1.6,0.1-3.5,0.2-4.9,1.4
	c-1.7,1.5-2.2,3-2.2,4.1c-0.1,2.8,1.9,4.9,3.5,6.5c0.2,0.2,0.5,0.5,0.7,0.7c-0.6,2.5-3.8,4.8-6.3,6.7l-0.8,0.6
	c-3.3,2.4-3.8,4.9-3.6,6.6c0.2,2.4,1.8,4.5,4.6,6c1.8,1,2.1,1.9,2,3.1c-0.3,3.9-2.5,6-4.5,7.9c-2,1.9-4.3,4.1-3.7,7.7
	c0,0.3,0.1,0.5,0.2,0.8c-1,0-2.1,0-3.3,0c-1.2,0-2.4-0.7-3.4-1.7c-1.4-1.7-2.1-4.1-1.8-6.7c0.1-0.5,0.2-1.3,0.4-2.2
	c0.9-4.1,2.5-11.6,1-21.2c-0.2-1.5-0.8-2.7-1.3-4c-1-2.3-2.2-5.1-2.2-10.9c0-3.2,0.4-5.3,0.7-7.1c0.4-2.2,0.8-4.3,0.3-7.3
	c-0.7-3.9,0.1-6.9,1-10.1c0.8-3,1.6-6.1,1.3-9.9c-0.2-1.9-1-3.7-1.8-5.4c-0.8-1.8-1.6-3.5-1.8-5.3c-0.1-1.1,0.2-2,0.6-3.1
	c0.4-1.2,0.8-2.5,0.8-4.2c0-3.5,0.8-5.1,1.9-7.1c1.4-2.7,3.1-5.8,2.7-12.8c-0.1-1.8,0.4-2.5,1.5-3.8c1.3-1.6,3-3.8,3.5-8.2
	c0.2-1.7,1-3.3,1.4-3.6c0.2,0.1,0.5,0.3,0.7,0.5c1.4,0.9,3.5,2.2,6.3,2.2c0.8,0,1.6-0.1,2.5-0.4c0.5-0.1,0.9-0.3,1.3-0.4
	c0.8-0.3,1.3-0.4,1.7-0.4c0.7,0,1.6,0.4,2.9,1.2c1,0.6,1.4,1.4,2,2.5c1,1.8,2.4,4.2,6.5,4.8c2.9,0.4,5.4,1.8,8.6,4
	c0.4,0.3,0.7,0.5,0.8,0.6c-0.2,0.4-0.8,1.2-1.2,1.7l-0.4,0.5c-1.3,1.7-1.7,3.4-1.1,4.8c1,2.3,3.9,2.6,5.3,2.7
	c4.8,0.4,10.5-3.7,13.5-5.9c0.2-0.2,0.4-0.3,0.6-0.5C1279.4,273.5,1279.4,273.9,1279.3,274.3z"/>
<g>
	<g>
		<path d="M337.7,416.1c0.8,0.8,1.2,1.9,1.2,3.1c0,2.4-2,4.4-4.4,4.4h-14.2v-1.9h14.2c1.3,0,2.5-1.1,2.5-2.5c0-0.7-0.3-1.2-0.8-1.7
			c-0.5-0.5-1.1-0.8-1.7-0.8h-52.4c-1.3,0-2.5,1.1-2.5,2.5c0,0.7,0.3,1.1,0.8,1.6c0.5,0.5,1.1,0.8,1.7,0.8h31.3v1.9H282
			c-1.1,0-2.3-0.5-3.1-1.2s-1.2-1.9-1.2-3.1c0-2.4,2-4.4,4.4-4.4h52.4C335.7,414.7,336.8,415.2,337.7,416.1z"/>
	</g>
	<g>
		<path d="M336.8,411.8v5h-56.9v-5c0-2.1,1.7-3.8,3.8-3.8h49.2C335,407.9,336.8,409.6,336.8,411.8z M334.9,414.7v-3.1
			c0-1.1-0.9-1.9-1.9-1.9h-49.3c-1.1,0-1.9,0.9-1.9,1.9v3.1H334.9z"/>
	</g>
	<g>
		<path d="M336.8,426.1c0,5.9-3.7,11.1-9.4,12.9c-10.8,3.4-27.2,3.4-38.1,0c-5.6-1.7-9.4-7-9.4-12.9v-4.5h33.7v1.9h-31.7v2.6
			c0,5.1,3.3,9.6,8,11.1c10.5,3.3,26.4,3.3,36.9,0c4.8-1.5,8-5.9,8-11.1v-2.6h-14.5v-1.9h16.4V426.1z"/>
	</g>
	<g>
		<path d="M317.6,418.5l3.4,3.4c0.4,0.4,0.4,1,0,1.3c-0.4,0.4-1,0.4-1.3,0l-2.8-2.8l-2.8,2.8c-0.4,0.4-1,0.4-1.3,0
			c-0.4-0.4-0.4-1,0-1.3l3.4-3.4c0.2-0.2,0.4-0.3,0.7-0.3C317.2,418.2,317.4,418.3,317.6,418.5z"/>
	</g>
	<g>
		<g>
			<path d="M317,433.9c0.1,0.1,0.2,0.2,0.2,0.3c0.1,0.1,0.1,0.3,0.1,0.4c0,0.3-0.1,0.5-0.3,0.7c-0.2,0.3-0.6,0.4-0.9,0.3
				c-0.1,0-0.1-0.1-0.2-0.1c-0.1,0-0.1-0.1-0.2-0.1s-0.2-0.1-0.2-0.1c-0.2-0.2-0.3-0.4-0.3-0.7c0-0.1,0.1-0.3,0.1-0.4
				s0.1-0.2,0.2-0.3c0.2-0.2,0.4-0.3,0.7-0.3S316.8,433.7,317,433.9z"/>
		</g>
		<g>
			<g>
				<path d="M293.7,431.8c0.1,0,0.2,0.1,0.3,0.2c0,0.1,0,0.2,0.1,0.3c0.1,0.1,0.1,0.3,0.1,0.4s0,0.1,0,0.2c0,0.1,0,0.1,0,0.2
					c0,0.1-0.1,0.2-0.1,0.2c0,0.1-0.1,0.2-0.1,0.2c-0.4,0.4-1,0.4-1.3,0c0-0.1-0.1-0.1-0.1-0.2c0-0.1-0.1-0.1-0.1-0.2
					c-0.1-0.1-0.1-0.1-0.1-0.2c0-0.1,0-0.1,0-0.2s0.1-0.3,0.1-0.4c0-0.1,0.1-0.2,0.2-0.3c0.1-0.1,0.2-0.1,0.3-0.2
					c0.1-0.1,0.3-0.1,0.4-0.1S293.6,431.8,293.7,431.8z"/>
			</g>
			<g>
				<path d="M286.8,429.1c0.1,0.1,0.2,0.2,0.2,0.3c0.1,0.1,0.1,0.3,0.1,0.4c0,0.1-0.1,0.3-0.1,0.4c0,0.1-0.1,0.2-0.2,0.3
					c-0.4,0.4-1,0.4-1.3,0c-0.1-0.1-0.2-0.2-0.2-0.3c-0.1-0.1-0.1-0.3-0.1-0.4c0-0.1,0.1-0.3,0.1-0.4c0-0.1,0.1-0.2,0.2-0.3
					c0.2-0.2,0.4-0.3,0.7-0.3C286.3,428.8,286.6,428.9,286.8,429.1z"/>
			</g>
			<g>
				<path d="M331.3,429.1c0,0.1,0.2,0.2,0.3,0.3c0.1,0.1,0.1,0.3,0.1,0.4c0,0.1-0.1,0.3-0.1,0.4c0,0.1-0.1,0.2-0.2,0.3
					c-0.1,0-0.2,0.1-0.2,0.1c-0.1,0.1-0.1,0.1-0.2,0.1c-0.1,0.1-0.1,0.1-0.2,0.1c-0.2,0-0.4,0-0.6-0.1c-0.1,0-0.2-0.1-0.3-0.2
					c-0.1-0.1-0.2-0.2-0.2-0.3c-0.1-0.1-0.1-0.3-0.1-0.4c0-0.1,0.1-0.3,0.1-0.4c0-0.1,0.1-0.2,0.2-0.3c0.1-0.1,0.2-0.1,0.3-0.2
					c0.1-0.1,0.3-0.1,0.4-0.1C330.8,428.8,331.1,428.9,331.3,429.1z"/>
			</g>
			<g>
				<path d="M297.8,429.1c0,0.1,0.2,0.2,0.3,0.3c0.1,0.1,0.1,0.3,0.1,0.4c0,0.3-0.1,0.5-0.3,0.7c-0.1,0-0.2,0.1-0.2,0.1
					c-0.1,0.1-0.1,0.1-0.2,0.1c-0.1,0.1-0.1,0.1-0.2,0.1c-0.3,0-0.7-0.1-0.9-0.3c-0.1-0.1-0.2-0.2-0.2-0.3c-0.1-0.1-0.1-0.3-0.1-0.4
					c0-0.3,0.1-0.5,0.3-0.7c0.1-0.1,0.2-0.1,0.3-0.2c0.1-0.1,0.3-0.1,0.4-0.1C297.3,428.8,297.6,428.9,297.8,429.1z"/>
			</g>
			<g>
				<path d="M302.1,432.2c0.1,0.1,0.1,0.2,0.2,0.3c0.1,0.1,0.1,0.3,0.1,0.4c0,0.2-0.1,0.5-0.3,0.7c-0.4,0.4-1,0.4-1.3,0
					c-0.1-0.1-0.2-0.2-0.2-0.3c-0.1-0.1-0.1-0.3-0.1-0.4s0.1-0.3,0.1-0.4c0-0.1,0.1-0.2,0.2-0.3c0.1-0.1,0.2-0.1,0.3-0.2
					c0.1-0.1,0.3-0.1,0.4-0.1C301.6,432,301.9,432,302.1,432.2z"/>
			</g>
			<g>
				<path d="M319.3,430c0.2,0.2,0.3,0.4,0.3,0.7c0,0.1-0.1,0.3-0.1,0.4s-0.1,0.2-0.2,0.3c-0.4,0.4-1,0.4-1.3,0
					c-0.1-0.1-0.2-0.2-0.2-0.3c-0.1-0.1-0.1-0.3-0.1-0.4c0-0.3,0.1-0.5,0.3-0.7c0.1-0.1,0.2-0.1,0.3-0.2c0.1-0.1,0.3-0.1,0.4-0.1
					C318.9,429.8,319.1,429.8,319.3,430z"/>
			</g>
			<g>
				<path d="M325.6,431c0,0.1,0.2,0.2,0.3,0.3c0.1,0.1,0.1,0.3,0.1,0.4c0,0.3-0.1,0.5-0.3,0.7c-0.1,0-0.2,0.1-0.2,0.1
					c-0.1,0.1-0.1,0.1-0.2,0.1c-0.1,0.1-0.1,0.1-0.2,0.1c-0.3,0-0.7-0.1-0.9-0.3s-0.3-0.4-0.3-0.7c0-0.1,0.1-0.3,0.1-0.4
					c0-0.1,0.1-0.2,0.2-0.3c0.1-0.1,0.2-0.1,0.3-0.2c0.1-0.1,0.3-0.1,0.4-0.1C325.1,430.7,325.4,430.8,325.6,431z"/>
			</g>
			<g>
				<path d="M313.1,427.9c0.1,0,0.2,0.1,0.3,0.2c0.1,0.1,0.1,0.2,0.2,0.3c0.1,0.1,0.1,0.3,0.1,0.4c0,0.3-0.1,0.5-0.3,0.7
					c-0.1,0.1-0.2,0.2-0.3,0.2c-0.4,0.2-0.8,0.1-1.1-0.2c-0.2-0.2-0.3-0.4-0.3-0.7c0-0.1,0.1-0.3,0.1-0.4c0-0.1,0.1-0.2,0.2-0.3
					c0.1-0.1,0.2-0.2,0.3-0.2c0.1-0.1,0.3-0.1,0.4-0.1S312.9,427.8,313.1,427.9z"/>
			</g>
			<g>
				<path d="M309.1,430.9c0.1,0,0.2,0.1,0.3,0.2c0.2,0.2,0.3,0.4,0.3,0.7c0,0.3-0.1,0.5-0.3,0.7c-0.1,0-0.2,0.1-0.2,0.1
					c-0.1,0-0.1,0.1-0.2,0.1c-0.1,0-0.1,0-0.2,0c-0.2,0.1-0.4,0.1-0.6,0c-0.1,0-0.2-0.1-0.3-0.2c-0.2-0.2-0.3-0.4-0.3-0.7
					c0-0.3,0.1-0.5,0.3-0.7c0.1-0.1,0.2-0.1,0.3-0.2c0.1-0.1,0.3-0.1,0.4-0.1C308.7,430.8,309,430.9,309.1,430.9z"/>
			</g>
		</g>
	</g>
</g>
<g>
	<g>
		<path d="M399.8,416c0.8,0.8,1.2,1.9,1.2,3.1c0,2.4-2,4.4-4.4,4.4h-14.2v-1.9h14.2c1.3,0,2.5-1.1,2.5-2.5c0-0.7-0.3-1.2-0.8-1.7
			c-0.5-0.5-1.1-0.8-1.7-0.8h-52.4c-1.3,0-2.5,1.1-2.5,2.5c0,0.7,0.3,1.1,0.8,1.6c0.5,0.5,1.1,0.8,1.7,0.8h31.3v1.9h-31.4
			c-1.1,0-2.3-0.5-3.1-1.2s-1.2-1.9-1.2-3.1c0-2.4,2-4.4,4.4-4.4h52.4C397.7,414.7,398.9,415.2,399.8,416z"/>
	</g>
	<g>
		<path d="M398.9,411.7v5H342v-5c0-2.1,1.7-3.8,3.8-3.8H395C397.1,407.9,398.8,409.5,398.9,411.7z M397,414.7v-3.1
			c0-1.1-0.9-1.9-1.9-1.9h-49.3c-1.1,0-1.9,0.9-1.9,1.9v3.1H397z"/>
	</g>
	<g>
		<path d="M398.8,426.1c0,5.9-3.7,11.1-9.4,12.9c-10.8,3.4-27.2,3.4-38.1,0c-5.6-1.7-9.4-7-9.4-12.9v-4.5h33.7v1.9H344v2.6
			c0,5.1,3.3,9.6,8,11.1c10.5,3.3,26.4,3.3,36.9,0c4.8-1.5,8-5.9,8-11.1v-2.6h-14.5v-1.9h16.4V426.1z"/>
	</g>
	<g>
		<path d="M379.7,418.4l3.4,3.4c0.4,0.4,0.4,1,0,1.3c-0.4,0.4-1,0.4-1.3,0l-2.8-2.8l-2.8,2.8c-0.4,0.4-1,0.4-1.3,0
			c-0.4-0.4-0.4-1,0-1.3l3.4-3.4c0.2-0.2,0.4-0.3,0.7-0.3S379.5,418.2,379.7,418.4z"/>
	</g>
	<g>
		<g>
			<path d="M379.1,433.8c0.1,0.1,0.2,0.2,0.2,0.3c0.1,0.1,0.1,0.3,0.1,0.4c0,0.3-0.1,0.5-0.3,0.7c-0.2,0.3-0.6,0.4-0.9,0.3
				c-0.1,0-0.1-0.1-0.2-0.1s-0.1-0.1-0.2-0.1c-0.1,0-0.2-0.1-0.2-0.1c-0.2-0.2-0.3-0.4-0.3-0.7c0-0.1,0.1-0.3,0.1-0.4
				c0-0.1,0.1-0.2,0.2-0.3c0.2-0.2,0.4-0.3,0.7-0.3S378.8,433.6,379.1,433.8z"/>
		</g>
		<g>
			<g>
				<path d="M355.7,431.7c0.1,0,0.2,0.1,0.3,0.2c0,0.1,0,0.2,0.1,0.3c0.1,0.1,0.1,0.3,0.1,0.4c0,0.1,0,0.1,0,0.2c0,0.1,0,0.1,0,0.2
					s-0.1,0.2-0.1,0.2c0,0.1-0.1,0.2-0.1,0.2c-0.4,0.4-1,0.4-1.3,0c0-0.1-0.1-0.1-0.1-0.2c0-0.1-0.1-0.1-0.1-0.2
					c-0.1-0.1-0.1-0.1-0.1-0.2c0-0.1,0-0.1,0-0.2c0-0.1,0.1-0.3,0.1-0.4c0-0.1,0.1-0.2,0.2-0.3c0.1-0.1,0.2-0.1,0.3-0.2
					c0.1-0.1,0.3-0.1,0.4-0.1C355.5,431.6,355.6,431.7,355.7,431.7z"/>
			</g>
			<g>
				<path d="M348.8,429c0.1,0.1,0.2,0.2,0.2,0.3c0.1,0.1,0.1,0.3,0.1,0.4c0,0.1-0.1,0.3-0.1,0.4c0,0.1-0.1,0.2-0.2,0.3
					c-0.4,0.4-1,0.4-1.3,0c-0.1-0.1-0.2-0.2-0.2-0.3c-0.1-0.1-0.1-0.3-0.1-0.4c0-0.1,0.1-0.3,0.1-0.4c0-0.1,0.1-0.2,0.2-0.3
					c0.2-0.2,0.4-0.3,0.7-0.3C348.4,428.7,348.7,428.8,348.8,429z"/>
			</g>
			<g>
				<path d="M393.3,429c0,0.1,0.2,0.2,0.3,0.3c0.1,0.1,0.1,0.3,0.1,0.4c0,0.1-0.1,0.3-0.1,0.4c0,0.1-0.1,0.2-0.2,0.3
					c-0.1,0-0.2,0.1-0.2,0.1c-0.1,0.1-0.1,0.1-0.2,0.1c-0.1,0.1-0.1,0.1-0.2,0.1c-0.2,0-0.4,0-0.6-0.1c-0.1,0-0.2-0.1-0.3-0.2
					c-0.1-0.1-0.2-0.2-0.2-0.3c-0.1-0.1-0.1-0.3-0.1-0.4c0-0.1,0.1-0.3,0.1-0.4c0-0.1,0.1-0.2,0.2-0.3c0.1-0.1,0.2-0.1,0.3-0.2
					c0.1-0.1,0.3-0.1,0.4-0.1C392.9,428.7,393.2,428.8,393.3,429z"/>
			</g>
			<g>
				<path d="M359.9,429c0,0.1,0.2,0.2,0.3,0.3c0.1,0.1,0.1,0.3,0.1,0.4c0,0.3-0.1,0.5-0.3,0.7c-0.1,0-0.2,0.1-0.2,0.1
					c-0.1,0.1-0.1,0.1-0.2,0.1c-0.1,0.1-0.1,0.1-0.2,0.1c-0.3,0-0.7-0.1-0.9-0.3c-0.1-0.1-0.2-0.2-0.2-0.3c-0.1-0.1-0.1-0.3-0.1-0.4
					c0-0.3,0.1-0.5,0.3-0.7c0.1-0.1,0.2-0.1,0.3-0.2c0.1-0.1,0.3-0.1,0.4-0.1C359.4,428.7,359.7,428.8,359.9,429z"/>
			</g>
			<g>
				<path d="M364.2,432.2c0.1,0.1,0.1,0.2,0.2,0.3c0.1,0.1,0.1,0.3,0.1,0.4c0,0.2-0.1,0.5-0.3,0.7c-0.4,0.4-1,0.4-1.3,0
					c-0.1-0.1-0.2-0.2-0.2-0.3c-0.1-0.1-0.1-0.3-0.1-0.4c0-0.1,0.1-0.3,0.1-0.4s0.1-0.2,0.2-0.3c0.1-0.1,0.2-0.1,0.3-0.2
					c0.1-0.1,0.3-0.1,0.4-0.1C363.7,431.9,364,432,364.2,432.2z"/>
			</g>
			<g>
				<path d="M381.4,430c0.2,0.2,0.3,0.4,0.3,0.7c0,0.1-0.1,0.3-0.1,0.4c0,0.1-0.1,0.2-0.2,0.3c-0.4,0.4-1,0.4-1.3,0
					c-0.1-0.1-0.2-0.2-0.2-0.3c-0.1-0.1-0.1-0.3-0.1-0.4c0-0.3,0.1-0.5,0.3-0.7c0.1-0.1,0.2-0.1,0.3-0.2c0.1-0.1,0.3-0.1,0.4-0.1
					C380.9,429.7,381.2,429.8,381.4,430z"/>
			</g>
			<g>
				<path d="M387.6,430.9c0,0.1,0.2,0.2,0.3,0.3c0.1,0.1,0.1,0.3,0.1,0.4c0,0.3-0.1,0.5-0.3,0.7c-0.1,0-0.2,0.1-0.2,0.1
					c-0.1,0.1-0.1,0.1-0.2,0.1c-0.1,0.1-0.1,0.1-0.2,0.1c-0.3,0-0.7-0.1-0.9-0.3c-0.2-0.2-0.3-0.4-0.3-0.7c0-0.1,0.1-0.3,0.1-0.4
					c0-0.1,0.1-0.2,0.2-0.3c0.1-0.1,0.2-0.1,0.3-0.2c0.1-0.1,0.3-0.1,0.4-0.1C387.1,430.7,387.4,430.8,387.6,430.9z"/>
			</g>
			<g>
				<path d="M375.2,427.9c0.1,0,0.2,0.1,0.3,0.2c0.1,0.1,0.1,0.2,0.2,0.3c0.1,0.1,0.1,0.3,0.1,0.4c0,0.3-0.1,0.5-0.3,0.7
					c-0.1,0.1-0.2,0.2-0.3,0.2c-0.4,0.2-0.8,0.1-1.1-0.2c-0.2-0.2-0.3-0.4-0.3-0.7c0-0.1,0.1-0.3,0.1-0.4c0-0.1,0.1-0.2,0.2-0.3
					c0.1-0.1,0.2-0.2,0.3-0.2c0.1-0.1,0.3-0.1,0.4-0.1C374.9,427.8,375,427.8,375.2,427.9z"/>
			</g>
			<g>
				<path d="M371.1,430.9c0.1,0,0.2,0.1,0.3,0.2c0.2,0.2,0.3,0.4,0.3,0.7s-0.1,0.5-0.3,0.7c-0.1,0-0.2,0.1-0.2,0.1
					c-0.1,0-0.1,0.1-0.2,0.1c-0.1,0-0.1,0-0.2,0c-0.2,0.1-0.4,0.1-0.6,0c-0.1,0-0.2-0.1-0.3-0.2c-0.2-0.2-0.3-0.4-0.3-0.7
					s0.1-0.5,0.3-0.7c0.1-0.1,0.2-0.1,0.3-0.2c0.1-0.1,0.3-0.1,0.4-0.1C370.8,430.8,371,430.9,371.1,430.9z"/>
			</g>
		</g>
	</g>
</g>
<g>
	<g>
		<path d="M307,448.4c0.8,0.8,1.2,1.9,1.2,3.1c0,2.4-2,4.4-4.4,4.4h-14.2v-1.9h14.2c1.3,0,2.5-1.1,2.5-2.5c0-0.7-0.3-1.2-0.8-1.7
			c-0.5-0.5-1.1-0.8-1.7-0.8h-52.4c-1.3,0-2.5,1.1-2.5,2.5c0,0.7,0.3,1.1,0.8,1.6c0.5,0.5,1.1,0.8,1.7,0.8h31.3v1.9h-31.4
			c-1.1,0-2.3-0.5-3.1-1.2s-1.2-1.9-1.2-3.1c0-2.4,2-4.4,4.4-4.4h52.4C305,447,306.2,447.5,307,448.4z"/>
	</g>
	<g>
		<path d="M306.2,444.1v5h-56.9v-5c0-2.1,1.7-3.8,3.8-3.8h49.2C304.3,440.2,306.1,441.9,306.2,444.1z M304.2,447V444
			c0-1.1-0.9-1.9-1.9-1.9H253c-1.1,0-1.9,0.9-1.9,1.9v3.1H304.2z"/>
	</g>
	<g>
		<path d="M306.1,458.4c0,5.9-3.7,11.1-9.4,12.9c-10.8,3.4-27.2,3.4-38.1,0c-5.6-1.7-9.4-7-9.4-12.9v-4.5h33.7v1.9h-31.7v2.6
			c0,5.1,3.3,9.6,8,11.1c10.5,3.3,26.4,3.3,36.9,0c4.8-1.5,8-5.9,8-11.1v-2.6h-14.5v-1.9h16.4V458.4z"/>
	</g>
	<g>
		<path d="M286.9,450.8l3.4,3.4c0.4,0.4,0.4,1,0,1.3c-0.4,0.4-1,0.4-1.3,0l-2.8-2.8l-2.8,2.8c-0.4,0.4-1,0.4-1.3,0
			c-0.4-0.4-0.4-1,0-1.3l3.4-3.4c0.2-0.2,0.4-0.3,0.7-0.3C286.5,450.5,286.7,450.6,286.9,450.8z"/>
	</g>
	<g>
		<g>
			<path d="M286.3,466.2c0.1,0.1,0.2,0.2,0.2,0.3c0.1,0.1,0.1,0.3,0.1,0.4c0,0.3-0.1,0.5-0.3,0.7c-0.2,0.3-0.6,0.4-0.9,0.3
				c-0.1,0-0.1-0.1-0.2-0.1s-0.1-0.1-0.2-0.1c-0.1,0-0.2-0.1-0.2-0.1c-0.2-0.2-0.3-0.4-0.3-0.7c0-0.1,0.1-0.3,0.1-0.4
				c0-0.1,0.1-0.2,0.2-0.3c0.2-0.2,0.4-0.3,0.7-0.3S286.1,466,286.3,466.2z"/>
		</g>
		<g>
			<g>
				<path d="M263,464.1c0.1,0,0.2,0.1,0.3,0.2c0,0.1,0,0.2,0.1,0.3c0.1,0.1,0.1,0.3,0.1,0.4s0,0.1,0,0.2c0,0.1,0,0.1,0,0.2
					c0,0.1-0.1,0.2-0.1,0.2c0,0.1-0.1,0.2-0.1,0.2c-0.4,0.4-1,0.4-1.3,0c0-0.1-0.1-0.1-0.1-0.2s-0.1-0.1-0.1-0.2
					c-0.1-0.1-0.1-0.1-0.1-0.2c0-0.1,0-0.1,0-0.2s0.1-0.3,0.1-0.4c0-0.1,0.1-0.2,0.2-0.3c0.1-0.1,0.2-0.1,0.3-0.2
					c0.1-0.1,0.3-0.1,0.4-0.1S262.9,464.1,263,464.1z"/>
			</g>
			<g>
				<path d="M256.1,461.4c0.1,0.1,0.2,0.2,0.2,0.3c0.1,0.1,0.1,0.3,0.1,0.4c0,0.1-0.1,0.3-0.1,0.4c0,0.1-0.1,0.2-0.2,0.3
					c-0.4,0.4-1,0.4-1.3,0c-0.1-0.1-0.2-0.2-0.2-0.3c-0.1-0.1-0.1-0.3-0.1-0.4c0-0.1,0.1-0.3,0.1-0.4c0-0.1,0.1-0.2,0.2-0.3
					c0.2-0.2,0.4-0.3,0.7-0.3C255.6,461.1,255.9,461.2,256.1,461.4z"/>
			</g>
			<g>
				<path d="M300.6,461.4c0,0.1,0.2,0.2,0.3,0.3s0.1,0.3,0.1,0.4c0,0.1-0.1,0.3-0.1,0.4c0,0.1-0.1,0.2-0.2,0.3
					c-0.1,0-0.2,0.1-0.2,0.1c-0.1,0.1-0.1,0.1-0.2,0.1c-0.1,0.1-0.1,0.1-0.2,0.1c-0.2,0-0.4,0-0.6-0.1c-0.1,0-0.2-0.1-0.3-0.2
					c-0.1-0.1-0.2-0.2-0.2-0.3c-0.1-0.1-0.1-0.3-0.1-0.4c0-0.1,0.1-0.3,0.1-0.4c0-0.1,0.1-0.2,0.2-0.3c0.1-0.1,0.2-0.1,0.3-0.2
					c0.1-0.1,0.3-0.1,0.4-0.1C300.1,461.1,300.4,461.2,300.6,461.4z"/>
			</g>
			<g>
				<path d="M267.1,461.4c0,0.1,0.2,0.2,0.3,0.3c0.1,0.1,0.1,0.3,0.1,0.4c0,0.3-0.1,0.5-0.3,0.7c-0.1,0-0.2,0.1-0.2,0.1
					c-0.1,0.1-0.1,0.1-0.2,0.1c-0.1,0.1-0.1,0.1-0.2,0.1c-0.3,0-0.7-0.1-0.9-0.3c-0.1-0.1-0.2-0.2-0.2-0.3c-0.1-0.1-0.1-0.3-0.1-0.4
					c0-0.3,0.1-0.5,0.3-0.7c0.1-0.1,0.2-0.1,0.3-0.2c0.1-0.1,0.3-0.1,0.4-0.1C266.6,461.1,266.9,461.2,267.1,461.4z"/>
			</g>
			<g>
				<path d="M271.4,464.5c0.1,0.1,0.1,0.2,0.2,0.3c0.1,0.1,0.1,0.3,0.1,0.4c0,0.2-0.1,0.5-0.3,0.7c-0.4,0.4-1,0.4-1.3,0
					c-0.1-0.1-0.2-0.2-0.2-0.3c-0.1-0.1-0.1-0.3-0.1-0.4s0.1-0.3,0.1-0.4c0-0.1,0.1-0.2,0.2-0.3c0.1-0.1,0.2-0.1,0.3-0.2
					c0.1-0.1,0.3-0.1,0.4-0.1C270.9,464.3,271.2,464.4,271.4,464.5z"/>
			</g>
			<g>
				<path d="M288.6,462.3c0.2,0.2,0.3,0.4,0.3,0.7c0,0.1-0.1,0.3-0.1,0.4c0,0.1-0.1,0.2-0.2,0.3c-0.4,0.4-1,0.4-1.3,0
					c-0.1-0.1-0.2-0.2-0.2-0.3c-0.1-0.1-0.1-0.3-0.1-0.4c0-0.3,0.1-0.5,0.3-0.7c0.1-0.1,0.2-0.1,0.3-0.2s0.3-0.1,0.4-0.1
					C288.2,462.1,288.5,462.1,288.6,462.3z"/>
			</g>
			<g>
				<path d="M294.9,463.3c0,0.1,0.2,0.2,0.3,0.3c0.1,0.1,0.1,0.3,0.1,0.4c0,0.3-0.1,0.5-0.3,0.7c-0.1,0-0.2,0.1-0.2,0.1
					c-0.1,0.1-0.1,0.1-0.2,0.1c-0.1,0.1-0.1,0.1-0.2,0.1c-0.3,0-0.7-0.1-0.9-0.3c-0.2-0.2-0.3-0.4-0.3-0.7c0-0.1,0.1-0.3,0.1-0.4
					c0-0.1,0.1-0.2,0.2-0.3c0.1-0.1,0.2-0.1,0.3-0.2c0.1-0.1,0.3-0.1,0.4-0.1C294.4,463,294.7,463.1,294.9,463.3z"/>
			</g>
			<g>
				<path d="M282.4,460.2c0.1,0,0.2,0.1,0.3,0.2c0.1,0.1,0.1,0.2,0.2,0.3c0.1,0.1,0.1,0.3,0.1,0.4c0,0.3-0.1,0.5-0.3,0.7
					c-0.1,0.1-0.2,0.2-0.3,0.2c-0.4,0.2-0.8,0.1-1.1-0.2c-0.2-0.2-0.3-0.4-0.3-0.7c0-0.1,0.1-0.3,0.1-0.4c0-0.1,0.1-0.2,0.2-0.3
					c0.1-0.1,0.2-0.2,0.3-0.2c0.1-0.1,0.3-0.1,0.4-0.1C282.1,460.1,282.2,460.1,282.4,460.2z"/>
			</g>
			<g>
				<path d="M278.4,463.2c0.1,0,0.2,0.1,0.3,0.2c0.2,0.2,0.3,0.4,0.3,0.7c0,0.3-0.1,0.5-0.3,0.7c-0.1,0-0.2,0.1-0.2,0.1
					c-0.1,0-0.1,0.1-0.2,0.1c-0.1,0-0.1,0-0.2,0c-0.2,0.1-0.4,0.1-0.6,0c-0.1,0-0.2-0.1-0.3-0.2c-0.2-0.2-0.3-0.4-0.3-0.7
					c0-0.3,0.1-0.5,0.3-0.7c0.1-0.1,0.2-0.1,0.3-0.2c0.1-0.1,0.3-0.1,0.4-0.1S278.3,463.2,278.4,463.2z"/>
			</g>
		</g>
	</g>
</g>
<g>
	<g>
		<path d="M370.6,448.4c0.8,0.8,1.2,1.9,1.2,3.1c0,2.4-2,4.4-4.4,4.4h-14.2v-1.9h14.2c1.3,0,2.5-1.1,2.5-2.5c0-0.7-0.3-1.2-0.8-1.7
			s-1.1-0.8-1.7-0.8H315c-1.3,0-2.5,1.1-2.5,2.5c0,0.7,0.3,1.1,0.8,1.6c0.5,0.5,1.1,0.8,1.7,0.8h31.3v1.9h-31.4
			c-1.1,0-2.3-0.5-3.1-1.2s-1.2-1.9-1.2-3.1c0-2.4,2-4.4,4.4-4.4h52.4C368.6,447,369.8,447.5,370.6,448.4z"/>
	</g>
	<g>
		<path d="M369.8,444.1v5h-56.9v-5c0-2.1,1.7-3.8,3.8-3.8h49.2C368,440.2,369.7,441.9,369.8,444.1z M367.9,447V444
			c0-1.1-0.9-1.9-1.9-1.9h-49.3c-1.1,0-1.9,0.9-1.9,1.9v3.1H367.9z"/>
	</g>
	<g>
		<path d="M369.7,458.4c0,5.9-3.7,11.1-9.4,12.9c-10.8,3.4-27.2,3.4-38.1,0c-5.6-1.7-9.4-7-9.4-12.9v-4.5h33.7v1.9h-31.7v2.6
			c0,5.1,3.3,9.6,8,11.1c10.5,3.3,26.4,3.3,36.9,0c4.8-1.5,8-5.9,8-11.1v-2.6h-14.5v-1.9h16.4V458.4z"/>
	</g>
	<g>
		<path d="M350.5,450.8l3.4,3.4c0.4,0.4,0.4,1,0,1.3c-0.4,0.4-1,0.4-1.3,0l-2.8-2.8l-2.8,2.8c-0.4,0.4-1,0.4-1.3,0
			c-0.4-0.4-0.4-1,0-1.3l3.4-3.4c0.2-0.2,0.4-0.3,0.7-0.3S350.4,450.6,350.5,450.8z"/>
	</g>
	<g>
		<g>
			<path d="M350,466.2c0.1,0.1,0.2,0.2,0.2,0.3c0.1,0.1,0.1,0.3,0.1,0.4c0,0.3-0.1,0.5-0.3,0.7c-0.2,0.3-0.6,0.4-0.9,0.3
				c-0.1,0-0.1-0.1-0.2-0.1c-0.1,0-0.1-0.1-0.2-0.1c-0.1,0-0.2-0.1-0.2-0.1c-0.2-0.2-0.3-0.4-0.3-0.7c0-0.1,0.1-0.3,0.1-0.4
				c0-0.1,0.1-0.2,0.2-0.3c0.2-0.2,0.4-0.3,0.7-0.3C349.5,465.9,349.7,466,350,466.2z"/>
		</g>
		<g>
			<g>
				<path d="M326.6,464.1c0.1,0,0.2,0.1,0.3,0.2c0,0.1,0,0.2,0.1,0.3c0.1,0.1,0.1,0.3,0.1,0.4s0,0.1,0,0.2c0,0.1,0,0.1,0,0.2
					c0,0.1-0.1,0.2-0.1,0.2c0,0.1-0.1,0.2-0.1,0.2c-0.4,0.4-1,0.4-1.3,0c0-0.1-0.1-0.1-0.1-0.2s-0.1-0.1-0.1-0.2
					c-0.1-0.1-0.1-0.1-0.1-0.2c0-0.1,0-0.1,0-0.2s0.1-0.3,0.1-0.4c0-0.1,0.1-0.2,0.2-0.3c0.1-0.1,0.2-0.1,0.3-0.2
					c0.1-0.1,0.3-0.1,0.4-0.1C326.3,464,326.5,464.1,326.6,464.1z"/>
			</g>
			<g>
				<path d="M319.7,461.4c0.1,0.1,0.2,0.2,0.2,0.3c0.1,0.1,0.1,0.3,0.1,0.4c0,0.1-0.1,0.3-0.1,0.4c0,0.1-0.1,0.2-0.2,0.3
					c-0.4,0.4-1,0.4-1.3,0c-0.1-0.1-0.2-0.2-0.2-0.3c-0.1-0.1-0.1-0.3-0.1-0.4c0-0.1,0.1-0.3,0.1-0.4c0-0.1,0.1-0.2,0.2-0.3
					c0.2-0.2,0.4-0.3,0.7-0.3C319.3,461.1,319.5,461.2,319.7,461.4z"/>
			</g>
			<g>
				<path d="M364.2,461.4c0,0.1,0.2,0.2,0.3,0.3c0.1,0.1,0.1,0.3,0.1,0.4c0,0.1-0.1,0.3-0.1,0.4c0,0.1-0.1,0.2-0.2,0.3
					c-0.1,0-0.2,0.1-0.2,0.1c-0.1,0.1-0.1,0.1-0.2,0.1c-0.1,0.1-0.1,0.1-0.2,0.1c-0.2,0-0.4,0-0.6-0.1c-0.1,0-0.2-0.1-0.3-0.2
					c-0.1-0.1-0.2-0.2-0.2-0.3c-0.1-0.1-0.1-0.3-0.1-0.4c0-0.1,0.1-0.3,0.1-0.4c0-0.1,0.1-0.2,0.2-0.3s0.2-0.1,0.3-0.2
					c0.1-0.1,0.3-0.1,0.4-0.1C363.8,461.1,364,461.2,364.2,461.4z"/>
			</g>
			<g>
				<path d="M330.7,461.4c0,0.1,0.2,0.2,0.3,0.3c0.1,0.1,0.1,0.3,0.1,0.4c0,0.3-0.1,0.5-0.3,0.7c-0.1,0-0.2,0.1-0.2,0.1
					c-0.1,0.1-0.1,0.1-0.2,0.1c-0.1,0.1-0.1,0.1-0.2,0.1c-0.3,0-0.7-0.1-0.9-0.3c-0.1-0.1-0.2-0.2-0.2-0.3c-0.1-0.1-0.1-0.3-0.1-0.4
					c0-0.3,0.1-0.5,0.3-0.7c0.1-0.1,0.2-0.1,0.3-0.2c0.1-0.1,0.3-0.1,0.4-0.1C330.3,461.1,330.5,461.2,330.7,461.4z"/>
			</g>
			<g>
				<path d="M335,464.5c0.1,0.1,0.1,0.2,0.2,0.3c0.1,0.1,0.1,0.3,0.1,0.4c0,0.2-0.1,0.5-0.3,0.7c-0.4,0.4-1,0.4-1.3,0
					c-0.1-0.1-0.2-0.2-0.2-0.3c-0.1-0.1-0.1-0.3-0.1-0.4s0.1-0.3,0.1-0.4c0-0.1,0.1-0.2,0.2-0.3c0.1-0.1,0.2-0.1,0.3-0.2
					c0.1-0.1,0.3-0.1,0.4-0.1C334.6,464.3,334.9,464.4,335,464.5z"/>
			</g>
			<g>
				<path d="M352.3,462.3c0.2,0.2,0.3,0.4,0.3,0.7c0,0.1-0.1,0.3-0.1,0.4c0,0.1-0.1,0.2-0.2,0.3c-0.4,0.4-1,0.4-1.3,0
					c-0.1-0.1-0.2-0.2-0.2-0.3c-0.1-0.1-0.1-0.3-0.1-0.4c0-0.3,0.1-0.5,0.3-0.7c0.1-0.1,0.2-0.1,0.3-0.2c0.1-0.1,0.3-0.1,0.4-0.1
					C351.8,462.1,352.1,462.1,352.3,462.3z"/>
			</g>
			<g>
				<path d="M358.5,463.3c0,0.1,0.2,0.2,0.3,0.3c0.1,0.1,0.1,0.3,0.1,0.4c0,0.3-0.1,0.5-0.3,0.7c-0.1,0-0.2,0.1-0.2,0.1
					c-0.1,0.1-0.1,0.1-0.2,0.1c-0.1,0.1-0.1,0.1-0.2,0.1c-0.3,0-0.7-0.1-0.9-0.3c-0.2-0.2-0.3-0.4-0.3-0.7c0-0.1,0.1-0.3,0.1-0.4
					c0-0.1,0.1-0.2,0.2-0.3c0.1-0.1,0.2-0.1,0.3-0.2c0.1-0.1,0.3-0.1,0.4-0.1C358,463,358.3,463.1,358.5,463.3z"/>
			</g>
			<g>
				<path d="M346,460.2c0.1,0,0.2,0.1,0.3,0.2c0.1,0.1,0.1,0.2,0.2,0.3c0.1,0.1,0.1,0.3,0.1,0.4c0,0.3-0.1,0.5-0.3,0.7
					c-0.1,0.1-0.2,0.2-0.3,0.2c-0.4,0.2-0.8,0.1-1.1-0.2c-0.2-0.2-0.3-0.4-0.3-0.7c0-0.1,0.1-0.3,0.1-0.4c0-0.1,0.1-0.2,0.2-0.3
					c0.1-0.1,0.2-0.2,0.3-0.2c0.1-0.1,0.3-0.1,0.4-0.1C345.8,460.1,345.9,460.1,346,460.2z"/>
			</g>
			<g>
				<path d="M342,463.2c0.1,0,0.2,0.1,0.3,0.2c0.2,0.2,0.3,0.4,0.3,0.7c0,0.3-0.1,0.5-0.3,0.7c-0.1,0-0.2,0.1-0.2,0.1
					c-0.1,0-0.1,0.1-0.2,0.1s-0.1,0-0.2,0c-0.2,0.1-0.4,0.1-0.6,0c-0.1,0-0.2-0.1-0.3-0.2c-0.2-0.2-0.3-0.4-0.3-0.7
					c0-0.3,0.1-0.5,0.3-0.7c0.1-0.1,0.2-0.1,0.3-0.2c0.1-0.1,0.3-0.1,0.4-0.1C341.6,463.1,341.9,463.2,342,463.2z"/>
			</g>
		</g>
	</g>
</g>
<g>
	<g>
		<path d="M338.3,480.7c0.8,0.8,1.2,1.9,1.2,3.1c0,2.4-2,4.4-4.4,4.4H321v-1.9h14.2c1.3,0,2.5-1.1,2.5-2.5c0-0.7-0.3-1.2-0.8-1.7
			s-1.1-0.8-1.7-0.8h-52.4c-1.3,0-2.5,1.1-2.5,2.5c0,0.7,0.3,1.1,0.8,1.6s1.1,0.8,1.7,0.8H314v1.9h-31.4c-1.1,0-2.3-0.5-3.1-1.2
			c-0.8-0.8-1.2-1.9-1.2-3.1c0-2.4,2-4.4,4.4-4.4h52.4C336.3,479.4,337.4,479.9,338.3,480.7z"/>
	</g>
	<g>
		<path d="M337.4,476.4v5h-56.9v-5c0-2.1,1.7-3.8,3.8-3.8h49.2C335.6,472.6,337.3,474.2,337.4,476.4z M335.5,479.4v-3.1
			c0-1.1-0.9-1.9-1.9-1.9h-49.3c-1.1,0-1.9,0.9-1.9,1.9v3.1H335.5z"/>
	</g>
	<g>
		<path d="M337.3,490.8c0,5.9-3.7,11.1-9.4,12.9c-10.8,3.4-27.2,3.4-38.1,0c-5.6-1.7-9.4-7-9.4-12.9v-4.5h33.7v1.9h-31.7v2.6
			c0,5.1,3.3,9.6,8,11.1c10.5,3.3,26.4,3.3,36.9,0c4.8-1.5,8-5.9,8-11.1v-2.6H321v-1.9h16.4V490.8z"/>
	</g>
	<g>
		<path d="M318.2,483.1l3.4,3.4c0.4,0.4,0.4,1,0,1.3c-0.4,0.4-1,0.4-1.3,0l-2.8-2.8l-2.8,2.8c-0.4,0.4-1,0.4-1.3,0
			c-0.4-0.4-0.4-1,0-1.3l3.4-3.4c0.2-0.2,0.4-0.3,0.7-0.3C317.8,482.8,318,482.9,318.2,483.1z"/>
	</g>
	<g>
		<g>
			<path d="M317.6,498.5c0.1,0.1,0.2,0.2,0.2,0.3c0.1,0.1,0.1,0.3,0.1,0.4c0,0.3-0.1,0.5-0.3,0.7c-0.2,0.3-0.6,0.4-0.9,0.3
				c-0.1,0-0.1-0.1-0.2-0.1c-0.1,0-0.1-0.1-0.2-0.1s-0.2-0.1-0.2-0.1c-0.2-0.2-0.3-0.4-0.3-0.7c0-0.1,0.1-0.3,0.1-0.4
				c0-0.1,0.1-0.2,0.2-0.3c0.2-0.2,0.4-0.3,0.7-0.3S317.3,498.3,317.6,498.5z"/>
		</g>
		<g>
			<g>
				<path d="M294.3,496.4c0.1,0,0.2,0.1,0.3,0.2c0,0.1,0,0.2,0.1,0.3c0.1,0.1,0.1,0.3,0.1,0.4c0,0.1,0,0.1,0,0.2s0,0.1,0,0.2
					c0,0.1-0.1,0.2-0.1,0.2c0,0.1-0.1,0.2-0.1,0.2c-0.4,0.4-1,0.4-1.3,0c0-0.1-0.1-0.1-0.1-0.2c0-0.1-0.1-0.1-0.1-0.2
					c-0.1-0.1-0.1-0.1-0.1-0.2s0-0.1,0-0.2c0-0.1,0.1-0.3,0.1-0.4c0-0.1,0.1-0.2,0.2-0.3c0.1-0.1,0.2-0.1,0.3-0.2
					c0.1-0.1,0.3-0.1,0.4-0.1S294.2,496.4,294.3,496.4z"/>
			</g>
			<g>
				<path d="M287.4,493.7c0.1,0.1,0.2,0.2,0.2,0.3c0.1,0.1,0.1,0.3,0.1,0.4s-0.1,0.3-0.1,0.4c0,0.1-0.1,0.2-0.2,0.3
					c-0.4,0.4-1,0.4-1.3,0c-0.1-0.1-0.2-0.2-0.2-0.3c-0.1-0.1-0.1-0.3-0.1-0.4s0.1-0.3,0.1-0.4c0-0.1,0.1-0.2,0.2-0.3
					c0.2-0.2,0.4-0.3,0.7-0.3C286.9,493.4,287.2,493.5,287.4,493.7z"/>
			</g>
			<g>
				<path d="M331.9,493.7c0,0.1,0.2,0.2,0.3,0.3c0.1,0.1,0.1,0.3,0.1,0.4s-0.1,0.3-0.1,0.4c0,0.1-0.1,0.2-0.2,0.3
					c-0.1,0-0.2,0.1-0.2,0.1c-0.1,0.1-0.1,0.1-0.2,0.1c-0.1,0.1-0.1,0.1-0.2,0.1c-0.2,0-0.4,0-0.6-0.1c-0.1,0-0.2-0.1-0.3-0.2
					c-0.1-0.1-0.2-0.2-0.2-0.3c-0.1-0.1-0.1-0.3-0.1-0.4s0.1-0.3,0.1-0.4c0-0.1,0.1-0.2,0.2-0.3c0.1-0.1,0.2-0.1,0.3-0.2
					c0.1-0.1,0.3-0.1,0.4-0.1C331.4,493.4,331.7,493.5,331.9,493.7z"/>
			</g>
			<g>
				<path d="M298.4,493.7c0,0.1,0.2,0.2,0.3,0.3c0.1,0.1,0.1,0.3,0.1,0.4c0,0.3-0.1,0.5-0.3,0.7c-0.1,0-0.2,0.1-0.2,0.1
					c-0.1,0.1-0.1,0.1-0.2,0.1c-0.1,0.1-0.1,0.1-0.2,0.1c-0.3,0-0.7-0.1-0.9-0.3c-0.1-0.1-0.2-0.2-0.2-0.3c-0.1-0.1-0.1-0.3-0.1-0.4
					c0-0.3,0.1-0.5,0.3-0.7c0.1-0.1,0.2-0.1,0.3-0.2c0.1-0.1,0.3-0.1,0.4-0.1C297.9,493.4,298.2,493.5,298.4,493.7z"/>
			</g>
			<g>
				<path d="M302.7,496.9c0.1,0.1,0.1,0.2,0.2,0.3c0.1,0.1,0.1,0.3,0.1,0.4c0,0.2-0.1,0.5-0.3,0.7c-0.4,0.4-1,0.4-1.3,0
					c-0.1-0.1-0.2-0.2-0.2-0.3c-0.1-0.1-0.1-0.3-0.1-0.4c0-0.1,0.1-0.3,0.1-0.4s0.1-0.2,0.2-0.3c0.1-0.1,0.2-0.1,0.3-0.2
					c0.1-0.1,0.3-0.1,0.4-0.1C302.2,496.6,302.5,496.7,302.7,496.9z"/>
			</g>
			<g>
				<path d="M319.9,494.7c0.2,0.2,0.3,0.4,0.3,0.7c0,0.1-0.1,0.3-0.1,0.4c0,0.1-0.1,0.2-0.2,0.3c-0.4,0.4-1,0.4-1.3,0
					c-0.1-0.1-0.2-0.2-0.2-0.3c-0.1-0.1-0.1-0.3-0.1-0.4c0-0.3,0.1-0.5,0.3-0.7c0.1-0.1,0.2-0.1,0.3-0.2c0.1-0.1,0.3-0.1,0.4-0.1
					C319.4,494.4,319.7,494.5,319.9,494.7z"/>
			</g>
			<g>
				<path d="M326.1,495.6c0,0.1,0.2,0.2,0.3,0.3c0.1,0.1,0.1,0.3,0.1,0.4c0,0.3-0.1,0.5-0.3,0.7c-0.1,0-0.2,0.1-0.2,0.1
					c-0.1,0.1-0.1,0.1-0.2,0.1c-0.1,0.1-0.1,0.1-0.2,0.1c-0.3,0-0.7-0.1-0.9-0.3s-0.3-0.4-0.3-0.7c0-0.1,0.1-0.3,0.1-0.4
					s0.1-0.2,0.2-0.3s0.2-0.1,0.3-0.2c0.1-0.1,0.3-0.1,0.4-0.1C325.7,495.4,325.9,495.5,326.1,495.6z"/>
			</g>
			<g>
				<path d="M313.7,492.6c0.1,0,0.2,0.1,0.3,0.2c0.1,0.1,0.1,0.2,0.2,0.3c0.1,0.1,0.1,0.3,0.1,0.4c0,0.3-0.1,0.5-0.3,0.7
					c-0.1,0.1-0.2,0.2-0.3,0.2c-0.4,0.2-0.8,0.1-1.1-0.2c-0.2-0.2-0.3-0.4-0.3-0.7c0-0.1,0.1-0.3,0.1-0.4c0-0.1,0.1-0.2,0.2-0.3
					c0.1-0.1,0.2-0.2,0.3-0.2c0.1-0.1,0.3-0.1,0.4-0.1S313.5,492.5,313.7,492.6z"/>
			</g>
			<g>
				<path d="M309.7,495.6c0.1,0,0.2,0.1,0.3,0.2c0.2,0.2,0.3,0.4,0.3,0.7s-0.1,0.5-0.3,0.7c-0.1,0-0.2,0.1-0.2,0.1
					c-0.1,0-0.1,0.1-0.2,0.1c-0.1,0-0.1,0-0.2,0c-0.2,0.1-0.4,0.1-0.6,0c-0.1,0-0.2-0.1-0.3-0.2c-0.2-0.2-0.3-0.4-0.3-0.7
					s0.1-0.5,0.3-0.7c0.1-0.1,0.2-0.1,0.3-0.2c0.1-0.1,0.3-0.1,0.4-0.1S309.6,495.6,309.7,495.6z"/>
			</g>
		</g>
	</g>
</g>
<g id="Page-1">
	<g id="Artboard" transform="translate(-439.000000, -537.000000)">
		<g id="gas" transform="translate(439.000000, 537.000000)">
			<g id="Group">
				<path id="Shape" class="st9" d="M262.2,376.9c0-0.6,0-1.1,0.1-1.7c-7.2-1.5-12.4-7.7-12.3-15.2c0.1-4,1.6-7.7,4.4-10.5
					c-5.8-3.6-9.4-9.9-9.3-16.7c0.2-10.7,9-19.1,19.6-18.9c8.4,0.1,15.8,5.7,18.1,13.8c6.9,1.6,11.8,7.9,11.7,15
					c-0.1,5.3-2.9,10.1-7.4,12.8c3.3,2.3,5.4,6.2,5.3,10.2c-0.1,6.7-5.6,12.2-12.5,12.1c-0.4,0-0.6,0-0.9,0
					c-0.4,4.5-4.2,7.9-8.7,7.8C265.8,385.5,262,381.6,262.2,376.9z M278.1,374.8c0.6,0.1,1.4,0.3,2,0.3c5.2,0.1,9.6-4.2,9.7-9.4
					c0.1-4-2.4-7.6-6.1-9l-3.3-1.3l3.4-1.3c4.9-1.8,8-6.2,8.1-11.4c0.1-6.2-4.3-11.3-10.4-12.4l-0.9-0.1l-0.4-0.9
					c-1.9-7.3-8.2-12.5-15.8-12.6c-9-0.1-16.6,7.2-16.7,16.2c-0.1,6.4,3.7,12.5,9.6,15.1l2.1,1l-1.8,1.3c-3,2.3-4.8,5.9-4.9,9.7
					c-0.1,6.6,4.9,12.1,11.5,12.6l2,0.2l-0.9,1.8c-0.4,0.7-0.5,1.5-0.5,2.3c0,3.2,2.5,5.9,5.7,5.9c3.2,0,5.9-2.5,5.9-5.7
					c0-0.2,0-0.5,0-0.7l-0.2-2L278.1,374.8z"/>
				<path id="Path" class="st9" d="M275.1,342c-0.4-0.6-0.1-1.5,0.5-1.9c6.1-3.8,4.9-10.7,4.7-11.1c-0.2-0.7,0.3-1.5,1-1.6
					c0.7-0.2,1.5,0.3,1.6,1c0.7,3.2,0.3,10.2-6,14c-0.2,0.1-0.5,0.2-0.7,0.2C275.9,342.8,275.4,342.5,275.1,342z"/>
				<path class="st9" d="M273.2,361.7c-0.7-0.4-1-1.1-0.7-1.9c2.8-6.5,9.1-6.6,12.1-5.8c0.7,0.3,1.2,1,1,1.7c-0.3,0.7-1,1.2-1.7,1
					c-0.2-0.1-6.3-1.7-8.7,4.1c-0.1,0.5-0.8,0.9-1.3,0.8C273.6,361.7,273.5,361.7,273.2,361.7z"/>
			</g>
		</g>
	</g>
</g>
<g id="Page-1_13_">
	<g id="Artboard_13_" transform="translate(-439.000000, -537.000000)">
		<g id="gas_1_" transform="translate(439.000000, 537.000000)">
			<g id="Group_1_">
				<path id="Shape_4_" d="M359.7,488.1c2.9,0,5.3,2.3,5.6,5.2c0.2,0,0.3,0,0.6,0c4.5,0,8,3.6,8,8c0,2.7-1.4,5.2-3.6,6.6
					c2.9,1.8,4.7,4.9,4.7,8.4c0,4.7-3.2,8.7-7.8,9.7c-1.6,5.3-6.5,8.8-12,8.8c-7,0-12.6-5.6-12.6-12.6c0-4.5,2.4-8.6,6.2-10.9
					c-1.8-1.9-2.8-4.3-2.8-6.9c0-4.9,3.5-8.9,8.2-9.8c-0.1-0.4-0.1-0.7-0.1-1.1C354.1,490.6,356.7,488.1,359.7,488.1z M363.4,495.4
					l0.2-1.3c0-0.2,0-0.3,0-0.5c0-2.1-1.7-3.8-3.8-3.8c-2.1,0-3.8,1.7-3.8,3.8c0,0.6,0.1,1.1,0.3,1.5l0.6,1.2l-1.3,0.1
					c-4.3,0.2-7.6,3.8-7.6,8.1c0,2.5,1.1,4.9,3.1,6.4l1.1,0.9l-1.4,0.6c-3.9,1.7-6.4,5.6-6.4,9.8c0,5.9,4.9,10.8,10.8,10.8
					c4.9,0,9.2-3.3,10.4-8.1l0.2-0.6l0.6-0.1c4-0.6,6.9-4,6.9-8c0-3.4-2-6.3-5.2-7.5l-2.2-0.9l2.2-0.8c2.4-0.9,4-3.2,4-5.8
					c0-3.4-2.8-6.2-6.2-6.2c-0.4,0-0.9,0.1-1.3,0.2L363.4,495.4z"/>
				<path id="Path_7_" d="M363.1,516.1c0.2,0,0.3,0.1,0.5,0.2c4.1,2.6,4.3,7.1,3.8,9.2c-0.1,0.5-0.6,0.8-1.1,0.6
					c-0.5-0.1-0.8-0.6-0.6-1.1c0.1-0.2,1-4.8-3-7.3c-0.4-0.2-0.6-0.8-0.3-1.2C362.5,516.2,362.8,516.1,363.1,516.1z"/>
				<path d="M361.7,503.7c0.3,0,0.7,0.2,0.8,0.6c1.5,3.8,5.5,2.8,5.7,2.8c0.5-0.2,1,0.2,1.1,0.6c0.2,0.5-0.2,1-0.6,1.1
					c-1.9,0.5-6.1,0.4-7.9-3.9c-0.2-0.5,0-1,0.5-1.2C361.4,503.7,361.5,503.7,361.7,503.7z"/>
			</g>
		</g>
	</g>
</g>
<line class="st10" x1="506.6" y1="289.1" x2="497.4" y2="300.4"/>
<line class="st10" x1="510.8" y1="286.9" x2="533.5" y2="280.6"/>
<path class="st11" d="M528.2,394.3c0.7,0.1,1.3-0.4,1.4-1.1l3.8-29.2c0.1-0.7-0.4-1.3-1.1-1.4c-0.7-0.1-1.3,0.4-1.4,1.1l-3.8,29.2
	C527.1,393.6,527.5,394.2,528.2,394.3z"/>
<path class="st11" d="M513.6,394.4c0.7,0,1.2-0.6,1.2-1.2v-29.4c0-0.7-0.6-1.2-1.2-1.2c-0.7,0-1.2,0.6-1.2,1.2v29.4
	C512.4,393.9,512.9,394.4,513.6,394.4z"/>
<path class="st11" d="M499,394.3c0.7-0.1,1.2-0.7,1.1-1.4l-3.8-29.2c-0.1-0.7-0.7-1.2-1.4-1.1c-0.7,0.1-1.2,0.7-1.1,1.4l3.8,29.2
	C497.7,393.9,498.3,394.4,499,394.3z"/>
<g>
	<path class="st12" d="M478.4,342.6c0.2,1.5,0.6,5,0.9,7.8l6.3,51.2c0.3,2.7,2.8,4.9,5.6,4.9h42.5c2.7,0,5.3-2.2,5.6-4.9l6.1-48.7
		c0.3-2.7-0.5-6.9-1.9-9.3l0-0.1c-1.4-2.4-4.7-4.3-7.5-4.3l-53,0.5C480.3,339.7,478.2,341,478.4,342.6z"/>
</g>
<g>
	<path class="st12" d="M542.7,336.7c-0.6,0.3-0.9,1.1-0.6,1.7l33.8,67.5c0.3,0.6,1.1,0.9,1.7,0.6l0.3-0.1c0.6-0.3,0.9-1.1,0.6-1.7
		L567,377c-0.3-0.6,0-1.5,0.5-1.9l3-2.2c0.5-0.4,0.7-1.2,0.4-1.9l-6.4-12.7c-0.3-0.6-1.1-0.9-1.7-0.7l-3.9,1.6
		c-0.6,0.3-1.4,0-1.8-0.6l-12.5-21.5c-0.3-0.6-1.1-0.8-1.7-0.5L542.7,336.7z"/>
</g>
<rect x="481.2" y="334.2" class="st13" width="54.8" height="11.2"/>
<g>
	<path d="M536.2,280.5c-6.4-2.1-15-3.5-24.3-3.8v-10.2c0-0.6-0.5-1.1-1.1-1.1h-5.9c-0.6,0-1.1,0.5-1.1,1.1v10.2
		c-9.3,0.3-17.9,1.6-24.3,3.8c-7.2,2.4-11,5.6-11,9.1l0,0v37.5c0,5.7,4.4,10.4,12.8,13.7c7.2,2.8,16.8,4.4,27,4.4
		c10.1,0,19.5-1.5,26.4-4.3c8.2-3.3,12.5-8.1,12.5-13.9v-37.3C547.2,286,543.4,282.9,536.2,280.5z M506,267.6h3.7v10.2v10.1H506
		v-10.1V267.6z M480.2,282.6c6.2-2.1,14.6-3.4,23.6-3.7V289l0,0c0,0.6,0.5,1.1,1.1,1.1h5.9c0.6,0,1.1-0.5,1.1-1.1l0,0v-10.1
		c9.1,0.3,17.4,1.6,23.6,3.7c6,2,9.5,4.6,9.5,7c0,2.6-3.9,5.3-10.4,7.3c-7.1,2.2-16.6,3.4-26.7,3.4c-9.2,0-17.8-1-24.7-2.8
		c-0.7-0.2-1.4-0.4-2.1-0.6c-0.2-0.1-0.4-0.1-0.6-0.2c-6.2-2-9.8-4.7-9.8-7.1C470.6,287.2,474.1,284.6,480.2,282.6z M545,294.1v13.4
		l0,0c0,2.6-3.9,5.3-10.4,7.3c-7.1,2.2-16.6,3.4-26.7,3.4c-10.1,0-19.6-1.2-26.7-3.4c-6.5-2-10.4-4.8-10.4-7.3v-13.4
		c0,0,0,0,0.1,0.1c0.1,0.1,0.1,0.1,0.2,0.2c0,0,0.1,0.1,0.1,0.1c0.1,0.1,0.2,0.1,0.3,0.2c0,0,0.1,0.1,0.1,0.1
		c0.3,0.2,0.6,0.4,0.9,0.6c0,0,0.1,0.1,0.1,0.1c0.1,0.1,0.2,0.1,0.3,0.2c0.1,0,0.1,0.1,0.2,0.1c0.1,0.1,0.2,0.1,0.3,0.2
		c0.1,0,0.1,0.1,0.2,0.1c0.1,0.1,0.2,0.1,0.3,0.2c0.1,0,0.1,0.1,0.2,0.1c0.1,0.1,0.2,0.1,0.4,0.2c0.1,0,0.1,0.1,0.2,0.1
		c0.1,0.1,0.3,0.1,0.5,0.2c0,0,0.1,0,0.1,0.1c0.2,0.1,0.4,0.2,0.6,0.3c0.1,0,0.1,0,0.1,0.1c0.2,0.1,0.3,0.1,0.5,0.2
		c0.1,0,0.2,0.1,0.2,0.1c0.1,0.1,0.3,0.1,0.4,0.2c0.1,0,0.2,0.1,0.3,0.1c0.1,0.1,0.3,0.1,0.4,0.2c0.1,0,0.2,0.1,0.3,0.1
		c0.1,0.1,0.3,0.1,0.5,0.2c0.1,0,0.2,0.1,0.3,0.1c0.2,0.1,0.3,0.1,0.5,0.2c0.1,0,0.2,0.1,0.3,0.1c0.3,0.1,0.5,0.2,0.8,0.2h0
		c7.3,2.3,17.1,3.5,27.4,3.5l0,0l0,0c9.4,0,18.2-1,25.3-2.9c0.7-0.2,1.4-0.4,2.1-0.6c0.3-0.1,0.5-0.2,0.8-0.3c0.1,0,0.2-0.1,0.2-0.1
		c0.2-0.1,0.3-0.1,0.5-0.2c0.1,0,0.2-0.1,0.3-0.1c0.1-0.1,0.3-0.1,0.5-0.2c0.1,0,0.2-0.1,0.3-0.1c0.1-0.1,0.3-0.1,0.4-0.2
		c0.1,0,0.2-0.1,0.3-0.1c0.1-0.1,0.3-0.1,0.4-0.2c0.1,0,0.2-0.1,0.2-0.1c0.2-0.1,0.3-0.1,0.5-0.2c0.1,0,0.1,0,0.1-0.1
		c0.2-0.1,0.4-0.2,0.6-0.3c0,0,0.1,0,0.1-0.1c0.2-0.1,0.3-0.1,0.5-0.2c0.1,0,0.1-0.1,0.2-0.1c0.1-0.1,0.3-0.1,0.4-0.2
		c0.1,0,0.1-0.1,0.2-0.1c0.1-0.1,0.2-0.1,0.3-0.2c0.1,0,0.1-0.1,0.2-0.1c0.1-0.1,0.2-0.1,0.3-0.2c0.1,0,0.1-0.1,0.2-0.1
		c0.1-0.1,0.2-0.1,0.3-0.2c0.1,0,0.1-0.1,0.1-0.1c0.3-0.2,0.6-0.4,0.9-0.6c0,0,0.1-0.1,0.1-0.1c0.1-0.1,0.2-0.1,0.3-0.2
		c0.1,0,0.1-0.1,0.1-0.1C544.8,294.3,544.9,294.2,545,294.1C545,294.1,545,294.1,545,294.1z M533.9,338.8
		c-6.7,2.7-15.8,4.2-25.6,4.2c-9.8,0-19.4-1.5-26.2-4.2c-5.2-2-11.4-5.7-11.4-11.6V312c2,1.9,5.3,3.6,9.8,5
		c7.3,2.3,17.1,3.5,27.4,3.5s20.1-1.3,27.4-3.5c4.5-1.4,7.8-3.1,9.8-5v15C545,333.1,539,336.8,533.9,338.8z"/>
	<path d="M505.4,264.2c0.2,0,0.4-0.1,0.6-0.2c1.2-0.8,1.8-1,2.1-1.1c0.1,0,0.2,0,0.6,0.3c0.3,0.2,0.7,0.5,1.2,0.7
		c0.3,0.1,0.7,0.1,1-0.1s0.5-0.6,0.5-0.9c-0.2-4-2.5-6.3-4.7-6.9c-0.4-0.1-0.8,0-1.1,0.3s-0.4,0.7-0.3,1.1c0.5,1.6,0.2,3.3-0.9,5.3
		c-0.2,0.4-0.1,1,0.2,1.3C504.9,264.1,505.2,264.2,505.4,264.2z M507.8,259.1c0.4,0.4,0.8,1,1,1.7c-0.2-0.1-0.4-0.1-0.6-0.1
		c-0.2,0-0.4,0-0.6,0.1C507.7,260.2,507.7,259.6,507.8,259.1z"/>
</g>
<polyline class="st14" points="497.4,299.7 497.4,315.8 497.4,342.9 "/>
<g>
	<path d="M840.3,413.8l2.2,0l0.1,20.8c0,6.3,5.2,11.4,11.5,11.4l29.7-0.1l15,10.7l17.8,12.6c1,0.7,2.3,1,3.5,0.8
		c1.2-0.2,2.3-0.9,3-1.9c1.5-2.1,1-5-1.1-6.5l-16.8-11.9l0,0l-4.9-3.5c-0.1-0.1-0.2-0.2-0.2-0.3l5.9,0c0,0,0.1,0,0.1,0
		c6.3,0,11.4-5.1,11.4-11.4l0-0.8l5,0c3,0,5.4-2.4,5.4-5.4c0-3.8-3.1-6.8-6.9-6.8l-3.6,0l0-8l1.8,0c2.8,0,5.1-2.3,5.1-5.1l0-2.3
		l-89.1,0.3l0,2.3C835.1,411.5,837.4,413.8,840.3,413.8z M845,434.6l-0.1-20.8l22.2-0.1l0,8.7c0,1.2,0.2,2.4,0.5,3.5
		c-1,0.7-1.8,1.5-2.5,2.4c-0.6,0.8-0.8,1.8-0.6,2.8c0.2,1,0.7,1.8,1.5,2.4l1.1,0.8h0c0,3.7,1.8,7.1,4.5,9.2l-17.8,0.1
		C849,443.6,845,439.6,845,434.6z M878.6,443.3c-2.4,0-4.6-1-6.3-2.7c-1.2-1.2-2.1-2.8-2.4-4.5l10.1,7.1L878.6,443.3z M921,466.7
		c-0.3,0.5-0.8,0.8-1.4,0.9c-0.1,0-0.2,0-0.4,0c-0.5,0-0.9-0.1-1.3-0.4l-16.8-11.9l0,0l-1.1-0.8l2.5-3.6l17.9,12.7
		C921.4,464.4,921.7,465.7,921,466.7z M900.6,449.5l-2.5,3.6l-13.4-9.5l0-0.1l-0.2,0l-16.9-12c-0.3-0.2-0.4-0.5-0.5-0.8
		c-0.1-0.3,0-0.6,0.2-0.9c0.4-0.6,0.9-1.1,1.5-1.5c2,3.4,5.7,5.7,9.9,5.6l1.9,0l5.2,0l12.1,8.6c0.2,0.1,0.3,0.3,0.3,0.5
		c0,0.2,0,0.4-0.1,0.6c-1.1,1.5-0.7,3.6,0.8,4.6L900.6,449.5z M906,443.5C906,443.5,905.9,443.5,906,443.5l-5.3,0c0-0.3,0-0.6,0-0.9
		c-0.1-0.9-0.6-1.6-1.4-2.2l-9.3-6.6l24.9-0.1l0,0.8C914.9,439.5,910.9,443.5,906,443.5z M925.3,428.4c0,1.6-1.3,2.9-2.9,2.9l-6.3,0
		l-28.4,0.1c1-0.8,1.9-1.8,2.6-3c1.6-2.6,4.6-4.3,7.8-4.3l22.9-0.1C923.3,424.1,925.3,426,925.3,428.4z M914.8,421.6l-16.8,0
		c-4,0-7.8,2.1-9.9,5.5c-1.6,2.7-4.5,4.3-7.6,4.3l-1.9,0c-4.9,0-9-4-9-8.9l0-8.8l45.2-0.1L914.8,421.6z M921.7,408.6
		c-0.1,1.4-1.2,2.4-2.6,2.4l-78.9,0.2c-1.4,0-2.5-1.1-2.6-2.4L921.7,408.6z"/>
</g>
<g>
	<path class="st15" d="M949.9,403.2c3.6,0,6.5-2.9,6.5-6.5c0-3.6-2.9-6.5-6.5-6.5c-3.6,0-6.5,2.9-6.5,6.5
		C943.5,400.3,946.4,403.2,949.9,403.2z M949.9,393.9c1.6,0,2.9,1.3,2.9,2.9s-1.3,2.9-2.9,2.9c-1.6,0-2.9-1.3-2.9-2.9
		S948.4,393.9,949.9,393.9z"/>
	<path class="st15" d="M929.5,394.2c3,0,5.5-2.5,5.5-5.5s-2.5-5.5-5.5-5.5s-5.5,2.5-5.5,5.5S926.5,394.2,929.5,394.2z M929.5,386.8
		c1.1,0,1.9,0.9,1.9,1.9c0,1.1-0.9,1.9-1.9,1.9s-1.9-0.9-1.9-1.9C927.6,387.6,928.5,386.8,929.5,386.8z"/>
	<path class="st15" d="M967.2,371.1C967.2,371,967.2,371,967.2,371.1c0-0.1,0-0.2,0-0.3c0,0,0,0,0,0c0-0.1,0-0.1-0.1-0.2v0
		c0-0.1-0.1-0.1-0.1-0.2c0,0,0,0,0,0c0-0.1-0.1-0.1-0.1-0.2l0,0c0-0.1-0.1-0.1-0.2-0.2l0,0l-7.1-6.4c-0.4-0.3-0.8-0.5-1.3-0.5
		c-0.5,0-0.9,0.3-1.2,0.6c-0.7,0.8-1.8,1.2-3,1.2c-1.9,0-3.5-1.1-3.5-2.5c0-0.9,0.7-1.7,1.8-2.1c0.6-0.2,1-0.7,1.1-1.4
		c0.1-0.6-0.1-1.2-0.6-1.6l-5.6-5c-0.5-0.5-1.2-0.6-1.9-0.3l-43.5,17.6l0,0c0,0,0,0-0.1,0c0,0,0,0-0.1,0c0,0,0,0-0.1,0
		c0,0,0,0-0.1,0s0,0,0,0c0,0,0,0-0.1,0c0,0,0,0,0,0c0,0,0,0-0.1,0.1c0,0,0,0,0,0c0,0,0,0-0.1,0.1c0,0,0,0,0,0c0,0,0,0-0.1,0.1
		c0,0,0,0,0,0c0,0,0,0.1-0.1,0.1c0,0,0,0.1,0,0.1c0,0,0,0,0,0.1c0,0,0,0,0,0.1c0,0,0,0,0,0.1c0,0,0,0,0,0.1c0,0,0,0,0,0.1
		c0,0,0,0,0,0.1c0,0,0,0.1,0,0.1c0,0,0,0,0,0.1c0,0,0,0.1,0,0.1v0v7c0,1,0.8,1.8,1.8,1.8c2.6,0,4.8,1.6,4.8,3.5s-2.2,3.5-4.8,3.5
		c-1,0-1.8,0.8-1.8,1.8v17.5c0,1,0.8,1.8,1.8,1.8h4.7c1,0,1.8-0.8,1.8-1.8c0-2.7,2.9-4.9,6.6-4.9s6.6,2.2,6.6,4.9
		c0,1,0.8,1.8,1.8,1.8h41.6c1,0,1.8-0.8,1.8-1.8v-34.9C967.2,371.2,967.2,371.1,967.2,371.1z M945.5,355.7l3,2.7
		c-1.1,1.1-1.7,2.5-1.7,4c0,3.3,3.2,6.1,7.1,6.1c1.6,0,3.1-0.5,4.4-1.3l2.4,2.2h-49.1L945.5,355.7z M963.6,404.4h-38.3
		c-1-3.8-5.1-6.7-9.9-6.7c-4.9,0-8.9,2.9-9.9,6.7h-1.3v-14.1c3.8-0.7,6.6-3.5,6.6-6.9c0-3.4-2.8-6.2-6.6-6.9V373h59.5L963.6,404.4
		L963.6,404.4z"/>
	<path class="st15" d="M935.8,360.8c-2.3,0-4.2,1.9-4.2,4.2s1.9,4.2,4.2,4.2c2.3,0,4.2-1.9,4.2-4.2S938.1,360.8,935.8,360.8z
		 M935.8,365.6c-0.3,0-0.6-0.3-0.6-0.6c0-0.3,0.3-0.6,0.6-0.6s0.6,0.3,0.6,0.6C936.4,365.3,936.1,365.6,935.8,365.6z"/>
</g>
<g>
	<path class="st16" d="M880.5,335.7c0-0.5-1.3-10.9-9.5-20.9c1-1,1.6-2.4,1.6-3.9l0-1.5c0-3.1-2.5-5.6-5.6-5.6l-32.4,0
		c-3.1,0-5.6,2.5-5.6,5.6l0,1.5c0,1.5,0.6,2.9,1.6,3.9c-8.2,10-9.5,20.5-9.5,20.9c0,0.1,0,0.1,0,0.2l0,65.6c0,3.5,2.9,6.4,6.4,6.4
		l46.8,0c3.5,0,6.4-2.9,6.4-6.4l0-65.6C880.6,335.8,880.5,335.8,880.5,335.7z M877,401.5c0,1.6-1.3,2.8-2.8,2.8l-46.8,0
		c-1.6,0-2.8-1.3-2.8-2.8l0-65.5c0.1-1,1.6-10.2,8.7-18.9l35.2,0c7.1,8.7,8.5,17.9,8.6,18.9L877,401.5L877,401.5z M869.1,309.4
		l0,1.5c0,1.2-0.9,2.1-2.1,2.1l-32.4,0c-1.2,0-2.1-0.9-2.1-2.1l0-1.5c0-1.2,0.9-2.1,2.1-2.1l32.4,0
		C868.1,307.3,869.1,308.2,869.1,309.4z"/>
	<path class="st16" d="M828.4,337.9c-0.5,0-0.9,0.2-1.3,0.5c-0.3,0.3-0.5,0.8-0.5,1.3l0,52.5c0,3.5,2.8,6.3,6.3,6.3l35.8,0
		c3.5,0,6.3-2.8,6.3-6.3l0-59.9c0-0.8-0.5-1.4-1.2-1.7c-0.5-0.2-5.6-1.6-17.2,3.2C845.8,338.2,828.6,337.9,828.4,337.9z
		 M871.5,333.8l0,58.4c0,1.5-1.2,2.8-2.8,2.8l-35.8,0c-1.5,0-2.8-1.2-2.8-2.8l0-50.7c4.9,0,18.3-0.5,27.9-4.4
		C865.2,334.1,869.5,333.7,871.5,333.8z"/>
</g>
<g>
	<path class="st5" d="M1089.1,385.1l0.3-1.5c0.6-2.7,1-5.6,1.2-8.5c0.1-3,0-5.9-0.4-8.6l-0.2-1.5l1.4-0.6c4.4-2,10.1-2.9,15.9-2.7
		c13.2,0.6,23.3,6.8,23.5,14.5c0,0.2,0,0.4,0,0.6c-0.3,7.9-11.2,13.6-24.7,13c-5.8-0.3-11.4-1.7-15.7-4.1L1089.1,385.1z
		 M1094.6,371.4c0,1.3,0,2.6,0,3.9c-0.1,2.7-0.4,5.3-0.9,7.7c3.5,1.7,8,2.7,12.6,2.9c10.9,0.5,20.3-3.7,20.6-9.2c0-0.1,0-0.2,0-0.4
		c-0.1-4.7-8.1-10.1-19.7-10.7c-4.6-0.2-9.1,0.4-12.8,1.8C1094.5,368.8,1094.6,370.1,1094.6,371.4z"/>
</g>
<g>
	<path class="st5" d="M1062.7,376.8c-0.2-5.8,7.1-10.7,16.5-11.3c0.9-0.1,1.8-0.1,2.7,0l1.8,0.1l1.3,20.4l-1.8,0.3
		c-0.9,0.1-1.8,0.2-2.7,0.3c-9.6,0.6-17.4-3.5-17.8-9.4L1062.7,376.8z M1079.9,369.4c-0.2,0-0.3,0-0.5,0c-7.6,0.5-12.9,4.2-12.8,7.2
		l0,0.1c0.2,3.1,5.8,6.2,13.6,5.7c0.2,0,0.3,0,0.5,0L1079.9,369.4z"/>
</g>
<g id="Animals_45_">
	<g>
		<g id="Artboard_29_" transform="translate(-3113.000000, -1056.000000)">
			<g id="noun_bag_606249_17_">
				<g transform="translate(3113.000000, 1056.000000)">
					<g id="Group_17_">
						<g transform="translate(0.215533, 0.000000)">
							<path id="Shape_20_" d="M1202.5,406.8c-0.3,0-0.5,0-0.8,0.1c-1,0.2-2.2,0.9-3.5,2l-20.7,0c-1.1-0.9-2.1-1.6-3-1.8
								c-1-0.2-1.8-0.1-2-0.1h0c0,0,0,0,0,0c0,0,0,0,0,0c-0.2,0-0.6,0-0.9,0.3c-0.8,0.6-1.1,1.6-1.2,3c0,1.3,0.4,3,1.3,4.9
								c-0.5,3.3-0.8,8.4-0.8,14.2s0.3,10.9,0.8,14.2c-0.9,1.9-1.4,3.6-1.3,4.9c0,1.4,0.4,2.4,1.2,3c1.1,0.8,3.4,0.8,6.1-1.6l20.7,0
								c2.7,2.4,5,2.4,6.1,1.6c0.8-0.6,1.1-1.6,1.2-3c0-1.3-0.4-3-1.3-4.9c0.5-3.3,0.8-8.4,0.8-14.2c0-5.8-0.3-10.9-0.8-14.2
								c0.9-1.9,1.4-3.6,1.3-4.9c0-1.4-0.4-2.4-1.2-3C1203.9,407,1203.3,406.8,1202.5,406.8z M1202.9,408.7c0.2,0,0.3,0.1,0.3,0.1
								c-0.1-0.1,0.4,0.5,0.4,1.6c0,1-0.2,2.5-1.2,4.3c-0.1,0.2-0.1,0.4-0.1,0.6c0.5,3.1,0.8,8.3,0.8,14.1c0,5.9-0.3,11-0.8,14.1
								c0,0.2,0,0.4,0.1,0.6c1,1.8,1.3,3.3,1.2,4.3c0,1-0.5,1.6-0.4,1.6c-0.1,0.1-1.6,0.8-4.1-1.7c-0.2-0.2-0.4-0.3-0.7-0.3l-21.1,0
								c-0.3,0-0.5,0.1-0.7,0.3c-2.5,2.5-4,1.8-4.1,1.7c0.1,0.1-0.4-0.5-0.4-1.6c0-1,0.2-2.5,1.2-4.3c0.1-0.2,0.1-0.4,0.1-0.6
								c-0.5-3.1-0.8-8.3-0.8-14.1c0-5.9,0.3-11,0.8-14.1c0-0.2,0-0.4-0.1-0.6c-1-1.8-1.3-3.3-1.2-4.3c0-1,0.4-1.5,0.4-1.5
								c0.5,0,1-0.1,1.6,0.1c0.7,0.1,1.5,0.5,2.5,1.5c0.2,0.2,0.4,0.3,0.7,0.3l21.1,0c0.3,0,0.5-0.1,0.7-0.3
								c1.2-1.2,2.2-1.7,2.9-1.8C1202.4,408.6,1202.7,408.6,1202.9,408.7z M1177.5,421.9c-0.5,0-0.9,0.4-0.9,0.9l0,11.2
								c0,0.5,0.4,0.9,0.9,0.9l20.8,0c0.5,0,0.9-0.4,0.9-0.9l0-11.2c0-0.5-0.4-0.9-0.9-0.9L1177.5,421.9z M1178.5,423.8l18.9,0
								l0,9.3l-18.9,0L1178.5,423.8z"/>
						</g>
					</g>
				</g>
			</g>
		</g>
	</g>
</g>
<g>
	<path d="M1279.9,379.3h-7.9c-0.6,0-1.1-0.5-1.1-1.1v-7.9c0-0.6,0.5-1.1,1.1-1.1h7.9c0.6,0,1.1,0.5,1.1,1.1v7.9
		C1281.1,378.8,1280.5,379.3,1279.9,379.3z M1273.2,377h5.6v-5.6h-5.6V377z"/>
	<path d="M1289.2,406.8h-26.4c-0.6,0-1.1-0.5-1.1-1.1v-20.1c0-0.6,0.5-1.1,1.1-1.1h26.4c0.6,0,1.1,0.5,1.1,1.1v20.1
		C1290.3,406.3,1289.8,406.8,1289.2,406.8z M1263.9,404.5h24.1v-17.8h-24.1V404.5z"/>
	<path d="M1295.6,406.8h-39.3c-0.6,0-1.1-0.5-1.1-1.1v-26.1h-2.8c-0.6,0-1.1-0.5-1.1-1.1c0-0.2,0.1-0.4,0.2-0.6l7.5-11.6
		c0.1-0.2,0.3-0.4,0.6-0.4l16-5.8c0.2-0.1,0.5-0.1,0.8,0l16,5.8c0.2,0.1,0.4,0.2,0.6,0.4l7.5,11.6c0.3,0.5,0.2,1.2-0.3,1.6
		c-0.2,0.1-0.4,0.2-0.6,0.2h-2.8v26.1C1296.8,406.3,1296.3,406.8,1295.6,406.8z M1257.5,404.5h37v-26.1c0-0.6,0.5-1.1,1.1-1.1h1.8
		l-6.2-9.6l-15.3-5.6l-15.3,5.6l-6.2,9.6h1.8c0.6,0,1.1,0.5,1.1,1.1V404.5z"/>
	<path d="M1289.2,406.8c-0.2,0-0.5-0.1-0.7-0.2l-26.4-20.1c-0.5-0.4-0.6-1.1-0.2-1.6c0.4-0.5,1.1-0.6,1.6-0.2l26.4,20.1
		c0.5,0.4,0.6,1.1,0.2,1.6C1289.9,406.6,1289.5,406.8,1289.2,406.8z"/>
	<path d="M1262.8,406.8c-0.6,0-1.1-0.5-1.1-1.1c0-0.3,0.2-0.7,0.4-0.9l26.4-20.1c0.5-0.4,1.2-0.3,1.6,0.2c0.4,0.5,0.3,1.2-0.2,1.6
		l-26.4,20.1C1263.3,406.7,1263.1,406.8,1262.8,406.8z"/>
</g>
<g id="Animals_1_">
	<g>
		<g id="Artboard_28_" transform="translate(-3113.000000, -1056.000000)">
			<g id="noun_bag_606249_16_">
				<g transform="translate(3113.000000, 1056.000000)">
					<g id="Group_16_">
						<g transform="translate(0.215533, 0.000000)">
							<path id="Shape_19_" d="M1240.2,406.7c-0.3,0-0.5,0-0.8,0.1c-1,0.2-2.2,0.9-3.5,2l-20.7,0c-1.1-0.9-2.1-1.6-3-1.8
								c-1-0.2-1.8-0.1-2-0.1h0c0,0,0,0,0,0c0,0,0,0,0,0c-0.2,0-0.6,0-0.9,0.3c-0.8,0.6-1.1,1.6-1.2,3c0,1.3,0.4,3,1.3,4.9
								c-0.5,3.3-0.8,8.4-0.8,14.2c0,5.8,0.3,10.9,0.8,14.2c-0.9,1.9-1.4,3.6-1.3,4.9c0,1.4,0.4,2.4,1.2,3c1.1,0.8,3.4,0.8,6.1-1.6
								l20.7,0c2.7,2.4,5,2.4,6.1,1.6c0.8-0.6,1.1-1.6,1.2-3c0-1.3-0.4-3-1.3-4.9c0.5-3.3,0.8-8.4,0.8-14.2c0-5.8-0.3-10.9-0.8-14.2
								c0.9-1.9,1.4-3.6,1.3-4.9c0-1.4-0.4-2.4-1.2-3C1241.6,407,1241,406.7,1240.2,406.7z M1240.6,408.6c0.2,0,0.3,0.1,0.3,0.1
								c-0.1-0.1,0.4,0.5,0.4,1.6c0,1-0.2,2.5-1.2,4.3c-0.1,0.2-0.1,0.4-0.1,0.6c0.5,3.1,0.8,8.3,0.8,14.1c0,5.9-0.3,11-0.8,14.1
								c0,0.2,0,0.4,0.1,0.6c1,1.8,1.3,3.3,1.2,4.3c0,1-0.5,1.6-0.4,1.6c-0.1,0.1-1.6,0.8-4.1-1.7c-0.2-0.2-0.4-0.3-0.7-0.3l-21.1,0
								c-0.3,0-0.5,0.1-0.7,0.3c-2.5,2.5-4,1.8-4.1,1.7c0.1,0.1-0.4-0.5-0.4-1.6c0-1,0.2-2.5,1.2-4.3c0.1-0.2,0.1-0.4,0.1-0.6
								c-0.5-3.1-0.8-8.3-0.8-14.1c0-5.9,0.3-11,0.8-14.1c0-0.2,0-0.4-0.1-0.6c-1-1.8-1.3-3.3-1.2-4.3c0-1,0.4-1.5,0.4-1.5
								c0.5,0,1-0.1,1.6,0.1c0.7,0.1,1.5,0.5,2.5,1.5c0.2,0.2,0.4,0.3,0.7,0.3l21.1,0c0.3,0,0.5-0.1,0.7-0.3
								c1.2-1.2,2.2-1.7,2.9-1.8C1240.1,408.6,1240.4,408.6,1240.6,408.6z M1215.2,421.9c-0.5,0-0.9,0.4-0.9,0.9l0,11.2
								c0,0.5,0.4,0.9,0.9,0.9l20.8,0c0.5,0,0.9-0.4,0.9-0.9l0-11.2c0-0.5-0.4-0.9-0.9-0.9L1215.2,421.9z M1216.1,423.7l18.9,0
								l0,9.3l-18.9,0L1216.1,423.7z"/>
						</g>
					</g>
				</g>
			</g>
		</g>
	</g>
</g>
<g id="Animals_3_">
	<g>
		<g id="Artboard_27_" transform="translate(-3113.000000, -1056.000000)">
			<g id="noun_bag_606249_15_">
				<g transform="translate(3113.000000, 1056.000000)">
					<g id="Group_15_">
						<g transform="translate(0.215533, 0.000000)">
							<path id="Shape_18_" d="M1277.8,406.4c-0.3,0-0.5,0-0.8,0.1c-1,0.2-2.2,0.9-3.5,2l-20.7,0c-1.1-0.9-2.1-1.6-3-1.8
								c-1-0.2-1.8-0.1-2-0.1h0c0,0,0,0,0,0c0,0,0,0,0,0c-0.2,0-0.6,0-0.9,0.3c-0.8,0.6-1.1,1.6-1.2,3c0,1.3,0.4,3,1.3,4.9
								c-0.5,3.3-0.8,8.4-0.8,14.2c0,5.8,0.3,10.9,0.8,14.2c-0.9,1.9-1.4,3.6-1.3,4.9c0,1.4,0.4,2.4,1.2,3c1.1,0.8,3.4,0.8,6.1-1.6
								l20.7,0c2.7,2.4,5,2.4,6.1,1.6c0.8-0.6,1.1-1.6,1.2-3c0-1.3-0.4-3-1.3-4.9c0.5-3.3,0.8-8.4,0.8-14.2s-0.3-10.9-0.8-14.2
								c0.9-1.9,1.4-3.6,1.3-4.9c0-1.4-0.4-2.4-1.2-3C1279.2,406.6,1278.6,406.4,1277.8,406.4z M1278.2,408.3c0.2,0,0.3,0.1,0.3,0.1
								c-0.1-0.1,0.4,0.5,0.4,1.6c0,1-0.2,2.5-1.2,4.3c-0.1,0.2-0.1,0.4-0.1,0.6c0.5,3.1,0.8,8.3,0.8,14.1c0,5.9-0.3,11-0.8,14.1
								c0,0.2,0,0.4,0.1,0.6c1,1.8,1.3,3.3,1.2,4.3c0,1-0.5,1.6-0.4,1.6c-0.1,0.1-1.6,0.8-4.1-1.7c-0.2-0.2-0.4-0.3-0.7-0.3l-21.1,0
								c-0.3,0-0.5,0.1-0.7,0.3c-2.5,2.5-4,1.8-4.1,1.7c0.1,0.1-0.4-0.5-0.4-1.6c0-1,0.2-2.5,1.2-4.3c0.1-0.2,0.1-0.4,0.1-0.6
								c-0.5-3.1-0.8-8.3-0.8-14.1c0-5.9,0.3-11,0.8-14.1c0-0.2,0-0.4-0.1-0.6c-1-1.8-1.3-3.3-1.2-4.3c0-1,0.4-1.5,0.4-1.5
								c0.5,0,1-0.1,1.6,0.1c0.7,0.1,1.5,0.5,2.5,1.5c0.2,0.2,0.4,0.3,0.7,0.3l21.1,0c0.3,0,0.5-0.1,0.7-0.3
								c1.2-1.2,2.2-1.7,2.9-1.8C1277.7,408.2,1278,408.3,1278.2,408.3z M1252.8,421.5c-0.5,0-0.9,0.4-0.9,0.9l0,11.2
								c0,0.5,0.4,0.9,0.9,0.9l20.8,0c0.5,0,0.9-0.4,0.9-0.9l0-11.2c0-0.5-0.4-0.9-0.9-0.9L1252.8,421.5z M1253.7,423.4l18.9,0
								l0,9.3l-18.9,0L1253.7,423.4z"/>
						</g>
					</g>
				</g>
			</g>
		</g>
	</g>
</g>
<g id="Animals_5_">
	<g>
		<g id="Artboard_26_" transform="translate(-3113.000000, -1056.000000)">
			<g id="noun_bag_606249_14_">
				<g transform="translate(3113.000000, 1056.000000)">
					<g id="Group_14_">
						<g transform="translate(0.215533, 0.000000)">
							<path id="Shape_17_" d="M1222.8,449c-0.3,0-0.5,0-0.8,0.1c-1,0.2-2.2,0.9-3.5,2l-20.7,0c-1.1-0.9-2.1-1.6-3-1.8
								c-1-0.2-1.8-0.1-2-0.1h0c0,0,0,0,0,0c0,0,0,0,0,0c-0.2,0-0.6,0-0.9,0.3c-0.8,0.6-1.1,1.6-1.2,3c0,1.3,0.4,3,1.3,4.9
								c-0.5,3.3-0.8,8.4-0.8,14.2c0,5.8,0.3,10.9,0.8,14.2c-0.9,1.9-1.4,3.6-1.3,4.9c0,1.4,0.4,2.4,1.2,3c1.1,0.8,3.4,0.8,6.1-1.6
								l20.7,0c2.7,2.4,5,2.4,6.1,1.6c0.8-0.6,1.1-1.6,1.2-3c0-1.3-0.4-3-1.3-4.9c0.5-3.3,0.8-8.4,0.8-14.2s-0.3-10.9-0.8-14.2
								c0.9-1.9,1.4-3.6,1.3-4.9c0-1.4-0.4-2.4-1.2-3C1224.2,449.2,1223.6,449,1222.8,449z M1223.2,450.9c0.2,0,0.3,0.1,0.3,0.1
								c-0.1-0.1,0.4,0.5,0.4,1.6c0,1-0.2,2.5-1.2,4.3c-0.1,0.2-0.1,0.4-0.1,0.6c0.5,3.1,0.8,8.3,0.8,14.1c0,5.9-0.3,11-0.8,14.1
								c0,0.2,0,0.4,0.1,0.6c1,1.8,1.3,3.3,1.2,4.3c0,1-0.5,1.6-0.4,1.6c-0.1,0.1-1.6,0.8-4.1-1.7c-0.2-0.2-0.4-0.3-0.7-0.3l-21.1,0
								c-0.3,0-0.5,0.1-0.7,0.3c-2.5,2.5-4,1.8-4.1,1.7c0.1,0.1-0.4-0.5-0.4-1.6c0-1,0.2-2.5,1.2-4.3c0.1-0.2,0.1-0.4,0.1-0.6
								c-0.5-3.1-0.8-8.3-0.8-14.1c0-5.9,0.3-11,0.8-14.1c0-0.2,0-0.4-0.1-0.6c-1-1.8-1.3-3.3-1.2-4.3c0-1,0.4-1.5,0.4-1.5
								c0.5,0,1-0.1,1.6,0.1c0.7,0.1,1.5,0.5,2.5,1.5c0.2,0.2,0.4,0.3,0.7,0.3l21.1,0c0.3,0,0.5-0.1,0.7-0.3
								c1.2-1.2,2.2-1.7,2.9-1.8C1222.7,450.8,1223,450.8,1223.2,450.9z M1197.8,464.1c-0.5,0-0.9,0.4-0.9,0.9l0,11.2
								c0,0.5,0.4,0.9,0.9,0.9l20.8,0c0.5,0,0.9-0.4,0.9-0.9l0-11.2c0-0.5-0.4-0.9-0.9-0.9L1197.8,464.1z M1198.7,466l18.9,0l0,9.3
								l-18.9,0L1198.7,466z"/>
						</g>
					</g>
				</g>
			</g>
		</g>
	</g>
</g>
<g id="Animals_7_">
	<g>
		<g id="Artboard_25_" transform="translate(-3113.000000, -1056.000000)">
			<g id="noun_bag_606249_13_">
				<g transform="translate(3113.000000, 1056.000000)">
					<g id="Group_13_">
						<g transform="translate(0.215533, 0.000000)">
							<path id="Shape_16_" d="M1260.7,447.9c-0.3,0-0.5,0-0.8,0.1c-1,0.2-2.2,0.9-3.5,2l-20.7,0c-1.1-0.9-2.1-1.6-3-1.8
								c-1-0.2-1.8-0.1-2-0.1h0c0,0,0,0,0,0c0,0,0,0,0,0c-0.2,0-0.6,0-0.9,0.3c-0.8,0.6-1.1,1.6-1.2,3c0,1.3,0.4,3,1.3,4.9
								c-0.5,3.3-0.8,8.4-0.8,14.2c0,5.8,0.3,10.9,0.8,14.2c-0.9,1.9-1.4,3.6-1.3,4.9c0,1.4,0.4,2.4,1.2,3c1.1,0.8,3.4,0.8,6.1-1.6
								l20.7,0c2.7,2.4,5,2.4,6.1,1.6c0.8-0.6,1.1-1.6,1.2-3c0-1.3-0.4-3-1.3-4.9c0.5-3.3,0.8-8.4,0.8-14.2c0-5.8-0.3-10.9-0.8-14.2
								c0.9-1.9,1.4-3.6,1.3-4.9c0-1.4-0.4-2.4-1.2-3C1262.1,448.2,1261.4,447.9,1260.7,447.9z M1261,449.9c0.2,0,0.3,0.1,0.3,0.1
								c-0.1-0.1,0.4,0.5,0.4,1.6c0,1-0.2,2.5-1.2,4.3c-0.1,0.2-0.1,0.4-0.1,0.6c0.5,3.1,0.8,8.3,0.8,14.1c0,5.9-0.3,11-0.8,14.1
								c0,0.2,0,0.4,0.1,0.6c1,1.8,1.3,3.3,1.2,4.3c0,1-0.5,1.6-0.4,1.6c-0.1,0.1-1.6,0.8-4.1-1.7c-0.2-0.2-0.4-0.3-0.7-0.3l-21.1,0
								c-0.3,0-0.5,0.1-0.7,0.3c-2.5,2.5-4,1.8-4.1,1.7c0.1,0.1-0.4-0.5-0.4-1.6c0-1,0.2-2.5,1.2-4.3c0.1-0.2,0.1-0.4,0.1-0.6
								c-0.5-3.1-0.8-8.3-0.8-14.1c0-5.9,0.3-11,0.8-14.1c0-0.2,0-0.4-0.1-0.6c-1-1.8-1.3-3.3-1.2-4.3c0-1,0.4-1.5,0.4-1.5
								c0.5,0,1-0.1,1.6,0.1c0.7,0.1,1.5,0.5,2.5,1.5c0.2,0.2,0.4,0.3,0.7,0.3l21.1,0c0.3,0,0.5-0.1,0.7-0.3
								c1.2-1.2,2.2-1.7,2.9-1.8C1260.6,449.8,1260.8,449.8,1261,449.9z M1235.7,463.1c-0.5,0-0.9,0.4-0.9,0.9l0,11.2
								c0,0.5,0.4,0.9,0.9,0.9l20.8,0c0.5,0,0.9-0.4,0.9-0.9l0-11.2c0-0.5-0.4-0.9-0.9-0.9L1235.7,463.1z M1236.6,465l18.9,0l0,9.3
								l-18.9,0L1236.6,465z"/>
						</g>
					</g>
				</g>
			</g>
		</g>
	</g>
</g>
<path class="st19" d="M648.6,502.5l0,32.6c0,1.3,1.1,2.4,2.4,2.4l24,0c1.3,0,2.4-1.1,2.4-2.4l0-11.2l17.8,13.2c0.8,0.6,2,0.6,2.9,0
	l64.9-48.1c0.6-0.4,1-1.2,1-1.9l0-19.2c0-1.3-1.1-2.4-2.4-2.4c-0.5,0-1,0.2-1.4,0.5l-5.8,4.3l0-62.5c0-1.3-1.1-2.4-2.4-2.4
	l-110.5,0.1c-1.3,0-2.4,1.1-2.4,2.4l0,62.5l-5.8-4.3c-1.1-0.8-2.6-0.6-3.4,0.5c-0.3,0.4-0.5,0.9-0.5,1.4l0,19.2c0,0.8,0.4,1.5,1,1.9
	L648.6,502.5z M672.7,532.7l-19.2,0l0-26.4l19.2,14.4L672.7,532.7z M735.1,410.1l0,45.7l-28.8,0l0-45.7L735.1,410.1z M643.8,410.1
	l57.7,0l0,48.1c0,1.3,1.1,2.4,2.4,2.4l33.6,0c1.3,0,2.4-1.1,2.4-2.4l0-48.1l9.6,0l0,63.6l-52.8,39.2l-52.9-39.1L643.8,410.1z
	 M634.2,472.6l5.6,4.1c0,0,0,0.2,0.2,0.2l55,40.5l0.4,0.3c0.8,0.6,2,0.6,2.9,0l0.4-0.3l54.9-40.6c0,0,0.1-0.2,0.2-0.2l5.6-4.1
	l0,13.2l-62.5,46.3l-62.5-46.2L634.2,472.6z"/>
<path class="st19" d="M689.4,428.9l-31.2,0c-1.3,0-2.4,1.1-2.4,2.4l0,31.2c0,1.3,1.1,2.4,2.4,2.4l31.2,0c1.3,0,2.4-1.1,2.4-2.4
	l0-31.2C691.8,430,690.8,428.9,689.4,428.9z M687,443.3l-11.2,0l0-9.6l11.2,0L687,443.3z M671,433.7l0,9.6l-10.4,0l0-9.6L671,433.7z
	 M660.6,448.1l10.4,0l0,12l-10.4,0L660.6,448.1z M675.8,460.2l0-12l11.2,0l0,12L675.8,460.2z"/>
<line class="st20" x1="47.1" y1="407" x2="1345.9" y2="406.4"/>
</svg>
