<?xml version="1.0" encoding="utf-8"?>
<!-- Generator: Adobe Illustrator 23.1.1, SVG Export Plug-In . SVG Version: 6.00 Build 0)  -->
<svg version="1.1" id="Ebene_1" xmlns="http://www.w3.org/2000/svg" xmlns:xlink="http://www.w3.org/1999/xlink" x="0px" y="0px"
	 viewBox="0 0 1366 768" style="enable-background:new 0 0 1366 768;" xml:space="preserve">
<style type="text/css">
	.st0{fill:#5C6A7D;}
	.st1{fill:#36485E;}
	.st2{fill-rule:evenodd;clip-rule:evenodd;fill:#253854;}
	.st3{fill-rule:evenodd;clip-rule:evenodd;fill:#1C2A40;}
	.st4{opacity:0.1;fill:#5C6A7D;}
	.st5{stroke:#FFFFFF;stroke-width:1.1226;stroke-miterlimit:10;}
	.st6{stroke:#FFFFFF;stroke-width:2;}
	.st7{fill:none;stroke:#000000;stroke-width:2.2451;}
	.st8{stroke:#FFFFFF;stroke-width:2.2451;}
	.st9{stroke:#FFFFFF;stroke-width:0.3996;}
	.st10{stroke:#000000;stroke-width:2;stroke-miterlimit:10;}
	.st11{fill:none;stroke:#000000;stroke-width:1.5576;stroke-miterlimit:10;}
	.st12{fill:none;stroke:#000000;stroke-width:2.4921;stroke-miterlimit:10;}
	.st13{fill:#FFFFFF;}
	.st14{fill:none;stroke:#000000;stroke-width:2;stroke-miterlimit:10;}
	.st15{stroke:#FFFFFF;stroke-width:0.8419;stroke-miterlimit:10;}
	.st16{stroke:#FFFFFF;stroke-width:0.9022;stroke-miterlimit:10;}
	.st17{fill:none;stroke:#1C2A40;stroke-width:2.2451;stroke-miterlimit:10;}
	.st18{fill:#1C2A40;}
	.st19{font-family:'Roboto-Black';}
	.st20{font-size:19.18px;}
	.st21{font-family:'Roboto-Regular';}
	.st22{fill:none;}
	.st23{stroke:#FFFFFF;stroke-miterlimit:10;}
</style>
<g>
	<text transform="matrix(1 0 0 1 93.7443 80.8129)"><tspan x="0" y="0" class="st18 st19 st20">1. Make your own rules:</tspan><tspan x="207.6" y="0" class="st18 st21 st20"> </tspan><tspan x="0" y="23" class="st18 st21 st20">e.g. a &quot;once a day/week rule&quot;, </tspan><tspan x="0" y="46" class="st18 st21 st20">changing from larger to smaller quantities </tspan><tspan x="0" y="69" class="st18 st21 st20">and take the pressure off: every reduction is great!</tspan></text>
	<rect x="84" y="55" class="st4" width="445" height="111"/>
</g>
<g>
	<text transform="matrix(1 0 0 1 89.3879 407.4289)"><tspan x="0" y="0" class="st18 st19 st20">3. If you miss the taste of meat,</tspan><tspan x="0" y="23" class="st18 st21 st20"> you are well served with strongly spiced dishes like curries. </tspan><tspan x="0" y="46" class="st18 st21 st20">Also &quot;as if&quot; versions, for example noodles with soy Bolognese sauce </tspan><tspan x="0" y="69" class="st18 st21 st20">or sliced meat with seitan, are a good alternative for some people.</tspan><tspan x="0" y="115.1" class="st18 st21 st20">Others, e.g. celebrity chef Jamie Oliver prefer to cook without </tspan><tspan x="0" y="138.1" class="st18 st21 st20">trying to replace meat - because meat alternatives such as tofu etc. </tspan><tspan x="0" y="161.1" class="st18 st21 st20">are often not well received by meat eaters</tspan></text>
	<rect x="83" y="384" class="st4" width="594" height="197"/>
</g>
<g>
	<g>
		<text transform="matrix(1 0 0 1 811.8752 236.6818)"><tspan x="0" y="0" class="st18 st19 st20">2. Do not fear protein deficiency</tspan><tspan x="278.8" y="0" class="st18 st21 st20"> by eating less meat! </tspan><tspan x="0" y="23" class="st18 st21 st20">You can still follow a healthy, balanced diet: </tspan><tspan x="0" y="46" class="st18 st21 st20">Legumes, vegetables, cereals and dairy products </tspan><tspan x="0" y="69" class="st18 st21 st20">are high-quality sources of protein.</tspan><tspan x="0" y="92.1" class="st18 st21 st20">Some of the best athletes in the world are vegans!</tspan></text>
	</g>
	<rect x="806" y="218" class="st4" width="467" height="119"/>
</g>
<g>
	<text transform="matrix(1 0 0 1 797.0947 576.6523)"><tspan x="0" y="0" class="st18 st19 st20">4. If you eat meat,</tspan><tspan x="156.4" y="0" class="st18 st21 st20"> then it should be organic </tspan><tspan x="0" y="23" class="st18 st21 st20">and from species-appropriate, regional production, </tspan><tspan x="0" y="46" class="st18 st21 st20">preferably from the direct marketer. </tspan><tspan x="0" y="69" class="st18 st21 st20">Find out whether there are suppliers of organic meat </tspan><tspan x="0" y="92.1" class="st18 st21 st20">in your region. Make sure the animal feed is not coming </tspan><tspan x="0" y="115.1" class="st18 st21 st20">from overseas. And you just learned which animals </tspan><tspan x="0" y="138.1" class="st18 st21 st20">cause the least CO2 equivalents!</tspan></text>
	<rect x="790" y="557" class="st4" width="484" height="168"/>
</g>
<g>
	<path d="M950.6,462.4h-3.7l4.7-19.8c0.1-0.5-0.2-1.1-0.7-1.2l-4-1c-0.5-0.1-1.1,0.2-1.2,0.7l-5.8,21.3h-2.3c0.7-0.9,1-1.9,1-3v-3
		h-3c-2.4,0-4.5,1.7-4.9,4.1c-1.6-2.2-4.6-2.8-6.9-1.3c-0.1,0.1-0.2,0.1-0.3,0.2c2-8.8,2-8.9,2-9.1c0-2.2-1.8-4-4-4
		c-0.1,0-0.2,0-0.4,0c-1.1-3.1-4.5-4.8-7.6-3.7c-1.7,0.6-3.1,2-3.7,3.7c-2.2-0.2-4.1,1.4-4.3,3.6c0,0.1,0,0.2,0,0.3
		c0,0.3,0,0.7,1.7,6.1c-0.2,0-0.5-0.1-0.7-0.1h-3v3c0,1.1,0.4,2.1,1,3h-4c-0.6,0-1,0.4-1,1c0,9.3,8.7,15.2,11,16.6v3.4
		c0,0.6,0.4,1,1,1h28c0.6,0,1-0.4,1-1V480c2.3-1.4,11-7.3,11-16.6C951.6,462.9,951.2,462.4,950.6,462.4z M947.3,442.6l2.1,0.5
		l-4.6,19.3H942L947.3,442.6z M932.6,461.4c0-1.7,1.3-3,3-3h1v1c0,1.7-1.3,3-3,3h-1V461.4z M926.6,460.4c1.3,0,2.4,0.8,2.8,2h-5.7
		C924.2,461.2,925.4,460.4,926.6,460.4z M921.5,462.4h-5.7c0.6-1.6,2.3-2.4,3.8-1.8C920.5,460.9,921.2,461.6,921.5,462.4z
		 M907.6,450.4c0-1.1,0.8-2,1.9-2c0.3,0,0.5,0,0.8,0.2c0.5,0.2,1.1-0.1,1.3-0.6c0-0.1,0-0.1,0.1-0.2c0.3-2.2,2.4-3.7,4.5-3.3
		c1.7,0.3,3.1,1.6,3.3,3.3c0.1,0.5,0.6,0.9,1.1,0.8c0.1,0,0.1,0,0.2-0.1c1-0.4,2.2,0.1,2.6,1.1c0.1,0.2,0.1,0.5,0.2,0.7
		c-0.1,0.7-1.3,5.7-2.1,9c-0.8-0.6-1.9-1-2.9-1c-2.4,0-4.4,1.7-4.9,4h-2.1v-1c0-1.5-0.7-2.9-1.9-3.9
		C907.9,451.8,907.7,450.6,907.6,450.4z M905.6,459.4v-1h1c1.7,0,3,1.3,3,3v1h-1C907,462.4,905.6,461.1,905.6,459.4z M939.4,478.4
		h-4.7v2h4v2h-26v-2h13v-2h-13.7c-1.1-0.7-6.8-4.3-9.2-10h11v-2H902c-0.2-0.7-0.3-1.3-0.3-2h47.9c-0.1,0.7-0.2,1.3-0.3,2h-21.6v2h21
		C946.2,474.1,940.5,477.8,939.4,478.4z"/>
	<rect x="915.6" y="466.4" width="2" height="2"/>
	<rect x="919.6" y="466.4" width="2" height="2"/>
	<rect x="923.6" y="466.4" width="2" height="2"/>
	<path d="M924.1,439.8c-0.3,0.6-0.3,1.2-0.2,1.8c0.4,2,2.8,4.1,5.4,4.8c2,0.6,4.1,0.9,6.2,1h0c0.6,0,1-0.4,1-1
		c0-0.2-0.1-0.4-0.2-0.6c0,0-1.1-1.6-3-4c-0.8-1.1-3.1-3.7-5.6-4c-0.8-0.1-1.6,0.1-2.3,0.4c-1.1-0.5-1.9-1.6-1.9-2.9h-2
		C921.6,437.2,922.6,438.9,924.1,439.8z M927.3,439.8c0.1,0,0.2,0,0.2,0c1.2,0.1,2.9,1.4,4.3,3.2c0.6,0.8,1.2,1.6,1.6,2.2
		c-1.2-0.2-2.4-0.4-3.6-0.7c-2.1-0.6-3.7-2.1-4-3.3c-0.1-0.4,0-0.8,0.4-1C926.6,440,926.9,439.8,927.3,439.8L927.3,439.8z"/>
	<rect x="911.6" y="452.4" width="2" height="2"/>
	<rect x="916.6" y="454.4" width="2" height="2"/>
	<path d="M904.6,440.4c0.3,0,1.2,0.1,2.5,0.1c2.5,0,6.2-0.2,8.1-1.2c1.2-0.7,2.2-1.9,2.6-3.3c0.5-1.3,0.4-2.8-0.2-4.1
		c-1.2-2.3-5-2.7-7.4-1.4c-2.9,1.5-6.1,7.7-6.4,8.4c-0.3,0.5-0.1,1.1,0.4,1.3C904.3,440.4,904.4,440.4,904.6,440.4z M910.4,434.9
		l-3,1.8c0.5-0.7,1-1.5,1.5-2.2L910.4,434.9z M911.6,436.5v1.7c-1.1,0.1-2.2,0.2-3.4,0.3L911.6,436.5z M915.8,435.4
		c-0.2,0.9-0.8,1.7-1.6,2.1c-0.2,0.1-0.4,0.2-0.5,0.2v-2.4l2.4-1.4C916,434.4,915.9,434.9,915.8,435.4L915.8,435.4z M915,432.2
		l-2.1,1.2l0,0l-2.5-0.6c0.2-0.2,0.5-0.4,0.7-0.5C912.3,431.7,913.8,431.7,915,432.2L915,432.2z"/>
	<path d="M938.6,432.4h2c0.6,0,1-0.4,1-1c0-3.9-3.1-7-7-7h-2c-0.6,0-1,0.4-1,1C931.6,429.3,934.8,432.4,938.6,432.4z M934.6,426.4
		c2.4,0,4.4,1.7,4.9,4h-0.9c-2.4,0-4.4-1.7-4.9-4H934.6z"/>
	<path d="M926.6,432.4c1.7,0,3-1.3,3-3s-1.3-3-3-3c-1.7,0-3,1.3-3,3S925,432.4,926.6,432.4z M926.6,428.4c0.6,0,1,0.4,1,1
		s-0.4,1-1,1c-0.6,0-1-0.4-1-1S926.1,428.4,926.6,428.4z"/>
	<path d="M937.6,438.4c0,1.7,1.3,3,3,3c1.7,0,3-1.3,3-3s-1.3-3-3-3C939,435.4,937.6,436.8,937.6,438.4z M941.6,438.4
		c0,0.6-0.4,1-1,1c-0.6,0-1-0.4-1-1s0.4-1,1-1C941.2,437.4,941.6,437.9,941.6,438.4z"/>
	<rect x="930.6" y="451.4" width="2" height="2"/>
	<rect x="933.6" y="434.4" width="2" height="2"/>
	<rect x="917.6" y="425.4" width="2" height="2"/>
	<rect x="938.6" y="447.4" width="2" height="2"/>
</g>
<g>
	<path d="M458.7,241.8c-0.8-0.1-6.9-0.4-10.5,2.9c-1.7,1.6-2.6,3.8-2.5,6.1c-0.2,2,1.2,3.8,3.2,4c0.3,0,0.5,0,0.8,0c2.6,0,4-1.5,4-3
		c0-1.5,0-2,5-2s5,0.5,5,2c0,1.5,1.4,3,4,3c2,0.2,3.8-1.2,4-3.2c0-0.3,0-0.5,0-0.8c0.1-2.3-0.8-4.5-2.5-6.1
		C465.6,241.5,459.5,241.8,458.7,241.8z M467.7,252.8c-1.3,0-2-0.5-2-1c0-3-1-4-7-4s-7,1-7,4c0,0.5-0.7,1-2,1c-1.4,0-2-0.6-2-2
		c-0.1-1.7,0.6-3.4,1.9-4.6c0.8-0.7,1.7-1.2,2.6-1.5c-0.3,0.7-0.5,1.4-0.5,2.1h2c0-1.3,0.8-2.4,2-2.9c0.6-0.1,1.3-0.1,2-0.1v2h2v-2
		c0.7,0,1.3,0,1.9,0.1c1.2,0.5,2,1.6,2.1,2.9h2c0-0.7-0.2-1.5-0.5-2.2c1,0.3,1.9,0.9,2.6,1.5c1.3,1.2,1.9,2.9,1.9,4.6
		C469.7,252.3,469.1,252.8,467.7,252.8z"/>
	<path d="M457.7,268l-2-0.3l-1,7c-0.1,0.5,0.3,1.1,0.8,1.1c0,0,0.1,0,0.1,0h4v-2h-2.8L457.7,268z"/>
	<path d="M493.1,254.1c-6.3-3.1-10.6-3.1-16.9,0c-0.7,0.4-1.4,0.8-2,1.2c0.9-1.3,1.4-2.9,1.4-4.5c0-5.5-4.4-10.6-8.6-12.7
		c-6.3-3.1-10.6-3.1-16.9,0c-4.2,2.1-8.6,7.4-8.6,12.7c0,4.4,3.6,8,8,8c1.1,0,2.2-0.3,3.2-0.8l-2.2,15.6c-0.2,1.6,0.3,3.2,1.3,4.4
		c0.9,1.1,2.3,1.7,3.7,1.8h6c1.4,0,2.8-0.7,3.7-1.8c1-1.2,1.5-2.8,1.3-4.4l-2.2-15.6c1,0.5,2.1,0.8,3.2,0.8c1.4,0,2.7-0.3,3.9-1
		c-2.3,2.4-3.7,5.6-3.9,9c0,4.4,3.6,8,8,8c1.1,0,2.2-0.3,3.2-0.8l-2.2,15.6c-0.2,1.6,0.3,3.2,1.3,4.4c0.9,1.1,2.3,1.7,3.7,1.8h6
		c1.4,0,2.8-0.7,3.7-1.8c1-1.2,1.5-2.8,1.3-4.4l-2.2-15.6c1,0.5,2.1,0.8,3.2,0.8c4.4,0,8-3.6,8-8
		C501.7,261.3,497.3,256.2,493.1,254.1z M464.7,274c0.1,1-0.2,2-0.9,2.8c-0.5,0.7-1.3,1.1-2.2,1.1h-6c-0.8,0-1.6-0.4-2.2-1.1
		c-0.7-0.8-1-1.8-0.8-2.8l2.5-17.6c0.4-0.5,0.8-1,1.1-1.5h4.8c0.3,0.5,0.7,1.1,1.1,1.5L464.7,274z M467.7,256.8
		c-2.2,0-4.2-1.4-5.1-3.4c-0.2-0.3-0.5-0.6-0.9-0.6h-6c-0.4,0-0.7,0.2-0.9,0.6c-0.9,2.1-2.9,3.4-5.1,3.4c-3.3,0-6-2.7-6-6
		c0-4.5,3.8-9.1,7.4-10.9c5.7-2.8,9.4-2.8,15.1,0c3.7,1.8,7.4,6.4,7.4,10.9C473.7,254.1,471,256.8,467.7,256.8z M490.7,290
		c0.1,1-0.2,2-0.8,2.8c-0.5,0.7-1.3,1.1-2.2,1.1h-6c-0.8,0-1.6-0.4-2.2-1.1c-0.7-0.8-1-1.8-0.8-2.8l2.5-17.6c0.4-0.5,0.8-1,1.1-1.5
		h4.8c0.3,0.5,0.7,1.1,1.1,1.5L490.7,290z M493.7,272.8c-2.2,0-4.2-1.4-5.1-3.4c-0.2-0.3-0.5-0.6-0.9-0.6h-6c-0.4,0-0.7,0.2-0.9,0.6
		c-0.9,2.1-2.9,3.4-5.1,3.4c-3.3,0-6-2.7-6-6c0-4.5,3.8-9.1,7.4-10.9c5.7-2.8,9.4-2.8,15.1,0c3.7,1.8,7.4,6.4,7.4,10.9
		C499.7,270.1,497,272.8,493.7,272.8z"/>
	<path d="M484.7,257.8c-0.8-0.1-6.9-0.4-10.5,2.9c-1.7,1.6-2.6,3.8-2.5,6.1c-0.2,2,1.2,3.8,3.2,4c0.3,0,0.5,0,0.8,0c2.6,0,4-1.5,4-3
		c0-1.5,0-2,5-2s5,0.5,5,2c0,1.5,1.4,3,4,3c2,0.2,3.8-1.2,4-3.2c0-0.3,0-0.5,0-0.8c0.1-2.3-0.8-4.5-2.5-6.1
		C491.6,257.5,485.5,257.8,484.7,257.8z M493.7,268.8c-1.3,0-2-0.5-2-1c0-3-1-4-7-4s-7,1-7,4c0,0.5-0.7,1-2,1c-1.4,0-2-0.6-2-2
		c-0.1-1.7,0.6-3.4,1.9-4.6c0.8-0.7,1.7-1.2,2.6-1.5c-0.3,0.7-0.5,1.4-0.5,2.1h2c0-1.3,0.8-2.5,2-2.9c0.6-0.1,1.3-0.1,2-0.1v2h2v-2
		c0.7,0,1.3,0,1.9,0.1c1.2,0.5,2,1.6,2.1,2.9h2c0-0.7-0.2-1.5-0.5-2.2c1,0.3,1.9,0.9,2.6,1.5c1.3,1.2,1.9,2.9,1.9,4.6
		C495.7,268.3,495.1,268.8,493.7,268.8z"/>
	<path d="M483.7,284l-2-0.3l-1,7c-0.1,0.5,0.3,1.1,0.8,1.1c0,0,0.1,0,0.1,0h4v-2h-2.8L483.7,284z"/>
	<rect x="485.7" y="284.8" width="2" height="2"/>
	<rect x="482.7" y="277.8" width="2" height="2"/>
	<rect x="458.7" y="262.8" width="2" height="2"/>
</g>
<g>
	<path d="M244.7,262.5c-0.3-0.3-0.4-0.7-0.4-1.1l-1,0h-1c0,1,0.5,2,1.3,2.7c0.5,0.3,1,0.5,1.6,0.5c0.5,0,1-0.1,1.4-0.3l-0.6-1.9
		C245.6,262.6,245,262.7,244.7,262.5z"/>
	<path d="M292.3,256.4c-1.1,0-2.2,0.3-3.1,0.9c-0.3-0.4-0.7-0.7-1.1-1c1.4-1.6,2.2-3.7,2.2-5.9c0-3.4-2-6.6-5.1-8.1
		c0.1-0.3,0.1-0.6,0.1-0.9c0-3.3-2.7-6-6-6c-1.1,0-2.2,0.3-3.1,0.9c-1.9-2.5-4.8-3.9-7.9-3.9c-4.4,0-8.2,2.9-9.5,7
		c-3.2-0.3-6,2.1-6.4,5.3c-3.7,1.1-5.8,4.9-4.8,8.6c0.3,1,0.8,1.9,1.4,2.6c-0.6,0.3-1.2,0.8-1.6,1.3c-0.9-0.6-2-0.9-3.1-0.9
		c-3.3,0-6,2.7-6,6c0,2,1,3.8,2.6,4.9c-0.4,0.6-0.6,1.3-0.6,2.1c0,2.2,1.8,4,4,4c1.5,0,2.9-0.9,3.6-2.2c0.5,0.1,0.9,0.2,1.4,0.2
		c0.2,0,0.4,0,0.6-0.1c3.9,2.2,12.4,8.3,12.4,20.1c0,0.6,0.4,1,1,1h10c0.5,0,1-0.4,1-0.9c0-0.1,0.9-14.4,11-20.5
		c0.6,0.3,1.3,0.4,2,0.4c0.5,0,1-0.1,1.4-0.2c1,2,3.4,2.8,5.3,1.8c1.4-0.7,2.2-2.1,2.2-3.6c0-0.7-0.2-1.4-0.6-2.1
		c2.7-1.9,3.4-5.6,1.5-8.4C296.1,257.4,294.2,256.4,292.3,256.4z M253.5,246.5c0.5-0.1,0.8-0.5,0.8-1c0,0,0-0.1,0-0.1
		c0-2.2,1.8-4,4-4c0.3,0,0.6,0,0.9,0.1c0.3,0.1,0.5,0,0.8-0.1c0.2-0.1,0.4-0.4,0.5-0.6c0.8-3.7,4-6.4,7.8-6.4c2.8,0,5.4,1.4,6.8,3.8
		c0.3,0.5,0.9,0.6,1.4,0.3c0.1,0,0.1-0.1,0.1-0.1c0.7-0.7,1.7-1,2.7-1c2.2,0,4,1.8,4,4c0,0.4-0.1,0.8-0.2,1.2
		c-0.2,0.5,0.1,1.1,0.6,1.2c2.8,1,4.6,3.6,4.6,6.6c0,1.9-0.8,3.8-2.2,5.1c-0.3,0-0.5-0.1-0.8-0.1c-2.7,0-5,2.2-5,5
		c0,0.2,0,0.4,0,0.6c-1.4,1.7-3.9,1.9-5.6,0.5c-0.4-0.3-1.1-0.3-1.4,0.1c0,0,0,0.1-0.1,0.1c-1.8,2.8-5.5,3.5-8.3,1.7
		c-0.7-0.4-1.3-1-1.7-1.7c-0.3-0.5-0.9-0.6-1.4-0.3c0,0-0.1,0-0.1,0.1c-1.7,1.4-4.2,1.2-5.6-0.5c0.3-2.7-1.6-5.2-4.3-5.6
		c-0.2,0-0.4,0-0.6,0c-2.2-1.6-2.7-4.8-1-7C251,247.4,252.2,246.7,253.5,246.5L253.5,246.5z M282.6,264.6
		C282.6,264.7,282.6,264.7,282.6,264.6c-4.4,1.9-8,5-10.6,9l0.9-8.7c0.5-0.4,1-0.8,1.4-1.3c0.9,0.5,1.9,0.8,2.9,0.8
		c1.4,0,2.7-0.5,3.8-1.4C281.5,263.7,282,264.2,282.6,264.6z M265,276.2c-2.6-4.4-6.3-8-10.8-10.4c0-0.4-0.1-0.7-0.3-1.1
		c0.6-0.4,1.2-0.9,1.6-1.6c1.1,0.9,2.4,1.3,3.8,1.3c1,0,2-0.3,2.9-0.8c0.6,0.7,1.4,1.4,2.3,1.8L265,276.2z M249.3,269.4
		c-0.5,0-1.1-0.2-1.5-0.4c-0.5-0.3-1.1-0.1-1.4,0.3c-0.1,0.1-0.1,0.2-0.1,0.4c-0.1,1.1-1.1,1.9-2.2,1.7c-1-0.1-1.8-1-1.8-2
		c0-0.6,0.3-1.2,0.8-1.6c0.4-0.3,0.5-1,0.2-1.4c-0.1-0.1-0.3-0.2-0.4-0.3c-2.1-0.8-3.1-3.1-2.3-5.2c0.8-2.1,3.1-3.1,5.2-2.3
		c0.5,0.2,0.9,0.5,1.3,0.8c0.4,0.4,1,0.3,1.4-0.1c0.1-0.1,0.1-0.2,0.2-0.3c0.7-1.5,2.5-2.2,4-1.5c1.5,0.7,2.2,2.5,1.5,4
		c-0.3,0.7-1,1.3-1.8,1.6c-0.5,0.2-0.8,0.8-0.6,1.3c0,0.1,0.1,0.2,0.1,0.2c0.9,1.4,0.6,3.2-0.8,4.2
		C250.5,269.2,249.9,269.4,249.3,269.4z M272.4,290.4h-8.1c-0.4-10.9-7.6-17.2-12-20c0.8-0.6,1.5-1.5,1.8-2.5
		c5.3,3.1,9.3,8,11.3,13.8c0.1,0.4,0.5,0.7,1,0.7c0.1,0,0.1,0,0.2,0c0.5-0.1,0.9-0.5,0.8-1l-0.8-15.1c1.4,0.3,2.9,0.2,4.3-0.2
		l-1.5,14.3c-0.1,0.5,0.3,1,0.8,1.1c0.1,0,0.1,0,0.2,0c0.5,0,0.9-0.3,1-0.8c1.4-6,5.5-11,11.1-13.6c0.1,1,0.5,2,1.2,2.7
		C274.6,275.6,272.7,287,272.4,290.4z M293.8,266.1c-0.5,0.2-0.8,0.8-0.6,1.3c0.1,0.2,0.2,0.3,0.3,0.4c0.9,0.7,1,1.9,0.4,2.8
		c-0.4,0.5-1,0.8-1.6,0.8c-1,0-1.8-0.7-2-1.7c0-0.3-0.3-0.6-0.6-0.8c-0.1-0.1-0.3-0.1-0.4-0.1c-0.2,0-0.4,0-0.5,0.1
		c-0.5,0.3-1,0.4-1.5,0.4c-1.7,0-3-1.3-3-3c0-0.6,0.2-1.2,0.5-1.7c0.3-0.5,0.2-1.1-0.3-1.4c-0.1,0-0.1-0.1-0.2-0.1
		c-1.6-0.5-2.4-2.2-1.8-3.8c0.5-1.6,2.2-2.4,3.8-1.8c0.8,0.3,1.4,0.8,1.7,1.6c0.2,0.5,0.8,0.7,1.3,0.5c0.1,0,0.2-0.1,0.3-0.2
		c1.6-1.5,4.1-1.4,5.6,0.2s1.4,4.1-0.2,5.6C294.6,265.7,294.2,266,293.8,266.1L293.8,266.1z"/>
	<path d="M291.9,262.5c-0.3,0.2-0.9,0.1-1.3,0l-0.6,1.9c0.5,0.2,0.9,0.2,1.4,0.3c0.6,0,1.1-0.2,1.6-0.5c0.8-0.7,1.3-1.7,1.3-2.7h-2
		C292.3,261.8,292.1,262.2,291.9,262.5z"/>
	<path d="M268.3,238.4v-2c-3.2-0.1-5.9,2.4-6,5.6c0,0.1,0,0.3,0,0.4h2c-0.1-2.1,1.6-3.9,3.7-4C268.1,238.4,268.2,238.4,268.3,238.4z
		"/>
	<path d="M260.3,245.4l0-2c-2.1-0.1-3.9,1.6-4,3.8c0,0.1,0,0.2,0,0.2h2c-0.1-1,0.7-1.9,1.8-2C260.1,245.4,260.2,245.4,260.3,245.4z"
		/>
	<path d="M279.3,242.4h2c0-1.6-1.2-3-2.8-3c-0.1,0-0.1,0-0.2,0l0,2c0.5-0.1,1,0.3,1,0.8C279.3,242.3,279.3,242.4,279.3,242.4z"/>
	<path d="M285.1,254c1.6-2.1,1.6-5.1,0-7.2l-1.6,1.2c1,1.4,1,3.4,0,4.8L285.1,254z"/>
	<path d="M276.3,255.4c2.2,0,4-1.8,4-4h-2c0,1.1-0.9,2-2,2c-1.1,0-2-0.9-2-2h-2C272.3,253.6,274.1,255.4,276.3,255.4z"/>
	<path d="M263.3,258.4c2.2,0,4-1.8,4-4h-2c0,1.1-0.9,2-2,2c-1.1,0-2-0.9-2-2h-2C259.3,256.6,261.1,258.4,263.3,258.4z"/>
	<path d="M265.3,246.4h-2c0,2.2,1.8,4,4,4s4-1.8,4-4h-2c0,1.1-0.9,2-2,2C266.2,248.4,265.3,247.5,265.3,246.4z"/>
	<rect x="255.3" y="250.4" width="2" height="2"/>
	<rect x="271.3" y="256.4" width="2" height="2"/>
	<rect x="275.3" y="242.4" width="2" height="2"/>
	<rect x="266.3" y="286.4" width="2" height="2"/>
	<rect x="269.3" y="283.4" width="2" height="2"/>
</g>
<g>
	<path d="M1217.7,468.2c0,0.6,0.4,1,1,1h4c0.6,0,1-0.4,1-1c0-1.3,0.8-2.4,2-2.8v5.8h-5c-0.6,0-1,0.4-1,1c0,3.5,2.6,6.4,6,6.9v2.2
		c-2.1,0.6-3.4,2.7-2.9,4.9c0.6,2.1,2.7,3.4,4.9,2.9s3.4-2.7,2.9-4.9c-0.4-1.4-1.5-2.5-2.9-2.9v-2.1h5c0.6,0,1-0.4,1-1
		c0-3.5-2.6-6.4-6-6.9v-5.9c1.2,0.4,2,1.6,2,2.8c0,0.6,0.4,1,1,1h4c0.6,0,1-0.4,1-1c0-2.7-1.2-5.3-3.4-7h0.4c1.7,0,3-1.3,3-3v-6
		c0-1.7-1.3-3-3-3h-1.1c2.8-2.7,2.8-7.1,0.1-9.9c-0.4-0.4-0.8-0.7-1.2-1c3.2-1.5,5.2-4.7,5.2-8.1c0-0.6-0.4-1-1-1h-4
		c-0.6,0-1,0.4-1,1c0,1.3-0.8,2.4-2,2.8v-2.8c0-0.6-0.4-1-1-1s-1,0.4-1,1v2.8c-1.2-0.4-2-1.5-2-2.8c0-0.6-0.4-1-1-1h-4
		c-0.6,0-1,0.4-1,1c0,3.5,2,6.7,5.2,8.1c-3.2,2.1-4.2,6.4-2.1,9.7c0.3,0.4,0.6,0.8,1,1.2h-1.1c-1.7,0-3,1.3-3,3v6c0,1.7,1.3,3,3,3
		h0.4C1218.9,462.9,1217.7,465.5,1217.7,468.2z M1228.7,485.2c0,1.1-0.9,2-2,2s-2-0.9-2-2c0-1.1,0.9-2,2-2
		S1228.7,484.1,1228.7,485.2z M1231.6,477.2h-4.9c-2.4,0-4.4-1.7-4.9-4h4.9C1229.1,473.2,1231.1,474.9,1231.6,477.2z M1219.8,431.2
		h2c0.5,2.7,3.2,4.5,5.9,3.9c2-0.4,3.5-1.9,3.9-3.9h2c-0.5,3.8-4.1,6.5-7.9,5.9C1222.6,436.7,1220.2,434.3,1219.8,431.2z
		 M1221.7,444.2c0-2.8,2.2-5,5-5s5,2.2,5,5s-2.2,5-5,5C1223.9,449.2,1221.7,447,1221.7,444.2z M1220.7,451.2h12c0.6,0,1,0.4,1,1v1.1
		c-0.7,0.2-1.2,0.6-1.7,1.1c-0.5,0.5-0.7,0.7-1.3,0.7c-0.6,0-0.8-0.2-1.3-0.7c-1.2-1.5-3.4-1.7-4.9-0.5c-0.2,0.2-0.4,0.3-0.5,0.5
		c-0.5,0.5-0.7,0.7-1.3,0.7c-0.6,0-0.8-0.2-1.3-0.7c-0.5-0.5-1-0.9-1.7-1.1v-1.1C1219.7,451.6,1220.1,451.2,1220.7,451.2z
		 M1220.7,459.2c-0.6,0-1-0.4-1-1v-2.6c0.1,0.1,0.2,0.2,0.3,0.3c1.2,1.5,3.4,1.7,4.9,0.5c0.2-0.2,0.4-0.3,0.5-0.5
		c0.5-0.5,0.7-0.7,1.3-0.7c0.6,0,0.8,0.2,1.3,0.7c1.2,1.5,3.4,1.7,4.9,0.5c0.2-0.2,0.4-0.3,0.5-0.5c0.1-0.1,0.2-0.2,0.3-0.3v2.6
		c0,0.6-0.4,1-1,1H1220.7z M1233.6,467.2h-2c-0.5-2.7-3.2-4.5-5.9-3.9c-2,0.4-3.5,1.9-3.9,3.9h-2c0.5-3.8,4.1-6.5,7.9-5.9
		C1230.8,461.7,1233.2,464.1,1233.6,467.2L1233.6,467.2z"/>
	<path d="M1226.7,445.2c-0.6,0-1-0.4-1-1h-2c0,1.7,1.3,3,3,3s3-1.3,3-3h-2C1227.7,444.8,1227.2,445.2,1226.7,445.2z"/>
	<path d="M1245.7,461.2h-2c0,1.7,1.3,3,3,3s3-1.3,3-3h-2c0,0.6-0.4,1-1,1S1245.7,461.8,1245.7,461.2z"/>
	<path d="M1252.7,441.2c0.6,0,1-0.4,1-1c0-3.5-2.6-6.4-6-6.9v-3.1c0-0.6-0.4-1-1-1s-1,0.4-1,1v3h-5c-0.6,0-1,0.4-1,1
		c0,3.5,2.6,6.4,6,6.9v2.1c-4.6,0.5-8,4.4-8,8.9c0,0.6,0.4,1,1,1h4c0.6,0,1-0.4,1-1c0-1.3,0.8-2.4,2-2.8v4.9
		c-3.8,0.5-6.5,4.1-5.9,7.9c0.2,1.5,0.9,2.9,2,4h-1.1c-1.7,0-3,1.3-3,3v6c0,1.7,1.3,3,3,3h5v3.1c-2.1,0.6-3.4,2.7-2.9,4.9
		c0.6,2.1,2.7,3.4,4.9,2.9s3.4-2.7,2.9-4.9c-0.4-1.4-1.5-2.5-2.9-2.9v-3.1h5c1.7,0,3-1.3,3-3v-6c0-1.7-1.3-3-3-3h-1.1
		c2.8-2.7,2.8-7.1,0.1-9.9c-1.1-1.1-2.5-1.8-4-2v-4.9c1.2,0.4,2,1.6,2,2.8c0,0.6,0.4,1,1,1h4c0.6,0,1-0.4,1-1c0-4.6-3.4-8.4-8-8.9
		v-2.1H1252.7z M1248.7,485.2c0,1.1-0.9,2-2,2s-2-0.9-2-2c0-1.1,0.9-2,2-2S1248.7,484.1,1248.7,485.2z M1241.8,435.2h4.9
		c2.4,0,4.4,1.7,4.9,4h-4.9C1244.3,439.2,1242.3,437.5,1241.8,435.2z M1252.7,476.2h-12c-0.6,0-1-0.4-1-1v-2.6
		c0.1,0.1,0.2,0.2,0.3,0.3c1.2,1.5,3.4,1.7,4.9,0.5c0.2-0.2,0.4-0.3,0.5-0.5c0.5-0.5,0.7-0.7,1.3-0.7c0.6,0,0.8,0.2,1.3,0.7
		c1.2,1.5,3.4,1.7,4.9,0.5c0.2-0.2,0.4-0.3,0.5-0.5c0.1-0.1,0.2-0.2,0.3-0.3v2.6C1253.7,475.8,1253.2,476.2,1252.7,476.2
		C1252.7,476.2,1252.7,476.2,1252.7,476.2z M1252.7,468.2c0.6,0,1,0.4,1,1v1.1c-0.7,0.2-1.2,0.6-1.7,1.1c-0.5,0.5-0.7,0.7-1.3,0.7
		s-0.8-0.2-1.3-0.7c-1.2-1.5-3.4-1.7-4.9-0.5c-0.2,0.2-0.4,0.3-0.5,0.5c-0.5,0.5-0.7,0.7-1.3,0.7s-0.8-0.2-1.3-0.7
		c-0.5-0.5-1-0.9-1.7-1.1v-1.1c0-0.6,0.4-1,1-1H1252.7z M1251.7,461.2c0,2.8-2.2,5-5,5s-5-2.2-5-5s2.2-5,5-5
		C1249.5,456.2,1251.7,458.4,1251.7,461.2z M1253.6,451.2h-2c-0.5-2.7-3.2-4.5-5.9-3.9c-2,0.4-3.5,1.9-3.9,3.9h-2
		c0.5-3.8,4.1-6.5,7.9-5.9C1250.8,445.7,1253.2,448.1,1253.6,451.2L1253.6,451.2z"/>
</g>
<g>
	<path d="M391.6,245.1c0-0.1-0.1-0.1-0.1-0.2l-3.8-5.7v-5.7c0-0.6-0.4-1-1-1h-26c-0.6,0-1,0.4-1,1v5.7l-3.8,5.7
		c0,0.1-0.1,0.1-0.1,0.2c0,0.1-0.1,0.2-0.1,0.4v46c0,0.6,0.4,1,1,1h34c0.6,0,1-0.4,1-1v-46C391.7,245.3,391.7,245.2,391.6,245.1z
		 M389.7,282.4h-6v-24h6V282.4z M381.7,258.4v2.4c-5.1,2.7-7.2,1.8-9.6,0.9c-1.7-0.8-3.5-1.2-5.4-1.3c-3.3,0.1-6.5,1.4-9,3.6v-5.6
		H381.7z M381.7,256.4h-20v-6h4v-2h-5c-0.6,0-1,0.4-1,1v7h-2v-10h24V256.4z M357.7,266.8c0.9-1,4.3-4.4,9-4.4c1.6,0,3.2,0.4,4.6,1.1
		c2.5,1,5.1,2.1,10.4-0.5v19.4h-24V266.8z M383.7,256.4v-10h6v10H383.7z M384.6,244.4l2.1-3.2l2.1,3.2H384.6z M361.7,234.4h2v2h2v-2
		h12v2h2v-2h2v2h2v-2h2v4h-24V234.4z M361.2,240.4h23.6l-2.7,4h-23.6L361.2,240.4z M357.7,284.4h24v6h-24V284.4z M383.7,290.4v-6h6
		v6H383.7z"/>
	<path d="M374.7,266.4c-2,0-4.3,3-4.9,5.1c-1.5-1.7-3.6-3.1-5.1-3.1c-0.7,0-1.3,0.3-1.8,0.7c-1.2,1.3-1.2,3.7-1.2,5.7l0,0.5
		c0,2.8,2.2,5,5,5c2.6,0,4.8-2,5-4.6c1.9,1.1,4.3,0.5,5.5-1.3c0.4-0.6,0.6-1.4,0.6-2.1C377.7,271,377.5,266.4,374.7,266.4z
		 M366.7,278.4c-1.7,0-3-1.3-3-3v-0.5c0-1,0-2,0.1-3l2,3.9l1.8-0.9l-2.2-4.4c1.7,0.7,4.3,3.4,4.3,4.8
		C369.7,277.1,368.3,278.4,366.7,278.4z M373.7,274.4c-1.1,0-2-0.9-2-2c0-1.3,2-4,3-4c0.4,0,1,1.7,1,4
		C375.7,273.5,374.8,274.4,373.7,274.4z"/>
	<rect x="366.7" y="264.4" width="2" height="2"/>
	<rect x="376.7" y="278.4" width="2" height="2"/>
	<rect x="360.7" y="286.4" width="2" height="2"/>
</g>
<g>
	<path d="M611.7,278.5h-4v-19c0-0.6-0.4-1-1-1h-11v-19c0-0.6-0.4-1-1-1h-10.2c0.8-2,0.3-4.2-1.1-5.7l-3-3c-0.4-0.4-1-0.4-1.4,0
		c-1.9,2.1-1.9,5.3,0,7.4l1.3,1.3h-7.6c-0.6,0-1,0.4-1,1v19h-9c-0.6,0-1,0.4-1,1v19h-8c-0.6,0-1,0.4-1,1v4c0,0.6,0.4,1,1,1h5.6
		l5.7,4.8c0.2,0.1,0.4,0.2,0.6,0.2h34c0.2,0,0.5-0.1,0.6-0.2l5.7-4.8h5.6c0.6,0,1-0.4,1-1v-4C612.7,278.9,612.2,278.5,611.7,278.5z
		 M579.8,232l2.2,2.2c0.9,1,1.2,2.5,0.6,3.7l-2.2-2.2C579.5,234.7,579.2,233.3,579.8,232z M605.7,278.5h-20v-18h20V278.5z
		 M573.7,240.5h20v18h-20V240.5z M563.7,260.5h20v18h-20V260.5z M599.3,287.5h-33.3l-3.6-3h40.5L599.3,287.5z M610.7,282.5h-56v-2
		h56V282.5z"/>
	<path d="M579.7,246.5c-1.7,0-3,1.3-3,3h2c0-0.6,0.4-1,1-1s1,0.4,1,1h2C582.7,247.8,581.3,246.5,579.7,246.5z"/>
	<path d="M589.7,266.5c0,1.7,1.3,3,3,3s3-1.3,3-3c0-1.7-1.3-3-3-3S589.7,264.8,589.7,266.5z M593.7,266.5c0,0.6-0.4,1-1,1
		s-1-0.4-1-1c0-0.6,0.4-1,1-1S593.7,265.9,593.7,266.5z"/>
	<path d="M600.7,274.5c0.6,0,1,0.4,1,1h2c0-1.7-1.3-3-3-3s-3,1.3-3,3h2C599.7,274.9,600.1,274.5,600.7,274.5z"/>
	<path d="M575.7,267.5c-0.6,0-1-0.4-1-1h-2c0,1.7,1.3,3,3,3s3-1.3,3-3h-2C576.7,267,576.2,267.5,575.7,267.5z"/>
	<path d="M589.7,248.5h2v-5c0-0.6-0.4-1-1-1h-4v2h3V248.5z"/>
	<path d="M567.7,269.5h-2v6c0,0.6,0.4,1,1,1h5v-2h-4V269.5z"/>
	<rect x="573.7" y="274.5" width="4" height="2"/>
	<rect x="583.7" y="252.5" width="4" height="2"/>
	<rect x="567.7" y="263.5" width="4" height="2"/>
	<rect x="598.7" y="264.5" width="4" height="2"/>
	<rect x="587.7" y="271.5" width="4" height="2"/>
</g>
<g>
	<g>
		<path d="M1049.7,472h-3.6c-0.5-9.1-8.3-13.6-23.8-13.6s-23.2,4.5-23.8,13.6h-3.6c-0.5,0-1,0.4-1,0.9c0,0.3-0.3,7.6,12.9,11.4
			c0.1,0,0.2,0,0.3,0h30.4c0.1,0,0.2,0,0.3,0c13.2-3.8,12.9-11,12.9-11.4C1050.7,472.4,1050.2,472,1049.7,472z M1022.3,460.4
			c14.3,0,21.3,3.7,21.8,11.6h-2.5c-0.8-8.7-12.8-8.7-19.3-8.7s-18.5,0-19.3,8.7h-2.5C1001.1,464.1,1008,460.4,1022.3,460.4z
			 M1036.1,472c-0.5-3.8-7.2-4.3-13.8-4.3s-13.3,0.5-13.8,4.3h-3.5c0.7-5.5,7.4-6.7,17.3-6.7c9.9,0,16.6,1.2,17.3,6.7H1036.1z
			 M1034,472h-23.4c0.5-1.2,3-2.3,11.7-2.3C1031,469.7,1033.6,470.9,1034,472z M1037.4,482.4h-30.2c-8.8-2.6-10.8-6.6-11.2-8.4h52.6
			C1048.2,475.8,1046.2,479.8,1037.4,482.4z"/>
	</g>
	<g>
		<path d="M1037.5,476.3c-1,0.9-2.5,1.6-4.4,2.2c-0.5,0.2-0.8,0.7-0.7,1.2c0.2,0.5,0.7,0.8,1.2,0.7c2.2-0.7,3.9-1.5,5.1-2.5
			c0.4-0.4,0.5-1,0.1-1.4C1038.6,476,1037.9,475.9,1037.5,476.3z"/>
	</g>
	<g>
		<path d="M1053.3,419.5c-4.4-1-33.4,13.3-33.7,13.4c-0.7,0.3-1.2-0.2-1.3-0.3c-0.8-0.6-1.9-0.7-2.9-0.3l-16.2,6.7
			c-0.6,0.2-0.8,0.8-0.6,1.3c0.2,0.5,0.8,0.8,1.3,0.5l11.4-4.7l0.8,1.8c-0.1,0.1-12.1,5-11.4,4.7c-0.5,0.2-0.8,0.8-0.5,1.3
			c0.2,0.4,0.5,0.6,0.9,0.6c0.1,0,0.3,0,0.4-0.1l0.6-0.3c-0.3,0.5-0.5,1.2-0.1,2.1c0,0.1,0.1,0.1,0.1,0.2c-0.4,0.3-0.5,0.7-0.4,1.2
			c0.5,1.1,1.7,0.4,2.3,0.1c1.1,0.3,1.2,0.3,0.7,1.2c-1.2,2-0.6,3.6,1.7,4.2c0.6,0.1,0.7,0.2,0.8,0.4c0.2,0.5-1.5,1.7-0.8,3.4
			c0.2,0.4,0.5,0.6,0.9,0.6c0.1,0,0.3,0,0.4-0.1c0.5-0.2,0.8-0.8,0.5-1.3c-0.1-0.2,0-0.3,0.3-0.8c0.4-0.6,0.9-1.5,0.4-2.6
			c-0.9-2.3-3.8-0.9-2.6-2.7c0.7-1.1,0.9-2.2,0.1-3.2l3.1-1.3c0.5,0.1,0.9,0.2,1,0.4c0.2,0.5-1.5,1.7-0.8,3.4
			c0.7,1.8,2.7,1.4,2.9,1.9c0.2,0.5-1.5,1.7-0.7,3.4c0.2,0.5,0.8,0.8,1.3,0.5c0.5-0.2,0.8-0.8,0.5-1.3c-0.2-0.5,1.5-1.7,0.7-3.4
			c-1-2.3-3.8-0.8-2.6-2.7c0.7-1.1,0.9-2.2,0.1-3.2l7.3-3c2.5-1,1.3-3.3,2.6-3.7c0.3-0.1,30.8-10.5,33.2-14.2
			C1055.8,422.2,1054.8,419.8,1053.3,419.5z M1013.6,441.7l-4.2,1.7c-0.5-0.4,0.7-1.2,0.8-2.5l2.6-1.1L1013.6,441.7z M1007.6,442
			c-0.4,0.8-0.4,1.4-0.1,2.2l-3.7,1.5c-0.5-0.4,0.8-1.2,0.8-2.5L1007.6,442z M1053.3,422.5c-1.3,2.1-21.7,10-32.2,13.4
			c-2.7,0.9-1.5,3.2-2.7,3.7l-3,1.2l-2.3-5.5l3-1.2c0.7-0.3,1.1,0.3,1.3,0.3c0.9,0.7,2.1,0.7,3.1,0.2c9.9-5,29.9-13.9,32.3-13.3
			C1053.1,421.5,1053.4,422.3,1053.3,422.5z"/>
	</g>
</g>
<g>
	<path d="M1115.2,458.6c-0.6,0-1,0.4-1,1c0,0.4,0.2,0.8,0.6,0.9c4.9,2,12.2,3.1,19.9,3.1c12.6,0,26-3.2,26-9c0-5.7-13.1-8.9-25.5-9
		h0c-0.6,0-1,0.4-1,1c0,0.4,0.2,0.8,0.6,0.9c3.1,1.2,4.9,2.7,4.9,4.1c0,1-0.5,2-1.2,2.7C1134.5,458.1,1122,458.8,1115.2,458.6
		L1115.2,458.6z M1139.9,455.7c1.2-1.1,1.8-2.6,1.8-4.1c0-1.1-0.5-2.4-2.3-3.9c11.6,0.7,19.3,4,19.3,6.9c0,3.3-9.9,7-24,7
		c-4.2,0-8.4-0.3-12.5-1.1C1128.3,460.2,1136.3,459.1,1139.9,455.7L1139.9,455.7z"/>
	<path d="M1112.2,451.6c0,0.1,0,0.2,0,0.3c-1.5,0.6-2.5,2.1-2.5,3.7c0,0.3,0.1,0.6,0.4,0.8c1,0.7,2.1,1.2,3.3,1.6
		c0.1,0,0.2,0.1,0.3,0.1c0.6,0,1-0.4,1-1c0-0.4-0.3-0.8-0.7-0.9c-0.8-0.3-1.5-0.6-2.3-1c0.2-0.8,0.9-1.4,1.7-1.5
		c0.5-0.1,0.9-0.5,0.9-1.1c0-0.1,0-0.2-0.1-0.2c-0.2-0.5-0.2-1,0.1-1.5c0.3-0.6,1-1.1,1.7-1.2c0.5-0.1,0.9-0.6,0.8-1.2
		c0,0,0-0.1,0-0.1c-0.1-0.3-0.2-0.7-0.1-1c0.2-0.8,0.8-1.5,1.7-1.7c0.5-0.1,0.8-0.5,0.8-1c0,0,0-0.1,0-0.1c0-1.1,0.9-2,2-2h0
		c0,0,0.1,0,0.1,0c0.3,0,0.6-0.1,0.8-0.3c0.7-0.8,2-0.9,2.8-0.1c0.1,0,0.1,0.1,0.1,0.1c0.2,0.2,0.5,0.4,0.8,0.3c0,0,0.2,0,0.2,0
		c1.1,0,2,0.9,2,2c0,0,0,0.1,0,0.1c0,0.5,0.3,0.9,0.8,1c0.8,0.2,1.5,0.8,1.7,1.7c0.1,0.3,0,0.7-0.1,1c-0.2,0.5,0.1,1.1,0.6,1.3
		c0,0,0.1,0,0.1,0c0.7,0.1,1.4,0.5,1.7,1.2c0.2,0.5,0.2,1,0.1,1.5c-0.2,0.5,0.1,1.1,0.6,1.3c0.1,0,0.2,0,0.2,0.1
		c0.4,0.1,0.8,0.3,1.1,0.6c0.4,0.4,1,0.4,1.4,0.1c0.4-0.4,0.4-1,0.1-1.4c0,0,0,0,0,0c-0.3-0.4-0.8-0.7-1.3-1c0-0.1,0-0.2,0-0.3
		c0-1.6-1-3.1-2.5-3.7c0-0.1,0-0.2,0-0.3c0-1.7-1-3.1-2.6-3.7c-0.3-1.8-1.9-3.2-3.8-3.3c-1.5-1.3-3.8-1.3-5.3,0
		c-1.9,0.1-3.5,1.4-3.8,3.3c-1.5,0.6-2.6,2.1-2.6,3.7c0,0.1,0,0.2,0,0.3C1113.2,448.5,1112.2,449.9,1112.2,451.6z"/>
	<path d="M1149.7,456.6c1.7,0,3-1.3,3-3c0-1.7-1.3-3-3-3s-3,1.3-3,3C1146.7,455.2,1148,456.6,1149.7,456.6z M1149.7,452.6
		c0.6,0,1,0.4,1,1c0,0.6-0.4,1-1,1s-1-0.4-1-1C1148.7,453,1149.1,452.6,1149.7,452.6z"/>
	<path d="M1139.4,459.5l3,1c0.1,0,0.2,0.1,0.3,0.1c0.2,0,0.3,0,0.4-0.1l4-2c0.5-0.2,0.7-0.8,0.4-1.3c-0.1-0.2-0.3-0.4-0.4-0.4l-4-2
		c-0.4-0.2-0.8-0.1-1.2,0.2l-3,3c-0.4,0.4-0.4,1,0,1.4C1139.1,459.4,1139.2,459.5,1139.4,459.5z M1142.9,456.8l1.6,0.8l-1.8,0.9
		l-1.1-0.4L1142.9,456.8z"/>
	<rect x="1143.7" y="450.6" width="2" height="2"/>
	<rect x="1121.7" y="444.6" width="2" height="2"/>
	<rect x="1125.7" y="447.6" width="2" height="2"/>
	<rect x="1128.7" y="452.6" width="2" height="2"/>
	<rect x="1122.7" y="451.6" width="2" height="2"/>
	<rect x="1118.7" y="448.6" width="2" height="2"/>
	<rect x="1116.7" y="452.6" width="2" height="2"/>
	<rect x="1154.7" y="453.6" width="2" height="2"/>
	<rect x="1135.7" y="458.6" width="2" height="2"/>
	<path d="M1166.6,455.5c0-0.2,0.1-0.9,0.1-0.9c0-7.9-14.1-14-32-14c-0.3,0-0.7,0-1,0c-0.7,0-1.4,0-2,0c-0.6,0-1,0.5-1,1c0,0,0,0,0,0
		c0,0.5,0.5,1,1,1c0,0,0,0,0,0c0.6,0,1.3,0,1.9,0c0.3,0,0.7,0,1,0c16.3,0,30,5.5,30,12c0,0.2,0,0.6,0,0.6
		c-0.9,6.2-14.2,11.4-30,11.4c-16.3,0-30-5.5-30-12c0-3.3,3.7-6.9,9.4-9.1c0.5-0.2,0.8-0.8,0.6-1.3c-0.2-0.5-0.8-0.8-1.3-0.6
		c-6.6,2.5-10.6,6.7-10.6,10.9c0,0,0,0.8,0.1,0.9c0.4,3.3,2.9,14.6,18.9,18.6v3.2c0,0.5,0.3,0.9,0.8,1c4,0.9,8.1,1.3,12.2,1.2
		c4.1,0,8.2-0.4,12.2-1.2c0.5-0.1,0.8-0.5,0.8-1v-3.2C1163.7,470.1,1166.2,458.8,1166.6,455.5z M1145.7,476.5c-3.6,0.7-7.3,1.1-11,1
		c-3.7,0-7.4-0.3-11-1v-2c3.6,0.7,7.3,1,11,1c3.7,0,7.4-0.3,11-1V476.5z M1134.7,473.6c-17.9,0-25.1-6.7-28-12.2
		c5.4,4.3,15.8,7.2,28,7.2c12.1,0,22.4-2.8,27.9-7C1159.5,467,1152.3,473.6,1134.7,473.6z"/>
</g>
<g>
	<path class="st22" d="M123.7,266.5c1,0.3,2,0.3,2.9-0.1l0,0c1-0.3,1.8-0.9,2.3-1.8c0.4-0.6,0.6-1.4,0.3-2.1
		c-0.5-1.1-1.7-1.8-2.9-1.6c-0.6,0-1.1,0.1-1.7,0.3c-1,0.3-1.8,0.9-2.3,1.8c-0.8,1-0.6,2.4,0.4,3.2
		C123.1,266.3,123.4,266.4,123.7,266.5L123.7,266.5z M123.9,262.2c0.2-0.2,0.5-0.4,0.8-0.5c0.3-0.1,0.5-0.2,0.8-0.2
		c0.4,0,0.8-0.1,1.1-0.1c0.2,0.5,0.1,1-0.2,1.4c-0.2,0.4-0.6,0.6-1,0.8c-0.4,0.2-0.8,0.2-1.2,0.1c-0.4-0.1-0.9-0.3-1.2-0.6
		C123.3,262.7,123.6,262.4,123.9,262.2z"/>
	<path class="st22" d="M164.5,265.3c0.4-0.6,0.5-1.4,0.3-2.1c-0.5-1.1-1.7-1.8-2.9-1.6c-0.2,0-0.4,0-0.5,0c-0.6,0.3-1.3,0.6-2.1,0.7
		c-0.6,0.3-1.1,0.8-1.4,1.3c-0.8,1-0.6,2.4,0.4,3.2c0.3,0.2,0.5,0.3,0.9,0.4c0.8,0.3,1.7,0.3,2.6,0c0.4-0.2,0.8-0.4,1.2-0.5
		C163.6,266.3,164.1,265.9,164.5,265.3z M162,263.4c-0.2,0.4-0.6,0.6-1,0.8c-0.4,0.2-0.8,0.2-1.2,0.1c-0.4-0.1-0.9-0.3-1.2-0.6
		c0.2-0.4,0.5-0.7,0.8-0.9c0.2-0.2,0.5-0.4,0.8-0.5c0.3-0.1,0.5-0.2,0.8-0.2c0.4,0,0.8-0.1,1.1-0.1C162.3,262.5,162.3,263,162,263.4
		L162,263.4z"/>
	<path class="st22" d="M173.4,262.3c0.5,0,0.9,0,1.3-0.3c0.3-0.2,0.5-0.4,0.8-0.6c0.6-0.7,1-1.6,1.1-2.6c0.2-2.1-0.8-4-2.3-4.1h-0.2
		c-0.7,0-1.3,0.3-1.8,0.8c-0.7,0.7-1.1,1.7-1.2,2.7l0,0c-0.2,1.1,0.1,2.3,0.7,3.2C172.2,261.9,172.8,262.2,173.4,262.3z
		 M174.6,257.2c0.3-0.4,0.6-0.7,1.1-0.8c0.2,0.4,0.4,0.8,0.5,1.2c0.1,0.3,0.1,0.6,0.1,0.9c0,0.3-0.1,0.6-0.2,0.8
		c-0.2,0.4-0.3,0.7-0.4,1.1c-0.5-0.1-0.9-0.4-1.1-0.8c-0.2-0.4-0.3-0.8-0.3-1.2C174.2,258,174.4,257.6,174.6,257.2z"/>
	<path class="st22" d="M167.7,268.8c0.2,0.3,0.4,0.7,0.5,1c2,0.2,4-0.6,5.2-2.3c-0.1-0.1-0.1-0.3-0.2-0.4c-0.3-0.9-0.3-1.9,0-2.8
		c-0.9-0.1-1.7-0.5-2.3-1.1c-1.5-0.3-3.1,0.3-4,1.7c-0.1,0.5-0.4,1.1-0.7,1.5c-0.2,0.2-0.3,0.4-0.5,0.6
		C166.5,267.4,167.2,268.1,167.7,268.8z"/>
	<path class="st22" d="M132,261.1L132,261.1c0.9,0.4,2,0.5,2.9,0.2c0.7-0.2,1.4-0.7,1.7-1.4c0.6-1.4-0.6-3.2-2.5-4
		c-0.6-0.2-1.2-0.4-1.8-0.4c-1.1-0.1-2.2,0.5-2.8,1.5c-0.3,0.7-0.2,1.5,0.2,2.1C130.3,260.1,131.1,260.7,132,261.1z M132.8,256.1
		c0.3,0,0.6,0.1,0.9,0.2c0.3,0.1,0.5,0.2,0.8,0.4c0.3,0.2,0.6,0.5,0.9,0.7c-0.2,0.5-0.6,0.8-1.1,0.9c-0.4,0.1-0.9,0.1-1.3-0.1
		c-0.4-0.1-0.7-0.4-1-0.7c-0.3-0.3-0.5-0.8-0.5-1.2C131.9,256.1,132.3,256.1,132.8,256.1L132.8,256.1z"/>
	<path class="st22" d="M117.9,267.1c-0.5-1.1-1.7-1.8-2.9-1.6c-0.6,0-1.1,0.1-1.7,0.3c-1.1,0.4-2,1.1-2.5,2.1
		c-0.6,1.1-0.2,2.4,0.9,3c0.1,0,0.2,0.1,0.2,0.1c1.1,0.4,2.2,0.5,3.3,0l0,0c1-0.3,1.8-0.9,2.3-1.8
		C118,268.6,118.2,267.8,117.9,267.1z M115,267.4c-0.2,0.4-0.6,0.6-1,0.8c-0.4,0.2-0.8,0.2-1.2,0.1c-0.4-0.1-0.9-0.3-1.2-0.6
		c0.2-0.4,0.5-0.7,0.8-0.9c0.2-0.2,0.5-0.4,0.8-0.5c0.3-0.1,0.5-0.2,0.8-0.2c0.4,0,0.8-0.1,1.1-0.1C115.4,266.4,115.3,267,115,267.4
		L115,267.4z"/>
	<path class="st22" d="M121,274.4c1,0.3,2,0.3,2.9-0.1l0,0c1-0.3,1.8-0.9,2.3-1.8c0.4-0.6,0.6-1.4,0.3-2.1c-0.5-1.1-1.6-1.7-2.8-1.6
		c-0.6,0-1.1,0.1-1.7,0.3c-1,0.3-1.8,0.9-2.3,1.8c-0.8,1-0.6,2.4,0.4,3.2C120.5,274.2,120.8,274.4,121,274.4L121,274.4z
		 M121.2,270.1c0.2-0.2,0.5-0.4,0.8-0.5c0.3-0.1,0.5-0.2,0.8-0.2c0.4,0,0.8-0.1,1.1-0.1c0.2,0.5,0.1,1-0.2,1.4
		c-0.2,0.4-0.6,0.6-1,0.8c-0.4,0.2-0.8,0.2-1.2,0.2c-0.4-0.1-0.9-0.3-1.2-0.6C120.6,270.7,120.9,270.4,121.2,270.1z"/>
	<path class="st22" d="M139.5,289.3c-0.6,0-1.1,0.1-1.7,0.3c-1,0.3-1.8,0.9-2.3,1.8c-0.8,1-0.6,2.4,0.4,3.2c0.3,0.2,0.5,0.3,0.9,0.4
		c1,0.3,2,0.3,2.9-0.1l0,0c1.1-0.4,2-1.1,2.6-2.2c0.3-0.6,0.3-1.2,0.1-1.8C141.9,289.8,140.7,289.2,139.5,289.3z M139.5,291.2
		c-0.2,0.4-0.6,0.6-1,0.8c-0.4,0.2-0.8,0.2-1.2,0.1c-0.4-0.1-0.9-0.3-1.2-0.6c0.2-0.4,0.5-0.7,0.8-1c0.2-0.2,0.5-0.4,0.8-0.5
		c0.3-0.1,0.5-0.2,0.8-0.2c0.4,0,0.8-0.1,1.2-0.1C139.9,290.3,139.8,290.8,139.5,291.2L139.5,291.2z"/>
	<path class="st22" d="M176.7,263c-0.2,0.2-0.5,0.4-0.8,0.6c-0.2,0.2-0.4,0.5-0.6,0.7c-0.4,0.6-0.6,1.4-0.3,2.1
		c0.2,0.6,0.7,1,1.2,1.3c1.1,0.4,2.2,0.5,3.3,0.1l0,0c1-0.3,1.8-0.9,2.3-1.8c0.4-0.6,0.6-1.4,0.3-2.1c-0.5-1.1-1.7-1.8-2.9-1.6
		C178.4,262.2,177.5,262.5,176.7,263L176.7,263z M179.5,262.8c0.2,0.5,0.1,1-0.2,1.4c-0.2,0.4-0.6,0.6-1,0.8
		c-0.4,0.2-0.8,0.2-1.2,0.1c-0.4-0.1-0.9-0.3-1.2-0.6c0.2-0.4,0.5-0.7,0.8-1c0.2-0.2,0.5-0.4,0.8-0.5c0.3-0.1,0.5-0.2,0.8-0.2
		C178.8,262.9,179.2,262.8,179.5,262.8L179.5,262.8z"/>
	<path class="st22" d="M138.5,257.7c1.3,0.8,2.9,0.8,4.2,0.1c0.1-0.4,0.3-0.9,0.6-1.2c0.4-0.7,1-1.3,1.7-1.7c-0.7-1.8-2.4-2.9-4.3-3
		c-2-0.1-3.8,1.1-4.3,3C137.3,255.6,138.1,256.6,138.5,257.7z"/>
	<path class="st22" d="M147.2,271.3c-0.5-0.4-0.8-1-1.1-1.6c-0.4-1.3-0.2-2.7,0.5-3.9c0.2-0.3,0.4-0.6,0.6-0.8
		c-0.1-0.9-0.8-1.6-1.6-1.8h-0.1l-0.2-0.1h-0.1c-0.7-0.2-1.4-0.1-2,0.3c-1,0.9-1.6,2.1-1.6,3.4c0.7,0.5,1.3,1.2,1.7,2
		c0.1,0.4,0.2,0.8,0.2,1.2C144.4,271.2,145.9,271.7,147.2,271.3z"/>
	<path class="st22" d="M132.9,267.4c-1-1.2-1.4-2.8-1.1-4.3l-0.3-0.1c0,0.9-0.2,1.9-0.8,2.7c-0.4,0.7-1,1.3-1.7,1.7
		C130.3,267,131.6,267,132.9,267.4z"/>
	<path class="st22" d="M148.8,263.3c0.1,0.1,0.1,0.2,0.2,0.4c0.3-0.2,0.7-0.3,1-0.5c1.9-0.7,4-0.5,5.6,0.6c0.1-0.5,0.3-0.9,0.6-1.3
		c0.1-0.1,0.2-0.3,0.3-0.4c-0.3-0.1-0.6-0.2-0.8-0.3c-0.9-0.4-1.7-1.2-2.1-2.1c-0.1,0.3-0.2,0.5-0.4,0.8c-0.8,1.2-2,2.1-3.4,2.6
		C149.5,263.1,149.2,263.2,148.8,263.3z"/>
	<path class="st22" d="M135.5,263.2c-0.5,0.2-1.1,0.2-1.7,0.2h-0.1c-0.1,0.6-0.1,1.8,1.3,3.4c0.4-0.2,0.8-0.4,1.2-0.6
		c1.1-0.4,2.4-0.5,3.5-0.3c0.2-1.7,1.1-3.2,2.4-4.3c0.3-0.2,0.6-0.4,1-0.5c-0.1-0.2-0.3-0.5-0.4-0.7c0-0.1-0.1-0.3-0.1-0.4
		c-0.5,0.2-1.1,0.3-1.7,0.3c-0.8,0-1.5-0.1-2.2-0.4c0,0.3-0.1,0.5-0.2,0.7C138,262,136.9,262.9,135.5,263.2z"/>
	<path class="st22" d="M164,259.4c-0.1,0.1-0.2,0.3-0.3,0.4c1.3,0.3,2.4,1.2,3,2.5c0.8-0.6,1.8-1,2.9-1.1c-0.3-0.9-0.5-1.8-0.4-2.7
		c-1.3-0.9-2.9-1.2-4.4-0.9C164.5,258.2,164.3,258.8,164,259.4z"/>
	<path class="st22" d="M145,257.7c-0.4,0.6-0.6,1.4-0.3,2.1c0.3,0.7,0.8,1.2,1.6,1.4h0.1c1,0.3,2,0.3,2.9-0.1l0,0
		c1-0.3,1.8-0.9,2.3-1.8c0.4-0.6,0.5-1.4,0.3-2.1c-0.5-1.1-1.7-1.8-2.9-1.7c-0.6,0-1.1,0.1-1.7,0.3
		C146.3,256.2,145.5,256.8,145,257.7z M146.4,256.9c0.2-0.2,0.5-0.4,0.8-0.5c0.3-0.1,0.5-0.2,0.8-0.2c0.4,0,0.8-0.1,1.1-0.1
		c0.2,0.5,0.1,1-0.2,1.4c-0.2,0.4-0.6,0.6-1,0.8c-0.4,0.2-0.8,0.2-1.2,0.1c-0.4-0.1-0.9-0.3-1.2-0.6
		C145.8,257.5,146.1,257.2,146.4,256.9L146.4,256.9z"/>
	<path class="st22" d="M122.6,276.7h-0.2c-0.7,0-1.3,0.3-1.8,0.8c-0.7,0.7-1.1,1.7-1.2,2.7l0,0c-0.2,1.1,0.1,2.3,0.8,3.2
		c0.4,0.5,0.9,0.8,1.5,0.9c1.5,0.2,3-1.4,3.2-3.5S124.2,276.9,122.6,276.7z M124.5,280.5c0,0.3-0.1,0.6-0.2,0.8
		c-0.2,0.4-0.3,0.7-0.4,1.1c-0.5-0.1-0.9-0.4-1.1-0.8c-0.2-0.4-0.3-0.8-0.3-1.2c0-0.4,0.2-0.8,0.4-1.1c0.3-0.4,0.6-0.7,1.1-0.8
		c0.2,0.4,0.4,0.8,0.5,1.2C124.5,279.9,124.6,280.2,124.5,280.5L124.5,280.5z"/>
	<path class="st22" d="M156.6,260c0.7,0.3,1.4,0.4,2.2,0.3c0.3-0.1,0.6-0.3,0.9-0.4c0.4-0.1,0.8-0.2,1.2-0.3
		c0.6-0.3,1.1-0.8,1.4-1.3c0.4-0.6,0.6-1.4,0.3-2.1c-0.5-1.1-1.7-1.8-2.9-1.6c-0.6,0-1.1,0.1-1.7,0.3c-1,0.3-1.8,0.9-2.3,1.8
		c-0.4,0.6-0.6,1.4-0.3,2.1C155.6,259.3,156,259.8,156.6,260z M157.2,255.8c0.2-0.2,0.5-0.4,0.8-0.5c0.3-0.1,0.5-0.2,0.8-0.2
		c0.4,0,0.8-0.1,1.2-0.1c0.2,0.5,0.1,1-0.2,1.4c-0.2,0.4-0.6,0.6-1,0.8c-0.4,0.2-0.8,0.2-1.2,0.1c-0.4-0.1-0.9-0.3-1.2-0.6
		C156.5,256.4,156.8,256.1,157.2,255.8z"/>
	<path class="st22" d="M155.1,268.2c0.3-0.6,0.3-1.2,0.2-1.8c-0.5-1.1-1.7-1.8-2.9-1.6c-0.6,0-1.1,0.1-1.7,0.3
		c-1,0.3-1.8,0.9-2.3,1.8c-0.8,1-0.6,2.4,0.4,3.2c0.3,0.2,0.5,0.3,0.9,0.4c1,0.3,2,0.3,2.9-0.1l0,0
		C153.7,270,154.6,269.2,155.1,268.2z M152.4,266.7c-0.2,0.4-0.6,0.6-1,0.8c-0.4,0.2-0.8,0.2-1.2,0.1c-0.4-0.1-0.9-0.3-1.2-0.6
		c0.2-0.4,0.5-0.7,0.8-1c0.2-0.2,0.5-0.4,0.8-0.5c0.3-0.1,0.5-0.2,0.8-0.2c0.4,0,0.8-0.1,1.2-0.1
		C152.8,265.8,152.7,266.3,152.4,266.7z"/>
	<path class="st22" d="M138.7,273.4c1.1-0.4,2-1.1,2.5-2.1c0.3-0.6,0.3-1.2,0.1-1.8c-0.5-1.1-1.7-1.8-2.9-1.6
		c-0.6,0-1.1,0.1-1.7,0.3c-1,0.3-1.8,1-2.3,1.8c-0.8,1-0.6,2.4,0.4,3.2c0.3,0.2,0.6,0.3,0.9,0.4
		C136.8,273.8,137.8,273.8,138.7,273.4L138.7,273.4z M137.5,270.5c-0.4,0.2-0.8,0.2-1.2,0.1c-0.4-0.1-0.9-0.3-1.2-0.6
		c0.2-0.4,0.5-0.7,0.8-1c0.2-0.2,0.5-0.4,0.8-0.5c0.3-0.1,0.5-0.2,0.8-0.2c0.4,0,0.8-0.1,1.2-0.1c0.2,0.5,0.1,1-0.2,1.4
		C138.3,270.1,137.9,270.4,137.5,270.5L137.5,270.5z"/>
	<path class="st22" d="M173.1,271.2c-0.6,0-1.1,0.1-1.7,0.3c-1,0.3-1.8,0.9-2.3,1.8c-0.4,0.6-0.6,1.4-0.3,2.1
		c0.2,0.6,0.7,1.1,1.2,1.3c1.1,0.4,2.2,0.5,3.3,0l0,0c1-0.3,1.8-0.9,2.3-1.8c0.4-0.6,0.6-1.4,0.3-2.1
		C175.4,271.8,174.3,271.1,173.1,271.2z M173.1,273.1c-0.2,0.4-0.6,0.6-1,0.8c-0.4,0.2-0.8,0.2-1.2,0.1c-0.4-0.1-0.9-0.3-1.2-0.6
		c0.2-0.4,0.5-0.7,0.8-0.9c0.2-0.2,0.5-0.4,0.8-0.5c0.3-0.1,0.5-0.2,0.8-0.2c0.4,0,0.8-0.1,1.1-0.1
		C173.5,272.2,173.4,272.8,173.1,273.1L173.1,273.1z"/>
	<path class="st22" d="M177.9,270.4c0.1-0.1,0.1-0.2,0.2-0.3h-0.2c-0.9,0-1.7-0.2-2.5-0.5c-0.3-0.1-0.5-0.3-0.7-0.4
		c-0.1,0.1-0.2,0.2-0.3,0.3c1.4,0.3,2.6,1.2,3.2,2.4C177.7,271.3,177.8,270.9,177.9,270.4z"/>
	<path class="st22" d="M164.2,268.6h-0.2c-0.1,0-0.2,0-0.3,0c-0.2,0.1-0.5,0.2-0.8,0.3l-0.2,0.1c-0.2,0.1-0.3,0.2-0.5,0.4
		c-0.7,0.7-1.1,1.7-1.2,2.7l0,0c-0.2,1.1,0.1,2.3,0.8,3.2c0.4,0.5,0.9,0.8,1.5,0.9c1.5,0.2,3-1.4,3.2-3.5c0.1-1-0.1-2-0.6-2.9
		C165.6,269.2,164.9,268.7,164.2,268.6z M166.1,272.4c0,0.3-0.1,0.6-0.2,0.8c-0.2,0.4-0.3,0.7-0.4,1.1c-0.5-0.1-0.9-0.4-1.2-0.8
		c-0.2-0.4-0.3-0.8-0.3-1.2c0-0.4,0.2-0.8,0.4-1.1c0.3-0.4,0.6-0.7,1.1-0.8c0.2,0.4,0.4,0.8,0.5,1.2
		C166,271.8,166.1,272.1,166.1,272.4z"/>
	<path class="st22" d="M184.4,270c-0.6-0.2-1.2-0.3-1.9-0.3c-1.1-0.1-2.2,0.5-2.7,1.5c-0.3,0.7-0.2,1.5,0.2,2.1
		c0.5,0.9,1.3,1.5,2.3,1.9l0,0c1.1,0.5,2.2,0.5,3.3,0.1c0.6-0.2,1-0.7,1.3-1.2C187.5,272.6,186.4,270.8,184.4,270z M184.6,272.3
		c-0.4,0.1-0.9,0.1-1.3-0.1c-0.4-0.1-0.7-0.4-1-0.7c-0.3-0.4-0.4-0.8-0.5-1.2c0.4-0.1,0.8-0.2,1.3-0.2c0.3,0,0.6,0.1,0.9,0.2
		c0.3,0.1,0.5,0.2,0.8,0.4c0.3,0.2,0.6,0.5,0.9,0.7C185.5,271.9,185.1,272.2,184.6,272.3z"/>
	<path class="st22" d="M194.3,281.4c-0.6,0-1.1,0.1-1.7,0.3c-1,0.3-1.8,0.9-2.3,1.8c-0.8,1-0.6,2.4,0.4,3.2c0.3,0.2,0.5,0.3,0.9,0.4
		c1,0.3,2,0.3,2.9-0.1l0,0c1.1-0.4,2-1.1,2.5-2.1c0.3-0.6,0.3-1.2,0.1-1.8C196.6,282,195.5,281.3,194.3,281.4z M194.3,283.3
		c-0.2,0.4-0.6,0.6-1,0.8c-0.4,0.2-0.8,0.2-1.2,0.1c-0.5-0.1-0.9-0.3-1.2-0.6c0.2-0.4,0.5-0.7,0.8-0.9c0.2-0.2,0.5-0.4,0.8-0.5
		c0.3-0.1,0.5-0.2,0.8-0.2c0.4,0,0.8-0.1,1.1-0.1C194.6,282.4,194.5,282.9,194.3,283.3L194.3,283.3z"/>
	<path class="st22" d="M159,271.8c0.1-0.9,0.4-1.7,0.9-2.5c-0.4,0-0.8-0.1-1.2-0.2c-0.5-0.2-1-0.4-1.4-0.8c-0.1,0.3-0.2,0.5-0.3,0.7
		c-0.7,1.4-1.9,2.4-3.3,3c0.4,0.4,0.7,0.8,1,1.3c0.2,0.5,0.3,1.1,0.3,1.7c0.9,0.5,3.2,1.6,4.8,0.7
		C159.1,274.6,158.8,273.2,159,271.8z"/>
	<path class="st22" d="M132.3,272.7c-0.4-1.1-0.3-2.3,0.2-3.3c-1.3-0.5-2.8-0.3-4,0.4c0.4,1.3,0.2,2.7-0.5,3.8
		c-0.2,0.3-0.5,0.7-0.8,0.9c0.9,0.6,2,1,3.1,1.1c1.2,0,2.4-0.4,3.3-1.1C133,274,132.6,273.4,132.3,272.7z"/>
	<path class="st22" d="M150.3,278.3c1.1-0.4,1.9-1.2,2.4-2.3c0.2-0.6,0.2-1.2,0-1.8c-0.5-1-1.6-1.6-2.7-1.5c-0.7,0-1.3,0.1-1.9,0.4
		c-0.9,0.4-1.7,1.1-2.3,1.9c-0.7,1-0.4,2.4,0.6,3.1c0.3,0.2,0.6,0.3,0.9,0.4C148.3,278.8,149.3,278.7,150.3,278.3L150.3,278.3z
		 M149.8,274.6c-0.2,0.4-0.6,0.7-0.9,0.8c-0.4,0.2-0.8,0.2-1.2,0.2c-0.5,0-0.9-0.2-1.2-0.5c0.2-0.4,0.5-0.7,0.8-1
		c0.2-0.2,0.5-0.4,0.8-0.5c0.3-0.1,0.5-0.2,0.8-0.2c0.4,0,0.8-0.1,1.1-0.2C150.2,273.7,150.1,274.2,149.8,274.6z"/>
	<path class="st22" d="M143.8,277.9c-0.5-1.3-0.4-2.7,0.3-3.9c0.2-0.3,0.4-0.6,0.6-0.8c-0.6-0.2-1.2-0.5-1.7-0.9
		c-0.8,1.4-2,2.5-3.6,3c-0.5,0.2-1,0.3-1.6,0.4c-0.1,1.4,0,4.3,2.2,5.2c0.2,0.1,2.5,0.7,4-2.4C144,278.3,143.9,278.1,143.8,277.9z"
		/>
	<path class="st22" d="M152,280c-0.7,0.2-1.4,0.7-1.7,1.4c-0.2,0.6-0.2,1.2,0.1,1.8c0.5,1,1.4,1.8,2.5,2.2l0,0
		c1.1,0.5,2.2,0.5,3.3,0.1c0.6-0.2,1-0.7,1.3-1.2c0.6-1.4-0.6-3.2-2.5-4c-0.6-0.2-1.2-0.4-1.8-0.4C152.7,279.9,152.3,279.9,152,280z
		 M154.5,280.6c0.3,0.1,0.5,0.2,0.8,0.4c0.3,0.2,0.6,0.5,0.9,0.7c-0.2,0.5-0.6,0.8-1.1,0.9c-0.4,0.1-0.8,0.1-1.2-0.1
		c-0.4-0.1-0.7-0.4-1-0.7c-0.3-0.3-0.5-0.8-0.5-1.2c0.4-0.1,0.8-0.2,1.3-0.1C153.9,280.4,154.2,280.5,154.5,280.6L154.5,280.6z"/>
	<path d="M199,282.4c-0.9-2.5-4.1-3.6-7.1-2.6c-1.4,0.5-2.6,1.4-3.4,2.6c-1.4,1.9-0.9,4.6,1,5.9c0.4,0.3,0.8,0.5,1.3,0.6
		c0.6,0.2,1.3,0.3,1.9,0.3c0.8,0,1.6-0.1,2.3-0.4c1.6-0.5,3-1.7,3.8-3.2C199.3,284.7,199.4,283.5,199,282.4z M197,284.9
		c-0.5,1-1.4,1.8-2.5,2.1l0,0c-0.9,0.4-2,0.4-2.9,0.1c-1.2-0.3-2-1.5-1.7-2.7c0.1-0.3,0.2-0.6,0.4-0.9c0.5-0.8,1.4-1.5,2.3-1.8
		c0.5-0.2,1.1-0.3,1.7-0.3c1.2-0.1,2.4,0.5,2.9,1.6C197.3,283.6,197.3,284.3,197,284.9L197,284.9z"/>
	<path d="M193.3,282.1c-0.3,0-0.6,0.1-0.8,0.2c-0.3,0.1-0.6,0.3-0.8,0.5c-0.3,0.3-0.6,0.6-0.9,0.9c0.3,0.3,0.8,0.5,1.2,0.6
		c0.4,0.1,0.8,0,1.2-0.1c0.4-0.2,0.8-0.4,1-0.8c0.3-0.4,0.4-0.9,0.2-1.4C194.1,282,193.7,282.1,193.3,282.1z"/>
	<path d="M114.1,266.1c-0.3,0-0.6,0.1-0.8,0.2c-0.3,0.1-0.6,0.3-0.8,0.5c-0.3,0.3-0.6,0.6-0.8,1c0.3,0.3,0.7,0.5,1.2,0.6
		c0.4,0.1,0.8,0,1.2-0.1c0.4-0.2,0.8-0.4,1-0.8c0.3-0.4,0.4-0.9,0.2-1.4C114.9,266,114.5,266.1,114.1,266.1z"/>
	<path d="M148,258.3c0.4-0.2,0.8-0.4,1-0.8c0.3-0.4,0.4-0.9,0.2-1.4c-0.4,0.1-0.8,0.1-1.1,0.1c-0.3,0-0.6,0.1-0.8,0.2
		c-0.3,0.1-0.6,0.3-0.8,0.5c-0.3,0.3-0.6,0.6-0.8,0.9c0.3,0.3,0.8,0.5,1.2,0.6C147.2,258.5,147.6,258.4,148,258.3z"/>
	<path d="M161,262.2c-0.3,0-0.6,0.1-0.8,0.2c-0.3,0.1-0.6,0.3-0.8,0.5c-0.3,0.3-0.6,0.6-0.8,1c0.3,0.3,0.8,0.5,1.2,0.6
		c0.4,0.1,0.8,0,1.2-0.1c0.4-0.2,0.8-0.4,1-0.8c0.3-0.4,0.4-0.9,0.2-1.4C161.8,262.1,161.4,262.1,161,262.2z"/>
	<path d="M158.7,257.2c0.4-0.2,0.8-0.4,1-0.8c0.3-0.4,0.4-0.9,0.2-1.4c-0.4,0.1-0.8,0.1-1.2,0.1c-0.3,0-0.6,0.1-0.8,0.2
		c-0.3,0.1-0.6,0.3-0.8,0.5c-0.3,0.3-0.6,0.6-0.8,0.9c0.3,0.3,0.8,0.5,1.2,0.6C157.9,257.4,158.3,257.3,158.7,257.2z"/>
	<path d="M176.8,263.6c-0.3,0.3-0.6,0.6-0.8,1c0.3,0.3,0.8,0.5,1.2,0.6c0.4,0.1,0.8,0,1.2-0.2c0.4-0.2,0.8-0.4,1-0.8
		c0.3-0.4,0.4-0.9,0.2-1.4c-0.4,0.1-0.8,0.1-1.1,0.1c-0.3,0-0.6,0.1-0.8,0.2C177.3,263.2,177.1,263.4,176.8,263.6z"/>
	<path d="M172.1,271.9c-0.3,0-0.6,0.1-0.8,0.2c-0.3,0.1-0.6,0.3-0.8,0.5c-0.3,0.3-0.6,0.6-0.8,0.9c0.3,0.3,0.8,0.5,1.2,0.6
		c0.4,0.1,0.8,0,1.2-0.1c0.4-0.2,0.8-0.4,1-0.8c0.3-0.4,0.4-0.9,0.2-1.4C172.9,271.8,172.5,271.9,172.1,271.9z"/>
	<path d="M148.8,273.4c-0.3,0-0.6,0.1-0.8,0.2c-0.3,0.1-0.5,0.3-0.8,0.5c-0.3,0.3-0.6,0.6-0.8,1c0.3,0.3,0.8,0.5,1.2,0.5
		c0.4,0,0.8-0.1,1.1-0.2c0.4-0.2,0.7-0.5,0.9-0.8c0.3-0.4,0.3-0.9,0.1-1.4C149.6,273.3,149.2,273.4,148.8,273.4z"/>
	<path d="M133,258.1c0.4,0.1,0.8,0.2,1.3,0.1c0.5-0.1,0.9-0.4,1.1-0.9c-0.3-0.2-0.6-0.4-1-0.6c-0.2-0.2-0.5-0.3-0.8-0.4
		c-0.3-0.1-0.6-0.2-0.9-0.2c-0.4,0-0.9,0-1.3,0.1c0,0.5,0.2,0.9,0.5,1.2C132.3,257.8,132.6,258,133,258.1z"/>
	<path d="M188.8,274.8c1-2.5-0.6-5.4-3.6-6.6c-0.6-0.3-1.3-0.4-2-0.5c0.2-0.2,0.3-0.4,0.5-0.6c0.8-1.1,1-2.6,0.5-3.9
		c-0.8-2.1-3.2-3.2-5.8-2.9c0.1-0.4,0.2-0.8,0.3-1.3c0.4-3.2-1.4-6.1-4.1-6.4c-1.4-0.1-2.7,0.4-3.7,1.4c-0.6,0.7-1.1,1.5-1.4,2.3
		c-1.5-0.8-3.3-1.1-5-0.8v-0.1c-0.9-2.5-4.1-3.6-7.1-2.6c-1.4,0.5-2.6,1.4-3.4,2.6c-0.2,0.2-0.3,0.5-0.4,0.8c-1-2.3-4-3.3-6.9-2.3
		c-1.1-2.4-3.4-4-6-4.1c-2.8-0.2-5.3,1.5-6.2,4.1c-2.9-1-5.9,0-6.9,2.4c-0.3,0.8-0.4,1.8-0.1,2.6c-1.1-0.2-2.3-0.1-3.4,0.3
		c-1.4,0.5-2.6,1.4-3.4,2.6c-0.8,1.1-0.9,2.6-0.5,3.8c0.2,0.6,0.6,1.1,1,1.6c-0.4,0.2-0.8,0.4-1.2,0.6c0-0.5-0.1-1-0.2-1.4
		c-0.9-2.5-4.1-3.6-7.1-2.6c-1.6,0.5-2.9,1.7-3.7,3.2c-1.1,2.1-0.2,4.6,1.8,5.6c0.1,0,0.2,0.1,0.2,0.1c0.8,0.4,1.6,0.5,2.5,0.5
		c0.8,0,1.6-0.1,2.3-0.4c0.5-0.2,1-0.4,1.4-0.7c0,0.5,0.1,1,0.2,1.5c0.3,1,1,1.7,1.9,2.2l-0.2,0.2c-1,1-1.6,2.4-1.8,3.9
		c-0.2,1.7,0.2,3.3,1.2,4.7c0.7,0.9,1.7,1.5,2.9,1.7h0.5c2.4,0,4.6-2.2,5-5.2c0.3-1.9-0.3-3.8-1.6-5.2l0.3-0.1
		c0.8,0.6,1.6,1.1,2.5,1.4c0.8,0.3,1.6,0.4,2.4,0.4c1.9,0,3.7-0.8,5.1-2.1l0.2,0.1c-0.1,1.9,0.1,5.7,3.5,7.1
		c0.5,0.2,0.9,0.2,1.4,0.2c2,0,3.8-1.2,4.8-3c0.4,0.2,0.8,0.4,1.3,0.6c0.5,0.1,1,0.2,1.6,0.2h0.1c-0.4,1.1-0.4,2.3,0.1,3.3
		c0.7,1.5,2,2.7,3.5,3.3c0.8,0.3,1.7,0.5,2.6,0.5c0.8,0,1.5-0.1,2.3-0.4c1.1-0.4,1.9-1.3,2.4-2.3c1-2.5-0.6-5.4-3.6-6.6
		c-0.6-0.2-1.2-0.4-1.9-0.5c0.2-0.2,0.3-0.5,0.5-0.8c1.2,0.6,2.5,1,3.9,1c1,0,1.9-0.3,2.8-0.8c0.6,0.5,1.3,0.8,2,0.9h0.5
		c1.4,0,2.7-0.7,3.5-1.8c0.4,0.9,1.2,1.7,2.1,2.1c0.8,0.4,1.6,0.5,2.5,0.5c0.8,0,1.6-0.1,2.4-0.4c1.4-0.5,2.6-1.4,3.4-2.6
		c0.4-0.7,0.7-1.4,0.8-2.2c0.1,0.2,0.2,0.3,0.2,0.5c0.7,1.2,1.9,2.2,3.2,2.7c0.8,0.3,1.7,0.5,2.6,0.5c0.8,0,1.5-0.1,2.3-0.4
		C187.5,276.7,188.3,275.9,188.8,274.8z M179.4,262.3c1.2-0.1,2.4,0.5,2.9,1.6c0.2,0.7,0.1,1.5-0.3,2.1c-0.6,0.8-1.4,1.5-2.3,1.8
		l0,0c-1.1,0.4-2.3,0.4-3.3,0c-0.6-0.2-1-0.7-1.2-1.3c-0.2-0.7-0.1-1.5,0.3-2.1c0.2-0.3,0.4-0.5,0.6-0.7c0.3-0.2,0.5-0.4,0.8-0.6
		C177.5,262.5,178.4,262.3,179.4,262.3L179.4,262.3z M161.8,267.2c-0.8,0.3-1.7,0.3-2.6,0c-1.2-0.3-2-1.5-1.7-2.7
		c0.1-0.3,0.2-0.6,0.4-0.9c0.4-0.6,0.8-1,1.4-1.3c0.7-0.1,1.4-0.4,2.1-0.7c0.2,0,0.4,0,0.5,0c1.2-0.1,2.3,0.5,2.8,1.6
		c0.2,0.7,0.1,1.5-0.3,2.1c-0.4,0.6-0.9,1.1-1.5,1.4C162.6,266.8,162.2,267,161.8,267.2z M166.2,266.4c0.3-0.5,0.5-1,0.6-1.5
		c0.9-1.3,2.5-2,4-1.7c0.6,0.6,1.4,1,2.3,1.1c-0.3,0.9-0.3,1.9,0,2.9c0.1,0.2,0.1,0.3,0.2,0.4c-1.2,1.6-3.2,2.5-5.2,2.3
		c-0.1-0.3-0.3-0.7-0.5-1c-0.5-0.8-1.1-1.4-1.9-1.8C165.9,266.8,166.1,266.6,166.2,266.4L166.2,266.4z M171.1,258.2L171.1,258.2
		c0.1-1,0.5-1.9,1.2-2.7c0.5-0.5,1.1-0.8,1.8-0.8h0.2c1.5,0.2,2.6,2,2.3,4.2c-0.1,1-0.5,1.9-1.1,2.6c-0.3,0.2-0.6,0.4-0.8,0.6
		c-0.4,0.2-0.8,0.3-1.3,0.3c-0.6-0.1-1.2-0.4-1.6-0.9C171.2,260.4,170.9,259.3,171.1,258.2L171.1,258.2z M169.1,258.5
		c0,0.9,0.1,1.8,0.4,2.7c-1,0.1-2,0.5-2.9,1.1c-0.6-1.2-1.7-2.1-3-2.5c0.1-0.1,0.2-0.3,0.3-0.4c0.3-0.5,0.6-1.1,0.7-1.8
		C166.2,257.3,167.8,257.6,169.1,258.5L169.1,258.5z M155.7,256.6c0.6-0.8,1.4-1.5,2.3-1.8c0.5-0.2,1.1-0.3,1.7-0.3
		c1.2-0.1,2.4,0.5,2.9,1.6c0.2,0.7,0.1,1.5-0.3,2.1c-0.4,0.6-0.9,1-1.4,1.4c-0.4,0.1-0.8,0.2-1.2,0.3c-0.3,0.1-0.6,0.2-0.9,0.4
		c-0.7,0.1-1.5,0-2.2-0.3c-0.6-0.3-1-0.7-1.2-1.3C155.1,258,155.3,257.2,155.7,256.6z M153.2,260.4c0.2-0.2,0.3-0.5,0.4-0.8
		c0.4,1,1.2,1.7,2.2,2.2c0.3,0.1,0.6,0.2,0.8,0.3c-0.1,0.1-0.2,0.3-0.3,0.4c-0.3,0.4-0.5,0.8-0.6,1.3c-1.7-1.1-3.8-1.4-5.6-0.7
		c-0.3,0.1-0.7,0.3-1,0.5c-0.1-0.1-0.1-0.2-0.2-0.4c0.3-0.1,0.7-0.2,1-0.3C151.2,262.6,152.4,261.6,153.2,260.4z M143.5,270
		c0-0.4-0.1-0.8-0.2-1.2c-0.3-0.8-0.9-1.5-1.6-2c0-1.3,0.6-2.6,1.6-3.4c0.6-0.4,1.3-0.5,2-0.3h0.1l0.1,0.1h0.1
		c0.8,0.2,1.5,1,1.6,1.8c-0.2,0.3-0.4,0.5-0.6,0.8c-0.8,1.2-1,2.6-0.5,3.9c0.2,0.6,0.6,1.2,1.1,1.6
		C145.8,271.8,144.3,271.2,143.5,270L143.5,270z M135.8,273.5c-1.2-0.3-2-1.5-1.7-2.7c0.1-0.3,0.2-0.6,0.4-0.9
		c0.5-0.8,1.3-1.5,2.3-1.8c0.5-0.2,1.1-0.3,1.7-0.3c1.2-0.1,2.4,0.5,2.9,1.6c0.2,0.6,0.1,1.2-0.1,1.8c-0.5,1-1.4,1.8-2.5,2.1l0,0
		C137.8,273.7,136.8,273.8,135.8,273.5z M130.7,265.7c0.5-0.8,0.8-1.7,0.8-2.7l0.3,0.1c-0.3,1.5,0.2,3.1,1.1,4.3
		c-1.3-0.4-2.6-0.4-3.9,0C129.7,267,130.2,266.4,130.7,265.7z M138.5,260.7c0.1-0.2,0.2-0.5,0.2-0.7c0.7,0.3,1.5,0.4,2.2,0.4
		c0.6,0,1.1-0.1,1.7-0.3c0,0.1,0.1,0.3,0.1,0.4c0.1,0.3,0.2,0.5,0.4,0.7c-0.4,0.1-0.7,0.3-1,0.5c-1.3,1.1-2.2,2.6-2.4,4.3
		c-1.2-0.2-2.4-0.1-3.5,0.3c-0.4,0.2-0.8,0.3-1.2,0.6c-1.4-1.5-1.4-2.7-1.3-3.4h0.1c0.6,0,1.1-0.1,1.7-0.2
		C136.8,262.9,137.9,262,138.5,260.7L138.5,260.7z M152.6,270.4L152.6,270.4c-0.9,0.4-2,0.4-2.9,0.1c-1.2-0.3-2-1.5-1.7-2.7
		c0.1-0.3,0.2-0.6,0.4-0.9c0.6-0.8,1.4-1.5,2.3-1.8c0.5-0.2,1.1-0.3,1.7-0.3c1.2-0.1,2.4,0.5,2.9,1.6c0.2,0.6,0.1,1.2-0.2,1.8
		C154.6,269.2,153.7,270,152.6,270.4L152.6,270.4z M149,255.6c1.2-0.1,2.3,0.5,2.9,1.6c0.2,0.7,0.1,1.5-0.3,2.1
		c-0.6,0.8-1.4,1.5-2.3,1.8l0,0c-0.9,0.4-2,0.4-2.9,0.1h-0.1c-0.7-0.2-1.3-0.7-1.6-1.4c-0.2-0.7-0.1-1.5,0.4-2.1
		c0.6-0.8,1.4-1.5,2.3-1.8C147.8,255.7,148.4,255.6,149,255.6z M140.6,251.9c1.9,0.1,3.6,1.2,4.3,3c-0.7,0.5-1.2,1-1.7,1.7
		c-0.2,0.4-0.4,0.8-0.6,1.2c-1.3,0.7-2.9,0.6-4.2-0.1c-0.4-1.2-1.2-2.1-2.2-2.8C136.9,253,138.7,251.7,140.6,251.9L140.6,251.9z
		 M129.5,257.1c0.5-1,1.6-1.6,2.8-1.5c0.6,0,1.3,0.1,1.8,0.4c2,0.8,3.1,2.6,2.5,4c-0.3,0.7-0.9,1.2-1.7,1.4c-1,0.3-2,0.2-2.9-0.2
		l0,0c-0.9-0.4-1.7-1-2.3-1.9C129.4,258.6,129.3,257.8,129.5,257.1z M122.4,262.9c0.6-0.8,1.4-1.5,2.3-1.8c0.5-0.2,1.1-0.3,1.7-0.3
		c1.2-0.1,2.4,0.6,2.9,1.6c0.2,0.7,0.1,1.5-0.3,2.1c-0.6,0.8-1.4,1.5-2.3,1.8l0,0c-0.9,0.4-2,0.4-2.9,0.1c-1.2-0.3-2-1.5-1.7-2.7
		C122.1,263.5,122.2,263.2,122.4,262.9L122.4,262.9z M115.3,271L115.3,271c-1.1,0.4-2.3,0.4-3.3-0.1c-1.1-0.4-1.7-1.7-1.2-2.8
		c0-0.1,0.1-0.2,0.1-0.3c0.5-1,1.4-1.8,2.5-2.1c0.5-0.2,1.1-0.3,1.7-0.3c1.2-0.1,2.4,0.5,2.9,1.7c0.2,0.7,0.1,1.5-0.3,2.1
		C117,270.1,116.2,270.7,115.3,271L115.3,271z M119.8,270.9c0.6-0.8,1.4-1.5,2.3-1.8c0.5-0.2,1.1-0.3,1.7-0.3
		c1.2-0.1,2.4,0.5,2.9,1.6c0.2,0.7,0.1,1.5-0.3,2.1c-0.6,0.8-1.4,1.5-2.3,1.8l0,0c-0.9,0.4-2,0.4-2.9,0.1c-1.2-0.3-2-1.5-1.7-2.7
		C119.5,271.4,119.6,271.1,119.8,270.9L119.8,270.9z M125,280.9c-0.3,2.1-1.7,3.7-3.2,3.5c-0.6-0.1-1.2-0.4-1.5-0.9
		c-0.7-0.9-0.9-2.1-0.8-3.2l0,0c0.1-1,0.5-1.9,1.2-2.7c0.5-0.5,1.1-0.8,1.8-0.8h0.2C124.2,276.9,125.2,278.8,125,280.9L125,280.9z
		 M130.3,275.6c-1.1-0.1-2.2-0.4-3.1-1.1c0.3-0.3,0.5-0.6,0.8-0.9c0.8-1.1,1-2.5,0.5-3.8c1.2-0.7,2.7-0.9,4-0.4
		c-0.5,1-0.6,2.2-0.3,3.3c0.3,0.7,0.7,1.3,1.3,1.8C132.7,275.2,131.5,275.6,130.3,275.6L130.3,275.6z M140.1,280.8
		c-2.3-0.9-2.3-3.8-2.3-5.2c0.5-0.1,1.1-0.2,1.6-0.4c1.5-0.5,2.8-1.6,3.6-3c0.5,0.4,1.1,0.7,1.7,0.9c-0.2,0.3-0.4,0.5-0.6,0.8
		c-0.7,1.2-0.8,2.6-0.3,3.9c0.1,0.2,0.2,0.3,0.3,0.5C142.5,281.5,140.3,280.9,140.1,280.8L140.1,280.8z M147.3,278.5
		c-1.2-0.2-2.1-1.4-1.8-2.6c0.1-0.3,0.2-0.6,0.3-0.9c0.5-0.9,1.3-1.5,2.2-1.9c0.6-0.3,1.2-0.4,1.9-0.4c1.1-0.1,2.2,0.5,2.7,1.5
		c0.2,0.6,0.2,1.2,0,1.8c-0.5,1-1.3,1.9-2.4,2.3l0,0C149.3,278.7,148.3,278.8,147.3,278.5L147.3,278.5z M157.4,284.3
		c-0.2,0.6-0.7,1-1.3,1.2c-1.1,0.4-2.3,0.4-3.3-0.1l0,0c-1.1-0.4-1.9-1.2-2.4-2.2c-0.3-0.6-0.3-1.2-0.1-1.8c0.3-0.7,0.9-1.2,1.7-1.4
		c0.4-0.1,0.7-0.2,1.1-0.1c0.6,0,1.2,0.1,1.8,0.4C156.8,281,158,282.8,157.4,284.3z M154.8,275.1c0-0.6-0.1-1.2-0.3-1.7
		c-0.2-0.5-0.5-1-0.9-1.3c1.4-0.6,2.6-1.6,3.3-3c0.1-0.2,0.2-0.5,0.3-0.7c0.4,0.3,0.9,0.6,1.4,0.8c0.4,0.1,0.8,0.2,1.2,0.2
		c-0.4,0.8-0.7,1.6-0.8,2.5c-0.2,1.4,0.1,2.8,0.7,4C158.1,276.7,155.8,275.7,154.8,275.1z M166.5,272.8c-0.2,2.1-1.7,3.7-3.2,3.5
		c-0.6-0.1-1.2-0.4-1.5-0.9c-0.7-0.9-0.9-2.1-0.8-3.2l0,0c0.1-1,0.5-1.9,1.2-2.7c0.1-0.1,0.3-0.3,0.5-0.4l0.2-0.1
		c0.3-0.1,0.5-0.2,0.8-0.3c0.1,0,0.2,0,0.3,0h0.2c0.7,0.1,1.4,0.6,1.8,1.2C166.4,270.8,166.6,271.8,166.5,272.8L166.5,272.8z
		 M175.6,275c-0.6,0.8-1.4,1.5-2.3,1.8l0,0c-1.1,0.4-2.3,0.4-3.3,0c-0.6-0.2-1-0.7-1.2-1.3c-0.2-0.7-0.1-1.5,0.3-2.1
		c0.6-0.8,1.4-1.5,2.3-1.8c0.5-0.2,1.1-0.3,1.7-0.3c1.2-0.1,2.4,0.5,2.9,1.6C176.2,273.6,176,274.4,175.6,275L175.6,275z
		 M174.4,269.4c0.1-0.1,0.2-0.2,0.3-0.3c0.2,0.2,0.5,0.3,0.7,0.4c0.8,0.4,1.6,0.5,2.5,0.5h0.2c-0.1,0.1-0.1,0.2-0.2,0.4
		c-0.2,0.4-0.3,0.9-0.3,1.4C177,270.6,175.8,269.7,174.4,269.4L174.4,269.4z M186.9,274.1c-0.2,0.6-0.7,1-1.3,1.2
		c-1.1,0.4-2.3,0.4-3.3-0.1l0,0c-0.9-0.4-1.7-1-2.3-1.9c-0.4-0.7-0.5-1.5-0.2-2.2c0.5-1,1.6-1.6,2.7-1.5c0.6,0,1.3,0.1,1.9,0.4
		C186.4,270.8,187.5,272.6,186.9,274.1L186.9,274.1z"/>
	<path d="M184,270.4c-0.3-0.1-0.6-0.2-0.9-0.2c-0.4,0-0.9,0-1.3,0.2c0,0.5,0.2,0.9,0.5,1.2c0.3,0.3,0.6,0.5,1,0.7
		c0.4,0.1,0.8,0.2,1.3,0.1c0.5-0.1,0.9-0.4,1.1-0.9c-0.3-0.2-0.6-0.4-0.9-0.7C184.5,270.6,184.2,270.5,184,270.4z"/>
	<path d="M152.8,281.8c0.3,0.3,0.6,0.5,1,0.7c0.4,0.1,0.8,0.2,1.3,0.1c0.5-0.1,0.9-0.4,1.1-0.9c-0.3-0.2-0.6-0.4-0.9-0.7
		c-0.2-0.2-0.5-0.3-0.8-0.4c-0.3-0.1-0.6-0.2-0.9-0.2c-0.4,0-0.9,0-1.3,0.1C152.4,281,152.5,281.4,152.8,281.8z"/>
	<path d="M122.9,279.3c-0.2,0.3-0.4,0.7-0.4,1.1c0,0.4,0.1,0.9,0.3,1.2c0.2,0.5,0.7,0.8,1.1,0.8c0.1-0.4,0.2-0.7,0.4-1.1
		c0.1-0.3,0.2-0.5,0.2-0.8c0-0.3,0-0.6-0.1-0.9c-0.1-0.4-0.2-0.8-0.5-1.2C123.6,278.6,123.2,278.9,122.9,279.3z"/>
	<path d="M164.5,271.2c-0.2,0.3-0.4,0.7-0.4,1.1c0,0.4,0.1,0.9,0.3,1.2c0.2,0.5,0.7,0.8,1.2,0.8c0.1-0.4,0.2-0.7,0.4-1.1
		c0.1-0.3,0.2-0.5,0.2-0.8c0-0.3,0-0.6-0.1-0.9c-0.1-0.4-0.2-0.8-0.5-1.2C165.1,270.5,164.7,270.8,164.5,271.2z"/>
	<path d="M175.6,260.4c0.1-0.4,0.2-0.7,0.4-1.1c0.1-0.3,0.2-0.5,0.2-0.8c0-0.3,0-0.6-0.1-0.9c-0.1-0.4-0.2-0.8-0.5-1.2
		c-0.4,0.2-0.8,0.4-1.1,0.8c-0.2,0.3-0.4,0.7-0.4,1.1c0,0.4,0.1,0.9,0.3,1.2C174.7,260.1,175.1,260.4,175.6,260.4z"/>
	<path d="M138.7,268.3c-0.4,0.1-0.8,0.1-1.1,0.1c-0.3,0-0.6,0.1-0.8,0.2c-0.3,0.1-0.6,0.3-0.8,0.5c-0.3,0.3-0.6,0.6-0.8,1
		c0.3,0.3,0.8,0.5,1.2,0.6c0.4,0.1,0.8,0,1.2-0.1c0.4-0.2,0.8-0.4,1-0.8C138.8,269.3,138.9,268.8,138.7,268.3z"/>
	<path d="M151.4,265.4c-0.3,0-0.6,0.1-0.8,0.2c-0.3,0.1-0.6,0.3-0.8,0.5c-0.3,0.3-0.6,0.6-0.8,1c0.3,0.3,0.8,0.5,1.2,0.6
		c0.4,0.1,0.8,0,1.2-0.1c0.4-0.2,0.8-0.4,1-0.8c0.3-0.4,0.4-0.9,0.2-1.4C152.2,265.3,151.8,265.4,151.4,265.4z"/>
	<path d="M125.4,263.5c0.4-0.2,0.8-0.4,1-0.8c0.3-0.4,0.4-0.9,0.2-1.4c-0.4,0.1-0.8,0.1-1.1,0.1c-0.3,0-0.6,0.1-0.8,0.2
		c-0.3,0.1-0.6,0.3-0.8,0.5c-0.3,0.3-0.6,0.6-0.8,1c0.3,0.3,0.8,0.5,1.2,0.6C124.7,263.7,125.1,263.7,125.4,263.5z"/>
	<path d="M122.8,271.5c0.4-0.2,0.8-0.4,1-0.8c0.3-0.4,0.4-0.9,0.2-1.4c-0.4,0.1-0.8,0.1-1.1,0.1c-0.3,0-0.6,0.1-0.8,0.2
		c-0.3,0.1-0.6,0.3-0.8,0.5c-0.3,0.3-0.6,0.6-0.8,1c0.3,0.3,0.8,0.5,1.2,0.6C122,271.7,122.4,271.6,122.8,271.5z"/>
	<path d="M137.2,287.7c-1.4,0.5-2.5,1.4-3.3,2.6c-1.4,1.9-0.9,4.6,1,5.9c0.4,0.3,0.8,0.5,1.3,0.6c0.6,0.2,1.3,0.3,1.9,0.3
		c0.8,0,1.6-0.2,2.3-0.5c1.6-0.5,2.9-1.7,3.7-3.2c0.5-1,0.6-2.2,0.2-3.3C143.4,287.8,140.2,286.6,137.2,287.7z M142.2,292.7
		c-0.5,1-1.4,1.8-2.5,2.1l0,0c-0.9,0.4-2,0.4-2.9,0.1c-1.2-0.3-2-1.5-1.7-2.7c0.1-0.3,0.2-0.6,0.4-0.9c0.6-0.8,1.4-1.4,2.3-1.7
		c0.5-0.2,1.1-0.3,1.7-0.3c1.2-0.1,2.4,0.5,2.9,1.6C142.6,291.5,142.5,292.2,142.2,292.7z"/>
	<path d="M138.6,289.9c-0.3,0-0.6,0.1-0.8,0.2c-0.3,0.1-0.6,0.3-0.8,0.5c-0.3,0.3-0.6,0.6-0.8,1c0.3,0.3,0.8,0.5,1.2,0.6
		c0.4,0.1,0.8,0,1.2-0.1c0.4-0.2,0.8-0.4,1-0.8c0.3-0.4,0.4-0.9,0.2-1.4C139.3,289.9,138.9,289.9,138.6,289.9z"/>
</g>
<g>
	<g>
		<path d="M593.7,636.4h-1v-1c0-2.8-2.2-5-5-5h-8c-0.6,0-1,0.4-1,1c0,0.6,0.4,1,1,1h8c1.7,0,3,1.3,3,3v1h-35c-0.6,0-1,0.4-1,1
			c0,0.6,0.4,1,1,1h38c0.6,0,1,0.4,1,1v1h-54v-1c0-0.6,0.4-1,1-1h10c0.6,0,1-0.4,1-1c0-0.6-0.4-1-1-1h-7v-1c0-1.7,1.3-3,3-3h28
			c0.6,0,1-0.4,1-1c0-0.6-0.4-1-1-1h-28c-2.8,0-5,2.2-5,5v1h-1c-1.7,0-3,1.3-3,3v8c0,2.8,2.2,5,5,5c1.6,0,3.1-0.7,4-2
			c1.6,2.2,4.7,2.7,6.9,1.1c0.4-0.3,0.8-0.7,1.1-1.1c1.6,2.2,4.7,2.7,6.9,1.1c0.4-0.3,0.8-0.7,1.1-1.1c1.6,2.2,4.7,2.7,6.9,1.1
			c0.4-0.3,0.8-0.7,1.1-1.1c1.6,2.2,4.7,2.7,6.9,1.1c0.4-0.3,0.8-0.7,1.1-1.1c0.9,1.3,2.4,2,4,2c0.6,0,1-0.4,1-1c0-0.6-0.4-1-1-1
			c-1.7,0-3-1.3-3-3v-5h6v5c0,2.8,2.2,5,5,5c1.1,0,2.1-0.4,3-1v21h-15.4c2.2-1.2,3.5-3.5,3.4-6c0-0.3,0-0.7-0.1-1h2.1
			c0.6,0,1-0.4,1-1c0-1.1,0.9-2,2-2s2,0.9,2,2c0,0.5-0.2,1-0.5,1.3c-0.3,0.4-0.3,1,0,1.3c0.3,0.4,0.5,0.8,0.5,1.3c0,1.1-0.9,2-2,2
			s-2-0.9-2-2c0-0.6-0.4-1-1-1s-1,0.4-1,1c0,2.2,1.8,4,4,4s4-1.8,4-4c0-0.7-0.2-1.4-0.5-2c0.4-0.6,0.5-1.3,0.5-2c0-2.2-1.8-4-4-4
			c-1.8,0-3.4,1.2-3.9,3h-1.8c-2.1-4.6-9-5-11.4-5c-1.9,0-3.8,0.7-5.2,1.9c-0.3-0.1-0.6-0.4-0.8-0.6c-2-2.5-5.1-3.7-8.3-3.2
			c-0.6,0.1-1.2,0.2-1.7,0.4c-4.7-1.7-9.8,0.8-11.5,5.5c-1.1,3.1-0.4,6.5,1.8,9c0.3,0.4,0.7,0.7,1.1,1h-5.4v-18c0-0.6-0.4-1-1-1
			s-1,0.4-1,1v35c0,0.6,0.4,1,1,1s1-0.4,1-1v-11h54v11c0,0.6,0.4,1,1,1s1-0.4,1-1v-50C596.7,637.8,595.4,636.4,593.7,636.4z
			 M543.7,650.4c-1.7,0-3-1.3-3-3v-5h6v5C546.7,649.1,545.4,650.4,543.7,650.4z M551.7,650.4c-1.7,0-3-1.3-3-3v-5h6v5
			C554.7,649.1,553.4,650.4,551.7,650.4z M559.7,650.4c-1.7,0-3-1.3-3-3v-5h6v5C562.7,649.1,561.4,650.4,559.7,650.4z M567.7,650.4
			c-1.7,0-3-1.3-3-3v-5h6v5C570.7,649.1,569.4,650.4,567.7,650.4z M575.7,650.4c-1.7,0-3-1.3-3-3v-5h6v5
			C578.7,649.1,577.4,650.4,575.7,650.4z M591.7,650.4c-1.7,0-3-1.3-3-3v-5h6v5C594.7,649.1,593.4,650.4,591.7,650.4z M580.7,666.4
			c0,4.4-4.7,5.6-8,5.9c0.1-0.1,0.2-0.2,0.2-0.2c2.6-2.9,2.3-7.3-0.5-9.9c-0.9-0.8-2-1.4-3.1-1.6c0.5-0.1,1-0.2,1.5-0.2
			C573.7,660.4,580.7,661,580.7,666.4z M556.7,658.5c2.4-0.4,4.9,0.6,6.4,2.5c0.9,1.1,2.3,1.7,3.7,1.5c0.6-0.1,1.2-0.1,1.8,0
			c2.7,0.5,4.5,3.2,3.9,5.9c-0.5,2.3-2.5,4-4.9,4h-10c-3.9,0-7-3.1-7-7C550.7,662,553.2,659,556.7,658.5z M546.5,670.1
			c-1.3-1.5-2-3.5-1.7-5.5c0.4-3.1,2.8-5.6,5.9-6.1c0.5-0.1,0.9-0.1,1.4,0c-3.9,3.1-4.5,8.7-1.4,12.5c0.4,0.5,0.9,1,1.5,1.5h-0.4
			C549.7,672.4,547.8,671.6,546.5,670.1L546.5,670.1z M540.7,676.4v-2h54v2H540.7z"/>
		<path d="M557.7,670.4h6c0.6,0,1-0.4,1-1c0-0.6-0.4-1-1-1h-6c-1.7,0-3-1.3-3-3c0-0.1,0-0.3,0-0.4c0.2-1.3,1.2-2.4,2.5-2.6
			c1.1-0.2,2.1,0.2,2.8,1.1c1.8,2.3,4.7,3.4,7.5,2.9c0.1,0,0.3,0,0.4,0c0.4,0.1,0.7,0.4,0.8,0.8c0,0,0,0.1,0,0.1c0,0.6-0.4,1-1,1
			s-1,0.4-1,1c0,0.6,0.4,1,1,1c1.7,0,3-1.3,3-3c0-0.1,0-0.2,0-0.4c-0.2-1.3-1.1-2.3-2.4-2.6c-0.4-0.1-0.7-0.1-1.1,0
			c-2.1,0.3-4.3-0.5-5.6-2.2c-1.1-1.4-2.9-2-4.6-1.8c-2.2,0.4-3.9,2.1-4.2,4.3c0,0.2,0,0.4,0,0.6
			C552.7,668.2,554.9,670.4,557.7,670.4z"/>
		<circle cx="557.7" cy="665.4" r="1"/>
		<path d="M563.7,680.4h-20c-0.6,0-1,0.4-1,1v8c0,0.6,0.4,1,1,1s1-0.4,1-1v-7h18v7c0,0.6,0.4,1,1,1s1-0.4,1-1v-8
			C564.7,680.9,564.2,680.4,563.7,680.4z"/>
		<path d="M591.7,680.4h-20c-0.6,0-1,0.4-1,1v8c0,0.6,0.4,1,1,1s1-0.4,1-1v-7h18v7c0,0.6,0.4,1,1,1s1-0.4,1-1v-8
			C592.7,680.9,592.2,680.4,591.7,680.4z"/>
	</g>
</g>
<g>
	<rect x="788.2" y="114.6" width="4.1" height="2.7"/>
	<rect x="788.2" y="126.1" width="4.1" height="2.7"/>
	<rect x="788.2" y="137.6" width="4.1" height="2.7"/>
	<rect x="804.5" y="114.6" width="4.1" height="2.7"/>
	<rect x="804.5" y="137.6" width="4.1" height="2.7"/>
	<rect x="820.8" y="114.6" width="4.1" height="2.7"/>
	<rect x="820.8" y="137.6" width="4.1" height="2.7"/>
	<path d="M831.8,88.8v-2.6c0-1.3-1.1-2.4-2.4-2.4h-2c-1.3,0-2.4,1.1-2.4,2.4v2.5h-15.2v-2.5c0-1.3-1.1-2.4-2.4-2.4h-2
		c-1.3,0-2.4,1.1-2.4,2.4v2.5H788v-2.5c0-1.3-1.1-2.4-2.4-2.4h-2c-1.3,0-2.4,1.1-2.4,2.4v2.6c-3.3,0.5-5.7,3.4-5.7,6.8v48.5
		c0,3.8,3.1,6.9,6.9,6.9H831c3.8,0,6.9-3.1,6.9-6.9V95.6C837.8,92.1,835.2,89.2,831.8,88.8z M826.9,86.2c0-0.3,0.3-0.6,0.6-0.6h2
		c0.3,0,0.6,0.3,0.6,0.6V93c0,0.3-0.3,0.6-0.6,0.6h-2c-0.3,0-0.6-0.3-0.6-0.6V86.2z M805,86.2c0-0.3,0.3-0.6,0.6-0.6h2
		c0.3,0,0.6,0.3,0.6,0.6V93c0,0.3-0.3,0.6-0.6,0.6h-2c-0.3,0-0.6-0.3-0.6-0.6V86.2z M783.1,86.2c0-0.3,0.3-0.6,0.6-0.6h2
		c0.3,0,0.6,0.3,0.6,0.6V93c0,0.3-0.3,0.6-0.6,0.6h-2c-0.3,0-0.6-0.3-0.6-0.6V86.2z M781.3,90.6V93c0,1.3,1.1,2.4,2.4,2.4h2
		c1.3,0,2.4-1.1,2.4-2.4v-2.5h15.2V93c0,1.3,1.1,2.4,2.4,2.4h2c1.3,0,2.4-1.1,2.4-2.4v-2.5h15.2V93c0,1.3,1.1,2.4,2.4,2.4h2
		c1.3,0,2.4-1.1,2.4-2.4v-2.5c2.4,0.4,4.3,2.5,4.3,5v8.7h-58.7v-8.7C777.3,93.2,779,91.2,781.3,90.6z M831,149.2h-48.5
		c-2.8,0-5.1-2.3-5.1-5.1v-38H836v38C836,146.9,833.8,149.2,831,149.2z"/>
	<polygon points="809,124.5 806.5,126.9 804.1,124.5 803.6,125 806,127.5 803.6,129.9 804.1,130.4 806.5,128 809,130.4 809.5,129.9 
		807.1,127.5 809.5,125.1 	"/>
	<polygon points="825.2,124.5 822.8,126.9 820.4,124.5 819.9,125 822.3,127.5 819.9,129.9 820.4,130.4 822.8,128 825.2,130.4 
		825.8,129.9 823.4,127.5 825.8,125.1 	"/>
</g>
<path class="st23" d="M1114.3,120.8c0,1.2,0.9,2.2,1.9,2.1l39.4-0.7l-11.2,13.9c-0.7,0.9-0.7,2.2,0.1,3.1c0.7,0.8,1.9,0.8,2.6,0
	l14.3-17.7l0,0c0.1-0.1,0.2-0.2,0.2-0.3c0-0.1,0-0.1,0.1-0.2c0-0.1,0.1-0.1,0.1-0.2c0-0.1,0-0.1,0.1-0.2c0-0.1,0-0.1,0-0.2
	c0-0.3,0-0.6,0-0.9c0-0.1,0-0.1,0-0.2c0-0.1,0-0.1-0.1-0.2c0-0.1-0.1-0.1-0.1-0.2c0-0.1,0-0.1-0.1-0.2c-0.1-0.1-0.1-0.2-0.2-0.3l0,0
	l-14.9-17.2c-0.7-0.8-1.9-0.8-2.6,0c-0.7,0.9-0.7,2.2,0.1,3.1l11.7,13.5l-39.4,0.7C1115.1,118.6,1114.3,119.6,1114.3,120.8z"/>
<g>
	<g>
		<path d="M923.7,139.7c-2.8,3.5-7.1,5.4-11.5,5.1c-7.6-0.5-13.5-6.8-13.3-14.4v-15.6c0-0.6-0.4-1-1-1c-0.6,0-1,0.4-1,1v15.6
			c0,6,3.2,11.5,8.3,14.4h-17c-0.1,0-0.2,0-0.2,0c-7.5-0.6-13.2-6.9-13.1-14.4v-16.1c0-0.6-0.4-1-1-1c-0.6,0-1,0.4-1,1v16.1
			c-0.1,8.4,6.3,15.5,14.6,16.4c0.1,0,0.2,0.1,0.4,0.1h25c4.8,0,9.4-2.2,12.4-5.9c0.4-0.4,0.3-1-0.1-1.4
			C924.8,139.2,924.1,139.3,923.7,139.7C923.8,139.7,923.7,139.7,923.7,139.7L923.7,139.7z"/>
		<path d="M922,117.7c-2-1.4-3.1-3.7-3.1-6.1v-0.1c-0.2-4.8-3.4-8.9-8-10.2v-3c0-3.4,0.7-6.8,1.9-10c0.2-0.5,0-1.1-0.6-1.3
			c-0.1,0-0.2-0.1-0.4-0.1h-6c-0.4,0-0.8,0.2-0.9,0.6c-1.4,3.4-2.1,7.1-2.1,10.8v2.6h-3v-2.6c0-3.4,0.7-6.8,1.9-10
			c0.2-0.5,0-1.1-0.6-1.3c-0.1,0-0.2-0.1-0.4-0.1h-6c-0.4,0-0.8,0.2-0.9,0.6c-1.4,3.4-2.1,7.1-2.1,10.8c0,0.6,0.4,1,1,1
			c0.6,0,1-0.4,1-1c0-3.2,0.6-6.4,1.7-9.4h3.9c-1,3-1.6,6.2-1.6,9.4v2.6h-9v-2.6c0-3.4,0.7-6.8,1.9-10c0.2-0.5,0-1.1-0.6-1.3
			c-0.1,0-0.2-0.1-0.4-0.1h-6c-0.4,0-0.8,0.2-0.9,0.6c-1.4,3.4-2.1,7.1-2.1,10.8v3c-4.3,1.2-7.5,5-7.9,9.5c-0.1,0.5,0.3,1,0.9,1.1
			c0,0,0,0,0,0c0,0,0.1,0,0.1,0c0.5,0,0.9-0.4,1-0.9c0.4-4.3,3.8-7.6,8.1-8c0.1,0,0.2,0,0.2-0.1h18.4c-2.6,1.8-4.3,4.7-4.6,7.9
			c-0.1,0.5,0.3,1,0.9,1.1c0.5,0.1,1-0.3,1.1-0.9l0,0c0.5-4.8,4.6-8.3,9.4-8.1c4.6,0.3,8.3,4,8.6,8.7v0.1c0,3,1.5,5.9,4,7.7
			c3.8,2.6,6.1,6.9,6,11.5c0,2-0.4,3.9-1.2,5.7c-0.2,0.5,0,1.1,0.5,1.3c0.1,0.1,0.3,0.1,0.4,0.1c0.4,0,0.8-0.2,0.9-0.6
			c0.9-2,1.4-4.2,1.4-6.5C928.9,125.6,926.4,120.7,922,117.7z M904.9,98.3c0-3.2,0.6-6.4,1.7-9.4h3.9c-1,3-1.6,6.2-1.6,9.4v2.7
			c-0.2,0-0.3,0-0.5,0c-0.2,0-3.5,0-3.5,0V98.3z M882.9,100.9v-2.6c0-3.2,0.6-6.4,1.7-9.4h3.9c-1,3-1.6,6.2-1.6,9.4v2.6H882.9z"/>
		<path d="M903,107.6c-0.3,0-0.7,0.2-0.9,0.4c-0.6,0.9-1,2-1.2,3.2l0,0.3c0,0,0,0.1,0,0.1v6.4c0,0.4,0.3,0.8,0.7,1l0.6,0.2
			c4.4,1.4,6.8,6,5.5,10.4c-0.2,0.7-0.5,1.3-0.9,1.9l-3.4,5.5c-0.2,0.4-0.2,0.8,0.1,1.1c2.1,2.9,5.3,4.6,8.9,4.8c0.2,0,0.4,0,0.6,0
			c1.3,0,2.6-0.2,3.9-0.7c0.5-0.2,0.8-0.7,0.6-1.3c0-0.1-0.1-0.3-0.2-0.4l-1.5-1.5c-3.2-3.2-3.3-8.5,0-11.7c1.5-1.5,3.6-2.4,5.7-2.4
			c0.6,0,1-0.5,1-1c0-0.6-0.5-1-1-1c-5.7,0.1-10.2,4.8-10.1,10.5c0.1,2.7,1.1,5.2,3,7.1l0.3,0.3c-3.4,0.6-6.9-0.7-9.1-3.4l3-4.9
			c3-4.8,1.5-11.2-3.3-14.2c-0.7-0.4-1.5-0.8-2.3-1v-5.6l0-0.2c0-0.2,0.1-0.4,0.1-0.6l1.1,2c1.8,3.2,5.3,5.3,9,5.3
			c0.4,0,0.9,0,1.3-0.1c0.7,1.4,1.7,2.7,2.9,3.8c0.4,0.4,1,0.3,1.4-0.1s0.3-1-0.1-1.4c-1.2-1.1-2.1-2.4-2.7-3.8
			c-0.2-0.4-0.7-0.7-1.1-0.6c-3.6,0.8-7.2-0.9-9-4.1l-2.1-3.7C903.6,107.8,903.3,107.6,903,107.6z"/>
		<path d="M913.2,114c0.3,0,0.7,0,1-0.1c0.5-0.1,0.9-0.6,0.8-1.1c0-0.4-0.1-0.8-0.1-1.2c-0.2-3.6-3-6.5-6.6-6.8
			c-0.8,0-1.6,0.1-2.4,0.3c-0.5,0.2-0.8,0.7-0.7,1.2c0,0.1,0.1,0.1,0.1,0.2l2.3,4.2C908.8,112.8,910.9,114,913.2,114z M908.2,106.9
			c2.6,0.2,4.6,2.2,4.7,4.8c0,0.1,0,0.2,0,0.3c-1.5-0.1-2.8-0.9-3.5-2.2l-1.7-2.9C907.9,106.9,908,106.9,908.2,106.9z"/>
		<path d="M920,139.4c0.4,0.4,1,0.4,1.4,0c3.1-3.1,4.3-7.6,3-11.8c-0.1-0.4-0.5-0.7-1-0.7h-1.9c-3.5,0-6.3,2.8-6.3,6.3
			c0,1.7,0.7,3.3,1.8,4.5c0.4,0.4,1,0.4,1.4,0c0.4-0.4,0.4-1,0-1.4c-1.7-1.7-1.7-4.4,0-6.1c0.8-0.8,1.9-1.3,3.1-1.3h1.1
			c0.1,0.7,0.2,1.3,0.2,2c0,2.7-1,5.2-2.9,7.1C919.6,138.3,919.6,139,920,139.4z"/>
		<path d="M900.9,126.5c0,0.6,0.4,1,1,1c0.6,0,1-0.4,1-1v-2.3c1.3,1.4,1.5,3.5,0.5,5.2l-2,3.3c-0.3,0.5-0.2,1.1,0.3,1.4
			c0.5,0.3,1.1,0.2,1.4-0.3c0,0,0,0,0,0l2-3.3c1.8-3,0.9-6.9-2-8.7c-0.2-0.1-0.5-0.3-0.7-0.4c-0.5-0.2-1.1,0-1.3,0.5
			c-0.1,0.1-0.1,0.3-0.1,0.4V126.5z"/>
		<path d="M890.9,109.9c-0.6,0-1,0.4-1,1v19.6c0,4.1,1.5,8,4.2,11.1c0.4,0.4,1,0.4,1.4,0.1c0.4-0.4,0.4-1,0.1-1.4
			c-2.4-2.7-3.7-6.2-3.7-9.8v-19.6C891.9,110.3,891.5,109.9,890.9,109.9z"/>
		<path d="M881.9,109.9c-0.6,0-1,0.4-1,1v19.6c0,4.1,1.5,8,4.2,11.1c0.4,0.4,1,0.4,1.4,0.1c0.4-0.4,0.4-1,0.1-1.4
			c-2.4-2.7-3.7-6.2-3.7-9.8v-19.6C882.9,110.3,882.5,109.9,881.9,109.9z"/>
	</g>
</g>
<g>
	<g>
		<path d="M1010.4,141l-2.5-1.4c2.7-5,1.8-11.3-2.2-15.3v0l0,0l0,0l-3.5-3.5c-0.4-0.4-1-0.4-1.4,0c-0.4,0.4-0.4,1,0,1.4l3.1,3.1
			c-0.5,1.4-1,2.7-1.7,3.9l-4.5-4.5c0.9-2,1.4-4.2,1.5-6.5c0-0.3-0.1-0.6-0.3-0.8l-3.8-3.8l0,0c-0.8-0.8-2.3-1.5-5.1-0.6
			c-0.5,0.2-0.8,0.7-0.7,1.3s0.7,0.8,1.3,0.7l0,0c1.4-0.4,2.5-0.4,3.1,0.1l0,0l0,0c1,1,0.2,4.1-2.3,7.5c-0.3-0.3-0.8-0.4-1.1-0.2
			c-0.2,0.1-0.5,0.1-0.8,0c-0.2-0.1-0.3-0.2-0.4-0.4c0.5-1,0.3-2.3-0.5-3.1c-1.2-1.2-3.4-0.9-4.9,0.7s-1.9,3.8-0.7,4.9
			c0.5,0.5,1.2,0.7,1.9,0.7c0.2,0,0.5,0,0.7-0.1c0.9-0.2,1.8-0.7,2.4-1.4c0,0,0-0.1,0.1-0.1c0.5,0.5,1.2,0.7,1.9,0.7
			c-0.4,0.4-0.7,0.8-1.1,1.2c-1.9,2-4.2,3.6-6.7,4.7c-0.6,0.3-1.3,0.5-2,0.6c0.6-1,1.6-1.8,2.7-2.3c0.5-0.2,0.8-0.8,0.6-1.3
			c-0.2-0.5-0.8-0.8-1.3-0.6c0,0,0,0,0,0c-1.7,0.7-3.2,2-4,3.6c-0.5-0.7-0.4-2.1,0.3-3.7c1.1-2.5,2.8-4.8,4.7-6.7
			c1.3-1.3,2.7-2.4,4.2-3.4c0.5-0.3,0.6-0.9,0.3-1.4c-0.3-0.5-0.9-0.6-1.4-0.3c-1.6,1.1-3.2,2.3-4.5,3.7c-2.2,2.1-3.9,4.6-5.2,7.4
			c-1.1,2.7-1,4.8,0.2,6.1l10.6,10.6c0,0,0,0,0,0l0,0l0,0c4.1,4,10.3,4.9,15.3,2.2l1.4,2.5c0.3,0.5,0.9,0.6,1.4,0.4
			c0.1,0,0.1-0.1,0.2-0.2l5-5c0.4-0.4,0.4-1,0-1.4C1010.5,141.1,1010.4,141,1010.4,141L1010.4,141z M985,123.2
			c-0.2,0.1-0.5,0-0.7-0.1c-0.3-0.3-0.2-1.3,0.7-2.1c0.9-0.9,1.8-1,2.1-0.7s0.2,1.3-0.7,2.1C986,122.8,985.5,123.1,985,123.2z
			 M1005.3,126.9c1.7,2.4,2.4,5.4,1.9,8.3c-0.3-1-0.9-1.9-1.6-2.6l-2.1-2.1C1004.2,129.4,1004.8,128.2,1005.3,126.9z M997.1,118.5
			c-0.1,1.6-0.5,3.1-1,4.6l-1.7-1.7c0.7-1.3,1.3-2.7,1.5-4.1L997.1,118.5z M990.1,127c1.2-1.2,2.3-2.5,3.2-3.8l1.9,1.9
			c-1.6,3-4,5.5-7.1,7.1l-1.9-1.9C987.6,129.3,988.9,128.2,990.1,127L990.1,127z M982.7,132.2c0.6-0.3,1.2-0.5,1.8-0.9l1.7,1.7
			c-1.5,0.6-3,0.9-4.6,1l-1.2-1.2C981.2,132.8,982,132.5,982.7,132.2z M983.3,135.8c1.7-0.3,3.4-0.8,5-1.5l0,0c0,0,0,0,0,0l0,0
			c3.5-1.6,6.4-4.3,8.3-7.7l4.4,4.4c-0.9,1.4-2,2.7-3.2,3.9c-0.5,0.5-1.1,1-1.6,1.5c-0.4,0.4-0.5,1-0.1,1.4c0.4,0.4,1,0.5,1.4,0.1
			c0.6-0.5,1.2-1,1.7-1.6c1.2-1.2,2.3-2.5,3.2-3.9l1.8,1.8c2,1.9,2,5.1,0,7.1c-1.9,2-5.1,2-7.1,0c0,0,0,0,0,0l-5.8-5.8
			c-0.4-0.4-1-0.4-1.4,0c-0.4,0.4-0.4,1,0,1.4c0,0,0,0,0,0l2.2,2.2c-1.3,0.7-2.6,1.3-3.9,1.7L983.3,135.8z M990,142.3
			c1.3-0.5,2.5-1.1,3.7-1.8l2.1,2.1c0.7,0.7,1.6,1.3,2.6,1.6C995.4,144.7,992.4,144,990,142.3z M1005.1,145.2l-0.8-1.5
			c1-0.7,1.8-1.6,2.5-2.5l1.5,0.8L1005.1,145.2z"/>
		<path d="M991.5,118.6c0.4-0.4,0.4-1,0-1.4s-1-0.4-1.4,0c-0.4,0.4-0.4,1,0,1.4C990.5,118.9,991.1,118.9,991.5,118.6
			C991.5,118.6,991.5,118.6,991.5,118.6z"/>
		<path d="M978.4,111.5c-0.9,0.2-1.8,0.7-2.4,1.4c-1.6,1.6-1.9,3.8-0.7,5c0.5,0.5,1.2,0.7,1.8,0.7c1.2-0.1,2.3-0.6,3.1-1.4
			c2.2-2.1,3.9-4.6,5.2-7.4c1.1-2.7,1-4.8-0.2-6.1l-10.6-10.6c0,0,0,0,0,0l0,0h0c-3.9-3.8-9.7-4.8-14.6-2.5l-1.1-2.1
			c-0.2-0.4-0.7-0.6-1.1-0.5l-5,1c-0.4,0.1-0.7,0.4-0.8,0.7l-1,4c-0.1,0.4,0.1,0.9,0.5,1.1l2.5,1.4c-2.7,5-1.8,11.2,2.2,15.3l0,0
			l0.1,0.1l0,0l0,0l1.6,1.6c0.4,0.4,1,0.4,1.4,0c0.4-0.4,0.4-1,0-1.4l-1.2-1.2c0.5-1.4,1-2.7,1.7-3.9l4.5,4.5
			c-0.6,1.4-1,2.9-1.3,4.4l-0.9-0.9c-0.4-0.4-1-0.4-1.4,0c-0.4,0.4-0.4,1,0,1.4c0,0,0,0,0,0l6.1,6.1c0.7,0.7,1.7,1,2.7,1
			c1.8-0.1,3.6-0.7,5.1-1.6c0.5-0.3,0.7-0.9,0.4-1.4s-0.9-0.7-1.4-0.4c0,0,0,0,0,0c-2.4,1.3-4.4,1.7-5.3,1.1c1.6-0.8,2.9-2.3,3.6-4
			c0.2-0.5,0-1.1-0.6-1.3c-0.5-0.2-1.1,0-1.3,0.6c0,0,0,0,0,0c-0.4,1.1-1.2,2.1-2.3,2.7c0.3-2.1,2.1-5.5,5.4-8.8l0.1-0.1l-0.7-0.7
			l-0.8-0.6c-1.2,1.2-2.3,2.5-3.2,3.8l-1.9-1.9c1.6-3,4-5.5,7.1-7.1l1.9,1.9c-0.2,0.1-0.4,0.3-0.6,0.4c-0.4,0.3-0.5,1-0.2,1.4
			c0.3,0.4,1,0.5,1.4,0.2l0,0c3.7-2.7,6.7-3.3,7.6-2.4c0.6,0.6,0.5,2.1-0.2,3.9c-0.6,1.3-1.3,2.6-2.2,3.8c-0.1-0.2-0.3-0.4-0.4-0.6
			C980.2,111.5,979.3,111.3,978.4,111.5z M978.4,99.8c-1.5,0.3-3,0.7-4.4,1.3l-4.5-4.5c1.3-0.7,2.6-1.3,3.9-1.7L978.4,99.8z
			 M971.8,93.4c-1.3,0.5-2.5,1.1-3.7,1.8l-2.1-2.1c-0.7-0.7-1.6-1.3-2.6-1.6C966.4,91,969.4,91.7,971.8,93.4z M953,93.4l0.7-2.7
			l3.6-0.7l0.8,1.5c-0.7,0.5-1.4,1-2,1.6c-0.4,0.4-0.8,0.9-1.2,1.4L953,93.4z M956.4,108.7c-1.7-2.4-2.4-5.4-1.9-8.3
			c0.3,1,0.9,1.9,1.6,2.6l2.1,2.1C957.5,106.2,956.9,107.5,956.4,108.7z M965.8,118.4l-1.2-1.2c0.1-1.6,0.5-3.1,1-4.6l1.7,1.7
			C966.6,115.5,966.1,116.9,965.8,118.4L965.8,118.4z M968.1,105.1c-1.2,1.2-2.2,2.6-3,4l-4.4-4.4c0.9-1.4,2-2.7,3.2-3.9
			c0.5-0.5,1-0.9,1.5-1.3c0.4-0.4,0.5-1,0.1-1.4c-0.4-0.4-1-0.5-1.4-0.1c-0.5,0.5-1.1,1-1.6,1.5c-1.2,1.2-2.3,2.5-3.2,3.9l-1.7-1.8
			c-2-1.9-2-5.1-0.1-7.1c1.9-2,5.1-2,7.1-0.1c0,0,0.1,0.1,0.1,0.1l7.6,7.6C970.7,102.9,969.3,103.9,968.1,105.1L968.1,105.1z
			 M977.3,104.3l-1.7-1.7c1.5-0.6,3-0.9,4.6-1l1.1,1.1C979.9,103.1,978.5,103.6,977.3,104.3L977.3,104.3z M978.8,115.7
			c-0.9,0.9-1.8,1-2.1,0.7c-0.3-0.3-0.2-1.3,0.7-2.1c0.4-0.4,0.9-0.7,1.4-0.8c0.1,0,0.2,0,0.3,0c0.2,0,0.3,0,0.4,0.1
			C979.8,113.9,979.6,114.9,978.8,115.7L978.8,115.7z"/>
		<path d="M972.4,112.2c-0.4,0.4-0.4,1,0,1.4c0.4,0.4,1,0.4,1.4,0c0.4-0.4,0.4-1,0-1.4c0,0,0,0,0,0
			C973.4,111.8,972.8,111.8,972.4,112.2z"/>
		<path d="M980.9,109.4c0.4-0.4,0.4-1,0-1.4c-0.4-0.4-1-0.4-1.4,0s-0.4,1,0,1.4c0,0,0,0,0,0C979.9,109.7,980.5,109.7,980.9,109.4z"
			/>
	</g>
</g>
<g>
	<g>
		<circle cx="453.9" cy="654.4" r="1"/>
		<circle cx="461.9" cy="654.4" r="1"/>
		<path d="M470.9,686.4c-0.6,0-1,0.4-1,1v5c0,0.6,0.4,1,1,1s1-0.4,1-1v-5C471.9,686.8,471.4,686.4,470.9,686.4z"/>
		<path d="M464.9,683.4h-14c-0.6,0-1,0.4-1,1v8c0,0.6,0.4,1,1,1s1-0.4,1-1v-7h12v7c0,0.6,0.4,1,1,1s1-0.4,1-1v-8
			C465.9,683.8,465.4,683.4,464.9,683.4z"/>
		<path d="M469.9,665.4h-6v-1.3c0.2-0.2,0.5-0.4,0.7-0.7h1.3c0.6,0,1-0.4,1-1c0-0.7-0.2-1.5-0.5-2.1c0.3-0.9,0.5-1.9,0.5-2.9v-1h1
			c1.7,0,3-1.3,3-3v-2c0-1.4-0.9-2.5-2.2-2.9c0.6-1.5-0.1-3.3-1.6-3.9c-0.4-0.1-0.7-0.2-1.1-0.2h-15v-1c0-2.8,2.2-5,5-5h4
			c2.1,0,4,1.3,4.7,3.3c0.2,0.5,0.7,0.8,1.3,0.6c0.5-0.2,0.8-0.7,0.6-1.3c0,0,0,0,0-0.1c-1-2.8-3.6-4.7-6.6-4.7h-4c-3.9,0-7,3.1-7,7
			v1.2c-1.6,0.5-2.4,2.2-1.8,3.8c0,0.1,0,0.1,0.1,0.1c-1.3,0.4-2.2,1.5-2.2,2.9v2c0,1.7,1.3,3,3,3h1v1c0,1,0.2,2,0.5,2.9
			c-0.3,0.7-0.5,1.4-0.5,2.1c0,0.6,0.4,1,1,1h1.3c0.2,0.2,0.4,0.5,0.7,0.7v1.3h-6c-5,0-9,4-9,9c0,0.6,0.4,1,1,1s1-0.4,1-1
			c0-3.9,3.1-7,7-7h2v8h-1c-0.6,0-1,0.4-1,1c0,3.2-0.6,6.3-1.8,9.3L444,686c0,0.1-0.1,0.2-0.1,0.4v6c0,0.6,0.4,1,1,1s1-0.4,1-1v-5.8
			l0.1-0.2c1.2-2.9,1.8-5.9,1.9-9h20c0.1,2.2,0.4,4.3,1,6.4c0.2,0.5,0.7,0.8,1.2,0.7c0.5-0.2,0.8-0.7,0.7-1.2c-0.6-2.2-1-4.5-1-6.9
			c0-0.6-0.4-1-1-1h-1v-5c0-0.6-0.4-1-1-1s-1,0.4-1,1v5h-2v-8h6c3.9,0,7,3.1,7,7v18c0,0.6,0.4,1,1,1s1-0.4,1-1v-18
			C478.9,669.4,474.9,665.4,469.9,665.4z M450.9,657.4v-7h14v7c0,0.3,0,0.6-0.1,1c-0.8-0.6-1.9-1-2.9-1h-8c-1.1,0-2.1,0.3-2.9,1
			C450.9,658,450.9,657.7,450.9,657.4z M461.9,661.4c-1.3,0-2.4-0.8-2.8-2h2.8c1.3,0,2.4,0.8,2.8,2H461.9z M453.9,659.4h2.8
			c-0.4,1.2-1.6,2-2.8,2h-2.8C451.5,660.2,452.6,659.4,453.9,659.4z M457.9,661.3c0.9,1.2,2.2,1.9,3.7,2c-2.2,1.4-5.1,1.4-7.3,0
			C455.7,663.2,457,662.5,457.9,661.3z M468.9,653.4c0,0.6-0.4,1-1,1h-1v-4h1c0.6,0,1,0.4,1,1V653.4z M449.9,646.4h16
			c0.6,0,1,0.4,1,1s-0.4,1-1,1h-16c-0.6,0-1-0.4-1-1S449.3,646.4,449.9,646.4z M447.9,654.4c-0.6,0-1-0.4-1-1v-2c0-0.6,0.4-1,1-1h1
			v4H447.9z M457.9,666.4c1.4,0,2.8-0.3,4-0.9v1.9c0,2.2-1.8,4-4,4s-4-1.8-4-4v-1.9C455.1,666.1,456.5,666.4,457.9,666.4z
			 M449.9,675.4v-8h2v8H449.9z M453.9,675.4v-3.5c2.3,2.1,5.7,2.1,8,0v3.5H453.9z"/>
		<path d="M439.9,685.4h-1.3c1.9-2.3,1.6-5.8-0.7-7.7c-1.2-1-2.9-1.5-4.4-1.2c-0.2,0-0.3,0-0.5,0l1.7-3c0.8-1.4,0.3-3.3-1.1-4.1
			c0,0,0,0,0,0l-0.8-0.4l3.1-4.3c1.1-1.5,0.8-3.6-0.7-4.7c-1.5-1.1-3.6-0.8-4.7,0.7c-0.1,0.1-0.1,0.2-0.2,0.3l-3.3,5.7l0,0l-5,8.7
			c-2.7,2.6-2.9,6.9-0.4,9.7c0.1,0.1,0.2,0.2,0.3,0.3h-2.1c-0.6,0-1,0.4-1,1v6c0,0.6,0.4,1,1,1s1-0.4,1-1v-5h18v5c0,0.6,0.4,1,1,1
			s1-0.4,1-1v-6C440.9,685.8,440.4,685.4,439.9,685.4z M433,672.4l-1.5,2.7c-0.5-0.4-1.1-0.8-1.7-1.1l2-3.5l0.9,0.5
			C433.1,671.3,433.3,671.9,433,672.4C433,672.4,433,672.4,433,672.4z M432.1,661.9c0.4-0.7,1.2-0.9,1.9-0.5
			c0.7,0.4,0.9,1.2,0.5,1.9c0,0-0.1,0.1-0.1,0.1l-3.3,4.4l-1.8-1.1L432.1,661.9z M428.3,668.5l1.7,1l-2.3,3.9
			c-0.6-0.1-1.3-0.1-1.9,0c-0.2,0-0.3,0.1-0.5,0.1L428.3,668.5z M433.9,685.4v-1.6l1.7-1.7c0.4-0.4,0.4-1,0-1.4
			c-0.4-0.4-1-0.4-1.4,0l-1.3,1.3l-0.3-0.3c-0.4-0.4-1-0.4-1.4,0c-0.4,0.4-0.4,1,0,1.4l0.7,0.7v1.6h-5c-2.8,0-5-2.2-5-5
			c0-2.8,2.2-5,5-5c1.5,0,2.9,0.7,3.9,1.8c0.7,0.9,1.9,1.4,3,1.2c1.9-0.3,3.7,0.9,4,2.9c0,0.1,0,0.1,0,0.2c0.2,1.9-1.2,3.7-3.1,3.9
			c-0.1,0-0.3,0-0.4,0H433.9z"/>
		<path d="M426.9,677.4c-1.7,0-3,1.3-3,3s1.3,3,3,3s3-1.3,3-3S428.5,677.4,426.9,677.4z M426.9,681.4c-0.6,0-1-0.4-1-1s0.4-1,1-1
			s1,0.4,1,1S427.4,681.4,426.9,681.4z"/>
	</g>
</g>
<g>
	<g>
		<path d="M155.5,678.5c-0.5,0.3-0.6,0.9-0.4,1.4s0.9,0.6,1.4,0.4c0.5-0.3,0.6-0.9,0.4-1.4c0,0,0,0,0,0
			C156.6,678.4,156,678.2,155.5,678.5z"/>
		<path d="M158.5,683.7c-0.5,0.3-0.6,0.9-0.4,1.4c0.3,0.5,0.9,0.6,1.4,0.4c0.5-0.3,0.6-0.9,0.4-1.4c0,0,0,0,0,0
			C159.6,683.6,159,683.4,158.5,683.7z"/>
		<circle cx="162" cy="689.8" r="1"/>
		<path d="M135.5,652.1c1.6,0.4,3.2-0.5,3.7-2.1c0.4-1.6-0.5-3.2-2.1-3.7c-1.6-0.4-3.2,0.5-3.7,2.1c-0.2,0.8-0.1,1.6,0.3,2.3
			C134.1,651.3,134.8,651.8,135.5,652.1z M135.4,648.9c0.1-0.5,0.7-0.8,1.2-0.7s0.8,0.7,0.7,1.2c-0.1,0.3-0.2,0.5-0.5,0.6
			c-0.2,0.1-0.5,0.2-0.8,0.1C135.5,650,135.2,649.4,135.4,648.9C135.4,648.9,135.4,648.9,135.4,648.9z"/>
		<path d="M171.2,693.7l-7.4-12.8c-0.3-0.5-0.9-0.6-1.4-0.4c-0.5,0.3-0.6,0.9-0.4,1.4c0,0,0,0,0,0l6.9,11.9l-8.7,5
			c-1,0.6-2.2,0.2-2.7-0.7s-0.2-2.2,0.7-2.7c0,0,0,0,0,0c0.4-0.2,0.6-0.7,0.5-1.1c-0.8-2.8-2.2-5.3-4.2-7.3
			c-1.8-1.8-3.1-4.1-3.8-6.5c-0.2-0.7-0.5-1.4-0.7-2l7-5.2l3.1,5.3c0.3,0.5,0.9,0.6,1.4,0.4c0.5-0.3,0.6-0.9,0.4-1.4l-3.6-6.2
			c0-0.1,0-0.1-0.1-0.2l-15.3-26.5c-1.8-3.1-5.6-4.3-8.8-2.9l-6.5,2.8c-0.5,0.2-0.7,0.8-0.5,1.3c0.2,0.5,0.8,0.7,1.3,0.5l6.5-2.8
			c2.3-1,5-0.1,6.3,2.1l14.9,25.8l-19.6,14.5c-8.7-10.2-15.4-21.9-19.9-34.5l4.5-2c4.2,11.4,10.2,22,17.7,31.5
			c0.3,0.4,1,0.5,1.4,0.2c0.4-0.3,0.5-1,0.2-1.4l0,0c-7.5-9.4-13.4-19.9-17.5-31.1l1.7-0.7c0.5-0.2,0.7-0.8,0.4-1.3
			c-0.2-0.5-0.8-0.7-1.2-0.5l-8.9,3.9c-0.5,0.2-0.7,0.8-0.5,1.2c4.7,13.5,11.9,25.9,21.2,36.7c0.3,0.4,0.9,0.5,1.4,0.1l11.4-8.5
			c0.2,0.5,0.3,0.9,0.5,1.4c0.8,2.8,2.2,5.3,4.2,7.3c1.6,1.7,2.8,3.7,3.6,5.8c-1.6,1.5-1.8,4-0.3,5.6c1.3,1.4,3.3,1.8,5,0.8l9.5-5.5
			C171.3,694.8,171.5,694.2,171.2,693.7z"/>
	</g>
</g>
<g>
	<path d="M849.9,460.9c0.6,0,1-0.4,1-1v-4c0-3.9-3.1-7-7-7h-46c-3.9,0-7,3.1-7,7v4c0,0.6,0.4,1,1,1h4v2.1c-2.3,0.5-4,2.5-4,4.9v2
		c0,2,1.2,3.8,3,4.6v2.4h-3c-0.6,0-1,0.4-1,1v4c0,2.8,2.2,5,5,5h50c2.8,0,5-2.2,5-5v-4c0-0.6-0.4-1-1-1h-3v-2.4c1.8-0.8,3-2.6,3-4.6
		v-2c0-2.4-1.7-4.4-4-4.9v-2.1H849.9z M792.9,455.9c0-2.8,2.2-5,5-5h46c2.8,0,5,2.2,5,5v3h-56V455.9z M834.9,462.9h-7.2
		c0.1-0.3,0.2-0.7,0.2-1v-1h7V462.9z M805.9,460.9h2v3c0,0.6-0.4,1-1,1s-1-0.4-1-1V460.9z M809.9,460.9h12v1c0,0.3,0.1,0.7,0.2,1
		h-12.2V460.9z M823.9,461.9v-1h2v1c0,0.6-0.4,1-1,1S823.9,462.4,823.9,461.9z M836.9,460.9h2v3c0,0.6-0.4,1-1,1s-1-0.4-1-1V460.9z
		 M803.9,460.9v2h-6v-2H803.9z M848.9,481.9c0,1.7-1.3,3-3,3h-50c-1.7,0-3-1.3-3-3v-3h6.6l4.7,3.8c0.2,0.1,0.4,0.2,0.6,0.2
		c0.1,0,0.2,0,0.3-0.1l10.5-3.8l4.6,3.6c0.4,0.3,0.9,0.3,1.2,0l4.6-3.6l10.5,3.8c0.1,0,0.2,0.1,0.3,0.1c0.2,0,0.4-0.1,0.6-0.2
		l4.7-3.8h6.6V481.9z M802.7,478.9h7.5l-5.1,1.9L802.7,478.9z M818.7,478.9h4.3l-2.2,1.7L818.7,478.9z M831.6,478.9h7.5l-2.3,1.9
		L831.6,478.9z M844.9,476.9h-48v-2h48V476.9z M844.9,472.9h-48c-1.7,0-3-1.3-3-3v-1h3c1.3,0,2.5,0.3,3.6,0.9
		c1.4,0.7,2.9,1.1,4.5,1.1c1.6,0,3.1-0.3,4.5-1.1c1.1-0.6,2.4-0.9,3.6-0.9c1.3,0,2.5,0.3,3.7,0.9c1.4,0.7,2.9,1.1,4.5,1.1
		c1.6,0,3.1-0.3,4.5-1.1c2.3-1.2,5-1.2,7.3,0c2.8,1.4,6.2,1.4,9,0c1.1-0.6,2.4-0.9,3.7-0.9h2v1C847.9,471.5,846.5,472.9,844.9,472.9
		z M847.7,466.9h-1.8c-1.6,0-3.1,0.3-4.5,1.1c-2.3,1.2-5,1.2-7.3,0c-2.8-1.4-6.2-1.4-9,0c-1.1,0.6-2.4,0.9-3.7,0.9
		c-1.3,0-2.5-0.3-3.7-0.9c-1.4-0.7-2.9-1.1-4.5-1.1c-1.6,0-3.1,0.3-4.5,1.1c-1.1,0.6-2.4,0.9-3.7,0.9c-1.3,0-2.5-0.3-3.6-0.9
		c-1.4-0.7-2.9-1.1-4.5-1.1h-2.8c0.4-1.2,1.5-2,2.8-2h7.2c0.5,1.6,2.2,2.4,3.8,1.8c0.9-0.3,1.5-1,1.8-1.8h25.4
		c0.5,1.6,2.2,2.4,3.8,1.8c0.9-0.3,1.5-1,1.8-1.8h4.2C846.2,464.9,847.3,465.7,847.7,466.9z M843.9,462.9h-3v-2h3V462.9z"/>
	<rect x="801.9" y="454.9" width="2" height="2"/>
	<rect x="807.9" y="452.9" width="2" height="2"/>
	<rect x="796.9" y="453.9" width="2" height="2"/>
	<rect x="813.9" y="454.9" width="2" height="2"/>
	<rect x="837.9" y="454.9" width="2" height="2"/>
	<rect x="831.9" y="452.9" width="2" height="2"/>
	<rect x="842.9" y="453.9" width="2" height="2"/>
	<rect x="825.9" y="454.9" width="2" height="2"/>
	<rect x="819.9" y="452.9" width="2" height="2"/>
</g>
<g>
	<g>
		<path d="M259.9,667.8c-4.5,4.6-10.6,7.1-17.1,7.1c-5.7,0-11.2-2-15.5-5.7c-0.4-0.4-1.1-0.3-1.4,0.1c-0.4,0.4-0.3,1.1,0.1,1.4l0,0
			c1.9,1.6,4.1,3,6.5,4L232,683c-0.1,2,0,4,0.4,5.9c0.6,3.5,2.8,6.5,6,8v4c0,0.6,0.4,1,1,1c0.6,0,1-0.4,1-1v-3.3c0,0,0,0,0.1,0
			c0.8,0.2,1.6,0.3,2.4,0.3c0.8,0,1.7-0.1,2.5-0.3v3.3c0,0.6,0.4,1,1,1c0.6,0,1-0.4,1-1v-4c3.1-1.5,5.3-4.3,5.9-7.7l0.1-0.3
			c0.4-2,0.5-4,0.4-5.9l-0.3-5.4c0-0.6-0.5-1-1.1-0.9c-0.6,0-1,0.5-0.9,1.1l0.3,5.4c0.1,1.8,0,3.7-0.3,5.5l-0.1,0.3
			c-0.9,4.7-5.3,7.8-10,6.9c-0.1,0-0.3-0.1-0.4-0.1c-3.4-0.9-6-3.7-6.5-7.1c-0.3-1.8-0.4-3.6-0.3-5.5l0.4-7.6
			c0.3,0.1,0.6,0.2,0.9,0.3l0.5,8.2c0.1,1.7,1.6,3,3.3,2.9c1.6-0.1,2.8-1.4,2.9-2.9l0.4-7.1c0.2,0,0.3,0,0.5,0c0.2,0,0.3,0,0.5,0
			l0.4,7.1c0.1,1.7,1.6,3,3.3,2.9c1.6-0.1,2.8-1.4,2.9-2.9l0.5-8.2c4.1-1.3,7.9-3.5,10.9-6.6c0.4-0.4,0.4-1,0-1.4
			C260.9,667.4,260.3,667.4,259.9,667.8L259.9,667.8z M240,683.9c0,0.6-0.6,1.1-1.2,1c-0.6,0-1-0.5-1-1l-0.4-7.6c1,0.2,2,0.4,3,0.5
			L240,683.9z M248,683.9c0,0.6-0.6,1.1-1.2,1c-0.6,0-1-0.5-1-1l-0.4-7.1c1-0.1,2-0.3,3-0.5L248,683.9z"/>
		<path d="M272.9,649.7l-1-5c-0.1-0.5-0.6-0.9-1.1-0.8l-5.6,0.9l-3.7-2.7c-0.4-0.3-1.1-0.2-1.4,0.2c-0.1,0.2-0.2,0.4-0.2,0.6v7.2
			c-2.2,0.6-3.9,2.2-4.5,4.3c-2,6.9-9.2,10.9-16.1,8.9c-4.3-1.2-7.7-4.6-8.9-8.9c-1.1-3.4-4.7-5.4-8.1-4.3c-1.3,0.4-2.4,1.2-3.2,2.2
			l-4.1-2.9l0.7-3.4l5,0.8c0.3,0,0.5,0,0.8-0.2l2.4-1.8v2.1c0,0.6,0.4,1,1,1c0.6,0,1-0.4,1-1v-4.1c0-0.6-0.4-1-1-1
			c-0.2,0-0.4,0.1-0.6,0.2l-3.7,2.7L215,644c-0.5-0.1-1,0.3-1.1,0.8l-1,5c-0.1,0.4,0.1,0.8,0.4,1l4.8,3.4c-0.5,1.3-0.6,2.7-0.2,4.1
			c1,3.5,2.8,6.8,5.2,9.6c0.4,0.4,1,0.5,1.4,0.1c0.4-0.4,0.5-1,0.1-1.4c-2.2-2.6-3.8-5.6-4.8-8.8c-0.4-1.3-0.1-2.8,0.7-3.9
			c0.8-1.1,2.2-1.8,3.6-1.8c2,0,3.7,1.3,4.3,3.1c0.1,0.2,0.1,0.4,0.2,0.6l-2.9,1.7c-1.4,0.8-1.9,2.7-1.1,4.1
			c0.8,1.4,2.7,1.9,4.1,1.1l2.9-1.7c0.4,0.5,0.8,0.9,1.3,1.3l-1.7,2.9c-0.8,1.4-0.3,3.3,1.1,4.1s3.3,0.3,4.1-1.1l1.7-2.9
			c0.6,0.2,1.2,0.3,1.7,0.5v3.3c0,1.7,1.3,3,3,3c1.7,0,3-1.3,3-3l0,0v-3.3c0.6-0.1,1.2-0.3,1.7-0.5l1.7,2.9c0.8,1.4,2.7,1.9,4.1,1.1
			c1.4-0.8,1.9-2.7,1.1-4.1l0,0l-1.7-2.9c0.4-0.4,0.9-0.8,1.3-1.3l2.9,1.7c1.4,0.8,3.3,0.3,4.1-1.1c0.8-1.4,0.3-3.3-1.1-4.1l0,0
			l-2.9-1.7c0.1-0.2,0.1-0.4,0.2-0.6c0.6-1.9,2.3-3.2,4.3-3.1c1.4,0,2.8,0.7,3.6,1.8c0.8,1.1,1.1,2.6,0.7,3.9
			c-0.8,2.6-1.9,5-3.5,7.2c-0.3,0.4-0.2,1.1,0.2,1.4s1.1,0.2,1.4-0.2c1.7-2.4,3-5,3.8-7.8c0.4-1.3,0.3-2.8-0.2-4.1l4.8-3.4
			C272.8,650.5,272.9,650.1,272.9,649.7z M227.8,660.8c-0.5,0.3-1.1,0.1-1.4-0.4c0,0,0,0,0,0c-0.3-0.5-0.1-1.1,0.4-1.4c0,0,0,0,0,0
			l2.6-1.5c0.3,0.6,0.6,1.2,1,1.7L227.8,660.8z M234.7,667c-0.3,0.5-0.9,0.6-1.4,0.4c-0.5-0.3-0.6-0.9-0.4-1.4c0,0,0,0,0,0l1.5-2.6
			c0.6,0.4,1.1,0.7,1.7,1L234.7,667z M243.9,668.9c0,0.6-0.4,1-1,1c-0.6,0-1-0.4-1-1v-3c0.3,0,0.7,0,1,0s0.7,0,1,0V668.9z
			 M252.7,666c0.3,0.5,0.1,1.1-0.4,1.4c0,0,0,0,0,0c-0.5,0.3-1.1,0.1-1.4-0.4c0,0,0,0,0,0l-1.5-2.6c0.6-0.3,1.2-0.6,1.7-1L252.7,666
			z M259,659.1c0.5,0.3,0.6,0.9,0.4,1.4c-0.3,0.5-0.9,0.6-1.4,0.4l-2.6-1.5c0.4-0.6,0.7-1.1,1-1.7L259,659.1z M266.7,652.4
			c-1.2-1.5-2.9-2.4-4.8-2.5v-5l2.4,1.8c0.2,0.2,0.5,0.2,0.8,0.2l5-0.8l0.7,3.4L266.7,652.4z"/>
	</g>
</g>
<g>
	<g>
		<path d="M1050.3,96.3c-1.7,2.1-3.6,4-5.7,5.6l-0.4,0.3c-1.8,1.4-3.4,3-4.8,4.8l-0.5,0.6c-0.3,0.4-0.3,1.1,0.2,1.4
			c0.4,0.3,1.1,0.3,1.4-0.2l0.5-0.6c1.3-1.7,2.8-3.1,4.4-4.4l0.4-0.3c2.2-1.7,4.3-3.8,6-6c0.3-0.4,0.3-1.1-0.2-1.4
			C1051.3,95.8,1050.7,95.9,1050.3,96.3z"/>
		<path d="M1045.8,113.4l-0.5,0.6c-0.4,0.4-0.3,1.1,0.1,1.4c0.4,0.4,1.1,0.3,1.4-0.1c0,0,0,0,0,0l0.5-0.6c1.3-1.7,2.8-3.2,4.4-4.4
			l0.4-0.3c2.2-1.7,4.3-3.8,6-6c0.3-0.4,0.3-1.1-0.2-1.4c-0.4-0.3-1.1-0.3-1.4,0.2c-1.7,2.1-3.6,4-5.7,5.7l-0.4,0.3
			C1048.8,110,1047.2,111.6,1045.8,113.4z"/>
		<path d="M1047.5,121.1c0.1,0,0.2,0,0.3,0c1.4-0.1,2.6-0.8,3.5-1.8c1.5-1.9,3.2-3.6,5.1-5.1l0.4-0.3c2-1.6,3.9-3.4,5.5-5.5
			c0.9-1.2,2.7-1.4,3.9-0.5c0.1,0.1,0.2,0.1,0.3,0.2l1.6,1.6l0.7,1c0.2,0.2,0.4,0.4,0.7,0.4c0.3,0,0.6-0.1,0.8-0.3l2.3-2.3
			c1.2-1.2,1.2-3.1,0-4.2c0,0,0,0,0,0c-1.2-1.1-3.1-1.1-4.2,0l-1.5,1.5c-0.8-0.5-1.7-0.7-2.6-0.6c-0.1,0-0.2,0-0.4,0.1
			c0.1-0.7,0-1.3-0.1-2l1.9-1.9c1.2-1.2,1.2-3.1,0-4.2c0,0,0,0,0,0c-1.2-1.1-3.1-1.1-4.2,0l-1.6,1.6c-2-1.2-4.7-0.7-6.1,1.2
			c-0.9,1.1-1.9,2.2-2.9,3.2c-0.4,0.4-0.4,1,0,1.4c0.4,0.4,1,0.4,1.4,0l0,0c1.1-1.1,2.2-2.2,3.1-3.4c0.9-1.2,2.7-1.4,3.9-0.5
			c0.1,0.1,0.2,0.1,0.2,0.2l0,0l0,0l1.7,1.7c0.2,0.2,0.4,0.5,0.5,0.8c0,0,0,0,0,0.1c0.4,0.9,0.3,2-0.3,2.8c0,0,0,0,0,0c0,0,0,0,0,0
			l-0.3,0.4c0,0,0,0,0,0c-0.1,0.1-0.2,0.1-0.2,0.2c-1.5,1.9-3.2,3.6-5.1,5.1l-0.4,0.3c-2.1,1.6-3.9,3.4-5.5,5.5
			c-0.9,1.2-2.7,1.4-3.9,0.5c-0.1-0.1-0.2-0.1-0.3-0.2l-1.7-1.7l0,0l0,0c-1-1-1.1-2.6-0.2-3.7l0.6-0.7c1.5-1.9,3.2-3.6,5.1-5.1
			c0.4-0.3,0.5-1,0.2-1.4s-1-0.5-1.4-0.2c0,0,0,0,0,0c-2.1,1.6-3.9,3.4-5.5,5.5l-0.6,0.7c-0.2,0.3-0.4,0.6-0.6,1
			c-0.8,0.1-1.7-0.2-2.3-0.8l-1.7-1.7l0,0l0,0c-1-1-1.1-2.6-0.2-3.7l0.6-0.7c1.5-1.9,3.2-3.6,5.1-5.1l0.4-0.3
			c2.1-1.6,3.9-3.4,5.5-5.5c0.9-1.2,2.7-1.4,3.9-0.5c0.1,0.1,0.2,0.1,0.3,0.2h0l0,0l1,1c0.4,0.4,1,0.4,1.4,0c0.4-0.4,0.4-1,0-1.4
			l-0.5-0.5l1.4-1.4c0.4-0.4,1-0.4,1.4,0c0.4,0.4,0.4,1,0,1.4l-1.2,1.2c-0.4,0.4-0.4,1,0,1.4s1,0.4,1.4,0l0,0l1.2-1.2
			c1.2-1.2,1.2-3.1,0-4.2c-1.2-1.1-3.1-1.1-4.2,0l-1.6,1.5c-2.1-1.2-4.7-0.7-6.1,1.2c-1.5,1.9-3.2,3.6-5.1,5.1l-0.4,0.3
			c-2,1.6-3.9,3.4-5.5,5.5l-0.6,0.7c-1.2,1.5-1.3,3.6-0.4,5.2l-1.6,1.6c-1.2,1.1-1.3,3-0.2,4.2c1.1,1.2,3,1.3,4.2,0.2
			c0.1-0.1,0.1-0.1,0.2-0.2l1.8-1.8c0.4,0.1,0.8,0.2,1.3,0.2c0,0.8,0.2,1.5,0.6,2.2l-1.6,1.6c-1.2,1.2-1.2,3.1,0,4.2s3.1,1.2,4.2,0
			l1.8-1.8C1046.6,121,1047.1,121.1,1047.5,121.1z M1069.8,105.7c0.4-0.4,1-0.4,1.4,0c0.4,0.4,0.4,1,0,1.4c0,0,0,0,0,0l-1.4,1.4
			l-0.1-0.1c0,0-0.1-0.1-0.1-0.1l-1.2-1.2L1069.8,105.7z M1064.2,98.7c0.4,0.4,0.4,1,0,1.4c0,0,0,0,0,0l-1.4,1.4
			c-0.1-0.1-0.1-0.2-0.2-0.3l-1.2-1.2l1.4-1.4C1063.1,98.3,1063.8,98.3,1064.2,98.7z M1036.6,114.9c-0.4,0.4-1,0.4-1.4,0
			c-0.4-0.4-0.4-1,0-1.4c0,0,0,0,0,0l1.4-1.4l1.2,1.2c0.1,0.1,0.1,0.1,0.2,0.2L1036.6,114.9z M1042.9,121.3c-0.4,0.4-1,0.4-1.4,0
			c-0.4-0.4-0.4-1,0-1.4c0,0,0,0,0,0l1.4-1.4l1.2,1.2c0.1,0.1,0.1,0.1,0.2,0.2L1042.9,121.3z"/>
		<path d="M1063.8,109.7c-1.7,2.1-3.6,4-5.7,5.6l-0.4,0.3c-1.8,1.4-3.4,3-4.8,4.8l-0.5,0.6c-0.3,0.4-0.3,1.1,0.2,1.4
			s1.1,0.3,1.4-0.2l0.5-0.6c1.3-1.7,2.8-3.1,4.4-4.4l0.4-0.3c2.2-1.7,4.3-3.8,6-6c0.4-0.4,0.3-1.1-0.1-1.4
			S1064.1,109.3,1063.8,109.7C1063.8,109.7,1063.8,109.7,1063.8,109.7z"/>
		<path d="M1065.9,124.3l0.4-0.3c2.4-1.6,4.5-3.5,6.4-5.6c0.4-0.4,0.4-1,0-1.4c-0.4-0.4-1-0.4-1.4,0c0,0,0,0-0.1,0.1
			c-1.8,2-3.8,3.7-6.1,5.2l-0.4,0.3c-1.9,1.3-3.6,2.8-5.1,4.4l-0.5,0.6c-0.4,0.4-0.3,1,0.1,1.4c0.4,0.4,1,0.3,1.4-0.1c0,0,0,0,0,0
			l0.5-0.6C1062.6,126.8,1064.2,125.5,1065.9,124.3z"/>
		<path d="M1077.7,125.4c-2,1.8-4.1,3.4-6.5,4.7l-0.4,0.2c-2,1.1-3.8,2.5-5.4,4l-0.5,0.5c-0.4,0.4-0.4,1,0,1.4c0.4,0.4,1,0.4,1.4,0
			l0,0l0.5-0.5c1.5-1.4,3.2-2.7,5.1-3.7l0.4-0.2c2.5-1.4,4.8-3.1,6.9-5c0.4-0.4,0.4-1,0-1.4S1078.1,125.1,1077.7,125.4z"/>
		<path d="M1092.6,132.5c-0.5-1-1.6-1.7-2.7-1.7c-0.5,0-0.9,0.1-1.3,0.3l-2,1c-1.6-1.8-4.2-2.1-6.2-0.8c-1.2,0.8-2.5,1.5-3.9,2.1
			c-0.5,0.2-0.7,0.8-0.5,1.3c0.2,0.5,0.8,0.7,1.3,0.5c0,0,0,0,0,0c1.4-0.7,2.8-1.4,4.2-2.3c1.3-0.8,3-0.5,3.8,0.8
			c0.1,0.1,0.1,0.2,0.2,0.3l1,2.1c0.6,1.3,0.2,2.8-1,3.5l-0.8,0.5c-2,1.3-4.2,2.4-6.5,3.2l-0.5,0.2c-2.5,0.8-4.8,2-7,3.4
			c-1.3,0.8-3,0.5-3.8-0.8c-0.1-0.1-0.1-0.2-0.2-0.3l-1-2.1c-0.6-1.3-0.2-2.8,1-3.5l0.8-0.5c2-1.3,4.2-2.4,6.5-3.2
			c0.5-0.2,0.8-0.7,0.6-1.3s-0.7-0.8-1.3-0.6c0,0,0,0,0,0c-2.5,0.8-4.8,2-7,3.4l-0.8,0.5c-0.4,0.3-0.7,0.6-1,1
			c-0.1-0.1-0.2-0.2-0.3-0.3l-1.4-1.9c-0.8-1.1-0.7-2.7,0.3-3.7l0.7-0.7c1.8-1.7,3.7-3.1,5.9-4.3l0.4-0.2c2.3-1.3,4.4-2.8,6.2-4.6
			c0.6-0.6,1.4-0.8,2.2-0.8c0.8,0.1,1.5,0.5,2,1.1l1.4,1.9c0.4,0.5,0.6,1.2,0.5,1.8c0,0.6,0.4,1,0.9,1.1c0.5,0,1-0.4,1.1-0.9
			c0,0,0,0,0,0c0-0.3,0-0.6,0-0.9l2.1-1.5c1.3-1,1.6-2.9,0.6-4.2c-0.6-0.8-1.5-1.2-2.4-1.2c-0.6,0-1.3,0.2-1.8,0.6l-1.8,1.3
			c-0.9-0.8-2.1-1.1-3.3-1c0.4-0.9,0.5-1.9,0.3-2.8l2-1.7c1.2-1.1,1.4-3,0.3-4.2c-1.1-1.2-3-1.4-4.2-0.3l-1.7,1.4
			c-0.8-0.5-1.7-0.8-2.6-0.8h0c-1.4,0-2.6,0.6-3.6,1.6c-1.6,1.8-3.5,3.4-5.5,4.8l-0.4,0.3c-2.2,1.5-4.1,3.2-5.9,5.1l-0.6,0.7
			c-0.2,0.3-0.4,0.6-0.6,0.9c-1,0.3-2.1,0.1-2.8-0.6l-1.7-1.7l-0.2-0.2c-0.2-0.2-0.4-0.3-0.7-0.3c-0.3,0-0.5,0.1-0.7,0.3l-2.1,2.1
			c-1.2,1.2-1.2,3.1,0,4.2c0.6,0.6,1.3,0.9,2.1,0.9c0.8,0,1.6-0.3,2.1-0.9l1.8-1.8c0.5,0.2,1.1,0.2,1.6,0.2c0,0.7,0.1,1.5,0.4,2.2
			l-1.7,1.4c-1.3,1.1-1.4,3-0.3,4.2c0.6,0.7,1.4,1,2.3,1c0.7,0,1.4-0.3,2-0.7l2-1.7c0.3,0.1,0.6,0.2,0.9,0.2
			c-0.2,0.8-0.1,1.7,0.2,2.5l-1.8,1.3c-1.3,1-1.6,2.8-0.7,4.2c0,0,0,0,0,0c1,1.3,2.9,1.6,4.2,0.6c0,0,0,0,0,0l1-0.8
			c0,0.2,0,0.5,0.1,0.7l-2,1c-0.7,0.4-1.3,1-1.5,1.7c-0.3,0.7-0.2,1.6,0.1,2.3c0.5,1,1.6,1.7,2.7,1.7c0.5,0,0.9-0.1,1.3-0.3l2.3-1.1
			c1.6,1.2,3.7,1.2,5.4,0.1c2-1.3,4.2-2.4,6.5-3.2l0.5-0.2c2.5-0.8,4.8-2,7-3.4l0.8-0.5c1.3-0.8,2.1-2.2,2.1-3.7l2.4-1.2
			C1092.7,135.8,1093.3,134,1092.6,132.5C1092.6,132.5,1092.6,132.5,1092.6,132.5z M1084.3,122.4c0.4-0.3,1.1-0.2,1.4,0.2
			c0.3,0.4,0.2,1.1-0.2,1.4l-1.6,1.2c-0.1-0.1-0.1-0.2-0.2-0.3l-1-1.3L1084.3,122.4z M1050,128.4c-0.4,0.4-1,0.4-1.4,0
			c-0.4-0.4-0.4-1,0-1.4c0,0,0,0,0,0l1.4-1.4l1.2,1.2c0.1,0.1,0.1,0.1,0.2,0.2L1050,128.4z M1077.6,113.5c0.4-0.4,1-0.3,1.4,0.1
			c0.4,0.4,0.3,1-0.1,1.4l-1.5,1.3c-0.1-0.1-0.1-0.2-0.2-0.3l-1.1-1.3L1077.6,113.5z M1056.3,134.8c-0.4,0.3-1,0.3-1.4-0.1
			c-0.4-0.4-0.3-1,0.1-1.4c0,0,0,0,0,0l1.5-1.3l1.1,1.3c0.1,0.1,0.1,0.1,0.2,0.2L1056.3,134.8z M1059.1,131.9l-1.6-1.8
			c-0.9-1.1-0.9-2.6,0-3.7l0.6-0.7c1.6-1.8,3.5-3.4,5.5-4.8l0.4-0.3c2.2-1.5,4.1-3.2,5.9-5.1c0.5-0.6,1.3-0.9,2.1-0.9
			c0.8,0,1.6,0.4,2.1,1l1.6,1.8c0.9,1.1,0.9,2.6,0,3.7l-0.6,0.7c-1.5,1.6-3.1,3.1-4.9,4.3c-0.3,0.2-0.6,0.4-0.9,0.6l-0.4,0.2
			c-2.3,1.3-4.4,2.8-6.2,4.6l-0.7,0.7c-0.2,0.2-0.4,0.4-0.6,0.7C1060.5,132.9,1059.7,132.5,1059.1,131.9L1059.1,131.9z
			 M1061.3,141.8c-0.5,0.3-1.1,0.2-1.4-0.2c-0.3-0.4-0.2-1.1,0.2-1.4c0,0,0,0,0,0l1.6-1.2l1,1.4c0.1,0.1,0.1,0.1,0.2,0.2
			L1061.3,141.8z M1063.3,147.9c-0.5,0.2-1.1,0-1.3-0.5c-0.1-0.2-0.1-0.5,0-0.8c0.1-0.3,0.3-0.5,0.5-0.6l1.8-0.9l0.8,1.5
			c0,0.1,0.1,0.2,0.1,0.2L1063.3,147.9z M1090.8,134.2c-0.1,0.3-0.3,0.5-0.5,0.6l-1.8,0.9c0-0.1-0.1-0.2-0.1-0.3l-0.7-1.5l1.8-0.9
			c0.5-0.2,1.1,0,1.3,0.5C1090.9,133.6,1090.9,133.9,1090.8,134.2z"/>
		<path d="M1068.6,141.4l-0.6,0.4c-0.5,0.3-0.6,0.9-0.3,1.4s0.9,0.6,1.4,0.3c0,0,0,0,0.1,0l0.6-0.4c1.8-1.1,3.6-2.1,5.6-2.8l0.5-0.2
			c2.7-0.9,5.3-2.2,7.6-3.7c0.5-0.3,0.6-0.9,0.3-1.4c-0.3-0.5-0.9-0.6-1.4-0.3c0,0,0,0,0,0c-2.3,1.4-4.7,2.6-7.2,3.5l-0.5,0.2
			C1072.6,139.1,1070.5,140.1,1068.6,141.4z"/>
	</g>
</g>
<g>
	<g>
		<path d="M1239.2,141.4c-5,6.6-14.3,8-21,3c-0.6-0.4-1.1-0.9-1.6-1.4c-3.4-3.6-5.5-8.2-6-13.1c-0.3-4.2-2.9-8-6.8-9.6l-2.6-2.6
			c-0.8-0.8-0.9-2-0.2-2.9c0.7-0.8,2-0.9,2.8-0.2c0,0,0.1,0,0.1,0.1c0.4,0.4,1,0.4,1.4,0c0.4-0.4,0.4-1,0-1.4c-0.8-0.8-0.8-2,0-2.8
			c0.8-0.8,2-0.8,2.8,0c0.4,0.4,1,0.4,1.4,0c0.4-0.4,0.4-1,0-1.4c-0.8-0.8-0.8-2,0-2.8c0,0,0,0,0.1-0.1c0.9-0.7,2.1-0.6,2.9,0.2
			c0.4,0.4,1,0.4,1.4,0c0.4-0.4,0.4-1,0-1.4c0,0,0,0,0,0c-1.5-1.6-4-1.7-5.6-0.3c-0.3,0.3-0.6,0.6-0.8,1l-6.6-6.6
			c2-2.5,1.6-6.2-0.9-8.2c-2.5-2.1-6.3-1.8-8.4,0.7c-0.5,0.6-0.9,1.3-1.1,2c-0.3,0.9-0.4,1.9-0.2,2.9c-1.2,0-2.4,0.4-3.3,1.1
			c-1.7,1.1-2.8,3-2.8,5.1c0.1,3.3,2.8,5.9,6.2,5.8c1.5,0,3-0.7,4.1-1.7l4.5,4.5c0.4,0.4,1,0.4,1.4,0s0.4-1,0-1.4l-5.3-5.3
			c-0.4-0.4-1-0.4-1.4,0c0,0-0.1,0.1-0.1,0.1c-1.2,1.8-3.7,2.3-5.6,1.1c-1.1-0.7-1.7-1.9-1.8-3.2c0-1.4,0.7-2.6,1.9-3.4
			c1-0.7,2.2-0.9,3.4-0.5c0.5,0.2,1.1-0.1,1.3-0.6c0.1-0.3,0.1-0.5-0.1-0.8c-0.5-0.9-0.6-2-0.3-3c0.5-1.4,1.6-2.4,3.1-2.7
			c2.2-0.4,4.2,1,4.6,3.2c0.2,1.4-0.2,2.8-1.3,3.7c-0.4,0.4-0.4,1-0.1,1.4c0,0,0,0,0,0l8.1,8.1l0,0c-1.1-0.1-2.3,0.4-3.1,1.2
			c-0.8,0.7-1.2,1.8-1.2,2.8c0,0.1,0,0.2,0,0.3c-0.1,0-0.2,0-0.4,0c-1.1,0-2.1,0.5-2.9,1.3c-1.4,1.6-1.3,4.1,0.3,5.6l2.6,2.6
			c0.2,0.2,0.4,0.3,0.6,0.4c3.2,1.4,5.4,4.5,5.6,8c0.6,5.4,2.9,10.4,6.6,14.4c6.5,6.6,17.2,6.7,23.9,0.2c0.6-0.6,1.2-1.3,1.7-2
			c0.3-0.4,0.2-1.1-0.2-1.4C1240.1,140.8,1239.5,140.9,1239.2,141.4L1239.2,141.4z"/>
		<path d="M1239.2,120.3c-3.9-3.7-9-6.1-14.4-6.6c-3.5-0.2-6.6-2.4-8-5.6c-0.2-0.5-0.8-0.8-1.3-0.5s-0.8,0.8-0.5,1.3
			c1.7,3.9,5.4,6.6,9.6,6.8c4.9,0.5,9.5,2.6,13.1,6c4.3,4.3,5.6,10.8,3.2,16.4c-0.2,0.5,0,1.1,0.5,1.3c0.1,0,0.3,0.1,0.4,0.1
			c0.4,0,0.8-0.2,0.9-0.6C1245.6,132.5,1244.1,125.2,1239.2,120.3z"/>
		<circle cx="1222.2" cy="138.4" r="1"/>
		<circle cx="1218.2" cy="140.4" r="1"/>
		<circle cx="1233.2" cy="142.4" r="1"/>
		<circle cx="1231.2" cy="137.4" r="1"/>
		<circle cx="1237.2" cy="134.4" r="1"/>
		<circle cx="1222.2" cy="143.4" r="1"/>
		<circle cx="1228.2" cy="140.4" r="1"/>
		<circle cx="1237.2" cy="138.4" r="1"/>
		<circle cx="1226.2" cy="137.4" r="1"/>
		<circle cx="1220.2" cy="134.4" r="1"/>
		<circle cx="1228.2" cy="144.4" r="1"/>
		<circle cx="1216.2" cy="135.4" r="1"/>
		<circle cx="1212.2" cy="123.4" r="1"/>
		<circle cx="1214.2" cy="130.4" r="1"/>
	</g>
</g>
<g>
	<g>
		<path d="M375.8,679.7l-2-4c-0.2-0.3-0.5-0.6-0.9-0.6h-4v-2h1c1.7,0,3-1.3,3-3v-2c0-0.6-0.4-1-1-1h-17.6c-0.6,0-1,0.4-1,1
			s0.4,1,1,1h16.6v1c0,0.6-0.4,1-1,1h-48c-0.6,0-1-0.4-1-1v-1h13c0.1,0,0.1,0,0.2,0c0.3,0,0.5,0,0.8,0h3.7c5.6,0,11.2-1.3,16.3-3.8
			l0.4-0.2c3.7-1.8,5.5-6,4.4-10h2.5c0.4,0,0.8-0.3,0.9-0.7c0.4-1,1.5-1.6,2.5-1.2c0.8,0.3,1.3,1,1.3,1.9c0,0.5-0.2,1-0.5,1.3
			c-0.3,0.4-0.3,1,0,1.3c0.3,0.4,0.5,0.8,0.5,1.3c0,1.1-0.9,2-2,2c-0.8,0-1.6-0.5-1.9-1.3c-0.2-0.5-0.8-0.8-1.3-0.6
			s-0.8,0.8-0.6,1.3c0.7,2.1,3,3.2,5.1,2.4c1.6-0.6,2.7-2.1,2.7-3.8c0-0.7-0.2-1.4-0.5-2c0.4-0.6,0.5-1.3,0.5-2c0-2.2-1.8-4-4-4
			c-1.4,0-2.8,0.8-3.5,2h-2.7c-0.3-0.6-0.7-1.1-1.2-1.6l0,0c-0.5-0.6-1.2-1.1-1.8-1.5c-2.1-1.2-4.2-2.2-6.5-3l0,0
			c-3.8-1.3-7.8-2-11.8-2h-2.4c-0.3,0-0.7,0-1,0c-0.6,0-1,0.5-0.9,1.1c0,0.5,0.5,1,1.1,0.9c0.3,0,0.6,0,0.8,0c3.7,0,7,2,8.8,5.2
			l-1.8,1.7c-1.7,1.6-2.1,4.1-1,6.1c0.3,0.5,0.9,0.6,1.4,0.3c0.4-0.3,0.6-0.8,0.4-1.3c-0.7-1.2-0.4-2.7,0.6-3.7l1.2-1.2
			c1.2,4.1-0.3,8.5-3.8,10.9l-3.2-2.6c-2.7-2.2-6.6-2.7-9.7-1.1l-1.5,0.7c-0.1-0.1-0.1-0.2-0.2-0.3l2.3-4.2c1.4-2.6,1.3-5.7-0.3-8.1
			c0.7-0.6,1.5-1.2,2.4-1.6c0.5-0.2,0.7-0.8,0.5-1.3c-0.2-0.5-0.8-0.7-1.3-0.5c-6,2.9-8.5,10-5.6,16c0.9,1.9,2.4,3.6,4.2,4.8h-8.4
			c-0.6,0-1,0.4-1,1v2c0,1.7,1.3,3,3,3h1v2h-4c-0.4,0-0.7,0.2-0.9,0.6l-2,4c-0.1,0.1-0.1,0.3-0.1,0.4v12c0,0.6,0.4,1,1,1h30
			c0.6,0,1-0.4,1-1s-0.4-1-1-1h-29v-10.8l1.6-3.2h52.8l1.6,3.2v10.8h-23c-0.6,0-1,0.4-1,1s0.4,1,1,1h24c0.6,0,1-0.4,1-1v-12
			C375.9,680,375.9,679.8,375.8,679.7z M355.5,652.4c-1.1,1.8-2.5,3.3-4.2,4.6c0.2-2.4,0-4.8-0.7-7.2c1.4,0.6,2.8,1.3,4.1,2
			C354.9,652,355.2,652.2,355.5,652.4z M346.9,657.1c0-3.8-1.8-7.4-4.9-9.7c2.1,0.3,4.1,0.8,6.1,1.4c1.4,3.2,1.7,6.7,0.8,10
			c-0.1,0.5,0.2,1.1,0.7,1.2c0.3,0.1,0.6,0,0.8-0.1l1.6-1.1c1.9-1.3,3.5-3,4.7-4.9c2,3,1.1,7-1.9,9c-0.2,0.1-0.4,0.3-0.7,0.4
			l-0.4,0.2c-3.8,1.9-7.9,3.1-12.2,3.5C345,664.7,346.9,661,346.9,657.1z M326.8,651.3c0.9,1.8,0.9,3.8-0.1,5.6l-1.5,2.7
			C324.5,656.8,325,653.7,326.8,651.3z M327.6,663.9l1.1-0.6c2.5-1.2,5.4-0.9,7.6,0.8l2.6,2.1C335,668,330.4,667,327.6,663.9
			L327.6,663.9z M362.9,673.1v2h-34v-2H362.9z M324.9,675.1v-2h2v2H324.9z M364.9,675.1v-2h2v2H364.9z"/>
		<path d="M346.9,679.1h-6c-0.6,0-1,0.4-1,1s0.4,1,1,1h5v6h-23v-6h14c0.6,0,1-0.4,1-1s-0.4-1-1-1h-15c-0.6,0-1,0.4-1,1v8
			c0,0.6,0.4,1,1,1h25c0.6,0,1-0.4,1-1v-8C347.9,679.6,347.5,679.1,346.9,679.1z"/>
		<path d="M357.9,689.1c0.6,0,1-0.4,1-1v-8c0-0.6-0.4-1-1-1h-4c-0.6,0-1,0.4-1,1v8c0,0.6,0.4,1,1,1H357.9z M356.9,687.1h-2v-2h2
			V687.1z M354.9,681.1h2v2h-2V681.1z"/>
		<path d="M366.9,689.1c0.6,0,1-0.4,1-1v-8c0-0.6-0.4-1-1-1h-4c-0.6,0-1,0.4-1,1v8c0,0.6,0.4,1,1,1H366.9z M365.9,687.1h-2v-2h2
			V687.1z M363.9,681.1h2v2h-2V681.1z"/>
		<circle cx="325.9" cy="684.1" r="1"/>
		<circle cx="329.9" cy="684.1" r="1"/>
		<circle cx="333.9" cy="684.1" r="1"/>
		<circle cx="341.9" cy="684.1" r="1"/>
		<path d="M334.9,657.1c2.2,0,4-1.8,4-4c0-2.2-1.8-4-4-4s-4,1.8-4,4C330.9,655.3,332.7,657.1,334.9,657.1z M334.9,651.1
			c1.1,0,2,0.9,2,2s-0.9,2-2,2c-1.1,0-2-0.9-2-2S333.8,651.1,334.9,651.1z"/>
	</g>
</g>
</svg>
